<?xml version="1.0" encoding="UTF-8" standalone="no"?>
<!-- Created with Inkscape (http://www.inkscape.org/) -->

<svg
   width="60.959999mm"
   height="128.5mm"
   viewBox="0 0 60.960002 128.5"
   version="1.1"
   id="svg5"
   inkscape:version="1.2.1 (9c6d41e410, 2022-07-14)"
   sodipodi:docname="16Squared.svg"
   xml:space="preserve"
   xmlns:inkscape="http://www.inkscape.org/namespaces/inkscape"
   xmlns:sodipodi="http://sodipodi.sourceforge.net/DTD/sodipodi-0.dtd"
   xmlns="http://www.w3.org/2000/svg"
   xmlns:svg="http://www.w3.org/2000/svg"><sodipodi:namedview
     id="namedview7"
     pagecolor="#ffffff"
     bordercolor="#000000"
     borderopacity="0.25"
     inkscape:showpageshadow="2"
     inkscape:pageopacity="0.0"
     inkscape:pagecheckerboard="0"
     inkscape:deskcolor="#d1d1d1"
     inkscape:document-units="mm"
     showgrid="false"
     inkscape:zoom="1.405165"
     inkscape:cx="16.012355"
     inkscape:cy="199.26486"
     inkscape:window-width="1920"
     inkscape:window-height="1017"
     inkscape:window-x="1912"
     inkscape:window-y="-8"
     inkscape:window-maximized="1"
     inkscape:current-layer="layer3" /><defs
     id="defs2"><rect
       x="30.175261"
       y="16.764032"
       width="4.6939292"
       height="17.434595"
       id="rect1148" /><rect
       x="30.175261"
       y="16.764032"
       width="4.6939292"
       height="17.434595"
       id="rect1148-3" /><clipPath
       clipPathUnits="userSpaceOnUse"
       id="clipPath1018"><rect
         style="display:inline;fill:#f9f9f9;fill-opacity:0;stroke-width:0.264583"
         id="rect1020"
         width="20.32"
         height="128.5"
         x="0"
         y="0" /></clipPath><clipPath
       clipPathUnits="userSpaceOnUse"
       id="clipPath1086"><rect
         style="fill:#f9f9f9;fill-opacity:0;stroke-width:0.264583"
         id="rect1088"
         width="20.32"
         height="128.5"
         x="0"
         y="-2.7755579e-17" /></clipPath><rect
       x="30.175261"
       y="16.764032"
       width="4.6939292"
       height="17.434595"
       id="rect1148-4" /><clipPath
       clipPathUnits="userSpaceOnUse"
       id="clipPath1018-7"><rect
         style="display:inline;fill:#f9f9f9;fill-opacity:0;stroke-width:0.264583"
         id="rect1020-1"
         width="20.32"
         height="128.5"
         x="0"
         y="0" /></clipPath><clipPath
       clipPathUnits="userSpaceOnUse"
       id="clipPath1086-6"><rect
         style="fill:#f9f9f9;fill-opacity:0;stroke-width:0.264583"
         id="rect1088-3"
         width="20.32"
         height="128.5"
         x="0"
         y="-2.7755579e-17" /></clipPath><rect
       x="30.175261"
       y="16.764032"
       width="4.6939292"
       height="17.434595"
       id="rect1148-2" /><clipPath
       clipPathUnits="userSpaceOnUse"
       id="clipPath1018-8"><rect
         style="display:inline;fill:#f9f9f9;fill-opacity:0;stroke-width:0.264583"
         id="rect1020-0"
         width="20.32"
         height="128.5"
         x="0"
         y="0" /></clipPath><clipPath
       clipPathUnits="userSpaceOnUse"
       id="clipPath1086-7"><rect
         style="fill:#f9f9f9;fill-opacity:0;stroke-width:0.264583"
         id="rect1088-8"
         width="20.32"
         height="128.5"
         x="0"
         y="-2.7755579e-17" /></clipPath></defs><g
     inkscape:label="Background"
     inkscape:groupmode="layer"
     id="layer1"><rect
       style="fill:#847b89;fill-opacity:1;stroke:#220826;stroke-width:0.5;stroke-linecap:square;stroke-opacity:1;stroke-dasharray:none"
       id="rect720"
       width="60.959999"
       height="128.5"
       x="5e-07"
       y="5e-07" /></g><g
     inkscape:groupmode="layer"
     id="layer3"
     inkscape:label="Text"><rect
       style="display:inline;fill:#d2d2d2;fill-opacity:1;stroke:#594c62;stroke-width:0.0999992;stroke-linecap:square;stroke-linejoin:miter;stroke-dasharray:none;stroke-dashoffset:0;stroke-opacity:1"
       id="rect8877-3-9-68"
       width="11.500001"
       height="11.499828"
       x="6.9984841"
       y="41.338242" /><rect
       style="fill:#594c62;fill-opacity:1;stroke:none;stroke-width:0.123844;stroke-linecap:square;stroke-linejoin:miter;stroke-dasharray:none;stroke-dashoffset:0;stroke-opacity:1"
       id="rect3722-6-50"
       width="11.476154"
       height="4.3760886"
       x="7.0117583"
       y="36.911003" /><rect
       style="display:inline;fill:#d2d2d2;fill-opacity:1;stroke:#594c62;stroke-width:0.0999992;stroke-linecap:square;stroke-linejoin:miter;stroke-dasharray:none;stroke-dashoffset:0;stroke-opacity:1"
       id="rect8877-3-9-68-7"
       width="11.500001"
       height="11.499828"
       x="24.540483"
       y="41.338242" /><rect
       style="fill:#594c62;fill-opacity:1;stroke:none;stroke-width:0.123844;stroke-linecap:square;stroke-linejoin:miter;stroke-dasharray:none;stroke-dashoffset:0;stroke-opacity:1"
       id="rect3722-6-50-7"
       width="11.476154"
       height="4.3760886"
       x="24.553761"
       y="36.911003" /><rect
       style="display:inline;fill:#220826;fill-opacity:1;stroke:#f7dfff;stroke-width:0.0999992;stroke-linecap:square;stroke-linejoin:miter;stroke-dasharray:none;stroke-dashoffset:0;stroke-opacity:1"
       id="rect8877-3-9-0"
       width="11.500001"
       height="11.499828"
       x="42.082493"
       y="41.400173" /><rect
       style="fill:#efd4f9;fill-opacity:1;stroke:#e7b1ff;stroke-width:0.123844;stroke-linecap:square;stroke-linejoin:miter;stroke-dasharray:none;stroke-dashoffset:0;stroke-opacity:1"
       id="rect3722-6-4"
       width="11.476154"
       height="4.3760886"
       x="42.095768"
       y="36.972923" /><rect
       style="display:inline;fill:#d2d2d2;fill-opacity:1;stroke:#594c62;stroke-width:0.141347;stroke-linecap:square;stroke-linejoin:miter;stroke-dasharray:none;stroke-dashoffset:0;stroke-opacity:1"
       id="rect8877-3-9"
       width="11.458653"
       height="23.058653"
       x="7.0187521"
       y="11.018793" /><rect
       style="fill:#594c62;fill-opacity:1;stroke:none;stroke-width:0.123846;stroke-linecap:square;stroke-linejoin:miter;stroke-dasharray:none;stroke-dashoffset:0;stroke-opacity:1"
       id="rect3722-6"
       width="11.476153"
       height="4.3761539"
       x="7.0113544"
       y="6.5708137" /><rect
       style="display:inline;fill:#d2d2d2;fill-opacity:1;stroke:#594c62;stroke-width:0.141347;stroke-linecap:square;stroke-linejoin:miter;stroke-dasharray:none;stroke-dashoffset:0;stroke-opacity:1"
       id="rect8877-3-9-7"
       width="11.458653"
       height="23.058653"
       x="24.56085"
       y="11.018791" /><rect
       style="fill:#594c62;fill-opacity:1;stroke:none;stroke-width:0.123846;stroke-linecap:square;stroke-linejoin:miter;stroke-dasharray:none;stroke-dashoffset:0;stroke-opacity:1"
       id="rect3722-6-6"
       width="11.476153"
       height="4.3761539"
       x="24.553452"
       y="6.5708127" /><rect
       style="display:inline;fill:#d2d2d2;fill-opacity:1;stroke:#594c62;stroke-width:0.141347;stroke-linecap:square;stroke-linejoin:miter;stroke-dasharray:none;stroke-dashoffset:0;stroke-opacity:1"
       id="rect8877-3-9-2"
       width="11.458653"
       height="23.058653"
       x="42.102943"
       y="11.018793" /><rect
       style="fill:#594c62;fill-opacity:1;stroke:none;stroke-width:0.123846;stroke-linecap:square;stroke-linejoin:miter;stroke-dasharray:none;stroke-dashoffset:0;stroke-opacity:1"
       id="rect3722-6-7"
       width="11.476153"
       height="4.3761539"
       x="42.095547"
       y="6.5708137" /><g
       id="text2059"
       style="font-size:3.52777px;font-family:'Futura PT';-inkscape-font-specification:'Futura PT';text-align:center;text-anchor:middle;fill:#f7dfff;stroke:#594c62;stroke-width:0;stroke-linecap:square" /><g
       aria-label="Fwd"
       id="text2843"
       style="font-weight:500;font-size:4.23333px;font-family:'Futura PT';-inkscape-font-specification:'Futura PT Medium';text-align:center;text-anchor:middle;fill:#f7dfff;stroke:#594c62;stroke-width:0;stroke-linecap:square"><path
         d="M 10.655656,7.4654783 H 9.1570575 V 10.289109 H 9.7073904 V 9.0445103 H 10.59639 V 8.5703773 H 9.7073904 V 7.9396112 h 0.9482656 z"
         id="path5533" /><path
         d="m 12.437888,9.2096101 0.482599,1.0794989 h 0.254 L 14.10582,8.4560774 h -0.575733 l -0.4826,1.0583325 -0.491066,-1.0583325 H 12.319355 L 11.828288,9.5144099 11.345689,8.4560774 h -0.575733 l 0.931332,1.8330316 h 0.254 z"
         id="path5535" /><path
         d="M 15.72295,8.6931439 C 15.549384,8.4222108 15.274217,8.3968108 15.134517,8.3968108 c -0.541866,0 -0.910166,0.4317997 -0.910166,0.9736659 0,0.5376329 0.372533,0.9778993 0.935566,0.9778993 0.131234,0 0.376767,-0.02963 0.563033,-0.296333 v 0.237066 h 0.516466 V 7.2030118 H 15.72295 Z m -0.457199,0.1608665 c 0.296333,0 0.507999,0.2243665 0.507999,0.5164663 0,0.2920997 -0.211666,0.5206995 -0.507999,0.5206995 -0.296334,0 -0.508,-0.2285998 -0.508,-0.5206995 0,-0.2920998 0.211666,-0.5164663 0.508,-0.5164663 z"
         id="path5537" /></g><g
       aria-label="Back"
       id="text2897"
       style="font-weight:500;font-size:4.23333px;font-family:'Futura PT';-inkscape-font-specification:'Futura PT Medium';text-align:center;text-anchor:middle;fill:#f7dfff;stroke:#594c62;stroke-width:0;stroke-linecap:square"><path
         d="m 26.101269,7.3400243 v 2.8236307 h 0.948266 c 0.245533,0 0.503766,-0.04233 0.715433,-0.2285995 0.194733,-0.1735665 0.2413,-0.4063997 0.2413,-0.5714995 0,-0.1481666 -0.03387,-0.3682997 -0.2032,-0.5291663 -0.07197,-0.067733 -0.182033,-0.1481665 -0.3683,-0.1777998 0.0762,-0.042333 0.3175,-0.1904999 0.3175,-0.5545662 0,-0.2370665 -0.09737,-0.4571996 -0.262466,-0.5841995 -0.2286,-0.1777999 -0.5334,-0.1777999 -0.690033,-0.1777999 z m 0.550333,0.448733 h 0.160867 c 0.224366,0 0.423333,0.097367 0.423333,0.3555997 0,0.359833 -0.3429,0.3682997 -0.427567,0.3682997 h -0.156633 z m 0,1.1472323 h 0.2032 c 0.118533,0 0.258233,0 0.376766,0.055033 0.1778,0.080433 0.207434,0.2328332 0.207434,0.3217331 0,0.1100666 -0.0381,0.2455331 -0.173567,0.3259664 -0.122767,0.071967 -0.275166,0.0762 -0.376766,0.0762 h -0.237067 z"
         id="path5540" /><path
         d="M 29.843532,8.56769 C 29.669965,8.2967569 29.394799,8.2713569 29.255099,8.2713569 c -0.541866,0 -0.910166,0.4317996 -0.910166,0.9736658 0,0.5376329 0.372533,0.9778993 0.935566,0.9778993 0.131233,0 0.376766,-0.02963 0.563033,-0.2963332 v 0.2370662 h 0.516466 V 8.3306235 h -0.516466 z m -0.4572,0.1608665 c 0.296333,0 0.508,0.2243665 0.508,0.5164662 0,0.2920998 -0.211667,0.5206996 -0.508,0.5206996 -0.296333,0 -0.508,-0.2285998 -0.508,-0.5206996 0,-0.2920997 0.211667,-0.5164662 0.508,-0.5164662 z"
         id="path5542" /><path
         d="m 32.231128,8.3814234 c -0.148166,-0.071967 -0.304799,-0.1100665 -0.495299,-0.1100665 -0.1778,0 -0.436033,0.0381 -0.6604,0.2370664 -0.186266,0.1650999 -0.317499,0.423333 -0.317499,0.7450661 0,0.3428997 0.1524,0.5714995 0.292099,0.7027327 0.1651,0.1566329 0.4191,0.2666999 0.706967,0.2666999 0.211666,0 0.372533,-0.0635 0.474132,-0.1143 V 9.6048558 c -0.139699,0.1269998 -0.292099,0.1608665 -0.406399,0.1608665 -0.309033,0 -0.5334,-0.2201332 -0.5334,-0.5206996 0,-0.2666998 0.173567,-0.5164662 0.516466,-0.5164662 0.1778,0 0.313267,0.059267 0.423333,0.1608665 z"
         id="path5544" /><path
         d="m 32.620592,7.0775579 v 3.0860971 h 0.516466 V 9.4312892 l 0.05503,-0.0508 0.681566,0.7831657 h 0.6858 L 33.632358,9.1349561 34.491724,8.3306235 H 33.822857 L 33.137058,8.9994896 V 7.0775579 Z"
         id="path5546" /></g><g
       aria-label="Reset"
       id="text2901"
       style="font-weight:500;font-size:4.23333px;font-family:'Futura PT';-inkscape-font-specification:'Futura PT Medium';text-align:center;text-anchor:middle;fill:#f7dfff;stroke:#594c62;stroke-width:0;stroke-linecap:square"><path
         d="M 43.132264,7.2145694 V 10.0382 h 0.550333 V 8.903668 h 0.06773 l 0.753533,1.134532 h 0.685799 L 44.30913,8.8486347 c 0.135466,-0.0254 0.237066,-0.071967 0.309033,-0.1227666 0.220133,-0.1481665 0.330199,-0.3894663 0.330199,-0.6646327 0,-0.2116665 -0.0635,-0.4529663 -0.279399,-0.6349995 -0.131233,-0.1100666 -0.3302,-0.2116665 -0.719666,-0.2116665 z m 0.550333,0.448733 h 0.1651 c 0.1016,0 0.533399,0.00423 0.533399,0.423333 0,0.4148663 -0.436033,0.4275663 -0.541866,0.4275663 h -0.156633 z"
         id="path5549" /><path
         d="m 46.811025,9.4497675 c -0.08467,0.1481666 -0.232833,0.2412998 -0.427566,0.2412998 -0.198967,0 -0.313267,-0.097366 -0.3683,-0.1735665 -0.05927,-0.080433 -0.0889,-0.1989665 -0.0889,-0.3090331 h 1.371599 v -0.042333 c 0,-0.1989665 -0.0254,-0.4868329 -0.220133,-0.719666 -0.127,-0.1523999 -0.3429,-0.3005664 -0.715433,-0.3005664 -0.220133,0 -0.474133,0.046567 -0.690033,0.2582331 -0.131233,0.1312332 -0.279399,0.3555997 -0.279399,0.719666 0,0.2878665 0.08467,0.5249329 0.287866,0.7154328 0.182033,0.1735661 0.4064,0.2582331 0.702733,0.2582331 0.639233,0 0.846666,-0.436033 0.901699,-0.5714995 z M 45.943192,8.878268 c 0.04233,-0.2455331 0.2413,-0.3682997 0.4318,-0.3682997 0.1905,0 0.3937,0.1185333 0.436033,0.3682997 z"
         id="path5551" /><path
         d="M 48.948854,8.3406351 C 48.716021,8.1628353 48.500121,8.145902 48.364654,8.145902 c -0.148166,0 -0.334433,0.016933 -0.478366,0.1312332 -0.105833,0.0889 -0.1905,0.2370665 -0.1905,0.4148663 0,0.1481666 0.05503,0.2624665 0.1397,0.3513664 0.110067,0.1142999 0.262467,0.1735665 0.3937,0.2201331 l 0.118533,0.042333 c 0.06773,0.0254 0.160867,0.071967 0.160867,0.1862665 0,0.1269999 -0.110067,0.1989665 -0.254,0.1989665 -0.1524,0 -0.3048,-0.093133 -0.4064,-0.2116665 l -0.270933,0.3132665 c 0.1143,0.1227665 0.3302,0.3047997 0.7112,0.3047997 0.224366,0 0.402166,-0.05927 0.550332,-0.1947332 0.148167,-0.1354665 0.2032,-0.3005664 0.2032,-0.4656662 0,-0.1185333 -0.0381,-0.2285999 -0.09313,-0.3047998 C 48.843021,8.9883346 48.627121,8.916368 48.483188,8.8698014 l -0.122767,-0.0381 c -0.143933,-0.046567 -0.1651,-0.1185332 -0.1651,-0.1650999 0,-0.0889 0.0762,-0.1481665 0.198967,-0.1481665 0.05503,0 0.1778,0.00847 0.300566,0.1227666 z"
         id="path5553" /><path
         d="m 50.731083,9.4497675 c -0.08467,0.1481666 -0.232833,0.2412998 -0.427566,0.2412998 -0.198967,0 -0.313267,-0.097366 -0.3683,-0.1735665 -0.05927,-0.080433 -0.0889,-0.1989665 -0.0889,-0.3090331 h 1.371599 v -0.042333 c 0,-0.1989665 -0.0254,-0.4868329 -0.220133,-0.719666 -0.127,-0.1523999 -0.3429,-0.3005664 -0.715433,-0.3005664 -0.220133,0 -0.474133,0.046567 -0.690033,0.2582331 -0.131233,0.1312332 -0.2794,0.3555997 -0.2794,0.719666 0,0.2878665 0.08467,0.5249329 0.287867,0.7154328 0.182033,0.1735661 0.406399,0.2582331 0.702733,0.2582331 0.639232,0 0.846666,-0.436033 0.901699,-0.5714995 z M 49.86325,8.878268 c 0.04233,-0.2455331 0.2413,-0.3682997 0.4318,-0.3682997 0.1905,0 0.3937,0.1185333 0.436033,0.3682997 z"
         id="path5555" /><path
         d="M 52.487912,8.6454349 V 8.2051686 h -0.3556 V 7.5786358 h -0.516466 v 0.6265328 h -0.2032 v 0.4402663 h 0.2032 V 10.0382 h 0.516466 V 8.6454349 Z"
         id="path5557" /></g><g
       aria-label="Steps"
       id="text2905"
       style="font-weight:500;font-size:4.23333px;font-family:'Futura PT';-inkscape-font-specification:'Futura PT Medium';text-align:center;text-anchor:middle;fill:#f7dfff;stroke:#594c62;stroke-width:0;stroke-linecap:square"
       transform="matrix(1,0,0,0.99998543,-6.3584722e-7,-0.99936753)"><path
         d="m 9.7483795,38.656692 c -0.2878665,-0.296333 -0.6222995,-0.3302 -0.8000994,-0.3302 -0.6265328,0 -0.9059325,0.414866 -0.9059325,0.829733 0,0.287866 0.1312332,0.444499 0.2243664,0.524933 0.1439332,0.127 0.3217331,0.194733 0.4698996,0.245533 0.1608666,0.05503 0.3301998,0.110066 0.436033,0.207433 0.0762,0.07197 0.1100666,0.1524 0.1100666,0.254 0,0.237066 -0.1862665,0.389466 -0.436033,0.389466 -0.1989665,0 -0.4571996,-0.1016 -0.5926662,-0.376766 l -0.359833,0.342899 c 0.1481666,0.2159 0.4529663,0.5334 0.9736659,0.5334 0.5841995,0 0.9821325,-0.376766 0.9821325,-0.927099 0,-0.287867 -0.1142999,-0.478366 -0.2412998,-0.592666 -0.1439332,-0.131234 -0.3513664,-0.207434 -0.5714995,-0.283633 -0.1777999,-0.0635 -0.2709332,-0.09737 -0.3386664,-0.160867 -0.067733,-0.05927 -0.0889,-0.122767 -0.0889,-0.1905 0,-0.143933 0.093133,-0.3302 0.3894664,-0.3302 0.1015999,0 0.2963331,0.02117 0.4614329,0.2413 z"
         id="path5560" /><path
         d="m 11.128447,39.820858 v -0.440267 h -0.3556 v -0.626533 h -0.516466 v 0.626533 h -0.2032 v 0.440267 h 0.2032 v 1.392765 h 0.516466 v -1.392765 z"
         id="path5562" /><path
         d="m 12.724414,40.62519 c -0.08467,0.148167 -0.232833,0.2413 -0.427566,0.2413 -0.198967,0 -0.313267,-0.09737 -0.3683,-0.173567 -0.05927,-0.08043 -0.0889,-0.198966 -0.0889,-0.309033 h 1.371599 v -0.04233 c 0,-0.198966 -0.0254,-0.486833 -0.220133,-0.719666 -0.127,-0.1524 -0.3429,-0.300566 -0.715433,-0.300566 -0.220133,0 -0.474133,0.04657 -0.690033,0.258233 -0.131233,0.131233 -0.2794,0.355599 -0.2794,0.719666 0,0.287866 0.08467,0.524933 0.287867,0.715433 0.182033,0.173566 0.406399,0.258233 0.702733,0.258233 0.639232,0 0.846665,-0.436033 0.901699,-0.5715 z m -0.867833,-0.571499 c 0.04233,-0.245533 0.2413,-0.3683 0.4318,-0.3683 0.1905,0 0.3937,0.118533 0.436033,0.3683 z"
         id="path5564" /><path
         d="m 14.125643,40.976557 c 0.2032,0.275166 0.461433,0.296333 0.588433,0.296333 0.270933,0 0.4826,-0.105834 0.6223,-0.237067 0.105833,-0.1016 0.287866,-0.325966 0.287866,-0.740833 0,-0.364066 -0.1397,-0.592666 -0.275166,-0.728132 -0.207434,-0.207433 -0.465667,-0.245533 -0.626533,-0.245533 -0.338667,0 -0.516466,0.182033 -0.5969,0.296333 v -0.237067 h -0.516466 v 2.802465 h 0.516466 z m 0.4572,-1.198033 c 0.122767,0 0.258233,0.04657 0.351366,0.131233 0.1016,0.09737 0.156634,0.249767 0.156634,0.385233 0,0.135467 -0.0508,0.287867 -0.160867,0.389467 -0.06773,0.0635 -0.1778,0.131233 -0.347133,0.131233 -0.160867,0 -0.270933,-0.0635 -0.338666,-0.122767 -0.1016,-0.0889 -0.169334,-0.228599 -0.169334,-0.397933 0,-0.169333 0.05927,-0.296333 0.173567,-0.393699 0.09313,-0.08467 0.198966,-0.122767 0.334433,-0.122767 z"
         id="path5566" /><path
         d="m 17.232905,39.516058 c -0.232833,-0.1778 -0.448733,-0.194733 -0.584199,-0.194733 -0.148167,0 -0.334433,0.01693 -0.478366,0.131233 -0.105834,0.0889 -0.1905,0.237066 -0.1905,0.414866 0,0.148167 0.05503,0.262467 0.1397,0.351367 0.110066,0.114299 0.262466,0.173566 0.393699,0.220133 l 0.118534,0.04233 c 0.06773,0.0254 0.160866,0.07197 0.160866,0.186267 0,0.126999 -0.110066,0.198966 -0.254,0.198966 -0.1524,0 -0.304799,-0.09313 -0.406399,-0.211666 l -0.270933,0.313266 c 0.114299,0.122766 0.330199,0.3048 0.711199,0.3048 0.224366,0 0.402166,-0.05927 0.550333,-0.194734 0.148166,-0.135466 0.2032,-0.300566 0.2032,-0.465666 0,-0.118533 -0.0381,-0.2286 -0.09313,-0.3048 -0.105833,-0.143933 -0.321733,-0.215899 -0.465666,-0.262466 l -0.122766,-0.0381 c -0.143934,-0.04657 -0.1651,-0.118533 -0.1651,-0.1651 0,-0.0889 0.0762,-0.148166 0.198966,-0.148166 0.05503,0 0.1778,0.0085 0.300567,0.122766 z"
         id="path5568" /></g><g
       aria-label="Poly"
       id="text2909"
       style="font-weight:500;font-size:4.23333px;font-family:'Futura PT';-inkscape-font-specification:'Futura PT Medium';text-align:center;text-anchor:middle;fill:#f7dfff;stroke:#594c62;stroke-width:0;stroke-linecap:square"
       transform="matrix(1,0,0,0.99998543,-6.3584722e-7,-0.99936753)"><path
         d="m 26.528827,38.374771 v 2.823631 H 27.07916 V 40.15277 h 0.355599 c 0.325967,0 0.5588,-0.09313 0.715433,-0.249767 0.2159,-0.215899 0.232833,-0.520699 0.232833,-0.630766 0,-0.203199 -0.05927,-0.478366 -0.287866,-0.681566 -0.207433,-0.182033 -0.427566,-0.2159 -0.745066,-0.2159 z m 0.550333,0.474133 h 0.1905 c 0.131233,0 0.275166,0.0085 0.389466,0.0889 0.08043,0.05927 0.156633,0.1651 0.156633,0.321733 0,0.122767 -0.0508,0.249767 -0.1524,0.3302 -0.118533,0.0889 -0.254,0.0889 -0.359833,0.0889 H 27.07916 Z"
         id="path5571" /><path
         d="m 29.627625,39.306104 c -0.347133,0 -0.5842,0.1143 -0.740833,0.258233 -0.182033,0.1651 -0.309033,0.4191 -0.309033,0.719666 0,0.296333 0.127,0.550333 0.309033,0.715433 0.156633,0.143933 0.3937,0.258233 0.740833,0.258233 0.347133,0 0.584199,-0.1143 0.740833,-0.258233 0.182033,-0.1651 0.309033,-0.4191 0.309033,-0.715433 0,-0.300566 -0.127,-0.554566 -0.309033,-0.719666 -0.156634,-0.143933 -0.3937,-0.258233 -0.740833,-0.258233 z m 0,1.494365 c -0.300566,0 -0.516466,-0.237066 -0.516466,-0.516466 0,-0.287866 0.220133,-0.520699 0.516466,-0.520699 0.296333,0 0.516466,0.232833 0.516466,0.520699 0,0.2794 -0.2159,0.516466 -0.516466,0.516466 z"
         id="path5573" /><path
         d="m 31.075427,38.112305 v 3.086097 h 0.516466 v -3.086097 z"
         id="path5575" /><path
         d="m 32.044863,42.167835 h 0.5842 l 1.477432,-2.802464 h -0.5842 L 33.014296,40.40677 32.44703,39.365371 h -0.601133 l 0.872066,1.557865 z"
         id="path5577" /></g><g
       aria-label="Out"
       id="text2913"
       style="font-weight:500;font-size:4.23333px;font-family:'Futura PT';-inkscape-font-specification:'Futura PT Medium';text-align:center;text-anchor:middle;fill:#7d46a7;stroke:#594c62;stroke-width:0;stroke-linecap:square"
       transform="matrix(1,0,0,0.99998543,-6.3584722e-7,-0.99936753)"><path
         d="m 45.830435,38.640129 c -0.888999,0 -1.507065,0.618066 -1.507065,1.477432 0,0.859366 0.618066,1.473199 1.507065,1.473199 0.888999,0 1.507065,-0.613833 1.507065,-1.473199 0,-0.859366 -0.618066,-1.477432 -1.507065,-1.477432 z m 0,2.451098 c -0.550333,0 -0.939799,-0.402166 -0.939799,-0.973666 0,-0.5715 0.389466,-0.977899 0.939799,-0.977899 0.550333,0 0.939799,0.406399 0.939799,0.977899 0,0.5715 -0.389466,0.973666 -0.939799,0.973666 z"
         id="path5580" /><path
         d="m 47.769297,39.694228 v 1.121832 c 0,0.1651 0.02117,0.385233 0.224366,0.563033 0.169333,0.148167 0.440266,0.207433 0.664633,0.207433 0.224366,0 0.4953,-0.05927 0.664633,-0.207433 0.2032,-0.1778 0.224366,-0.397933 0.224366,-0.563033 v -1.121832 h -0.516466 v 1.037166 c 0,0.09737 -0.0085,0.2286 -0.110067,0.321733 -0.0635,0.05503 -0.165099,0.09313 -0.262466,0.09313 -0.09737,0 -0.198967,-0.0381 -0.262466,-0.09313 -0.1016,-0.09313 -0.110067,-0.224367 -0.110067,-0.321733 v -1.037166 z"
         id="path5582" /><path
         d="m 50.910425,40.134494 v -0.440266 h -0.3556 v -0.626533 h -0.516466 v 0.626533 h -0.2032 v 0.440266 h 0.2032 v 1.392766 h 0.516466 v -1.392766 z"
         id="path5584" /></g><g
       id="text5935"
       style="font-weight:300;font-size:4.9389px;font-family:'Futura PT';-inkscape-font-specification:'Futura PT Light';text-align:center;text-anchor:middle;stroke:#594c62;stroke-width:0;stroke-linecap:square" /><g
       aria-label="∅"
       id="text5939"
       style="font-weight:300;font-size:3.52778px;font-family:'Futura PT';-inkscape-font-specification:'Futura PT Light';text-align:center;text-anchor:middle;fill:#f7dfff;stroke:#594c62;stroke-width:0;stroke-linecap:square"
       transform="translate(0.71466681,0.99759688)"><path
         d="m 57.283714,126.97748 0.27044,-0.26872 q -0.334174,-0.38585 -0.334174,-0.88711 0,-0.55466 0.391018,-0.94568 0.392741,-0.39274 0.947402,-0.39274 0.492649,0 0.88539,0.33418 l 0.27044,-0.26872 0.118856,0.11885 -0.268717,0.27044 q 0.334174,0.38586 0.334174,0.88539 0,0.55467 -0.392741,0.94741 -0.392741,0.39101 -0.945679,0.39101 -0.501262,0 -0.885391,-0.33245 l -0.27044,0.26872 z m 0.391018,-0.38929 1.64848,-1.65021 q -0.341065,-0.28422 -0.763089,-0.28422 -0.485759,0 -0.828546,0.34279 -0.341065,0.34107 -0.341065,0.8251 0,0.43408 0.28422,0.76654 z m 0.118856,0.11885 q 0.33073,0.28422 0.766535,0.28422 0.484036,0 0.8251,-0.34106 0.342788,-0.34279 0.342788,-0.82683 0,-0.42891 -0.284221,-0.76481 z"
         id="path6833" /></g><g
       aria-label="16 Squared"
       id="text457"
       style="font-size:4.23333px;font-family:'Futura PT';-inkscape-font-specification:'Futura PT';text-align:center;text-anchor:middle;stroke:#594c62;stroke-width:0;stroke-linecap:square"><path
         d="m 21.456069,4.0860972 h 0.313267 V 1.2624663 h -0.6223 l -0.1651,0.2963331 h 0.474133 z"
         id="path395" /><path
         d="m 23.733602,1.194733 -0.960966,1.3334989 c -0.211666,0.2963331 -0.232833,0.5418662 -0.232833,0.6476994 0,0.4444997 0.313267,0.9609659 0.9779,0.9609659 0.563032,0 0.969432,-0.4063997 0.969432,-0.9694325 0,-0.5249329 -0.372533,-0.9313326 -0.914399,-0.9313326 -0.0889,0 -0.169333,0.0127 -0.249767,0.0381 l 0.6477,-0.9016992 z m -0.220133,2.6542978 c -0.393699,0 -0.660399,-0.2963331 -0.660399,-0.6730995 0,-0.3682997 0.270933,-0.6519327 0.656166,-0.6519327 0.385233,0 0.664633,0.2751664 0.664633,0.6519327 0,0.3809997 -0.270933,0.6730995 -0.6604,0.6730995 z"
         id="path397" /><path
         d="m 27.577468,1.656166 c -0.0635,-0.1227666 -0.160866,-0.2370665 -0.275166,-0.3132665 -0.1397,-0.093133 -0.2794,-0.1269998 -0.452966,-0.1269998 -0.4572,0 -0.791633,0.2920997 -0.791633,0.7281327 0,0.2116665 0.07197,0.3428997 0.194733,0.4614329 0.127,0.1227666 0.2667,0.1820332 0.376767,0.2328332 l 0.253999,0.1185332 c 0.148167,0.067733 0.258233,0.1185332 0.338667,0.1947332 0.1016,0.093133 0.1397,0.2031998 0.1397,0.3301997 0,0.2836331 -0.182034,0.5587995 -0.567267,0.5587995 -0.143933,0 -0.283633,-0.033867 -0.406399,-0.1566332 -0.08043,-0.084667 -0.148167,-0.2116665 -0.169333,-0.359833 l -0.3048,0.084667 c 0.0381,0.1693332 0.122766,0.3640663 0.262466,0.4995329 0.194733,0.1904998 0.427567,0.2285998 0.613833,0.2285998 0.508,0 0.893233,-0.347133 0.893233,-0.8678326 0,-0.2031998 -0.05927,-0.3682997 -0.2032,-0.5122329 C 27.361569,2.6382985 27.209169,2.5620985 27.044069,2.4901319 L 26.773136,2.3715987 c -0.105833,-0.046567 -0.211667,-0.093133 -0.296333,-0.1777999 -0.0762,-0.071967 -0.105834,-0.1354665 -0.105834,-0.2455331 0,-0.2624664 0.194734,-0.436033 0.474133,-0.436033 0.160867,0 0.262467,0.055033 0.3175,0.097367 0.0635,0.0508 0.127,0.1354666 0.1651,0.2116665 z"
         id="path399" /><path
         d="m 29.529032,2.5790318 c -0.08043,-0.1058332 -0.262467,-0.2920997 -0.601133,-0.2920997 -0.448733,0 -0.855133,0.3132664 -0.855133,0.9186325 0,0.6180662 0.410633,0.9313326 0.855133,0.9313326 0.309033,0 0.499533,-0.1650999 0.601133,-0.2963331 v 1.219199 h 0.304799 V 2.3292654 h -0.304799 z m -0.567267,-0.021167 c 0.270934,0 0.5842,0.1989665 0.5842,0.6519328 0,0.347133 -0.211667,0.6561661 -0.5842,0.6561661 -0.364066,0 -0.575732,-0.2836331 -0.575732,-0.6603995 0,-0.4275663 0.275166,-0.6476994 0.575732,-0.6476994 z"
         id="path401" /><path
         d="m 30.714368,2.3292654 h -0.3048 v 1.0583324 c 0,0.2158998 0.02117,0.3767664 0.160867,0.5291662 0.156633,0.1650999 0.364066,0.2201332 0.537633,0.2201332 0.173566,0 0.380999,-0.055033 0.537633,-0.2201332 C 31.7854,3.7643642 31.806567,3.6034976 31.806567,3.3875978 V 2.3292654 h -0.3048 v 1.0244658 c 0,0.1227666 0,0.2666998 -0.08467,0.3767663 -0.04657,0.059267 -0.1397,0.1354666 -0.309033,0.1354666 -0.169333,0 -0.262467,-0.0762 -0.309033,-0.1354666 -0.08467,-0.1100665 -0.08467,-0.2539997 -0.08467,-0.3767663 z"
         id="path403" /><path
         d="M 33.728497,2.5790318 C 33.648064,2.4731986 33.46603,2.2869321 33.127364,2.2869321 c -0.448733,0 -0.855133,0.3132664 -0.855133,0.9186325 0,0.6180662 0.410633,0.9313326 0.855133,0.9313326 0.309033,0 0.499533,-0.1650999 0.601133,-0.2963331 v 0.2455331 h 0.3048 V 2.3292654 h -0.3048 z m -0.567266,-0.021167 c 0.270933,0 0.584199,0.1989665 0.584199,0.6519328 0,0.347133 -0.211666,0.6561661 -0.584199,0.6561661 -0.364067,0 -0.575733,-0.2836331 -0.575733,-0.6603995 0,-0.4275663 0.275166,-0.6476994 0.575733,-0.6476994 z"
         id="path405" /><path
         d="m 34.609034,4.0860972 h 0.3048 V 3.158998 c 0,-0.2878664 0.0508,-0.4063996 0.1016,-0.4741329 0.04657,-0.059267 0.122766,-0.1100666 0.245533,-0.1100666 0.04657,0 0.110066,0.0127 0.1778,0.059267 L 35.5827,2.3588987 c -0.0762,-0.0381 -0.1778,-0.071967 -0.270933,-0.071967 -0.237067,0 -0.3683,0.1862665 -0.397933,0.2328331 V 2.3292654 h -0.3048 z"
         id="path407" /><path
         d="m 37.064362,3.4976644 c -0.0381,0.084667 -0.1016,0.1735665 -0.182033,0.2412998 -0.1016,0.084667 -0.2159,0.1269999 -0.359833,0.1269999 -0.3048,0 -0.554566,-0.2328331 -0.5588,-0.5968995 h 1.367366 c 0.0085,-0.2328331 -0.05503,-0.5037662 -0.1651,-0.6603995 -0.105833,-0.1523998 -0.321733,-0.321733 -0.664633,-0.321733 -0.529166,0 -0.850899,0.4063996 -0.850899,0.9313325 0,0.6519328 0.4445,0.9186326 0.867833,0.9186326 0.224366,0 0.423333,-0.071967 0.584199,-0.2158998 0.0889,-0.080433 0.1651,-0.1862665 0.2159,-0.2836331 z M 35.984863,3.0150648 c 0.04657,-0.2624664 0.258233,-0.4571996 0.516466,-0.4571996 0.258233,0 0.465667,0.1820332 0.516467,0.4571996 z"
         id="path409" /><path
         d="m 39.14293,2.5790318 c -0.08043,-0.1058332 -0.262466,-0.2920997 -0.601132,-0.2920997 -0.448733,0 -0.855133,0.3132664 -0.855133,0.9186325 0,0.6180662 0.410633,0.9313326 0.855133,0.9313326 0.309033,0 0.499532,-0.1650999 0.601132,-0.2963331 v 0.2455331 h 0.3048 V 0.99999984 h -0.3048 z m -0.567266,-0.021167 c 0.270933,0 0.5842,0.1989665 0.5842,0.6519328 0,0.347133 -0.211667,0.6561661 -0.5842,0.6561661 -0.364066,0 -0.575733,-0.2836331 -0.575733,-0.6603995 0,-0.4275663 0.275167,-0.6476994 0.575733,-0.6476994 z"
         id="path411" /></g></g><g
     inkscape:groupmode="layer"
     id="layer2"
     inkscape:label="components"><circle
       style="fill:#ff0000;fill-opacity:1;stroke-width:0.162096"
       id="i1"
       cx="13.158292"
       cy="85.592674"
       inkscape:transform-center-x="-0.10869517"
       inkscape:transform-center-y="-5.4347841"
       inkscape:label="i1"
       r="2.5" /><circle
       style="fill:#ff0000;fill-opacity:1;stroke-width:0.162096"
       id="i5"
       cx="13.158292"
       cy="97.207253"
       inkscape:transform-center-x="-0.10869517"
       inkscape:transform-center-y="-5.4347841"
       inkscape:label="i5"
       r="2.5" /><circle
       style="fill:#ff0000;fill-opacity:1;stroke-width:0.162096"
       id="i9"
       cx="13.158292"
       cy="108.82184"
       inkscape:transform-center-x="-0.10869517"
       inkscape:transform-center-y="-5.4347841"
       inkscape:label="i9"
       r="2.5" /><circle
       style="fill:#ff0000;fill-opacity:1;stroke-width:0.162096"
       id="i13"
       cx="13.158292"
       cy="120.43642"
       inkscape:transform-center-x="-0.10869517"
       inkscape:transform-center-y="-5.4347841"
       inkscape:label="i13"
       r="2.5" /><circle
       style="fill:#ff0000;fill-opacity:1;stroke-width:0.162096"
       id="i14"
       cx="24.772877"
       cy="120.43642"
       inkscape:transform-center-x="-0.10869517"
       inkscape:transform-center-y="-5.4347841"
       inkscape:label="i14"
       r="2.5" /><circle
       style="fill:#ff0000;fill-opacity:1;stroke-width:0.162096"
       id="i15"
       cx="36.387459"
       cy="120.43642"
       inkscape:transform-center-x="-0.10869517"
       inkscape:transform-center-y="-5.4347841"
       inkscape:label="i15"
       r="2.5" /><circle
       style="fill:#ff0000;fill-opacity:1;stroke-width:0.162096"
       id="i12"
       cx="48.002045"
       cy="108.82184"
       inkscape:transform-center-x="-0.10869517"
       inkscape:transform-center-y="-5.4347841"
       inkscape:label="i12"
       r="2.5" /><circle
       style="fill:#ff0000;fill-opacity:1;stroke-width:0.162096"
       id="i11"
       cx="36.387459"
       cy="108.82184"
       inkscape:transform-center-x="-0.10869517"
       inkscape:transform-center-y="-5.4347841"
       inkscape:label="i11"
       r="2.5" /><circle
       style="fill:#ff0000;fill-opacity:1;stroke-width:0.162096"
       id="i10"
       cx="24.772877"
       cy="108.82184"
       inkscape:transform-center-x="-0.10869517"
       inkscape:transform-center-y="-5.4347841"
       inkscape:label="i10"
       r="2.5" /><circle
       style="fill:#ff0000;fill-opacity:1;stroke-width:0.162096"
       id="i6"
       cx="24.772877"
       cy="97.207253"
       inkscape:transform-center-x="-0.10869517"
       inkscape:transform-center-y="-5.4347841"
       inkscape:label="i6"
       r="2.5" /><circle
       style="fill:#ff0000;fill-opacity:1;stroke-width:0.162096"
       id="i7"
       cx="36.387459"
       cy="97.207253"
       inkscape:transform-center-x="-0.10869517"
       inkscape:transform-center-y="-5.4347841"
       inkscape:label="i7"
       r="2.5" /><circle
       style="fill:#ff0000;fill-opacity:1;stroke-width:0.162096"
       id="i16"
       cx="48.002045"
       cy="120.43642"
       inkscape:transform-center-x="-0.10869517"
       inkscape:transform-center-y="-5.4347841"
       inkscape:label="i16"
       r="2.5" /><circle
       style="fill:#ff00ff;fill-opacity:1;stroke-width:0.0846396"
       id="l8"
       cx="40.340515"
       cy="64.365532"
       inkscape:transform-center-x="-0.056756712"
       inkscape:transform-center-y="-2.8378091"
       inkscape:label="l8"
       r="1.3053932" /><circle
       style="fill:#ff00ff;fill-opacity:1;stroke-width:0.0846396"
       id="l2"
       cx="26.8297"
       cy="57.610111"
       inkscape:transform-center-x="-0.056756127"
       inkscape:transform-center-y="-2.8378084"
       inkscape:label="l2"
       r="1.3053932" /><circle
       style="fill:#ff00ff;fill-opacity:1;stroke-width:0.0846396"
       id="l3"
       cx="33.585106"
       cy="57.610111"
       inkscape:transform-center-x="-0.05675555"
       inkscape:transform-center-y="-2.8378084"
       inkscape:label="l3"
       r="1.3053932" /><circle
       style="fill:#ff00ff;fill-opacity:1;stroke-width:0.0846396"
       id="l4"
       cx="40.340515"
       cy="57.610111"
       inkscape:transform-center-x="-0.056756712"
       inkscape:transform-center-y="-2.8378084"
       inkscape:label="l4"
       r="1.3053932" /><circle
       style="fill:#ff00ff;fill-opacity:1;stroke-width:0.0846396"
       id="l1"
       cx="20.074282"
       cy="57.610111"
       inkscape:transform-center-x="-0.056755961"
       inkscape:transform-center-y="-2.8378084"
       inkscape:label="l1"
       r="1.3053932" /><circle
       style="fill:#ff00ff;fill-opacity:1;stroke-width:0.0846396"
       id="l5"
       cx="20.074282"
       cy="64.365532"
       inkscape:transform-center-x="-0.056755961"
       inkscape:transform-center-y="-2.8378091"
       inkscape:label="l5"
       r="1.3053932" /><circle
       style="fill:#ff00ff;fill-opacity:1;stroke-width:0.0846396"
       id="l9"
       cx="20.074282"
       cy="71.120941"
       inkscape:transform-center-x="-0.056755961"
       inkscape:transform-center-y="-2.8378098"
       inkscape:label="l9"
       r="1.3053932" /><circle
       style="fill:#ff00ff;fill-opacity:1;stroke-width:0.0846396"
       id="l13"
       cx="20.074282"
       cy="77.87635"
       inkscape:transform-center-x="-0.056755961"
       inkscape:transform-center-y="-2.8378106"
       inkscape:label="l13"
       r="1.3053932" /><circle
       style="fill:#ff00ff;fill-opacity:1;stroke-width:0.0846396"
       id="l14"
       cx="26.8297"
       cy="77.87635"
       inkscape:transform-center-x="-0.056756127"
       inkscape:transform-center-y="-2.8378106"
       inkscape:label="l14"
       r="1.3053932" /><circle
       style="fill:#ff00ff;fill-opacity:1;stroke-width:0.0846396"
       id="l15"
       cx="33.585106"
       cy="77.87635"
       inkscape:transform-center-x="-0.05675555"
       inkscape:transform-center-y="-2.8378106"
       inkscape:label="l15"
       r="1.3053932" /><circle
       style="fill:#ff00ff;fill-opacity:1;stroke-width:0.0846396"
       id="l12"
       cx="40.340515"
       cy="71.120941"
       inkscape:transform-center-x="-0.056756712"
       inkscape:transform-center-y="-2.8378098"
       inkscape:label="l12"
       r="1.3053932" /><circle
       style="fill:#ff00ff;fill-opacity:1;stroke-width:0.0846396"
       id="l11"
       cx="33.585106"
       cy="71.120941"
       inkscape:transform-center-x="-0.05675555"
       inkscape:transform-center-y="-2.8378098"
       inkscape:label="l11"
       r="1.3053932" /><circle
       style="fill:#ff00ff;fill-opacity:1;stroke-width:0.0846396"
       id="l10"
       cx="26.8297"
       cy="71.120941"
       inkscape:transform-center-x="-0.056756127"
       inkscape:transform-center-y="-2.8378098"
       inkscape:label="l10"
       r="1.3053932" /><circle
       style="fill:#ff00ff;fill-opacity:1;stroke-width:0.0846396"
       id="l6"
       cx="26.8297"
       cy="64.365532"
       inkscape:transform-center-x="-0.056756127"
       inkscape:transform-center-y="-2.8378091"
       inkscape:label="l6"
       r="1.3053932" /><circle
       style="fill:#ff00ff;fill-opacity:1;stroke-width:0.0846396"
       id="l7"
       cx="33.585106"
       cy="64.365532"
       inkscape:transform-center-x="-0.05675555"
       inkscape:transform-center-y="-2.8378091"
       inkscape:label="l7"
       r="1.3053932" /><circle
       style="fill:#ff00ff;fill-opacity:1;stroke-width:0.0846396"
       id="l16"
       cx="40.340515"
       cy="77.87635"
       inkscape:transform-center-x="-0.056756712"
       inkscape:transform-center-y="-2.8378106"
       inkscape:label="l16"
       r="1.3053932" /><circle
       style="fill:#ff0000;fill-opacity:1;stroke-width:0.162096"
       id="i8"
       cx="48.002045"
       cy="97.207253"
       inkscape:transform-center-x="-0.10869517"
       inkscape:transform-center-y="-5.4347841"
       inkscape:label="i8"
       r="2.5" /><ellipse
       style="fill:#ff0000;fill-opacity:1;stroke-width:0.162095"
       id="poly"
       cx="30.305063"
       cy="46.754963"
       inkscape:transform-center-x="-0.10869659"
       inkscape:transform-center-y="-5.434704"
       inkscape:label="poly"
       rx="2.5"
       ry="2.4999626" /><ellipse
       style="fill:#0000ff;fill-opacity:1;stroke-width:0.162095"
       id="out"
       cx="47.822186"
       cy="46.888912"
       inkscape:transform-center-x="-0.1086902"
       inkscape:transform-center-y="-5.434698"
       inkscape:label="out"
       rx="2.5"
       ry="2.4999626" /><circle
       style="display:inline;fill:#00ff00;fill-opacity:1;stroke-width:0.162096"
       id="iforward"
       cx="12.643696"
       cy="27.914888"
       inkscape:transform-center-x="-0.10869517"
       inkscape:transform-center-y="-5.4347841"
       r="2.5"
       inkscape:label="iforward" /><circle
       style="fill:#ff0000;fill-opacity:1;stroke-width:0.162096"
       id="pforward"
       cx="12.643696"
       cy="17.301325"
       inkscape:transform-center-x="-0.10869517"
       inkscape:transform-center-y="-5.4347841"
       r="2.5"
       inkscape:label="pforward" /><circle
       style="display:inline;fill:#00ff00;fill-opacity:1;stroke-width:0.162096"
       id="iback"
       cx="30.185793"
       cy="27.914888"
       inkscape:transform-center-x="-0.10869517"
       inkscape:transform-center-y="-5.4347841"
       r="2.5"
       inkscape:label="iback" /><circle
       style="fill:#ff0000;fill-opacity:1;stroke-width:0.162096"
       id="pback"
       cx="30.185793"
       cy="17.301325"
       inkscape:transform-center-x="-0.10869517"
       inkscape:transform-center-y="-5.4347841"
       r="2.5"
       inkscape:label="pback" /><circle
       style="display:inline;fill:#00ff00;fill-opacity:1;stroke-width:0.162096"
       id="ireset"
       cx="47.727886"
       cy="27.914888"
       inkscape:transform-center-x="-0.10869517"
       inkscape:transform-center-y="-5.4347841"
       r="2.5"
       inkscape:label="ireset" /><circle
       style="fill:#ff0000;fill-opacity:1;stroke-width:0.162096"
       id="preset"
       cx="47.727886"
       cy="17.301325"
       inkscape:transform-center-x="-0.10869517"
       inkscape:transform-center-y="-5.4347841"
       r="2.5"
       inkscape:label="preset" /><ellipse
       style="display:inline;fill:#ff0000;fill-opacity:1;stroke-width:0.162095"
       id="steps"
       cx="12.763062"
       cy="46.754963"
       inkscape:transform-center-x="-0.10869628"
       inkscape:transform-center-y="-5.434704"
       inkscape:label="steps"
       rx="2.5"
       ry="2.4999626" /><circle
       style="fill:#ff0000;fill-opacity:1;stroke-width:0.162096"
       id="i2"
       cx="24.772877"
       cy="85.592674"
       inkscape:transform-center-x="-0.10869517"
       inkscape:transform-center-y="-5.4347841"
       inkscape:label="i2"
       r="2.5" /><circle
       style="fill:#ff0000;fill-opacity:1;stroke-width:0.162096"
       id="i3"
       cx="36.387459"
       cy="85.592674"
       inkscape:transform-center-x="-0.10869517"
       inkscape:transform-center-y="-5.4347841"
       inkscape:label="i3"
       r="2.5" /><circle
       style="fill:#ff0000;fill-opacity:1;stroke-width:0.162096"
       id="i4"
       cx="48.002045"
       cy="85.592674"
       inkscape:transform-center-x="-0.10869517"
       inkscape:transform-center-y="-5.4347841"
       inkscape:label="i4"
       r="2.5" /></g></svg>
