<?xml version="1.0" encoding="UTF-8" standalone="no"?>
<!-- Created with Inkscape (http://www.inkscape.org/) -->

<svg
   width="60.959999mm"
   height="128.5mm"
   viewBox="0 0 60.960002 128.5"
   version="1.1"
   id="svg5"
   inkscape:version="1.2.1 (9c6d41e410, 2022-07-14)"
   sodipodi:docname="16Squared.svg"
   xmlns:inkscape="http://www.inkscape.org/namespaces/inkscape"
   xmlns:sodipodi="http://sodipodi.sourceforge.net/DTD/sodipodi-0.dtd"
   xmlns="http://www.w3.org/2000/svg"
   xmlns:svg="http://www.w3.org/2000/svg">
  <sodipodi:namedview
     id="namedview7"
     pagecolor="#ffffff"
     bordercolor="#000000"
     borderopacity="0.25"
     inkscape:showpageshadow="2"
     inkscape:pageopacity="0.0"
     inkscape:pagecheckerboard="0"
     inkscape:deskcolor="#d1d1d1"
     inkscape:document-units="mm"
     showgrid="false"
     inkscape:zoom="1.4912879"
     inkscape:cx="115.00127"
     inkscape:cy="268.89509"
     inkscape:window-width="1920"
     inkscape:window-height="1017"
     inkscape:window-x="1912"
     inkscape:window-y="-8"
     inkscape:window-maximized="1"
     inkscape:current-layer="layer2" />
  <defs
     id="defs2">
    <rect
       x="30.175261"
       y="16.764032"
       width="4.6939292"
       height="17.434595"
       id="rect1148" />
  </defs>
  <g
     inkscape:label="Background"
     inkscape:groupmode="layer"
     id="layer1">
    <rect
       style="fill:#ffffff;fill-opacity:1;stroke-width:0.377453"
       id="rect894"
       width="71.854836"
       height="133.06451"
       x="-4.9677439"
       y="-2.3064511" />
  </g>
  <g
     inkscape:groupmode="layer"
     id="layer2"
     inkscape:label="components">
    <circle
       style="fill:#00ff00;fill-opacity:1;stroke-width:0.162096"
       id="forwardIn"
       cx="16.677418"
       cy="27.322578"
       inkscape:transform-center-x="-0.10869517"
       inkscape:transform-center-y="-5.4347841"
       r="2.5"
       inkscape:label="forwardIn" />
    <circle
       style="fill:#00ff00;fill-opacity:1;stroke-width:0.162096"
       id="backIn"
       cx="29.614918"
       cy="27.322578"
       inkscape:transform-center-x="-0.10869517"
       inkscape:transform-center-y="-5.4347841"
       r="2.5"
       inkscape:label="backIn" />
    <circle
       style="fill:#00ff00;fill-opacity:1;stroke-width:0.162096"
       id="resetIn"
       cx="42.552418"
       cy="27.322578"
       inkscape:transform-center-x="-0.10869517"
       inkscape:transform-center-y="-5.4347841"
       r="2.5"
       inkscape:label="resetIn" />
    <circle
       style="fill:#ff0000;fill-opacity:1;stroke-width:0.162096"
       id="1"
       cx="10.514832"
       cy="72.387093"
       inkscape:transform-center-x="-0.10869517"
       inkscape:transform-center-y="-5.4347841"
       inkscape:label="1"
       r="2.5" />
    <circle
       style="fill:#ff0000;fill-opacity:1;stroke-width:0.162096"
       id="5"
       cx="10.514832"
       cy="85.324585"
       inkscape:transform-center-x="-0.10869517"
       inkscape:transform-center-y="-5.4347841"
       inkscape:label="5"
       r="2.5" />
    <circle
       style="fill:#0000ff;fill-opacity:1;stroke-width:0.162096"
       id="out"
       cx="29.853546"
       cy="122.59674"
       inkscape:transform-center-x="-0.10869517"
       inkscape:transform-center-y="-5.4347841"
       r="2.5"
       inkscape:label="out" />
    <circle
       style="fill:#ff0000;fill-opacity:1;stroke-width:0.162096"
       id="9"
       cx="10.514832"
       cy="98.262093"
       inkscape:transform-center-x="-0.10869517"
       inkscape:transform-center-y="-5.4347841"
       inkscape:label="9"
       r="2.5" />
    <circle
       style="fill:#ff0000;fill-opacity:1;stroke-width:0.162096"
       id="13"
       cx="10.514832"
       cy="111.19958"
       inkscape:transform-center-x="-0.10869517"
       inkscape:transform-center-y="-5.4347841"
       inkscape:label="13"
       r="2.5" />
    <circle
       style="fill:#ff0000;fill-opacity:1;stroke-width:0.162096"
       id="14"
       cx="23.452339"
       cy="111.19958"
       inkscape:transform-center-x="-0.10869517"
       inkscape:transform-center-y="-5.4347841"
       inkscape:label="14"
       r="2.5" />
    <circle
       style="fill:#ff0000;fill-opacity:1;stroke-width:0.162096"
       id="15"
       cx="36.389832"
       cy="111.19958"
       inkscape:transform-center-x="-0.10869517"
       inkscape:transform-center-y="-5.4347841"
       inkscape:label="15"
       r="2.5" />
    <circle
       style="fill:#ff0000;fill-opacity:1;stroke-width:0.162096"
       id="12"
       cx="49.327332"
       cy="98.262093"
       inkscape:transform-center-x="-0.10869517"
       inkscape:transform-center-y="-5.4347841"
       inkscape:label="12"
       r="2.5" />
    <circle
       style="fill:#ff0000;fill-opacity:1;stroke-width:0.162096"
       id="11"
       cx="36.389832"
       cy="98.262093"
       inkscape:transform-center-x="-0.10869517"
       inkscape:transform-center-y="-5.4347841"
       inkscape:label="11"
       r="2.5" />
    <circle
       style="fill:#ff0000;fill-opacity:1;stroke-width:0.162096"
       id="10"
       cx="23.452339"
       cy="98.262093"
       inkscape:transform-center-x="-0.10869517"
       inkscape:transform-center-y="-5.4347841"
       inkscape:label="10"
       r="2.5" />
    <circle
       style="fill:#ff0000;fill-opacity:1;stroke-width:0.162096"
       id="6"
       cx="23.452339"
       cy="85.324585"
       inkscape:transform-center-x="-0.10869517"
       inkscape:transform-center-y="-5.4347841"
       inkscape:label="6"
       r="2.5" />
    <circle
       style="fill:#ff0000;fill-opacity:1;stroke-width:0.162096"
       id="7"
       cx="36.389832"
       cy="85.324585"
       inkscape:transform-center-x="-0.10869517"
       inkscape:transform-center-y="-5.4347841"
       inkscape:label="7"
       r="2.5" />
    <circle
       style="fill:#ff0000;fill-opacity:1;stroke-width:0.162096"
       id="16"
       cx="49.327332"
       cy="111.19958"
       inkscape:transform-center-x="-0.10869517"
       inkscape:transform-center-y="-5.4347841"
       inkscape:label="16"
       r="2.5" />
    <circle
       style="fill:#ff00ff;fill-opacity:1;stroke-width:0.0846396"
       id="l8"
       cx="39.939568"
       cy="50.912628"
       inkscape:transform-center-x="-0.056756712"
       inkscape:transform-center-y="-2.8378091"
       inkscape:label="l8"
       r="1.3053932" />
    <circle
       style="fill:#ff00ff;fill-opacity:1;stroke-width:0.0846396"
       id="l2"
       cx="26.428747"
       cy="44.157219"
       inkscape:transform-center-x="-0.056756127"
       inkscape:transform-center-y="-2.8378084"
       inkscape:label="l2"
       r="1.3053932" />
    <circle
       style="fill:#ff00ff;fill-opacity:1;stroke-width:0.0846396"
       id="l3"
       cx="33.184158"
       cy="44.157219"
       inkscape:transform-center-x="-0.05675555"
       inkscape:transform-center-y="-2.8378084"
       inkscape:label="l3"
       r="1.3053932" />
    <circle
       style="fill:#ff00ff;fill-opacity:1;stroke-width:0.0846396"
       id="l4"
       cx="39.939568"
       cy="44.157219"
       inkscape:transform-center-x="-0.056756712"
       inkscape:transform-center-y="-2.8378084"
       inkscape:label="l4"
       r="1.3053932" />
    <circle
       style="fill:#ff00ff;fill-opacity:1;stroke-width:0.0846396"
       id="l1"
       cx="19.673336"
       cy="44.157219"
       inkscape:transform-center-x="-0.056755961"
       inkscape:transform-center-y="-2.8378084"
       inkscape:label="l1"
       r="1.3053932" />
    <circle
       style="fill:#ff00ff;fill-opacity:1;stroke-width:0.0846396"
       id="l5"
       cx="19.673336"
       cy="50.912628"
       inkscape:transform-center-x="-0.056755961"
       inkscape:transform-center-y="-2.8378091"
       inkscape:label="l5"
       r="1.3053932" />
    <circle
       style="fill:#ff00ff;fill-opacity:1;stroke-width:0.0846396"
       id="l9"
       cx="19.673336"
       cy="57.668037"
       inkscape:transform-center-x="-0.056755961"
       inkscape:transform-center-y="-2.8378098"
       inkscape:label="l9"
       r="1.3053932" />
    <circle
       style="fill:#ff00ff;fill-opacity:1;stroke-width:0.0846396"
       id="l13"
       cx="19.673336"
       cy="64.423447"
       inkscape:transform-center-x="-0.056755961"
       inkscape:transform-center-y="-2.8378106"
       inkscape:label="l13"
       r="1.3053932" />
    <circle
       style="fill:#ff00ff;fill-opacity:1;stroke-width:0.0846396"
       id="l14"
       cx="26.428747"
       cy="64.423447"
       inkscape:transform-center-x="-0.056756127"
       inkscape:transform-center-y="-2.8378106"
       inkscape:label="l14"
       r="1.3053932" />
    <circle
       style="fill:#ff00ff;fill-opacity:1;stroke-width:0.0846396"
       id="l15"
       cx="33.184158"
       cy="64.423447"
       inkscape:transform-center-x="-0.05675555"
       inkscape:transform-center-y="-2.8378106"
       inkscape:label="l15"
       r="1.3053932" />
    <circle
       style="fill:#ff00ff;fill-opacity:1;stroke-width:0.0846396"
       id="l12"
       cx="39.939568"
       cy="57.668037"
       inkscape:transform-center-x="-0.056756712"
       inkscape:transform-center-y="-2.8378098"
       inkscape:label="l12"
       r="1.3053932" />
    <circle
       style="fill:#ff00ff;fill-opacity:1;stroke-width:0.0846396"
       id="l11"
       cx="33.184158"
       cy="57.668037"
       inkscape:transform-center-x="-0.05675555"
       inkscape:transform-center-y="-2.8378098"
       inkscape:label="l11"
       r="1.3053932" />
    <circle
       style="fill:#ff00ff;fill-opacity:1;stroke-width:0.0846396"
       id="l10"
       cx="26.428747"
       cy="57.668037"
       inkscape:transform-center-x="-0.056756127"
       inkscape:transform-center-y="-2.8378098"
       inkscape:label="l10"
       r="1.3053932" />
    <circle
       style="fill:#ff00ff;fill-opacity:1;stroke-width:0.0846396"
       id="l6"
       cx="26.428747"
       cy="50.912628"
       inkscape:transform-center-x="-0.056756127"
       inkscape:transform-center-y="-2.8378091"
       inkscape:label="l6"
       r="1.3053932" />
    <circle
       style="fill:#ff00ff;fill-opacity:1;stroke-width:0.0846396"
       id="l7"
       cx="33.184158"
       cy="50.912628"
       inkscape:transform-center-x="-0.05675555"
       inkscape:transform-center-y="-2.8378091"
       inkscape:label="l7"
       r="1.3053932" />
    <circle
       style="fill:#ff00ff;fill-opacity:1;stroke-width:0.0846396"
       id="l16"
       cx="39.939568"
       cy="64.423447"
       inkscape:transform-center-x="-0.056756712"
       inkscape:transform-center-y="-2.8378106"
       inkscape:label="l16"
       r="1.3053932" />
    <circle
       style="fill:#ff0000;fill-opacity:1;stroke-width:0.162096"
       id="8"
       cx="49.327332"
       cy="85.324585"
       inkscape:transform-center-x="-0.10869517"
       inkscape:transform-center-y="-5.4347841"
       inkscape:label="8"
       r="2.5" />
    <circle
       style="fill:#ff0000;fill-opacity:1;stroke-width:0.162096"
       id="2"
       cx="23.452339"
       cy="72.387093"
       inkscape:transform-center-x="-0.10869517"
       inkscape:transform-center-y="-5.4347841"
       inkscape:label="2"
       r="2.5" />
    <circle
       style="fill:#ff0000;fill-opacity:1;stroke-width:0.162096"
       id="3"
       cx="36.389832"
       cy="72.387093"
       inkscape:transform-center-x="-0.10869517"
       inkscape:transform-center-y="-5.4347841"
       inkscape:label="3"
       r="2.5" />
    <circle
       style="fill:#ff0000;fill-opacity:1;stroke-width:0.162096"
       id="forward"
       cx="16.677418"
       cy="36.291328"
       inkscape:transform-center-x="-0.10869517"
       inkscape:transform-center-y="-5.4347841"
       inkscape:label="forward"
       r="2.5" />
    <circle
       style="fill:#ff0000;fill-opacity:1;stroke-width:0.162096"
       id="4"
       cx="49.327332"
       cy="72.387093"
       inkscape:transform-center-x="-0.10869517"
       inkscape:transform-center-y="-5.4347841"
       inkscape:label="4"
       r="2.5" />
    <circle
       style="fill:#ff0000;fill-opacity:1;stroke-width:0.162096"
       id="steps"
       cx="22.177414"
       cy="13.483871"
       inkscape:transform-center-x="-0.10869517"
       inkscape:transform-center-y="-5.4347841"
       inkscape:label="steps"
       r="2.5" />
    <circle
       style="fill:#ff0000;fill-opacity:1;stroke-width:0.162096"
       id="channels"
       cx="36.725807"
       cy="13.483871"
       inkscape:transform-center-x="-0.10869517"
       inkscape:transform-center-y="-5.4347841"
       inkscape:label="channels"
       r="2.5" />
    <circle
       style="fill:#ff0000;fill-opacity:1;stroke-width:0.162096"
       id="back"
       cx="29.614918"
       cy="36.291328"
       inkscape:transform-center-x="-0.10869517"
       inkscape:transform-center-y="-5.4347841"
       inkscape:label="back"
       r="2.5" />
    <circle
       style="fill:#ff0000;fill-opacity:1;stroke-width:0.162096"
       id="reset"
       cx="42.552418"
       cy="36.291328"
       inkscape:transform-center-x="-0.10869517"
       inkscape:transform-center-y="-5.4347841"
       inkscape:label="reset"
       r="2.5" />
  </g>
  <g
     inkscape:groupmode="layer"
     id="layer3"
     inkscape:label="Text">
    <g
       aria-label="steps"
       id="text1345"
       style="font-size:3.175px;font-family:'Courier New';-inkscape-font-specification:'Courier New';text-align:center;text-anchor:middle;stroke-width:0.264583"
       transform="translate(-13.129032,-1.9516129)">
      <path
         d="m 32.458297,8.323357 q 0,-0.044958 0.0186,-0.065112 0.0186,-0.020154 0.04651,-0.020154 0.02946,0 0.04806,0.020154 0.0186,0.020154 0.0186,0.068213 v 0.2232422 q 0,0.046509 -0.0186,0.066663 -0.0186,0.020154 -0.04806,0.020154 -0.02636,0 -0.04496,-0.017053 -0.01705,-0.017053 -0.02015,-0.055811 -0.0093,-0.093018 -0.09612,-0.153479 -0.127124,-0.086816 -0.336414,-0.086816 -0.218591,0 -0.339514,0.088367 -0.09147,0.066663 -0.09147,0.1488281 0,0.093018 0.10852,0.1550293 0.07441,0.043408 0.282154,0.066663 0.271301,0.029456 0.376721,0.066663 0.150378,0.05426 0.223242,0.1503785 0.07441,0.096118 0.07441,0.2077392 0,0.1658814 -0.15968,0.296106 -0.15968,0.1286743 -0.468189,0.1286743 -0.308508,0 -0.505395,-0.1565796 0,0.05271 -0.0062,0.068213 -0.0062,0.015503 -0.02325,0.026355 -0.0155,0.010852 -0.03566,0.010852 -0.02791,0 -0.04651,-0.020154 -0.0186,-0.020154 -0.0186,-0.066663 V 9.2256275 q 0,-0.046509 0.01705,-0.066663 0.0186,-0.020154 0.04806,-0.020154 0.0279,0 0.04651,0.020154 0.02015,0.018603 0.02015,0.05116 0,0.071314 0.03566,0.1193726 0.05426,0.074414 0.172083,0.1240234 0.119372,0.048059 0.291455,0.048059 0.254248,0 0.378271,-0.094568 0.124023,-0.094568 0.124023,-0.1999878 0,-0.1209228 -0.125573,-0.1937866 -0.127124,-0.072864 -0.37052,-0.097668 -0.241846,-0.024805 -0.347266,-0.065112 -0.10542,-0.040308 -0.164331,-0.1209228 -0.05891,-0.080615 -0.05891,-0.1736328 0,-0.1674317 0.164331,-0.2651001 0.164331,-0.099219 0.392224,-0.099219 0.269751,0 0.438733,0.1317749 z"
         id="path1442" />
      <path
         d="m 33.665975,8.2380909 h 0.706934 q 0.04651,0 0.06666,0.018604 0.02015,0.018603 0.02015,0.048059 0,0.027905 -0.02015,0.046509 -0.02015,0.018603 -0.06666,0.018603 h -0.706934 v 0.8666138 q 0,0.1131714 0.08992,0.1891357 0.09147,0.075964 0.266651,0.075964 0.131775,0 0.285254,-0.038757 0.153479,-0.040308 0.238745,-0.089917 0.03101,-0.020154 0.05116,-0.020154 0.02481,0 0.04341,0.020154 0.0186,0.018603 0.0186,0.044958 0,0.023254 -0.02015,0.043408 -0.04961,0.05116 -0.241846,0.111621 -0.190686,0.058911 -0.365869,0.058911 -0.227893,0 -0.362768,-0.1069702 Q 33.5342,9.4178638 33.5342,9.2364796 V 8.3698658 h -0.240295 q -0.04651,0 -0.06666,-0.018603 -0.02015,-0.018603 -0.02015,-0.048059 0,-0.027905 0.02015,-0.046509 0.02015,-0.018604 0.06666,-0.018604 H 33.5342 V 7.8536183 q 0,-0.046509 0.0186,-0.066663 0.0186,-0.020154 0.04651,-0.020154 0.02945,0 0.04806,0.020154 0.0186,0.020154 0.0186,0.066663 z"
         id="path1444" />
      <path
         d="m 36.543319,8.9403736 h -1.327051 q 0.03411,0.2526978 0.21084,0.4077271 0.178284,0.153479 0.440283,0.153479 0.145728,0 0.305408,-0.048059 0.15968,-0.048059 0.260449,-0.127124 0.02946,-0.023254 0.05116,-0.023254 0.0248,0 0.04341,0.020154 0.0186,0.018604 0.0186,0.044959 0,0.026355 -0.02481,0.05116 -0.07441,0.077515 -0.2651,0.1457276 -0.189136,0.066663 -0.389124,0.066663 -0.334863,0 -0.559656,-0.2185913 -0.223242,-0.2201416 -0.223242,-0.5317505 0,-0.2837036 0.20929,-0.486792 0.21084,-0.2030884 0.520898,-0.2030884 0.319361,0 0.52555,0.2092896 0.206189,0.2077392 0.203088,0.5395019 z M 36.411544,8.8085987 Q 36.372787,8.593108 36.206905,8.4582325 36.042574,8.323357 35.814681,8.323357 q -0.227893,0 -0.392224,0.1333252 -0.164331,0.1333252 -0.204639,0.3519165 z"
         id="path1446" />
      <path
         d="m 37.253353,8.2380909 v 0.2371948 q 0.116272,-0.1410766 0.249597,-0.2123901 0.133325,-0.071314 0.31471,-0.071314 0.192236,0 0.355017,0.089917 0.16278,0.089917 0.251147,0.2511475 0.08992,0.1596801 0.08992,0.3364135 0,0.2806031 -0.201538,0.4805909 -0.199988,0.1984375 -0.492993,0.1984375 -0.348816,0 -0.565857,-0.2837037 v 0.7844487 h 0.31626 q 0.04651,0 0.06666,0.01705 0.02015,0.0186 0.02015,0.04806 0,0.02791 -0.02015,0.04651 -0.02015,0.0186 -0.06666,0.0186 h -0.621668 q -0.04651,0 -0.06666,-0.0186 -0.02015,-0.01705 -0.02015,-0.04651 0,-0.02945 0.02015,-0.04806 0.02015,-0.01705 0.06666,-0.01705 h 0.175183 V 8.3698658 h -0.175183 q -0.04651,0 -0.06666,-0.018603 -0.02015,-0.018603 -0.02015,-0.048059 0,-0.027905 0.02015,-0.046509 0.02015,-0.018604 0.06666,-0.018604 z m 1.128613,0.6309692 q 0,-0.2247924 -0.164331,-0.3844726 Q 38.054854,8.323357 37.81921,8.323357 q -0.237195,0 -0.401526,0.1612305 -0.164331,0.1612305 -0.164331,0.3844726 0,0.2247925 0.164331,0.386023 0.164331,0.1612305 0.401526,0.1612305 0.234094,0 0.398425,-0.1596802 0.164331,-0.1612305 0.164331,-0.3875733 z"
         id="path1448" />
      <path
         d="m 40.079537,8.323357 q 0,-0.044958 0.0186,-0.065112 0.0186,-0.020154 0.04651,-0.020154 0.02946,0 0.04806,0.020154 0.0186,0.020154 0.0186,0.068213 v 0.2232422 q 0,0.046509 -0.0186,0.066663 -0.0186,0.020154 -0.04806,0.020154 -0.02636,0 -0.04496,-0.017053 -0.01705,-0.017053 -0.02015,-0.055811 -0.0093,-0.093018 -0.09612,-0.153479 -0.127124,-0.086816 -0.336414,-0.086816 -0.218591,0 -0.339514,0.088367 -0.09147,0.066663 -0.09147,0.1488281 0,0.093018 0.10852,0.1550293 0.07441,0.043408 0.282154,0.066663 0.271301,0.029456 0.376721,0.066663 0.150378,0.05426 0.223242,0.1503785 0.07441,0.096118 0.07441,0.2077392 0,0.1658814 -0.15968,0.296106 -0.15968,0.1286743 -0.468188,0.1286743 -0.308509,0 -0.505396,-0.1565796 0,0.05271 -0.0062,0.068213 -0.0062,0.015503 -0.02325,0.026355 -0.0155,0.010852 -0.03566,0.010852 -0.0279,0 -0.04651,-0.020154 -0.0186,-0.020154 -0.0186,-0.066663 V 9.2256275 q 0,-0.046509 0.01705,-0.066663 0.0186,-0.020154 0.04806,-0.020154 0.02791,0 0.04651,0.020154 0.02015,0.018603 0.02015,0.05116 0,0.071314 0.03566,0.1193726 0.05426,0.074414 0.172083,0.1240234 0.119372,0.048059 0.291455,0.048059 0.254248,0 0.378271,-0.094568 0.124024,-0.094568 0.124024,-0.1999878 0,-0.1209228 -0.125574,-0.1937866 -0.127124,-0.072864 -0.37052,-0.097668 -0.241846,-0.024805 -0.347266,-0.065112 -0.10542,-0.040308 -0.164331,-0.1209228 -0.05891,-0.080615 -0.05891,-0.1736328 0,-0.1674317 0.164331,-0.2651001 0.164331,-0.099219 0.392224,-0.099219 0.269751,0 0.438733,0.1317749 z"
         id="path1450" />
    </g>
    <g
       aria-label="channels"
       id="text1349"
       style="font-size:3.175px;font-family:'Courier New';-inkscape-font-specification:'Courier New';text-align:center;text-anchor:middle;stroke-width:0.264583"
       transform="translate(-12.064516,-1.9516129)">
      <path
         d="m 43.729628,8.5472864 v -0.043408 q 0,-0.048059 0.0186,-0.068213 0.0186,-0.020154 0.04651,-0.020154 0.02946,0 0.04806,0.020154 0.0186,0.020154 0.0186,0.068213 v 0.2945557 q -0.0016,0.048059 -0.02015,0.068213 -0.01705,0.020154 -0.04651,0.020154 -0.02635,0 -0.04496,-0.017053 -0.01705,-0.018603 -0.02015,-0.060461 -0.0093,-0.1100708 -0.145727,-0.2092895 -0.134876,-0.099219 -0.364319,-0.099219 -0.289905,0 -0.440283,0.1813843 -0.150379,0.1813843 -0.150379,0.4154785 0,0.2526978 0.165881,0.4170288 0.165882,0.1643311 0.429432,0.1643311 0.151928,0 0.308508,-0.055811 0.15813,-0.05581 0.285254,-0.1798339 0.03256,-0.031006 0.05736,-0.031006 0.02636,0 0.04341,0.018603 0.0186,0.017053 0.0186,0.043408 0,0.066663 -0.156579,0.1689819 -0.252698,0.1658814 -0.562757,0.1658814 -0.314709,0 -0.517797,-0.1999878 -0.201539,-0.2015381 -0.201539,-0.5100464 0,-0.3147094 0.206189,-0.5224487 0.20774,-0.2077393 0.522449,-0.2077393 0.299207,0 0.502295,0.1782837 z"
         id="path1453" />
      <path
         d="M 44.662904,7.8124476 V 8.613949 q 0.124024,-0.1348755 0.237195,-0.1891357 0.114722,-0.055811 0.255799,-0.055811 0.151928,0 0.257348,0.05426 0.10697,0.05271 0.178284,0.164331 0.07131,0.1100708 0.07131,0.232544 v 0.8077026 h 0.145728 q 0.04806,0 0.06666,0.018603 0.02015,0.017053 0.02015,0.046509 0,0.027905 -0.02015,0.046509 -0.0186,0.018604 -0.06666,0.018604 h -0.42323 q -0.04806,0 -0.06821,-0.018604 -0.02015,-0.018603 -0.02015,-0.046509 0,-0.029455 0.02015,-0.046509 0.02015,-0.018603 0.06821,-0.018603 h 0.145727 V 8.8294397 q 0,-0.1410766 -0.102319,-0.2356445 -0.100769,-0.094568 -0.282153,-0.094568 -0.142627,0 -0.243396,0.069763 -0.07286,0.049609 -0.240296,0.2340943 v 0.8247558 h 0.147278 q 0.04651,0 0.06666,0.018603 0.02015,0.017053 0.02015,0.046509 0,0.027905 -0.02015,0.046509 -0.02015,0.018604 -0.06666,0.018604 h -0.42478 q -0.04651,0 -0.06666,-0.018604 -0.02015,-0.018603 -0.02015,-0.046509 0,-0.029455 0.02015,-0.046509 0.02015,-0.018603 0.06666,-0.018603 H 44.53268 V 7.9442225 h -0.175183 q -0.04651,0 -0.06666,-0.018604 -0.02015,-0.018604 -0.02015,-0.048059 0,-0.027905 0.02015,-0.046509 0.02015,-0.018604 0.06666,-0.018604 z"
         id="path1455" />
      <path
         d="M 47.371266,9.7580652 V 9.5704798 q -0.283703,0.2387451 -0.606164,0.2387451 -0.234095,0 -0.365869,-0.1178223 -0.131775,-0.1193725 -0.131775,-0.291455 0,-0.1891358 0.173632,-0.3302124 0.173633,-0.1410767 0.506946,-0.1410767 0.08992,0 0.195337,0.012402 0.10542,0.010852 0.227893,0.035657 V 8.7658777 q 0,-0.1069702 -0.09922,-0.1860351 -0.09922,-0.079065 -0.297656,-0.079065 -0.151928,0 -0.42633,0.088367 -0.04961,0.015503 -0.06356,0.015503 -0.02481,0 -0.04341,-0.018603 -0.01705,-0.018604 -0.01705,-0.046509 0,-0.026355 0.0155,-0.041858 0.0217,-0.023254 0.175183,-0.063562 0.241846,-0.065112 0.365869,-0.065112 0.246497,0 0.384473,0.1224732 0.137976,0.1209228 0.137976,0.2744018 v 0.8619629 h 0.173633 q 0.04806,0 0.06821,0.018603 0.02015,0.017053 0.02015,0.046509 0,0.027905 -0.02015,0.046509 -0.02015,0.018604 -0.06821,0.018604 z m 0,-0.6480224 q -0.09147,-0.026355 -0.193786,-0.038757 -0.10232,-0.012402 -0.215491,-0.012402 -0.283704,0 -0.443384,0.1224731 -0.120923,0.091467 -0.120923,0.2185914 0,0.1178222 0.09147,0.1984375 0.09302,0.080615 0.269751,0.080615 0.168981,0 0.313159,-0.066663 0.145727,-0.068213 0.299206,-0.2154907 z"
         id="path1457" />
      <path
         d="m 48.481276,8.4155115 v 0.1968872 q 0.136426,-0.137976 0.246496,-0.190686 0.110071,-0.05271 0.248047,-0.05271 0.148828,0 0.271302,0.063562 0.08682,0.046509 0.156579,0.1550292 0.07131,0.1069703 0.07131,0.2201416 v 0.820105 h 0.11007 q 0.04651,0 0.06666,0.018603 0.02015,0.017053 0.02015,0.046509 0,0.027905 -0.02015,0.046509 -0.02015,0.018604 -0.06666,0.018604 h -0.348815 q -0.04806,0 -0.06821,-0.018604 -0.02015,-0.018603 -0.02015,-0.046509 0,-0.029455 0.02015,-0.046509 0.02015,-0.018603 0.06821,-0.018603 h 0.10852 V 8.8294397 q 0,-0.137976 -0.100769,-0.2325439 -0.100769,-0.096118 -0.269751,-0.096118 -0.128674,0 -0.223242,0.05271 -0.09457,0.05116 -0.269751,0.2573486 v 0.8170044 h 0.147278 q 0.04651,0 0.06666,0.018603 0.02015,0.017053 0.02015,0.046509 0,0.027905 -0.02015,0.046509 -0.02015,0.018604 -0.06666,0.018604 h -0.424781 q -0.04651,0 -0.06666,-0.018604 -0.02015,-0.018603 -0.02015,-0.046509 0,-0.029455 0.02015,-0.046509 0.02015,-0.018603 0.06666,-0.018603 h 0.147278 V 8.5472864 H 48.24098 q -0.04651,0 -0.06666,-0.018604 -0.02015,-0.018603 -0.02015,-0.048059 0,-0.027905 0.02015,-0.046509 0.02015,-0.018604 0.06666,-0.018604 z"
         id="path1459" />
      <path
         d="m 50.386586,8.4155115 v 0.1968872 q 0.136426,-0.137976 0.246497,-0.190686 0.11007,-0.05271 0.248046,-0.05271 0.148829,0 0.271302,0.063562 0.08682,0.046509 0.156579,0.1550292 0.07131,0.1069703 0.07131,0.2201416 v 0.820105 h 0.110071 q 0.04651,0 0.06666,0.018603 0.02015,0.017053 0.02015,0.046509 0,0.027905 -0.02015,0.046509 -0.02015,0.018604 -0.06666,0.018604 h -0.348816 q -0.04806,0 -0.06821,-0.018604 -0.02015,-0.018603 -0.02015,-0.046509 0,-0.029455 0.02015,-0.046509 0.02015,-0.018603 0.06821,-0.018603 h 0.10852 V 8.8294397 q 0,-0.137976 -0.100769,-0.2325439 -0.100769,-0.096118 -0.269751,-0.096118 -0.128674,0 -0.223242,0.05271 -0.09457,0.05116 -0.269751,0.2573486 v 0.8170044 h 0.147278 q 0.04651,0 0.06666,0.018603 0.02015,0.017053 0.02015,0.046509 0,0.027905 -0.02015,0.046509 -0.02015,0.018604 -0.06666,0.018604 h -0.42478 q -0.04651,0 -0.06666,-0.018604 -0.02015,-0.018603 -0.02015,-0.046509 0,-0.029455 0.02015,-0.046509 0.02015,-0.018603 0.06666,-0.018603 h 0.147277 V 8.5472864 h -0.11007 q -0.04651,0 -0.06666,-0.018604 -0.02015,-0.018603 -0.02015,-0.048059 0,-0.027905 0.02015,-0.046509 0.02015,-0.018604 0.06666,-0.018604 z"
         id="path1461" />
      <path
         d="m 53.417409,9.1177942 h -1.327051 q 0.03411,0.2526978 0.21084,0.4077271 0.178284,0.153479 0.440283,0.153479 0.145728,0 0.305408,-0.048059 0.15968,-0.048059 0.260449,-0.127124 0.02946,-0.023254 0.05116,-0.023254 0.0248,0 0.04341,0.020154 0.0186,0.018603 0.0186,0.044958 0,0.026355 -0.0248,0.05116 -0.07441,0.077515 -0.2651,0.1457275 -0.189136,0.066663 -0.389124,0.066663 -0.334863,0 -0.559656,-0.2185913 -0.223242,-0.2201416 -0.223242,-0.5317505 0,-0.2837036 0.20929,-0.486792 0.21084,-0.2030884 0.520898,-0.2030884 0.319361,0 0.525549,0.2092896 0.206189,0.2077392 0.203089,0.5395019 z M 53.285634,8.9860193 Q 53.246877,8.7705286 53.080995,8.6356531 52.916664,8.5007776 52.688771,8.5007776 q -0.227893,0 -0.392224,0.1333252 -0.164331,0.1333252 -0.204639,0.3519165 z"
         id="path1463" />
      <path
         d="m 54.683998,7.8124476 v 1.815393 h 0.511596 q 0.04806,0 0.06821,0.018603 0.02015,0.017053 0.02015,0.046509 0,0.027905 -0.02015,0.046509 -0.02015,0.018604 -0.06821,0.018604 h -1.153417 q -0.04651,0 -0.06666,-0.018604 -0.02015,-0.018603 -0.02015,-0.046509 0,-0.029455 0.02015,-0.046509 0.02015,-0.018603 0.06666,-0.018603 h 0.511596 V 7.9442225 h -0.375171 q -0.04651,0 -0.06821,-0.018604 -0.02015,-0.018604 -0.02015,-0.048059 0,-0.027905 0.02015,-0.046509 0.02015,-0.018604 0.06821,-0.018604 z"
         id="path1465" />
      <path
         d="m 56.953627,8.5007776 q 0,-0.044958 0.0186,-0.065112 0.0186,-0.020154 0.04651,-0.020154 0.02945,0 0.04806,0.020154 0.0186,0.020154 0.0186,0.068213 v 0.2232422 q 0,0.046509 -0.0186,0.066663 -0.0186,0.020154 -0.04806,0.020154 -0.02636,0 -0.04496,-0.017053 -0.01705,-0.017053 -0.02015,-0.05581 -0.0093,-0.093018 -0.09612,-0.1534791 -0.127124,-0.086816 -0.336413,-0.086816 -0.218592,0 -0.339515,0.088367 -0.09147,0.066663 -0.09147,0.1488282 0,0.093018 0.108521,0.1550293 0.07441,0.043408 0.282153,0.066663 0.271301,0.029456 0.376721,0.066663 0.150379,0.05426 0.223242,0.1503784 0.07441,0.096118 0.07441,0.2077392 0,0.1658814 -0.15968,0.296106 -0.15968,0.1286743 -0.468188,0.1286743 -0.308509,0 -0.505396,-0.1565796 0,0.05271 -0.0062,0.068213 -0.0062,0.015503 -0.02325,0.026355 -0.0155,0.010852 -0.03566,0.010852 -0.02791,0 -0.04651,-0.020154 -0.0186,-0.020154 -0.0186,-0.066663 V 9.4030481 q 0,-0.046509 0.01705,-0.066663 0.0186,-0.020154 0.04806,-0.020154 0.0279,0 0.04651,0.020154 0.02015,0.018604 0.02015,0.05116 0,0.071314 0.03566,0.1193726 0.05426,0.074414 0.172083,0.1240234 0.119372,0.048059 0.291455,0.048059 0.254248,0 0.378271,-0.094568 0.124024,-0.094568 0.124024,-0.1999878 0,-0.1209228 -0.125574,-0.1937866 -0.127124,-0.072864 -0.37052,-0.097668 -0.241846,-0.024805 -0.347266,-0.065112 -0.10542,-0.040308 -0.164331,-0.1209228 -0.05891,-0.080615 -0.05891,-0.1736328 0,-0.1674317 0.164331,-0.2651001 0.164331,-0.099219 0.392224,-0.099219 0.269751,0 0.438733,0.1317749 z"
         id="path1467" />
    </g>
    <g
       aria-label="reset"
       id="text1403"
       style="font-size:3.175px;font-family:'Courier New';-inkscape-font-specification:'Courier New';text-align:center;text-anchor:middle;stroke-width:0.264583"
       transform="translate(21.290321,12.419355)">
      <path
         d="m 18.565833,8.5929302 v 0.3286621 q 0.254248,-0.2294433 0.379821,-0.2945556 0.127124,-0.066663 0.234095,-0.066663 0.116272,0 0.21549,0.079065 0.100769,0.077515 0.100769,0.1178223 0,0.029456 -0.02015,0.049609 -0.0186,0.018604 -0.04806,0.018604 -0.0155,0 -0.02635,-0.00465 -0.01085,-0.0062 -0.04031,-0.035657 -0.05426,-0.05426 -0.09457,-0.074414 -0.04031,-0.020154 -0.07906,-0.020154 -0.08527,0 -0.206189,0.068213 -0.119372,0.068213 -0.415478,0.333313 v 0.7131347 h 0.576709 q 0.04806,0 0.06821,0.018604 0.02015,0.017053 0.02015,0.046509 0,0.027905 -0.02015,0.046509 -0.02015,0.018603 -0.06821,0.018603 h -1.021643 q -0.04651,0 -0.06666,-0.017053 -0.02015,-0.018603 -0.02015,-0.046509 0,-0.026355 0.0186,-0.043408 0.02015,-0.018604 0.06821,-0.018604 h 0.314709 V 8.7247051 h -0.240295 q -0.04651,0 -0.06666,-0.018603 -0.02015,-0.018604 -0.02015,-0.048059 0,-0.027905 0.0186,-0.046509 0.02015,-0.018604 0.06821,-0.018604 z"
         id="path1470" />
      <path
         d="m 21.331555,9.2952129 h -1.327051 q 0.03411,0.2526978 0.21084,0.4077271 0.178284,0.153479 0.440283,0.153479 0.145728,0 0.305408,-0.048059 0.15968,-0.048059 0.260449,-0.127124 0.02946,-0.023254 0.05116,-0.023254 0.02481,0 0.04341,0.020154 0.0186,0.018604 0.0186,0.044958 0,0.026355 -0.02481,0.05116 -0.07441,0.077515 -0.2651,0.1457275 -0.189136,0.066663 -0.389124,0.066663 -0.334863,0 -0.559655,-0.2185913 -0.223242,-0.2201416 -0.223242,-0.5317505 0,-0.2837036 0.209289,-0.486792 0.21084,-0.2030883 0.520899,-0.2030883 0.31936,0 0.525549,0.2092895 0.206189,0.2077393 0.203088,0.5395019 z M 21.19978,9.163438 Q 21.161023,8.9479473 20.995142,8.8130718 20.830811,8.6781964 20.602918,8.6781964 q -0.227894,0 -0.392225,0.1333251 -0.164331,0.1333252 -0.204638,0.3519165 z"
         id="path1472" />
      <path
         d="m 22.962463,8.6781964 q 0,-0.044958 0.0186,-0.065112 0.0186,-0.020154 0.04651,-0.020154 0.02945,0 0.04806,0.020154 0.0186,0.020154 0.0186,0.068213 v 0.2232422 q 0,0.046509 -0.0186,0.066663 -0.0186,0.020154 -0.04806,0.020154 -0.02635,0 -0.04496,-0.017053 -0.01705,-0.017053 -0.02015,-0.05581 -0.0093,-0.093018 -0.09612,-0.153479 -0.127124,-0.086816 -0.336413,-0.086816 -0.218592,0 -0.339515,0.088367 -0.09147,0.066662 -0.09147,0.1488281 0,0.093018 0.108521,0.1550293 0.07441,0.043408 0.282153,0.066663 0.271301,0.029456 0.376721,0.066663 0.150379,0.05426 0.223242,0.1503784 0.07441,0.096118 0.07441,0.2077392 0,0.1658814 -0.15968,0.296106 -0.15968,0.1286743 -0.468188,0.1286743 -0.308508,0 -0.505396,-0.1565796 0,0.05271 -0.0062,0.068213 -0.0062,0.015503 -0.02325,0.026355 -0.0155,0.010852 -0.03566,0.010852 -0.02791,0 -0.04651,-0.020154 -0.0186,-0.020154 -0.0186,-0.066663 V 9.5804668 q 0,-0.046509 0.01705,-0.066662 0.0186,-0.020154 0.04806,-0.020154 0.02791,0 0.04651,0.020154 0.02015,0.018603 0.02015,0.05116 0,0.071314 0.03566,0.1193726 0.05426,0.074414 0.172083,0.1240234 0.119372,0.048059 0.291455,0.048059 0.254248,0 0.378271,-0.094568 0.124024,-0.094568 0.124024,-0.1999878 0,-0.1209228 -0.125574,-0.1937866 -0.127124,-0.072864 -0.37052,-0.097668 -0.241846,-0.024805 -0.347266,-0.065112 -0.105419,-0.040308 -0.164331,-0.1209229 -0.05891,-0.080615 -0.05891,-0.1736328 0,-0.1674316 0.164331,-0.2651001 0.164331,-0.099219 0.392224,-0.099219 0.269751,0 0.438733,0.1317749 z"
         id="path1474" />
      <path
         d="m 25.142175,9.2952129 h -1.327051 q 0.03411,0.2526978 0.21084,0.4077271 0.178284,0.153479 0.440283,0.153479 0.145728,0 0.305408,-0.048059 0.15968,-0.048059 0.260449,-0.127124 0.02946,-0.023254 0.05116,-0.023254 0.02481,0 0.04341,0.020154 0.0186,0.018604 0.0186,0.044958 0,0.026355 -0.02481,0.05116 -0.07441,0.077515 -0.2651,0.1457275 -0.189136,0.066663 -0.389124,0.066663 -0.334863,0 -0.559655,-0.2185913 -0.223243,-0.2201416 -0.223243,-0.5317505 0,-0.2837036 0.20929,-0.486792 0.21084,-0.2030883 0.520898,-0.2030883 0.319361,0 0.52555,0.2092895 0.206189,0.2077393 0.203088,0.5395019 z M 25.0104,9.163438 Q 24.971643,8.9479473 24.805762,8.8130718 24.641431,8.6781964 24.413537,8.6781964 q -0.227893,0 -0.392224,0.1333251 -0.164331,0.1333252 -0.204638,0.3519165 z"
         id="path1476" />
      <path
         d="m 26.075452,8.5929302 h 0.706933 q 0.04651,0 0.06666,0.018604 0.02015,0.018603 0.02015,0.048059 0,0.027905 -0.02015,0.046509 -0.02015,0.018603 -0.06666,0.018603 H 26.075452 V 9.591319 q 0,0.1131714 0.08992,0.1891357 0.09147,0.075964 0.26665,0.075964 0.131775,0 0.285254,-0.038757 0.153479,-0.040308 0.238745,-0.089917 0.03101,-0.020154 0.05116,-0.020154 0.0248,0 0.04341,0.020154 0.0186,0.018603 0.0186,0.044958 0,0.023254 -0.02015,0.043408 -0.04961,0.05116 -0.241846,0.1116211 -0.190686,0.058911 -0.365869,0.058911 -0.227893,0 -0.362769,-0.1069702 -0.13488,-0.1069694 -0.13488,-0.2883537 V 8.7247051 h -0.240296 q -0.04651,0 -0.06666,-0.018603 -0.02015,-0.018604 -0.02015,-0.048059 0,-0.027905 0.02015,-0.046509 0.02015,-0.018604 0.06666,-0.018604 h 0.240296 V 8.2084576 q 0,-0.046509 0.0186,-0.066663 0.0186,-0.020154 0.04651,-0.020154 0.02946,0 0.04806,0.020154 0.0186,0.020154 0.0186,0.066663 z"
         id="path1478" />
    </g>
    <g
       aria-label="out"
       id="text1429"
       style="font-size:3.175px;font-family:'Courier New';-inkscape-font-specification:'Courier New';text-align:center;text-anchor:middle;stroke-width:0.264583"
       transform="translate(-0.17741935,10.645161)">
      <path
         d="m 28.983842,106.49312 q 0,0.29765 -0.213941,0.50849 -0.21239,0.21084 -0.513147,0.21084 -0.303857,0 -0.516247,-0.21084 -0.21239,-0.21239 -0.21239,-0.50849 0,-0.29766 0.21239,-0.5085 0.21239,-0.21239 0.516247,-0.21239 0.300757,0 0.513147,0.21084 0.213941,0.21084 0.213941,0.51005 z m -0.131775,0 q 0,-0.24495 -0.175183,-0.41703 -0.173633,-0.17208 -0.42168,-0.17208 -0.248047,0 -0.42323,0.17363 -0.173633,0.17208 -0.173633,0.41548 0,0.24184 0.173633,0.41548 0.175183,0.17363 0.42323,0.17363 0.248047,0 0.42168,-0.17208 0.175183,-0.17364 0.175183,-0.41703 z"
         id="path1481" />
      <path
         d="m 30.606998,107.16129 v -0.19068 q -0.26665,0.24184 -0.576709,0.24184 -0.190686,0 -0.289904,-0.10387 -0.128675,-0.13642 -0.128675,-0.31781 v -0.84026 h -0.175183 q -0.04651,0 -0.06666,-0.0186 -0.02015,-0.0186 -0.02015,-0.0481 0,-0.0279 0.02015,-0.0465 0.02015,-0.0186 0.06666,-0.0186 h 0.305408 v 0.97203 q 0,0.12713 0.08061,0.20929 0.08062,0.0822 0.201538,0.0822 0.31781,0 0.58291,-0.29146 v -0.84026 h -0.240295 q -0.04651,0 -0.06666,-0.0186 -0.02015,-0.0186 -0.02015,-0.0481 0,-0.0279 0.02015,-0.0465 0.02015,-0.0186 0.06666,-0.0186 h 0.37052 v 1.21233 h 0.110071 q 0.04651,0 0.06666,0.0186 0.02015,0.0171 0.02015,0.0465 0,0.0279 -0.02015,0.0465 -0.02015,0.0186 -0.06666,0.0186 z"
         id="path1483" />
      <path
         d="m 31.799174,105.81874 h 0.706933 q 0.04651,0 0.06666,0.0186 0.02015,0.0186 0.02015,0.0481 0,0.0279 -0.02015,0.0465 -0.02015,0.0186 -0.06666,0.0186 h -0.706933 v 0.86662 q 0,0.11317 0.08992,0.18913 0.09147,0.076 0.26665,0.076 0.131775,0 0.285254,-0.0388 0.153479,-0.0403 0.238745,-0.0899 0.03101,-0.0202 0.05116,-0.0202 0.0248,0 0.04341,0.0202 0.0186,0.0186 0.0186,0.045 0,0.0233 -0.02015,0.0434 -0.04961,0.0512 -0.241846,0.11162 -0.190686,0.0589 -0.365869,0.0589 -0.227893,0 -0.362769,-0.10697 -0.134875,-0.10697 -0.134875,-0.28835 v -0.86662 h -0.240296 q -0.04651,0 -0.06666,-0.0186 -0.02015,-0.0186 -0.02015,-0.0481 0,-0.0279 0.02015,-0.0465 0.02015,-0.0186 0.06666,-0.0186 h 0.240296 v -0.38447 q 0,-0.0465 0.0186,-0.0667 0.0186,-0.0202 0.04651,-0.0202 0.02946,0 0.04806,0.0202 0.0186,0.0202 0.0186,0.0667 z"
         id="path1485" />
    </g>
    <g
       aria-label="back"
       id="text1538"
       style="font-size:3.175px;font-family:'Courier New';-inkscape-font-specification:'Courier New';text-align:center;text-anchor:middle;stroke-width:0.264583">
      <path
         d="m 26.280399,20.231802 v 0.863513 q 0.235645,-0.306958 0.568958,-0.306958 0.285254,0 0.488342,0.207739 0.203089,0.206189 0.203089,0.506946 0,0.303858 -0.206189,0.514697 -0.204639,0.21084 -0.485242,0.21084 -0.341065,0 -0.568958,-0.306958 v 0.255799 h -0.305407 q -0.04651,0 -0.06666,-0.0186 -0.02015,-0.0186 -0.02015,-0.04651 0,-0.02946 0.02015,-0.04651 0.02015,-0.0186 0.06666,-0.0186 h 0.175183 v -1.683618 h -0.175183 q -0.04651,0 -0.06666,-0.0186 -0.02015,-0.0186 -0.02015,-0.04806 0,-0.02791 0.02015,-0.04651 0.02015,-0.0186 0.06666,-0.0186 z m 1.130164,1.277441 q 0,-0.246496 -0.168982,-0.417028 -0.168982,-0.172083 -0.395325,-0.172083 -0.226342,0 -0.395324,0.172083 -0.168982,0.170532 -0.168982,0.417028 0,0.246497 0.168982,0.418579 0.168982,0.170533 0.395324,0.170533 0.226343,0 0.395325,-0.170533 0.168982,-0.172082 0.168982,-0.418579 z"
         id="path1544" />
      <path
         d="m 29.050773,22.17742 v -0.187586 q -0.283704,0.238745 -0.606165,0.238745 -0.234094,0 -0.365869,-0.117822 -0.131775,-0.119372 -0.131775,-0.291455 0,-0.189136 0.173633,-0.330212 0.173633,-0.141077 0.506946,-0.141077 0.08992,0 0.195337,0.0124 0.10542,0.01085 0.227893,0.03566 v -0.21084 q 0,-0.10697 -0.09922,-0.186035 -0.09922,-0.07906 -0.297656,-0.07906 -0.151929,0 -0.426331,0.08837 -0.04961,0.0155 -0.06356,0.0155 -0.0248,0 -0.04341,-0.0186 -0.01705,-0.0186 -0.01705,-0.04651 0,-0.02635 0.0155,-0.04186 0.0217,-0.02325 0.175183,-0.06356 0.241846,-0.06511 0.365869,-0.06511 0.246497,0 0.384473,0.122473 0.137976,0.120923 0.137976,0.274402 v 0.861963 h 0.173633 q 0.04806,0 0.06821,0.0186 0.02015,0.01705 0.02015,0.04651 0,0.02791 -0.02015,0.04651 -0.02015,0.0186 -0.06821,0.0186 z m 0,-0.648023 q -0.09147,-0.02635 -0.193787,-0.03876 -0.102319,-0.0124 -0.21549,-0.0124 -0.283704,0 -0.443384,0.122473 -0.120923,0.09147 -0.120923,0.218591 0,0.117822 0.09147,0.198437 0.09302,0.08062 0.269751,0.08062 0.168982,0 0.313159,-0.06666 0.145728,-0.06821 0.299207,-0.215491 z"
         id="path1546" />
      <path
         d="m 31.125065,20.966641 v -0.04341 q 0,-0.04806 0.0186,-0.06821 0.0186,-0.02015 0.04651,-0.02015 0.02946,0 0.04806,0.02015 0.0186,0.02015 0.0186,0.06821 v 0.294555 q -0.0016,0.04806 -0.02015,0.06821 -0.01705,0.02015 -0.04651,0.02015 -0.02635,0 -0.04496,-0.01705 -0.01705,-0.0186 -0.02015,-0.06046 -0.0093,-0.11007 -0.145728,-0.209289 -0.134875,-0.09922 -0.364319,-0.09922 -0.289904,0 -0.440283,0.181384 -0.150378,0.181385 -0.150378,0.415479 0,0.252698 0.165881,0.417029 0.165882,0.164331 0.429431,0.164331 0.151929,0 0.308509,-0.05581 0.15813,-0.05581 0.285254,-0.179834 0.03256,-0.03101 0.05736,-0.03101 0.02635,0 0.04341,0.0186 0.0186,0.01705 0.0186,0.04341 0,0.06666 -0.156579,0.168982 -0.252698,0.165881 -0.562757,0.165881 -0.314709,0 -0.517798,-0.199987 -0.201538,-0.201539 -0.201538,-0.510047 0,-0.314709 0.206189,-0.522449 0.207739,-0.207739 0.522449,-0.207739 0.299206,0 0.502295,0.178284 z"
         id="path1548" />
      <path
         d="m 32.222672,21.59761 v 0.57981 h -0.305408 q -0.04651,0 -0.06666,-0.0186 -0.02015,-0.0186 -0.02015,-0.04651 0,-0.02946 0.02015,-0.04651 0.02015,-0.0186 0.06666,-0.0186 h 0.175184 v -1.683618 h -0.175184 q -0.04651,0 -0.06666,-0.0186 -0.02015,-0.0186 -0.02015,-0.04806 0,-0.02791 0.02015,-0.04651 0.02015,-0.0186 0.06666,-0.0186 h 0.305408 v 1.199927 l 0.553455,-0.465088 h -0.06666 q -0.04651,0 -0.06666,-0.0186 -0.02015,-0.0186 -0.02015,-0.04651 0,-0.02946 0.02015,-0.04806 0.02015,-0.0186 0.06666,-0.0186 h 0.417029 q 0.04806,0 0.06821,0.0186 0.02015,0.0186 0.02015,0.04806 0,0.02791 -0.02015,0.04651 -0.02015,0.0186 -0.06821,0.0186 h -0.150379 l -0.508496,0.42478 0.643372,0.655774 h 0.150378 q 0.04806,0 0.06821,0.0186 0.02015,0.01705 0.02015,0.04651 0,0.02791 -0.02015,0.04651 -0.02015,0.0186 -0.06821,0.0186 h -0.421679 q -0.04651,0 -0.06666,-0.0186 -0.02015,-0.0186 -0.02015,-0.04651 0,-0.02946 0.02015,-0.04651 0.02015,-0.0186 0.06666,-0.0186 h 0.09147 L 32.3715,21.472036 Z"
         id="path1550" />
    </g>
    <g
       aria-label="forward"
       id="text1542"
       style="font-size:3.175px;font-family:'Courier New';-inkscape-font-specification:'Courier New';text-align:center;text-anchor:middle;stroke-width:0.264583">
      <path
         d="m 10.343189,20.966639 v 1.080554 h 0.572058 q 0.04651,0 0.06666,0.0186 0.02015,0.01705 0.02015,0.04651 0,0.02791 -0.02015,0.04651 -0.02015,0.0186 -0.06666,0.0186 H 9.896705 q -0.046509,0 -0.066663,-0.0186 -0.020154,-0.0186 -0.020154,-0.04651 0,-0.02945 0.020154,-0.04651 0.020154,-0.0186 0.066663,-0.0186 h 0.314709 V 20.966639 H 9.9292611 q -0.046509,0 -0.066663,-0.0186 -0.020154,-0.0186 -0.020154,-0.04806 0,-0.02791 0.020154,-0.04651 0.020154,-0.0186 0.066663,-0.0186 h 0.2821529 v -0.196887 q 0,-0.164331 0.133326,-0.285254 0.133325,-0.120923 0.353466,-0.120923 0.184485,0 0.393775,0.03411 0.07906,0.0124 0.09457,0.02946 0.01705,0.01705 0.01705,0.04496 0,0.02791 -0.0186,0.04651 -0.0186,0.01705 -0.04961,0.01705 -0.0124,0 -0.04186,-0.0047 -0.234094,-0.03566 -0.395325,-0.03566 -0.170532,0 -0.263549,0.08372 -0.09147,0.08372 -0.09147,0.190686 v 0.196887 h 0.609265 q 0.04651,0 0.06666,0.0186 0.02015,0.0186 0.02015,0.04806 0,0.0279 -0.02015,0.04651 -0.02015,0.0186 -0.06666,0.0186 z"
         id="path1553" />
      <path
         d="m 13.062403,21.509241 q 0,0.297657 -0.21394,0.508497 -0.21239,0.210839 -0.513147,0.210839 -0.303858,0 -0.516248,-0.210839 -0.21239,-0.212391 -0.21239,-0.508497 0,-0.297656 0.21239,-0.508496 0.21239,-0.21239 0.516248,-0.21239 0.300757,0 0.513147,0.21084 0.21394,0.21084 0.21394,0.510046 z m -0.131775,0 q 0,-0.244946 -0.175183,-0.417028 -0.173633,-0.172083 -0.42168,-0.172083 -0.248046,0 -0.42323,0.173633 -0.173632,0.172083 -0.173632,0.415478 0,0.241846 0.173632,0.415479 0.175184,0.173633 0.42323,0.173633 0.248047,0 0.42168,-0.172083 0.175183,-0.173633 0.175183,-0.417029 z"
         id="path1555" />
      <path
         d="m 14.084046,20.834864 v 0.328662 q 0.254248,-0.229443 0.379822,-0.294555 0.127124,-0.06666 0.234094,-0.06666 0.116272,0 0.215491,0.07906 0.100769,0.07751 0.100769,0.117822 0,0.02946 -0.02015,0.04961 -0.0186,0.0186 -0.04806,0.0186 -0.0155,0 -0.02636,-0.0047 -0.01085,-0.0062 -0.04031,-0.03566 -0.05426,-0.05426 -0.09457,-0.07441 -0.04031,-0.02015 -0.07906,-0.02015 -0.08527,0 -0.206189,0.06821 -0.119373,0.06821 -0.415479,0.333313 v 0.713135 h 0.576709 q 0.04806,0 0.06821,0.0186 0.02015,0.01705 0.02015,0.04651 0,0.02791 -0.02015,0.04651 -0.02015,0.0186 -0.06821,0.0186 h -1.021643 q -0.04651,0 -0.06666,-0.01705 -0.02015,-0.0186 -0.02015,-0.04651 0,-0.02635 0.0186,-0.04341 0.02015,-0.0186 0.06821,-0.0186 h 0.31471 v -1.085205 h -0.240296 q -0.04651,0 -0.06666,-0.0186 -0.02015,-0.0186 -0.02015,-0.04806 0,-0.02791 0.0186,-0.04651 0.02015,-0.0186 0.06821,-0.0186 z"
         id="path1557" />
      <path
         d="m 16.59397,22.177418 -0.16123,0.0016 -0.286804,-0.837158 -0.285254,0.837158 -0.161231,-0.0016 -0.269751,-1.210779 h -0.06356 q -0.04651,0 -0.06666,-0.0186 -0.02015,-0.0186 -0.02015,-0.04806 0,-0.02791 0.02015,-0.04651 0.02015,-0.0186 0.06666,-0.0186 h 0.358118 q 0.04651,0 0.06666,0.0186 0.02015,0.0186 0.02015,0.04806 0,0.0279 -0.02015,0.04651 -0.02015,0.0186 -0.06666,0.0186 h -0.165881 l 0.230993,1.032495 0.277503,-0.824756 H 16.2219 l 0.285254,0.824756 0.221692,-1.032495 h -0.164331 q -0.04651,0 -0.06821,-0.0186 -0.02015,-0.0186 -0.02015,-0.04806 0,-0.02791 0.02015,-0.04651 0.02015,-0.0186 0.06821,-0.0186 h 0.356567 q 0.04806,0 0.06821,0.0186 0.02015,0.0186 0.02015,0.04806 0,0.0279 -0.02015,0.04651 -0.02015,0.0186 -0.06821,0.0186 h -0.06201 z"
         id="path1559" />
      <path
         d="m 18.424866,22.177418 v -0.187586 q -0.283703,0.238745 -0.606164,0.238745 -0.234094,0 -0.365869,-0.117822 -0.131775,-0.119372 -0.131775,-0.291455 0,-0.189136 0.173633,-0.330212 0.173633,-0.141077 0.506945,-0.141077 0.08992,0 0.195337,0.0124 0.10542,0.01085 0.227893,0.03566 v -0.21084 q 0,-0.10697 -0.09922,-0.186035 -0.09922,-0.07906 -0.297657,-0.07906 -0.151928,0 -0.42633,0.08837 -0.04961,0.0155 -0.06356,0.0155 -0.02481,0 -0.04341,-0.0186 -0.01705,-0.0186 -0.01705,-0.04651 0,-0.02635 0.0155,-0.04186 0.02171,-0.02325 0.175184,-0.06356 0.241845,-0.06511 0.365869,-0.06511 0.246496,0 0.384472,0.122473 0.137976,0.120923 0.137976,0.274402 v 0.861963 h 0.173633 q 0.04806,0 0.06821,0.0186 0.02015,0.01705 0.02015,0.04651 0,0.02791 -0.02015,0.04651 -0.02015,0.0186 -0.06821,0.0186 z m 0,-0.648023 q -0.09147,-0.02636 -0.193786,-0.03876 -0.102319,-0.0124 -0.215491,-0.0124 -0.283703,0 -0.443384,0.122473 -0.120922,0.09147 -0.120922,0.218591 0,0.117822 0.09147,0.198438 0.09302,0.08061 0.269751,0.08061 0.168982,0 0.313159,-0.06666 0.145727,-0.06821 0.299206,-0.215491 z"
         id="path1561" />
      <path
         d="m 19.799976,20.834864 v 0.328662 q 0.254248,-0.229443 0.379822,-0.294555 0.127124,-0.06666 0.234094,-0.06666 0.116272,0 0.215491,0.07906 0.100769,0.07751 0.100769,0.117822 0,0.02946 -0.02015,0.04961 -0.0186,0.0186 -0.04806,0.0186 -0.0155,0 -0.02635,-0.0047 -0.01085,-0.0062 -0.04031,-0.03566 -0.05426,-0.05426 -0.09457,-0.07441 -0.04031,-0.02015 -0.07906,-0.02015 -0.08527,0 -0.206189,0.06821 -0.119373,0.06821 -0.415479,0.333313 v 0.713135 h 0.576709 q 0.04806,0 0.06821,0.0186 0.02015,0.01705 0.02015,0.04651 0,0.02791 -0.02015,0.04651 -0.02015,0.0186 -0.06821,0.0186 h -1.021643 q -0.04651,0 -0.06666,-0.01705 -0.02015,-0.0186 -0.02015,-0.04651 0,-0.02635 0.0186,-0.04341 0.02015,-0.0186 0.06821,-0.0186 h 0.31471 v -1.085205 h -0.240296 q -0.04651,0 -0.06666,-0.0186 -0.02015,-0.0186 -0.02015,-0.04806 0,-0.02791 0.0186,-0.04651 0.02015,-0.0186 0.06821,-0.0186 z"
         id="path1563" />
      <path
         d="m 22.499036,20.2318 v 1.815393 h 0.173633 q 0.04806,0 0.06821,0.0186 0.02015,0.01705 0.02015,0.04651 0,0.02791 -0.02015,0.04651 -0.02015,0.0186 -0.06821,0.0186 h -0.305408 v -0.258899 q -0.226343,0.310058 -0.575158,0.310058 -0.176734,0 -0.339515,-0.09302 -0.16123,-0.09457 -0.255798,-0.268201 -0.09302,-0.173633 -0.09302,-0.358118 0,-0.186035 0.09302,-0.358117 0.09457,-0.173633 0.255798,-0.268201 0.162781,-0.09457 0.341065,-0.09457 0.341064,0 0.573608,0.310059 v -0.734839 h -0.173633 q -0.04806,0 -0.06821,-0.0186 -0.02015,-0.0186 -0.02015,-0.04806 0,-0.02791 0.02015,-0.04651 0.02015,-0.0186 0.06821,-0.0186 z m -0.131775,1.277441 q 0,-0.248046 -0.167431,-0.418579 -0.167432,-0.170532 -0.398426,-0.170532 -0.232544,0 -0.399975,0.170532 -0.167432,0.170533 -0.167432,0.418579 0,0.246497 0.167432,0.41858 0.167431,0.170532 0.399975,0.170532 0.230994,0 0.398426,-0.170532 0.167431,-0.172083 0.167431,-0.41858 z"
         id="path1565" />
    </g>
  </g>
</svg>
