<?xml version="1.0" encoding="UTF-8" standalone="no"?>
<!-- Created with Inkscape (http://www.inkscape.org/) -->

<svg
   width="60.959999mm"
   height="128.5mm"
   viewBox="0 0 60.959999 128.5"
   version="1.1"
   id="svg5"
   inkscape:version="1.2.1 (9c6d41e410, 2022-07-14)"
   sodipodi:docname="Cell.svg"
   xml:space="preserve"
   xmlns:inkscape="http://www.inkscape.org/namespaces/inkscape"
   xmlns:sodipodi="http://sodipodi.sourceforge.net/DTD/sodipodi-0.dtd"
   xmlns="http://www.w3.org/2000/svg"
   xmlns:svg="http://www.w3.org/2000/svg"><sodipodi:namedview
     id="namedview7"
     pagecolor="#ffffff"
     bordercolor="#000000"
     borderopacity="0.25"
     inkscape:showpageshadow="2"
     inkscape:pageopacity="0.0"
     inkscape:pagecheckerboard="0"
     inkscape:deskcolor="#d1d1d1"
     inkscape:document-units="mm"
     showgrid="false"
     inkscape:zoom="1.4912879"
     inkscape:cx="-187.42189"
     inkscape:cy="272.2479"
     inkscape:window-width="1920"
     inkscape:window-height="1017"
     inkscape:window-x="-8"
     inkscape:window-y="-8"
     inkscape:window-maximized="1"
     inkscape:current-layer="layer2"
     showguides="true" /><defs
     id="defs2"><rect
       x="-109.3015"
       y="378.86716"
       width="69.067818"
       height="79.796799"
       id="rect1725" /><rect
       x="-41.574802"
       y="16.764032"
       width="58.338837"
       height="370.14987"
       id="rect1719" /><rect
       x="188.42773"
       y="-18.775717"
       width="100.5842"
       height="200.49783"
       id="rect1493" /><rect
       x="-71.079498"
       y="25.481331"
       width="65.715012"
       height="87.172974"
       id="rect1487" /><rect
       x="30.175261"
       y="16.764032"
       width="4.6939292"
       height="17.434595"
       id="rect1148" /><clipPath
       clipPathUnits="userSpaceOnUse"
       id="clipPath1018"><rect
         style="display:inline;fill:#f9f9f9;fill-opacity:0;stroke-width:0.264583"
         id="rect1020"
         width="20.32"
         height="128.5"
         x="0"
         y="0" /></clipPath><clipPath
       clipPathUnits="userSpaceOnUse"
       id="clipPath1086"><rect
         style="fill:#f9f9f9;fill-opacity:0;stroke-width:0.264583"
         id="rect1088"
         width="20.32"
         height="128.5"
         x="0"
         y="-2.7755579e-17" /></clipPath><rect
       x="30.175261"
       y="16.764032"
       width="4.6939292"
       height="17.434595"
       id="rect1148-39" /><rect
       x="30.175261"
       y="16.764032"
       width="4.6939292"
       height="17.434595"
       id="rect1148-3" /><clipPath
       clipPathUnits="userSpaceOnUse"
       id="clipPath1018-9"><rect
         style="display:inline;fill:#f9f9f9;fill-opacity:0;stroke-width:0.264583"
         id="rect1020-3"
         width="20.32"
         height="128.5"
         x="0"
         y="0" /></clipPath><clipPath
       clipPathUnits="userSpaceOnUse"
       id="clipPath1086-2"><rect
         style="fill:#f9f9f9;fill-opacity:0;stroke-width:0.264583"
         id="rect1088-84"
         width="20.32"
         height="128.5"
         x="0"
         y="-2.7755579e-17" /></clipPath><rect
       x="30.175261"
       y="16.764032"
       width="4.6939292"
       height="17.434595"
       id="rect1148-4" /><clipPath
       clipPathUnits="userSpaceOnUse"
       id="clipPath1018-7"><rect
         style="display:inline;fill:#f9f9f9;fill-opacity:0;stroke-width:0.264583"
         id="rect1020-1"
         width="20.32"
         height="128.5"
         x="0"
         y="0" /></clipPath><clipPath
       clipPathUnits="userSpaceOnUse"
       id="clipPath1086-6"><rect
         style="fill:#f9f9f9;fill-opacity:0;stroke-width:0.264583"
         id="rect1088-3"
         width="20.32"
         height="128.5"
         x="0"
         y="-2.7755579e-17" /></clipPath><rect
       x="30.175261"
       y="16.764032"
       width="4.6939292"
       height="17.434595"
       id="rect1148-2" /><clipPath
       clipPathUnits="userSpaceOnUse"
       id="clipPath1018-8"><rect
         style="display:inline;fill:#f9f9f9;fill-opacity:0;stroke-width:0.264583"
         id="rect1020-0"
         width="20.32"
         height="128.5"
         x="0"
         y="0" /></clipPath><clipPath
       clipPathUnits="userSpaceOnUse"
       id="clipPath1086-7"><rect
         style="fill:#f9f9f9;fill-opacity:0;stroke-width:0.264583"
         id="rect1088-8"
         width="20.32"
         height="128.5"
         x="0"
         y="-2.7755579e-17" /></clipPath><rect
       x="30.175261"
       y="16.764032"
       width="4.6939292"
       height="17.434595"
       id="rect1148-30" /><rect
       x="30.175261"
       y="16.764032"
       width="4.6939292"
       height="17.434595"
       id="rect1148-3-5" /><clipPath
       clipPathUnits="userSpaceOnUse"
       id="clipPath1018-0"><rect
         style="display:inline;fill:#f9f9f9;fill-opacity:0;stroke-width:0.264583"
         id="rect1020-2"
         width="20.32"
         height="128.5"
         x="0"
         y="0" /></clipPath><clipPath
       clipPathUnits="userSpaceOnUse"
       id="clipPath1086-1"><rect
         style="fill:#f9f9f9;fill-opacity:0;stroke-width:0.264583"
         id="rect1088-39"
         width="20.32"
         height="128.5"
         x="0"
         y="-2.7755579e-17" /></clipPath><rect
       x="30.175261"
       y="16.764032"
       width="4.6939292"
       height="17.434595"
       id="rect1148-4-2" /><clipPath
       clipPathUnits="userSpaceOnUse"
       id="clipPath1018-7-6"><rect
         style="display:inline;fill:#f9f9f9;fill-opacity:0;stroke-width:0.264583"
         id="rect1020-1-8"
         width="20.32"
         height="128.5"
         x="0"
         y="0" /></clipPath><clipPath
       clipPathUnits="userSpaceOnUse"
       id="clipPath1086-6-7"><rect
         style="fill:#f9f9f9;fill-opacity:0;stroke-width:0.264583"
         id="rect1088-3-7"
         width="20.32"
         height="128.5"
         x="0"
         y="-2.7755579e-17" /></clipPath><rect
       x="30.175261"
       y="16.764032"
       width="4.6939292"
       height="17.434595"
       id="rect1148-2-5" /><clipPath
       clipPathUnits="userSpaceOnUse"
       id="clipPath1018-8-4"><rect
         style="display:inline;fill:#f9f9f9;fill-opacity:0;stroke-width:0.264583"
         id="rect1020-0-8"
         width="20.32"
         height="128.5"
         x="0"
         y="0" /></clipPath><clipPath
       clipPathUnits="userSpaceOnUse"
       id="clipPath1086-7-3"><rect
         style="fill:#f9f9f9;fill-opacity:0;stroke-width:0.264583"
         id="rect1088-8-8"
         width="20.32"
         height="128.5"
         x="0"
         y="-2.7755579e-17" /></clipPath></defs><g
     inkscape:groupmode="layer"
     id="layer3"
     inkscape:label="Background"
     style="display:inline"><rect
       style="display:inline;fill:#847b89;fill-opacity:1;stroke:#220826;stroke-width:0.609047;stroke-linecap:square;stroke-dasharray:none;stroke-opacity:1"
       id="rect922"
       width="60.350952"
       height="128.39095"
       x="0.3045235"
       y="0.3045235" /></g><g
     inkscape:label="Decals"
     inkscape:groupmode="layer"
     id="layer1"><path
       d="m 57.499863,128.04905 0.27044,-0.26872 q -0.334174,-0.38585 -0.334174,-0.88711 0,-0.55466 0.391019,-0.94568 0.392741,-0.39274 0.947401,-0.39274 0.492649,0 0.885391,0.33417 l 0.27044,-0.26872 0.118856,0.11886 -0.268718,0.27044 q 0.334174,0.38585 0.334174,0.88539 0,0.55466 -0.392741,0.9474 -0.392741,0.39102 -0.945679,0.39102 -0.501262,0 -0.88539,-0.33245 l -0.27044,0.26872 z m 0.391019,-0.3893 1.648479,-1.6502 q -0.341065,-0.28422 -0.763089,-0.28422 -0.485759,0 -0.828546,0.34279 -0.341065,0.34106 -0.341065,0.8251 0,0.43408 0.284221,0.76653 z m 0.118856,0.11886 q 0.330729,0.28422 0.766534,0.28422 0.484036,0 0.825101,-0.34107 0.342787,-0.34278 0.342787,-0.82682 0,-0.42891 -0.28422,-0.76481 z"
       id="path4146"
       style="font-size:3.52778px;font-family:'Futura PT';-inkscape-font-specification:'Futura PT';text-align:center;text-anchor:middle;display:inline;fill:#f7dfff;stroke-width:0;stroke-linecap:square" /><g
       aria-label="Cell"
       id="text440"
       style="font-size:4.23333px;font-family:'Futura PT';-inkscape-font-specification:'Futura PT';text-align:center;text-anchor:middle;stroke-width:0.499999;stroke-linecap:square"><path
         d="M 28.353821,1.4952994 C 28.015155,1.2370663 27.689189,1.2158997 27.519855,1.2158997 c -0.846666,0 -1.477432,0.6265328 -1.477432,1.4689654 0,0.8170326 0.6223,1.4520321 1.460499,1.4520321 0.211666,0 0.537633,-0.0508 0.850899,-0.2751664 V 3.4722644 c -0.0508,0.0508 -0.1651,0.1566332 -0.325966,0.2370665 -0.148167,0.0762 -0.334433,0.1312332 -0.524933,0.1312332 -0.516466,0 -1.138766,-0.385233 -1.138766,-1.1514657 0,-0.6519328 0.4826,-1.1768657 1.134533,-1.1768657 0.1651,0 0.338666,0.042333 0.486833,0.1100666 0.143933,0.067733 0.279399,0.1735665 0.368299,0.2624665 z"
         style="stroke-width:0.5"
         id="path2054" /><path
         d="m 30.157219,3.4976644 c -0.0381,0.084667 -0.101599,0.1735665 -0.182033,0.2412998 -0.1016,0.084667 -0.2159,0.1269999 -0.359833,0.1269999 -0.304799,0 -0.554566,-0.2328331 -0.558799,-0.5968995 h 1.367365 c 0.0085,-0.2328331 -0.05503,-0.5037662 -0.1651,-0.6603995 -0.105833,-0.1523998 -0.321733,-0.321733 -0.664632,-0.321733 -0.529167,0 -0.8509,0.4063996 -0.8509,0.9313325 0,0.6519328 0.4445,0.9186326 0.867833,0.9186326 0.224366,0 0.423333,-0.071967 0.584199,-0.2158998 0.0889,-0.080433 0.1651,-0.1862665 0.2159,-0.2836331 z M 29.07772,3.0150648 c 0.04657,-0.2624664 0.258233,-0.4571996 0.516467,-0.4571996 0.258233,0 0.465666,0.1820332 0.516466,0.4571996 z"
         style="stroke-width:0.5"
         id="path2056" /><path
         d="M 30.889589,0.99999984 V 4.0860972 h 0.3048 V 0.99999984 Z"
         style="stroke-width:0.5"
         id="path2058" /><path
         d="M 31.770122,0.99999984 V 4.0860972 h 0.3048 V 0.99999984 Z"
         style="stroke-width:0.5"
         id="path2060" /></g><g
       transform="scale(0.26458333)"
       id="text1485"
       style="font-size:13.3333px;font-family:'Futura PT';-inkscape-font-specification:'Futura PT';text-align:center;text-anchor:middle;white-space:pre;shape-inside:url(#rect1487);fill:#e8d0f0;stroke-width:1.88976;stroke-linecap:square" /><g
       transform="scale(0.26458333)"
       id="text1717"
       style="font-size:13.3333px;font-family:'Futura PT';-inkscape-font-specification:'Futura PT';text-align:center;text-anchor:middle;white-space:pre;shape-inside:url(#rect1719);fill:#e8d0f0;stroke-width:1.88976;stroke-linecap:square" /><g
       transform="scale(0.26458333)"
       id="text1723"
       style="font-size:13.3333px;font-family:'Futura PT';-inkscape-font-specification:'Futura PT';text-align:center;text-anchor:middle;white-space:pre;shape-inside:url(#rect1725);fill:#e8d0f0;stroke-width:1.88976;stroke-linecap:square" /><path
       id="rect8877-3-9-0"
       style="display:inline;fill:#220826;stroke:#f7dfff;stroke-width:0.0999992;stroke-linecap:square"
       d="m 47.17318,110.90517 h 11.500001 v 11.49982 H 47.17318 Z" /><path
       id="rect3722-6-4"
       style="fill:#efd4f9;stroke:#e7b1ff;stroke-width:0.123844;stroke-linecap:square"
       d="m 47.186455,106.47793 h 11.476154 v 4.37609 H 47.186455 Z" /><g
       aria-label="Out"
       id="text444-3-2"
       style="font-weight:500;font-size:3.52778px;font-family:'Futura PT';-inkscape-font-specification:'Futura PT Medium';text-align:center;text-anchor:middle;fill:#7d46a7;stroke-width:0.499999;stroke-linecap:square"><path
         d="m 51.485983,107.30211 c -0.740834,0 -1.25589,0.51505 -1.25589,1.23119 0,0.71614 0.515056,1.22767 1.25589,1.22767 0.740834,0 1.25589,-0.51153 1.25589,-1.22767 0,-0.71614 -0.515056,-1.23119 -1.25589,-1.23119 z m 0,2.04258 c -0.458611,0 -0.783167,-0.33514 -0.783167,-0.81139 0,-0.47625 0.324556,-0.81491 0.783167,-0.81491 0.458612,0 0.783167,0.33866 0.783167,0.81491 0,0.47625 -0.324555,0.81139 -0.783167,0.81139 z"
         style="stroke-width:0.5"
         id="path2068" /><path
         d="m 53.101704,108.18052 v 0.93487 c 0,0.13758 0.01764,0.32102 0.186972,0.46919 0.141111,0.12347 0.366889,0.17286 0.553861,0.17286 0.186973,0 0.412751,-0.0494 0.553862,-0.17286 0.169333,-0.14817 0.186972,-0.33161 0.186972,-0.46919 v -0.93487 h -0.430389 v 0.86431 c 0,0.0811 -0.0071,0.1905 -0.09172,0.26811 -0.05292,0.0459 -0.137584,0.0776 -0.218723,0.0776 -0.08114,0 -0.165805,-0.0318 -0.218722,-0.0776 -0.08467,-0.0776 -0.09172,-0.18697 -0.09172,-0.26811 v -0.86431 z"
         style="stroke-width:0.5"
         id="path2070" /><path
         d="m 55.719314,108.54741 v -0.36689 h -0.296333 v -0.52211 h -0.43039 v 0.52211 h -0.169333 v 0.36689 h 0.169333 v 1.16064 h 0.43039 v -1.16064 z"
         style="stroke-width:0.5"
         id="path2072" /></g><path
       id="rect8877-3-9-68-7-5"
       style="display:inline;fill:#d2d2d2;stroke:#594c62;stroke-width:0.0999992;stroke-linecap:square"
       d="M 1.8790317,12.645218 H 13.379033 V 24.145046 H 1.8790317 Z" /><path
       id="rect3722-6-50-7-7"
       style="fill:#594c62;stroke-width:0.123844;stroke-linecap:square"
       d="M 1.8923068,8.2179794 H 13.368461 V 12.594068 H 1.8923068 Z" /><g
       aria-label="Clock"
       id="text444-3-3"
       style="font-weight:500;font-size:3.52778px;font-family:'Futura PT';-inkscape-font-specification:'Futura PT Medium';text-align:center;text-anchor:middle;fill:#e8d0f0;stroke-width:0.499999;stroke-linecap:square"><path
         d="m 5.2638707,10.668387 c -0.1375834,0.162278 -0.3316113,0.257528 -0.5503337,0.257528 -0.3951114,0 -0.7972783,-0.282223 -0.7972783,-0.804334 0,-0.433917 0.3069169,-0.8219728 0.7796394,-0.8219728 0.084667,0 0.352778,0.017639 0.5679726,0.2645835 V 9.0279691 C 5.0486761,8.9115524 4.8511204,8.8833301 4.6853148,8.8833301 c -0.3351392,0 -0.6279449,0.088195 -0.8643062,0.3104447 -0.2010834,0.1869723 -0.3774724,0.4938892 -0.3774724,0.9207502 0,0.345723 0.1058334,0.638529 0.3774724,0.899584 0.1975557,0.186973 0.4480281,0.328084 0.8607784,0.328084 0.2540001,0 0.4409725,-0.0635 0.5820837,-0.137584 z"
         style="stroke-width:0.5"
         id="path2077" /><path
         d="M 5.6237046,8.7175245 V 11.289276 H 6.0540938 V 8.7175245 Z"
         style="stroke-width:0.5"
         id="path2079" /><path
         d="m 7.2605975,9.7123584 c -0.2892779,0 -0.4868336,0.09525 -0.6173615,0.2151946 -0.1516945,0.137583 -0.2575279,0.34925 -0.2575279,0.599723 0,0.246944 0.1058334,0.458611 0.2575279,0.596194 0.1305279,0.119945 0.3280836,0.215195 0.6173615,0.215195 0.289278,0 0.4868337,-0.09525 0.6173615,-0.215195 0.1516946,-0.137583 0.257528,-0.34925 0.257528,-0.596194 0,-0.250473 -0.1058334,-0.46214 -0.257528,-0.599723 C 7.7474312,9.8076085 7.5498755,9.7123584 7.2605975,9.7123584 Z m 0,1.2453066 c -0.2504724,0 -0.4303891,-0.197556 -0.4303891,-0.430389 0,-0.239889 0.1834445,-0.433917 0.4303891,-0.433917 0.2469446,0 0.4303892,0.194028 0.4303892,0.433917 0,0.232833 -0.1799168,0.430389 -0.4303892,0.430389 z"
         style="stroke-width:0.5"
         id="path2081" /><path
         d="M 9.6171573,9.8040807 C 9.493685,9.7441085 9.3631572,9.7123584 9.2044071,9.7123584 c -0.1481668,0 -0.3633614,0.03175 -0.5503337,0.1975557 -0.1552224,0.1375839 -0.2645835,0.3527779 -0.2645835,0.6208889 0,0.285751 0.127,0.476251 0.2434168,0.585612 0.1375834,0.130528 0.3492502,0.22225 0.5891393,0.22225 0.176389,0 0.3104446,-0.05292 0.3951113,-0.09525 v -0.419806 c -0.1164167,0.105834 -0.2434168,0.134056 -0.3386669,0.134056 -0.2575279,0 -0.4445003,-0.183445 -0.4445003,-0.433917 0,-0.22225 0.144639,-0.430389 0.4303892,-0.430389 0.1481668,0 0.2610557,0.04939 0.352778,0.134055 z"
         style="stroke-width:0.5"
         id="path2083" /><path
         d="M 9.9417109,8.7175245 V 11.289276 H 10.3721 V 10.67897 l 0.04586,-0.04233 0.567973,0.652639 h 0.5715 L 10.78485,10.432026 11.50099,9.7617474 H 10.9436 L 10.3721,10.319137 V 8.7175245 Z"
         style="stroke-width:0.5"
         id="path2085" /></g><path
       id="rect8877-3-9"
       style="display:inline;fill:#d2d2d2;stroke:#594c62;stroke-width:0.141347;stroke-linecap:square"
       d="M 47.19453,12.659325 H 58.653184 V 35.717978 H 47.19453 Z" /><path
       id="rect3722-6"
       style="fill:#594c62;stroke-width:0.123846;stroke-linecap:square"
       d="M 47.187134,8.2113457 H 58.663287 V 12.5875 H 47.187134 Z" /><g
       aria-label="Trnsps"
       id="text444"
       style="font-weight:500;font-size:3.52778px;font-family:'Futura PT';-inkscape-font-specification:'Futura PT Medium';text-align:center;text-anchor:middle;fill:#e8d0f0;stroke-width:0.499999;stroke-linecap:square"><path
         d="M 49.874824,9.5743391 V 9.1792278 h -1.516946 v 0.3951113 h 0.529167 v 1.9579179 h 0.458612 V 9.5743391 Z"
         style="stroke-width:0.5"
         id="path2090" /><path
         d="m 49.952433,11.532257 h 0.43039 v -0.733778 c 0,-0.105834 0.0035,-0.236361 0.08467,-0.338667 0.08467,-0.105833 0.204612,-0.123472 0.285751,-0.123472 0.08819,0 0.144638,0.01764 0.201083,0.05644 l 0.05644,-0.4021668 c -0.04939,-0.017639 -0.109361,-0.035278 -0.183444,-0.035278 -0.102306,0 -0.186972,0.024695 -0.254,0.067028 -0.03175,0.01764 -0.123473,0.08114 -0.1905,0.211667 v -0.229306 h -0.43039 z"
         style="stroke-width:0.5"
         id="path2092" /><path
         d="m 51.222437,11.532257 h 0.430389 v -0.779639 c 0,-0.0882 0.0035,-0.197556 0.06703,-0.296334 0.0635,-0.09525 0.151694,-0.134055 0.264583,-0.134055 0.04233,0 0.134056,0.0071 0.201083,0.07761 0.07761,0.08114 0.08114,0.215194 0.08114,0.299861 v 0.832556 h 0.43039 v -0.959556 c 0,-0.148167 -0.01411,-0.299861 -0.119945,-0.430389 -0.119944,-0.148167 -0.3175,-0.1869726 -0.451556,-0.1869726 -0.246944,0 -0.391583,0.1340556 -0.472722,0.2469446 v -0.197556 h -0.430389 z"
         style="stroke-width:0.5"
         id="path2094" /><path
         d="M 54.150495,10.117617 C 53.956467,9.9694505 53.776551,9.9553394 53.663662,9.9553394 c -0.123473,0 -0.278695,0.014111 -0.39864,0.1093616 -0.08819,0.07408 -0.15875,0.197555 -0.15875,0.345722 0,0.123472 0.04586,0.218722 0.116417,0.292806 0.09172,0.09525 0.218722,0.144639 0.328084,0.183444 l 0.09878,0.03528 c 0.05645,0.02117 0.134056,0.05997 0.134056,0.155222 0,0.105834 -0.09172,0.165806 -0.211667,0.165806 -0.127,0 -0.254,-0.07761 -0.338667,-0.176389 l -0.225778,0.261056 c 0.09525,0.102305 0.275167,0.254 0.592668,0.254 0.186972,0 0.335139,-0.04939 0.458611,-0.162278 0.123472,-0.112889 0.169333,-0.250472 0.169333,-0.388056 0,-0.09878 -0.03175,-0.1905 -0.07761,-0.254 -0.08819,-0.119944 -0.268111,-0.179917 -0.388056,-0.218722 l -0.102305,-0.03175 c -0.119945,-0.03881 -0.137584,-0.09878 -0.137584,-0.137584 0,-0.07408 0.0635,-0.123472 0.165806,-0.123472 0.04586,0 0.148167,0.0071 0.250472,0.102306 z"
         style="stroke-width:0.5"
         id="path2096" /><path
         d="m 54.961882,11.334701 c 0.169334,0.229306 0.384528,0.246945 0.490362,0.246945 0.225778,0 0.402167,-0.08819 0.518584,-0.197556 0.08819,-0.08467 0.239889,-0.271639 0.239889,-0.617361 0,-0.303389 -0.116417,-0.493889 -0.229306,-0.606778 -0.172861,-0.1728616 -0.388056,-0.2046116 -0.522112,-0.2046116 -0.282222,0 -0.430389,0.1516946 -0.497417,0.2469446 v -0.197556 h -0.430389 v 2.335391 h 0.430389 z m 0.381001,-0.998361 c 0.102305,0 0.215194,0.0388 0.292805,0.109361 0.08467,0.08114 0.130528,0.208139 0.130528,0.321028 0,0.112889 -0.04233,0.239889 -0.134055,0.324556 -0.05645,0.05292 -0.148167,0.109361 -0.289278,0.109361 -0.134056,0 -0.225778,-0.05292 -0.282223,-0.102306 -0.08467,-0.07408 -0.141111,-0.1905 -0.141111,-0.331611 0,-0.141111 0.04939,-0.246945 0.144639,-0.328084 0.07761,-0.07055 0.165806,-0.102305 0.278695,-0.102305 z"
         style="stroke-width:0.5"
         id="path2098" /><path
         d="M 57.551271,10.117617 C 57.357243,9.9694505 57.177326,9.9553394 57.064437,9.9553394 c -0.123472,0 -0.278695,0.014111 -0.398639,0.1093616 -0.08819,0.07408 -0.15875,0.197555 -0.15875,0.345722 0,0.123472 0.04586,0.218722 0.116416,0.292806 0.09172,0.09525 0.218723,0.144639 0.328084,0.183444 l 0.09878,0.03528 c 0.05644,0.02117 0.134056,0.05997 0.134056,0.155222 0,0.105834 -0.09172,0.165806 -0.211667,0.165806 -0.127,0 -0.254,-0.07761 -0.338667,-0.176389 l -0.225778,0.261056 c 0.09525,0.102305 0.275167,0.254 0.592667,0.254 0.186972,0 0.335139,-0.04939 0.458611,-0.162278 0.123473,-0.112889 0.169334,-0.250472 0.169334,-0.388056 0,-0.09878 -0.03175,-0.1905 -0.07761,-0.254 -0.08819,-0.119944 -0.268112,-0.179917 -0.388056,-0.218722 l -0.102306,-0.03175 c -0.119944,-0.03881 -0.137583,-0.09878 -0.137583,-0.137584 0,-0.07408 0.0635,-0.123472 0.165805,-0.123472 0.04586,0 0.148167,0.0071 0.250473,0.102306 z"
         style="stroke-width:0.5"
         id="path2100" /></g><path
       id="rect8877-3-9-8"
       style="display:inline;fill:#d2d2d2;stroke:#594c62;stroke-width:0.141347;stroke-linecap:square"
       d="M 1.8997054,30.933525 H 13.358359 V 53.992178 H 1.8997054 Z" /><path
       id="rect3722-6-32"
       style="fill:#594c62;stroke-width:0.123846;stroke-linecap:square"
       d="M 1.8923087,26.485542 H 13.368462 v 4.376154 H 1.8923087 Z" /><g
       aria-label="Reset"
       id="text444-3"
       style="font-weight:500;font-size:3.52778px;font-family:'Futura PT';-inkscape-font-specification:'Futura PT Medium';text-align:center;text-anchor:middle;fill:#e8d0f0;stroke-width:0.499999;stroke-linecap:square"><path
         d="m 3.9626405,27.453428 v 2.35303 h 0.4586114 v -0.945446 h 0.056444 l 0.6279449,0.945446 H 5.6771416 L 4.9433633,28.815151 c 0.112889,-0.02117 0.1975557,-0.05997 0.257528,-0.102305 0.1834445,-0.123473 0.2751668,-0.324556 0.2751668,-0.553862 0,-0.176389 -0.052917,-0.377472 -0.2328335,-0.529167 C 5.1338634,27.538095 4.9680578,27.453428 4.643502,27.453428 Z m 0.4586114,0.373945 h 0.1375834 c 0.084667,0 0.4445003,0.0035 0.4445003,0.352778 0,0.345722 -0.3633614,0.356306 -0.4515559,0.356306 H 4.4212519 Z"
         style="stroke-width:0.5"
         id="path2105" /><path
         d="m 7.0282792,29.316096 c -0.070556,0.123472 -0.1940279,0.201084 -0.3563058,0.201084 -0.1658057,0 -0.2610557,-0.08114 -0.3069169,-0.144639 -0.049389,-0.06703 -0.074083,-0.165806 -0.074083,-0.257528 h 1.1430008 v -0.03528 c 0,-0.165806 -0.021167,-0.405695 -0.1834446,-0.599723 -0.1058334,-0.127 -0.2857502,-0.250472 -0.5961948,-0.250472 -0.1834446,0 -0.3951114,0.0388 -0.5750282,0.215194 -0.1093612,0.109362 -0.2328335,0.296334 -0.2328335,0.599723 0,0.239889 0.070556,0.437445 0.2398891,0.596195 0.1516945,0.144639 0.3386669,0.215194 0.5856115,0.215194 0.5326948,0 0.705556,-0.363361 0.7514171,-0.47625 z m -0.7231949,-0.47625 c 0.035278,-0.204611 0.2010834,-0.306917 0.3598335,-0.306917 0.1587501,0 0.3280836,0.09878 0.3633614,0.306917 z"
         style="stroke-width:0.5"
         id="path2107" /><path
         d="M 8.809806,28.391818 C 8.6157781,28.243651 8.4358613,28.22954 8.3229723,28.22954 c -0.1234723,0 -0.2786946,0.01411 -0.3986391,0.109361 -0.088195,0.07408 -0.1587501,0.197556 -0.1587501,0.345722 0,0.123473 0.045861,0.218723 0.1164167,0.292806 0.091722,0.09525 0.2187224,0.144639 0.3280836,0.183445 l 0.098778,0.03528 c 0.056444,0.02117 0.1340557,0.05997 0.1340557,0.155222 0,0.105833 -0.091722,0.165806 -0.2116668,0.165806 -0.1270001,0 -0.2540002,-0.07761 -0.3386669,-0.176389 l -0.2257779,0.261055 c 0.09525,0.102306 0.2751668,0.254 0.592667,0.254 0.1869723,0 0.3351391,-0.04939 0.4586114,-0.162277 0.1234723,-0.112889 0.1693335,-0.250473 0.1693335,-0.388056 0,-0.09878 -0.03175,-0.1905 -0.077611,-0.254 C 8.7216115,28.931568 8.5416947,28.871596 8.4217502,28.83279 L 8.3194446,28.80104 C 8.1995,28.762235 8.1818611,28.702262 8.1818611,28.663457 c 0,-0.07408 0.0635,-0.123473 0.1658057,-0.123473 0.045861,0 0.1481668,0.0071 0.2504724,0.102306 z"
         style="stroke-width:0.5"
         id="path2109" /><path
         d="m 10.294999,29.316096 c -0.07056,0.123472 -0.194028,0.201084 -0.356306,0.201084 -0.1658057,0 -0.2610558,-0.08114 -0.3069169,-0.144639 -0.049389,-0.06703 -0.074083,-0.165806 -0.074083,-0.257528 h 1.1430003 v -0.03528 c 0,-0.165806 -0.02117,-0.405695 -0.183444,-0.599723 -0.105834,-0.127 -0.28575,-0.250472 -0.5961949,-0.250472 -0.1834446,0 -0.3951114,0.0388 -0.5750282,0.215194 -0.1093612,0.109362 -0.2328335,0.296334 -0.2328335,0.599723 0,0.239889 0.070556,0.437445 0.2398891,0.596195 0.1516945,0.144639 0.3386669,0.215194 0.5856115,0.215194 0.532695,0 0.705556,-0.363361 0.751417,-0.47625 z m -0.7231952,-0.47625 c 0.035278,-0.204611 0.2010835,-0.306917 0.3598336,-0.306917 0.1587506,0 0.3280836,0.09878 0.3633616,0.306917 z"
         style="stroke-width:0.5"
         id="path2111" /><path
         d="m 11.759026,28.645818 v -0.366889 h -0.296334 v -0.522112 h -0.430389 v 0.522112 h -0.169334 v 0.366889 h 0.169334 v 1.16064 h 0.430389 v -1.16064 z"
         style="stroke-width:0.5"
         id="path2113" /></g><path
       id="rect8877-3-9-5"
       style="display:inline;fill:#d2d2d2;stroke:#594c62;stroke-width:0.141347;stroke-linecap:square"
       d="M 47.19453,42.527122 H 58.653184 V 65.585775 H 47.19453 Z" /><path
       id="rect3722-6-3"
       style="fill:#594c62;stroke-width:0.123846;stroke-linecap:square"
       d="m 47.187134,38.079147 h 11.476153 v 4.376154 H 47.187134 Z" /><g
       aria-label="Revrs"
       id="text444-8"
       style="font-weight:500;font-size:3.52778px;font-family:'Futura PT';-inkscape-font-specification:'Futura PT Medium';text-align:center;text-anchor:middle;fill:#e8d0f0;stroke-width:0.499999;stroke-linecap:square"><path
         d="m 49.167504,39.047026 v 2.353029 h 0.458612 V 40.45461 h 0.05644 l 0.627945,0.945445 h 0.5715 l -0.733778,-0.991306 c 0.112889,-0.02117 0.197556,-0.05997 0.257528,-0.102306 0.183445,-0.123472 0.275167,-0.324556 0.275167,-0.553861 0,-0.176389 -0.05292,-0.377473 -0.232834,-0.529167 -0.109361,-0.09172 -0.275166,-0.176389 -0.599722,-0.176389 z m 0.458612,0.373944 h 0.137583 c 0.08467,0 0.4445,0.0035 0.4445,0.352778 0,0.345723 -0.363361,0.356306 -0.451556,0.356306 h -0.130527 z"
         style="stroke-width:0.5"
         id="path2118" /><path
         d="m 52.233143,40.909694 c -0.07056,0.123472 -0.194028,0.201083 -0.356306,0.201083 -0.165806,0 -0.261056,-0.08114 -0.306917,-0.144639 -0.04939,-0.06703 -0.07408,-0.165806 -0.07408,-0.257528 h 1.143001 v -0.03528 c 0,-0.165805 -0.02117,-0.405694 -0.183445,-0.599722 -0.105833,-0.127 -0.28575,-0.250473 -0.596195,-0.250473 -0.183444,0 -0.395111,0.03881 -0.575028,0.215195 -0.109361,0.109361 -0.232833,0.296333 -0.232833,0.599722 0,0.239889 0.07056,0.437445 0.239889,0.596195 0.151694,0.144639 0.338667,0.215195 0.585611,0.215195 0.532695,0 0.705556,-0.363361 0.751417,-0.47625 z m -0.723195,-0.476251 c 0.03528,-0.204611 0.201083,-0.306917 0.359834,-0.306917 0.15875,0 0.328083,0.09878 0.363361,0.306917 z"
         style="stroke-width:0.5"
         id="path2120" /><path
         d="m 52.737612,39.872526 0.769056,1.527529 h 0.225778 l 0.769056,-1.527529 h -0.479778 l -0.402167,0.860779 -0.402167,-0.860779 z"
         style="stroke-width:0.5"
         id="path2122" /><path
         d="m 54.713168,41.400055 h 0.43039 v -0.733778 c 0,-0.105834 0.0035,-0.236362 0.08467,-0.338667 0.08467,-0.105834 0.204612,-0.123473 0.28575,-0.123473 0.0882,0 0.144639,0.01764 0.201084,0.05644 l 0.05644,-0.402167 c -0.04939,-0.01764 -0.109361,-0.03528 -0.183444,-0.03528 -0.102306,0 -0.186973,0.02469 -0.254,0.06703 -0.03175,0.01764 -0.123473,0.08114 -0.1905,0.211667 v -0.229306 h -0.43039 z"
         style="stroke-width:0.5"
         id="path2124" /><path
         d="m 56.98859,39.985415 c -0.194028,-0.148167 -0.373945,-0.162278 -0.486834,-0.162278 -0.123472,0 -0.278695,0.01411 -0.398639,0.109361 -0.08819,0.07408 -0.15875,0.197556 -0.15875,0.345723 0,0.123472 0.04586,0.218722 0.116416,0.292806 0.09172,0.09525 0.218723,0.144639 0.328084,0.183444 l 0.09878,0.03528 c 0.05644,0.02117 0.134055,0.05997 0.134055,0.155222 0,0.105834 -0.09172,0.165806 -0.211666,0.165806 -0.127,0 -0.254001,-0.07761 -0.338667,-0.176389 l -0.225778,0.261056 c 0.09525,0.102305 0.275167,0.254 0.592667,0.254 0.186972,0 0.335139,-0.04939 0.458611,-0.162278 0.123473,-0.112889 0.169334,-0.250472 0.169334,-0.388056 0,-0.09878 -0.03175,-0.1905 -0.07761,-0.254 -0.08819,-0.119945 -0.268112,-0.179917 -0.388056,-0.218722 l -0.102306,-0.03175 c -0.119944,-0.03881 -0.137583,-0.09878 -0.137583,-0.137584 0,-0.07408 0.0635,-0.123472 0.165805,-0.123472 0.04586,0 0.148167,0.0071 0.250473,0.102306 z"
         style="stroke-width:0.5"
         id="path2126" /></g><path
       id="rect8877-3-9-5-5"
       style="display:inline;fill:#d2d2d2;stroke:#594c62;stroke-width:0.141347;stroke-linecap:square"
       d="M 47.19453,72.394928 H 58.653184 V 95.453581 H 47.19453 Z" /><path
       id="rect3722-6-3-3"
       style="fill:#594c62;stroke-width:0.123846;stroke-linecap:square"
       d="m 47.187134,67.946945 h 11.476153 v 4.376154 H 47.187134 Z" /><g
       aria-label="Invrs"
       id="text444-8-1"
       style="font-weight:500;font-size:3.52778px;font-family:'Futura PT';-inkscape-font-specification:'Futura PT Medium';text-align:center;text-anchor:middle;fill:#e8d0f0;stroke-width:0.499999;stroke-linecap:square"><path
         d="m 49.661391,68.914839 v 2.353029 h 0.458612 v -2.353029 z"
         style="stroke-width:0.5"
         id="path2131" /><path
         d="m 50.592724,71.267868 h 0.430389 v -0.779639 c 0,-0.08819 0.0035,-0.197556 0.06703,-0.296334 0.0635,-0.09525 0.151694,-0.134056 0.264583,-0.134056 0.04233,0 0.134056,0.0071 0.201084,0.07761 0.07761,0.08114 0.08114,0.215194 0.08114,0.299861 v 0.832556 h 0.430389 v -0.959556 c 0,-0.148167 -0.01411,-0.299861 -0.119945,-0.430389 -0.119944,-0.148167 -0.3175,-0.186973 -0.451556,-0.186973 -0.246944,0 -0.391583,0.134056 -0.472722,0.246945 v -0.197556 h -0.430389 z"
         style="stroke-width:0.5"
         id="path2133" /><path
         d="m 52.243726,69.740339 0.769056,1.527529 h 0.225777 l 0.769057,-1.527529 h -0.479779 l -0.402166,0.860779 -0.402167,-0.860779 z"
         style="stroke-width:0.5"
         id="path2135" /><path
         d="M 54.219281,71.267868 H 54.64967 V 70.53409 c 0,-0.105834 0.0035,-0.236361 0.08467,-0.338667 0.08467,-0.105833 0.204611,-0.123472 0.28575,-0.123472 0.0882,0 0.144639,0.01764 0.201084,0.05644 l 0.05644,-0.402167 c -0.04939,-0.01764 -0.109361,-0.03528 -0.183444,-0.03528 -0.102306,0 -0.186973,0.02469 -0.254001,0.06703 -0.03175,0.01764 -0.123472,0.08114 -0.1905,0.211667 v -0.229306 h -0.430389 z"
         style="stroke-width:0.5"
         id="path2137" /><path
         d="m 56.494703,69.853228 c -0.194028,-0.148167 -0.373945,-0.162278 -0.486834,-0.162278 -0.123472,0 -0.278695,0.01411 -0.398639,0.109362 -0.08819,0.07408 -0.15875,0.197555 -0.15875,0.345722 0,0.123472 0.04586,0.218722 0.116417,0.292806 0.09172,0.09525 0.218722,0.144639 0.328083,0.183444 l 0.09878,0.03528 c 0.05644,0.02117 0.134056,0.05997 0.134056,0.155222 0,0.105834 -0.09172,0.165806 -0.211667,0.165806 -0.127,0 -0.254,-0.07761 -0.338667,-0.176389 l -0.225778,0.261056 c 0.09525,0.102305 0.275167,0.254 0.592667,0.254 0.186972,0 0.335139,-0.04939 0.458611,-0.162278 0.123473,-0.112889 0.169334,-0.250472 0.169334,-0.388056 0,-0.09878 -0.03175,-0.1905 -0.07761,-0.254 -0.08819,-0.119944 -0.268112,-0.179917 -0.388056,-0.218722 l -0.102306,-0.03175 c -0.119944,-0.03881 -0.137583,-0.09878 -0.137583,-0.137584 0,-0.07408 0.0635,-0.123472 0.165806,-0.123472 0.04586,0 0.148166,0.0071 0.250472,0.102306 z"
         style="stroke-width:0.5"
         id="path2139" /></g><g
       transform="scale(0.26458333)"
       id="text1491"
       style="font-size:13.3333px;font-family:'Futura PT';-inkscape-font-specification:'Futura PT';text-align:center;text-anchor:middle;white-space:pre;shape-inside:url(#rect1493);fill:#e8d0f0;stroke-width:1.88976;stroke-linecap:square" /></g><g
     inkscape:groupmode="layer"
     id="layer2"
     inkscape:label="components"
     style="fill:#00ff00"><ellipse
       style="fill:#0000ff;fill-opacity:1;stroke-width:0.162095"
       id="out"
       cx="52.912872"
       cy="116.39391"
       inkscape:transform-center-x="-0.1086902"
       inkscape:transform-center-y="-5.434698"
       inkscape:label="out"
       rx="2.5"
       ry="2.4999626" /><ellipse
       style="fill:#ff0000;fill-opacity:1;stroke-width:0.162095"
       id="clock"
       cx="7.6436114"
       cy="18.061943"
       inkscape:transform-center-x="-0.10869659"
       inkscape:transform-center-y="-5.434704"
       inkscape:label="clock"
       rx="2.5"
       ry="2.4999626" /><circle
       style="fill:#00ff00;display:inline;fill-opacity:1;stroke-width:0.162096"
       id="itranspose"
       cx="52.819473"
       cy="29.555414"
       inkscape:transform-center-x="-0.10869517"
       inkscape:transform-center-y="-5.4347841"
       r="2.5"
       inkscape:label="itranspose" /><ellipse
       style="fill:#ff0000;fill-opacity:1;stroke-width:0.162095"
       id="ptranspose"
       cx="52.760677"
       cy="19.099485"
       inkscape:transform-center-x="-0.10869659"
       inkscape:transform-center-y="-5.434704"
       inkscape:label="ptranspose"
       rx="2.5"
       ry="2.4999626" /><circle
       style="fill:#00ff00;display:inline;fill-opacity:1;stroke-width:0.162096"
       id="ireset"
       cx="7.5246501"
       cy="47.829613"
       inkscape:transform-center-x="-0.10869517"
       inkscape:transform-center-y="-5.4347841"
       r="2.5"
       inkscape:label="ireset" /><ellipse
       style="fill:#ff0000;fill-opacity:1;stroke-width:0.162095"
       id="preset"
       cx="7.4658542"
       cy="37.37368"
       inkscape:transform-center-x="-0.10869659"
       inkscape:transform-center-y="-5.434704"
       inkscape:label="preset"
       rx="2.5"
       ry="2.4999626" /><circle
       style="fill:#00ff00;display:inline;fill-opacity:1;stroke-width:0.162096"
       id="ireverse"
       cx="52.819473"
       cy="59.42321"
       inkscape:transform-center-x="-0.10869517"
       inkscape:transform-center-y="-5.4347841"
       r="2.5"
       inkscape:label="ireverse" /><ellipse
       style="fill:#ff0000;fill-opacity:1;stroke-width:0.162095"
       id="preverse"
       cx="52.760677"
       cy="48.967285"
       inkscape:transform-center-x="-0.10869659"
       inkscape:transform-center-y="-5.434704"
       inkscape:label="preverse"
       rx="2.5"
       ry="2.4999626" /><circle
       style="fill:#00ff00;display:inline;fill-opacity:1;stroke-width:0.162096"
       id="iinverse"
       cx="52.819473"
       cy="89.291008"
       inkscape:transform-center-x="-0.10869517"
       inkscape:transform-center-y="-5.4347841"
       r="2.5"
       inkscape:label="iinverse" /><ellipse
       style="fill:#ff0000;fill-opacity:1;stroke-width:0.162095"
       id="pinverse"
       cx="52.760677"
       cy="78.835091"
       inkscape:transform-center-x="-0.10869659"
       inkscape:transform-center-y="-5.434704"
       inkscape:label="pinverse"
       rx="2.5"
       ry="2.4999626" /></g></svg>
