<?xml version="1.0" encoding="UTF-8" standalone="no"?>
<!-- Created with Inkscape (http://www.inkscape.org/) -->

<svg
   width="81.279999mm"
   height="128.5mm"
   viewBox="0 0 81.28 128.5"
   version="1.1"
   id="svg5"
   inkscape:version="1.2.1 (9c6d41e410, 2022-07-14)"
   sodipodi:docname="LabeledPatchbay.svg"
   xml:space="preserve"
   xmlns:inkscape="http://www.inkscape.org/namespaces/inkscape"
   xmlns:sodipodi="http://sodipodi.sourceforge.net/DTD/sodipodi-0.dtd"
   xmlns="http://www.w3.org/2000/svg"
   xmlns:svg="http://www.w3.org/2000/svg"><sodipodi:namedview
     id="namedview7"
     pagecolor="#ffffff"
     bordercolor="#000000"
     borderopacity="0.25"
     inkscape:showpageshadow="2"
     inkscape:pageopacity="0.0"
     inkscape:pagecheckerboard="0"
     inkscape:deskcolor="#d1d1d1"
     inkscape:document-units="mm"
     showgrid="false"
     inkscape:zoom="11.930303"
     inkscape:cx="270.44576"
     inkscape:cy="487.33044"
     inkscape:window-width="1920"
     inkscape:window-height="1017"
     inkscape:window-x="1912"
     inkscape:window-y="-8"
     inkscape:window-maximized="1"
     inkscape:current-layer="layer1" /><defs
     id="defs2"><rect
       x="30.175261"
       y="16.764032"
       width="4.6939292"
       height="17.434595"
       id="rect1148" /><rect
       x="30.175261"
       y="16.764032"
       width="4.6939292"
       height="17.434595"
       id="rect1148-3" /><clipPath
       clipPathUnits="userSpaceOnUse"
       id="clipPath1018"><rect
         style="display:inline;fill:#f9f9f9;fill-opacity:0;stroke-width:0.264583"
         id="rect1020"
         width="20.32"
         height="128.5"
         x="0"
         y="0" /></clipPath><clipPath
       clipPathUnits="userSpaceOnUse"
       id="clipPath1086"><rect
         style="fill:#f9f9f9;fill-opacity:0;stroke-width:0.264583"
         id="rect1088"
         width="20.32"
         height="128.5"
         x="0"
         y="-2.7755579e-17" /></clipPath><rect
       x="30.175261"
       y="16.764032"
       width="4.6939292"
       height="17.434595"
       id="rect1148-4" /><clipPath
       clipPathUnits="userSpaceOnUse"
       id="clipPath1018-7"><rect
         style="display:inline;fill:#f9f9f9;fill-opacity:0;stroke-width:0.264583"
         id="rect1020-1"
         width="20.32"
         height="128.5"
         x="0"
         y="0" /></clipPath><clipPath
       clipPathUnits="userSpaceOnUse"
       id="clipPath1086-6"><rect
         style="fill:#f9f9f9;fill-opacity:0;stroke-width:0.264583"
         id="rect1088-3"
         width="20.32"
         height="128.5"
         x="0"
         y="-2.7755579e-17" /></clipPath><rect
       x="30.175261"
       y="16.764032"
       width="4.6939292"
       height="17.434595"
       id="rect1148-2" /><clipPath
       clipPathUnits="userSpaceOnUse"
       id="clipPath1018-8"><rect
         style="display:inline;fill:#f9f9f9;fill-opacity:0;stroke-width:0.264583"
         id="rect1020-0"
         width="20.32"
         height="128.5"
         x="0"
         y="0" /></clipPath><clipPath
       clipPathUnits="userSpaceOnUse"
       id="clipPath1086-7"><rect
         style="fill:#f9f9f9;fill-opacity:0;stroke-width:0.264583"
         id="rect1088-8"
         width="20.32"
         height="128.5"
         x="0"
         y="-2.7755579e-17" /></clipPath><rect
       x="30.175261"
       y="16.764032"
       width="4.6939292"
       height="17.434595"
       id="rect1148-34" /><rect
       x="30.175261"
       y="16.764032"
       width="4.6939292"
       height="17.434595"
       id="rect1148-3-9" /><clipPath
       clipPathUnits="userSpaceOnUse"
       id="clipPath1018-0"><rect
         style="display:inline;fill:#f9f9f9;fill-opacity:0;stroke-width:0.264583"
         id="rect1020-5"
         width="20.32"
         height="128.5"
         x="0"
         y="0" /></clipPath><clipPath
       clipPathUnits="userSpaceOnUse"
       id="clipPath1086-78"><rect
         style="fill:#f9f9f9;fill-opacity:0;stroke-width:0.264583"
         id="rect1088-0"
         width="20.32"
         height="128.5"
         x="0"
         y="-2.7755579e-17" /></clipPath><rect
       x="30.175261"
       y="16.764032"
       width="4.6939292"
       height="17.434595"
       id="rect1148-4-4" /><clipPath
       clipPathUnits="userSpaceOnUse"
       id="clipPath1018-7-2"><rect
         style="display:inline;fill:#f9f9f9;fill-opacity:0;stroke-width:0.264583"
         id="rect1020-1-7"
         width="20.32"
         height="128.5"
         x="0"
         y="0" /></clipPath><clipPath
       clipPathUnits="userSpaceOnUse"
       id="clipPath1086-6-8"><rect
         style="fill:#f9f9f9;fill-opacity:0;stroke-width:0.264583"
         id="rect1088-3-3"
         width="20.32"
         height="128.5"
         x="0"
         y="-2.7755579e-17" /></clipPath><rect
       x="30.175261"
       y="16.764032"
       width="4.6939292"
       height="17.434595"
       id="rect1148-2-1" /><clipPath
       clipPathUnits="userSpaceOnUse"
       id="clipPath1018-8-0"><rect
         style="display:inline;fill:#f9f9f9;fill-opacity:0;stroke-width:0.264583"
         id="rect1020-0-8"
         width="20.32"
         height="128.5"
         x="0"
         y="0" /></clipPath><clipPath
       clipPathUnits="userSpaceOnUse"
       id="clipPath1086-7-9"><rect
         style="fill:#f9f9f9;fill-opacity:0;stroke-width:0.264583"
         id="rect1088-8-1"
         width="20.32"
         height="128.5"
         x="0"
         y="-2.7755579e-17" /></clipPath></defs><g
     inkscape:groupmode="layer"
     id="layer3"
     inkscape:label="Background"><rect
       style="display:inline;fill:#847b89;fill-opacity:1;stroke:#220826;stroke-width:0.5;stroke-linecap:square;stroke-opacity:1;stroke-dasharray:none"
       id="rect1263"
       width="81.279999"
       height="128.5"
       x="3.7005566e-07"
       y="3.7005566e-07" /></g><g
     inkscape:label="Decals"
     inkscape:groupmode="layer"
     id="layer1"
     style="display:inline;fill:#ffffff"><rect
       style="display:inline;fill:#220826;fill-opacity:1;stroke:#f7dfff;stroke-width:0.0999992;stroke-linecap:square;stroke-linejoin:miter;stroke-dasharray:none;stroke-dashoffset:0;stroke-opacity:1"
       id="rect8877-3-9-0"
       width="11.500001"
       height="11.499828"
       x="68.286873"
       y="21.655262" /><rect
       style="display:inline;fill:#d2d2d2;fill-opacity:1;stroke:#594c62;stroke-width:0.0999992;stroke-linecap:square;stroke-linejoin:miter;stroke-dasharray:none;stroke-dashoffset:0;stroke-opacity:1"
       id="rect8877-3-9-68-7"
       width="11.500001"
       height="11.499828"
       x="-33.156151"
       y="-13.325858"
       transform="matrix(0,-1,-1,0,0,0)" /><rect
       style="fill:#594c62;fill-opacity:1;stroke:none;stroke-width:0.391025;stroke-linecap:square;stroke-linejoin:miter;stroke-dasharray:none;stroke-dashoffset:0;stroke-opacity:1"
       id="rect3722-6-50-7"
       width="11.476154"
       height="43.626072"
       x="-33.142876"
       y="-57.003078"
       transform="matrix(0,-1,-1,0,0,0)" /><rect
       style="display:inline;fill:#d2d2d2;fill-opacity:1;stroke:#594c62;stroke-width:0.0999992;stroke-linecap:square;stroke-linejoin:miter;stroke-dasharray:none;stroke-dashoffset:0;stroke-opacity:1"
       id="rect8877-3-9-68-7-5"
       width="11.500001"
       height="11.499828"
       x="56.717892"
       y="21.641079" /><rect
       style="display:inline;fill:#220826;fill-opacity:1;stroke:#f7dfff;stroke-width:0.0999992;stroke-linecap:square;stroke-linejoin:miter;stroke-dasharray:none;stroke-dashoffset:0;stroke-opacity:1"
       id="rect8877-3-9-0-4"
       width="11.500001"
       height="11.499828"
       x="68.286873"
       y="6.4985805" /><rect
       style="display:inline;fill:#d2d2d2;fill-opacity:1;stroke:#594c62;stroke-width:0.0999992;stroke-linecap:square;stroke-linejoin:miter;stroke-dasharray:none;stroke-dashoffset:0;stroke-opacity:1"
       id="rect8877-3-9-68-7-1"
       width="11.500001"
       height="11.499828"
       x="-17.999472"
       y="-13.325858"
       transform="matrix(0,-1,-1,0,0,0)" /><rect
       style="fill:#594c62;fill-opacity:1;stroke:none;stroke-width:0.391025;stroke-linecap:square;stroke-linejoin:miter;stroke-dasharray:none;stroke-dashoffset:0;stroke-opacity:1"
       id="rect3722-6-50-7-4"
       width="11.476154"
       height="43.626072"
       x="-17.986195"
       y="-57.003078"
       transform="matrix(0,-1,-1,0,0,0)" /><rect
       style="display:inline;fill:#d2d2d2;fill-opacity:1;stroke:#594c62;stroke-width:0.0999992;stroke-linecap:square;stroke-linejoin:miter;stroke-dasharray:none;stroke-dashoffset:0;stroke-opacity:1"
       id="rect8877-3-9-68-7-5-0"
       width="11.500001"
       height="11.499828"
       x="56.717892"
       y="6.4843974" /><rect
       style="display:inline;fill:#220826;fill-opacity:1;stroke:#f7dfff;stroke-width:0.0999992;stroke-linecap:square;stroke-linejoin:miter;stroke-dasharray:none;stroke-dashoffset:0;stroke-opacity:1"
       id="rect8877-3-9-0-9"
       width="11.500001"
       height="11.499828"
       x="68.286873"
       y="36.811939" /><rect
       style="display:inline;fill:#d2d2d2;fill-opacity:1;stroke:#594c62;stroke-width:0.0999992;stroke-linecap:square;stroke-linejoin:miter;stroke-dasharray:none;stroke-dashoffset:0;stroke-opacity:1"
       id="rect8877-3-9-68-7-4"
       width="11.500001"
       height="11.499828"
       x="-48.312832"
       y="-13.325858"
       transform="matrix(0,-1,-1,0,0,0)" /><rect
       style="fill:#594c62;fill-opacity:1;stroke:none;stroke-width:0.391025;stroke-linecap:square;stroke-linejoin:miter;stroke-dasharray:none;stroke-dashoffset:0;stroke-opacity:1"
       id="rect3722-6-50-7-9"
       width="11.476154"
       height="43.626072"
       x="-48.299557"
       y="-57.003078"
       transform="matrix(0,-1,-1,0,0,0)" /><rect
       style="display:inline;fill:#d2d2d2;fill-opacity:1;stroke:#594c62;stroke-width:0.0999992;stroke-linecap:square;stroke-linejoin:miter;stroke-dasharray:none;stroke-dashoffset:0;stroke-opacity:1"
       id="rect8877-3-9-68-7-5-2"
       width="11.500001"
       height="11.499828"
       x="56.717892"
       y="36.79776" /><rect
       style="display:inline;fill:#220826;fill-opacity:1;stroke:#f7dfff;stroke-width:0.0999992;stroke-linecap:square;stroke-linejoin:miter;stroke-dasharray:none;stroke-dashoffset:0;stroke-opacity:1"
       id="rect8877-3-9-0-0"
       width="11.500001"
       height="11.499828"
       x="68.286873"
       y="51.968624" /><rect
       style="display:inline;fill:#d2d2d2;fill-opacity:1;stroke:#594c62;stroke-width:0.0999992;stroke-linecap:square;stroke-linejoin:miter;stroke-dasharray:none;stroke-dashoffset:0;stroke-opacity:1"
       id="rect8877-3-9-68-7-0"
       width="11.500001"
       height="11.499828"
       x="-63.469513"
       y="-13.325858"
       transform="matrix(0,-1,-1,0,0,0)" /><rect
       style="fill:#594c62;fill-opacity:1;stroke:none;stroke-width:0.391025;stroke-linecap:square;stroke-linejoin:miter;stroke-dasharray:none;stroke-dashoffset:0;stroke-opacity:1"
       id="rect3722-6-50-7-5"
       width="11.476154"
       height="43.626072"
       x="-63.456238"
       y="-57.003078"
       transform="matrix(0,-1,-1,0,0,0)" /><rect
       style="display:inline;fill:#d2d2d2;fill-opacity:1;stroke:#594c62;stroke-width:0.0999992;stroke-linecap:square;stroke-linejoin:miter;stroke-dasharray:none;stroke-dashoffset:0;stroke-opacity:1"
       id="rect8877-3-9-68-7-5-01"
       width="11.500001"
       height="11.499828"
       x="56.717892"
       y="51.954441" /><rect
       style="display:inline;fill:#220826;fill-opacity:1;stroke:#f7dfff;stroke-width:0.0999992;stroke-linecap:square;stroke-linejoin:miter;stroke-dasharray:none;stroke-dashoffset:0;stroke-opacity:1"
       id="rect8877-3-9-0-5"
       width="11.500001"
       height="11.499828"
       x="68.286873"
       y="67.125305" /><rect
       style="display:inline;fill:#d2d2d2;fill-opacity:1;stroke:#594c62;stroke-width:0.0999992;stroke-linecap:square;stroke-linejoin:miter;stroke-dasharray:none;stroke-dashoffset:0;stroke-opacity:1"
       id="rect8877-3-9-68-7-10"
       width="11.500001"
       height="11.499828"
       x="-78.626198"
       y="-13.325858"
       transform="matrix(0,-1,-1,0,0,0)" /><rect
       style="fill:#594c62;fill-opacity:1;stroke:none;stroke-width:0.391025;stroke-linecap:square;stroke-linejoin:miter;stroke-dasharray:none;stroke-dashoffset:0;stroke-opacity:1"
       id="rect3722-6-50-7-1"
       width="11.476154"
       height="43.626072"
       x="-78.612923"
       y="-57.003078"
       transform="matrix(0,-1,-1,0,0,0)" /><rect
       style="display:inline;fill:#d2d2d2;fill-opacity:1;stroke:#594c62;stroke-width:0.0999992;stroke-linecap:square;stroke-linejoin:miter;stroke-dasharray:none;stroke-dashoffset:0;stroke-opacity:1"
       id="rect8877-3-9-68-7-5-8"
       width="11.500001"
       height="11.499828"
       x="56.717892"
       y="67.111122" /><rect
       style="display:inline;fill:#220826;fill-opacity:1;stroke:#f7dfff;stroke-width:0.0999992;stroke-linecap:square;stroke-linejoin:miter;stroke-dasharray:none;stroke-dashoffset:0;stroke-opacity:1"
       id="rect8877-3-9-0-7"
       width="11.500001"
       height="11.499828"
       x="68.286873"
       y="82.28199" /><rect
       style="display:inline;fill:#d2d2d2;fill-opacity:1;stroke:#594c62;stroke-width:0.0999992;stroke-linecap:square;stroke-linejoin:miter;stroke-dasharray:none;stroke-dashoffset:0;stroke-opacity:1"
       id="rect8877-3-9-68-7-7"
       width="11.500001"
       height="11.499828"
       x="-93.782883"
       y="-13.325858"
       transform="matrix(0,-1,-1,0,0,0)" /><rect
       style="fill:#594c62;fill-opacity:1;stroke:none;stroke-width:0.391025;stroke-linecap:square;stroke-linejoin:miter;stroke-dasharray:none;stroke-dashoffset:0;stroke-opacity:1"
       id="rect3722-6-50-7-6"
       width="11.476154"
       height="43.626072"
       x="-93.7696"
       y="-57.003078"
       transform="matrix(0,-1,-1,0,0,0)" /><rect
       style="display:inline;fill:#d2d2d2;fill-opacity:1;stroke:#594c62;stroke-width:0.0999992;stroke-linecap:square;stroke-linejoin:miter;stroke-dasharray:none;stroke-dashoffset:0;stroke-opacity:1"
       id="rect8877-3-9-68-7-5-5"
       width="11.500001"
       height="11.499828"
       x="56.717892"
       y="82.267807" /><rect
       style="display:inline;fill:#220826;fill-opacity:1;stroke:#f7dfff;stroke-width:0.0999992;stroke-linecap:square;stroke-linejoin:miter;stroke-dasharray:none;stroke-dashoffset:0;stroke-opacity:1"
       id="rect8877-3-9-0-00"
       width="11.500001"
       height="11.499828"
       x="68.286873"
       y="97.438667" /><rect
       style="display:inline;fill:#d2d2d2;fill-opacity:1;stroke:#594c62;stroke-width:0.0999992;stroke-linecap:square;stroke-linejoin:miter;stroke-dasharray:none;stroke-dashoffset:0;stroke-opacity:1"
       id="rect8877-3-9-68-7-9"
       width="11.500001"
       height="11.499828"
       x="-108.93957"
       y="-13.325858"
       transform="matrix(0,-1,-1,0,0,0)" /><rect
       style="fill:#594c62;fill-opacity:1;stroke:none;stroke-width:0.391025;stroke-linecap:square;stroke-linejoin:miter;stroke-dasharray:none;stroke-dashoffset:0;stroke-opacity:1"
       id="rect3722-6-50-7-3"
       width="11.476154"
       height="43.626072"
       x="-108.92628"
       y="-57.003078"
       transform="matrix(0,-1,-1,0,0,0)" /><rect
       style="display:inline;fill:#d2d2d2;fill-opacity:1;stroke:#594c62;stroke-width:0.0999992;stroke-linecap:square;stroke-linejoin:miter;stroke-dasharray:none;stroke-dashoffset:0;stroke-opacity:1"
       id="rect8877-3-9-68-7-5-9"
       width="11.500001"
       height="11.499828"
       x="56.717892"
       y="97.424484" /><rect
       style="display:inline;fill:#220826;fill-opacity:1;stroke:#f7dfff;stroke-width:0.0999992;stroke-linecap:square;stroke-linejoin:miter;stroke-dasharray:none;stroke-dashoffset:0;stroke-opacity:1"
       id="rect8877-3-9-0-8"
       width="11.500001"
       height="11.499828"
       x="68.286873"
       y="112.59535" /><rect
       style="display:inline;fill:#d2d2d2;fill-opacity:1;stroke:#594c62;stroke-width:0.0999992;stroke-linecap:square;stroke-linejoin:miter;stroke-dasharray:none;stroke-dashoffset:0;stroke-opacity:1"
       id="rect8877-3-9-68-7-2"
       width="11.500001"
       height="11.499828"
       x="-124.09624"
       y="-13.325858"
       transform="matrix(0,-1,-1,0,0,0)" /><rect
       style="fill:#594c62;fill-opacity:1;stroke:none;stroke-width:0.391025;stroke-linecap:square;stroke-linejoin:miter;stroke-dasharray:none;stroke-dashoffset:0;stroke-opacity:1"
       id="rect3722-6-50-7-17"
       width="11.476154"
       height="43.626072"
       x="-124.08296"
       y="-57.003078"
       transform="matrix(0,-1,-1,0,0,0)" /><rect
       style="display:inline;fill:#d2d2d2;fill-opacity:1;stroke:#594c62;stroke-width:0.0999992;stroke-linecap:square;stroke-linejoin:miter;stroke-dasharray:none;stroke-dashoffset:0;stroke-opacity:1"
       id="rect8877-3-9-68-7-5-1"
       width="11.500001"
       height="11.499828"
       x="56.717892"
       y="112.58116" /><g
       aria-label="Labeled Patchbay"
       id="text2599"
       style="font-size:4.23333px;font-family:'Futura PT';-inkscape-font-specification:'Futura PT';text-align:center;text-anchor:middle;fill:#000000;stroke-width:0;stroke-linecap:square"
       transform="translate(0.70967741)"><path
         d="m 25.916502,1.2624663 v 2.8236309 h 1.092199 V 3.7897642 H 26.229769 V 1.2624663 Z"
         id="path2714" /><path
         d="m 28.702032,2.5790318 c -0.08043,-0.1058332 -0.262466,-0.2920997 -0.601133,-0.2920997 -0.448732,0 -0.855132,0.3132664 -0.855132,0.9186325 0,0.6180662 0.410633,0.9313326 0.855132,0.9313326 0.309034,0 0.499533,-0.1650999 0.601133,-0.2963331 v 0.2455331 h 0.3048 V 2.3292654 h -0.3048 z m -0.567266,-0.021167 c 0.270933,0 0.5842,0.1989665 0.5842,0.6519328 0,0.347133 -0.211667,0.6561661 -0.5842,0.6561661 -0.364066,0 -0.575733,-0.2836331 -0.575733,-0.6603995 0,-0.4275663 0.275167,-0.6476994 0.575733,-0.6476994 z"
         id="path2716" /><path
         d="m 29.887369,3.8405641 c 0.131233,0.1693332 0.330199,0.2963331 0.613832,0.2963331 0.5334,0 0.842433,-0.436033 0.842433,-0.9186326 0,-0.4741329 -0.3048,-0.9313325 -0.855133,-0.9313325 -0.126999,0 -0.393699,0.029633 -0.601132,0.2878664 V 0.99999984 h -0.3048 V 4.0860972 h 0.3048 z m 0.571499,0.0254 c -0.359833,0 -0.588433,-0.2920998 -0.588433,-0.6519328 0,-0.423333 0.300567,-0.6561661 0.5842,-0.6561661 0.283633,0 0.575733,0.2285998 0.575733,0.6603994 0,0.3513664 -0.2159,0.6476995 -0.5715,0.6476995 z"
         id="path2718" /><path
         d="m 33.11317,3.4976644 c -0.0381,0.084667 -0.1016,0.1735665 -0.182033,0.2412998 -0.1016,0.084667 -0.2159,0.1269999 -0.359833,0.1269999 -0.3048,0 -0.554566,-0.2328331 -0.5588,-0.5968995 h 1.367366 c 0.0085,-0.2328331 -0.05503,-0.5037662 -0.1651,-0.6603995 -0.105833,-0.1523998 -0.321733,-0.321733 -0.664633,-0.321733 -0.529166,0 -0.850899,0.4063996 -0.850899,0.9313325 0,0.6519328 0.4445,0.9186326 0.867833,0.9186326 0.224366,0 0.423333,-0.071967 0.584199,-0.2158998 0.0889,-0.080433 0.1651,-0.1862665 0.2159,-0.2836331 z M 32.033671,3.0150648 c 0.04657,-0.2624664 0.258233,-0.4571996 0.516466,-0.4571996 0.258233,0 0.465666,0.1820332 0.516466,0.4571996 z"
         id="path2720" /><path
         d="M 33.84554,0.99999984 V 4.0860972 h 0.3048 V 0.99999984 Z"
         id="path2722" /><path
         d="m 36.029939,3.4976644 c -0.0381,0.084667 -0.1016,0.1735665 -0.182034,0.2412998 -0.101599,0.084667 -0.215899,0.1269999 -0.359833,0.1269999 -0.304799,0 -0.554566,-0.2328331 -0.558799,-0.5968995 h 1.367365 c 0.0085,-0.2328331 -0.05503,-0.5037662 -0.165099,-0.6603995 -0.105834,-0.1523998 -0.321734,-0.321733 -0.664633,-0.321733 -0.529166,0 -0.8509,0.4063996 -0.8509,0.9313325 0,0.6519328 0.4445,0.9186326 0.867833,0.9186326 0.224367,0 0.423333,-0.071967 0.5842,-0.2158998 0.0889,-0.080433 0.165099,-0.1862665 0.215899,-0.2836331 z M 34.95044,3.0150648 c 0.04657,-0.2624664 0.258233,-0.4571996 0.516466,-0.4571996 0.258233,0 0.465666,0.1820332 0.516466,0.4571996 z"
         id="path2724" /><path
         d="m 38.108508,2.5790318 c -0.08043,-0.1058332 -0.262467,-0.2920997 -0.601133,-0.2920997 -0.448733,0 -0.855133,0.3132664 -0.855133,0.9186325 0,0.6180662 0.410633,0.9313326 0.855133,0.9313326 0.309033,0 0.499533,-0.1650999 0.601133,-0.2963331 v 0.2455331 h 0.304799 V 0.99999984 h -0.304799 z m -0.567266,-0.021167 c 0.270933,0 0.584199,0.1989665 0.584199,0.6519328 0,0.347133 -0.211666,0.6561661 -0.584199,0.6561661 -0.364067,0 -0.575733,-0.2836331 -0.575733,-0.6603995 0,-0.4275663 0.275166,-0.6476994 0.575733,-0.6476994 z"
         id="path2726" /><path
         d="m 40.051609,1.2624663 v 2.8236309 h 0.313267 V 2.8584316 h 0.275166 c 0.643466,0 0.893233,-0.3936997 0.893233,-0.7916327 0,-0.1777998 -0.0508,-0.4275663 -0.258233,-0.6053661 -0.1905,-0.1650999 -0.427567,-0.1989665 -0.7112,-0.1989665 z m 0.313267,0.2963331 h 0.232833 c 0.2032,0 0.622299,0.042333 0.622299,0.4910662 0,0.3259664 -0.224366,0.5122329 -0.596899,0.5122329 h -0.258233 z"
         id="path2728" /><path
         d="m 43.167335,2.5790318 c -0.08043,-0.1058332 -0.262466,-0.2920997 -0.601133,-0.2920997 -0.448733,0 -0.855132,0.3132664 -0.855132,0.9186325 0,0.6180662 0.410633,0.9313326 0.855132,0.9313326 0.309033,0 0.499533,-0.1650999 0.601133,-0.2963331 v 0.2455331 h 0.3048 V 2.3292654 h -0.3048 z m -0.567266,-0.021167 c 0.270933,0 0.584199,0.1989665 0.584199,0.6519328 0,0.347133 -0.211666,0.6561661 -0.584199,0.6561661 -0.364066,0 -0.575733,-0.2836331 -0.575733,-0.6603995 0,-0.4275663 0.275167,-0.6476994 0.575733,-0.6476994 z"
         id="path2730" /><path
         d="M 44.665938,2.6086651 V 2.3292654 h -0.3048 V 1.6942659 h -0.3048 v 0.6349995 h -0.186266 v 0.2793997 h 0.186266 v 1.4774321 h 0.3048 V 2.6086651 Z"
         id="path2732" /><path
         d="m 46.329641,2.4562653 c -0.08467,-0.059267 -0.2667,-0.1693332 -0.5461,-0.1693332 -0.541866,0 -0.939799,0.3936997 -0.939799,0.9313325 0,0.5291663 0.3937,0.9186326 0.939799,0.9186326 0.1651,0 0.3683,-0.042333 0.5588,-0.1820332 V 3.5907977 c -0.160867,0.1947331 -0.385233,0.2751664 -0.567266,0.2751664 -0.313267,0 -0.618067,-0.2243665 -0.618067,-0.6519328 0,-0.4275663 0.296333,-0.6561661 0.6223,-0.6561661 0.156633,0 0.389466,0.059267 0.550333,0.2624664 z"
         id="path2734" /><path
         d="m 46.808005,4.0860972 h 0.3048 V 3.1674647 c 0,-0.1269999 0.0085,-0.3344331 0.127,-0.474133 0.0889,-0.1058332 0.2032,-0.1354665 0.309033,-0.1354665 0.135466,0 0.2286,0.0508 0.287866,0.1269999 0.07197,0.093133 0.08043,0.2158998 0.08043,0.321733 v 1.0794991 h 0.304799 V 2.9981315 c 0,-0.1947332 -0.0127,-0.3386664 -0.1016,-0.4698996 C 48.0145,2.3715987 47.824,2.2869321 47.616567,2.2869321 c -0.2921,0 -0.448733,0.1735665 -0.503766,0.2455331 V 0.99999984 h -0.3048 z"
         id="path2736" /><path
         d="m 49.102467,3.8405641 c 0.131233,0.1693332 0.3302,0.2963331 0.613833,0.2963331 0.533399,0 0.842432,-0.436033 0.842432,-0.9186326 0,-0.4741329 -0.304799,-0.9313325 -0.855132,-0.9313325 -0.127,0 -0.3937,0.029633 -0.601133,0.2878664 V 0.99999984 h -0.3048 V 4.0860972 h 0.3048 z m 0.5715,0.0254 c -0.359833,0 -0.588433,-0.2920998 -0.588433,-0.6519328 0,-0.423333 0.300566,-0.6561661 0.584199,-0.6561661 0.283633,0 0.575733,0.2285998 0.575733,0.6603994 0,0.3513664 -0.2159,0.6476995 -0.571499,0.6476995 z"
         id="path2738" /><path
         d="m 52.370602,2.5790318 c -0.08043,-0.1058332 -0.262466,-0.2920997 -0.601133,-0.2920997 -0.448733,0 -0.855132,0.3132664 -0.855132,0.9186325 0,0.6180662 0.410633,0.9313326 0.855132,0.9313326 0.309033,0 0.499533,-0.1650999 0.601133,-0.2963331 v 0.2455331 h 0.3048 V 2.3292654 h -0.3048 z m -0.567266,-0.021167 c 0.270933,0 0.5842,0.1989665 0.5842,0.6519328 0,0.347133 -0.211667,0.6561661 -0.5842,0.6561661 -0.364066,0 -0.575733,-0.2836331 -0.575733,-0.6603995 0,-0.4275663 0.275167,-0.6476994 0.575733,-0.6476994 z"
         id="path2740" /><path
         d="m 53.246904,5.0597631 h 0.338667 L 54.876736,2.3292654 H 54.53807 l -0.5715,1.2572989 -0.622299,-1.2572989 h -0.347133 l 0.808566,1.591732 z"
         id="path2742" /></g><g
       aria-label="∅"
       id="text2709"
       style="font-size:3.52778px;font-family:'Futura PT';-inkscape-font-specification:'Futura PT';text-align:center;text-anchor:middle;fill:#f7dfff;stroke-width:0;stroke-linecap:square"
       transform="translate(0.59879032,0.2217742)"><path
         d="m 77.702043,127.7728 0.27044,-0.26871 q -0.334175,-0.38586 -0.334175,-0.88712 0,-0.55466 0.391019,-0.94568 0.392741,-0.39274 0.947402,-0.39274 0.492649,0 0.88539,0.33418 l 0.27044,-0.26872 0.118856,0.11886 -0.268718,0.27044 q 0.334175,0.38585 0.334175,0.88539 0,0.55466 -0.392741,0.9474 -0.392741,0.39102 -0.94568,0.39102 -0.501261,0 -0.88539,-0.33246 l -0.27044,0.26872 z m 0.391018,-0.38929 1.64848,-1.6502 q -0.341065,-0.28422 -0.76309,-0.28422 -0.485758,0 -0.828546,0.34278 -0.341064,0.34107 -0.341064,0.8251 0,0.43409 0.28422,0.76654 z m 0.118856,0.11885 q 0.33073,0.28422 0.766534,0.28422 0.484037,0 0.825101,-0.34106 0.342788,-0.34279 0.342788,-0.82682 0,-0.42892 -0.284221,-0.76482 z"
         id="path2711" /></g></g><g
     inkscape:groupmode="layer"
     id="layer2"
     inkscape:label="components"
     style="display:inline;fill:#00ff00"><circle
       style="fill:#00ff00;stroke-width:0.264583"
       id="i1"
       cx="7.9363637"
       cy="12.178443"
       r="2.2177417"
       inkscape:label="i1" /><circle
       style="fill:#00ff00;stroke-width:0.264583"
       id="i2"
       cx="7.9363637"
       cy="27.33396"
       r="2.2177417"
       inkscape:label="i2" /><circle
       style="fill:#00ff00;stroke-width:0.264583"
       id="i3"
       cx="7.9363637"
       cy="42.489471"
       r="2.2177417"
       inkscape:label="i3" /><circle
       style="fill:#00ff00;stroke-width:0.264583"
       id="i4"
       cx="7.9363637"
       cy="57.644989"
       r="2.2177417"
       inkscape:label="i4" /><circle
       style="fill:#00ff00;stroke-width:0.264583"
       id="i5"
       cx="7.9363637"
       cy="72.800507"
       r="2.2177417"
       inkscape:label="i5" /><circle
       style="fill:#00ff00;stroke-width:0.264583"
       id="i6"
       cx="7.9363637"
       cy="87.956024"
       r="2.2177417"
       inkscape:label="i6" /><circle
       style="fill:#00ff00;stroke-width:0.264583"
       id="i7"
       cx="7.9363637"
       cy="103.11154"
       r="2.2177417"
       inkscape:label="i7" /><circle
       style="fill:#00ff00;stroke-width:0.264583"
       id="i8"
       cx="7.9363637"
       cy="118.26705"
       r="2.2177417"
       inkscape:label="i8" /><circle
       style="fill:#0000ff;stroke-width:0.264583"
       id="o1"
       cx="74.041206"
       cy="12.05299"
       r="2.2177417"
       inkscape:label="o1" /><circle
       style="fill:#0000ff;stroke-width:0.264583"
       id="o2"
       cx="74.041199"
       cy="27.208508"
       r="2.2177417"
       inkscape:label="o2" /><circle
       style="fill:#0000ff;stroke-width:0.264583"
       id="o3"
       cx="74.041199"
       cy="42.364025"
       r="2.2177417"
       inkscape:label="o3" /><circle
       style="fill:#0000ff;stroke-width:0.264583"
       id="o4"
       cx="74.041199"
       cy="57.519543"
       r="2.2177417"
       inkscape:label="o4" /><circle
       style="fill:#0000ff;stroke-width:0.264583"
       id="o5"
       cx="74.041199"
       cy="72.675064"
       r="2.2177417"
       inkscape:label="o5" /><circle
       style="fill:#0000ff;stroke-width:0.264583"
       id="o6"
       cx="74.041199"
       cy="87.830582"
       r="2.2177417"
       inkscape:label="o6" /><circle
       style="fill:#0000ff;stroke-width:0.264583"
       id="o7"
       cx="74.041199"
       cy="102.98609"
       r="2.2177417"
       inkscape:label="o7" /><circle
       style="fill:#0000ff;stroke-width:0.264583"
       id="o8"
       cx="74.041206"
       cy="118.14162"
       r="2.2177417"
       inkscape:label="o8" /><circle
       style="fill:#ff0000;stroke-width:0.264583"
       id="p1"
       cx="62.18235"
       cy="12.212589"
       r="2.2177417"
       inkscape:label="p1" /><circle
       style="fill:#ff0000;stroke-width:0.264583"
       id="p2"
       cx="62.18235"
       cy="27.377066"
       r="2.2177417"
       inkscape:label="p2" /><circle
       style="fill:#ff0000;stroke-width:0.264583"
       id="p3"
       cx="62.18235"
       cy="42.541542"
       r="2.2177417"
       inkscape:label="p3" /><circle
       style="fill:#ff0000;stroke-width:0.264583"
       id="p4"
       cx="62.18235"
       cy="57.706017"
       r="2.2177417"
       inkscape:label="p4" /><circle
       style="fill:#ff0000;stroke-width:0.264583"
       id="p5"
       cx="62.18235"
       cy="72.870499"
       r="2.2177417"
       inkscape:label="p5" /><circle
       style="fill:#ff0000;stroke-width:0.264583"
       id="p6"
       cx="62.18235"
       cy="88.034973"
       r="2.2177417"
       inkscape:label="p6" /><circle
       style="fill:#ff0000;stroke-width:0.264583"
       id="p7"
       cx="62.18235"
       cy="103.19946"
       r="2.2177417"
       inkscape:label="p7" /><circle
       style="fill:#ff0000;stroke-width:0.264583"
       id="p8"
       cx="62.18235"
       cy="118.36394"
       r="2.2177417"
       inkscape:label="p8" /></g></svg>
