<?xml version="1.0" encoding="UTF-8" standalone="no"?>
<!-- Created with Inkscape (http://www.inkscape.org/) -->

<svg
   width="127mm"
   height="128.5mm"
   viewBox="0 0 127 128.5"
   version="1.1"
   id="svg5"
   inkscape:version="1.2.1 (9c6d41e410, 2022-07-14)"
   sodipodi:docname="MajorPalette.svg"
   xml:space="preserve"
   xmlns:inkscape="http://www.inkscape.org/namespaces/inkscape"
   xmlns:sodipodi="http://sodipodi.sourceforge.net/DTD/sodipodi-0.dtd"
   xmlns="http://www.w3.org/2000/svg"
   xmlns:svg="http://www.w3.org/2000/svg"><sodipodi:namedview
     id="namedview7"
     pagecolor="#ffffff"
     bordercolor="#000000"
     borderopacity="0.25"
     inkscape:showpageshadow="2"
     inkscape:pageopacity="0.0"
     inkscape:pagecheckerboard="0"
     inkscape:deskcolor="#d1d1d1"
     inkscape:document-units="mm"
     showgrid="false"
     inkscape:zoom="1.0544998"
     inkscape:cx="168.32625"
     inkscape:cy="258.89052"
     inkscape:window-width="1920"
     inkscape:window-height="1052"
     inkscape:window-x="1912"
     inkscape:window-y="-8"
     inkscape:window-maximized="1"
     inkscape:current-layer="layer1"
     showguides="true" /><defs
     id="defs2"><rect
       x="30.175261"
       y="16.764032"
       width="4.6939292"
       height="17.434595"
       id="rect1148" /><clipPath
       clipPathUnits="userSpaceOnUse"
       id="clipPath1018"><rect
         style="display:inline;fill:#f9f9f9;fill-opacity:0;stroke-width:0.264583"
         id="rect1020"
         width="20.32"
         height="128.5"
         x="0"
         y="0" /></clipPath><clipPath
       clipPathUnits="userSpaceOnUse"
       id="clipPath1086"><rect
         style="fill:#f9f9f9;fill-opacity:0;stroke-width:0.264583"
         id="rect1088"
         width="20.32"
         height="128.5"
         x="0"
         y="-2.7755579e-17" /></clipPath><rect
       x="30.175261"
       y="16.764032"
       width="4.6939292"
       height="17.434595"
       id="rect1148-39" /><rect
       x="30.175261"
       y="16.764032"
       width="4.6939292"
       height="17.434595"
       id="rect1148-3" /><clipPath
       clipPathUnits="userSpaceOnUse"
       id="clipPath1018-9"><rect
         style="display:inline;fill:#f9f9f9;fill-opacity:0;stroke-width:0.264583"
         id="rect1020-3"
         width="20.32"
         height="128.5"
         x="0"
         y="0" /></clipPath><clipPath
       clipPathUnits="userSpaceOnUse"
       id="clipPath1086-2"><rect
         style="fill:#f9f9f9;fill-opacity:0;stroke-width:0.264583"
         id="rect1088-84"
         width="20.32"
         height="128.5"
         x="0"
         y="-2.7755579e-17" /></clipPath><rect
       x="30.175261"
       y="16.764032"
       width="4.6939292"
       height="17.434595"
       id="rect1148-4" /><clipPath
       clipPathUnits="userSpaceOnUse"
       id="clipPath1018-7"><rect
         style="display:inline;fill:#f9f9f9;fill-opacity:0;stroke-width:0.264583"
         id="rect1020-1"
         width="20.32"
         height="128.5"
         x="0"
         y="0" /></clipPath><clipPath
       clipPathUnits="userSpaceOnUse"
       id="clipPath1086-6"><rect
         style="fill:#f9f9f9;fill-opacity:0;stroke-width:0.264583"
         id="rect1088-3"
         width="20.32"
         height="128.5"
         x="0"
         y="-2.7755579e-17" /></clipPath><rect
       x="30.175261"
       y="16.764032"
       width="4.6939292"
       height="17.434595"
       id="rect1148-2" /><clipPath
       clipPathUnits="userSpaceOnUse"
       id="clipPath1018-8"><rect
         style="display:inline;fill:#f9f9f9;fill-opacity:0;stroke-width:0.264583"
         id="rect1020-0"
         width="20.32"
         height="128.5"
         x="0"
         y="0" /></clipPath><clipPath
       clipPathUnits="userSpaceOnUse"
       id="clipPath1086-7"><rect
         style="fill:#f9f9f9;fill-opacity:0;stroke-width:0.264583"
         id="rect1088-8"
         width="20.32"
         height="128.5"
         x="0"
         y="-2.7755579e-17" /></clipPath><rect
       x="30.175261"
       y="16.764032"
       width="4.6939292"
       height="17.434595"
       id="rect1148-30" /><rect
       x="30.175261"
       y="16.764032"
       width="4.6939292"
       height="17.434595"
       id="rect1148-3-5" /><clipPath
       clipPathUnits="userSpaceOnUse"
       id="clipPath1018-0"><rect
         style="display:inline;fill:#f9f9f9;fill-opacity:0;stroke-width:0.264583"
         id="rect1020-2"
         width="20.32"
         height="128.5"
         x="0"
         y="0" /></clipPath><clipPath
       clipPathUnits="userSpaceOnUse"
       id="clipPath1086-1"><rect
         style="fill:#f9f9f9;fill-opacity:0;stroke-width:0.264583"
         id="rect1088-39"
         width="20.32"
         height="128.5"
         x="0"
         y="-2.7755579e-17" /></clipPath><rect
       x="30.175261"
       y="16.764032"
       width="4.6939292"
       height="17.434595"
       id="rect1148-4-2" /><clipPath
       clipPathUnits="userSpaceOnUse"
       id="clipPath1018-7-6"><rect
         style="display:inline;fill:#f9f9f9;fill-opacity:0;stroke-width:0.264583"
         id="rect1020-1-8"
         width="20.32"
         height="128.5"
         x="0"
         y="0" /></clipPath><clipPath
       clipPathUnits="userSpaceOnUse"
       id="clipPath1086-6-7"><rect
         style="fill:#f9f9f9;fill-opacity:0;stroke-width:0.264583"
         id="rect1088-3-7"
         width="20.32"
         height="128.5"
         x="0"
         y="-2.7755579e-17" /></clipPath><rect
       x="30.175261"
       y="16.764032"
       width="4.6939292"
       height="17.434595"
       id="rect1148-2-5" /><clipPath
       clipPathUnits="userSpaceOnUse"
       id="clipPath1018-8-4"><rect
         style="display:inline;fill:#f9f9f9;fill-opacity:0;stroke-width:0.264583"
         id="rect1020-0-8"
         width="20.32"
         height="128.5"
         x="0"
         y="0" /></clipPath><clipPath
       clipPathUnits="userSpaceOnUse"
       id="clipPath1086-7-3"><rect
         style="fill:#f9f9f9;fill-opacity:0;stroke-width:0.264583"
         id="rect1088-8-8"
         width="20.32"
         height="128.5"
         x="0"
         y="-2.7755579e-17" /></clipPath></defs><g
     inkscape:groupmode="layer"
     id="layer3"
     inkscape:label="Background"
     style="display:inline"><rect
       style="fill:#847b89;fill-opacity:1;stroke:#220826;stroke-width:0.877809;stroke-linecap:square;stroke-dasharray:none;stroke-opacity:1"
       id="rect922"
       width="126.12219"
       height="127.62218"
       x="0.43890488"
       y="0.43890488" /></g><g
     inkscape:label="Decals"
     inkscape:groupmode="layer"
     id="layer1"><path
       id="rect1062"
       style="display:inline;fill:#323232;stroke-width:0.269715;stroke-linecap:square"
       d="M 3.4677419,4 H 123.46774 V 124 H 3.4677419 Z" /><path
       id="polygon7805"
       style="fill:#ffffff;stroke:#000000;stroke-width:0.988115"
       d="m 55.799833,60.179486 -1.908016,3.962036 v 4.397527 l 1.908016,3.962035 3.438126,2.741814 4.287272,0.978542 4.287272,-0.978542 3.438126,-2.741814 1.908015,-3.962035 v -4.397527 l -1.908015,-3.962036 -3.438126,-2.741814 -4.287272,-0.978542 -4.287272,0.978542 z" /><path
       id="polygon7809"
       style="fill:#6d30f2;stroke:#000000;stroke-width:0.988115"
       d="m 68.66165,33.471647 -1.908016,3.962036 v 4.397527 l 1.908016,3.962036 3.438126,2.741814 4.287272,0.978541 4.287273,-0.978541 3.438125,-2.741814 1.908015,-3.962036 v -4.397527 l -1.908015,-3.962036 -3.438125,-2.741814 -4.287273,-0.978541 -4.287272,0.978541 z" /><path
       id="polygon7811"
       style="fill:#c2009d;stroke:#000000;stroke-width:0.988115"
       d="m 84.700074,53.583194 -1.908016,3.962036 v 4.397527 l 1.908016,3.962036 3.438125,2.741814 4.287272,0.978541 4.287273,-0.978541 3.438126,-2.741814 1.90802,-3.962036 V 57.54523 l -1.90802,-3.962036 -3.438126,-2.741813 -4.287273,-0.978542 -4.287272,0.978542 z" /><path
       id="polygon7813"
       style="fill:#ff4848;stroke:#000000;stroke-width:0.988115"
       d="m 78.976027,78.661884 -1.908017,3.962035 v 4.397527 l 1.908017,3.962036 3.438125,2.741814 4.287272,0.978542 4.287273,-0.978542 3.438125,-2.741814 1.908016,-3.962036 V 82.623919 L 94.426822,78.661884 90.988697,75.92007 86.701424,74.941528 82.414152,75.92007 Z" /><path
       id="polygon7815"
       style="fill:#c29d00;stroke:#000000;stroke-width:0.988115"
       d="m 56.572373,90.43903 -3.643897,3.12608 1.926683,4.397526 0.172134,4.797994 4.639392,1.23547 3.858546,2.85692 3.858545,-2.85692 4.639392,-1.23547 0.172135,-4.797994 1.926683,-4.397526 -3.643898,-3.12608 -2.236858,-4.248155 -4.715999,0.899835 -4.716,-0.899835 z" /><path
       id="polygon7817"
       style="fill:#6df230;stroke:#000000;stroke-width:0.988115"
       d="m 32.623639,78.661884 -1.908016,3.962035 v 4.397527 l 1.908016,3.962036 3.438125,2.741814 4.287273,0.978542 4.287272,-0.978542 3.438125,-2.741814 1.908017,-3.962036 V 82.623919 L 48.074434,78.661884 44.636309,75.92007 40.349037,74.941528 36.061764,75.92007 Z" /><path
       id="polygon7819"
       style="fill:#18da85;stroke:#000000;stroke-width:0.988115"
       d="m 26.899592,53.583194 -1.908015,3.962036 v 4.397527 l 1.908015,3.962036 3.438125,2.741814 4.287273,0.978541 4.287272,-0.978541 3.438125,-2.741814 1.908017,-3.962036 V 57.54523 l -1.908017,-3.962036 -3.438125,-2.741813 -4.287272,-0.978542 -4.287273,0.978542 z" /><path
       id="polygon7821"
       style="fill:#1885da;stroke:#000000;stroke-width:0.988115"
       d="M 42.938016,33.471647 41.03,37.433683 v 4.397527 l 1.908016,3.962036 3.438125,2.741814 4.287273,0.978541 4.287272,-0.978541 3.438126,-2.741814 1.908015,-3.962036 v -4.397527 l -1.908015,-3.962036 -3.438126,-2.741814 -4.287272,-0.978541 -4.287273,0.978541 z" /><path
       id="polygon7837"
       style="fill:#9124b6;stroke:#000000;stroke-width:0.988115"
       d="m 95.199362,29.99157 -3.643897,3.126079 1.926683,4.397527 0.172135,4.797992 4.639392,1.235473 3.858545,2.856918 3.85855,-2.856918 4.63939,-1.235473 0.17214,-4.797992 1.92667,-4.397527 -3.64389,-3.126079 -2.23686,-4.248156 -4.716,0.899836 -4.715999,-0.899836 z" /><path
       id="polygon7839"
       style="fill:#d13676;stroke:#000000;stroke-width:0.988115"
       d="m 104.73944,71.789384 -3.64389,3.126079 1.92667,4.397528 0.17214,4.797993 4.63939,1.235472 3.85855,2.856919 3.85854,-2.856919 4.63939,-1.235472 0.17214,-4.797993 1.92668,-4.397528 -3.64389,-3.126079 -2.23686,-4.248154 -4.716,0.899835 -4.71601,-0.899835 z" /><path
       id="polygon7841"
       style="fill:#d17636;stroke:#000000;stroke-width:0.988115"
       d="m 78.008735,105.30863 -3.643897,3.12608 1.926683,4.39752 0.172134,4.798 4.639392,1.23547 3.858546,2.85692 3.858545,-2.85692 4.639392,-1.23547 0.172135,-4.798 1.926683,-4.39752 -3.643898,-3.12608 -2.236858,-4.24815 -4.715999,0.89983 -4.716,-0.89983 z" /><path
       id="polygon7843"
       style="fill:#91b624;stroke:#000000;stroke-width:0.988115"
       d="m 35.90855,105.92471 -5.379778,2.29012 3.853366,4.39753 -1.563747,5.63395 5.84066,-0.27087 3.429818,4.73529 3.429818,-4.73529 5.840659,0.27087 -1.563747,-5.63395 3.853366,-4.39753 -5.379778,-2.29012 -1.035591,-5.7545 -5.144727,2.77821 -5.144727,-2.77821 z" /><path
       id="polygon7845"
       style="fill:#51da64;stroke:#000000;stroke-width:0.988115"
       d="m 8.4053044,71.789384 -3.6438968,3.126079 1.9266827,4.397528 0.1721345,4.797993 4.6393932,1.235472 3.858544,2.856919 3.858546,-2.856919 4.639393,-1.235472 0.172134,-4.797993 1.926682,-4.397528 -3.643896,-3.126079 -2.236858,-4.248154 -4.716001,0.899835 -4.715999,-0.899835 z" /><path
       id="polygon7847"
       style="fill:#24a3a3;stroke:#000000;stroke-width:0.988115"
       d="m 17.945383,29.99157 -3.643897,3.126079 1.926683,4.397527 0.172135,4.797992 4.639392,1.235473 3.858545,2.856918 3.858546,-2.856918 4.639392,-1.235473 0.172134,-4.797992 1.926683,-4.397527 -3.643897,-3.126079 -2.236858,-4.248156 -4.716,0.899836 -4.715999,-0.899836 z" /><path
       id="polygon7849"
       style="fill:#5164da;stroke:#000000;stroke-width:0.988115"
       d="m 56.572373,11.389792 -3.643897,3.126079 1.926683,4.397527 0.172134,4.797992 4.639392,1.235473 3.858546,2.856918 3.858545,-2.856918 4.639392,-1.235473 0.172135,-4.797992 1.926683,-4.397527 -3.643898,-3.126079 -2.236858,-4.248155 -4.715999,0.8998347 -4.716,-0.8998347 z" /><g
       aria-label="iii"
       id="text8735"
       style="font-size:12.7px;font-family:Garamond;-inkscape-font-specification:Garamond;text-align:center;text-anchor:middle;stroke-width:0.257;stroke-linecap:square"
       transform="translate(-0.70967741,0.53225806)"><path
         d="m 89.79341,55.1687 q 0,-0.204639 0.155029,-0.353467 0.161231,-0.148828 0.384473,-0.148828 0.229443,0 0.403076,0.167431 0.173633,0.167432 0.173633,0.359668 0,0.192237 -0.173633,0.36587 -0.173633,0.167431 -0.403076,0.167431 -0.229444,0 -0.384473,-0.155029 Q 89.79341,55.416747 89.79341,55.1687 Z m -0.520899,3.212207 0.0062,-0.179834 q 0.403076,-0.117823 0.434082,-0.136426 0.223242,-0.09922 0.465087,-0.303857 0.248047,-0.204639 0.415479,-0.458887 0.07441,-0.0124 0.117822,-0.0124 l 0.07441,0.0062 q 0.02481,0.297656 0.02481,0.434082 0,0.03101 -0.0124,0.279052 V 58.3375 l 0.0062,1.785937 -0.0186,1.891357 q -0.0062,0.229444 0.07441,0.322461 0.08062,0.08682 0.477491,0.198438 0.248046,0.06821 0.37207,0.117822 0.0186,0.04341 0.0186,0.07441 0,0.03721 -0.031,0.09302 -0.241846,-0.0062 -0.620118,-0.03101 -0.514697,-0.04341 -0.682129,-0.04341 -0.08062,0 -0.992187,0.03101 -0.186035,0.0062 -0.359668,0.03101 -0.03101,0 -0.09922,-0.0186 -0.03101,-0.04341 -0.03101,-0.07441 0,-0.08682 0.117823,-0.136426 0.0248,-0.0124 0.632519,-0.142627 0.198438,-0.03721 0.260449,-0.124023 0.10542,-0.130225 0.10542,-0.415479 0.0124,-0.47749 0.0124,-2.616894 0,-0.427881 -0.03721,-0.533301 -0.03101,-0.07441 -0.167432,-0.167432 -0.130225,-0.09922 -0.564307,-0.198437 z"
         id="path10654" /><path
         d="m 92.701759,55.1687 q 0,-0.204639 0.15503,-0.353467 0.16123,-0.148828 0.384472,-0.148828 0.229444,0 0.403076,0.167431 0.173633,0.167432 0.173633,0.359668 0,0.192237 -0.173633,0.36587 -0.173632,0.167431 -0.403076,0.167431 -0.229443,0 -0.384472,-0.155029 -0.15503,-0.155029 -0.15503,-0.403076 z m -0.520898,3.212207 0.0062,-0.179834 q 0.403076,-0.117823 0.434082,-0.136426 0.223242,-0.09922 0.465088,-0.303857 0.248047,-0.204639 0.415478,-0.458887 0.07442,-0.0124 0.117823,-0.0124 l 0.07441,0.0062 q 0.0248,0.297656 0.0248,0.434082 0,0.03101 -0.0124,0.279052 V 58.3375 l 0.0062,1.785937 -0.0186,1.891357 q -0.0062,0.229444 0.07441,0.322461 0.08061,0.08682 0.47749,0.198438 0.248047,0.06821 0.37207,0.117822 0.0186,0.04341 0.0186,0.07441 0,0.03721 -0.03101,0.09302 -0.241846,-0.0062 -0.620117,-0.03101 -0.514697,-0.04341 -0.682129,-0.04341 -0.08062,0 -0.992188,0.03101 -0.186035,0.0062 -0.359667,0.03101 -0.03101,0 -0.09922,-0.0186 -0.03101,-0.04341 -0.03101,-0.07441 0,-0.08682 0.117822,-0.136426 0.02481,-0.0124 0.63252,-0.142627 0.198437,-0.03721 0.260449,-0.124023 0.10542,-0.130225 0.10542,-0.415479 0.0124,-0.47749 0.0124,-2.616894 0,-0.427881 -0.03721,-0.533301 -0.03101,-0.07441 -0.167432,-0.167432 -0.130224,-0.09922 -0.564306,-0.198437 z"
         id="path10656" /><path
         d="m 95.610109,55.1687 q 0,-0.204639 0.155029,-0.353467 0.161231,-0.148828 0.384473,-0.148828 0.229443,0 0.403076,0.167431 0.173633,0.167432 0.173633,0.359668 0,0.192237 -0.173633,0.36587 -0.173633,0.167431 -0.403076,0.167431 -0.229444,0 -0.384473,-0.155029 -0.155029,-0.155029 -0.155029,-0.403076 z m -0.520899,3.212207 0.0062,-0.179834 q 0.403076,-0.117823 0.434082,-0.136426 0.223242,-0.09922 0.465087,-0.303857 0.248047,-0.204639 0.415479,-0.458887 0.07441,-0.0124 0.117822,-0.0124 l 0.07441,0.0062 q 0.02481,0.297656 0.02481,0.434082 0,0.03101 -0.0124,0.279052 V 58.3375 l 0.0062,1.785937 -0.0186,1.891357 q -0.0062,0.229444 0.07441,0.322461 0.08062,0.08682 0.477491,0.198438 0.248046,0.06821 0.37207,0.117822 0.0186,0.04341 0.0186,0.07441 0,0.03721 -0.031,0.09302 -0.241846,-0.0062 -0.620118,-0.03101 -0.514697,-0.04341 -0.682129,-0.04341 -0.08062,0 -0.992187,0.03101 -0.186035,0.0062 -0.359668,0.03101 -0.03101,0 -0.09922,-0.0186 -0.03101,-0.04341 -0.03101,-0.07441 0,-0.08682 0.117823,-0.136426 0.0248,-0.0124 0.632519,-0.142627 0.198438,-0.03721 0.260449,-0.124023 0.10542,-0.130225 0.10542,-0.415479 0.0124,-0.47749 0.0124,-2.616894 0,-0.427881 -0.03721,-0.533301 -0.03101,-0.07441 -0.167432,-0.167432 -0.130225,-0.09922 -0.564307,-0.198437 z"
         id="path10658" /></g><g
       aria-label="iii7"
       id="text8735-8"
       style="font-size:12.7px;font-family:Garamond;-inkscape-font-specification:Garamond;text-align:center;text-anchor:middle;stroke-width:0.257;stroke-linecap:square"
       transform="translate(-0.70967741,0.53225806)"><path
         d="m 108.6126,73.602446 q 0,-0.204639 0.15503,-0.353467 0.16123,-0.148828 0.38447,-0.148828 0.22944,0 0.40308,0.167432 0.17363,0.167431 0.17363,0.359668 0,0.192236 -0.17363,0.365869 -0.17364,0.167432 -0.40308,0.167432 -0.22944,0 -0.38447,-0.15503 -0.15503,-0.155029 -0.15503,-0.403076 z m -0.5209,3.212207 0.006,-0.179834 q 0.40308,-0.117822 0.43408,-0.136426 0.22325,-0.09922 0.46509,-0.303857 0.24805,-0.204639 0.41548,-0.458887 0.0744,-0.0124 0.11782,-0.0124 l 0.0744,0.0062 q 0.0248,0.297656 0.0248,0.434082 0,0.03101 -0.0124,0.279053 v 0.328662 l 0.006,1.785937 -0.0186,1.891358 q -0.006,0.229443 0.0744,0.322461 0.0806,0.08682 0.47749,0.198437 0.24805,0.06821 0.37207,0.117822 0.0186,0.04341 0.0186,0.07442 0,0.03721 -0.031,0.09302 -0.24185,-0.0062 -0.62012,-0.03101 -0.5147,-0.04341 -0.68213,-0.04341 -0.0806,0 -0.99218,0.03101 -0.18604,0.0062 -0.35967,0.03101 -0.031,0 -0.0992,-0.0186 -0.031,-0.04341 -0.031,-0.07441 0,-0.08682 0.11783,-0.136426 0.0248,-0.0124 0.63251,-0.142627 0.19844,-0.03721 0.26045,-0.124023 0.10542,-0.130225 0.10542,-0.415479 0.0124,-0.47749 0.0124,-2.616894 0,-0.427881 -0.0372,-0.533301 -0.031,-0.07441 -0.16743,-0.167431 -0.13023,-0.09922 -0.56431,-0.198438 z"
         id="path10661" /><path
         d="m 111.52095,73.602446 q 0,-0.204639 0.15503,-0.353467 0.16123,-0.148828 0.38447,-0.148828 0.22944,0 0.40308,0.167432 0.17363,0.167431 0.17363,0.359668 0,0.192236 -0.17363,0.365869 -0.17364,0.167432 -0.40308,0.167432 -0.22944,0 -0.38447,-0.15503 -0.15503,-0.155029 -0.15503,-0.403076 z m -0.5209,3.212207 0.006,-0.179834 q 0.40308,-0.117822 0.43408,-0.136426 0.22325,-0.09922 0.46509,-0.303857 0.24805,-0.204639 0.41548,-0.458887 0.0744,-0.0124 0.11782,-0.0124 l 0.0744,0.0062 q 0.0248,0.297656 0.0248,0.434082 0,0.03101 -0.0124,0.279053 v 0.328662 l 0.006,1.785937 -0.0186,1.891358 q -0.006,0.229443 0.0744,0.322461 0.0806,0.08682 0.47749,0.198437 0.24805,0.06821 0.37207,0.117822 0.0186,0.04341 0.0186,0.07442 0,0.03721 -0.031,0.09302 -0.24185,-0.0062 -0.62012,-0.03101 -0.5147,-0.04341 -0.68213,-0.04341 -0.0806,0 -0.99219,0.03101 -0.18603,0.0062 -0.35966,0.03101 -0.031,0 -0.0992,-0.0186 -0.031,-0.04341 -0.031,-0.07441 0,-0.08682 0.11782,-0.136426 0.0248,-0.0124 0.63252,-0.142627 0.19844,-0.03721 0.26045,-0.124023 0.10542,-0.130225 0.10542,-0.415479 0.0124,-0.47749 0.0124,-2.616894 0,-0.427881 -0.0372,-0.533301 -0.031,-0.07441 -0.16743,-0.167431 -0.13023,-0.09922 -0.56431,-0.198438 z"
         id="path10663" /><path
         d="m 114.4293,73.602446 q 0,-0.204639 0.15503,-0.353467 0.16123,-0.148828 0.38447,-0.148828 0.22944,0 0.40308,0.167432 0.17363,0.167431 0.17363,0.359668 0,0.192236 -0.17363,0.365869 -0.17364,0.167432 -0.40308,0.167432 -0.22944,0 -0.38447,-0.15503 -0.15503,-0.155029 -0.15503,-0.403076 z m -0.5209,3.212207 0.006,-0.179834 q 0.40308,-0.117822 0.43408,-0.136426 0.22325,-0.09922 0.46509,-0.303857 0.24805,-0.204639 0.41548,-0.458887 0.0744,-0.0124 0.11782,-0.0124 l 0.0744,0.0062 q 0.0248,0.297656 0.0248,0.434082 0,0.03101 -0.0124,0.279053 v 0.328662 l 0.006,1.785937 -0.0186,1.891358 q -0.006,0.229443 0.0744,0.322461 0.0806,0.08682 0.47749,0.198437 0.24805,0.06821 0.37207,0.117822 0.0186,0.04341 0.0186,0.07442 0,0.03721 -0.031,0.09302 -0.24185,-0.0062 -0.62012,-0.03101 -0.5147,-0.04341 -0.68213,-0.04341 -0.0806,0 -0.99219,0.03101 -0.18603,0.0062 -0.35966,0.03101 -0.031,0 -0.0992,-0.0186 -0.031,-0.04341 -0.031,-0.07441 0,-0.08682 0.11782,-0.136426 0.0248,-0.0124 0.63252,-0.142627 0.19844,-0.03721 0.26045,-0.124023 0.10542,-0.130225 0.10542,-0.415479 0.0124,-0.47749 0.0124,-2.616894 0,-0.427881 -0.0372,-0.533301 -0.031,-0.07441 -0.16743,-0.167431 -0.13023,-0.09922 -0.56431,-0.198438 z"
         id="path10665" /><path
         d="m 116.75749,72.660008 q 0.339,-0.01378 0.91502,-0.01378 0.26183,0 0.59807,0.0083 0.20395,0.0083 0.26734,0.0083 l 0.26734,-0.0028 h 0.0634 q 0.022,0.02205 0.022,0.04134 0,0.03307 -0.0634,0.159853 -0.0303,0.05512 -0.26733,0.60358 -0.11576,0.270095 -0.28388,0.708311 l -0.34727,0.978407 q -0.12402,0.336241 -0.15985,0.468532 l -0.0634,0.256315 q -0.0386,0.112999 -0.0386,0.165365 0,0.04134 0.0468,0.129535 -0.0331,0.0441 -0.14883,0.0441 -0.0524,0 -0.0992,-0.0441 0.0165,-0.162608 0.10473,-0.429948 0.0331,-0.09646 0.113,-0.380338 0.0799,-0.283875 0.1571,-0.501605 l 0.31419,-0.854383 q 0.13505,-0.363802 0.26183,-0.669726 0.0441,-0.101975 0.0661,-0.143316 0.0579,-0.101975 0.0579,-0.168121 l -0.0358,0.0028 h -0.0303 l -0.3638,-0.01102 q -0.0165,0 -0.11576,0.0055 -0.0992,0.0055 -0.14883,0.0055 l -0.42719,-0.0028 h -0.12953 l -0.18191,-0.0055 q -0.15985,-0.0028 -0.20119,0.03858 -0.0386,0.03858 -0.0441,0.20395 -0.003,0.04134 -0.022,0.07993 -0.0303,0.0083 -0.0441,0.0083 -0.0303,0 -0.0799,-0.02205 0.003,-0.0689 0.003,-0.101974 l 0.006,-0.08268 -0.008,-0.151584 q 0,-0.198437 0.011,-0.267339 0.006,-0.02756 0.0303,-0.06339 z"
         style="font-size:5.64444px;baseline-shift:super"
         id="path10667" /></g><g
       aria-label="V"
       id="text8739"
       style="font-size:12.7px;font-family:Garamond;-inkscape-font-specification:Garamond;text-align:center;text-anchor:middle;stroke-width:0.257;stroke-linecap:square"
       transform="translate(-0.70967741,0.53225806)"><path
         d="m 83.161252,80.895917 0.04341,-0.10542 q 0.502295,0 1.00459,0.0124 h 0.204639 q 0.09302,0 0.204638,-0.0062 0.403076,-0.0186 1.457276,-0.0186 0.210839,0 0.409277,0.0062 0.198437,0 0.384473,0.0062 0.03721,0.0186 0.05581,0.05581 l -0.0124,0.09922 q -0.03721,0.06201 -0.186035,0.06201 h -0.04961 q -0.173633,-0.0062 -0.570508,0.03101 -0.396875,0.03101 -0.520898,0.124023 -0.08061,0.06821 -0.08061,0.179834 0,0.241846 0.204638,0.725537 l 0.942579,2.189014 0.328662,0.725537 q 0.47749,1.153418 0.942578,2.356445 0.04961,0.130225 0.09302,0.235645 L 88.43226,86.55759 q 0.322461,-0.768946 0.651123,-1.63711 l 0.427881,-1.16582 q 0.0124,-0.03721 0.06821,-0.248047 0.601513,-1.64331 0.601513,-2.077392 0,-0.09302 -0.08682,-0.186036 -0.08061,-0.09922 -0.26665,-0.16123 -0.07441,-0.02481 -0.483692,-0.07441 l -0.458887,-0.05581 q -0.05581,-0.06201 -0.05581,-0.10542 l 0.0186,-0.04961 2.00918,-0.0186 h 0.663525 q 0.334864,0 0.458887,0.04341 l 0.0062,0.04961 q 0,0.04961 -0.03721,0.130225 -0.148828,0.04961 -0.272851,0.06201 -0.520899,0.06201 -0.644922,0.148828 -0.124024,0.08062 -0.260449,0.353466 l -1.630909,4.030762 q -0.762744,1.816943 -1.085205,2.815332 L 87.87414,88.95125 q -0.08062,0.04961 -0.136425,0.04961 -0.06821,0 -0.148828,-0.0124 -0.73794,-1.909961 -1.203028,-2.951758 l -1.897558,-4.303613 q -0.204639,-0.384473 -0.310059,-0.458887 -0.09922,-0.08061 -0.713135,-0.223242 -0.217041,-0.04961 -0.241845,-0.06201 -0.04341,-0.03101 -0.06201,-0.09302 z"
         id="path10670" /></g><g
       aria-label="V7"
       id="text8739-9"
       style="font-size:12.7px;font-family:Garamond;-inkscape-font-specification:Garamond;text-align:center;text-anchor:middle;stroke-width:0.257;stroke-linecap:square"
       transform="translate(-0.70967741,0.53225806)"><path
         d="m 81.023013,107.95807 0.04341,-0.10542 q 0.502294,0 1.004589,0.0124 h 0.204639 q 0.09302,0 0.204639,-0.006 0.403076,-0.0186 1.457275,-0.0186 0.21084,0 0.409277,0.006 0.198438,0 0.384473,0.006 0.03721,0.0186 0.05581,0.0558 l -0.0124,0.0992 q -0.03721,0.062 -0.186035,0.062 h -0.04961 q -0.173633,-0.006 -0.570508,0.031 -0.396875,0.031 -0.520898,0.12403 -0.08062,0.0682 -0.08062,0.17983 0,0.24185 0.204639,0.72554 l 0.942578,2.18901 0.328662,0.72554 q 0.47749,1.15342 0.942578,2.35644 0.04961,0.13023 0.09302,0.23565 l 0.415478,-1.01699 q 0.322461,-0.76895 0.651123,-1.63711 l 0.427881,-1.16582 q 0.0124,-0.0372 0.06821,-0.24805 0.601514,-1.64331 0.601514,-2.07739 0,-0.093 -0.08682,-0.18604 -0.08061,-0.0992 -0.26665,-0.16123 -0.07441,-0.0248 -0.483691,-0.0744 l -0.458887,-0.0558 q -0.05581,-0.062 -0.05581,-0.10542 l 0.0186,-0.0496 2.00918,-0.0186 h 0.663525 q 0.334863,0 0.458887,0.0434 l 0.0062,0.0496 q 0,0.0496 -0.03721,0.13023 -0.148828,0.0496 -0.272852,0.062 -0.520898,0.062 -0.644922,0.14883 -0.124023,0.0806 -0.260449,0.35346 l -1.630908,4.03076 q -0.762744,1.81695 -1.085205,2.81534 l -0.179834,0.5395 q -0.08062,0.0496 -0.136426,0.0496 -0.06821,0 -0.148828,-0.0124 -0.737939,-1.90997 -1.203027,-2.95176 l -1.897559,-4.30362 q -0.204639,-0.38447 -0.310058,-0.45888 -0.09922,-0.0806 -0.713135,-0.22324 -0.217041,-0.0496 -0.241846,-0.062 -0.04341,-0.031 -0.06201,-0.093 z"
         id="path10673" /><path
         d="m 90.029871,107.25747 q 0.338997,-0.0138 0.915017,-0.0138 0.261827,0 0.598068,0.008 0.203949,0.008 0.267339,0.008 l 0.267339,-0.003 h 0.06339 q 0.02205,0.0221 0.02205,0.0414 0,0.0331 -0.06339,0.15985 -0.03032,0.0551 -0.267339,0.60358 -0.115756,0.27009 -0.283876,0.70831 l -0.347265,0.97841 q -0.124024,0.33624 -0.159853,0.46853 l -0.06339,0.25631 q -0.03859,0.113 -0.03859,0.16537 0,0.0413 0.04685,0.12953 -0.03307,0.0441 -0.148828,0.0441 -0.05237,0 -0.09922,-0.0441 0.01654,-0.16261 0.104731,-0.42995 0.03307,-0.0965 0.112999,-0.38033 0.07993,-0.28388 0.157096,-0.50161 l 0.314193,-0.85438 q 0.135047,-0.3638 0.261827,-0.66973 0.0441,-0.10197 0.06615,-0.14331 0.05788,-0.10198 0.05788,-0.16812 l -0.03583,0.003 h -0.03032 l -0.363802,-0.011 q -0.01654,0 -0.115755,0.006 -0.09922,0.006 -0.148828,0.006 l -0.427191,-0.003 h -0.129536 l -0.181901,-0.006 q -0.159852,-0.003 -0.201193,0.0386 -0.03858,0.0386 -0.0441,0.20395 -0.0028,0.0413 -0.02205,0.0799 -0.03032,0.008 -0.0441,0.008 -0.03032,0 -0.07993,-0.022 0.0028,-0.0689 0.0028,-0.10197 l 0.0055,-0.0827 -0.0083,-0.15159 q 0,-0.19843 0.01102,-0.26734 0.0055,-0.0276 0.03032,-0.0634 z"
         style="font-size:5.64444px;baseline-shift:super"
         id="path10675" /></g><g
       aria-label="vii"
       id="text8743"
       style="font-size:12.7px;font-family:Garamond;-inkscape-font-specification:Garamond;text-align:center;text-anchor:middle;stroke-width:0.257;stroke-linecap:square"
       transform="translate(-0.70967741,0.53225806)"><path
         d="m 57.284821,94.468466 q 0.68833,0.0062 1.203027,0.04341 0.365869,0 0.533301,-0.0124 0.117822,-0.0062 0.148828,-0.0062 l 0.694531,0.0062 q 0.142627,0.02481 0.229443,0.03101 0.03721,0.0124 0.06821,0.06821 0,0.06201 -0.03721,0.130224 -0.10542,0.03101 -0.217041,0.03721 -0.465088,0.04961 -0.781347,0.142626 -0.04341,0.03101 -0.04341,0.06201 0,0.06201 0.06201,0.192237 0.0124,0.031 0.05581,0.148828 l 0.620117,1.488281 q 0.415478,1.023193 0.768945,1.723926 0.241846,-0.458887 0.446485,-0.94878 0.204638,-0.489892 0.601513,-1.544091 0.111621,-0.297657 0.21084,-0.73794 0.0186,-0.08682 0.0186,-0.148828 0,-0.07441 -0.08682,-0.16123 -0.08062,-0.09302 -0.279053,-0.148829 -0.04341,-0.0062 -0.564306,-0.09302 -0.04341,-0.02481 -0.08062,-0.06821 V 94.6235 q 0,-0.03101 0.0062,-0.08062 0.148828,-0.0186 0.217041,-0.0186 l 0.731738,0.0062 q 0.07441,0 0.353467,-0.0186 0.985986,0 1.184424,0.0186 0.03721,0.0124 0.06821,0.07441 0,0.05581 -0.03721,0.124023 l -0.192237,0.04961 q -0.07441,0.0062 -0.117822,0.0124 -0.533301,0.04961 -0.657324,0.148828 -0.09302,0.06821 -0.291455,0.638721 -0.09302,0.279053 -0.272852,0.706934 l -0.322461,0.781347 q -0.06821,0.167432 -0.148828,0.365869 l -0.961182,2.22002 h -0.186035 q -0.05581,-0.148828 -0.136426,-0.310059 l -0.471289,-0.998388 -1.110009,-2.598291 q -0.334864,-0.756543 -0.403077,-0.818555 -0.06821,-0.06201 -0.793749,-0.260449 -0.03721,-0.09922 -0.03721,-0.142627 z"
         id="path10678" /><path
         d="m 64.186725,91.770957 q 0,-0.204639 0.155029,-0.353467 0.161231,-0.148828 0.384473,-0.148828 0.229443,0 0.403076,0.167431 0.173633,0.167432 0.173633,0.359668 0,0.192237 -0.173633,0.365869 -0.173633,0.167432 -0.403076,0.167432 -0.229443,0 -0.384473,-0.155029 -0.155029,-0.15503 -0.155029,-0.403076 z m -0.520899,3.212207 0.0062,-0.179834 q 0.403076,-0.117823 0.434082,-0.136426 0.223242,-0.09922 0.465088,-0.303858 0.248046,-0.204638 0.415478,-0.458886 0.07441,-0.0124 0.117822,-0.0124 l 0.07441,0.0062 q 0.02481,0.297657 0.02481,0.434082 0,0.03101 -0.0124,0.279053 v 0.328662 l 0.0062,1.785938 -0.0186,1.891357 q -0.0062,0.229444 0.07441,0.322461 0.08062,0.08682 0.477491,0.198438 0.248047,0.06821 0.37207,0.117822 0.0186,0.04341 0.0186,0.07441 0,0.03721 -0.03101,0.09302 -0.241846,-0.0062 -0.620118,-0.03101 -0.514697,-0.04341 -0.682128,-0.04341 -0.08062,0 -0.992188,0.03101 -0.186035,0.0062 -0.359668,0.03101 -0.03101,0 -0.09922,-0.0186 -0.03101,-0.04341 -0.03101,-0.07441 0,-0.08682 0.117822,-0.136426 0.0248,-0.0124 0.632519,-0.142627 0.198438,-0.03721 0.26045,-0.124024 0.105419,-0.130224 0.105419,-0.415478 0.0124,-0.47749 0.0124,-2.616895 0,-0.42788 -0.03721,-0.5333 -0.03101,-0.07441 -0.167432,-0.167432 -0.130224,-0.09922 -0.564307,-0.198437 z"
         id="path10680" /><path
         d="m 67.095075,91.770957 q 0,-0.204639 0.155029,-0.353467 0.161231,-0.148828 0.384473,-0.148828 0.229443,0 0.403076,0.167431 0.173633,0.167432 0.173633,0.359668 0,0.192237 -0.173633,0.365869 -0.173633,0.167432 -0.403076,0.167432 -0.229443,0 -0.384473,-0.155029 -0.155029,-0.15503 -0.155029,-0.403076 z m -0.520899,3.212207 0.0062,-0.179834 q 0.403076,-0.117823 0.434082,-0.136426 0.223242,-0.09922 0.465088,-0.303858 0.248046,-0.204638 0.415478,-0.458886 0.07441,-0.0124 0.117822,-0.0124 l 0.07441,0.0062 q 0.02481,0.297657 0.02481,0.434082 0,0.03101 -0.0124,0.279053 v 0.328662 l 0.0062,1.785938 -0.0186,1.891357 q -0.0062,0.229444 0.07441,0.322461 0.08062,0.08682 0.477491,0.198438 0.248047,0.06821 0.37207,0.117822 0.0186,0.04341 0.0186,0.07441 0,0.03721 -0.03101,0.09302 -0.241846,-0.0062 -0.620118,-0.03101 -0.514697,-0.04341 -0.682128,-0.04341 -0.08062,0 -0.992188,0.03101 -0.186035,0.0062 -0.359668,0.03101 -0.03101,0 -0.09922,-0.0186 -0.031,-0.04341 -0.031,-0.07441 0,-0.08682 0.117822,-0.136426 0.0248,-0.0124 0.632519,-0.142627 0.198438,-0.03721 0.26045,-0.124024 0.105419,-0.130224 0.105419,-0.415478 0.0124,-0.47749 0.0124,-2.616895 0,-0.42788 -0.03721,-0.5333 -0.03101,-0.07441 -0.167432,-0.167432 -0.130224,-0.09922 -0.564307,-0.198437 z"
         id="path10682" /></g><g
       aria-label="I"
       id="text8681"
       style="font-size:12.7px;font-family:Garamond;-inkscape-font-specification:Garamond;text-align:center;text-anchor:middle;stroke-width:0.257;stroke-linecap:square"
       transform="translate(-0.70967741,0.53225806)"><path
         d="m 75.488254,42.955672 q 0.136426,-0.05581 0.279053,-0.06821 0.948779,-0.06201 1.085205,-0.223243 0.136425,-0.167431 0.136425,-1.593701 l -0.0062,-0.651123 v -0.682129 l -0.0248,-0.750341 0.0124,-0.440284 -0.0062,-0.483691 v -0.57051 l -0.0124,-0.254248 0.0124,-0.322461 q 0.0062,-0.111621 0.0062,-0.260449 0,-0.390674 -0.03721,-0.824756 -0.02481,-0.08682 -0.06821,-0.167432 -0.229443,-0.117822 -0.744141,-0.155029 -0.508496,-0.04341 -0.576709,-0.09302 -0.04961,-0.03721 -0.05581,-0.192237 h 0.520898 l 1.643311,0.03721 q 0.632519,0 1.686718,-0.03721 0,0.09922 -0.0124,0.186035 -0.124023,0.03101 -0.415478,0.06821 -0.589112,0.06821 -0.719336,0.130225 -0.08062,0.03101 -0.117823,0.10542 -0.06201,0.111621 -0.07441,0.415478 l -0.03101,0.799951 0.0248,2.759522 v 1.091406 q -0.0124,0.514697 -0.0124,0.700733 0,0.694531 0.03101,0.886767 0.03721,0.192236 0.117822,0.279053 0.08682,0.08061 0.279053,0.130224 0.285254,0.06821 0.446484,0.07442 0.347266,0.0124 0.440283,0.09922 0.0186,0.08062 0.0186,0.136426 v 0.04961 q -0.564307,0.0186 -0.830957,0.0186 -0.15503,0 -0.551905,-0.0186 l -0.855761,0.0124 -1.457276,-0.0062 h -0.117822 z"
         id="path10685" /></g><g
       aria-label="I△"
       id="text8681-9"
       style="font-family:Garamond;-inkscape-font-specification:Garamond;text-align:center;baseline-shift:baseline;text-anchor:middle;stroke-width:0.257;stroke-linecap:square"
       transform="translate(-0.70967741,0.53225806)"><path
         d="m 100.45993,38.541404 q 0.13643,-0.05581 0.27906,-0.06821 0.94877,-0.06201 1.0852,-0.223242 0.13643,-0.167432 0.13643,-1.593701 l -0.006,-0.651123 v -0.682129 l -0.0248,-0.750342 0.0124,-0.440283 -0.006,-0.483692 v -0.570507 l -0.0124,-0.254248 0.0124,-0.322461 q 0.006,-0.111621 0.006,-0.26045 0,-0.390673 -0.0372,-0.824755 -0.0248,-0.08682 -0.0682,-0.167432 -0.22944,-0.117822 -0.74414,-0.155029 -0.50849,-0.04341 -0.57671,-0.09302 -0.0496,-0.03721 -0.0558,-0.192236 h 0.5209 l 1.64331,0.03721 q 0.63252,0 1.68672,-0.03721 0,0.09922 -0.0124,0.186035 -0.12403,0.03101 -0.41548,0.06821 -0.58911,0.06821 -0.71934,0.130224 -0.0806,0.03101 -0.11782,0.10542 -0.062,0.111621 -0.0744,0.415479 l -0.031,0.799951 0.0248,2.759521 v 1.091407 q -0.0124,0.514697 -0.0124,0.700732 0,0.694531 0.031,0.886768 0.0372,0.192236 0.11782,0.279052 0.0868,0.08062 0.27905,0.130225 0.28526,0.06821 0.44649,0.07441 0.34726,0.0124 0.44028,0.09922 0.0186,0.08061 0.0186,0.136426 v 0.04961 q -0.56431,0.0186 -0.83096,0.0186 -0.15503,0 -0.55191,-0.0186 l -0.85576,0.0124 -1.45727,-0.0062 h -0.11782 z"
         style="font-size:12.7px"
         id="path10688" /><path
         d="m 105.0364,33.959134 2.10288,-3.762045 2.10289,3.762045 z m 2.10288,-3.356902 -1.75562,3.163976 h 3.51125 z"
         style="font-size:4.93889px;baseline-shift:super"
         id="path10690" /></g><g
       aria-label="ii"
       id="text9473"
       style="font-size:12.7px;font-family:Garamond;-inkscape-font-specification:Garamond;text-align:center;text-anchor:middle;stroke-width:0.257;stroke-linecap:square"
       transform="translate(-0.70967741,0.53225806)"><path
         d="m 38.74491,80.07141 q 0,-0.204639 0.15503,-0.353467 0.16123,-0.148828 0.384472,-0.148828 0.229444,0 0.403077,0.167431 0.173632,0.167432 0.173632,0.359668 0,0.192237 -0.173632,0.36587 -0.173633,0.167431 -0.403077,0.167431 -0.229443,0 -0.384472,-0.155029 -0.15503,-0.155029 -0.15503,-0.403076 z m -0.520898,3.212207 0.0062,-0.179834 q 0.403076,-0.117823 0.434082,-0.136426 0.223242,-0.09922 0.465088,-0.303857 0.248047,-0.204639 0.415479,-0.458887 0.07441,-0.0124 0.117822,-0.0124 l 0.07441,0.0062 q 0.0248,0.297656 0.0248,0.434082 0,0.03101 -0.0124,0.279052 v 0.328663 l 0.0062,1.785937 -0.0186,1.891357 q -0.0062,0.229444 0.07441,0.322461 0.08062,0.08682 0.47749,0.198438 0.248047,0.06821 0.372071,0.117822 0.0186,0.04341 0.0186,0.07441 0,0.03721 -0.03101,0.09302 -0.241846,-0.0062 -0.620117,-0.03101 -0.514697,-0.04341 -0.682129,-0.04341 -0.08062,0 -0.992187,0.031 -0.186036,0.0062 -0.359668,0.03101 -0.03101,0 -0.09922,-0.0186 -0.03101,-0.04341 -0.03101,-0.07441 0,-0.08682 0.117822,-0.136426 0.02481,-0.0124 0.63252,-0.142627 0.198437,-0.03721 0.260449,-0.124023 0.10542,-0.130225 0.10542,-0.415479 0.0124,-0.47749 0.0124,-2.616894 0,-0.427881 -0.03721,-0.533301 -0.03101,-0.07441 -0.167431,-0.167432 -0.130225,-0.09922 -0.564307,-0.198437 z"
         id="path10693" /><path
         d="m 41.65326,80.07141 q 0,-0.204639 0.155029,-0.353467 0.161231,-0.148828 0.384473,-0.148828 0.229443,0 0.403076,0.167431 0.173633,0.167432 0.173633,0.359668 0,0.192237 -0.173633,0.36587 -0.173633,0.167431 -0.403076,0.167431 -0.229443,0 -0.384473,-0.155029 Q 41.65326,80.319457 41.65326,80.07141 Z m -0.520898,3.212207 0.0062,-0.179834 q 0.403076,-0.117823 0.434082,-0.136426 0.223242,-0.09922 0.465088,-0.303857 0.248046,-0.204639 0.415478,-0.458887 0.07441,-0.0124 0.117822,-0.0124 l 0.07441,0.0062 q 0.02481,0.297656 0.02481,0.434082 0,0.03101 -0.0124,0.279052 v 0.328663 l 0.0062,1.785937 -0.0186,1.891357 q -0.0062,0.229444 0.07442,0.322461 0.08062,0.08682 0.47749,0.198438 0.248047,0.06821 0.37207,0.117822 0.0186,0.04341 0.0186,0.07441 0,0.03721 -0.03101,0.09302 -0.241846,-0.0062 -0.620117,-0.03101 -0.514698,-0.04341 -0.682129,-0.04341 -0.08062,0 -0.992188,0.031 -0.186035,0.0062 -0.359668,0.03101 -0.03101,0 -0.09922,-0.0186 -0.03101,-0.04341 -0.03101,-0.07441 0,-0.08682 0.117822,-0.136426 0.02481,-0.0124 0.632519,-0.142627 0.198438,-0.03721 0.26045,-0.124023 0.10542,-0.130225 0.10542,-0.415479 0.0124,-0.47749 0.0124,-2.616894 0,-0.427881 -0.03721,-0.533301 -0.03101,-0.07441 -0.167432,-0.167432 -0.130224,-0.09922 -0.564306,-0.198437 z"
         id="path10695" /></g><g
       aria-label="ii7"
       id="text9473-0"
       style="font-size:12.7px;font-family:Garamond;-inkscape-font-specification:Garamond;text-align:center;text-anchor:middle;stroke-width:0.257;stroke-linecap:square"
       transform="translate(-0.70967741,0.53225806)"><path
         d="m 13.550649,73.247603 q 0,-0.204639 0.15503,-0.353467 0.16123,-0.148828 0.384472,-0.148828 0.229444,0 0.403076,0.167432 0.173633,0.167431 0.173633,0.359668 0,0.192236 -0.173633,0.365869 -0.173632,0.167431 -0.403076,0.167431 -0.229443,0 -0.384472,-0.155029 -0.15503,-0.155029 -0.15503,-0.403076 z m -0.520898,3.212207 0.0062,-0.179834 q 0.403076,-0.117822 0.434082,-0.136426 0.223242,-0.09922 0.465088,-0.303857 0.248047,-0.204639 0.415478,-0.458887 0.07441,-0.0124 0.117823,-0.0124 l 0.07441,0.0062 q 0.0248,0.297656 0.0248,0.434082 0,0.03101 -0.0124,0.279053 v 0.328662 l 0.0062,1.785937 -0.0186,1.891358 q -0.0062,0.229443 0.07441,0.322461 0.08061,0.08682 0.47749,0.198437 0.248047,0.06821 0.37207,0.117822 0.0186,0.04341 0.0186,0.07441 0,0.03721 -0.03101,0.09302 -0.241846,-0.0062 -0.620117,-0.03101 -0.514697,-0.04341 -0.682129,-0.04341 -0.08061,0 -0.992188,0.03101 -0.186035,0.0062 -0.359668,0.03101 -0.03101,0 -0.09922,-0.0186 -0.03101,-0.04341 -0.03101,-0.07441 0,-0.08682 0.117822,-0.136426 0.0248,-0.0124 0.63252,-0.142627 0.198437,-0.03721 0.260449,-0.124023 0.10542,-0.130225 0.10542,-0.415479 0.0124,-0.47749 0.0124,-2.616894 0,-0.427881 -0.03721,-0.533301 -0.03101,-0.07441 -0.167432,-0.167432 -0.130224,-0.09922 -0.564306,-0.198437 z"
         id="path10698" /><path
         d="m 16.458999,73.247603 q 0,-0.204639 0.155029,-0.353467 0.161231,-0.148828 0.384473,-0.148828 0.229443,0 0.403076,0.167432 0.173633,0.167431 0.173633,0.359668 0,0.192236 -0.173633,0.365869 -0.173633,0.167431 -0.403076,0.167431 -0.229444,0 -0.384473,-0.155029 -0.155029,-0.155029 -0.155029,-0.403076 z M 15.9381,76.45981 15.9443,76.279976 q 0.403076,-0.117822 0.434082,-0.136426 0.223242,-0.09922 0.465087,-0.303857 0.248047,-0.204639 0.415479,-0.458887 0.07441,-0.0124 0.117822,-0.0124 l 0.07441,0.0062 q 0.02481,0.297656 0.02481,0.434082 0,0.03101 -0.0124,0.279053 v 0.328662 l 0.0062,1.785937 -0.0186,1.891358 q -0.0062,0.229443 0.07441,0.322461 0.08062,0.08682 0.477491,0.198437 0.248046,0.06821 0.37207,0.117822 0.0186,0.04341 0.0186,0.07441 0,0.03721 -0.03101,0.09302 -0.241846,-0.0062 -0.620118,-0.03101 -0.514697,-0.04341 -0.682129,-0.04341 -0.08061,0 -0.992187,0.03101 -0.186035,0.0062 -0.359668,0.03101 -0.03101,0 -0.09922,-0.0186 -0.03101,-0.04341 -0.03101,-0.07441 0,-0.08682 0.117823,-0.136426 0.0248,-0.0124 0.632519,-0.142627 0.198438,-0.03721 0.260449,-0.124023 0.10542,-0.130225 0.10542,-0.415479 0.0124,-0.47749 0.0124,-2.616894 0,-0.427881 -0.03721,-0.533301 -0.03101,-0.07441 -0.167432,-0.167432 -0.130225,-0.09922 -0.564307,-0.198437 z"
         id="path10700" /><path
         d="m 18.787194,72.305165 q 0.338997,-0.01378 0.915017,-0.01378 0.261827,0 0.598068,0.0083 0.203949,0.0083 0.267339,0.0083 l 0.267339,-0.0028 h 0.06339 q 0.02205,0.02205 0.02205,0.04134 0,0.03307 -0.06339,0.159853 -0.03032,0.05512 -0.267339,0.60358 -0.115756,0.270095 -0.283876,0.708311 l -0.347265,0.978406 q -0.124024,0.336241 -0.159853,0.468533 l -0.06339,0.256315 q -0.03859,0.112999 -0.03859,0.165364 0,0.04134 0.04685,0.129536 -0.03307,0.0441 -0.148828,0.0441 -0.05237,0 -0.09922,-0.0441 0.01654,-0.162608 0.104731,-0.429948 0.03307,-0.09646 0.112999,-0.380338 0.07993,-0.283876 0.157096,-0.501605 l 0.314193,-0.854384 q 0.135047,-0.363801 0.261827,-0.669726 0.0441,-0.101974 0.06615,-0.143315 0.05788,-0.101975 0.05788,-0.168121 l -0.03583,0.0028 h -0.03032 l -0.363802,-0.01102 q -0.01654,0 -0.115755,0.0055 -0.09922,0.0055 -0.148828,0.0055 l -0.427191,-0.0028 H 19.31911 l -0.181901,-0.0055 q -0.159852,-0.0028 -0.201193,0.03858 -0.03859,0.03858 -0.0441,0.203949 -0.0028,0.04134 -0.02205,0.07993 -0.03032,0.0083 -0.0441,0.0083 -0.03032,0 -0.07993,-0.02205 0.0028,-0.0689 0.0028,-0.101975 l 0.0055,-0.08268 -0.0083,-0.151584 q 0,-0.198437 0.01102,-0.267339 0.0055,-0.02756 0.03032,-0.06339 z"
         style="font-size:5.64444px;baseline-shift:super"
         id="path10702" /></g><g
       aria-label="vi"
       id="text9477"
       style="font-size:12.7px;font-family:Garamond;-inkscape-font-specification:Garamond;text-align:center;text-anchor:middle;stroke-width:0.257;stroke-linecap:square"
       transform="translate(-0.70967741,0.53225806)"><path
         d="m 46.331616,37.207434 q 0.68833,0.0062 1.203028,0.04341 0.365869,0 0.5333,-0.0124 0.117823,-0.0062 0.148829,-0.0062 l 0.694531,0.0062 q 0.142627,0.02481 0.229443,0.03101 0.03721,0.0124 0.06821,0.06821 0,0.06201 -0.03721,0.130224 -0.10542,0.03101 -0.217041,0.03721 -0.465088,0.04961 -0.781348,0.142627 -0.04341,0.03101 -0.04341,0.06201 0,0.06201 0.06201,0.192236 0.0124,0.03101 0.05581,0.148829 l 0.620118,1.488281 q 0.415478,1.023193 0.768945,1.723926 0.241846,-0.458887 0.446484,-0.94878 0.204639,-0.489892 0.601514,-1.544092 0.111621,-0.297656 0.21084,-0.737939 0.0186,-0.08682 0.0186,-0.148828 0,-0.07441 -0.08682,-0.161231 -0.08062,-0.09302 -0.279053,-0.148828 -0.04341,-0.0062 -0.564307,-0.09302 -0.04341,-0.02481 -0.08061,-0.06821 v -0.04961 q 0,-0.03101 0.0062,-0.08062 0.148829,-0.0186 0.217041,-0.0186 l 0.731739,0.0062 q 0.07441,0 0.353466,-0.0186 0.985987,0 1.184424,0.0186 0.03721,0.0124 0.06821,0.07441 0,0.05581 -0.03721,0.124023 l -0.192236,0.04961 q -0.07441,0.0062 -0.117822,0.0124 -0.533301,0.04961 -0.657325,0.148828 -0.09302,0.06821 -0.291455,0.638721 -0.09302,0.279053 -0.272851,0.706933 l -0.322461,0.781348 q -0.06821,0.167432 -0.148828,0.365869 l -0.961182,2.22002 h -0.186035 q -0.05581,-0.148828 -0.136426,-0.310059 l -0.471289,-0.998388 -1.11001,-2.598291 q -0.334863,-0.756543 -0.403076,-0.818555 -0.06821,-0.06201 -0.79375,-0.260449 -0.03721,-0.09922 -0.03721,-0.142627 z"
         id="path10705" /><path
         d="m 53.233521,34.509924 q 0,-0.204638 0.155029,-0.353466 0.16123,-0.148828 0.384473,-0.148828 0.229443,0 0.403076,0.167431 0.173632,0.167432 0.173632,0.359668 0,0.192236 -0.173632,0.365869 -0.173633,0.167432 -0.403076,0.167432 -0.229444,0 -0.384473,-0.155029 -0.155029,-0.15503 -0.155029,-0.403077 z m -0.520899,3.212207 0.0062,-0.179834 q 0.403076,-0.117822 0.434082,-0.136425 0.223243,-0.09922 0.465088,-0.303858 0.248047,-0.204638 0.415479,-0.458886 0.07441,-0.0124 0.117822,-0.0124 l 0.07441,0.0062 q 0.02481,0.297657 0.02481,0.434082 0,0.03101 -0.0124,0.279053 v 0.328662 l 0.0062,1.785938 -0.0186,1.891357 q -0.0062,0.229443 0.07441,0.322461 0.08062,0.08682 0.47749,0.198438 0.248047,0.06821 0.372071,0.117822 0.0186,0.04341 0.0186,0.07441 0,0.03721 -0.03101,0.09302 -0.241845,-0.0062 -0.620117,-0.03101 -0.514697,-0.04341 -0.682129,-0.04341 -0.08062,0 -0.992187,0.03101 -0.186035,0.0062 -0.359668,0.03101 -0.03101,0 -0.09922,-0.0186 -0.03101,-0.04341 -0.03101,-0.07442 0,-0.08682 0.117822,-0.136425 0.02481,-0.0124 0.63252,-0.142627 0.198437,-0.03721 0.260449,-0.124024 0.10542,-0.130224 0.10542,-0.415478 0.0124,-0.47749 0.0124,-2.616895 0,-0.427881 -0.03721,-0.5333 -0.03101,-0.07442 -0.167431,-0.167432 -0.130225,-0.09922 -0.564307,-0.198438 z"
         id="path10707" /></g><g
       aria-label="vi7"
       id="text9477-9"
       style="font-size:12.7px;font-family:Garamond;-inkscape-font-specification:Garamond;text-align:center;text-anchor:middle;stroke-width:0.257;stroke-linecap:square"
       transform="translate(-0.70967741,0.53225806)"><path
         d="m 58.842494,15.330393 q 0.68833,0.0062 1.203028,0.04341 0.365869,0 0.5333,-0.0124 0.117823,-0.0062 0.148828,-0.0062 l 0.694532,0.0062 q 0.142627,0.0248 0.229443,0.03101 0.03721,0.0124 0.06821,0.06821 0,0.06201 -0.03721,0.130225 -0.10542,0.03101 -0.217041,0.03721 -0.465088,0.04961 -0.781348,0.142626 -0.04341,0.03101 -0.04341,0.06201 0,0.06201 0.06201,0.192237 0.0124,0.03101 0.05581,0.148828 l 0.620118,1.488281 q 0.415478,1.023193 0.768945,1.723926 0.241846,-0.458887 0.446484,-0.94878 0.204639,-0.489892 0.601514,-1.544091 0.111621,-0.297657 0.21084,-0.73794 0.0186,-0.08682 0.0186,-0.148828 0,-0.07441 -0.08682,-0.16123 -0.08062,-0.09302 -0.279053,-0.148829 -0.04341,-0.0062 -0.564307,-0.09302 -0.04341,-0.0248 -0.08062,-0.06821 v -0.04961 q 0,-0.03101 0.0062,-0.08062 0.148828,-0.0186 0.217041,-0.0186 l 0.731739,0.0062 q 0.07441,0 0.353466,-0.0186 0.985987,0 1.184424,0.0186 0.03721,0.0124 0.06821,0.07441 0,0.05581 -0.03721,0.124024 l -0.192236,0.04961 q -0.07441,0.0062 -0.117822,0.0124 -0.533301,0.04961 -0.657325,0.148828 -0.09302,0.06821 -0.291455,0.638721 -0.09302,0.279053 -0.272851,0.706934 l -0.322461,0.781347 q -0.06821,0.167432 -0.148828,0.365869 l -0.961182,2.22002 h -0.186035 q -0.05581,-0.148828 -0.136426,-0.310059 l -0.471289,-0.998388 -1.11001,-2.598291 q -0.334863,-0.756543 -0.403076,-0.818555 -0.06821,-0.06201 -0.79375,-0.260449 -0.03721,-0.09922 -0.03721,-0.142627 z"
         id="path10710" /><path
         d="m 65.744399,12.632884 q 0,-0.204639 0.155029,-0.353467 0.16123,-0.148828 0.384472,-0.148828 0.229444,0 0.403077,0.167431 0.173632,0.167432 0.173632,0.359668 0,0.192237 -0.173632,0.365869 -0.173633,0.167432 -0.403077,0.167432 -0.229443,0 -0.384472,-0.155029 -0.155029,-0.15503 -0.155029,-0.403076 z m -0.520899,3.212207 0.0062,-0.179834 q 0.403076,-0.117823 0.434082,-0.136426 0.223242,-0.09922 0.465088,-0.303858 0.248047,-0.204638 0.415479,-0.458886 0.07441,-0.0124 0.117822,-0.0124 l 0.07441,0.0062 q 0.02481,0.297657 0.02481,0.434083 0,0.03101 -0.0124,0.279052 v 0.328662 l 0.0062,1.785938 -0.0186,1.891357 q -0.0062,0.229444 0.07441,0.322461 0.08061,0.08682 0.47749,0.198438 0.248047,0.06821 0.372071,0.117822 0.0186,0.04341 0.0186,0.07441 0,0.03721 -0.03101,0.09302 -0.241845,-0.0062 -0.620117,-0.03101 -0.514697,-0.04341 -0.682129,-0.04341 -0.08061,0 -0.992187,0.03101 -0.186035,0.0062 -0.359668,0.03101 -0.03101,0 -0.09922,-0.0186 -0.03101,-0.04341 -0.03101,-0.07441 0,-0.08682 0.117822,-0.136426 0.02481,-0.0124 0.63252,-0.142627 0.198437,-0.03721 0.260449,-0.124024 0.10542,-0.130224 0.10542,-0.415478 0.0124,-0.47749 0.0124,-2.616895 0,-0.42788 -0.03721,-0.5333 -0.031,-0.07441 -0.167431,-0.167432 -0.130225,-0.09922 -0.564307,-0.198437 z"
         id="path10712" /><path
         d="m 68.072594,11.690446 q 0.338997,-0.01378 0.915017,-0.01378 0.261827,0 0.598068,0.0083 0.20395,0.0083 0.267339,0.0083 l 0.267339,-0.0028 h 0.06339 q 0.02205,0.02205 0.02205,0.04134 0,0.03307 -0.06339,0.159852 -0.03032,0.05512 -0.267339,0.603581 -0.115755,0.270095 -0.283876,0.708311 l -0.347265,0.978406 q -0.124024,0.336241 -0.159852,0.468533 l -0.06339,0.256315 q -0.03858,0.112999 -0.03858,0.165364 0,0.04134 0.04685,0.129536 -0.03307,0.0441 -0.148828,0.0441 -0.05236,0 -0.09922,-0.0441 0.01654,-0.162609 0.104731,-0.429948 0.03307,-0.09646 0.112999,-0.380338 0.07993,-0.283876 0.157096,-0.501606 l 0.314193,-0.854383 q 0.135048,-0.363802 0.261827,-0.669726 0.0441,-0.101975 0.06615,-0.143316 0.05788,-0.101975 0.05788,-0.16812 l -0.03583,0.0028 h -0.03032 l -0.363802,-0.01102 q -0.01654,0 -0.115755,0.0055 -0.09922,0.0055 -0.148828,0.0055 l -0.427192,-0.0028 h -0.129535 l -0.181901,-0.0055 q -0.159853,-0.0028 -0.201194,0.03858 -0.03858,0.03859 -0.0441,0.203949 -0.0028,0.04134 -0.02205,0.07993 -0.03032,0.0083 -0.0441,0.0083 -0.03032,0 -0.07993,-0.02205 0.0028,-0.0689 0.0028,-0.101975 l 0.0055,-0.08268 -0.0083,-0.151584 q 0,-0.198438 0.01102,-0.267339 0.0055,-0.02756 0.03032,-0.06339 z"
         style="font-size:5.64444px;baseline-shift:super"
         id="path10714" /></g><g
       aria-label="IV"
       id="text9481"
       style="font-size:12.7px;font-family:Garamond;-inkscape-font-specification:Garamond;text-align:center;text-anchor:middle;stroke-width:0.257;stroke-linecap:square"
       transform="translate(-0.70967741,0.53225806)"><path
         d="m 29.442284,63.311938 q 0.136426,-0.05581 0.279053,-0.06821 0.94878,-0.06201 1.085205,-0.223243 0.136426,-0.167431 0.136426,-1.593701 l -0.0062,-0.651123 V 60.09353 l -0.02481,-0.750341 0.0124,-0.440284 -0.0062,-0.483691 v -0.570508 l -0.0124,-0.254248 0.0124,-0.322461 q 0.0062,-0.111621 0.0062,-0.260449 0,-0.390674 -0.03721,-0.824756 -0.02481,-0.08682 -0.06821,-0.167432 -0.229444,-0.117822 -0.744141,-0.155029 -0.508496,-0.04341 -0.576709,-0.09302 -0.04961,-0.03721 -0.05581,-0.192237 h 0.520899 l 1.64331,0.03721 q 0.63252,0 1.686719,-0.03721 0,0.09922 -0.0124,0.186035 -0.124024,0.03101 -0.415479,0.06821 -0.589111,0.06821 -0.719336,0.130225 -0.08062,0.03101 -0.117822,0.10542 -0.06201,0.111621 -0.07441,0.415478 l -0.03101,0.799952 0.02481,2.759521 v 1.091406 q -0.0124,0.514697 -0.0124,0.700733 0,0.694531 0.03101,0.886767 0.03721,0.192236 0.117823,0.279053 0.08682,0.08062 0.279052,0.130224 0.285254,0.06821 0.446485,0.07442 0.347265,0.0124 0.440283,0.09922 0.0186,0.08062 0.0186,0.136426 v 0.04961 q -0.564306,0.0186 -0.830957,0.0186 -0.155029,0 -0.551904,-0.0186 l -0.855762,0.0124 -1.457275,-0.0062 h -0.117822 z"
         id="path10717" /><path
         d="m 33.566064,55.64729 0.04341,-0.10542 q 0.502295,0 1.00459,0.0124 H 34.8187 q 0.09302,0 0.204639,-0.0062 0.403076,-0.0186 1.457276,-0.0186 0.210839,0 0.409277,0.0062 0.198437,0 0.384473,0.0062 0.03721,0.0186 0.05581,0.05581 l -0.0124,0.09922 q -0.03721,0.06201 -0.186035,0.06201 h -0.04961 q -0.173633,-0.0062 -0.570508,0.03101 -0.396875,0.03101 -0.520898,0.124024 -0.08061,0.06821 -0.08061,0.179834 0,0.241845 0.204638,0.725537 l 0.942579,2.189013 0.328662,0.725537 q 0.47749,1.153418 0.942578,2.356446 0.04961,0.130224 0.09302,0.235644 L 38.83706,61.30896 q 0.322461,-0.768945 0.651123,-1.637109 l 0.427881,-1.165821 q 0.0124,-0.03721 0.06821,-0.248047 0.601513,-1.64331 0.601513,-2.077392 0,-0.09302 -0.08682,-0.186035 -0.08061,-0.09922 -0.266651,-0.161231 -0.07441,-0.0248 -0.483691,-0.07441 l -0.458887,-0.05581 q -0.05581,-0.06201 -0.05581,-0.10542 l 0.0186,-0.04961 2.00918,-0.0186 h 0.663525 q 0.334864,0 0.458887,0.04341 l 0.0062,0.04961 q 0,0.04961 -0.03721,0.130225 -0.148828,0.04961 -0.272851,0.06201 -0.520899,0.06201 -0.644922,0.148828 -0.124024,0.08062 -0.260449,0.353467 l -1.630909,4.030761 q -0.762744,1.816944 -1.085205,2.815332 L 38.27894,63.70262 q -0.08062,0.04961 -0.136425,0.04961 -0.06821,0 -0.148829,-0.0124 -0.737939,-1.909961 -1.203027,-2.951757 l -1.897558,-4.303614 q -0.204639,-0.384472 -0.310059,-0.458886 -0.09922,-0.08062 -0.713135,-0.223243 -0.217041,-0.04961 -0.241845,-0.06201 -0.04341,-0.03101 -0.06201,-0.09302 z"
         id="path10719" /></g><g
       aria-label="IV"
       id="text9481-2"
       style="font-family:Garamond;-inkscape-font-specification:Garamond;text-align:center;baseline-shift:baseline;text-anchor:middle;stroke-width:0.257;stroke-linecap:square"
       transform="translate(-0.70967741,0.53225806)"><path
         d="m 17.823832,39.698162 q 0.128906,-0.05273 0.263671,-0.06445 0.896485,-0.05859 1.025391,-0.210938 0.128906,-0.158203 0.128906,-1.505859 l -0.0059,-0.615234 v -0.644532 l -0.02344,-0.708984 0.01172,-0.416016 -0.0059,-0.457031 v -0.539062 l -0.01172,-0.240235 0.01172,-0.304687 q 0.0059,-0.105469 0.0059,-0.246094 0,-0.369141 -0.03516,-0.779297 -0.02344,-0.08203 -0.06445,-0.158203 -0.216797,-0.111328 -0.703125,-0.146484 -0.480469,-0.04102 -0.544922,-0.08789 -0.04687,-0.03516 -0.05273,-0.181641 h 0.492187 l 1.552734,0.03516 q 0.597657,0 1.59375,-0.03516 0,0.09375 -0.01172,0.175782 -0.117188,0.0293 -0.392578,0.06445 -0.556641,0.06445 -0.679688,0.123047 -0.07617,0.0293 -0.111328,0.09961 -0.05859,0.105469 -0.07031,0.392578 l -0.0293,0.75586 0.02344,2.607421 v 1.03125 q -0.01172,0.486329 -0.01172,0.66211 0,0.65625 0.0293,0.83789 0.03516,0.181641 0.111328,0.263672 0.08203,0.07617 0.263672,0.123047 0.269531,0.06445 0.421875,0.07031 0.328125,0.01172 0.416016,0.09375 0.01758,0.07617 0.01758,0.128906 v 0.04687 q -0.533203,0.01758 -0.785156,0.01758 -0.146485,0 -0.521485,-0.01758 l -0.808593,0.01172 -1.376954,-0.0059 H 17.83555 Z"
         style="baseline-shift:baseline"
         id="path10722" /><path
         d="m 21.720316,32.455975 0.04102,-0.09961 q 0.474609,0 0.949218,0.01172 h 0.19336 q 0.08789,0 0.193359,-0.0059 0.380859,-0.01758 1.376953,-0.01758 0.199219,0 0.386719,0.0059 0.1875,0 0.363281,0.0059 0.03516,0.01758 0.05273,0.05274 l -0.01172,0.09375 q -0.03516,0.05859 -0.175781,0.05859 h -0.04687 q -0.164063,-0.0059 -0.539063,0.0293 -0.375,0.0293 -0.492187,0.117188 -0.07617,0.06445 -0.07617,0.169922 0,0.228515 0.193359,0.685546 l 0.890625,2.06836 0.310547,0.685547 q 0.451172,1.089843 0.890625,2.226562 0.04687,0.123047 0.08789,0.222656 l 0.392578,-0.960937 q 0.304687,-0.726563 0.615234,-1.546875 l 0.404297,-1.101563 q 0.01172,-0.03516 0.06445,-0.234375 0.568359,-1.552734 0.568359,-1.96289 0,-0.08789 -0.08203,-0.175781 -0.07617,-0.09375 -0.251953,-0.152344 -0.07031,-0.02344 -0.457031,-0.07031 l -0.433594,-0.05273 q -0.05273,-0.05859 -0.05273,-0.09961 l 0.01758,-0.04687 1.898437,-0.01758 h 0.626953 q 0.316407,0 0.433594,0.04102 l 0.0059,0.04687 q 0,0.04687 -0.03516,0.123047 -0.140625,0.04687 -0.257812,0.05859 -0.492188,0.05859 -0.609375,0.140625 -0.117188,0.07617 -0.246094,0.333984 l -1.541016,3.808594 q -0.720703,1.716797 -1.02539,2.660156 l -0.169922,0.509766 q -0.07617,0.04687 -0.128906,0.04687 -0.06445,0 -0.140625,-0.01172 -0.697266,-1.804688 -1.136719,-2.789063 l -1.793014,-4.06645 q -0.193359,-0.363281 -0.292969,-0.433594 -0.09375,-0.07617 -0.673828,-0.210937 -0.205078,-0.04687 -0.228515,-0.05859 -0.04102,-0.0293 -0.05859,-0.08789 z"
         style="baseline-shift:baseline"
         id="path10724" /></g><g
       aria-label="°"
       id="text9521"
       style="font-size:8.46667px;font-family:Garamond;-inkscape-font-specification:Garamond;text-align:center;text-anchor:middle;stroke-width:0.257;stroke-linecap:square"
       transform="translate(-0.70967741,0.53225806)"><path
         d="m 70.460274,92.149792 q 0.533301,0 0.901238,0.37207 0.37207,0.372071 0.37207,0.901238 0,0.525032 -0.37207,0.897103 -0.372071,0.37207 -0.901238,0.37207 -0.525033,0 -0.897103,-0.37207 -0.37207,-0.372071 -0.37207,-0.897103 0,-0.529167 0.367936,-0.901238 0.37207,-0.37207 0.901237,-0.37207 z m 0,0.347265 q -0.384473,0 -0.65319,0.268718 -0.268718,0.268718 -0.268718,0.65319 0,0.380339 0.268718,0.653191 0.268717,0.268717 0.65319,0.268717 0.380339,0 0.649056,-0.268717 0.272852,-0.272852 0.272852,-0.653191 0,-0.384472 -0.268717,-0.65319 -0.268718,-0.268718 -0.653191,-0.268718 z"
         id="path10727" /></g><g
       aria-label="vii"
       id="text8743-3"
       style="font-size:12.7px;font-family:Garamond;-inkscape-font-specification:Garamond;text-align:center;text-anchor:middle;stroke-width:0.257;stroke-linecap:square"
       transform="translate(-0.70967741,0.53225806)"><path
         d="m 35.73143,109.54007 q 0.68833,0.006 1.203027,0.0434 0.36587,0 0.533301,-0.0124 0.117823,-0.006 0.148828,-0.006 l 0.694532,0.006 q 0.142627,0.0248 0.229443,0.031 0.03721,0.0124 0.06821,0.0682 0,0.062 -0.03721,0.13023 -0.10542,0.031 -0.217041,0.0372 -0.465088,0.0496 -0.781348,0.14263 -0.04341,0.031 -0.04341,0.062 0,0.062 0.06201,0.19224 0.0124,0.031 0.05581,0.14883 l 0.620117,1.48828 q 0.415479,1.02319 0.768946,1.72392 0.241845,-0.45888 0.446484,-0.94877 0.204639,-0.4899 0.601514,-1.5441 0.111621,-0.29765 0.21084,-0.73794 0.0186,-0.0868 0.0186,-0.14882 0,-0.0744 -0.08682,-0.16123 -0.08062,-0.093 -0.279053,-0.14883 -0.04341,-0.006 -0.564307,-0.093 -0.04341,-0.0248 -0.08062,-0.0682 v -0.0496 q 0,-0.031 0.0062,-0.0806 0.148828,-0.0186 0.217041,-0.0186 l 0.731739,0.006 q 0.07441,0 0.353466,-0.0186 0.985987,0 1.184424,0.0186 0.03721,0.0124 0.06821,0.0744 0,0.0558 -0.03721,0.12403 l -0.192236,0.0496 q -0.07441,0.006 -0.117823,0.0124 -0.5333,0.0496 -0.657324,0.14883 -0.09302,0.0682 -0.291455,0.63872 -0.09302,0.27905 -0.272851,0.70693 l -0.322461,0.78135 q -0.06821,0.16743 -0.148828,0.36587 l -0.961182,2.22002 h -0.186035 q -0.05581,-0.14883 -0.136426,-0.31006 l -0.471289,-0.99839 -1.11001,-2.59829 q -0.334863,-0.75654 -0.403076,-0.81856 -0.06821,-0.062 -0.79375,-0.26044 -0.03721,-0.0992 -0.03721,-0.14263 z"
         id="path10730" /><path
         d="m 42.633334,106.84256 q 0,-0.20464 0.15503,-0.35347 0.16123,-0.14883 0.384472,-0.14883 0.229444,0 0.403077,0.16744 0.173632,0.16743 0.173632,0.35966 0,0.19224 -0.173632,0.36587 -0.173633,0.16743 -0.403077,0.16743 -0.229443,0 -0.384472,-0.15503 -0.15503,-0.15502 -0.15503,-0.40307 z m -0.520898,3.21221 0.0062,-0.17984 q 0.403076,-0.11782 0.434082,-0.13642 0.223242,-0.0992 0.465088,-0.30386 0.248047,-0.20464 0.415479,-0.45889 0.07441,-0.0124 0.117822,-0.0124 l 0.07441,0.006 q 0.02481,0.29766 0.02481,0.43408 0,0.031 -0.0124,0.27906 v 0.32866 l 0.0062,1.78593 -0.0186,1.89136 q -0.0062,0.22945 0.07441,0.32246 0.08062,0.0868 0.47749,0.19844 0.248047,0.0682 0.372071,0.11782 0.0186,0.0434 0.0186,0.0744 0,0.0372 -0.03101,0.093 -0.241846,-0.006 -0.620117,-0.031 -0.514697,-0.0434 -0.682129,-0.0434 -0.08062,0 -0.992187,0.031 -0.186036,0.006 -0.359668,0.031 -0.03101,0 -0.09922,-0.0186 -0.03101,-0.0434 -0.03101,-0.0744 0,-0.0868 0.117822,-0.13642 0.02481,-0.0124 0.63252,-0.14263 0.198437,-0.0372 0.260449,-0.12402 0.10542,-0.13023 0.10542,-0.41548 0.0124,-0.47749 0.0124,-2.61689 0,-0.42789 -0.03721,-0.53331 -0.03101,-0.0744 -0.167431,-0.16743 -0.130225,-0.0992 -0.564307,-0.19843 z"
         id="path10732" /><path
         d="m 45.541684,106.84256 q 0,-0.20464 0.15503,-0.35347 0.16123,-0.14883 0.384472,-0.14883 0.229444,0 0.403077,0.16744 0.173632,0.16743 0.173632,0.35966 0,0.19224 -0.173632,0.36587 -0.173633,0.16743 -0.403077,0.16743 -0.229443,0 -0.384472,-0.15503 -0.15503,-0.15502 -0.15503,-0.40307 z m -0.520898,3.21221 0.0062,-0.17984 q 0.403076,-0.11782 0.434082,-0.13642 0.223242,-0.0992 0.465088,-0.30386 0.248047,-0.20464 0.415479,-0.45889 0.07441,-0.0124 0.117822,-0.0124 l 0.07441,0.006 q 0.02481,0.29766 0.02481,0.43408 0,0.031 -0.0124,0.27906 v 0.32866 l 0.0062,1.78593 -0.0186,1.89136 q -0.0062,0.22945 0.07441,0.32246 0.08062,0.0868 0.47749,0.19844 0.248047,0.0682 0.37207,0.11782 0.0186,0.0434 0.0186,0.0744 0,0.0372 -0.03101,0.093 -0.241846,-0.006 -0.620117,-0.031 -0.514697,-0.0434 -0.682129,-0.0434 -0.08062,0 -0.992187,0.031 -0.186036,0.006 -0.359668,0.031 -0.03101,0 -0.09922,-0.0186 -0.03101,-0.0434 -0.03101,-0.0744 0,-0.0868 0.117822,-0.13642 0.02481,-0.0124 0.63252,-0.14263 0.198437,-0.0372 0.260449,-0.12402 0.10542,-0.13023 0.10542,-0.41548 0.0124,-0.47749 0.0124,-2.61689 0,-0.42789 -0.03721,-0.53331 -0.03101,-0.0744 -0.167431,-0.16743 -0.130225,-0.0992 -0.564307,-0.19843 z"
         id="path10734" /></g><g
       aria-label="ø"
       id="text9521-8"
       style="font-size:7.05556px;font-family:Garamond;-inkscape-font-specification:Garamond;text-align:center;text-anchor:middle;stroke-width:0.257;stroke-linecap:square"
       transform="translate(-0.70967741,0.53225806)"><path
         d="m 49.840854,107.5494 q 0.08957,-0.0827 0.310058,-0.34795 0.06546,0.0482 0.09991,0.093 l -0.285943,0.34451 0.313504,0.40652 q 0.08957,0.15158 0.148139,0.3824 0.04479,0.17226 0.04479,0.46854 0,0.0896 -0.09302,0.35484 -0.04134,0.12058 -0.192926,0.3204 -0.148139,0.19981 -0.347955,0.34451 -0.19637,0.14469 -0.454752,0.21359 -0.258383,0.0724 -0.492649,0.0724 -0.279053,0 -0.468534,-0.0586 -0.186035,-0.0586 -0.434082,-0.21359 -0.05857,0.0654 -0.113688,0.13091 -0.05512,0.0655 -0.186036,0.21704 -0.04479,-0.031 -0.09991,-0.0827 l 0.01033,-0.0172 q 0.241157,-0.2756 0.279053,-0.33073 -0.261828,-0.26182 -0.382406,-0.52021 -0.117133,-0.26182 -0.117133,-0.57877 0,-0.36863 0.144694,-0.65113 0.148139,-0.28249 0.36518,-0.46508 0.217041,-0.18259 0.465088,-0.26183 0.248047,-0.0792 0.658014,-0.0792 0.237712,0 0.399631,0.0482 0.210151,0.0655 0.430638,0.21015 z m -1.760445,2.03261 1.567519,-1.79489 q -0.06201,-0.10336 -0.1757,-0.18948 -0.113688,-0.0896 -0.244602,-0.12747 -0.1757,-0.0551 -0.285943,-0.0551 -0.186035,0 -0.430637,0.093 -0.158475,0.0586 -0.303169,0.22049 -0.144694,0.15847 -0.223931,0.42375 -0.07579,0.26527 -0.07579,0.70969 0,0.42374 0.172255,0.72002 z m 1.212674,0.39619 q 0.306614,-0.1068 0.499539,-0.49954 0.110243,-0.23082 0.144694,-0.7717 l -0.05857,-0.39274 q -0.02756,-0.0724 -0.04823,-0.15848 -0.02756,-0.12058 -0.04479,-0.15158 -0.01723,-0.031 -0.07235,-0.0792 l -1.539959,1.79834 q 0.120579,0.16192 0.303169,0.25149 0.18259,0.0896 0.403076,0.0896 0.186036,0 0.413412,-0.0861 z"
         id="path10737" /></g><g
       aria-label="△"
       id="text9779"
       style="font-size:4.9389px;font-family:Garamond;-inkscape-font-specification:Garamond;text-align:center;text-anchor:middle;stroke-width:0.257;stroke-linecap:square"
       transform="translate(-0.70967741,0.53225806)"><path
         d="m 29.281039,35.680582 2.102891,-3.762053 2.102891,3.762053 z m 2.102891,-3.356909 -1.755624,3.163983 h 3.511249 z"
         id="path10740" /></g><g
       aria-label="Major Scale"
       id="text9783"
       style="font-size:4.9389px;font-family:Garamond;-inkscape-font-specification:Garamond;text-align:center;text-anchor:middle;stroke-width:0.257;stroke-linecap:square"
       transform="translate(-0.70967741,0.53225806)"><path
         d="m 58.194127,64.702606 q 0.07476,-0.05064 0.270096,-0.07235 0.151929,-0.0072 0.180868,-0.02653 0.01929,-0.01447 0.02894,-0.03617 0.03617,-0.08923 0.05305,-0.484726 0.0217,-0.513665 0.06994,-1.367362 0.03858,-0.651124 0.03858,-0.8127 v -0.0627 q -0.173633,-0.03617 -0.549838,-0.07717 -0.02412,-0.03617 -0.02412,-0.05547 0,-0.01206 0.01688,-0.04341 0.041,-0.01447 0.0627,-0.01447 0.01929,0 0.0844,0.0096 0.118167,0.01688 0.325562,0.01688 0.06752,0 0.231511,-0.0096 0.115755,-0.0072 0.130225,-0.0072 0.03859,0 0.08923,0.01206 0.02412,0.02412 0.03617,0.04582 l 0.101286,0.226688 0.682475,1.509644 0.282153,0.634244 q 0.335209,-0.663183 0.5209,-1.179259 0.01206,-0.03859 0.02894,-0.06994 0.0217,-0.041 0.041,-0.09164 0.01929,-0.05064 0.156752,-0.385852 0.05547,-0.135048 0.08923,-0.231511 0.13746,-0.385851 0.161575,-0.441318 0.04582,-0.01688 0.07958,-0.01688 0.03859,0 0.09887,0.0048 0.135048,0.0072 0.438906,0.0072 0.188103,0 0.308681,-0.0048 0.0048,0.02653 0.0048,0.03858 0,0.01688 -0.0072,0.04582 -0.07717,0.041 -0.185691,0.04582 -0.21463,0.01206 -0.272508,0.03376 -0.05788,0.0217 -0.07476,0.05547 -0.01447,0.03376 -0.02653,0.221865 l 0.0024,0.110932 -0.0024,0.115756 q 0,0.361735 0.01929,1.215432 l -0.0024,0.472668 0.0024,0.303858 q 0,0.178457 0.01688,0.212219 0.01688,0.03135 0.09646,0.06029 0.130225,0.04341 0.424437,0.08923 0.01688,0.01206 0.01688,0.03135 0,0.0217 -0.0024,0.04823 h -0.110932 q -0.142283,0 -0.308681,-0.0096 -0.166399,-0.0072 -0.178456,-0.0072 -0.494373,0 -0.655948,0.0096 -0.09887,0.0072 -0.125402,0.0072 -0.01688,0 -0.03617,-0.0096 v -0.03135 q 0,-0.0217 0.0072,-0.04582 0.07958,-0.03376 0.217042,-0.04582 0.151929,-0.041 0.221864,-0.08682 0.0217,-0.09164 0.0217,-0.373794 l -0.0072,-0.487137 q 0,-0.07958 0.0072,-0.296624 0.0096,-0.217041 0.0096,-0.70659 0,-0.388264 -0.01929,-0.588424 -0.041,0.0844 -0.161575,0.366559 l -0.03617,0.09164 -0.0048,0.01447 -0.356913,0.84405 -0.127813,0.325563 -0.166398,0.395498 q -0.108521,0.272507 -0.185691,0.482314 -0.03376,0.09646 -0.05547,0.151929 l -0.05547,-0.0024 q -0.272507,-0.795818 -0.651124,-1.632634 -0.376205,-0.836816 -0.528135,-1.1045 -0.01929,0.103698 -0.04341,0.602893 -0.03135,0.607716 -0.03135,1.338423 0,0.229099 0.03376,0.516076 0.0096,0.08199 0.06994,0.12299 0.06029,0.03859 0.311093,0.04341 0.09646,0 0.18328,0.01447 0.01688,0.03617 0.01688,0.05306 0,0.01206 -0.01206,0.041 l -0.749999,-0.02653 q -0.08199,0 -0.255627,0.01206 -0.09646,0.0072 -0.277331,0.0096 z"
         id="path10743" /><path
         d="m 64.237527,64.430098 q 0.01447,0.03135 0.01447,0.04582 0,0.03617 -0.05788,0.127813 -0.07476,0.120579 -0.166398,0.176045 -0.05788,0.03617 -0.159164,0.03617 -0.173633,0 -0.26045,-0.10611 -0.05305,-0.0627 -0.07476,-0.224276 l -0.270096,0.188103 q -0.142283,0.08199 -0.217042,0.103697 -0.120579,0.03135 -0.289389,0.03135 -0.12299,0 -0.195337,-0.07235 -0.06994,-0.07476 -0.06994,-0.190514 0,-0.166399 0.202573,-0.39791 0.204983,-0.231511 0.554661,-0.378617 0.245981,-0.103697 0.301447,-0.132636 0.0048,-0.07958 0.0048,-0.173633 0,-0.30627 -0.08682,-0.414791 -0.0844,-0.108521 -0.243569,-0.108521 -0.166398,0 -0.311092,0.130225 -0.08923,0.08199 -0.135048,0.308682 -0.01447,0.0627 -0.05547,0.135048 -0.103697,0.06752 -0.166398,0.06752 -0.05306,0 -0.09646,-0.03135 -0.02412,-0.01688 -0.02412,-0.03859 0,-0.0627 0.132637,-0.282154 0.135048,-0.221865 0.33762,-0.330385 0.204984,-0.110933 0.356913,-0.110933 0.207395,0 0.308681,0.03859 0.101286,0.03617 0.178456,0.130224 0.07717,0.09405 0.09405,0.204984 0.0096,0.05306 0.0096,0.378617 l -0.0072,0.38344 0.0024,0.279742 q 0,0.05547 -0.0024,0.09405 -0.0024,0.06994 -0.0024,0.103697 0,0.07958 0.04582,0.127814 0.04582,0.04823 0.108521,0.04823 0.09164,0 0.156752,-0.09164 l 0.02894,-0.03858 q 0.01206,-0.0072 0.05306,-0.01688 z m -0.709002,-0.06994 q 0.01688,-0.306269 0.01688,-0.431671 0,-0.06511 -0.0072,-0.176045 -0.161576,0.05788 -0.342443,0.176045 -0.180868,0.118167 -0.286978,0.272508 -0.07717,0.110932 -0.07717,0.209806 0,0.09405 0.0627,0.156753 0.06511,0.0627 0.161575,0.0627 0.07476,0 0.180868,-0.05306 0.139871,-0.06994 0.291801,-0.217042 z"
         id="path10745" /><path
         d="m 64.592028,61.840069 q 0,-0.09164 0.06029,-0.151929 0.0627,-0.0627 0.149518,-0.0627 0.08923,0 0.149517,0.06029 0.0627,0.06029 0.0627,0.156752 0,0.09887 -0.06752,0.173633 -0.04823,0.05306 -0.142283,0.05306 -0.08923,0 -0.151929,-0.0627 -0.06029,-0.06511 -0.06029,-0.166399 z m -0.207395,4.162374 0.183279,-0.224276 q 0.06511,-0.103698 0.101286,-0.217042 0.03859,-0.113343 0.05306,-0.279742 0.0217,-0.277331 0.0217,-0.487138 0,-0.06029 -0.0048,-0.16881 l 0.0024,-0.376205 q 0.0024,-0.706591 -0.0096,-0.911574 -0.0072,-0.127813 -0.03858,-0.159164 -0.04582,-0.04341 -0.209807,-0.05788 -0.01688,-0.0024 -0.04823,-0.0048 l 0.0048,-0.09164 q 0.315916,-0.07958 0.458199,-0.267684 0.03135,-0.03858 0.06994,-0.07717 l 0.01688,-0.0024 q 0.01206,0 0.03376,0.0096 l 0.0072,0.877813 q 0.01688,0.918809 0.01688,0.998391 0,0.463021 -0.04823,0.670417 -0.04582,0.209806 -0.176045,0.417202 -0.09164,0.144694 -0.262862,0.299035 l -0.09887,0.08923 -0.03376,0.01929 q -0.0217,-0.01929 -0.03859,-0.05547 z"
         id="path10747" /><path
         d="m 65.590419,63.78862 q 0,-0.163987 0.06752,-0.349678 0.06994,-0.188103 0.209807,-0.335209 0.139871,-0.149517 0.296623,-0.221864 0.219453,-0.101286 0.535369,-0.101286 0.450964,0 0.752411,0.308681 0.303858,0.308681 0.303858,0.742764 0,0.385852 -0.318328,0.68971 -0.315916,0.301446 -0.800642,0.301446 -0.299035,0 -0.564308,-0.156752 -0.197749,-0.118167 -0.340031,-0.349678 -0.142283,-0.231511 -0.142283,-0.528134 z m 1.065915,0.940513 q 0.183279,0 0.352089,-0.09887 0.171222,-0.09887 0.272508,-0.315916 0.101286,-0.219453 0.101286,-0.506431 0,-0.188102 -0.07958,-0.436494 -0.07717,-0.248392 -0.241157,-0.371382 -0.161575,-0.125402 -0.381029,-0.125402 -0.159163,0 -0.325562,0.07476 -0.163987,0.07476 -0.279742,0.286977 -0.113344,0.212218 -0.113344,0.602893 0,0.438906 0.197749,0.665594 0.20016,0.224276 0.496784,0.224276 z"
         id="path10749" /><path
         d="m 68.033341,64.765307 -0.0096,-0.03135 q 0,-0.01688 0.0217,-0.05064 l 0.142283,-0.02894 0.200161,-0.03617 q 0.02411,-0.01206 0.03376,-0.03376 0.01447,-0.03135 0.01447,-0.185691 0,-0.819935 -0.0096,-0.945337 -0.0096,-0.127813 -0.04341,-0.161575 -0.03376,-0.03376 -0.173633,-0.05306 -0.08199,-0.01206 -0.130225,-0.03135 l 0.0096,-0.07235 q 0.253215,-0.103698 0.340031,-0.178457 0.120579,-0.10852 0.204984,-0.284565 l 0.08199,0.0024 q 0.01447,0.120579 0.01447,0.53537 l -0.0024,0.041 q 0,0.01447 0.0048,0.04582 0.09164,-0.166398 0.2291,-0.30627 l 0.05547,-0.05547 q 0.03376,-0.03858 0.06511,-0.06029 0.16881,-0.101286 0.250804,-0.101286 0.106109,0 0.173633,0.07235 0.06752,0.06994 0.06752,0.173633 0,0.08199 -0.04823,0.127814 -0.06511,0.06029 -0.149518,0.06029 -0.03858,0 -0.151929,-0.041 -0.113344,-0.041 -0.149517,-0.041 -0.06752,0 -0.09405,0.02171 -0.06752,0.05305 -0.163987,0.217041 -0.07476,0.12299 -0.07476,0.226688 l 0.01206,0.397909 0.0048,0.477492 q 0.0072,0.08199 0.01929,0.106109 0.0096,0.01688 0.04823,0.041 0.260449,0.0217 0.308681,0.03135 0.03376,0.0024 0.05064,0.0048 0.103698,0.0024 0.144694,0.02894 0.0217,0.01206 0.0217,0.03617 0,0.01447 -0.01929,0.03858 l -0.267685,-0.0024 -0.101286,-0.0024 -0.147106,0.0024 h -0.24598 l -0.132636,0.0072 z"
         id="path10751" /><path
         d="m 60.979493,67.955817 q 0.01929,0.159163 0.01929,0.183279 l -0.0096,0.21463 q -0.0048,0.13746 -0.01206,0.176045 -0.0217,0.0096 -0.03617,0.0096 l -0.0217,-0.0048 q -0.07717,-0.33762 -0.262861,-0.491961 -0.183279,-0.15434 -0.448552,-0.15434 -0.27492,0 -0.450964,0.15434 -0.176045,0.154341 -0.176045,0.359325 0,0.156752 0.12299,0.286977 0.12299,0.130225 0.62942,0.390674 0.385852,0.200161 0.55225,0.327974 0.166399,0.125402 0.250804,0.2918 0.0844,0.166399 0.0844,0.371383 0,0.258038 -0.135048,0.484726 -0.132637,0.226687 -0.359324,0.342443 -0.226688,0.113344 -0.600482,0.113344 -0.325562,0 -0.624597,-0.103698 -0.176045,-0.0627 -0.21463,-0.101286 -0.03858,-0.03859 -0.03858,-0.08199 0,-0.02653 0.0048,-0.06752 0.03376,-0.284566 0.03617,-0.467845 0.0048,-0.113344 0.01688,-0.132637 0.0096,-0.01688 0.03617,-0.01688 0.0217,0 0.03376,0.01688 0.01447,0.01447 0.01929,0.05788 0.02653,0.296623 0.274919,0.530546 0.24598,0.233922 0.557073,0.233922 0.190514,0 0.349678,-0.07958 0.161575,-0.07958 0.250804,-0.229099 0.09164,-0.151929 0.09164,-0.294212 0,-0.195337 -0.137459,-0.356912 -0.13746,-0.161576 -0.55225,-0.376206 -0.414791,-0.217041 -0.540192,-0.315916 -0.202573,-0.161575 -0.303859,-0.342443 -0.07476,-0.139871 -0.07476,-0.325562 0,-0.335209 0.265273,-0.56672 0.265273,-0.233922 0.711413,-0.233922 0.245981,0 0.424437,0.05547 0.130225,0.04341 0.267685,0.142283 z"
         id="path10753" /><path
         d="m 63.354891,70.490379 0.0024,0.156752 q -0.188103,0.200161 -0.371382,0.279743 -0.18328,0.07958 -0.431672,0.07958 -0.270096,0 -0.487137,-0.139872 -0.217042,-0.142282 -0.335209,-0.400321 -0.115755,-0.258038 -0.115755,-0.50643 0,-0.272507 0.139871,-0.513665 0.142283,-0.243568 0.373794,-0.361735 0.233922,-0.120579 0.586012,-0.120579 0.33762,0 0.513665,0.115755 0.09887,0.06752 0.09887,0.173634 0,0.07717 -0.05064,0.127813 -0.05064,0.05064 -0.130225,0.05064 -0.120578,0 -0.265273,-0.149518 -0.08923,-0.09164 -0.161575,-0.125401 -0.07235,-0.03617 -0.161575,-0.03617 -0.21463,0 -0.356913,0.176045 -0.197749,0.250803 -0.197749,0.62942 0,0.390675 0.202572,0.622186 0.202572,0.231511 0.472668,0.231511 0.188103,0 0.332797,-0.06029 0.147106,-0.0627 0.342443,-0.2291 z"
         id="path10755" /><path
         d="m 65.445725,70.603723 q 0.01447,0.03135 0.01447,0.04582 0,0.03617 -0.05788,0.127813 -0.07476,0.120579 -0.166399,0.176045 -0.05788,0.03617 -0.159164,0.03617 -0.173633,0 -0.260449,-0.10611 -0.05306,-0.0627 -0.07476,-0.224276 l -0.270096,0.188103 q -0.142283,0.08199 -0.217042,0.103697 -0.120578,0.03135 -0.289388,0.03135 -0.122991,0 -0.195338,-0.07235 -0.06994,-0.07476 -0.06994,-0.190514 0,-0.166399 0.202572,-0.39791 0.204983,-0.231511 0.554661,-0.378617 0.245981,-0.103697 0.301447,-0.132636 0.0048,-0.07958 0.0048,-0.173633 0,-0.30627 -0.08682,-0.414791 -0.08441,-0.108521 -0.243568,-0.108521 -0.166399,0 -0.311093,0.130225 -0.08923,0.08199 -0.135048,0.308682 -0.01447,0.0627 -0.05547,0.135048 -0.103698,0.06752 -0.166399,0.06752 -0.05306,0 -0.09646,-0.03135 -0.02412,-0.01688 -0.02412,-0.03858 0,-0.0627 0.132637,-0.282154 0.135048,-0.221865 0.33762,-0.330385 0.204984,-0.110933 0.356913,-0.110933 0.207395,0 0.308681,0.03859 0.101286,0.03617 0.178456,0.130224 0.07717,0.09405 0.09405,0.204984 0.0096,0.05306 0.0096,0.378617 l -0.0072,0.38344 0.0024,0.279742 q 0,0.05547 -0.0024,0.09405 -0.0024,0.06994 -0.0024,0.103697 0,0.07958 0.04582,0.127814 0.04582,0.04823 0.10852,0.04823 0.09164,0 0.156752,-0.09164 l 0.02894,-0.03858 q 0.01206,-0.0072 0.05306,-0.01688 z m -0.709002,-0.06994 q 0.01688,-0.306269 0.01688,-0.431671 0,-0.06511 -0.0072,-0.176045 -0.161575,0.05788 -0.342443,0.176045 -0.180868,0.118167 -0.286977,0.272508 -0.07717,0.110932 -0.07717,0.209806 0,0.09405 0.0627,0.156753 0.06511,0.0627 0.161576,0.0627 0.07476,0 0.180867,-0.05306 0.139872,-0.06994 0.291801,-0.217042 z"
         id="path10757" /><path
         d="m 65.616946,67.943759 v -0.05306 q 0.06752,-0.0217 0.149518,-0.04582 0.120578,-0.03858 0.356912,-0.118167 h 0.113344 q 0.0024,0.115756 0.0024,0.132637 0,1.979901 -0.01206,2.360929 -0.0072,0.224276 -0.0072,0.238746 0,0.270096 0.0217,0.301446 0.02894,0.04341 0.176045,0.06029 0.149518,0.01688 0.176045,0.03376 0.01929,0.0096 0.01929,0.03376 0,0.02653 -0.01206,0.03858 -0.0096,0.0096 -0.03859,0.0096 -0.01688,0 -0.253216,-0.0072 l -0.315916,-0.0096 -0.405144,0.01688 q -0.03858,0.0024 -0.05788,-0.01447 -0.01447,-0.01206 -0.01447,-0.03376 0,-0.02412 0.01447,-0.03376 0.01688,-0.01206 0.173633,-0.03859 0.159164,-0.02653 0.180868,-0.04341 0.02411,-0.01929 0.03135,-0.08199 0.0096,-0.08682 0.0096,-0.48955 l -0.0024,-0.554661 0.0072,-0.573954 -0.0024,-0.573955 0.0072,-0.282153 q 0,-0.08441 -0.02653,-0.120579 -0.02653,-0.03858 -0.113343,-0.07476 -0.130225,-0.05305 -0.178457,-0.07717 z"
         id="path10759" /><path
         d="m 68.532537,69.658387 -0.96704,0.0072 h -0.18328 q -0.110932,0 -0.226687,0.0096 -0.0217,0.07235 -0.0217,0.09887 l 0.0024,0.02412 v 0.02412 l -0.0024,0.118167 q 0,0.147106 0.09164,0.361736 0.09405,0.212218 0.265273,0.325562 0.173633,0.110932 0.431672,0.118167 0.137459,-0.0072 0.219453,-0.03376 0.08199,-0.02653 0.231511,-0.12299 l 0.173633,-0.142283 0.01447,0.09646 q 0,0.01688 -0.0024,0.03617 -0.108521,0.13746 -0.27492,0.241158 -0.166398,0.103697 -0.33762,0.151929 -0.08199,0.0217 -0.270096,0.0217 -0.171221,0 -0.33762,-0.06994 -0.24598,-0.106109 -0.388263,-0.340032 -0.139871,-0.236334 -0.139871,-0.571542 0,-0.106109 0.03858,-0.272508 0.041,-0.166398 0.144694,-0.354501 0.06994,-0.127813 0.171222,-0.209807 0.144694,-0.115755 0.253215,-0.161575 0.156752,-0.06511 0.364147,-0.06511 0.224277,0 0.366559,0.08199 0.192926,0.108521 0.286977,0.279742 0.09646,0.171222 0.09646,0.313505 z M 67.18688,69.57157 h 0.113344 q 0.12299,0 0.733118,-0.03858 0.09646,-0.0048 0.118167,-0.01929 0.04341,-0.04582 0.04341,-0.08199 0,-0.07476 -0.04823,-0.16881 -0.04823,-0.09646 -0.149518,-0.147106 -0.09887,-0.05305 -0.231511,-0.05305 -0.279742,0 -0.448552,0.209807 -0.130225,0.159164 -0.130225,0.299035 z"
         id="path10761" /></g><path
       id="rect8877-3-9-68-7-7"
       style="display:inline;fill:#d2d2d2;stroke:#594c62;stroke-width:0.0999992;stroke-linecap:square"
       d="M 9.7051644,96.030601 H 21.205164 V 107.53043 H 9.7051644 Z" /><path
       id="rect8877-3-9-68-7-7-2-9"
       style="display:inline;fill:#594c62;stroke-width:0.0999992;stroke-linecap:square"
       d="M 9.7100944,107.52388 H 21.210094 V 119.0237 H 9.7100944 Z" /><path
       id="rect3722-6-50-7-6"
       style="display:inline;fill:#594c62;stroke-width:0.123844;stroke-linecap:square"
       d="M 9.7184244,91.603362 H 21.194574 v 4.376089 H 9.7184244 Z" /><path
       d="m 13.051224,92.321636 h -0.45861 v 2.353029 h 0.45861 v -1.00189 l 0.0529,-0.05292 0.83608,1.054806 h 0.60678 l -1.04775,-1.266473 0.99483,-1.086556 h -0.57855 l -0.86431,0.994834 z"
       style="font-weight:500;font-size:3.52778px;font-family:'Futura PT';-inkscape-font-specification:'Futura PT Medium';text-align:center;text-anchor:middle;fill:#e8d0f0;stroke-width:0.5;stroke-linecap:square"
       id="path3655" /><path
       d="m 15.764084,94.184304 c -0.0706,0.123472 -0.19403,0.201083 -0.3563,0.201083 -0.16581,0 -0.26106,-0.08114 -0.30692,-0.144639 -0.0494,-0.06703 -0.0741,-0.165806 -0.0741,-0.257528 h 1.143 v -0.03528 c 0,-0.165805 -0.0212,-0.405694 -0.18345,-0.599722 -0.10583,-0.127 -0.28575,-0.250473 -0.59619,-0.250473 -0.18345,0 -0.39511,0.03881 -0.57503,0.215195 -0.10936,0.109361 -0.23283,0.296333 -0.23283,0.599722 0,0.239889 0.0706,0.437445 0.23989,0.596195 0.15169,0.144639 0.33866,0.215195 0.58561,0.215195 0.53269,0 0.70555,-0.363361 0.75142,-0.47625 z m -0.72319,-0.476251 c 0.0353,-0.204611 0.20108,-0.306917 0.35983,-0.306917 0.15875,0 0.32808,0.09878 0.36336,0.306917 z"
       style="font-weight:500;font-size:3.52778px;font-family:'Futura PT';-inkscape-font-specification:'Futura PT Medium';text-align:center;text-anchor:middle;fill:#e8d0f0;stroke-width:0.5;stroke-linecap:square"
       id="path3657" /><path
       d="m 16.434364,95.482527 h 0.48683 l 1.2312,-2.335391 h -0.48684 l -0.42333,0.867834 -0.47272,-0.867834 h -0.50095 l 0.72672,1.298223 z"
       style="font-weight:500;font-size:3.52778px;font-family:'Futura PT';-inkscape-font-specification:'Futura PT Medium';text-align:center;text-anchor:middle;fill:#e8d0f0;stroke-width:0.5;stroke-linecap:square"
       id="path3659" /><g
       aria-label="Trnsps"
       id="text444-3-7"
       style="font-weight:500;font-size:3.52778px;font-family:'Futura PT';-inkscape-font-specification:'Futura PT Medium';text-align:center;text-anchor:middle;fill:#e8d0f0;stroke-width:0.499999;stroke-linecap:square"
       transform="translate(122.28197,5.0846265)"><path
         d="m 31.403621,89.463553 v -0.395112 h -1.516946 v 0.395112 h 0.529167 v 1.957918 h 0.458612 v -1.957918 z"
         style="stroke-width:0.5"
         id="path3675" /><path
         d="m 31.481231,91.421471 h 0.430389 v -0.733779 c 0,-0.105833 0.0035,-0.236361 0.08467,-0.338666 0.08467,-0.105834 0.204612,-0.123473 0.285751,-0.123473 0.08819,0 0.144639,0.01764 0.201083,0.05644 l 0.05645,-0.402167 c -0.04939,-0.01764 -0.109362,-0.03528 -0.183445,-0.03528 -0.102306,0 -0.186972,0.02469 -0.254,0.06703 -0.03175,0.01764 -0.123472,0.08114 -0.1905,0.211667 V 89.893937 H 31.48124 Z"
         style="stroke-width:0.5"
         id="path3677" /><path
         d="m 32.751234,91.421471 h 0.430389 v -0.77964 c 0,-0.08819 0.0035,-0.197555 0.06703,-0.296333 0.0635,-0.09525 0.151694,-0.134056 0.264583,-0.134056 0.04233,0 0.134056,0.0071 0.201084,0.07761 0.07761,0.08114 0.08114,0.215195 0.08114,0.299862 v 0.832556 h 0.430389 v -0.959557 c 0,-0.148166 -0.01411,-0.299861 -0.119945,-0.430389 -0.119944,-0.148166 -0.3175,-0.186972 -0.451556,-0.186972 -0.246944,0 -0.391583,0.134056 -0.472722,0.246945 v -0.197556 h -0.430389 z"
         style="stroke-width:0.5"
         id="path3679" /><path
         d="m 35.679292,90.006831 c -0.194028,-0.148167 -0.373944,-0.162278 -0.486833,-0.162278 -0.123473,0 -0.278695,0.01411 -0.398639,0.109361 -0.08819,0.07408 -0.158751,0.197556 -0.158751,0.345723 0,0.123472 0.04586,0.218722 0.116417,0.292805 0.09172,0.09525 0.218723,0.144639 0.328084,0.183445 l 0.09878,0.03528 c 0.05644,0.02117 0.134055,0.05997 0.134055,0.155222 0,0.105833 -0.09172,0.165806 -0.211667,0.165806 -0.127,0 -0.254,-0.07761 -0.338666,-0.176389 l -0.225778,0.261055 c 0.09525,0.102306 0.275166,0.254001 0.592667,0.254001 0.186972,0 0.335139,-0.04939 0.458611,-0.162278 0.123472,-0.112889 0.169334,-0.250473 0.169334,-0.388056 0,-0.09878 -0.03175,-0.1905 -0.07761,-0.254 -0.08819,-0.119945 -0.268111,-0.179917 -0.388055,-0.218723 l -0.102306,-0.03175 c -0.119945,-0.03881 -0.137583,-0.09878 -0.137583,-0.137583 0,-0.07408 0.0635,-0.123472 0.165805,-0.123472 0.04586,0 0.148167,0.0071 0.250473,0.102305 z"
         style="stroke-width:0.5"
         id="path3681" /><path
         d="m 36.49068,91.223915 c 0.169333,0.229306 0.384528,0.246945 0.490361,0.246945 0.225778,0 0.402167,-0.08819 0.518584,-0.197556 0.08819,-0.08467 0.239889,-0.271639 0.239889,-0.617362 0,-0.303389 -0.116417,-0.493889 -0.229306,-0.606778 -0.172861,-0.172861 -0.388056,-0.204611 -0.522111,-0.204611 -0.282223,0 -0.43039,0.151694 -0.497417,0.246945 v -0.197556 h -0.43039 v 2.33539 h 0.43039 z m 0.381,-0.998362 c 0.102305,0 0.215194,0.03881 0.292806,0.109361 0.08467,0.08114 0.130527,0.208139 0.130527,0.321028 0,0.112889 -0.04233,0.239889 -0.134055,0.324556 -0.05645,0.05292 -0.148167,0.109361 -0.289278,0.109361 -0.134056,0 -0.225778,-0.05292 -0.282223,-0.102305 -0.08467,-0.07408 -0.141111,-0.1905 -0.141111,-0.331612 0,-0.141111 0.04939,-0.246944 0.144639,-0.328083 0.07761,-0.07056 0.165806,-0.102306 0.278695,-0.102306 z"
         style="stroke-width:0.5"
         id="path3683" /><path
         d="m 39.080068,90.006831 c -0.194028,-0.148167 -0.373945,-0.162278 -0.486834,-0.162278 -0.123472,0 -0.278694,0.01411 -0.398639,0.109361 -0.08819,0.07408 -0.15875,0.197556 -0.15875,0.345723 0,0.123472 0.04586,0.218722 0.116417,0.292805 0.09172,0.09525 0.218722,0.144639 0.328083,0.183445 l 0.09878,0.03528 c 0.05644,0.02117 0.134056,0.05997 0.134056,0.155222 0,0.105833 -0.09172,0.165806 -0.211667,0.165806 -0.127,0 -0.254,-0.07761 -0.338667,-0.176389 l -0.225778,0.261055 c 0.09525,0.102306 0.275167,0.254001 0.592667,0.254001 0.186972,0 0.335139,-0.04939 0.458612,-0.162278 0.123472,-0.112889 0.169333,-0.250473 0.169333,-0.388056 0,-0.09878 -0.03175,-0.1905 -0.07761,-0.254 -0.08819,-0.119945 -0.268111,-0.179917 -0.388056,-0.218723 l -0.102306,-0.03175 c -0.119944,-0.03881 -0.137583,-0.09878 -0.137583,-0.137583 0,-0.07408 0.0635,-0.123472 0.165806,-0.123472 0.04586,0 0.148166,0.0071 0.250472,0.102305 z"
         style="stroke-width:0.5"
         id="path3685" /></g></g><g
     inkscape:groupmode="layer"
     id="layer2"
     inkscape:label="components"
     style="display:none;fill:#00ff00"><path
       id="keydisplay"
       style="display:inline;fill:#ffff00;stroke-width:0.0999992;stroke-linecap:square"
       inkscape:label="keydisplay"
       d="M 9.7223644,107.53905 H 21.222364 v 11.49983 H 9.7223644 Z" /><ellipse
       style="display:inline;fill:#ff0000;fill-opacity:1;stroke-width:0.162095"
       id="key"
       cx="15.469756"
       cy="101.44732"
       inkscape:transform-center-x="-0.10869659"
       inkscape:transform-center-y="-5.434704"
       inkscape:label="key"
       rx="2.5"
       ry="2.4999626" /><ellipse
       style="display:inline;fill:#ff00ff;fill-opacity:1;stroke-width:0.162095"
       id="on"
       cx="111.15445"
       cy="112.81329"
       inkscape:transform-center-x="-0.10869659"
       inkscape:transform-center-y="-5.434704"
       inkscape:label="on"
       rx="2.5"
       ry="2.4999626" /><circle
       cx="63.52523"
       cy="57.437672"
       fill="#ff0000"
       r="1.976231"
       id="scale"
       style="fill:#00ff00;fill-opacity:1;stroke-width:0.988115"
       inkscape:label="scale" /><circle
       cx="72.09977"
       cy="48.535057"
       fill="#ff0000"
       r="1.976231"
       id="one"
       style="fill:#00ff00;fill-opacity:1;stroke-width:0.988115"
       inkscape:label="one" /><circle
       cx="82.792053"
       cy="61.942757"
       fill="#ff0000"
       r="1.976231"
       id="three"
       style="fill:#00ff00;fill-opacity:1;stroke-width:0.988115"
       inkscape:label="three" /><circle
       cx="78.976021"
       cy="78.66188"
       fill="#ff0000"
       r="1.976231"
       id="five"
       style="fill:#00ff00;fill-opacity:1;stroke-width:0.988115"
       inkscape:label="five" /><circle
       cx="63.52523"
       cy="86.102592"
       fill="#ff0000"
       r="1.976231"
       id="seven"
       style="fill:#00ff00;fill-opacity:1;stroke-width:0.988115"
       inkscape:label="seven" /><circle
       cx="48.074432"
       cy="78.66188"
       fill="#ff0000"
       r="1.976231"
       id="two"
       style="fill:#00ff00;fill-opacity:1;stroke-width:0.988115"
       inkscape:label="two" /><circle
       cx="44.258404"
       cy="61.942757"
       fill="#ff0000"
       r="1.976231"
       id="four"
       style="fill:#00ff00;fill-opacity:1;stroke-width:0.988115"
       inkscape:label="four" /><circle
       cx="54.950687"
       cy="48.535057"
       fill="#ff0000"
       r="1.976231"
       id="six"
       style="fill:#00ff00;fill-opacity:1;stroke-width:0.988115"
       inkscape:label="six" /><circle
       cx="94.426826"
       cy="41.69709"
       fill="#ff0000"
       r="1.976231"
       id="one7"
       style="fill:#00ff00;fill-opacity:1;stroke-width:0.988115"
       inkscape:label="one7" /><circle
       cx="102.05889"
       cy="75.135345"
       fill="#ff0000"
       r="1.976231"
       id="three7"
       style="fill:#00ff00;fill-opacity:1;stroke-width:0.988115"
       inkscape:label="three7" /><circle
       cx="80.674316"
       cy="101.95074"
       fill="#ff0000"
       r="1.976231"
       id="five7"
       style="fill:#00ff00;fill-opacity:1;stroke-width:0.988115"
       inkscape:label="five7" /><circle
       cx="46.376141"
       cy="101.95074"
       fill="#ff0000"
       r="1.976231"
       id="seven7"
       style="fill:#00ff00;fill-opacity:1;stroke-width:0.988115"
       inkscape:label="seven7" /><circle
       cx="24.991577"
       cy="75.135345"
       fill="#ff0000"
       r="1.976231"
       id="two7"
       style="fill:#00ff00;fill-opacity:1;stroke-width:0.988115"
       inkscape:label="two7" /><circle
       cx="32.623638"
       cy="41.69709"
       fill="#ff0000"
       r="1.976231"
       id="four7"
       style="fill:#00ff00;fill-opacity:1;stroke-width:0.988115"
       inkscape:label="four7" /><circle
       cx="63.52523"
       cy="26.815666"
       fill="#ff0000"
       r="1.976231"
       id="six7"
       style="fill:#00ff00;fill-opacity:1;stroke-width:0.988115"
       inkscape:label="six7" /></g></svg>
