<?xml version="1.0" encoding="UTF-8" standalone="no"?>
<!-- Created with Inkscape (http://www.inkscape.org/) -->

<svg
   width="20.32mm"
   height="128.5mm"
   viewBox="0 0 20.32 128.5"
   version="1.1"
   id="svg5"
   inkscape:version="1.2.1 (9c6d41e410, 2022-07-14)"
   sodipodi:docname="PaletteQuantizer.svg"
   xml:space="preserve"
   xmlns:inkscape="http://www.inkscape.org/namespaces/inkscape"
   xmlns:sodipodi="http://sodipodi.sourceforge.net/DTD/sodipodi-0.dtd"
   xmlns="http://www.w3.org/2000/svg"
   xmlns:svg="http://www.w3.org/2000/svg"><sodipodi:namedview
     id="namedview7"
     pagecolor="#ffffff"
     bordercolor="#000000"
     borderopacity="0.25"
     inkscape:showpageshadow="2"
     inkscape:pageopacity="0.0"
     inkscape:pagecheckerboard="0"
     inkscape:deskcolor="#d1d1d1"
     inkscape:document-units="mm"
     showgrid="false"
     inkscape:zoom="1.4912879"
     inkscape:cx="-143.16484"
     inkscape:cy="278.28295"
     inkscape:window-width="1920"
     inkscape:window-height="1052"
     inkscape:window-x="1912"
     inkscape:window-y="-8"
     inkscape:window-maximized="1"
     inkscape:current-layer="layer2"
     showguides="true" /><defs
     id="defs2"><rect
       x="30.175261"
       y="16.764032"
       width="4.6939292"
       height="17.434595"
       id="rect1148" /><clipPath
       clipPathUnits="userSpaceOnUse"
       id="clipPath1018"><rect
         style="display:inline;fill:#f9f9f9;fill-opacity:0;stroke-width:0.264583"
         id="rect1020"
         width="20.32"
         height="128.5"
         x="0"
         y="0" /></clipPath><clipPath
       clipPathUnits="userSpaceOnUse"
       id="clipPath1086"><rect
         style="fill:#f9f9f9;fill-opacity:0;stroke-width:0.264583"
         id="rect1088"
         width="20.32"
         height="128.5"
         x="0"
         y="-2.7755579e-17" /></clipPath><rect
       x="30.175261"
       y="16.764032"
       width="4.6939292"
       height="17.434595"
       id="rect1148-39" /><rect
       x="30.175261"
       y="16.764032"
       width="4.6939292"
       height="17.434595"
       id="rect1148-3" /><clipPath
       clipPathUnits="userSpaceOnUse"
       id="clipPath1018-9"><rect
         style="display:inline;fill:#f9f9f9;fill-opacity:0;stroke-width:0.264583"
         id="rect1020-3"
         width="20.32"
         height="128.5"
         x="0"
         y="0" /></clipPath><clipPath
       clipPathUnits="userSpaceOnUse"
       id="clipPath1086-2"><rect
         style="fill:#f9f9f9;fill-opacity:0;stroke-width:0.264583"
         id="rect1088-84"
         width="20.32"
         height="128.5"
         x="0"
         y="-2.7755579e-17" /></clipPath><rect
       x="30.175261"
       y="16.764032"
       width="4.6939292"
       height="17.434595"
       id="rect1148-4" /><clipPath
       clipPathUnits="userSpaceOnUse"
       id="clipPath1018-7"><rect
         style="display:inline;fill:#f9f9f9;fill-opacity:0;stroke-width:0.264583"
         id="rect1020-1"
         width="20.32"
         height="128.5"
         x="0"
         y="0" /></clipPath><clipPath
       clipPathUnits="userSpaceOnUse"
       id="clipPath1086-6"><rect
         style="fill:#f9f9f9;fill-opacity:0;stroke-width:0.264583"
         id="rect1088-3"
         width="20.32"
         height="128.5"
         x="0"
         y="-2.7755579e-17" /></clipPath><rect
       x="30.175261"
       y="16.764032"
       width="4.6939292"
       height="17.434595"
       id="rect1148-2" /><clipPath
       clipPathUnits="userSpaceOnUse"
       id="clipPath1018-8"><rect
         style="display:inline;fill:#f9f9f9;fill-opacity:0;stroke-width:0.264583"
         id="rect1020-0"
         width="20.32"
         height="128.5"
         x="0"
         y="0" /></clipPath><clipPath
       clipPathUnits="userSpaceOnUse"
       id="clipPath1086-7"><rect
         style="fill:#f9f9f9;fill-opacity:0;stroke-width:0.264583"
         id="rect1088-8"
         width="20.32"
         height="128.5"
         x="0"
         y="-2.7755579e-17" /></clipPath><rect
       x="30.175261"
       y="16.764032"
       width="4.6939292"
       height="17.434595"
       id="rect1148-30" /><rect
       x="30.175261"
       y="16.764032"
       width="4.6939292"
       height="17.434595"
       id="rect1148-3-5" /><clipPath
       clipPathUnits="userSpaceOnUse"
       id="clipPath1018-0"><rect
         style="display:inline;fill:#f9f9f9;fill-opacity:0;stroke-width:0.264583"
         id="rect1020-2"
         width="20.32"
         height="128.5"
         x="0"
         y="0" /></clipPath><clipPath
       clipPathUnits="userSpaceOnUse"
       id="clipPath1086-1"><rect
         style="fill:#f9f9f9;fill-opacity:0;stroke-width:0.264583"
         id="rect1088-39"
         width="20.32"
         height="128.5"
         x="0"
         y="-2.7755579e-17" /></clipPath><rect
       x="30.175261"
       y="16.764032"
       width="4.6939292"
       height="17.434595"
       id="rect1148-4-2" /><clipPath
       clipPathUnits="userSpaceOnUse"
       id="clipPath1018-7-6"><rect
         style="display:inline;fill:#f9f9f9;fill-opacity:0;stroke-width:0.264583"
         id="rect1020-1-8"
         width="20.32"
         height="128.5"
         x="0"
         y="0" /></clipPath><clipPath
       clipPathUnits="userSpaceOnUse"
       id="clipPath1086-6-7"><rect
         style="fill:#f9f9f9;fill-opacity:0;stroke-width:0.264583"
         id="rect1088-3-7"
         width="20.32"
         height="128.5"
         x="0"
         y="-2.7755579e-17" /></clipPath><rect
       x="30.175261"
       y="16.764032"
       width="4.6939292"
       height="17.434595"
       id="rect1148-2-5" /><clipPath
       clipPathUnits="userSpaceOnUse"
       id="clipPath1018-8-4"><rect
         style="display:inline;fill:#f9f9f9;fill-opacity:0;stroke-width:0.264583"
         id="rect1020-0-8"
         width="20.32"
         height="128.5"
         x="0"
         y="0" /></clipPath><clipPath
       clipPathUnits="userSpaceOnUse"
       id="clipPath1086-7-3"><rect
         style="fill:#f9f9f9;fill-opacity:0;stroke-width:0.264583"
         id="rect1088-8-8"
         width="20.32"
         height="128.5"
         x="0"
         y="-2.7755579e-17" /></clipPath></defs><g
     inkscape:groupmode="layer"
     id="layer3"
     inkscape:label="Background"
     style="display:inline"><rect
       style="fill:#847b89;fill-opacity:1;stroke:#220826;stroke-width:0.350018;stroke-linecap:square;stroke-dasharray:none;stroke-opacity:1"
       id="rect922"
       width="19.969982"
       height="128.14998"
       x="0.17500906"
       y="0.17500906" /></g><g
     inkscape:label="Decals"
     inkscape:groupmode="layer"
     id="layer1"><g
       aria-label="∅"
       id="text4142"
       style="font-size:3.52778px;font-family:'Futura PT';-inkscape-font-specification:'Futura PT';text-align:center;text-anchor:middle;fill:#f7dfff;stroke-width:0;stroke-linecap:square"
       transform="translate(90.004496,-1.8794137)"><path
         d="m 68.095424,128.06491 0.27044,-0.26872 q -0.334174,-0.38585 -0.334174,-0.88711 0,-0.55466 0.391019,-0.94568 0.392741,-0.39274 0.947401,-0.39274 0.492649,0 0.885391,0.33417 l 0.27044,-0.26872 0.118856,0.11886 -0.268718,0.27044 q 0.334174,0.38585 0.334174,0.88539 0,0.55466 -0.392741,0.9474 -0.392741,0.39102 -0.945679,0.39102 -0.501262,0 -0.88539,-0.33245 l -0.27044,0.26872 z m 0.391019,-0.3893 1.648479,-1.6502 q -0.341065,-0.28422 -0.763089,-0.28422 -0.485759,0 -0.828546,0.34279 -0.341065,0.34106 -0.341065,0.8251 0,0.43408 0.284221,0.76653 z m 0.118856,0.11886 q 0.330729,0.28422 0.766534,0.28422 0.484036,0 0.825101,-0.34107 0.342787,-0.34278 0.342787,-0.82682 0,-0.42891 -0.28422,-0.76481 z"
         id="path4146" /></g><g
       id="text5014"
       style="font-size:4.9389px;font-family:Garamond;-inkscape-font-specification:Garamond;text-align:center;text-anchor:middle;fill:#ffff00;stroke-width:0.257;stroke-linecap:square" /><g
       id="text5018"
       style="font-size:4.9389px;font-family:'Futura PT';-inkscape-font-specification:'Futura PT';text-align:center;text-anchor:middle;fill:#ffff00;stroke-width:0.257;stroke-linecap:square" /><g
       aria-label="Palette Quantizer"
       id="text5072"
       style="font-size:4.23333px;font-family:'Futura PT';-inkscape-font-specification:'Futura PT';text-align:center;text-anchor:middle;stroke-width:0.257;stroke-linecap:square"><path
         d="M 4.8600724,2.248041 V 5.071672 H 5.1733388 V 3.8440063 h 0.2751664 c 0.6434661,0 0.8932326,-0.3936996 0.8932326,-0.7916326 0,-0.1777999 -0.0508,-0.4275663 -0.2582331,-0.6053662 C 5.8930048,2.2819076 5.6559384,2.248041 5.3723053,2.248041 Z m 0.3132664,0.2963331 h 0.2328331 c 0.2031998,0 0.6222995,0.042333 0.6222995,0.4910662 0,0.3259664 -0.2243665,0.5122329 -0.5968995,0.5122329 H 5.1733388 Z"
         id="path13506" /><path
         d="M 7.9757985,3.5646066 C 7.8953652,3.4587733 7.713332,3.2725068 7.3746657,3.2725068 c -0.448733,0 -0.8551326,0.3132664 -0.8551326,0.9186326 0,0.6180661 0.4106329,0.9313325 0.8551326,0.9313325 0.309033,0 0.4995329,-0.1650998 0.6011328,-0.2963331 V 5.071672 H 8.2805982 V 3.3148401 H 7.9757985 Z M 7.4085323,3.5434399 c 0.2709331,0 0.5841995,0.1989665 0.5841995,0.6519328 0,0.347133 -0.2116665,0.6561661 -0.5841995,0.6561661 -0.3640664,0 -0.5757328,-0.2836331 -0.5757328,-0.6603994 0,-0.4275663 0.2751664,-0.6476995 0.5757328,-0.6476995 z"
         id="path13508" /><path
         d="M 8.8563355,1.9855746 V 5.071672 H 9.1611352 V 1.9855746 Z"
         id="path13510" /><path
         d="m 11.040734,4.4832391 c -0.0381,0.084667 -0.1016,0.1735665 -0.182033,0.2412998 -0.1016,0.084667 -0.2159,0.1269999 -0.359833,0.1269999 -0.3048,0 -0.5545662,-0.2328331 -0.5587995,-0.5968995 h 1.3673655 c 0.0085,-0.2328331 -0.05503,-0.5037662 -0.1651,-0.6603994 C 11.036501,3.44184 10.820601,3.2725068 10.477701,3.2725068 c -0.5291658,0 -0.8508989,0.4063997 -0.8508989,0.9313326 0,0.6519327 0.4444999,0.9186325 0.8678329,0.9186325 0.224366,0 0.423333,-0.071967 0.584199,-0.2158998 0.0889,-0.080433 0.1651,-0.1862665 0.2159,-0.2836331 z M 9.9612352,4.0006395 c 0.046567,-0.2624664 0.2582328,-0.4571996 0.5164658,-0.4571996 0.258234,0 0.465667,0.1820332 0.516467,0.4571996 z"
         id="path13512" /><path
         d="M 12.39117,3.5942399 V 3.3148401 h -0.3048 V 2.6798406 h -0.304799 v 0.6349995 h -0.186267 v 0.2793998 h 0.186267 V 5.071672 H 12.08637 V 3.5942399 Z"
         id="path13514" /><path
         d="M 13.381774,3.5942399 V 3.3148401 h -0.3048 V 2.6798406 h -0.304799 v 0.6349995 h -0.186267 v 0.2793998 h 0.186267 V 5.071672 h 0.304799 V 3.5942399 Z"
         id="path13516" /><path
         d="m 14.973509,4.4832391 c -0.0381,0.084667 -0.1016,0.1735665 -0.182033,0.2412998 -0.1016,0.084667 -0.2159,0.1269999 -0.359833,0.1269999 -0.3048,0 -0.554567,-0.2328331 -0.5588,-0.5968995 h 1.367366 c 0.0085,-0.2328331 -0.05503,-0.5037662 -0.1651,-0.6603994 C 14.969275,3.44184 14.753376,3.2725068 14.410476,3.2725068 c -0.529166,0 -0.850899,0.4063997 -0.850899,0.9313326 0,0.6519327 0.444499,0.9186325 0.867832,0.9186325 0.224367,0 0.423333,-0.071967 0.5842,-0.2158998 0.0889,-0.080433 0.1651,-0.1862665 0.2159,-0.2836331 z M 13.89401,4.0006395 c 0.04657,-0.2624664 0.258233,-0.4571996 0.516466,-0.4571996 0.258233,0 0.465666,0.1820332 0.516466,0.4571996 z"
         id="path13518" /><path
         d="M 4.4515625,10.392967 H 4.8579622 L 4.4430958,9.9654012 c 0.1650999,-0.1735665 0.397933,-0.4952996 0.397933,-1.0117658 0,-0.8424327 -0.6603994,-1.4604988 -1.4689654,-1.4604988 -0.8127993,0 -1.4689654,0.6180661 -1.4689654,1.4604988 0,0.8381993 0.6561661,1.4604986 1.4689654,1.4604986 0.448733,0 0.7323661,-0.1778 0.8508993,-0.258233 z M 3.7234298,9.2288018 H 3.3170301 L 3.9985962,9.9315345 C 3.7784631,10.075468 3.5498633,10.117801 3.3720634,10.117801 c -0.6349995,0 -1.1472324,-0.5164662 -1.1472324,-1.1641656 0,-0.6476995 0.5122329,-1.1641657 1.1472324,-1.1641657 0.6307661,0 1.1472324,0.5164662 1.1472324,1.1641657 0,0.4148663 -0.1947332,0.6688661 -0.3005664,0.783166 z"
         id="path13520" /><path
         d="M 5.645364,8.6065023 H 5.3405643 v 1.0583325 c 0,0.2158998 0.021167,0.3767662 0.1608665,0.5291662 0.1566332,0.1651 0.3640664,0.220133 0.5376329,0.220133 0.1735665,0 0.3809997,-0.05503 0.5376329,-0.220133 0.1396999,-0.1524 0.1608665,-0.3132664 0.1608665,-0.5291662 V 8.6065023 H 6.4327634 v 1.0244658 c 0,0.1227666 0,0.2666998 -0.084667,0.3767659 -0.046567,0.05927 -0.1396999,0.135467 -0.3090331,0.135467 -0.1693332,0 -0.2624665,-0.0762 -0.3090331,-0.135467 C 5.645364,9.8976679 5.645364,9.7537347 5.645364,9.6309681 Z"
         id="path13522" /><path
         d="M 8.6594931,8.8562688 C 8.5790598,8.7504355 8.3970266,8.564169 8.0583602,8.564169 c -0.4487329,0 -0.8551326,0.3132664 -0.8551326,0.9186326 0,0.6180664 0.410633,0.9313324 0.8551326,0.9313324 0.3090331,0 0.499533,-0.1651 0.6011329,-0.296333 v 0.245533 H 8.9642928 V 8.6065023 H 8.6594931 Z M 8.0922269,8.8351021 c 0.2709331,0 0.5841995,0.1989665 0.5841995,0.6519328 0,0.3471331 -0.2116665,0.6561661 -0.5841995,0.6561661 -0.3640664,0 -0.5757329,-0.2836331 -0.5757329,-0.6603994 0,-0.4275663 0.2751665,-0.6476995 0.5757329,-0.6476995 z"
         id="path13524" /><path
         d="M 9.5400298,10.363334 H 9.8448295 V 9.4447016 c 0,-0.1269999 0.00847,-0.334433 0.1269999,-0.4741329 0.0889,-0.1058333 0.2031996,-0.1354666 0.3090336,-0.1354666 0.135466,0 0.228599,0.0508 0.287866,0.1269999 0.07197,0.093133 0.08043,0.2158998 0.08043,0.3217331 v 1.0794989 h 0.3048 V 9.2753684 c 0,-0.1947331 -0.0127,-0.3386664 -0.1016,-0.4698996 C 10.746529,8.6488356 10.556029,8.564169 10.348596,8.564169 c -0.2921,0 -0.4487332,0.1735665 -0.5037665,0.2455332 V 8.6065023 H 9.5400298 Z"
         id="path13526" /><path
         d="M 12.147758,8.8859021 V 8.6065023 h -0.3048 V 7.9715029 h -0.304799 v 0.6349994 h -0.186267 v 0.2793998 h 0.186267 v 1.4774319 h 0.304799 V 8.8859021 Z"
         id="path13528" /><path
         d="m 12.435627,8.6065023 v 1.7568317 h 0.3048 V 8.6065023 Z m -0.0635,-0.6646328 c 0,0.1185333 0.09737,0.2158999 0.2159,0.2158999 0.118533,0 0.2159,-0.097367 0.2159,-0.2158999 0,-0.1185332 -0.09737,-0.2158998 -0.2159,-0.2158998 -0.118533,0 -0.2159,0.097367 -0.2159,0.2158998 z"
         id="path13530" /><path
         d="m 14.941759,8.6065023 h -1.634065 v 0.2793998 h 1.024466 l -1.269999,1.4774319 h 1.828798 v -0.2794 H 13.67176 Z"
         id="path13532" /><path
         d="m 16.52502,9.7749013 c -0.0381,0.084667 -0.1016,0.1735666 -0.182033,0.2412997 -0.1016,0.08467 -0.2159,0.127 -0.359833,0.127 -0.3048,0 -0.554566,-0.2328331 -0.5588,-0.5968995 H 16.79172 C 16.800186,9.3134684 16.736687,9.0425353 16.62662,8.8859021 16.520787,8.7335022 16.304887,8.564169 15.961987,8.564169 c -0.529166,0 -0.850899,0.4063997 -0.850899,0.9313326 0,0.6519324 0.4445,0.9186324 0.867833,0.9186324 0.224366,0 0.423332,-0.07197 0.584199,-0.2159 0.0889,-0.08043 0.1651,-0.186266 0.2159,-0.2836328 z M 15.445521,9.2923017 c 0.04657,-0.2624664 0.258233,-0.4571996 0.516466,-0.4571996 0.258233,0 0.465666,0.1820332 0.516466,0.4571996 z"
         id="path13534" /><path
         d="m 17.257389,10.363334 h 0.3048 V 9.436235 c 0,-0.2878665 0.0508,-0.4063997 0.1016,-0.474133 0.04657,-0.059267 0.122767,-0.1100666 0.245533,-0.1100666 0.04657,0 0.110067,0.0127 0.1778,0.059267 l 0.143933,-0.2751665 c -0.0762,-0.0381 -0.1778,-0.071967 -0.270933,-0.071967 -0.237066,0 -0.3683,0.1862665 -0.397933,0.2328332 V 8.6065023 h -0.3048 z"
         id="path13536" /></g><path
       id="rect8877-3-9-68-7-5"
       style="display:inline;fill:#d2d2d2;stroke:#594c62;stroke-width:0.0999992;stroke-linecap:square"
       d="M 4.475754,17.200965 H 15.975753 V 28.700793 H 4.475754 Z" /><path
       id="rect3722-6-50-7-8"
       style="fill:#594c62;stroke-width:0.123844;stroke-linecap:square"
       d="m 4.489024,12.773729 h 11.476159 v 4.376088 H 4.489024 Z" /><path
       d="m 8.841333,13.491992 v 2.35303 h 0.458611 v -2.35303 z"
       style="font-weight:500;font-size:3.52778px;font-family:'Futura PT';-inkscape-font-specification:'Futura PT Medium';text-align:center;text-anchor:middle;fill:#e8d0f0;stroke-width:0.5;stroke-linecap:square"
       id="path3639" /><path
       d="m 9.772665,15.845022 h 0.430389 v -0.77964 c 0,-0.08819 0.0035,-0.197555 0.06703,-0.296333 0.0635,-0.09525 0.151695,-0.134056 0.264584,-0.134056 0.04233,0 0.134055,0.0071 0.201083,0.07761 0.07761,0.08114 0.08114,0.215195 0.08114,0.299861 v 0.832557 h 0.430389 v -0.959557 c 0,-0.148166 -0.01411,-0.299861 -0.119944,-0.430389 -0.119945,-0.148166 -0.317501,-0.186972 -0.451556,-0.186972 -0.246945,0 -0.391584,0.134056 -0.472723,0.246945 V 14.317493 H 9.772668 Z"
       style="font-weight:500;font-size:3.52778px;font-family:'Futura PT';-inkscape-font-specification:'Futura PT Medium';text-align:center;text-anchor:middle;fill:#e8d0f0;stroke-width:0.5;stroke-linecap:square"
       id="path3641" /><path
       id="rect8877-3-9-0-3"
       style="display:inline;fill:#220826;stroke:#f7dfff;stroke-width:0.0999992;stroke-linecap:square"
       d="m 4.475754,112.64234 h 11.5 v 11.49983 h -11.5 z" /><path
       id="rect3722-6-4-6"
       style="fill:#efd4f9;stroke:#e7b1ff;stroke-width:0.123844;stroke-linecap:square"
       d="m 4.489024,108.2151 h 11.47616 v 4.37609 H 4.489024 Z" /><path
       d="m 8.788568,109.03929 c -0.740834,0 -1.25589,0.51506 -1.25589,1.2312 0,0.71613 0.515056,1.22766 1.25589,1.22766 0.740833,0 1.255889,-0.51153 1.255889,-1.22766 0,-0.71614 -0.515056,-1.2312 -1.255889,-1.2312 z m 0,2.04259 c -0.458612,0 -0.783168,-0.33514 -0.783168,-0.81139 0,-0.47625 0.324556,-0.81492 0.783168,-0.81492 0.458611,0 0.783167,0.33867 0.783167,0.81492 0,0.47625 -0.324556,0.81139 -0.783167,0.81139 z"
       style="font-weight:500;font-size:3.52778px;font-family:'Futura PT';-inkscape-font-specification:'Futura PT Medium';text-align:center;text-anchor:middle;fill:#7d46a7;stroke-width:0.5;stroke-linecap:square"
       id="path3688" /><path
       d="m 10.404288,109.91771 v 0.93486 c 0,0.13758 0.01764,0.32103 0.186972,0.46919 0.141112,0.12348 0.36689,0.17287 0.553862,0.17287 0.186972,0 0.41275,-0.0494 0.553861,-0.17287 0.169334,-0.14816 0.186973,-0.33161 0.186973,-0.46919 v -0.93486 h -0.43039 v 0.8643 c 0,0.0811 -0.0071,0.1905 -0.09172,0.26812 -0.05292,0.0459 -0.137583,0.0776 -0.218722,0.0776 -0.08114,0 -0.165806,-0.0318 -0.218723,-0.0776 -0.08467,-0.0776 -0.09172,-0.18698 -0.09172,-0.26812 v -0.8643 z"
       style="font-weight:500;font-size:3.52778px;font-family:'Futura PT';-inkscape-font-specification:'Futura PT Medium';text-align:center;text-anchor:middle;fill:#7d46a7;stroke-width:0.5;stroke-linecap:square"
       id="path3690" /><path
       d="m 13.021898,110.2846 v -0.36689 h -0.296333 v -0.52211 h -0.430389 v 0.52211 h -0.169334 v 0.36689 h 0.169334 v 1.16064 h 0.430389 v -1.16064 z"
       style="font-weight:500;font-size:3.52778px;font-family:'Futura PT';-inkscape-font-specification:'Futura PT Medium';text-align:center;text-anchor:middle;fill:#7d46a7;stroke-width:0.5;stroke-linecap:square"
       id="path3692" /><path
       id="rect8877-3-9-0-4"
       style="display:inline;fill:#220826;stroke:#f7dfff;stroke-width:0.0999992;stroke-linecap:square"
       d="m 4.475753,91.615649 h 11.5 v 11.499831 h -11.5 z" /><path
       id="rect3722-6-4-1"
       style="fill:#efd4f9;stroke:#e7b1ff;stroke-width:0.123844;stroke-linecap:square"
       d="m 4.489033,87.188399 h 11.47615 v 4.37609 H 4.489033 Z" /><path
       d="m 6.985875,88.065514 v 2.35303 h 0.458611 v -0.94544 h 0.05645 l 0.627945,0.94544 h 0.5715 l -0.733778,-0.9913 c 0.112889,-0.0212 0.197555,-0.06 0.257528,-0.10231 0.183444,-0.12347 0.275166,-0.32455 0.275166,-0.55386 0,-0.17639 -0.05292,-0.37747 -0.232833,-0.52917 -0.109361,-0.0917 -0.275167,-0.17639 -0.599723,-0.17639 z m 0.458611,0.37395 H 7.58207 c 0.08467,0 0.4445,0.004 0.4445,0.35278 0,0.34572 -0.363361,0.3563 -0.451556,0.3563 H 7.444486 Z"
       style="font-weight:500;font-size:3.52778px;font-family:'Futura PT';-inkscape-font-specification:'Futura PT Medium';text-align:center;text-anchor:middle;fill:#7d46a7;stroke-width:0.5;stroke-linecap:square"
       id="path3695" /><path
       d="m 9.744597,88.841634 c -0.289278,0 -0.486834,0.0952 -0.617362,0.21519 -0.151694,0.13758 -0.257528,0.34925 -0.257528,0.59972 0,0.24695 0.105834,0.45861 0.257528,0.5962 0.130528,0.11994 0.328084,0.21519 0.617362,0.21519 0.289278,0 0.486833,-0.0953 0.617361,-0.21519 0.151695,-0.13759 0.257528,-0.34925 0.257528,-0.5962 0,-0.25047 -0.105833,-0.46214 -0.257528,-0.59972 -0.130528,-0.11994 -0.328083,-0.21519 -0.617361,-0.21519 z m 0,1.2453 c -0.250473,0 -0.430389,-0.19755 -0.430389,-0.43039 0,-0.23989 0.183444,-0.43391 0.430389,-0.43391 0.246944,0 0.430389,0.19402 0.430389,0.43391 0,0.23284 -0.179917,0.43039 -0.430389,0.43039 z"
       style="font-weight:500;font-size:3.52778px;font-family:'Futura PT';-inkscape-font-specification:'Futura PT Medium';text-align:center;text-anchor:middle;fill:#7d46a7;stroke-width:0.5;stroke-linecap:square"
       id="path3697" /><path
       d="m 11.748379,88.841634 c -0.289278,0 -0.486834,0.0952 -0.617362,0.21519 -0.151694,0.13758 -0.257528,0.34925 -0.257528,0.59972 0,0.24695 0.105834,0.45861 0.257528,0.5962 0.130528,0.11994 0.328084,0.21519 0.617362,0.21519 0.289278,0 0.486833,-0.0953 0.617361,-0.21519 0.151695,-0.13759 0.257528,-0.34925 0.257528,-0.5962 0,-0.25047 -0.105833,-0.46214 -0.257528,-0.59972 -0.130528,-0.11994 -0.328083,-0.21519 -0.617361,-0.21519 z m 0,1.2453 c -0.250473,0 -0.430389,-0.19755 -0.430389,-0.43039 0,-0.23989 0.183444,-0.43391 0.430389,-0.43391 0.246944,0 0.430389,0.19402 0.430389,0.43391 0,0.23284 -0.179917,0.43039 -0.430389,0.43039 z"
       style="font-weight:500;font-size:3.52778px;font-family:'Futura PT';-inkscape-font-specification:'Futura PT Medium';text-align:center;text-anchor:middle;fill:#7d46a7;stroke-width:0.5;stroke-linecap:square"
       id="path3699" /><path
       d="m 13.681604,89.257904 v -0.36689 h -0.296333 v -0.52211 h -0.430389 v 0.52211 h -0.169334 v 0.36689 h 0.169334 v 1.16064 h 0.430389 v -1.16064 z"
       style="font-weight:500;font-size:3.52778px;font-family:'Futura PT';-inkscape-font-specification:'Futura PT Medium';text-align:center;text-anchor:middle;fill:#7d46a7;stroke-width:0.5;stroke-linecap:square"
       id="path3701" /></g><g
     inkscape:groupmode="layer"
     id="layer2"
     inkscape:label="components"
     style="display:none;fill:#00ff00"><ellipse
       style="fill:#00ff00;fill-opacity:1;stroke-width:0.162095"
       id="in"
       cx="10.240337"
       cy="22.617687"
       inkscape:transform-center-x="-0.10869659"
       inkscape:transform-center-y="-5.434704"
       inkscape:label="in"
       rx="2.5"
       ry="2.4999626" /><ellipse
       style="fill:#0000ff;fill-opacity:1;stroke-width:0.162095"
       id="out"
       cx="10.215436"
       cy="118.13107"
       inkscape:transform-center-x="-0.1086902"
       inkscape:transform-center-y="-5.434698"
       inkscape:label="out"
       rx="2.5"
       ry="2.4999626" /><ellipse
       style="fill:#0000ff;fill-opacity:1;stroke-width:0.162095"
       id="root"
       cx="10.215455"
       cy="97.104393"
       inkscape:transform-center-x="-0.1086902"
       inkscape:transform-center-y="-5.434698"
       inkscape:label="root"
       rx="2.5"
       ry="2.4999626" /></g></svg>
