<?xml version="1.0" encoding="UTF-8" standalone="no"?>
<!-- Created with Inkscape (http://www.inkscape.org/) -->

<svg
   width="20.32mm"
   height="128.5mm"
   viewBox="0 0 20.32 128.5"
   version="1.1"
   id="svg5"
   inkscape:version="1.2.1 (9c6d41e410, 2022-07-14)"
   sodipodi:docname="PolyTriangle.svg"
   xmlns:inkscape="http://www.inkscape.org/namespaces/inkscape"
   xmlns:sodipodi="http://sodipodi.sourceforge.net/DTD/sodipodi-0.dtd"
   xmlns="http://www.w3.org/2000/svg"
   xmlns:svg="http://www.w3.org/2000/svg">
  <sodipodi:namedview
     id="namedview7"
     pagecolor="#ffffff"
     bordercolor="#000000"
     borderopacity="0.25"
     inkscape:showpageshadow="2"
     inkscape:pageopacity="0.0"
     inkscape:pagecheckerboard="0"
     inkscape:deskcolor="#d1d1d1"
     inkscape:document-units="mm"
     showgrid="false"
     inkscape:zoom="1.4912879"
     inkscape:cx="64.038607"
     inkscape:cy="268.89509"
     inkscape:window-width="1920"
     inkscape:window-height="1017"
     inkscape:window-x="1912"
     inkscape:window-y="-8"
     inkscape:window-maximized="1"
     inkscape:current-layer="layer3" />
  <defs
     id="defs2">
    <rect
       x="30.17526"
       y="16.764033"
       width="4.6939293"
       height="17.434595"
       id="rect1148" />
  </defs>
  <g
     inkscape:label="Background"
     inkscape:groupmode="layer"
     id="layer1">
    <rect
       style="fill:#ffffff;fill-opacity:1;stroke-width:0.264583"
       id="rect894"
       width="35.306454"
       height="133.06451"
       x="-8.338707"
       y="-1.9516128" />
  </g>
  <g
     inkscape:groupmode="layer"
     id="layer2"
     inkscape:label="components">
    <circle
       style="fill:#ff0000;stroke-width:0.162096;fill-opacity:1"
       id="channels"
       cx="10.16"
       cy="15.451611"
       inkscape:transform-center-x="-0.10869517"
       inkscape:transform-center-y="-5.4347841"
       r="2.5"
       inkscape:label="channels" />
    <circle
       style="fill:#ff0000;stroke-width:0.162096;fill-opacity:1"
       id="rate"
       cx="10.16"
       cy="37.435486"
       inkscape:transform-center-x="-0.10869517"
       inkscape:transform-center-y="-5.4347841"
       r="2.5"
       inkscape:label="rate" />
    <circle
       style="fill:#ff0000;stroke-width:0.162096;fill-opacity:1"
       id="min"
       cx="10.16"
       cy="61.741932"
       inkscape:transform-center-x="-0.10869517"
       inkscape:transform-center-y="-5.4347841"
       r="2.5"
       inkscape:label="min" />
    <circle
       style="fill:#0000ff;stroke-width:0.162096;fill-opacity:1"
       id="out"
       cx="10.16"
       cy="111.9516"
       inkscape:transform-center-x="-0.10869517"
       inkscape:transform-center-y="-5.4347841"
       r="2.5"
       inkscape:label="out" />
    <circle
       style="fill:#ff0000;stroke-width:0.162096;fill-opacity:1"
       id="max"
       cx="10.16"
       cy="87.1129"
       inkscape:transform-center-x="-0.10869517"
       inkscape:transform-center-y="-5.4347841"
       r="2.5"
       inkscape:label="max" />
  </g>
  <g
     inkscape:groupmode="layer"
     id="layer3"
     inkscape:label="Text">
    <g
       aria-label="min"
       transform="translate(-2.366605,52.044004)"
       id="text1094-7"
       style="font-size:3.175px;font-family:'Courier New';-inkscape-font-specification:'Courier New';text-align:center;text-anchor:middle;white-space:pre;inline-size:10.236;display:inline;stroke-width:0.264583">
      <path
         d="m 10.071039,3.2703494 v 0.1317749 q 0.165881,-0.1782837 0.333313,-0.1782837 0.100769,0 0.176733,0.05426 0.07597,0.05271 0.127124,0.1612305 0.08682,-0.1085205 0.175183,-0.1612305 0.08992,-0.05426 0.179834,-0.05426 0.141077,0 0.224793,0.091467 0.110071,0.1178223 0.110071,0.2573487 v 0.9100219 h 0.11007 q 0.04651,0 0.06666,0.018604 0.02015,0.017053 0.02015,0.046509 0,0.027905 -0.02015,0.046509 -0.02015,0.018603 -0.06666,0.018603 H 11.267865 V 3.5850589 q 0,-0.099219 -0.06046,-0.1643311 -0.06046,-0.065112 -0.139527,-0.065112 -0.07131,0 -0.150378,0.05426 -0.07906,0.05271 -0.179834,0.2092895 v 0.8635132 h 0.10852 q 0.04651,0 0.06666,0.018604 0.02015,0.017053 0.02015,0.046509 0,0.027905 -0.02015,0.046509 -0.02015,0.018603 -0.06666,0.018603 H 10.60589 V 3.5943607 q 0,-0.1038697 -0.06201,-0.1705323 -0.06046,-0.068213 -0.136426,-0.068213 -0.06976,0 -0.137976,0.044959 -0.09457,0.063562 -0.198437,0.2185913 v 0.8635132 h 0.110071 q 0.04651,0 0.06666,0.018604 0.02015,0.017053 0.02015,0.046509 0,0.027905 -0.02015,0.046509 -0.02015,0.018603 -0.06666,0.018603 H 9.8307434 q -0.046509,0 -0.066662,-0.018603 -0.020154,-0.018604 -0.020154,-0.046509 0,-0.029456 0.020154,-0.046509 0.020154,-0.018604 0.066662,-0.018604 H 9.9408142 V 3.4021243 H 9.8307434 q -0.046509,0 -0.066662,-0.018604 -0.020154,-0.018603 -0.020154,-0.048059 0,-0.027905 0.020154,-0.046509 0.020154,-0.018603 0.066662,-0.018603 z"
         id="path1255" />
      <path
         d="M 12.633673,2.6021732 V 2.9385867 H 12.441437 V 2.6021732 Z m 0.0047,0.6681762 v 1.2123291 h 0.511597 q 0.04806,0 0.06821,0.018604 0.02015,0.017053 0.02015,0.046509 0,0.027905 -0.02015,0.046509 -0.02015,0.018603 -0.06821,0.018603 h -1.153418 q -0.04651,0 -0.06666,-0.018603 -0.02015,-0.018604 -0.02015,-0.046509 0,-0.029456 0.02015,-0.046509 0.02015,-0.018604 0.06666,-0.018604 h 0.511596 V 3.4021243 h -0.379821 q -0.04651,0 -0.06821,-0.018604 -0.02015,-0.018603 -0.02015,-0.046509 0,-0.029456 0.02015,-0.048059 0.02015,-0.018603 0.06821,-0.018603 z"
         id="path1257" />
      <path
         d="m 14.053741,3.2703494 v 0.1968872 q 0.136426,-0.137976 0.246497,-0.190686 0.110071,-0.05271 0.248047,-0.05271 0.148828,0 0.271301,0.063562 0.08682,0.046509 0.15658,0.1550293 0.07131,0.1069703 0.07131,0.2201416 v 0.820105 h 0.110071 q 0.04651,0 0.06666,0.018604 0.02015,0.017053 0.02015,0.046509 0,0.027905 -0.02015,0.046509 -0.02015,0.018603 -0.06666,0.018603 h -0.348816 q -0.04806,0 -0.06821,-0.018603 -0.02015,-0.018604 -0.02015,-0.046509 0,-0.029456 0.02015,-0.046509 0.02015,-0.018604 0.06821,-0.018604 h 0.108521 V 3.6842776 q 0,-0.137976 -0.100769,-0.2325439 -0.100769,-0.096118 -0.269751,-0.096118 -0.128675,0 -0.223243,0.05271 -0.09457,0.05116 -0.269751,0.2573486 v 0.8170044 h 0.147278 q 0.04651,0 0.06666,0.018604 0.02015,0.017053 0.02015,0.046509 0,0.027905 -0.02015,0.046509 -0.02015,0.018603 -0.06666,0.018603 h -0.42478 q -0.04651,0 -0.06666,-0.018603 -0.02015,-0.018604 -0.02015,-0.046509 0,-0.029456 0.02015,-0.046509 0.02015,-0.018604 0.06666,-0.018604 h 0.147278 V 3.4021243 h -0.110071 q -0.04651,0 -0.06666,-0.018604 -0.02015,-0.018603 -0.02015,-0.048059 0,-0.027905 0.02015,-0.046509 0.02015,-0.018603 0.06666,-0.018603 z"
         id="path1259" />
    </g>
    <g
       aria-label="max"
       transform="translate(-2.1891857,77.237551)"
       id="text1094-0"
       style="font-size:3.175px;font-family:'Courier New';-inkscape-font-specification:'Courier New';text-align:center;text-anchor:middle;white-space:pre;inline-size:10.236;display:inline;stroke-width:0.264583">
      <path
         d="m 10.071039,3.2703494 v 0.1317749 q 0.165881,-0.1782837 0.333313,-0.1782837 0.100769,0 0.176733,0.05426 0.07597,0.05271 0.127124,0.1612305 0.08682,-0.1085205 0.175183,-0.1612305 0.08992,-0.05426 0.179834,-0.05426 0.141077,0 0.224793,0.091467 0.110071,0.1178223 0.110071,0.2573487 v 0.9100219 h 0.11007 q 0.04651,0 0.06666,0.018604 0.02015,0.017053 0.02015,0.046509 0,0.027905 -0.02015,0.046509 -0.02015,0.018603 -0.06666,0.018603 H 11.267865 V 3.5850589 q 0,-0.099219 -0.06046,-0.1643311 -0.06046,-0.065112 -0.139527,-0.065112 -0.07131,0 -0.150378,0.05426 -0.07906,0.05271 -0.179834,0.2092895 v 0.8635132 h 0.10852 q 0.04651,0 0.06666,0.018604 0.02015,0.017053 0.02015,0.046509 0,0.027905 -0.02015,0.046509 -0.02015,0.018603 -0.06666,0.018603 H 10.60589 V 3.5943607 q 0,-0.1038697 -0.06201,-0.1705323 -0.06046,-0.068213 -0.136426,-0.068213 -0.06976,0 -0.137976,0.044959 -0.09457,0.063562 -0.198437,0.2185913 v 0.8635132 h 0.110071 q 0.04651,0 0.06666,0.018604 0.02015,0.017053 0.02015,0.046509 0,0.027905 -0.02015,0.046509 -0.02015,0.018603 -0.06666,0.018603 H 9.8307434 q -0.046509,0 -0.066662,-0.018603 -0.020154,-0.018604 -0.020154,-0.046509 0,-0.029456 0.020154,-0.046509 0.020154,-0.018604 0.066662,-0.018604 H 9.9408142 V 3.4021243 H 9.8307434 q -0.046509,0 -0.066662,-0.018604 -0.020154,-0.018603 -0.020154,-0.048059 0,-0.027905 0.020154,-0.046509 0.020154,-0.018603 0.066662,-0.018603 z"
         id="path1262" />
      <path
         d="M 12.943732,4.6129031 V 4.4253177 q -0.283704,0.2387451 -0.606165,0.2387451 -0.234094,0 -0.365869,-0.1178223 -0.131775,-0.1193725 -0.131775,-0.2914551 0,-0.1891357 0.173633,-0.3302123 0.173633,-0.1410767 0.506946,-0.1410767 0.08992,0 0.195337,0.012402 0.10542,0.010852 0.227893,0.035657 V 3.6207156 q 0,-0.1069702 -0.09922,-0.1860351 -0.09922,-0.079065 -0.297656,-0.079065 -0.151929,0 -0.426331,0.088367 -0.04961,0.015503 -0.06356,0.015503 -0.02481,0 -0.04341,-0.018604 -0.01705,-0.018604 -0.01705,-0.046509 0,-0.026355 0.0155,-0.041858 0.0217,-0.023254 0.175183,-0.063562 0.241845,-0.065112 0.365869,-0.065112 0.246496,0 0.384473,0.1224732 0.137976,0.1209228 0.137976,0.2744018 v 0.8619629 h 0.173632 q 0.04806,0 0.06821,0.018604 0.02015,0.017053 0.02015,0.046509 0,0.027905 -0.02015,0.046509 -0.02015,0.018603 -0.06821,0.018603 z m 0,-0.6480224 q -0.09147,-0.026355 -0.193787,-0.038757 -0.102319,-0.012402 -0.215491,-0.012402 -0.283703,0 -0.443383,0.1224731 -0.120923,0.091467 -0.120923,0.2185913 0,0.1178223 0.09147,0.1984375 0.09302,0.080615 0.269751,0.080615 0.168982,0 0.313159,-0.066663 0.145728,-0.068213 0.299207,-0.2154907 z"
         id="path1264" />
      <path
         d="m 14.563788,3.9106204 0.596863,0.5720581 q 0.05891,0 0.07441,0.0062 0.0155,0.00465 0.02635,0.021704 0.0124,0.017053 0.0124,0.037207 0,0.027905 -0.02015,0.046509 -0.02015,0.018603 -0.06821,0.018603 h -0.418579 q -0.04806,0 -0.06821,-0.018603 -0.02015,-0.018604 -0.02015,-0.046509 0,-0.029456 0.02015,-0.046509 0.02015,-0.018604 0.06821,-0.018604 h 0.215491 L 14.475421,3.9974368 13.971576,4.4826785 h 0.217041 q 0.04651,0 0.06666,0.018604 0.02015,0.017053 0.02015,0.046509 0,0.027905 -0.02015,0.046509 -0.02015,0.018603 -0.06666,0.018603 h -0.42323 q -0.04651,0 -0.06666,-0.018603 -0.02015,-0.018604 -0.02015,-0.046509 0,-0.020154 0.01085,-0.037207 0.0124,-0.017053 0.02636,-0.021704 0.0155,-0.0062 0.07441,-0.0062 l 0.596862,-0.5720581 -0.5302,-0.5084961 q -0.05581,0 -0.07131,-0.0062 -0.01395,-0.0062 -0.02636,-0.023254 -0.01085,-0.017053 -0.01085,-0.037207 0,-0.027905 0.02015,-0.046509 0.02015,-0.018603 0.06821,-0.018603 h 0.355018 q 0.04806,0 0.06666,0.018603 0.02015,0.018604 0.02015,0.048059 0,0.027905 -0.02015,0.046509 -0.0186,0.018604 -0.06666,0.018604 h -0.15503 l 0.438733,0.42323 0.441834,-0.42323 h -0.15503 q -0.04651,0 -0.06821,-0.018604 -0.02015,-0.018603 -0.02015,-0.048059 0,-0.027905 0.02015,-0.046509 0.02015,-0.018603 0.06821,-0.018603 h 0.355017 q 0.04651,0 0.06666,0.018603 0.02015,0.018604 0.02015,0.048059 0,0.018603 -0.0124,0.035657 -0.01085,0.017053 -0.02636,0.023254 -0.01395,0.0062 -0.06976,0.0062 z"
         id="path1266" />
    </g>
    <g
       aria-label="out"
       transform="translate(-2.5440244,102.25368)"
       id="text1094-4"
       style="font-size:3.175px;font-family:'Courier New';-inkscape-font-specification:'Courier New';text-align:center;text-anchor:middle;white-space:pre;inline-size:10.236;display:inline;stroke-width:0.264583">
      <path
         d="m 11.391888,3.9447269 q 0,0.2976562 -0.21394,0.508496 -0.21239,0.2108399 -0.513147,0.2108399 -0.303857,0 -0.516247,-0.2108399 -0.2123906,-0.2123901 -0.2123906,-0.508496 0,-0.2976563 0.2123906,-0.5084961 0.21239,-0.2123902 0.516247,-0.2123902 0.300757,0 0.513147,0.2108399 0.21394,0.2108398 0.21394,0.5100464 z m -0.131774,0 q 0,-0.2449463 -0.175184,-0.4170288 -0.173632,-0.1720826 -0.421679,-0.1720826 -0.248047,0 -0.42323,0.1736328 -0.173633,0.1720826 -0.173633,0.4154786 0,0.2418457 0.173633,0.4154785 0.175183,0.1736328 0.42323,0.1736328 0.248047,0 0.421679,-0.1720825 0.175184,-0.1736328 0.175184,-0.4170288 z"
         id="path1269" />
      <path
         d="m 13.015045,4.6129031 v -0.190686 q -0.26665,0.2418457 -0.576709,0.2418457 -0.190686,0 -0.289905,-0.1038696 Q 12.019757,4.4237674 12.019757,4.2423831 V 3.4021243 h -0.175183 q -0.04651,0 -0.06666,-0.018604 -0.02015,-0.018603 -0.02015,-0.048059 0,-0.027905 0.02015,-0.046509 0.02015,-0.018603 0.06666,-0.018603 h 0.305408 v 0.9720337 q 0,0.127124 0.08061,0.2092896 0.08061,0.082166 0.201538,0.082166 0.31781,0 0.58291,-0.2914551 V 3.4021243 H 12.77475 q -0.04651,0 -0.06666,-0.018604 -0.02015,-0.018603 -0.02015,-0.048059 0,-0.027905 0.02015,-0.046509 0.02015,-0.018603 0.06666,-0.018603 h 0.37052 v 1.2123291 h 0.110071 q 0.04651,0 0.06666,0.018604 0.02015,0.017053 0.02015,0.046509 0,0.027905 -0.02015,0.046509 -0.02015,0.018603 -0.06666,0.018603 z"
         id="path1271" />
      <path
         d="m 14.20722,3.2703494 h 0.706934 q 0.04651,0 0.06666,0.018603 0.02015,0.018604 0.02015,0.048059 0,0.027905 -0.02015,0.046509 -0.02015,0.018604 -0.06666,0.018604 H 14.20722 v 0.8666138 q 0,0.1131714 0.08992,0.1891357 0.09147,0.075964 0.266651,0.075964 0.131775,0 0.285254,-0.038757 0.153479,-0.040308 0.238745,-0.089917 0.03101,-0.020154 0.05116,-0.020154 0.0248,0 0.04341,0.020154 0.0186,0.018604 0.0186,0.044958 0,0.023254 -0.02015,0.043408 -0.04961,0.05116 -0.241845,0.1116211 -0.190686,0.058911 -0.365869,0.058911 -0.227893,0 -0.362769,-0.1069702 Q 14.075446,4.4501224 14.075446,4.2687381 V 3.4021243 H 13.83515 q -0.04651,0 -0.06666,-0.018604 -0.02015,-0.018603 -0.02015,-0.048059 0,-0.027905 0.02015,-0.046509 0.02015,-0.018603 0.06666,-0.018603 h 0.240296 V 2.8858768 q 0,-0.046509 0.0186,-0.066663 0.0186,-0.020154 0.04651,-0.020154 0.02946,0 0.04806,0.020154 0.0186,0.020154 0.0186,0.066663 z"
         id="path1273" />
    </g>
    <g
       aria-label="channels"
       id="text1053"
       style="font-size:3.175px;font-family:'Courier New';-inkscape-font-specification:'Courier New';text-align:center;text-anchor:middle;stroke-width:0.264583">
      <path
         d="m 3.9876962,8.9021248 v -0.043408 q 0,-0.048059 0.018603,-0.068213 0.018604,-0.020154 0.046509,-0.020154 0.029456,0 0.048059,0.020154 0.018604,0.020154 0.018604,0.068213 v 0.2945557 q -0.00155,0.048059 -0.020154,0.068213 -0.017053,0.020154 -0.046509,0.020154 -0.026355,0 -0.044958,-0.017053 Q 3.9907968,9.2059822 3.9876962,9.1641243 3.9783944,9.0540535 3.8419686,8.9548348 3.7070931,8.855616 3.4776498,8.855616 q -0.2899048,0 -0.4402832,0.1813843 -0.1503784,0.1813843 -0.1503784,0.4154785 0,0.2526978 0.1658813,0.4170288 0.1658814,0.1643314 0.4294312,0.1643314 0.1519287,0 0.3085083,-0.055811 0.1581298,-0.05581 0.2852539,-0.179834 0.032556,-0.031006 0.057361,-0.031006 0.026355,0 0.043408,0.018603 0.018604,0.017053 0.018604,0.043408 0,0.066663 -0.1565796,0.1689819 -0.2526977,0.1658811 -0.5627563,0.1658811 -0.3147095,0 -0.5177978,-0.1999875 -0.2015381,-0.2015381 -0.2015381,-0.5100464 0,-0.3147095 0.2061889,-0.5224487 0.2077393,-0.2077393 0.5224488,-0.2077393 0.2992065,0 0.5022949,0.1782837 z"
         id="path1068" />
      <path
         d="M 4.9209725,8.1672859 V 8.9687874 Q 5.044996,8.8339119 5.1581673,8.7796517 5.272889,8.7238411 5.4139657,8.7238411 q 0.1519287,0 0.2573486,0.05426 0.1069702,0.05271 0.1782837,0.164331 0.071313,0.1100708 0.071313,0.232544 V 9.982679 H 6.066639 q 0.048059,0 0.066663,0.018604 0.020154,0.01705 0.020154,0.04651 0,0.02791 -0.020154,0.04651 -0.018604,0.0186 -0.066663,0.0186 h -0.42323 q -0.048059,0 -0.068213,-0.0186 -0.020154,-0.0186 -0.020154,-0.04651 0,-0.02946 0.020154,-0.04651 Q 5.59535,9.982679 5.643409,9.982679 H 5.7891366 V 9.1842781 q 0,-0.1410766 -0.1023194,-0.2356445 -0.100769,-0.094568 -0.2821533,-0.094568 -0.1426269,0 -0.243396,0.069763 -0.072864,0.049609 -0.2402954,0.2340942 V 9.982679 h 0.1472779 q 0.046509,0 0.066663,0.018604 0.020154,0.01705 0.020154,0.04651 0,0.02791 -0.020154,0.04651 -0.020154,0.0186 -0.066663,0.0186 H 4.6434701 q -0.046509,0 -0.066663,-0.0186 -0.020154,-0.0186 -0.020154,-0.04651 0,-0.02946 0.020154,-0.04651 0.020154,-0.018604 0.066663,-0.018604 H 4.7907479 V 8.2990608 H 4.6155648 q -0.046509,0 -0.066663,-0.018603 -0.020154,-0.018603 -0.020154,-0.048059 0,-0.027905 0.020154,-0.046509 0.020154,-0.018604 0.066663,-0.018604 z"
         id="path1070" />
      <path
         d="M 7.6293343,10.112904 V 9.9253181 q -0.2837036,0.2387449 -0.6061645,0.2387449 -0.2340943,0 -0.3658692,-0.117822 -0.1317749,-0.1193726 -0.1317749,-0.2914551 0,-0.1891357 0.1736328,-0.3302124 0.1736328,-0.1410766 0.5069458,-0.1410766 0.089917,0 0.1953369,0.012402 0.10542,0.010852 0.2278931,0.035657 V 9.1207161 q 0,-0.1069702 -0.099219,-0.1860351 -0.099219,-0.079065 -0.2976563,-0.079065 -0.1519287,0 -0.4263305,0.088367 -0.049609,0.015503 -0.063562,0.015503 -0.024805,0 -0.043408,-0.018604 -0.017053,-0.018603 -0.017053,-0.046509 0,-0.026355 0.015503,-0.041858 0.021704,-0.023254 0.1751831,-0.063562 0.2418457,-0.065112 0.3658692,-0.065112 0.2464966,0 0.3844726,0.1224732 0.1379761,0.1209228 0.1379761,0.2744018 V 9.982679 H 7.934742 q 0.048059,0 0.068213,0.018604 0.020154,0.01705 0.020154,0.04651 0,0.02791 -0.020154,0.04651 -0.020154,0.0186 -0.068213,0.0186 z m 0,-0.6480229 Q 7.537867,9.4385262 7.4355477,9.4261238 7.3332284,9.4137215 7.220057,9.4137215 q -0.2837036,0 -0.4433838,0.1224731 -0.1209229,0.091467 -0.1209229,0.2185913 0,0.1178223 0.091467,0.1984375 0.093018,0.080616 0.269751,0.080616 0.1689819,0 0.3131592,-0.066663 0.1457275,-0.068213 0.2992065,-0.2154908 z"
         id="path1072" />
      <path
         d="m 8.7393439,8.7703499 v 0.1968872 q 0.1364258,-0.1379761 0.2464966,-0.190686 0.1100708,-0.05271 0.2480469,-0.05271 0.1488281,0 0.2713013,0.063562 0.086816,0.046509 0.1565795,0.1550293 0.071314,0.1069702 0.071314,0.2201416 v 0.820105 h 0.1100708 q 0.046509,0 0.066663,0.018604 0.020154,0.01705 0.020154,0.04651 0,0.02791 -0.020154,0.04651 -0.020154,0.0186 -0.066663,0.0186 H 9.4943366 q -0.048059,0 -0.068213,-0.0186 -0.020154,-0.0186 -0.020154,-0.04651 0,-0.02946 0.020154,-0.04651 0.020154,-0.018604 0.068213,-0.018604 H 9.6028571 V 9.1842781 q 0,-0.1379761 -0.100769,-0.2325439 -0.1007691,-0.096118 -0.269751,-0.096118 -0.1286743,0 -0.2232422,0.05271 -0.094568,0.05116 -0.269751,0.2573486 V 9.982679 h 0.1472779 q 0.046509,0 0.066663,0.018604 0.020154,0.01705 0.020154,0.04651 0,0.02791 -0.020154,0.04651 -0.020154,0.0186 -0.066663,0.0186 H 8.4618415 q -0.046509,0 -0.066663,-0.0186 -0.020154,-0.0186 -0.020154,-0.04651 0,-0.02946 0.020154,-0.04651 0.020154,-0.018604 0.066663,-0.018604 H 8.6091193 V 8.9021248 H 8.4990485 q -0.046509,0 -0.066663,-0.018603 -0.020154,-0.018603 -0.020154,-0.048059 0,-0.027905 0.020154,-0.046509 0.020154,-0.018604 0.066663,-0.018604 z"
         id="path1074" />
      <path
         d="m 10.644654,8.7703499 v 0.1968872 q 0.136426,-0.1379761 0.246497,-0.190686 0.11007,-0.05271 0.248047,-0.05271 0.148828,0 0.271301,0.063562 0.08682,0.046509 0.156579,0.1550293 0.07131,0.1069702 0.07131,0.2201416 v 0.820105 h 0.110071 q 0.04651,0 0.06666,0.018604 0.02015,0.01705 0.02015,0.04651 0,0.02791 -0.02015,0.04651 -0.02015,0.0186 -0.06666,0.0186 h -0.348816 q -0.04806,0 -0.06821,-0.0186 -0.02015,-0.0186 -0.02015,-0.04651 0,-0.02946 0.02015,-0.04651 0.02015,-0.018604 0.06821,-0.018604 h 0.10852 V 9.1842781 q 0,-0.1379761 -0.100769,-0.2325439 -0.100769,-0.096118 -0.269751,-0.096118 -0.128674,0 -0.223242,0.05271 -0.09457,0.05116 -0.269751,0.2573486 V 9.982679 h 0.147278 q 0.04651,0 0.06666,0.018604 0.02015,0.01705 0.02015,0.04651 0,0.02791 -0.02015,0.04651 -0.02015,0.0186 -0.06666,0.0186 h -0.42478 q -0.04651,0 -0.06666,-0.0186 -0.02015,-0.0186 -0.02015,-0.04651 0,-0.02946 0.02015,-0.04651 0.02015,-0.018604 0.06666,-0.018604 h 0.147277 V 8.9021248 h -0.11007 q -0.04651,0 -0.06666,-0.018603 -0.02015,-0.018603 -0.02015,-0.048059 0,-0.027905 0.02015,-0.046509 0.02015,-0.018604 0.06666,-0.018604 z"
         id="path1076" />
      <path
         d="m 13.675477,9.4726326 h -1.327051 q 0.03411,0.2526978 0.21084,0.4077271 0.178284,0.1534793 0.440283,0.1534793 0.145728,0 0.305408,-0.048059 0.15968,-0.048059 0.260449,-0.127124 0.02946,-0.023254 0.05116,-0.023254 0.0248,0 0.04341,0.020154 0.0186,0.018603 0.0186,0.044958 0,0.026355 -0.02481,0.05116 -0.07441,0.077515 -0.2651,0.1457279 -0.189136,0.06666 -0.389124,0.06666 -0.334863,0 -0.559656,-0.218591 -0.223242,-0.2201416 -0.223242,-0.5317505 0,-0.2837036 0.20929,-0.486792 0.21084,-0.2030884 0.520898,-0.2030884 0.319361,0 0.52555,0.2092896 0.206189,0.2077392 0.203088,0.5395019 z M 13.543702,9.3408577 Q 13.504945,9.125367 13.339063,8.9904915 13.174732,8.855616 12.946839,8.855616 q -0.227893,0 -0.392224,0.1333252 -0.164331,0.1333252 -0.204639,0.3519165 z"
         id="path1078" />
      <path
         d="M 14.942066,8.1672859 V 9.982679 h 0.511597 q 0.04806,0 0.06821,0.018604 0.02015,0.01705 0.02015,0.04651 0,0.02791 -0.02015,0.04651 -0.02015,0.0186 -0.06821,0.0186 h -1.153418 q -0.04651,0 -0.06666,-0.0186 -0.02015,-0.0186 -0.02015,-0.04651 0,-0.02946 0.02015,-0.04651 0.02015,-0.018604 0.06666,-0.018604 h 0.511596 V 8.2990608 H 14.43667 q -0.04651,0 -0.06821,-0.018603 -0.02015,-0.018603 -0.02015,-0.048059 0,-0.027905 0.02015,-0.046509 0.02015,-0.018604 0.06821,-0.018604 z"
         id="path1080" />
      <path
         d="m 17.211695,8.855616 q 0,-0.044958 0.0186,-0.065112 0.0186,-0.020154 0.04651,-0.020154 0.02946,0 0.04806,0.020154 0.0186,0.020154 0.0186,0.068213 v 0.2232422 q 0,0.046509 -0.0186,0.066663 -0.0186,0.020154 -0.04806,0.020154 -0.02635,0 -0.04496,-0.017053 -0.01705,-0.017053 -0.02015,-0.055811 -0.0093,-0.093018 -0.09612,-0.153479 -0.127124,-0.086816 -0.336413,-0.086816 -0.218592,0 -0.339515,0.088367 -0.09147,0.066663 -0.09147,0.1488281 0,0.093018 0.108521,0.1550293 0.07441,0.043408 0.282153,0.066663 0.271301,0.029456 0.376721,0.066663 0.150379,0.05426 0.223242,0.1503784 0.07441,0.096118 0.07441,0.2077393 0,0.1658813 -0.15968,0.296106 -0.15968,0.128674 -0.468188,0.128674 -0.308508,0 -0.505396,-0.156579 0,0.05271 -0.0062,0.06821 -0.0062,0.0155 -0.02325,0.02636 -0.0155,0.01085 -0.03566,0.01085 -0.0279,0 -0.04651,-0.02015 -0.0186,-0.02015 -0.0186,-0.06666 V 9.7578865 q 0,-0.046509 0.01705,-0.066663 0.0186,-0.020154 0.04806,-0.020154 0.02791,0 0.04651,0.020154 0.02015,0.018603 0.02015,0.05116 0,0.071314 0.03566,0.1193725 0.05426,0.074414 0.172083,0.1240235 0.119372,0.048059 0.291455,0.048059 0.254248,0 0.378271,-0.094568 0.124024,-0.094568 0.124024,-0.1999878 0,-0.1209229 -0.125574,-0.1937866 -0.127124,-0.072864 -0.37052,-0.097668 -0.241846,-0.024805 -0.347266,-0.065112 -0.105419,-0.040308 -0.164331,-0.1209228 -0.05891,-0.080615 -0.05891,-0.1736328 0,-0.1674317 0.164331,-0.2651001 0.164331,-0.099219 0.392224,-0.099219 0.269751,0 0.438733,0.1317749 z"
         id="path1082" />
    </g>
    <g
       aria-label="rate"
       id="text790"
       style="font-size:3.175px;font-family:'Courier New';-inkscape-font-specification:'Courier New';text-align:center;text-anchor:middle;stroke-width:0.264583">
      <path
         d="m 6.7442948,30.415511 v 0.328662 q 0.254248,-0.229444 0.3798218,-0.294556 0.127124,-0.06666 0.2340942,-0.06666 0.116272,0 0.2154907,0.07906 0.1007691,0.07751 0.1007691,0.117823 0,0.02946 -0.020154,0.04961 -0.018604,0.0186 -0.048059,0.0186 -0.015503,0 -0.026355,-0.0047 -0.010852,-0.0062 -0.040308,-0.03566 -0.05426,-0.05426 -0.094568,-0.07441 -0.040308,-0.02015 -0.079065,-0.02015 -0.085266,0 -0.206189,0.06821 -0.1193726,0.06821 -0.4154785,0.333313 v 0.713135 h 0.576709 q 0.048059,0 0.068213,0.0186 0.020154,0.01705 0.020154,0.04651 0,0.02791 -0.020154,0.04651 -0.020154,0.0186 -0.068213,0.0186 H 6.2993607 q -0.046509,0 -0.066663,-0.01705 -0.020154,-0.0186 -0.020154,-0.04651 0,-0.02635 0.018603,-0.04341 0.020154,-0.0186 0.068213,-0.0186 H 6.6140702 V 30.547285 H 6.3737748 q -0.046509,0 -0.066663,-0.0186 -0.020154,-0.0186 -0.020154,-0.04806 0,-0.02791 0.018604,-0.04651 0.020154,-0.0186 0.068213,-0.0186 z"
         id="path1059" />
      <path
         d="m 9.179805,31.758064 v -0.187585 q -0.2837036,0.238745 -0.6061645,0.238745 -0.2340943,0 -0.3658692,-0.117822 -0.1317749,-0.119373 -0.1317749,-0.291455 0,-0.189136 0.1736328,-0.330213 0.1736328,-0.141076 0.5069458,-0.141076 0.089917,0 0.1953369,0.0124 0.10542,0.01085 0.2278931,0.03566 v -0.21084 q 0,-0.10697 -0.099219,-0.186035 -0.099219,-0.07906 -0.2976563,-0.07906 -0.1519287,0 -0.4263305,0.08837 -0.049609,0.0155 -0.063562,0.0155 -0.024805,0 -0.043408,-0.0186 -0.017053,-0.0186 -0.017053,-0.04651 0,-0.02635 0.015503,-0.04186 0.021704,-0.02325 0.1751831,-0.06356 0.2418457,-0.06511 0.3658692,-0.06511 0.2464966,0 0.3844726,0.122473 0.1379761,0.120923 0.1379761,0.274402 v 0.861963 h 0.1736328 q 0.048059,0 0.068213,0.0186 0.020154,0.01705 0.020154,0.04651 0,0.02791 -0.020154,0.04651 -0.020154,0.0186 -0.068213,0.0186 z m 0,-0.648022 q -0.091467,-0.02635 -0.1937866,-0.03876 -0.1023193,-0.0124 -0.2154907,-0.0124 -0.2837036,0 -0.4433838,0.122473 -0.1209229,0.09147 -0.1209229,0.218592 0,0.117822 0.091467,0.198437 0.093018,0.08062 0.269751,0.08062 0.1689819,0 0.3131592,-0.06666 0.1457275,-0.06821 0.2992065,-0.215491 z"
         id="path1061" />
      <path
         d="m 10.443294,30.415511 h 0.706933 q 0.04651,0 0.06666,0.0186 0.02015,0.0186 0.02015,0.04806 0,0.02791 -0.02015,0.04651 -0.02015,0.0186 -0.06666,0.0186 h -0.706933 v 0.866614 q 0,0.113172 0.08992,0.189136 0.09147,0.07596 0.26665,0.07596 0.131775,0 0.285254,-0.03876 0.153479,-0.04031 0.238745,-0.08992 0.03101,-0.02015 0.05116,-0.02015 0.02481,0 0.04341,0.02015 0.0186,0.0186 0.0186,0.04496 0,0.02325 -0.02015,0.04341 -0.04961,0.05116 -0.241846,0.111621 -0.190686,0.05891 -0.365869,0.05891 -0.227893,0 -0.362769,-0.10697 -0.134875,-0.10697 -0.134875,-0.288355 v -0.866614 h -0.240296 q -0.04651,0 -0.06666,-0.0186 -0.020154,-0.0186 -0.020154,-0.04806 0,-0.02791 0.020154,-0.04651 0.02015,-0.0186 0.06666,-0.0186 h 0.240296 v -0.384473 q 0,-0.04651 0.0186,-0.06666 0.0186,-0.02015 0.04651,-0.02015 0.02946,0 0.04806,0.02015 0.0186,0.02015 0.0186,0.06666 z"
         id="path1063" />
      <path
         d="m 13.320637,31.117793 h -1.32705 q 0.03411,0.252698 0.210839,0.407727 0.178284,0.153479 0.440284,0.153479 0.145727,0 0.305407,-0.04806 0.159681,-0.04806 0.26045,-0.127124 0.02946,-0.02325 0.05116,-0.02325 0.02481,0 0.04341,0.02015 0.0186,0.0186 0.0186,0.04496 0,0.02635 -0.02481,0.05116 -0.07441,0.07751 -0.2651,0.145727 -0.189136,0.06666 -0.389123,0.06666 -0.334864,0 -0.559656,-0.218591 -0.223242,-0.220142 -0.223242,-0.531751 0,-0.283703 0.209289,-0.486792 0.21084,-0.203088 0.520899,-0.203088 0.31936,0 0.525549,0.209289 0.206189,0.20774 0.203088,0.539502 z m -0.131775,-0.131775 q -0.03876,-0.21549 -0.204638,-0.350366 -0.164331,-0.134875 -0.392224,-0.134875 -0.227893,0 -0.392224,0.133325 -0.164331,0.133325 -0.204639,0.351916 z"
         id="path1065" />
    </g>
  </g>
</svg>
