<?xml version="1.0" encoding="UTF-8" standalone="no"?>
<!-- Created with Inkscape (http://www.inkscape.org/) -->

<svg
   width="20.32mm"
   height="128.5mm"
   viewBox="0 0 20.32 128.5"
   version="1.1"
   id="svg5"
   inkscape:version="1.2.1 (9c6d41e410, 2022-07-14)"
   sodipodi:docname="PolyAutoPan.svg"
   xmlns:inkscape="http://www.inkscape.org/namespaces/inkscape"
   xmlns:sodipodi="http://sodipodi.sourceforge.net/DTD/sodipodi-0.dtd"
   xmlns="http://www.w3.org/2000/svg"
   xmlns:svg="http://www.w3.org/2000/svg">
  <sodipodi:namedview
     id="namedview7"
     pagecolor="#ffffff"
     bordercolor="#000000"
     borderopacity="0.25"
     inkscape:showpageshadow="2"
     inkscape:pageopacity="0.0"
     inkscape:pagecheckerboard="0"
     inkscape:deskcolor="#d1d1d1"
     inkscape:document-units="mm"
     showgrid="false"
     inkscape:zoom="1.4912879"
     inkscape:cx="66.720852"
     inkscape:cy="268.89509"
     inkscape:window-width="1920"
     inkscape:window-height="1017"
     inkscape:window-x="-8"
     inkscape:window-y="-8"
     inkscape:window-maximized="1"
     inkscape:current-layer="layer3" />
  <defs
     id="defs2">
    <rect
       x="30.17526"
       y="16.764033"
       width="4.6939293"
       height="17.434595"
       id="rect1148" />
  </defs>
  <g
     inkscape:label="Background"
     inkscape:groupmode="layer"
     id="layer1">
    <rect
       style="fill:#ffffff;fill-opacity:1;stroke-width:0.264583"
       id="rect894"
       width="35.306454"
       height="133.06451"
       x="-8.338707"
       y="-1.9516128" />
  </g>
  <g
     inkscape:groupmode="layer"
     id="layer2"
     inkscape:label="components">
    <circle
       style="fill:#00ff00;stroke-width:0.162096;fill-opacity:1"
       id="in"
       cx="10.16"
       cy="15.451611"
       inkscape:transform-center-x="-0.10869517"
       inkscape:transform-center-y="-5.4347841"
       r="2.5"
       inkscape:label="in" />
    <circle
       style="fill:#ff0000;fill-opacity:1;stroke-width:0.162096"
       id="rate"
       cx="9.8051615"
       cy="64.048386"
       inkscape:transform-center-x="-0.10869517"
       inkscape:transform-center-y="-5.4347841"
       r="2.5"
       inkscape:label="rate" />
    <circle
       style="fill:#0000ff;fill-opacity:1;stroke-width:0.162096"
       id="left"
       cx="13.950967"
       cy="112.30643"
       inkscape:transform-center-x="-0.10869517"
       inkscape:transform-center-y="-5.4347841"
       r="2.5"
       inkscape:label="left" />
    <circle
       style="fill:#0000ff;fill-opacity:1;stroke-width:0.162096"
       id="right"
       cx="5.7896767"
       cy="112.30646"
       inkscape:transform-center-x="-0.10869517"
       inkscape:transform-center-y="-5.4347841"
       r="2.5"
       inkscape:label="right" />
  </g>
  <g
     inkscape:groupmode="layer"
     id="layer3"
     inkscape:label="Text">
    <g
       aria-label="in"
       id="text398"
       style="font-size:3.175px;font-family:'Courier New';-inkscape-font-specification:'Courier New';text-align:center;text-anchor:middle;stroke-width:0.264583">
      <path
         d="M 9.0471661,7.2150763 V 7.5514899 H 8.8549297 V 7.2150763 Z m 0.00465,0.6681762 v 1.2123291 h 0.5115966 q 0.048059,0 0.068213,0.018604 0.020154,0.017053 0.020154,0.046509 0,0.027905 -0.020154,0.046509 -0.020154,0.018603 -0.068213,0.018603 H 8.4099957 q -0.046509,0 -0.066663,-0.018603 -0.020154,-0.018603 -0.020154,-0.046509 0,-0.029455 0.020154,-0.046509 0.020154,-0.018604 0.066663,-0.018604 H 8.9215923 V 8.0150274 H 8.5417706 q -0.046509,0 -0.068213,-0.018603 -0.020154,-0.018604 -0.020154,-0.046509 0,-0.029456 0.020154,-0.048059 0.020154,-0.018604 0.068213,-0.018604 z"
         id="path1170" />
      <path
         d="m 10.467234,7.8832525 v 0.1968872 q 0.136426,-0.137976 0.246497,-0.190686 0.110071,-0.05271 0.248047,-0.05271 0.148828,0 0.271301,0.063562 0.08682,0.046509 0.15658,0.1550293 0.07131,0.1069702 0.07131,0.2201416 v 0.8201049 h 0.110071 q 0.04651,0 0.06666,0.018604 0.02015,0.017053 0.02015,0.046509 0,0.027905 -0.02015,0.046509 -0.02015,0.018603 -0.06666,0.018603 h -0.348816 q -0.04806,0 -0.06821,-0.018603 -0.02015,-0.018603 -0.02015,-0.046509 0,-0.029455 0.02015,-0.046509 0.02015,-0.018604 0.06821,-0.018604 h 0.108521 V 8.2971808 q 0,-0.1379761 -0.100769,-0.232544 -0.100769,-0.096118 -0.269751,-0.096118 -0.128675,0 -0.223243,0.05271 -0.09457,0.05116 -0.269751,0.2573486 v 0.8170044 h 0.147278 q 0.04651,0 0.06666,0.018604 0.02015,0.017053 0.02015,0.046509 0,0.027905 -0.02015,0.046509 -0.02015,0.018603 -0.06666,0.018603 h -0.42478 q -0.04651,0 -0.06666,-0.018603 -0.02015,-0.018603 -0.02015,-0.046509 0,-0.029455 0.02015,-0.046509 0.02015,-0.018604 0.06666,-0.018604 H 10.33701 V 8.0150274 h -0.110071 q -0.04651,0 -0.06666,-0.018603 -0.02015,-0.018604 -0.02015,-0.048059 0,-0.027905 0.02015,-0.046509 0.02015,-0.018604 0.06666,-0.018604 z"
         id="path1172" />
    </g>
    <g
       aria-label="L    R"
       id="text558"
       style="font-size:3.175px;font-family:'Courier New';-inkscape-font-specification:'Courier New';text-align:center;text-anchor:middle;stroke-width:0.264583">
      <path
         d="m 5.1240609,104.41315 v 1.5534 h 0.8650635 v -0.5178 q 0,-0.0465 0.018604,-0.0667 0.018604,-0.0202 0.048059,-0.0202 0.027905,0 0.046509,0.0202 0.018604,0.0186 0.018604,0.0667 v 0.64802 H 4.6822274 q -0.046509,0 -0.066663,-0.0186 -0.020154,-0.0186 -0.020154,-0.0465 0,-0.0295 0.020154,-0.0465 0.020154,-0.0186 0.066663,-0.0186 H 4.992286 v -1.5534 H 4.6822274 q -0.046509,0 -0.066663,-0.017 -0.020154,-0.0186 -0.020154,-0.0481 0,-0.0294 0.020154,-0.0465 0.020154,-0.0186 0.066663,-0.0186 h 0.7518921 q 0.046509,0 0.066663,0.0186 0.020154,0.0171 0.020154,0.0465 0,0.0295 -0.020154,0.0481 -0.020154,0.017 -0.066663,0.017 z"
         id="path1175" />
      <path
         d="m 14.452174,105.28752 v 0.67903 h 0.240295 q 0.04806,0 0.06821,0.0186 0.02015,0.017 0.02015,0.0465 0,0.0279 -0.02015,0.0465 -0.02015,0.0186 -0.06821,0.0186 h -0.545703 q -0.04651,0 -0.06666,-0.0186 -0.02015,-0.0186 -0.02015,-0.0465 0,-0.0295 0.02015,-0.0465 0.02015,-0.0186 0.06666,-0.0186 h 0.175183 v -1.5534 h -0.175183 q -0.04651,0 -0.06666,-0.017 -0.02015,-0.0186 -0.02015,-0.0481 0,-0.0294 0.02015,-0.0465 0.02015,-0.0186 0.06666,-0.0186 h 0.787549 q 0.243396,0 0.409277,0.15503 0.167432,0.15348 0.167432,0.34726 0,0.13953 -0.10387,0.26355 -0.102319,0.12248 -0.344165,0.20464 0.139526,0.0961 0.238745,0.21704 0.09922,0.12093 0.31781,0.4961 h 0.09922 q 0.04651,0 0.06666,0.0186 0.02015,0.017 0.02015,0.0465 0,0.0279 -0.02015,0.0465 -0.02015,0.0186 -0.06666,0.0186 H 15.54513 q -0.241845,-0.43253 -0.375171,-0.57981 -0.131775,-0.14728 -0.303857,-0.22944 z m 0,-0.13023 h 0.355017 q 0.170532,0 0.308508,-0.062 0.139526,-0.062 0.201538,-0.14573 0.06356,-0.0837 0.06356,-0.17053 0,-0.13022 -0.131775,-0.24804 -0.130224,-0.11783 -0.31781,-0.11783 h -0.47904 z"
         id="path1177" />
    </g>
    <g
       aria-label="rate"
       id="text554"
       style="font-size:3.175px;font-family:'Courier New';-inkscape-font-specification:'Courier New';text-align:center;text-anchor:middle;stroke-width:0.264583">
      <path
         d="m 6.5668761,56.141318 v 0.328662 q 0.254248,-0.229443 0.3798217,-0.294556 0.1271241,-0.06666 0.2340943,-0.06666 0.116272,0 0.2154907,0.07906 0.100769,0.07751 0.100769,0.117822 0,0.02945 -0.020154,0.04961 -0.018604,0.0186 -0.048059,0.0186 -0.015503,0 -0.026355,-0.0047 -0.010852,-0.0062 -0.040308,-0.03566 -0.05426,-0.05426 -0.094568,-0.07441 -0.040308,-0.02015 -0.079065,-0.02015 -0.085266,0 -0.2061889,0.06821 -0.1193726,0.06821 -0.4154785,0.333313 v 0.713135 h 0.576709 q 0.048059,0 0.068213,0.0186 0.020154,0.01705 0.020154,0.04651 0,0.0279 -0.020154,0.04651 -0.020154,0.0186 -0.068213,0.0186 H 6.121942 q -0.046509,0 -0.066663,-0.01705 -0.020154,-0.0186 -0.020154,-0.04651 0,-0.02636 0.018604,-0.04341 0.020154,-0.0186 0.068213,-0.0186 H 6.4366515 V 56.273093 H 6.1963561 q -0.046509,0 -0.066663,-0.0186 -0.020154,-0.0186 -0.020154,-0.04806 0,-0.0279 0.018604,-0.04651 0.020154,-0.0186 0.068213,-0.0186 z"
         id="path1180" />
      <path
         d="m 9.0023863,57.483871 v -0.187585 q -0.2837036,0.238745 -0.6061645,0.238745 -0.2340943,0 -0.3658692,-0.117822 -0.1317749,-0.119373 -0.1317749,-0.291455 0,-0.189136 0.1736328,-0.330213 0.1736328,-0.141076 0.5069458,-0.141076 0.089917,0 0.1953369,0.0124 0.10542,0.01085 0.2278931,0.03566 v -0.21084 q 0,-0.10697 -0.099219,-0.186035 -0.099219,-0.07906 -0.2976562,-0.07906 -0.1519287,0 -0.4263306,0.08837 -0.049609,0.0155 -0.063562,0.0155 -0.024805,0 -0.043408,-0.0186 -0.017053,-0.0186 -0.017053,-0.04651 0,-0.02636 0.015503,-0.04186 0.021704,-0.02325 0.1751831,-0.06356 0.2418457,-0.06511 0.3658692,-0.06511 0.2464966,0 0.3844726,0.122473 0.1379761,0.120923 0.1379761,0.274402 v 0.861963 H 9.307794 q 0.048059,0 0.068213,0.0186 0.020154,0.01705 0.020154,0.04651 0,0.0279 -0.020154,0.04651 -0.020154,0.0186 -0.068213,0.0186 z m 0,-0.648022 q -0.091467,-0.02636 -0.1937866,-0.03876 -0.1023194,-0.0124 -0.2154907,-0.0124 -0.2837036,0 -0.4433838,0.122473 -0.1209229,0.09147 -0.1209229,0.218592 0,0.117822 0.091467,0.198437 0.093018,0.08062 0.269751,0.08062 0.1689819,0 0.3131592,-0.06666 0.1457275,-0.06821 0.2992065,-0.215491 z"
         id="path1182" />
      <path
         d="m 10.265875,56.141318 h 0.706934 q 0.04651,0 0.06666,0.0186 0.02015,0.0186 0.02015,0.04806 0,0.02791 -0.02015,0.04651 -0.02015,0.0186 -0.06666,0.0186 h -0.706934 v 0.866613 q 0,0.113172 0.08992,0.189136 0.09147,0.07596 0.26665,0.07596 0.131775,0 0.285254,-0.03876 0.153479,-0.04031 0.238745,-0.08992 0.03101,-0.02015 0.05116,-0.02015 0.0248,0 0.04341,0.02015 0.0186,0.0186 0.0186,0.04496 0,0.02325 -0.02015,0.04341 -0.04961,0.05116 -0.241846,0.111621 -0.190686,0.05891 -0.365869,0.05891 -0.227893,0 -0.362768,-0.10697 Q 10.1341,57.321091 10.1341,57.139706 V 56.273093 H 9.8938047 q -0.046509,0 -0.066663,-0.0186 -0.020154,-0.0186 -0.020154,-0.04806 0,-0.0279 0.020154,-0.04651 0.020154,-0.0186 0.066663,-0.0186 H 10.1341 v -0.384473 q 0,-0.04651 0.0186,-0.06666 0.0186,-0.02015 0.04651,-0.02015 0.02946,0 0.04806,0.02015 0.0186,0.02015 0.0186,0.06666 z"
         id="path1184" />
      <path
         d="m 13.143219,56.8436 h -1.327051 q 0.03411,0.252698 0.21084,0.407728 0.178283,0.153479 0.440283,0.153479 0.145727,0 0.305408,-0.04806 0.15968,-0.04806 0.260449,-0.127124 0.02945,-0.02325 0.05116,-0.02325 0.0248,0 0.04341,0.02015 0.0186,0.0186 0.0186,0.04496 0,0.02635 -0.0248,0.05116 -0.07442,0.07752 -0.265101,0.145728 -0.189135,0.06666 -0.389123,0.06666 -0.334863,0 -0.559656,-0.218591 -0.223242,-0.220142 -0.223242,-0.531751 0,-0.283703 0.20929,-0.486792 0.210839,-0.203088 0.520898,-0.203088 0.31936,0 0.525549,0.20929 0.206189,0.207739 0.203089,0.539501 z m -0.131775,-0.131774 q -0.03876,-0.215491 -0.204639,-0.350367 -0.164331,-0.134875 -0.392224,-0.134875 -0.227893,0 -0.392224,0.133325 -0.164331,0.133325 -0.204639,0.351917 z"
         id="path1186" />
    </g>
  </g>
</svg>
