<?xml version="1.0" encoding="UTF-8" standalone="no"?>
<!-- Created with Inkscape (http://www.inkscape.org/) -->

<svg
   width="40.639999mm"
   height="128.5mm"
   viewBox="0 0 40.639999 128.5"
   version="1.1"
   id="svg5"
   inkscape:version="1.2.1 (9c6d41e410, 2022-07-14)"
   sodipodi:docname="Pulsar.svg"
   xml:space="preserve"
   xmlns:inkscape="http://www.inkscape.org/namespaces/inkscape"
   xmlns:sodipodi="http://sodipodi.sourceforge.net/DTD/sodipodi-0.dtd"
   xmlns="http://www.w3.org/2000/svg"
   xmlns:svg="http://www.w3.org/2000/svg"><sodipodi:namedview
     id="namedview7"
     pagecolor="#ffffff"
     bordercolor="#000000"
     borderopacity="0.25"
     inkscape:showpageshadow="2"
     inkscape:pageopacity="0.0"
     inkscape:pagecheckerboard="0"
     inkscape:deskcolor="#d1d1d1"
     inkscape:document-units="mm"
     showgrid="false"
     inkscape:zoom="1.4912879"
     inkscape:cx="166.29921"
     inkscape:cy="264.20117"
     inkscape:window-width="1920"
     inkscape:window-height="1017"
     inkscape:window-x="1912"
     inkscape:window-y="-8"
     inkscape:window-maximized="1"
     inkscape:current-layer="layer2"
     showguides="true" /><defs
     id="defs2"><rect
       x="30.175261"
       y="16.764032"
       width="4.6939292"
       height="17.434595"
       id="rect1148" /><clipPath
       clipPathUnits="userSpaceOnUse"
       id="clipPath1018"><rect
         style="display:inline;fill:#f9f9f9;fill-opacity:0;stroke-width:0.264583"
         id="rect1020"
         width="20.32"
         height="128.5"
         x="0"
         y="0" /></clipPath><clipPath
       clipPathUnits="userSpaceOnUse"
       id="clipPath1086"><rect
         style="fill:#f9f9f9;fill-opacity:0;stroke-width:0.264583"
         id="rect1088"
         width="20.32"
         height="128.5"
         x="0"
         y="-2.7755579e-17" /></clipPath><rect
       x="30.175261"
       y="16.764032"
       width="4.6939292"
       height="17.434595"
       id="rect1148-39" /><rect
       x="30.175261"
       y="16.764032"
       width="4.6939292"
       height="17.434595"
       id="rect1148-3" /><clipPath
       clipPathUnits="userSpaceOnUse"
       id="clipPath1018-9"><rect
         style="display:inline;fill:#f9f9f9;fill-opacity:0;stroke-width:0.264583"
         id="rect1020-3"
         width="20.32"
         height="128.5"
         x="0"
         y="0" /></clipPath><clipPath
       clipPathUnits="userSpaceOnUse"
       id="clipPath1086-2"><rect
         style="fill:#f9f9f9;fill-opacity:0;stroke-width:0.264583"
         id="rect1088-84"
         width="20.32"
         height="128.5"
         x="0"
         y="-2.7755579e-17" /></clipPath><rect
       x="30.175261"
       y="16.764032"
       width="4.6939292"
       height="17.434595"
       id="rect1148-4" /><clipPath
       clipPathUnits="userSpaceOnUse"
       id="clipPath1018-7"><rect
         style="display:inline;fill:#f9f9f9;fill-opacity:0;stroke-width:0.264583"
         id="rect1020-1"
         width="20.32"
         height="128.5"
         x="0"
         y="0" /></clipPath><clipPath
       clipPathUnits="userSpaceOnUse"
       id="clipPath1086-6"><rect
         style="fill:#f9f9f9;fill-opacity:0;stroke-width:0.264583"
         id="rect1088-3"
         width="20.32"
         height="128.5"
         x="0"
         y="-2.7755579e-17" /></clipPath><rect
       x="30.175261"
       y="16.764032"
       width="4.6939292"
       height="17.434595"
       id="rect1148-2" /><clipPath
       clipPathUnits="userSpaceOnUse"
       id="clipPath1018-8"><rect
         style="display:inline;fill:#f9f9f9;fill-opacity:0;stroke-width:0.264583"
         id="rect1020-0"
         width="20.32"
         height="128.5"
         x="0"
         y="0" /></clipPath><clipPath
       clipPathUnits="userSpaceOnUse"
       id="clipPath1086-7"><rect
         style="fill:#f9f9f9;fill-opacity:0;stroke-width:0.264583"
         id="rect1088-8"
         width="20.32"
         height="128.5"
         x="0"
         y="-2.7755579e-17" /></clipPath><rect
       x="30.175261"
       y="16.764032"
       width="4.6939292"
       height="17.434595"
       id="rect1148-30" /><rect
       x="30.175261"
       y="16.764032"
       width="4.6939292"
       height="17.434595"
       id="rect1148-3-5" /><clipPath
       clipPathUnits="userSpaceOnUse"
       id="clipPath1018-0"><rect
         style="display:inline;fill:#f9f9f9;fill-opacity:0;stroke-width:0.264583"
         id="rect1020-2"
         width="20.32"
         height="128.5"
         x="0"
         y="0" /></clipPath><clipPath
       clipPathUnits="userSpaceOnUse"
       id="clipPath1086-1"><rect
         style="fill:#f9f9f9;fill-opacity:0;stroke-width:0.264583"
         id="rect1088-39"
         width="20.32"
         height="128.5"
         x="0"
         y="-2.7755579e-17" /></clipPath><rect
       x="30.175261"
       y="16.764032"
       width="4.6939292"
       height="17.434595"
       id="rect1148-4-2" /><clipPath
       clipPathUnits="userSpaceOnUse"
       id="clipPath1018-7-6"><rect
         style="display:inline;fill:#f9f9f9;fill-opacity:0;stroke-width:0.264583"
         id="rect1020-1-8"
         width="20.32"
         height="128.5"
         x="0"
         y="0" /></clipPath><clipPath
       clipPathUnits="userSpaceOnUse"
       id="clipPath1086-6-7"><rect
         style="fill:#f9f9f9;fill-opacity:0;stroke-width:0.264583"
         id="rect1088-3-7"
         width="20.32"
         height="128.5"
         x="0"
         y="-2.7755579e-17" /></clipPath><rect
       x="30.175261"
       y="16.764032"
       width="4.6939292"
       height="17.434595"
       id="rect1148-2-5" /><clipPath
       clipPathUnits="userSpaceOnUse"
       id="clipPath1018-8-4"><rect
         style="display:inline;fill:#f9f9f9;fill-opacity:0;stroke-width:0.264583"
         id="rect1020-0-8"
         width="20.32"
         height="128.5"
         x="0"
         y="0" /></clipPath><clipPath
       clipPathUnits="userSpaceOnUse"
       id="clipPath1086-7-3"><rect
         style="fill:#f9f9f9;fill-opacity:0;stroke-width:0.264583"
         id="rect1088-8-8"
         width="20.32"
         height="128.5"
         x="0"
         y="-2.7755579e-17" /></clipPath></defs><g
     inkscape:groupmode="layer"
     id="layer3"
     inkscape:label="Background"
     style="display:inline"><rect
       style="fill:#847b89;fill-opacity:1;stroke:#220826;stroke-width:0.5;stroke-linecap:square;stroke-dasharray:none;stroke-opacity:1"
       id="rect922"
       width="40.639999"
       height="128.5"
       x="0"
       y="0" /></g><g
     inkscape:label="Decals"
     inkscape:groupmode="layer"
     id="layer1"><rect
       style="display:inline;fill:#220826;fill-opacity:1;stroke:#f7dfff;stroke-width:0.0999992;stroke-linecap:square;stroke-linejoin:miter;stroke-dasharray:none;stroke-dashoffset:0;stroke-opacity:1"
       id="rect8877-3-9-0"
       width="11.500001"
       height="11.499828"
       x="14.721642"
       y="112.67935" /><rect
       style="fill:#efd4f9;fill-opacity:1;stroke:#e7b1ff;stroke-width:0.123844;stroke-linecap:square;stroke-linejoin:miter;stroke-dasharray:none;stroke-dashoffset:0;stroke-opacity:1"
       id="rect3722-6-4"
       width="11.476154"
       height="4.3760886"
       x="14.734918"
       y="108.25211" /><rect
       style="display:inline;fill:#d2d2d2;fill-opacity:1;stroke:#594c62;stroke-width:0.141347;stroke-linecap:square;stroke-linejoin:miter;stroke-dasharray:none;stroke-dashoffset:0;stroke-opacity:1"
       id="rect8877-3-9"
       width="11.458653"
       height="23.058653"
       x="14.742991"
       y="12.127068" /><rect
       style="fill:#594c62;fill-opacity:1;stroke:none;stroke-width:0.123846;stroke-linecap:square;stroke-linejoin:miter;stroke-dasharray:none;stroke-dashoffset:0;stroke-opacity:1"
       id="rect3722-6"
       width="11.476153"
       height="4.3761539"
       x="14.735594"
       y="7.6790886" /><rect
       style="display:inline;fill:#d2d2d2;fill-opacity:1;stroke:#594c62;stroke-width:0.141347;stroke-linecap:square;stroke-linejoin:miter;stroke-dasharray:none;stroke-dashoffset:0;stroke-opacity:1"
       id="rect8877-3-9-4"
       width="11.458653"
       height="23.058653"
       x="6.4238992"
       y="44.328682" /><rect
       style="fill:#594c62;fill-opacity:1;stroke:none;stroke-width:0.123846;stroke-linecap:square;stroke-linejoin:miter;stroke-dasharray:none;stroke-dashoffset:0;stroke-opacity:1"
       id="rect3722-6-0"
       width="11.476153"
       height="4.3761539"
       x="6.4165015"
       y="39.880703" /><rect
       style="display:inline;fill:#d2d2d2;fill-opacity:1;stroke:#594c62;stroke-width:0.141347;stroke-linecap:square;stroke-linejoin:miter;stroke-dasharray:none;stroke-dashoffset:0;stroke-opacity:1"
       id="rect8877-3-9-9"
       width="11.458653"
       height="23.058653"
       x="23.315565"
       y="44.328682" /><rect
       style="fill:#594c62;fill-opacity:1;stroke:none;stroke-width:0.123846;stroke-linecap:square;stroke-linejoin:miter;stroke-dasharray:none;stroke-dashoffset:0;stroke-opacity:1"
       id="rect3722-6-5"
       width="11.476153"
       height="4.3761539"
       x="23.308168"
       y="39.880703" /><rect
       style="display:inline;fill:#d2d2d2;fill-opacity:1;stroke:#594c62;stroke-width:0.0999992;stroke-linecap:square;stroke-linejoin:miter;stroke-dasharray:none;stroke-dashoffset:0;stroke-opacity:1"
       id="rect8877-3-9-68-7"
       width="11.500001"
       height="11.499828"
       x="6.4032249"
       y="77.17691" /><rect
       style="fill:#594c62;fill-opacity:1;stroke:none;stroke-width:0.123844;stroke-linecap:square;stroke-linejoin:miter;stroke-dasharray:none;stroke-dashoffset:0;stroke-opacity:1"
       id="rect3722-6-50-7"
       width="11.476154"
       height="4.3760886"
       x="6.416502"
       y="72.749672" /><rect
       style="display:inline;fill:#d2d2d2;fill-opacity:1;stroke:#594c62;stroke-width:0.0999992;stroke-linecap:square;stroke-linejoin:miter;stroke-dasharray:none;stroke-dashoffset:0;stroke-opacity:1"
       id="rect8877-3-9-68-7-1"
       width="11.500001"
       height="11.499828"
       x="23.294891"
       y="77.17691" /><rect
       style="fill:#594c62;fill-opacity:1;stroke:none;stroke-width:0.123844;stroke-linecap:square;stroke-linejoin:miter;stroke-dasharray:none;stroke-dashoffset:0;stroke-opacity:1"
       id="rect3722-6-50-7-7"
       width="11.476154"
       height="4.3760886"
       x="23.308168"
       y="72.749672" /><g
       aria-label="V/Oct"
       id="text5721"
       style="font-weight:500;font-size:3.52777px;font-family:'Futura PT';-inkscape-font-specification:'Futura PT Medium';text-align:center;text-anchor:middle;fill:#f7dfff;stroke-width:0.499999;stroke-linecap:square"><path
         d="m 15.562817,8.5615139 0.987776,2.3530221 h 0.275166 L 17.82059,8.5615139 H 17.319647 L 16.691704,10.141955 16.06376,8.5615139 Z"
         style="stroke-width:0.5"
         id="path10591" /><path
         d="M 17.757087,11.514257 18.067531,11.655368 19.91961,8.3780698 19.609166,8.236959 Z"
         style="stroke-width:0.5"
         id="path10593" /><path
         d="m 21.542383,8.5085973 c -0.740831,0 -1.255886,0.5150544 -1.255886,1.2311918 0,0.7161369 0.515055,1.2276639 1.255886,1.2276639 0.740832,0 1.255887,-0.511527 1.255887,-1.2276639 0,-0.7161374 -0.515055,-1.2311918 -1.255887,-1.2311918 z m 0,2.0425787 c -0.45861,0 -0.783165,-0.335138 -0.783165,-0.8113869 0,-0.476249 0.324555,-0.8149149 0.783165,-0.8149149 0.458611,0 0.783165,0.3386659 0.783165,0.8149149 0,0.4762489 -0.324554,0.8113869 -0.783165,0.8113869 z"
         style="stroke-width:0.5"
         id="path10595" /><path
         d="m 24.308153,9.4293453 c -0.123472,-0.059972 -0.254,-0.091722 -0.412749,-0.091722 -0.148167,0 -0.363361,0.03175 -0.550332,0.1975551 -0.155222,0.137583 -0.264583,0.352777 -0.264583,0.6208876 0,0.285749 0.126999,0.476249 0.243416,0.58561 0.137583,0.130527 0.349249,0.222249 0.589137,0.222249 0.176389,0 0.310444,-0.05292 0.395111,-0.09525 v -0.419804 c -0.116417,0.105833 -0.243416,0.134055 -0.338666,0.134055 -0.257527,0 -0.444499,-0.183444 -0.444499,-0.433916 0,-0.2222491 0.144638,-0.4303876 0.430388,-0.4303876 0.148166,0 0.261055,0.049389 0.352777,0.1340553 z"
         style="stroke-width:0.5"
         id="path10597" /><path
         d="M 25.394704,9.7539001 V 9.387012 H 25.098371 V 8.8649021 H 24.667983 V 9.387012 H 24.49865 v 0.3668881 h 0.169333 v 1.1606359 h 0.430388 V 9.7539001 Z"
         style="stroke-width:0.5"
         id="path10599" /></g><g
       aria-label="Width"
       id="text6603"
       style="font-weight:500;font-size:3.52777px;font-family:'Futura PT';-inkscape-font-specification:'Futura PT Medium';text-align:center;text-anchor:middle;fill:#f7dfff;stroke-width:0.499999;stroke-linecap:square"><path
         d="m 9.2939441,41.78953 0.5150544,1.492246 H 10.15472 l 0.871359,-2.353022 H 10.539247 L 9.9748037,42.530361 9.4315271,40.907587 H 9.1775277 L 8.6025012,42.530361 8.0768634,40.928754 H 7.5900312 l 0.8184426,2.353022 h 0.3457215 z"
         style="stroke-width:0.5"
         id="path10602" /><path
         d="m 11.273026,41.754252 v 1.527524 h 0.430388 v -1.527524 z m -0.04233,-0.645582 c 0,0.141111 0.116416,0.257527 0.257527,0.257527 0.141111,0 0.257527,-0.116416 0.257527,-0.257527 0,-0.141111 -0.116416,-0.257527 -0.257527,-0.257527 -0.141111,0 -0.257527,0.116416 -0.257527,0.257527 z"
         style="stroke-width:0.5"
         id="path10604" /><path
         d="m 13.283858,41.951807 c -0.144638,-0.225777 -0.373943,-0.246944 -0.49036,-0.246944 -0.451554,0 -0.75847,0.359833 -0.75847,0.811387 0,0.448027 0.310443,0.814915 0.779637,0.814915 0.109361,0 0.313971,-0.02469 0.469193,-0.246944 v 0.197555 h 0.430388 v -2.571744 h -0.430388 z m -0.380999,0.134055 c 0.246944,0 0.423332,0.186972 0.423332,0.430388 0,0.243416 -0.176388,0.433916 -0.423332,0.433916 -0.246944,0 -0.423332,-0.1905 -0.423332,-0.433916 0,-0.243416 0.176388,-0.430388 0.423332,-0.430388 z"
         style="stroke-width:0.5"
         id="path10606" /><path
         d="m 14.850187,42.12114 v -0.366888 h -0.296333 v -0.52211 h -0.430388 v 0.52211 h -0.169333 v 0.366888 h 0.169333 v 1.160636 h 0.430388 V 42.12114 Z"
         style="stroke-width:0.5"
         id="path10608" /><path
         d="m 15.075966,43.281776 h 0.430388 v -0.779637 c 0,-0.08819 0.0035,-0.197555 0.06703,-0.296332 0.0635,-0.09525 0.151694,-0.134056 0.264582,-0.134056 0.04233,0 0.134056,0.0071 0.201083,0.07761 0.07761,0.08114 0.08114,0.215194 0.08114,0.299861 v 0.832553 h 0.430388 v -0.959553 c 0,-0.148166 -0.01411,-0.29986 -0.119944,-0.430388 -0.119945,-0.148166 -0.3175,-0.186972 -0.451555,-0.186972 -0.246944,0 -0.391582,0.134055 -0.472721,0.246944 v -1.241775 h -0.430388 z"
         style="stroke-width:0.5"
         id="path10610" /></g><g
       aria-label="Taper"
       id="text6607"
       style="font-weight:500;font-size:3.52777px;font-family:'Futura PT';-inkscape-font-specification:'Futura PT Medium';text-align:center;text-anchor:middle;fill:#f7dfff;stroke-width:0.499999;stroke-linecap:square"><path
         d="m 26.401393,40.947502 v -0.39511 h -1.516941 v 0.39511 h 0.529166 v 1.957913 h 0.45861 v -1.957913 z"
         style="stroke-width:0.5"
         id="path10613" /><path
         d="m 27.59025,41.575445 c -0.144639,-0.225777 -0.373944,-0.246944 -0.49036,-0.246944 -0.451555,0 -0.758471,0.359833 -0.758471,0.811387 0,0.448027 0.310444,0.814915 0.779637,0.814915 0.109361,0 0.313972,-0.02469 0.469194,-0.246944 v 0.197556 h 0.430388 V 41.37789 H 27.59025 Z m -0.381,0.134056 c 0.246944,0 0.423333,0.186971 0.423333,0.430387 0,0.243417 -0.176389,0.433916 -0.423333,0.433916 -0.246943,0 -0.423332,-0.190499 -0.423332,-0.433916 0,-0.243416 0.176389,-0.430387 0.423332,-0.430387 z"
         style="stroke-width:0.5"
         id="path10615" /><path
         d="m 28.860246,42.707859 c 0.169333,0.229306 0.384527,0.246944 0.49036,0.246944 0.225777,0 0.402165,-0.08819 0.518582,-0.197555 0.08819,-0.08467 0.239888,-0.271638 0.239888,-0.61736 0,-0.303388 -0.116416,-0.493887 -0.229305,-0.606776 -0.172861,-0.172861 -0.388054,-0.204611 -0.52211,-0.204611 -0.282221,0 -0.430388,0.151694 -0.497415,0.246944 V 41.37789 h -0.430388 v 2.335384 h 0.430388 z m 0.380999,-0.998358 c 0.102305,0 0.215194,0.0388 0.292805,0.10936 0.08467,0.08114 0.130527,0.208139 0.130527,0.321027 0,0.112889 -0.04233,0.239889 -0.134055,0.324555 -0.05644,0.05292 -0.148166,0.109361 -0.289277,0.109361 -0.134055,0 -0.225777,-0.05292 -0.282222,-0.102305 -0.08467,-0.07408 -0.141111,-0.1905 -0.141111,-0.331611 0,-0.14111 0.04939,-0.246943 0.144639,-0.328082 0.07761,-0.07056 0.165805,-0.102305 0.278694,-0.102305 z"
         style="stroke-width:0.5"
         id="path10617" /><path
         d="m 31.544878,42.415055 c -0.07056,0.123471 -0.194028,0.201082 -0.356305,0.201082 -0.165805,0 -0.261055,-0.08114 -0.306916,-0.144638 -0.04939,-0.06703 -0.07408,-0.165805 -0.07408,-0.257527 h 1.142997 v -0.03528 c 0,-0.165805 -0.02117,-0.405694 -0.183444,-0.599721 -0.105833,-0.127 -0.285749,-0.250472 -0.596193,-0.250472 -0.183444,0 -0.39511,0.03881 -0.575027,0.215194 -0.10936,0.109361 -0.232832,0.296333 -0.232832,0.599721 0,0.239889 0.07056,0.437444 0.239888,0.596193 0.151694,0.144639 0.338666,0.215194 0.58561,0.215194 0.532693,0 0.705554,-0.36336 0.751415,-0.476249 z m -0.723193,-0.476249 c 0.03528,-0.204611 0.201083,-0.306916 0.359832,-0.306916 0.15875,0 0.328083,0.09878 0.363361,0.306916 z"
         style="stroke-width:0.5"
         id="path10619" /><path
         d="m 32.282179,42.905415 h 0.430388 v -0.733777 c 0,-0.105833 0.0035,-0.23636 0.08467,-0.338666 0.08467,-0.105833 0.20461,-0.123471 0.285749,-0.123471 0.08819,0 0.144638,0.01764 0.201083,0.05644 l 0.05644,-0.402166 c -0.04939,-0.01764 -0.109361,-0.03528 -0.183444,-0.03528 -0.102305,0 -0.186972,0.02469 -0.253999,0.06703 -0.03175,0.01764 -0.123472,0.08114 -0.1905,0.211666 V 41.37789 h -0.430388 z"
         style="stroke-width:0.5"
         id="path10621" /></g><g
       aria-label="LFO"
       id="text6611"
       style="font-weight:500;font-size:3.52777px;font-family:'Futura PT';-inkscape-font-specification:'Futura PT Medium';text-align:center;text-anchor:middle;fill:#f7dfff;stroke-width:0.499999;stroke-linecap:square"><path
         d="m 9.3272439,73.672368 v 2.353023 H 10.512575 V 75.63028 H 9.785854 v -1.957912 z"
         style="stroke-width:0.5"
         id="path10624" /><path
         d="m 12.078907,73.672368 h -1.248831 v 2.353023 h 0.45861 v -1.037165 h 0.740832 v -0.39511 h -0.740832 v -0.525638 h 0.790221 z"
         style="stroke-width:0.5"
         id="path10626" /><path
         d="m 13.617013,73.619451 c -0.740832,0 -1.255886,0.515055 -1.255886,1.231192 0,0.716138 0.515054,1.227664 1.255886,1.227664 0.740832,0 1.255886,-0.511526 1.255886,-1.227664 0,-0.716137 -0.515054,-1.231192 -1.255886,-1.231192 z m 0,2.042579 c -0.45861,0 -0.783165,-0.335138 -0.783165,-0.811387 0,-0.476249 0.324555,-0.814915 0.783165,-0.814915 0.45861,0 0.783165,0.338666 0.783165,0.814915 0,0.476249 -0.324555,0.811387 -0.783165,0.811387 z"
         style="stroke-width:0.5"
         id="path10628" /></g><g
       aria-label="Bi"
       id="text6615"
       style="font-weight:500;font-size:3.52777px;font-family:'Futura PT';-inkscape-font-specification:'Futura PT Medium';text-align:center;text-anchor:middle;fill:#f7dfff;stroke-width:0.499999;stroke-linecap:square"><path
         d="m 27.697411,73.672353 v 2.353022 h 0.790221 c 0.20461,0 0.419804,-0.03528 0.596193,-0.190499 0.162277,-0.144639 0.201083,-0.338666 0.201083,-0.476249 0,-0.123472 -0.02822,-0.306916 -0.169333,-0.440971 -0.05997,-0.05644 -0.151694,-0.123472 -0.306916,-0.148167 0.0635,-0.03528 0.264583,-0.158749 0.264583,-0.462138 0,-0.197555 -0.08114,-0.380999 -0.218722,-0.486832 -0.1905,-0.148166 -0.444499,-0.148166 -0.575027,-0.148166 z m 0.45861,0.373943 h 0.134056 c 0.186971,0 0.352777,0.08114 0.352777,0.296333 0,0.299861 -0.28575,0.306916 -0.356305,0.306916 h -0.130528 z m 0,0.956026 h 0.169333 c 0.09878,0 0.215194,0 0.313972,0.04586 0.148166,0.06703 0.172861,0.194027 0.172861,0.268111 0,0.09172 -0.03175,0.20461 -0.144639,0.271638 -0.102305,0.05997 -0.229305,0.0635 -0.313972,0.0635 h -0.197555 z"
         style="stroke-width:0.5"
         id="path10631" /><path
         d="m 29.644739,74.497851 v 1.527524 h 0.430388 v -1.527524 z m -0.04233,-0.645582 c 0,0.141111 0.116416,0.257527 0.257527,0.257527 0.141111,0 0.257527,-0.116416 0.257527,-0.257527 0,-0.141111 -0.116416,-0.257527 -0.257527,-0.257527 -0.141111,0 -0.257527,0.116416 -0.257527,0.257527 z"
         style="stroke-width:0.5"
         id="path10633" /></g><g
       aria-label="Out"
       id="text6619"
       style="font-weight:500;font-size:3.52777px;font-family:'Futura PT';-inkscape-font-specification:'Futura PT Medium';text-align:center;text-anchor:middle;fill:#7d46a7;stroke-width:0.499999;stroke-linecap:square"><path
         d="m 18.776473,109.2485 c -0.740832,0 -1.255887,0.51506 -1.255887,1.23119 0,0.71614 0.515055,1.22767 1.255887,1.22767 0.740831,0 1.255886,-0.51153 1.255886,-1.22767 0,-0.71613 -0.515055,-1.23119 -1.255886,-1.23119 z m 0,2.04258 c -0.458611,0 -0.783165,-0.33514 -0.783165,-0.81139 0,-0.47624 0.324554,-0.81491 0.783165,-0.81491 0.45861,0 0.783164,0.33867 0.783164,0.81491 0,0.47625 -0.324554,0.81139 -0.783164,0.81139 z"
         style="stroke-width:0.5"
         id="path10636" /><path
         d="m 20.392189,110.12692 v 0.93486 c 0,0.13758 0.01764,0.32102 0.186971,0.46919 0.141111,0.12347 0.366888,0.17286 0.55386,0.17286 0.186972,0 0.412749,-0.0494 0.55386,-0.17286 0.169333,-0.14817 0.186972,-0.33161 0.186972,-0.46919 v -0.93486 h -0.430388 v 0.8643 c 0,0.0811 -0.0071,0.1905 -0.09172,0.26811 -0.05292,0.0459 -0.137583,0.0776 -0.218722,0.0776 -0.08114,0 -0.165805,-0.0318 -0.218721,-0.0776 -0.08467,-0.0776 -0.09172,-0.18697 -0.09172,-0.26811 v -0.8643 z"
         style="stroke-width:0.5"
         id="path10638" /><path
         d="m 23.009791,110.49381 v -0.36689 h -0.296332 v -0.52211 h -0.430388 v 0.52211 h -0.169333 v 0.36689 h 0.169333 v 1.16063 h 0.430388 v -1.16063 z"
         style="stroke-width:0.5"
         id="path10640" /></g><g
       aria-label="Pulsar"
       id="text8127"
       style="font-size:4.23333px;font-family:'Futura PT';-inkscape-font-specification:'Futura PT';text-align:center;text-anchor:middle;stroke-width:0.499999;stroke-linecap:square"><path
         d="m 15.751763,1.2624663 v 2.8236309 h 0.313266 V 2.8584316 h 0.275167 c 0.643466,0 0.893232,-0.3936997 0.893232,-0.7916327 0,-0.1777998 -0.0508,-0.4275663 -0.258233,-0.6053661 -0.1905,-0.1650999 -0.427566,-0.1989665 -0.711199,-0.1989665 z m 0.313266,0.2963331 h 0.232833 c 0.2032,0 0.6223,0.042333 0.6223,0.4910662 0,0.3259664 -0.224367,0.5122329 -0.5969,0.5122329 h -0.258233 z"
         style="stroke-width:0.5"
         id="path10643" /><path
         d="m 17.910758,2.3292654 h -0.304799 v 1.0583324 c 0,0.2158998 0.02117,0.3767664 0.160866,0.5291662 0.156633,0.1650999 0.364066,0.2201332 0.537633,0.2201332 0.173567,0 0.381,-0.055033 0.537633,-0.2201332 0.1397,-0.1523998 0.160866,-0.3132664 0.160866,-0.5291662 V 2.3292654 h -0.304799 v 1.0244658 c 0,0.1227666 0,0.2666998 -0.08467,0.3767663 -0.04657,0.059267 -0.1397,0.1354666 -0.309033,0.1354666 -0.169333,0 -0.262466,-0.0762 -0.309033,-0.1354666 -0.08467,-0.1100665 -0.08467,-0.2539997 -0.08467,-0.3767663 z"
         style="stroke-width:0.5"
         id="path10645" /><path
         d="M 19.578689,0.99999984 V 4.0860972 h 0.304799 V 0.99999984 Z"
         style="stroke-width:0.5"
         id="path10647" /><path
         d="m 21.432888,2.6044318 c -0.1397,-0.3005664 -0.389467,-0.3174997 -0.4826,-0.3174997 -0.296333,0 -0.512233,0.1820332 -0.512233,0.4910662 0,0.0889 0.0127,0.1735666 0.08043,0.2582332 0.08043,0.097367 0.2159,0.1650998 0.427567,0.2582331 0.1651,0.071967 0.283633,0.1269999 0.283633,0.2920997 0,0.1312333 -0.0889,0.2793998 -0.287867,0.2793998 -0.220133,0 -0.321733,-0.1947332 -0.355599,-0.2878664 l -0.262467,0.1100665 c 0.148167,0.4402663 0.541867,0.448733 0.613833,0.448733 0.338667,0 0.605366,-0.2074332 0.605366,-0.5757329 0,-0.097367 -0.01693,-0.1904998 -0.09313,-0.283633 -0.06773,-0.084667 -0.186266,-0.1650999 -0.440266,-0.2709332 -0.198967,-0.084666 -0.283633,-0.1227665 -0.283633,-0.2497664 0,-0.1354666 0.1016,-0.1989665 0.211666,-0.1989665 0.1143,0 0.2032,0.0762 0.245533,0.1777998 z"
         style="stroke-width:0.5"
         id="path10649" /><path
         d="m 23.29555,2.5790318 c -0.08043,-0.1058332 -0.262467,-0.2920997 -0.601133,-0.2920997 -0.448733,0 -0.855133,0.3132664 -0.855133,0.9186325 0,0.6180662 0.410633,0.9313326 0.855133,0.9313326 0.309033,0 0.499533,-0.1650999 0.601133,-0.2963331 v 0.2455331 h 0.304799 V 2.3292654 H 23.29555 Z m -0.567266,-0.021167 c 0.270933,0 0.584199,0.1989665 0.584199,0.6519328 0,0.347133 -0.211666,0.6561661 -0.584199,0.6561661 -0.364067,0 -0.575733,-0.2836331 -0.575733,-0.6603995 0,-0.4275663 0.275166,-0.6476994 0.575733,-0.6476994 z"
         style="stroke-width:0.5"
         id="path10651" /><path
         d="m 24.176086,4.0860972 h 0.3048 V 3.158998 c 0,-0.2878664 0.0508,-0.4063996 0.1016,-0.4741329 0.04657,-0.059267 0.122767,-0.1100666 0.245533,-0.1100666 0.04657,0 0.110067,0.0127 0.1778,0.059267 l 0.143933,-0.2751664 c -0.0762,-0.0381 -0.1778,-0.071967 -0.270933,-0.071967 -0.237066,0 -0.368299,0.1862665 -0.397933,0.2328331 V 2.3292654 h -0.3048 z"
         style="stroke-width:0.5"
         id="path10653" /></g><g
       aria-label="∅"
       id="text4142"
       style="font-size:3.52778px;font-family:'Futura PT';-inkscape-font-specification:'Futura PT';text-align:center;text-anchor:middle;fill:#f7dfff;stroke-width:0;stroke-linecap:square"
       transform="translate(-30.463244,-0.10522013)"><path
         d="m 68.095424,128.06491 0.27044,-0.26872 q -0.334174,-0.38585 -0.334174,-0.88711 0,-0.55466 0.391019,-0.94568 0.392741,-0.39274 0.947401,-0.39274 0.492649,0 0.885391,0.33417 l 0.27044,-0.26872 0.118856,0.11886 -0.268718,0.27044 q 0.334174,0.38585 0.334174,0.88539 0,0.55466 -0.392741,0.9474 -0.392741,0.39102 -0.945679,0.39102 -0.501262,0 -0.88539,-0.33245 l -0.27044,0.26872 z m 0.391019,-0.3893 1.648479,-1.6502 q -0.341065,-0.28422 -0.763089,-0.28422 -0.485759,0 -0.828546,0.34279 -0.341065,0.34106 -0.341065,0.8251 0,0.43408 0.284221,0.76653 z m 0.118856,0.11886 q 0.330729,0.28422 0.766534,0.28422 0.484036,0 0.825101,-0.34107 0.342787,-0.34278 0.342787,-0.82682 0,-0.42891 -0.28422,-0.76481 z"
         id="path4146" /></g></g><g
     inkscape:groupmode="layer"
     id="layer2"
     inkscape:label="components"
     style="fill:#00ff00"><ellipse
       style="fill:#0000ff;fill-opacity:1;stroke-width:0.162095"
       id="out"
       cx="20.461336"
       cy="118.16809"
       inkscape:transform-center-x="-0.1086902"
       inkscape:transform-center-y="-5.434698"
       inkscape:label="out"
       rx="2.5"
       ry="2.4999626" /><circle
       style="display:inline;fill:#00ff00;fill-opacity:1;stroke-width:0.162096"
       id="ivoct"
       cx="20.367935"
       cy="29.023163"
       inkscape:transform-center-x="-0.10869517"
       inkscape:transform-center-y="-5.4347841"
       r="2.5"
       inkscape:label="ivoct" /><circle
       style="fill:#ff0000;fill-opacity:1;stroke-width:0.162096"
       id="pvoct"
       cx="20.367935"
       cy="18.409599"
       inkscape:transform-center-x="-0.10869517"
       inkscape:transform-center-y="-5.4347841"
       r="2.5"
       inkscape:label="pvoct" /><circle
       style="display:inline;fill:#00ff00;fill-opacity:1;stroke-width:0.162096"
       id="iwidth"
       cx="12.048842"
       cy="61.224777"
       inkscape:transform-center-x="-0.10869517"
       inkscape:transform-center-y="-5.4347841"
       r="2.5"
       inkscape:label="iwidth" /><circle
       style="fill:#ff0000;fill-opacity:1;stroke-width:0.162096"
       id="pwidth"
       cx="12.048842"
       cy="50.611214"
       inkscape:transform-center-x="-0.10869517"
       inkscape:transform-center-y="-5.4347841"
       r="2.5"
       inkscape:label="pwidth" /><circle
       style="display:inline;fill:#00ff00;fill-opacity:1;stroke-width:0.162096"
       id="itaper"
       cx="28.940508"
       cy="61.224777"
       inkscape:transform-center-x="-0.10869517"
       inkscape:transform-center-y="-5.4347841"
       r="2.5"
       inkscape:label="itaper" /><circle
       style="fill:#ff0000;fill-opacity:1;stroke-width:0.162096"
       id="ptaper"
       cx="28.940508"
       cy="50.611214"
       inkscape:transform-center-x="-0.10869517"
       inkscape:transform-center-y="-5.4347841"
       r="2.5"
       inkscape:label="ptaper" /><ellipse
       style="fill:#ff0000;fill-opacity:1;stroke-width:0.162095"
       id="lfo"
       cx="12.167806"
       cy="82.593636"
       inkscape:transform-center-x="-0.10869659"
       inkscape:transform-center-y="-5.434704"
       inkscape:label="lfo"
       rx="2.5"
       ry="2.4999626" /><ellipse
       style="fill:#ff0000;fill-opacity:1;stroke-width:0.162095"
       id="bi"
       cx="29.059473"
       cy="82.593636"
       inkscape:transform-center-x="-0.10869659"
       inkscape:transform-center-y="-5.434704"
       inkscape:label="bi"
       rx="2.5"
       ry="2.4999626" /></g></svg>
