<?xml version="1.0" encoding="UTF-8" standalone="no"?>
<!-- Created with Inkscape (http://www.inkscape.org/) -->

<svg
   width="20.32mm"
   height="128.5mm"
   viewBox="0 0 20.32 128.5"
   version="1.1"
   id="svg5"
   inkscape:version="1.2.1 (9c6d41e410, 2022-07-14)"
   sodipodi:docname="QuickMelody.svg"
   xmlns:inkscape="http://www.inkscape.org/namespaces/inkscape"
   xmlns:sodipodi="http://sodipodi.sourceforge.net/DTD/sodipodi-0.dtd"
   xmlns="http://www.w3.org/2000/svg"
   xmlns:svg="http://www.w3.org/2000/svg">
  <sodipodi:namedview
     id="namedview7"
     pagecolor="#ffffff"
     bordercolor="#000000"
     borderopacity="0.25"
     inkscape:showpageshadow="2"
     inkscape:pageopacity="0.0"
     inkscape:pagecheckerboard="0"
     inkscape:deskcolor="#d1d1d1"
     inkscape:document-units="mm"
     showgrid="false"
     inkscape:zoom="1.4912879"
     inkscape:cx="106.95453"
     inkscape:cy="268.89509"
     inkscape:window-width="1920"
     inkscape:window-height="1017"
     inkscape:window-x="1912"
     inkscape:window-y="-8"
     inkscape:window-maximized="1"
     inkscape:current-layer="layer1" />
  <defs
     id="defs2">
    <rect
       x="30.17526"
       y="16.764033"
       width="4.6939293"
       height="17.434595"
       id="rect1148" />
  </defs>
  <g
     inkscape:label="Background"
     inkscape:groupmode="layer"
     id="layer1">
    <rect
       style="fill:#ffffff;fill-opacity:1;stroke-width:0.264583"
       id="rect894"
       width="35.306454"
       height="133.06451"
       x="-8.338707"
       y="-1.9516128" />
  </g>
  <g
     inkscape:groupmode="layer"
     id="layer2"
     inkscape:label="components">
    <circle
       style="fill:#00ff00;stroke-width:0.162096;fill-opacity:1"
       id="clock"
       cx="10.16"
       cy="15.451611"
       inkscape:transform-center-x="-0.10869517"
       inkscape:transform-center-y="-5.4347841"
       r="2.5"
       inkscape:label="clock" />
    <circle
       style="fill:#ff0000;stroke-width:0.162096;fill-opacity:1"
       id="pattern"
       cx="10.16"
       cy="37.435486"
       inkscape:transform-center-x="-0.10869517"
       inkscape:transform-center-y="-5.4347841"
       r="2.5"
       inkscape:label="pattern" />
    <circle
       style="fill:#ff0000;stroke-width:0.162096;fill-opacity:1"
       id="min"
       cx="10.16"
       cy="61.741932"
       inkscape:transform-center-x="-0.10869517"
       inkscape:transform-center-y="-5.4347841"
       r="2.5"
       inkscape:label="min" />
    <circle
       style="fill:#0000ff;stroke-width:0.162096;fill-opacity:1"
       id="out"
       cx="10.16"
       cy="111.9516"
       inkscape:transform-center-x="-0.10869517"
       inkscape:transform-center-y="-5.4347841"
       r="2.5"
       inkscape:label="out" />
    <circle
       style="fill:#ff0000;stroke-width:0.162096;fill-opacity:1"
       id="max"
       cx="10.16"
       cy="87.1129"
       inkscape:transform-center-x="-0.10869517"
       inkscape:transform-center-y="-5.4347841"
       r="2.5"
       inkscape:label="max" />
  </g>
  <g
     inkscape:groupmode="layer"
     id="layer3"
     inkscape:label="Text">
    <g
       aria-label="clock"
       transform="translate(-2.3627738,5.3225806)"
       id="text1094"
       style="font-size:3.175px;font-family:'Courier New';-inkscape-font-specification:'Courier New';text-align:center;text-anchor:middle;white-space:pre;inline-size:10.236;stroke-width:0.264583">
      <path
         d="m 9.3020936,3.4021243 v -0.043408 q 0,-0.048059 0.018604,-0.068213 0.018603,-0.020154 0.046509,-0.020154 0.029455,0 0.048059,0.020154 0.018604,0.020154 0.018604,0.068213 v 0.2945557 q -0.00155,0.048059 -0.020154,0.068213 -0.017053,0.020154 -0.046509,0.020154 -0.026355,0 -0.044958,-0.017053 Q 9.3051941,3.7059817 9.3020936,3.6641238 9.2927918,3.554053 9.156366,3.4548343 9.0214905,3.3556155 8.7920472,3.3556155 q -0.2899048,0 -0.4402832,0.1813843 -0.1503784,0.1813843 -0.1503784,0.4154785 0,0.2526978 0.1658813,0.4170288 0.1658814,0.1643311 0.4294312,0.1643311 0.1519287,0 0.3085083,-0.055811 0.1581298,-0.05581 0.2852539,-0.1798339 0.032556,-0.031006 0.057361,-0.031006 0.026355,0 0.043408,0.018603 0.018603,0.017053 0.018603,0.043408 0,0.066663 -0.1565796,0.1689819 -0.2526977,0.1658814 -0.5627563,0.1658814 -0.3147095,0 -0.5177979,-0.1999878 -0.201538,-0.2015381 -0.201538,-0.5100464 0,-0.3147095 0.2061889,-0.5224487 0.2077393,-0.2077393 0.5224487,-0.2077393 0.2992066,0 0.502295,0.1782837 z"
         id="path1244" />
      <path
         d="m 10.729913,2.6672855 v 1.815393 h 0.511597 q 0.04806,0 0.06821,0.018604 0.02015,0.017053 0.02015,0.046509 0,0.027905 -0.02015,0.046509 -0.02015,0.018603 -0.06821,0.018603 h -1.153418 q -0.04651,0 -0.06666,-0.018603 -0.02015,-0.018604 -0.02015,-0.046509 0,-0.029456 0.02015,-0.046509 0.02015,-0.018604 0.06666,-0.018604 h 0.511597 V 2.7990604 h -0.375171 q -0.04651,0 -0.06821,-0.018604 -0.02015,-0.018604 -0.02015,-0.048059 0,-0.027905 0.02015,-0.046509 0.02015,-0.018603 0.06821,-0.018603 z"
         id="path1246" />
      <path
         d="m 13.297198,3.9447269 q 0,0.2976562 -0.21394,0.508496 -0.21239,0.2108399 -0.513147,0.2108399 -0.303857,0 -0.516247,-0.2108399 -0.212391,-0.2123901 -0.212391,-0.508496 0,-0.2976563 0.212391,-0.5084961 0.21239,-0.2123902 0.516247,-0.2123902 0.300757,0 0.513147,0.2108399 0.21394,0.2108398 0.21394,0.5100464 z m -0.131774,0 q 0,-0.2449463 -0.175184,-0.4170288 -0.173632,-0.1720826 -0.421679,-0.1720826 -0.248047,0 -0.42323,0.1736328 -0.173633,0.1720826 -0.173633,0.4154786 0,0.2418457 0.173633,0.4154785 0.175183,0.1736328 0.42323,0.1736328 0.248047,0 0.421679,-0.1720825 0.175184,-0.1736328 0.175184,-0.4170288 z"
         id="path1248" />
      <path
         d="m 15.018024,3.4021243 v -0.043408 q 0,-0.048059 0.0186,-0.068213 0.0186,-0.020154 0.04651,-0.020154 0.02946,0 0.04806,0.020154 0.0186,0.020154 0.0186,0.068213 v 0.2945557 q -0.0015,0.048059 -0.02015,0.068213 -0.01705,0.020154 -0.04651,0.020154 -0.02635,0 -0.04496,-0.017053 -0.01705,-0.018604 -0.02015,-0.060462 -0.0093,-0.1100708 -0.145728,-0.2092895 -0.134875,-0.099219 -0.364319,-0.099219 -0.289905,0 -0.440283,0.1813843 -0.150378,0.1813843 -0.150378,0.4154785 0,0.2526978 0.165881,0.4170288 0.165881,0.1643311 0.429431,0.1643311 0.151929,0 0.308508,-0.055811 0.15813,-0.05581 0.285254,-0.1798339 0.03256,-0.031006 0.05736,-0.031006 0.02636,0 0.04341,0.018603 0.0186,0.017053 0.0186,0.043408 0,0.066663 -0.15658,0.1689819 -0.252698,0.1658814 -0.562756,0.1658814 -0.31471,0 -0.517798,-0.1999878 -0.201538,-0.2015381 -0.201538,-0.5100464 0,-0.3147095 0.206189,-0.5224487 0.207739,-0.2077393 0.522449,-0.2077393 0.299206,0 0.502295,0.1782837 z"
         id="path1250" />
      <path
         d="m 16.115631,4.0330936 v 0.5798095 h -0.305408 q -0.04651,0 -0.06666,-0.018603 -0.02015,-0.018604 -0.02015,-0.046509 0,-0.029456 0.02015,-0.046509 0.02015,-0.018604 0.06666,-0.018604 h 0.175183 V 2.7990604 h -0.175183 q -0.04651,0 -0.06666,-0.018604 -0.02015,-0.018604 -0.02015,-0.048059 0,-0.027905 0.02015,-0.046509 0.02015,-0.018603 0.06666,-0.018603 h 0.305408 v 1.1999267 l 0.553455,-0.4650879 h -0.06666 q -0.04651,0 -0.06666,-0.018604 -0.02015,-0.018603 -0.02015,-0.046509 0,-0.029456 0.02015,-0.048059 0.02015,-0.018603 0.06666,-0.018603 h 0.417029 q 0.04806,0 0.06821,0.018603 0.02015,0.018604 0.02015,0.048059 0,0.027905 -0.02015,0.046509 -0.02015,0.018604 -0.06821,0.018604 h -0.150379 l -0.508496,0.4247803 0.643372,0.6557739 h 0.150378 q 0.04806,0 0.06821,0.018604 0.02015,0.017053 0.02015,0.046509 0,0.027905 -0.02015,0.046509 -0.02015,0.018603 -0.06821,0.018603 h -0.421679 q -0.04651,0 -0.06666,-0.018603 -0.02015,-0.018604 -0.02015,-0.046509 0,-0.029456 0.02015,-0.046509 0.02015,-0.018604 0.06666,-0.018604 h 0.09147 L 16.264459,3.9075198 Z"
         id="path1252" />
    </g>
    <g
       aria-label="min"
       transform="translate(-2.366605,52.044004)"
       id="text1094-7"
       style="font-size:3.175px;font-family:'Courier New';-inkscape-font-specification:'Courier New';text-align:center;text-anchor:middle;white-space:pre;inline-size:10.236;display:inline;stroke-width:0.264583">
      <path
         d="m 10.071039,3.2703494 v 0.1317749 q 0.165881,-0.1782837 0.333313,-0.1782837 0.100769,0 0.176733,0.05426 0.07597,0.05271 0.127124,0.1612305 0.08682,-0.1085205 0.175183,-0.1612305 0.08992,-0.05426 0.179834,-0.05426 0.141077,0 0.224793,0.091467 0.110071,0.1178223 0.110071,0.2573487 v 0.9100219 h 0.11007 q 0.04651,0 0.06666,0.018604 0.02015,0.017053 0.02015,0.046509 0,0.027905 -0.02015,0.046509 -0.02015,0.018603 -0.06666,0.018603 H 11.267865 V 3.5850589 q 0,-0.099219 -0.06046,-0.1643311 -0.06046,-0.065112 -0.139527,-0.065112 -0.07131,0 -0.150378,0.05426 -0.07906,0.05271 -0.179834,0.2092895 v 0.8635132 h 0.10852 q 0.04651,0 0.06666,0.018604 0.02015,0.017053 0.02015,0.046509 0,0.027905 -0.02015,0.046509 -0.02015,0.018603 -0.06666,0.018603 H 10.60589 V 3.5943607 q 0,-0.1038697 -0.06201,-0.1705323 -0.06046,-0.068213 -0.136426,-0.068213 -0.06976,0 -0.137976,0.044959 -0.09457,0.063562 -0.198437,0.2185913 v 0.8635132 h 0.110071 q 0.04651,0 0.06666,0.018604 0.02015,0.017053 0.02015,0.046509 0,0.027905 -0.02015,0.046509 -0.02015,0.018603 -0.06666,0.018603 H 9.8307434 q -0.046509,0 -0.066662,-0.018603 -0.020154,-0.018604 -0.020154,-0.046509 0,-0.029456 0.020154,-0.046509 0.020154,-0.018604 0.066662,-0.018604 H 9.9408142 V 3.4021243 H 9.8307434 q -0.046509,0 -0.066662,-0.018604 -0.020154,-0.018603 -0.020154,-0.048059 0,-0.027905 0.020154,-0.046509 0.020154,-0.018603 0.066662,-0.018603 z"
         id="path1255" />
      <path
         d="M 12.633673,2.6021732 V 2.9385867 H 12.441437 V 2.6021732 Z m 0.0047,0.6681762 v 1.2123291 h 0.511597 q 0.04806,0 0.06821,0.018604 0.02015,0.017053 0.02015,0.046509 0,0.027905 -0.02015,0.046509 -0.02015,0.018603 -0.06821,0.018603 h -1.153418 q -0.04651,0 -0.06666,-0.018603 -0.02015,-0.018604 -0.02015,-0.046509 0,-0.029456 0.02015,-0.046509 0.02015,-0.018604 0.06666,-0.018604 h 0.511596 V 3.4021243 h -0.379821 q -0.04651,0 -0.06821,-0.018604 -0.02015,-0.018603 -0.02015,-0.046509 0,-0.029456 0.02015,-0.048059 0.02015,-0.018603 0.06821,-0.018603 z"
         id="path1257" />
      <path
         d="m 14.053741,3.2703494 v 0.1968872 q 0.136426,-0.137976 0.246497,-0.190686 0.110071,-0.05271 0.248047,-0.05271 0.148828,0 0.271301,0.063562 0.08682,0.046509 0.15658,0.1550293 0.07131,0.1069703 0.07131,0.2201416 v 0.820105 h 0.110071 q 0.04651,0 0.06666,0.018604 0.02015,0.017053 0.02015,0.046509 0,0.027905 -0.02015,0.046509 -0.02015,0.018603 -0.06666,0.018603 h -0.348816 q -0.04806,0 -0.06821,-0.018603 -0.02015,-0.018604 -0.02015,-0.046509 0,-0.029456 0.02015,-0.046509 0.02015,-0.018604 0.06821,-0.018604 h 0.108521 V 3.6842776 q 0,-0.137976 -0.100769,-0.2325439 -0.100769,-0.096118 -0.269751,-0.096118 -0.128675,0 -0.223243,0.05271 -0.09457,0.05116 -0.269751,0.2573486 v 0.8170044 h 0.147278 q 0.04651,0 0.06666,0.018604 0.02015,0.017053 0.02015,0.046509 0,0.027905 -0.02015,0.046509 -0.02015,0.018603 -0.06666,0.018603 h -0.42478 q -0.04651,0 -0.06666,-0.018603 -0.02015,-0.018604 -0.02015,-0.046509 0,-0.029456 0.02015,-0.046509 0.02015,-0.018604 0.06666,-0.018604 h 0.147278 V 3.4021243 h -0.110071 q -0.04651,0 -0.06666,-0.018604 -0.02015,-0.018603 -0.02015,-0.048059 0,-0.027905 0.02015,-0.046509 0.02015,-0.018603 0.06666,-0.018603 z"
         id="path1259" />
    </g>
    <g
       aria-label="max"
       transform="translate(-2.1891857,77.237551)"
       id="text1094-0"
       style="font-size:3.175px;font-family:'Courier New';-inkscape-font-specification:'Courier New';text-align:center;text-anchor:middle;white-space:pre;inline-size:10.236;display:inline;stroke-width:0.264583">
      <path
         d="m 10.071039,3.2703494 v 0.1317749 q 0.165881,-0.1782837 0.333313,-0.1782837 0.100769,0 0.176733,0.05426 0.07597,0.05271 0.127124,0.1612305 0.08682,-0.1085205 0.175183,-0.1612305 0.08992,-0.05426 0.179834,-0.05426 0.141077,0 0.224793,0.091467 0.110071,0.1178223 0.110071,0.2573487 v 0.9100219 h 0.11007 q 0.04651,0 0.06666,0.018604 0.02015,0.017053 0.02015,0.046509 0,0.027905 -0.02015,0.046509 -0.02015,0.018603 -0.06666,0.018603 H 11.267865 V 3.5850589 q 0,-0.099219 -0.06046,-0.1643311 -0.06046,-0.065112 -0.139527,-0.065112 -0.07131,0 -0.150378,0.05426 -0.07906,0.05271 -0.179834,0.2092895 v 0.8635132 h 0.10852 q 0.04651,0 0.06666,0.018604 0.02015,0.017053 0.02015,0.046509 0,0.027905 -0.02015,0.046509 -0.02015,0.018603 -0.06666,0.018603 H 10.60589 V 3.5943607 q 0,-0.1038697 -0.06201,-0.1705323 -0.06046,-0.068213 -0.136426,-0.068213 -0.06976,0 -0.137976,0.044959 -0.09457,0.063562 -0.198437,0.2185913 v 0.8635132 h 0.110071 q 0.04651,0 0.06666,0.018604 0.02015,0.017053 0.02015,0.046509 0,0.027905 -0.02015,0.046509 -0.02015,0.018603 -0.06666,0.018603 H 9.8307434 q -0.046509,0 -0.066662,-0.018603 -0.020154,-0.018604 -0.020154,-0.046509 0,-0.029456 0.020154,-0.046509 0.020154,-0.018604 0.066662,-0.018604 H 9.9408142 V 3.4021243 H 9.8307434 q -0.046509,0 -0.066662,-0.018604 -0.020154,-0.018603 -0.020154,-0.048059 0,-0.027905 0.020154,-0.046509 0.020154,-0.018603 0.066662,-0.018603 z"
         id="path1262" />
      <path
         d="M 12.943732,4.6129031 V 4.4253177 q -0.283704,0.2387451 -0.606165,0.2387451 -0.234094,0 -0.365869,-0.1178223 -0.131775,-0.1193725 -0.131775,-0.2914551 0,-0.1891357 0.173633,-0.3302123 0.173633,-0.1410767 0.506946,-0.1410767 0.08992,0 0.195337,0.012402 0.10542,0.010852 0.227893,0.035657 V 3.6207156 q 0,-0.1069702 -0.09922,-0.1860351 -0.09922,-0.079065 -0.297656,-0.079065 -0.151929,0 -0.426331,0.088367 -0.04961,0.015503 -0.06356,0.015503 -0.02481,0 -0.04341,-0.018604 -0.01705,-0.018604 -0.01705,-0.046509 0,-0.026355 0.0155,-0.041858 0.0217,-0.023254 0.175183,-0.063562 0.241845,-0.065112 0.365869,-0.065112 0.246496,0 0.384473,0.1224732 0.137976,0.1209228 0.137976,0.2744018 v 0.8619629 h 0.173632 q 0.04806,0 0.06821,0.018604 0.02015,0.017053 0.02015,0.046509 0,0.027905 -0.02015,0.046509 -0.02015,0.018603 -0.06821,0.018603 z m 0,-0.6480224 q -0.09147,-0.026355 -0.193787,-0.038757 -0.102319,-0.012402 -0.215491,-0.012402 -0.283703,0 -0.443383,0.1224731 -0.120923,0.091467 -0.120923,0.2185913 0,0.1178223 0.09147,0.1984375 0.09302,0.080615 0.269751,0.080615 0.168982,0 0.313159,-0.066663 0.145728,-0.068213 0.299207,-0.2154907 z"
         id="path1264" />
      <path
         d="m 14.563788,3.9106204 0.596863,0.5720581 q 0.05891,0 0.07441,0.0062 0.0155,0.00465 0.02635,0.021704 0.0124,0.017053 0.0124,0.037207 0,0.027905 -0.02015,0.046509 -0.02015,0.018603 -0.06821,0.018603 h -0.418579 q -0.04806,0 -0.06821,-0.018603 -0.02015,-0.018604 -0.02015,-0.046509 0,-0.029456 0.02015,-0.046509 0.02015,-0.018604 0.06821,-0.018604 h 0.215491 L 14.475421,3.9974368 13.971576,4.4826785 h 0.217041 q 0.04651,0 0.06666,0.018604 0.02015,0.017053 0.02015,0.046509 0,0.027905 -0.02015,0.046509 -0.02015,0.018603 -0.06666,0.018603 h -0.42323 q -0.04651,0 -0.06666,-0.018603 -0.02015,-0.018604 -0.02015,-0.046509 0,-0.020154 0.01085,-0.037207 0.0124,-0.017053 0.02636,-0.021704 0.0155,-0.0062 0.07441,-0.0062 l 0.596862,-0.5720581 -0.5302,-0.5084961 q -0.05581,0 -0.07131,-0.0062 -0.01395,-0.0062 -0.02636,-0.023254 -0.01085,-0.017053 -0.01085,-0.037207 0,-0.027905 0.02015,-0.046509 0.02015,-0.018603 0.06821,-0.018603 h 0.355018 q 0.04806,0 0.06666,0.018603 0.02015,0.018604 0.02015,0.048059 0,0.027905 -0.02015,0.046509 -0.0186,0.018604 -0.06666,0.018604 h -0.15503 l 0.438733,0.42323 0.441834,-0.42323 h -0.15503 q -0.04651,0 -0.06821,-0.018604 -0.02015,-0.018603 -0.02015,-0.048059 0,-0.027905 0.02015,-0.046509 0.02015,-0.018603 0.06821,-0.018603 h 0.355017 q 0.04651,0 0.06666,0.018603 0.02015,0.018604 0.02015,0.048059 0,0.018603 -0.0124,0.035657 -0.01085,0.017053 -0.02636,0.023254 -0.01395,0.0062 -0.06976,0.0062 z"
         id="path1266" />
    </g>
    <g
       aria-label="out"
       transform="translate(-2.5440244,102.25368)"
       id="text1094-4"
       style="font-size:3.175px;font-family:'Courier New';-inkscape-font-specification:'Courier New';text-align:center;text-anchor:middle;white-space:pre;inline-size:10.236;display:inline;stroke-width:0.264583">
      <path
         d="m 11.391888,3.9447269 q 0,0.2976562 -0.21394,0.508496 -0.21239,0.2108399 -0.513147,0.2108399 -0.303857,0 -0.516247,-0.2108399 -0.2123906,-0.2123901 -0.2123906,-0.508496 0,-0.2976563 0.2123906,-0.5084961 0.21239,-0.2123902 0.516247,-0.2123902 0.300757,0 0.513147,0.2108399 0.21394,0.2108398 0.21394,0.5100464 z m -0.131774,0 q 0,-0.2449463 -0.175184,-0.4170288 -0.173632,-0.1720826 -0.421679,-0.1720826 -0.248047,0 -0.42323,0.1736328 -0.173633,0.1720826 -0.173633,0.4154786 0,0.2418457 0.173633,0.4154785 0.175183,0.1736328 0.42323,0.1736328 0.248047,0 0.421679,-0.1720825 0.175184,-0.1736328 0.175184,-0.4170288 z"
         id="path1269" />
      <path
         d="m 13.015045,4.6129031 v -0.190686 q -0.26665,0.2418457 -0.576709,0.2418457 -0.190686,0 -0.289905,-0.1038696 Q 12.019757,4.4237674 12.019757,4.2423831 V 3.4021243 h -0.175183 q -0.04651,0 -0.06666,-0.018604 -0.02015,-0.018603 -0.02015,-0.048059 0,-0.027905 0.02015,-0.046509 0.02015,-0.018603 0.06666,-0.018603 h 0.305408 v 0.9720337 q 0,0.127124 0.08061,0.2092896 0.08061,0.082166 0.201538,0.082166 0.31781,0 0.58291,-0.2914551 V 3.4021243 H 12.77475 q -0.04651,0 -0.06666,-0.018604 -0.02015,-0.018603 -0.02015,-0.048059 0,-0.027905 0.02015,-0.046509 0.02015,-0.018603 0.06666,-0.018603 h 0.37052 v 1.2123291 h 0.110071 q 0.04651,0 0.06666,0.018604 0.02015,0.017053 0.02015,0.046509 0,0.027905 -0.02015,0.046509 -0.02015,0.018603 -0.06666,0.018603 z"
         id="path1271" />
      <path
         d="m 14.20722,3.2703494 h 0.706934 q 0.04651,0 0.06666,0.018603 0.02015,0.018604 0.02015,0.048059 0,0.027905 -0.02015,0.046509 -0.02015,0.018604 -0.06666,0.018604 H 14.20722 v 0.8666138 q 0,0.1131714 0.08992,0.1891357 0.09147,0.075964 0.266651,0.075964 0.131775,0 0.285254,-0.038757 0.153479,-0.040308 0.238745,-0.089917 0.03101,-0.020154 0.05116,-0.020154 0.0248,0 0.04341,0.020154 0.0186,0.018604 0.0186,0.044958 0,0.023254 -0.02015,0.043408 -0.04961,0.05116 -0.241845,0.1116211 -0.190686,0.058911 -0.365869,0.058911 -0.227893,0 -0.362769,-0.1069702 Q 14.075446,4.4501224 14.075446,4.2687381 V 3.4021243 H 13.83515 q -0.04651,0 -0.06666,-0.018604 -0.02015,-0.018603 -0.02015,-0.048059 0,-0.027905 0.02015,-0.046509 0.02015,-0.018603 0.06666,-0.018603 h 0.240296 V 2.8858768 q 0,-0.046509 0.0186,-0.066663 0.0186,-0.020154 0.04651,-0.020154 0.02946,0 0.04806,0.020154 0.0186,0.020154 0.0186,0.066663 z"
         id="path1273" />
    </g>
    <g
       aria-label="new pattern"
       transform="translate(4.4354838,2.6612903)"
       id="text1240"
       style="font-size:3.175px;font-family:'Courier New';-inkscape-font-specification:'Courier New';text-align:center;text-anchor:middle;white-space:pre;inline-size:22.4574;stroke-width:0.264583">
      <path
         d="m -0.17437124,27.110065 v 0.237195 q 0.11627197,-0.141077 0.24959716,-0.21239 0.13332519,-0.07131 0.31470947,-0.07131 0.19223632,0 0.35501708,0.08992 0.16278076,0.08992 0.25114746,0.251148 0.089917,0.15968 0.089917,0.336413 0,0.280603 -0.20153806,0.480591 -0.19998779,0.198438 -0.49299316,0.198438 -0.34881591,0 -0.56585692,-0.283704 v 0.784448 h 0.31625976 q 0.0465088,0 0.0666626,0.01705 0.0201538,0.0186 0.0201538,0.04806 0,0.02791 -0.0201538,0.04651 -0.0201538,0.0186 -0.0666626,0.0186 h -0.62166747 q -0.0465088,0 -0.0666626,-0.0186 -0.0201538,-0.01705 -0.0201538,-0.04651 0,-0.02945 0.0201538,-0.04806 0.0201538,-0.01705 0.0666626,-0.01705 h 0.1751831 V 27.24184 h -0.1751831 q -0.0465088,0 -0.0666626,-0.0186 -0.0201538,-0.0186 -0.0201538,-0.04806 0,-0.02791 0.0201538,-0.04651 0.0201538,-0.0186 0.0666626,-0.0186 z m 1.12861326,0.630969 q 0,-0.224792 -0.16433105,-0.384472 -0.16278076,-0.161231 -0.39842529,-0.161231 -0.23719482,0 -0.40152587,0.161231 -0.16433105,0.16123 -0.16433105,0.384472 0,0.224793 0.16433105,0.386023 0.16433105,0.161231 0.40152587,0.161231 0.23409424,0 0.39842529,-0.159681 0.16433105,-0.16123 0.16433105,-0.387573 z"
         id="path1282" />
      <path
         d="m 2.5960023,28.452619 v -0.187586 q -0.2837037,0.238745 -0.6061646,0.238745 -0.2340942,0 -0.3658691,-0.117822 -0.1317749,-0.119372 -0.1317749,-0.291455 0,-0.189136 0.1736328,-0.330212 0.1736328,-0.141077 0.5069458,-0.141077 0.089917,0 0.1953369,0.0124 0.1054199,0.01085 0.2278931,0.03566 v -0.21084 q 0,-0.10697 -0.099219,-0.186035 -0.099219,-0.07906 -0.2976562,-0.07906 -0.1519287,0 -0.4263306,0.08837 -0.049609,0.0155 -0.063562,0.0155 -0.024805,0 -0.043408,-0.0186 -0.017053,-0.0186 -0.017053,-0.04651 0,-0.02635 0.015503,-0.04186 0.021704,-0.02325 0.1751831,-0.06356 0.2418457,-0.06511 0.3658691,-0.06511 0.2464966,0 0.3844727,0.122473 0.1379761,0.120923 0.1379761,0.274402 v 0.861963 H 2.90141 q 0.048059,0 0.068213,0.0186 0.020154,0.01705 0.020154,0.04651 0,0.02791 -0.020154,0.04651 -0.020154,0.0186 -0.068213,0.0186 z m 0,-0.648023 q -0.091467,-0.02635 -0.1937867,-0.03876 -0.1023193,-0.0124 -0.2154907,-0.0124 -0.2837036,0 -0.4433838,0.122473 -0.1209228,0.09147 -0.1209228,0.218591 0,0.117822 0.091467,0.198438 0.093017,0.08061 0.2697509,0.08061 0.168982,0 0.3131592,-0.06666 0.1457276,-0.06821 0.2992066,-0.215491 z"
         id="path1284" />
      <path
         d="m 3.859491,27.110065 h 0.7069336 q 0.046509,0 0.066663,0.0186 0.020154,0.0186 0.020154,0.04806 0,0.02791 -0.020154,0.04651 -0.020154,0.0186 -0.066663,0.0186 H 3.859491 v 0.866614 q 0,0.113171 0.089917,0.189135 0.091467,0.07597 0.2666504,0.07597 0.1317749,0 0.2852539,-0.03876 0.153479,-0.04031 0.2387451,-0.08992 0.031006,-0.02015 0.05116,-0.02015 0.024805,0 0.043408,0.02015 0.018604,0.0186 0.018604,0.04496 0,0.02325 -0.020154,0.04341 -0.049609,0.05116 -0.2418457,0.111621 -0.1906861,0.05891 -0.3658692,0.05891 -0.227893,0 -0.3627685,-0.10697 -0.1348755,-0.10697 -0.1348755,-0.288354 V 27.24184 H 3.4874207 q -0.046509,0 -0.066663,-0.0186 -0.020154,-0.0186 -0.020154,-0.04806 0,-0.02791 0.020154,-0.04651 0.020154,-0.0186 0.066663,-0.0186 h 0.2402954 v -0.384473 q 0,-0.04651 0.018604,-0.06666 0.018603,-0.02015 0.046509,-0.02015 0.029456,0 0.048059,0.02015 0.018603,0.02015 0.018603,0.06666 z"
         id="path1286" />
      <path
         d="m 5.7648009,27.110065 h 0.7069336 q 0.046509,0 0.066663,0.0186 0.020154,0.0186 0.020154,0.04806 0,0.02791 -0.020154,0.04651 -0.020154,0.0186 -0.066663,0.0186 H 5.7648009 v 0.866614 q 0,0.113171 0.089917,0.189135 0.091467,0.07597 0.2666504,0.07597 0.1317749,0 0.2852539,-0.03876 0.153479,-0.04031 0.2387451,-0.08992 0.031006,-0.02015 0.05116,-0.02015 0.024805,0 0.043408,0.02015 0.018604,0.0186 0.018604,0.04496 0,0.02325 -0.020154,0.04341 -0.049609,0.05116 -0.2418457,0.111621 -0.190686,0.05891 -0.3658691,0.05891 -0.2278931,0 -0.3627686,-0.10697 Q 5.633026,28.289838 5.633026,28.108454 V 27.24184 H 5.3927306 q -0.046509,0 -0.066663,-0.0186 -0.020154,-0.0186 -0.020154,-0.04806 0,-0.02791 0.020154,-0.04651 0.020154,-0.0186 0.066663,-0.0186 H 5.633026 v -0.384473 q 0,-0.04651 0.018604,-0.06666 0.018604,-0.02015 0.046509,-0.02015 0.029456,0 0.048059,0.02015 0.018604,0.02015 0.018604,0.06666 z"
         id="path1288" />
      <path
         d="M 8.6421448,27.812348 H 7.315094 q 0.034106,0.252697 0.2108398,0.407727 0.1782837,0.153479 0.4402832,0.153479 0.1457276,0 0.3054077,-0.04806 0.1596802,-0.04806 0.2604493,-0.127124 0.029456,-0.02326 0.05116,-0.02326 0.024805,0 0.043408,0.02015 0.018603,0.0186 0.018603,0.04496 0,0.02636 -0.024805,0.05116 -0.074414,0.07751 -0.2651001,0.145728 -0.1891358,0.06666 -0.3891236,0.06666 -0.3348632,0 -0.5596557,-0.218591 -0.2232422,-0.220142 -0.2232422,-0.53175 0,-0.283704 0.2092895,-0.486792 0.2108399,-0.203089 0.5208985,-0.203089 0.3193603,0 0.5255493,0.20929 0.2061889,0.207739 0.2030884,0.539502 z M 8.5103699,27.680573 Q 8.4716125,27.465082 8.3057312,27.330207 8.1414001,27.195331 7.9135071,27.195331 q -0.2278931,0 -0.3922241,0.133325 -0.1643311,0.133325 -0.2046387,0.351917 z"
         id="path1290" />
      <path
         d="m 9.6870423,27.110065 v 0.328662 q 0.2542481,-0.229443 0.3798217,-0.294556 0.127124,-0.06666 0.234094,-0.06666 0.116272,0 0.215491,0.07906 0.100769,0.07751 0.100769,0.117822 0,0.02946 -0.02015,0.04961 -0.0186,0.0186 -0.04806,0.0186 -0.0155,0 -0.02635,-0.0047 -0.01085,-0.0062 -0.04031,-0.03566 -0.05426,-0.05426 -0.09457,-0.07441 -0.04031,-0.02015 -0.07906,-0.02015 -0.08527,0 -0.206189,0.06821 -0.1193727,0.06821 -0.4154787,0.333313 v 0.713135 h 0.5767087 q 0.04806,0 0.06821,0.0186 0.02015,0.01705 0.02015,0.04651 0,0.02791 -0.02015,0.04651 -0.02015,0.0186 -0.06821,0.0186 H 9.2421082 q -0.046509,0 -0.066663,-0.01705 -0.020154,-0.0186 -0.020154,-0.04651 0,-0.02636 0.018604,-0.04341 0.020154,-0.0186 0.068213,-0.0186 H 9.5568177 V 27.24184 H 9.3165223 q -0.046509,0 -0.066663,-0.0186 -0.020154,-0.0186 -0.020154,-0.04806 0,-0.02791 0.018603,-0.04651 0.020154,-0.0186 0.068213,-0.0186 z"
         id="path1292" />
      <path
         d="m 11.327252,27.110065 v 0.196887 q 0.136426,-0.137976 0.246496,-0.190686 0.110071,-0.05271 0.248047,-0.05271 0.148828,0 0.271302,0.06356 0.08682,0.04651 0.156579,0.15503 0.07131,0.10697 0.07131,0.220141 v 0.820105 h 0.11007 q 0.04651,0 0.06666,0.0186 0.02015,0.01705 0.02015,0.04651 0,0.02791 -0.02015,0.04651 -0.02015,0.0186 -0.06666,0.0186 h -0.348815 q -0.04806,0 -0.06821,-0.0186 -0.02015,-0.0186 -0.02015,-0.04651 0,-0.02945 0.02015,-0.04651 0.02015,-0.0186 0.06821,-0.0186 h 0.10852 v -0.798401 q 0,-0.137976 -0.100769,-0.232544 -0.100769,-0.09612 -0.269751,-0.09612 -0.128674,0 -0.223242,0.05271 -0.09457,0.05116 -0.269751,0.257349 v 0.817004 h 0.147278 q 0.04651,0 0.06666,0.0186 0.02015,0.01705 0.02015,0.04651 0,0.02791 -0.02015,0.04651 -0.02015,0.0186 -0.06666,0.0186 h -0.424781 q -0.04651,0 -0.06666,-0.0186 -0.02015,-0.0186 -0.02015,-0.04651 0,-0.02945 0.02015,-0.04651 0.02015,-0.0186 0.06666,-0.0186 h 0.147278 v -1.08055 h -0.11007 q -0.04651,0 -0.06666,-0.0186 -0.02015,-0.0186 -0.02015,-0.04806 0,-0.02791 0.02015,-0.04651 0.02015,-0.0186 0.06666,-0.0186 z"
         id="path1294"
         sodipodi:insensitive="true" />
    </g>
  </g>
</svg>
