<?xml version="1.0" encoding="UTF-8" standalone="no"?>
<!-- Created with Inkscape (http://www.inkscape.org/) -->

<svg
   width="20.32mm"
   height="128.5mm"
   viewBox="0 0 20.32 128.5"
   version="1.1"
   id="svg5"
   inkscape:version="1.2.1 (9c6d41e410, 2022-07-14)"
   sodipodi:docname="QuickMelody.svg"
   xml:space="preserve"
   xmlns:inkscape="http://www.inkscape.org/namespaces/inkscape"
   xmlns:sodipodi="http://sodipodi.sourceforge.net/DTD/sodipodi-0.dtd"
   xmlns="http://www.w3.org/2000/svg"
   xmlns:svg="http://www.w3.org/2000/svg"><sodipodi:namedview
     id="namedview7"
     pagecolor="#ffffff"
     bordercolor="#000000"
     borderopacity="0.25"
     inkscape:showpageshadow="2"
     inkscape:pageopacity="0.0"
     inkscape:pagecheckerboard="0"
     inkscape:deskcolor="#d1d1d1"
     inkscape:document-units="mm"
     showgrid="false"
     inkscape:zoom="11.930303"
     inkscape:cx="50.58547"
     inkscape:cy="474.58978"
     inkscape:window-width="1920"
     inkscape:window-height="1017"
     inkscape:window-x="1912"
     inkscape:window-y="-8"
     inkscape:window-maximized="1"
     inkscape:current-layer="layer4" /><defs
     id="defs2"><rect
       x="30.17526"
       y="16.764033"
       width="4.6939293"
       height="17.434595"
       id="rect1148" /><clipPath
       clipPathUnits="userSpaceOnUse"
       id="clipPath1018"><rect
         style="display:inline;fill:#f9f9f9;fill-opacity:0;stroke-width:0.264583"
         id="rect1020"
         width="20.32"
         height="128.5"
         x="0"
         y="0" /></clipPath><clipPath
       clipPathUnits="userSpaceOnUse"
       id="clipPath1086"><rect
         style="fill:#f9f9f9;fill-opacity:0;stroke-width:0.264583"
         id="rect1088"
         width="20.32"
         height="128.5"
         x="0"
         y="-2.7755579e-17" /></clipPath></defs><g
     inkscape:groupmode="layer"
     id="layer1"
     inkscape:label="Background"><rect
       style="fill:#847b89;fill-opacity:1;stroke-width:0.5;stroke:#220826;stroke-opacity:1;stroke-dasharray:none"
       id="rect328"
       width="20.32"
       height="128.5"
       x="3.5527137e-15"
       y="0" /></g><g
     inkscape:groupmode="layer"
     id="layer5"
     inkscape:label="bounding boxes"
     style="display:inline;fill:#f9f9f9"
     transform="translate(-0.37636328,0.50181771)"><rect
       style="display:inline;fill:#d2d2d2;fill-opacity:1;stroke:#594c62;stroke-width:0.141347;stroke-linecap:square;stroke-linejoin:miter;stroke-dasharray:none;stroke-dashoffset:0;stroke-opacity:1"
       id="rect8877-3-9"
       width="11.458653"
       height="23.058653"
       x="5.0728998"
       y="30.274771" /><rect
       style="fill:#594c62;fill-opacity:1;stroke:none;stroke-width:0.123846;stroke-linecap:square;stroke-linejoin:miter;stroke-dasharray:none;stroke-dashoffset:0;stroke-opacity:1"
       id="rect3722-6"
       width="11.476153"
       height="4.3761539"
       x="5.0655022"
       y="25.826792" /><g
       aria-label="Pttrn"
       id="text6258"
       style="font-weight:500;font-size:4.23333px;font-family:'Futura PT';-inkscape-font-specification:'Futura PT Medium';text-align:center;text-anchor:middle;fill:#f7dfff;stroke-width:0;stroke-linecap:square;fill-opacity:1"
       transform="translate(0.6423813,-1.787182)"><path
         d="m 6.0845346,28.289067 v 2.823631 h 0.5503328 v -1.045633 h 0.3555997 c 0.3259664,0 0.5587996,-0.09313 0.7154328,-0.249766 0.2158998,-0.2159 0.2328331,-0.5207 0.2328331,-0.630766 0,-0.2032 -0.059267,-0.478367 -0.2878664,-0.681567 C 7.4434334,28.322933 7.2233003,28.289067 6.9058005,28.289067 Z M 6.6348674,28.7632 h 0.1904999 c 0.1312332,0 0.2751664,0.0085 0.3894663,0.0889 0.080433,0.05927 0.1566332,0.165099 0.1566332,0.321733 0,0.122766 -0.0508,0.249766 -0.1523999,0.330199 -0.1185332,0.0889 -0.2539998,0.0889 -0.359833,0.0889 H 6.6348674 Z"
         id="path8057"
         style="fill:#f7dfff;fill-opacity:1" /><path
         d="M 9.2256688,29.719932 V 29.279666 H 8.8700691 V 28.653133 H 8.3536029 v 0.626533 H 8.150403 v 0.440266 h 0.2031999 v 1.392766 h 0.5164662 v -1.392766 z"
         id="path8059"
         style="fill:#f7dfff;fill-opacity:1" /><path
         d="m 10.499904,29.719932 v -0.440266 h -0.3556 V 28.653133 H 9.6278376 v 0.626533 H 9.4246378 v 0.440266 h 0.2031998 v 1.392766 h 0.5164664 v -1.392766 z"
         id="path8061"
         style="fill:#f7dfff;fill-opacity:1" /><path
         d="m 10.770839,31.112698 h 0.516466 v -0.880533 c 0,-0.127 0.0042,-0.283633 0.1016,-0.4064 0.1016,-0.127 0.245533,-0.148166 0.3429,-0.148166 0.105833,0 0.173566,0.02117 0.241299,0.06773 l 0.06773,-0.4826 c -0.05927,-0.02117 -0.131234,-0.04233 -0.220133,-0.04233 -0.122767,0 -0.224367,0.02963 -0.3048,0.08043 -0.0381,0.02117 -0.148167,0.09737 -0.2286,0.254 v -0.275166 h -0.516466 z"
         id="path8063"
         style="fill:#f7dfff;fill-opacity:1" /><path
         d="m 12.29484,31.112698 h 0.516466 v -0.935566 c 0,-0.105834 0.0042,-0.237067 0.08043,-0.3556 0.0762,-0.1143 0.182034,-0.160867 0.3175,-0.160867 0.0508,0 0.160867,0.0085 0.2413,0.09313 0.09313,0.09737 0.09737,0.258233 0.09737,0.359833 v 0.999066 h 0.516467 v -1.151466 c 0,-0.1778 -0.01693,-0.359833 -0.143934,-0.516466 -0.143933,-0.1778 -0.380999,-0.224367 -0.541866,-0.224367 -0.296333,0 -0.469899,0.160867 -0.567266,0.296333 V 29.279666 H 12.29484 Z"
         id="path8065"
         style="fill:#f7dfff;fill-opacity:1" /></g><rect
       style="display:inline;fill:#d2d2d2;fill-opacity:1;stroke:#594c62;stroke-width:0.141347;stroke-linecap:square;stroke-linejoin:miter;stroke-dasharray:none;stroke-dashoffset:0;stroke-opacity:1"
       id="rect8877-3-9-4"
       width="11.458653"
       height="23.058653"
       x="5.0728998"
       y="58.736149" /><rect
       style="fill:#594c62;fill-opacity:1;stroke:none;stroke-width:0.123846;stroke-linecap:square;stroke-linejoin:miter;stroke-dasharray:none;stroke-dashoffset:0;stroke-opacity:1"
       id="rect3722-6-6"
       width="11.476153"
       height="4.3761539"
       x="5.0655022"
       y="54.28817" /><g
       aria-label="Max"
       id="text6262"
       style="font-weight:500;font-size:4.23333px;font-family:'Futura PT';-inkscape-font-specification:'Futura PT Medium';text-align:center;text-anchor:middle;fill:#f7dfff;stroke-width:0;stroke-linecap:square;fill-opacity:1"
       transform="translate(0.51258016,2.2781211)"><path
         d="m 5.9681231,55.450859 h 0.5587995 l 0.2878664,-1.739898 0.7238994,1.739898 h 0.1862665 l 0.757766,-1.739898 0.2539998,1.739898 H 9.2955203 L 8.8213873,52.627228 H 8.4234543 L 7.6402883,54.42216 6.8909889,52.627228 h -0.397933 z"
         id="path8068"
         style="fill:#f7dfff;fill-opacity:1" /><path
         d="m 11.124322,53.854894 c -0.173566,-0.270933 -0.448733,-0.296333 -0.588432,-0.296333 -0.5418667,0 -0.9101664,0.431799 -0.9101664,0.973666 0,0.537632 0.3725331,0.977899 0.9355664,0.977899 0.131233,0 0.376766,-0.02963 0.563032,-0.296333 v 0.237066 h 0.516467 v -1.833032 h -0.516467 z m -0.457199,0.160866 c 0.296333,0 0.507999,0.224367 0.507999,0.516467 0,0.292099 -0.211666,0.520699 -0.507999,0.520699 -0.296333,0 -0.508,-0.2286 -0.508,-0.520699 0,-0.2921 0.211667,-0.516467 0.508,-0.516467 z"
         id="path8070"
         style="fill:#f7dfff;fill-opacity:1" /><path
         d="m 11.894787,55.450859 h 0.6604 l 0.533399,-0.639233 0.524933,0.639233 h 0.6604 l -0.867833,-0.999066 0.715433,-0.833966 h -0.651933 l -0.381,0.474133 -0.372533,-0.474133 H 12.06412 l 0.702733,0.833966 z"
         id="path8072"
         style="fill:#f7dfff;fill-opacity:1" /></g><rect
       style="display:inline;fill:#d2d2d2;fill-opacity:1;stroke:#594c62;stroke-width:0.141347;stroke-linecap:square;stroke-linejoin:miter;stroke-dasharray:none;stroke-dashoffset:0;stroke-opacity:1"
       id="rect8877-3-9-6"
       width="11.458653"
       height="23.058653"
       x="5.0728998"
       y="87.197525" /><rect
       style="fill:#594c62;fill-opacity:1;stroke:none;stroke-width:0.123846;stroke-linecap:square;stroke-linejoin:miter;stroke-dasharray:none;stroke-dashoffset:0;stroke-opacity:1"
       id="rect3722-6-5"
       width="11.476153"
       height="4.3761539"
       x="5.0655022"
       y="82.74955" /><g
       aria-label="Min"
       id="text6266"
       style="font-weight:500;font-size:4.23333px;font-family:'Futura PT';-inkscape-font-specification:'Futura PT Medium';text-align:center;text-anchor:middle;display:inline;fill:#efd4f9;stroke-width:0;stroke-linecap:square;fill-opacity:1"
       transform="translate(0.51258017,5.1911117)"><path
         d="m 6.4876769,81.169014 h 0.5587995 l 0.2878664,-1.739899 0.7238994,1.739899 h 0.1862665 l 0.757766,-1.739899 0.2539998,1.739899 h 0.5587996 l -0.474133,-2.823631 h -0.397933 l -0.783166,1.794932 -0.7492993,-1.794932 h -0.397933 z"
         id="path8075"
         style="fill:#efd4f9;fill-opacity:1" /><path
         d="m 10.238411,79.335982 v 1.833032 h 0.516466 v -1.833032 z m -0.0508,-0.774699 c 0,0.169333 0.1397,0.309033 0.309033,0.309033 0.169333,0 0.309033,-0.1397 0.309033,-0.309033 0,-0.169333 -0.1397,-0.309033 -0.309033,-0.309033 -0.169333,0 -0.309033,0.1397 -0.309033,0.309033 z"
         id="path8077"
         style="fill:#efd4f9;fill-opacity:1" /><path
         d="m 11.245947,81.169014 h 0.516466 v -0.935566 c 0,-0.105833 0.0042,-0.237066 0.08043,-0.3556 0.0762,-0.1143 0.182033,-0.160866 0.3175,-0.160866 0.0508,0 0.160866,0.0085 0.2413,0.09313 0.09313,0.09737 0.09737,0.258233 0.09737,0.359833 v 0.999066 h 0.516466 v -1.151466 c 0,-0.1778 -0.01693,-0.359833 -0.143933,-0.516466 -0.143933,-0.1778 -0.380999,-0.224366 -0.541866,-0.224366 -0.296333,0 -0.4699,0.160866 -0.567266,0.296333 v -0.237067 h -0.516466 z"
         id="path8079"
         style="fill:#efd4f9;fill-opacity:1" /></g><rect
       style="display:inline;fill:#220826;fill-opacity:1;stroke:#f7dfff;stroke-width:0.1;stroke-linecap:square;stroke-linejoin:miter;stroke-dasharray:none;stroke-dashoffset:0;stroke-opacity:1"
       id="rect8877-3-9-0"
       width="11.5"
       height="11.5"
       x="5.0522265"
       y="115.63823" /><rect
       style="fill:#efd4f9;fill-opacity:1;stroke:#e7b1ff;stroke-width:0.123846;stroke-linecap:square;stroke-linejoin:miter;stroke-dasharray:none;stroke-dashoffset:0;stroke-opacity:1"
       id="rect3722-6-4"
       width="11.476153"
       height="4.3761539"
       x="5.0655022"
       y="111.21092" /><g
       aria-label="Out"
       id="text6391"
       style="font-weight:500;font-size:4.23333px;font-family:'Futura PT';-inkscape-font-specification:'Futura PT Medium';text-align:center;text-anchor:middle;display:inline;fill:#7d46a7;stroke-width:0;stroke-linecap:square"
       transform="translate(0.68999939,8.991199)"><path
         d="m 7.7030526,102.87096 c -0.8889992,0 -1.5070654,0.61806 -1.5070654,1.47743 0,0.85936 0.6180662,1.4732 1.5070654,1.4732 0.8889993,0 1.5070654,-0.61384 1.5070654,-1.4732 0,-0.85937 -0.6180661,-1.47743 -1.5070654,-1.47743 z m 0,2.45109 c -0.5503328,0 -0.9397992,-0.40216 -0.9397992,-0.97366 0,-0.5715 0.3894664,-0.9779 0.9397992,-0.9779 0.5503329,0 0.9397993,0.4064 0.9397993,0.9779 0,0.5715 -0.3894664,0.97366 -0.9397993,0.97366 z"
         id="path8082" /><path
         d="m 9.6419144,103.92506 v 1.12183 c 0,0.1651 0.021167,0.38523 0.2243665,0.56303 0.1693331,0.14817 0.4402661,0.20743 0.6646331,0.20743 0.224366,0 0.495299,-0.0593 0.664632,-0.20743 0.2032,-0.1778 0.224367,-0.39793 0.224367,-0.56303 v -1.12183 h -0.516466 v 1.03716 c 0,0.0974 -0.0085,0.2286 -0.110067,0.32173 -0.0635,0.055 -0.1651,0.0931 -0.262466,0.0931 -0.09737,0 -0.198967,-0.0381 -0.262467,-0.0931 -0.1016,-0.0931 -0.110066,-0.22436 -0.110066,-0.32173 v -1.03716 z"
         id="path8084" /><path
         d="m 12.783042,104.36532 v -0.44026 h -0.355599 v -0.62654 h -0.516467 v 0.62654 h -0.203199 v 0.44026 h 0.203199 v 1.39277 h 0.516467 v -1.39277 z"
         id="path8086" /></g><rect
       style="display:inline;fill:#d2d2d2;fill-opacity:1;stroke:#594c62;stroke-width:0.1;stroke-linecap:square;stroke-linejoin:miter;stroke-dasharray:none;stroke-dashoffset:0;stroke-opacity:1"
       id="rect8877-3-9-68"
       width="11.5"
       height="11.5"
       x="5.0522265"
       y="13.39272" /><rect
       style="fill:#594c62;fill-opacity:1;stroke:none;stroke-width:0.123846;stroke-linecap:square;stroke-linejoin:miter;stroke-dasharray:none;stroke-dashoffset:0;stroke-opacity:1"
       id="rect3722-6-50"
       width="11.476153"
       height="4.3761539"
       x="5.0655022"
       y="8.9654131" /><g
       aria-label="Clock"
       id="text6100"
       style="font-weight:500;font-size:4.23333px;font-family:'Futura PT';-inkscape-font-specification:'Futura PT Medium';text-align:center;text-anchor:middle;fill:#f7dfff;stroke-width:0;stroke-linecap:square;fill-opacity:1"
       transform="translate(0.86741877,3.084396)"><path
         d="m 7.2031147,8.6640164 c -0.1650999,0.1947331 -0.397933,0.309033 -0.6603995,0.309033 -0.4741329,0 -0.9567325,-0.3386663 -0.9567325,-0.9651991 0,-0.5206996 0.3682997,-0.9863659 0.9355659,-0.9863659 0.1015999,0 0.423333,0.021167 0.6815661,0.3174998 V 6.695518 C 6.9448816,6.5558181 6.7078151,6.5219515 6.5088486,6.5219515 c -0.4021663,0 -0.7535327,0.1058333 -1.0371658,0.372533 C 5.230383,7.118851 5.0187165,7.4871507 5.0187165,7.9993836 c 0,0.4148663 0.1269999,0.7662327 0.4529663,1.0794991 0.2370665,0.2243665 0.5376329,0.3936997 1.0329325,0.3936997 0.3047997,0 0.5291662,-0.0762 0.6984994,-0.1650999 z"
         id="path8046"
         style="fill:#f7dfff;fill-opacity:1" /><path
         d="M 7.6349146,6.322985 V 9.4090824 H 8.1513809 V 6.322985 Z"
         id="path8048"
         style="fill:#f7dfff;fill-opacity:1" /><path
         d="m 9.5991833,7.516784 c -0.347133,0 -0.5841995,0.1142999 -0.7408327,0.2582331 -0.1820332,0.1650999 -0.309033,0.4190997 -0.309033,0.7196661 0,0.2963331 0.1269998,0.5503329 0.309033,0.7154327 0.1566332,0.1439332 0.3936997,0.2582331 0.7408327,0.2582331 0.3471331,0 0.5841997,-0.1142999 0.7408327,-0.2582331 0.182033,-0.1650998 0.309033,-0.4190996 0.309033,-0.7154327 0,-0.3005664 -0.127,-0.5545662 -0.309033,-0.7196661 C 10.183383,7.6310839 9.9463164,7.516784 9.5991833,7.516784 Z m 0,1.4943654 c -0.3005664,0 -0.5164662,-0.2370665 -0.5164662,-0.5164662 0,-0.2878664 0.2201331,-0.5206996 0.5164662,-0.5206996 0.2963331,0 0.5164667,0.2328332 0.5164667,0.5206996 0,0.2793997 -0.2159003,0.5164662 -0.5164667,0.5164662 z"
         id="path8050"
         style="fill:#f7dfff;fill-opacity:1" /><path
         d="m 12.427051,7.6268506 c -0.148167,-0.071967 -0.3048,-0.1100666 -0.4953,-0.1100666 -0.1778,0 -0.436033,0.0381 -0.660399,0.2370665 -0.186267,0.1650998 -0.3175,0.4233329 -0.3175,0.745066 0,0.3428997 0.1524,0.5714995 0.2921,0.7027328 0.1651,0.1566332 0.4191,0.2666997 0.706966,0.2666997 0.211666,0 0.372533,-0.0635 0.474133,-0.1142999 V 8.8502829 c -0.1397,0.1269999 -0.2921,0.1608665 -0.4064,0.1608665 -0.309033,0 -0.533399,-0.2201331 -0.533399,-0.5206995 0,-0.2666998 0.173566,-0.5164663 0.516466,-0.5164663 0.1778,0 0.313266,0.059267 0.423333,0.1608666 z"
         id="path8052"
         style="fill:#f7dfff;fill-opacity:1" /><path
         d="m 12.816514,6.322985 v 3.0860974 h 0.516466 v -0.732366 l 0.05503,-0.0508 0.681566,0.783166 h 0.685799 L 13.82828,8.3803833 14.687646,7.5760506 H 14.01878 l -0.6858,0.6688661 V 6.322985 Z"
         id="path8054"
         style="fill:#f7dfff;fill-opacity:1" /></g></g><g
     inkscape:groupmode="layer"
     id="layer4"
     inkscape:label="text"><g
       aria-label="Quick Melody"
       id="text13696"
       style="font-size:4.23333px;line-height:0.8;font-family:'Futura PT';-inkscape-font-specification:'Futura PT';text-align:center;text-anchor:middle;stroke:#594c62;stroke-width:0;stroke-linecap:square"><path
         d="M 8.1672097,4.1157305 H 8.5736094 L 8.1587431,3.6881642 c 0.1650998,-0.1735665 0.397933,-0.4952995 0.397933,-1.0117658 0,-0.8424326 -0.6603995,-1.4604987 -1.4689655,-1.4604987 -0.8127993,0 -1.4689654,0.6180661 -1.4689654,1.4604987 0,0.8381993 0.6561661,1.4604988 1.4689654,1.4604988 0.448733,0 0.7323661,-0.1777999 0.8508993,-0.2582331 z M 7.439077,2.9515649 H 7.0326774 l 0.681566,0.7027327 C 7.4941103,3.7982308 7.2655105,3.8405641 7.0877106,3.8405641 c -0.6349994,0 -1.1472323,-0.5164662 -1.1472323,-1.1641657 0,-0.6476994 0.5122329,-1.1641657 1.1472323,-1.1641657 0.6307662,0 1.1472324,0.5164663 1.1472324,1.1641657 0,0.4148663 -0.1947332,0.6688661 -0.3005664,0.783166 z"
         id="path14425" /><path
         d="M 9.3610113,2.3292654 H 9.0562115 v 1.0583324 c 0,0.2158998 0.021167,0.3767664 0.1608666,0.5291662 0.1566332,0.1650999 0.3640663,0.2201332 0.5376328,0.2201332 0.1735666,0 0.3810001,-0.055033 0.5376331,-0.2201332 0.1397,-0.1523998 0.160866,-0.3132664 0.160866,-0.5291662 V 2.3292654 h -0.304799 v 1.0244658 c 0,0.1227666 0,0.2666998 -0.08467,0.3767663 -0.04657,0.059267 -0.1396999,0.1354666 -0.3090331,0.1354666 -0.1693332,0 -0.2624664,-0.0762 -0.309033,-0.1354666 C 9.3610113,3.620431 9.3610113,3.4764978 9.3610113,3.3537312 Z"
         id="path14427" /><path
         d="m 11.028941,2.3292654 v 1.7568318 h 0.3048 V 2.3292654 Z m -0.0635,-0.6646328 c 0,0.1185332 0.09737,0.2158998 0.2159,0.2158998 0.118534,0 0.2159,-0.097367 0.2159,-0.2158998 0,-0.1185332 -0.09737,-0.2158998 -0.2159,-0.2158998 -0.118533,0 -0.2159,0.097367 -0.2159,0.2158998 z"
         id="path14429" /><path
         d="m 13.285307,2.4562653 c -0.08467,-0.059267 -0.266699,-0.1693332 -0.546099,-0.1693332 -0.541866,0 -0.939799,0.3936997 -0.939799,0.9313325 0,0.5291663 0.393699,0.9186326 0.939799,0.9186326 0.1651,0 0.368299,-0.042333 0.558799,-0.1820332 V 3.5907977 c -0.160866,0.1947331 -0.385233,0.2751664 -0.567266,0.2751664 -0.313266,0 -0.618066,-0.2243665 -0.618066,-0.6519328 0,-0.4275663 0.296333,-0.6561661 0.622299,-0.6561661 0.156634,0 0.389467,0.059267 0.550333,0.2624664 z"
         id="path14431" /><path
         d="M 13.763673,0.99999984 V 4.0860972 h 0.304799 V 3.3621978 l 0.0762,-0.0762 0.702733,0.8000993 h 0.397933 L 14.356339,3.0827981 15.109872,2.3292654 H 14.711939 L 14.068472,2.9811982 V 0.99999984 Z"
         id="path14433" /><path
         d="M 4.4418771,7.4727611 4.7212768,5.5084961 5.6695427,7.5912943 6.6305086,5.5084961 6.8972083,7.4727611 H 7.2189414 L 6.7786751,4.4882636 5.673776,6.8758616 4.5900436,4.4924969 4.120144,7.4727611 Z"
         id="path14435" /><path
         d="M 9.0985435,6.8843283 C 9.0604435,6.9689949 8.9969436,7.0578948 8.9165103,7.1256281 8.8149104,7.2102947 8.7006105,7.252628 8.5566773,7.252628 8.2518776,7.252628 8.0021111,7.0197948 7.9978778,6.6557285 H 9.3652433 C 9.37371,6.4228953 9.31021,6.1519622 9.2001434,5.995329 9.0943102,5.8429291 8.8784104,5.673596 8.5355107,5.673596 c -0.5291663,0 -0.8508993,0.4063996 -0.8508993,0.9313325 0,0.6519328 0.4444996,0.9186326 0.8678326,0.9186326 0.2243665,0 0.423333,-0.071967 0.5841995,-0.2158999 0.0889,-0.080433 0.1650998,-0.1862665 0.2158998,-0.283633 z M 8.0190444,6.4017287 c 0.046567,-0.2624665 0.2582331,-0.4571996 0.5164663,-0.4571996 0.2582331,0 0.4656662,0.1820331 0.5164662,0.4571996 z"
         id="path14437" /><path
         d="M 9.8309135,4.3866637 V 7.4727611 H 10.135713 V 4.3866637 Z"
         id="path14439" /><path
         d="m 11.532713,7.5235611 c 0.533399,0 0.931332,-0.3894664 0.931332,-0.9228659 0,-0.5333996 -0.393699,-0.9270992 -0.931332,-0.9270992 -0.537633,0 -0.931333,0.3936996 -0.931333,0.9270992 0,0.5333995 0.397933,0.9228659 0.931333,0.9228659 z m 0,-1.579032 c 0.321733,0 0.618066,0.2243664 0.618066,0.6561661 0,0.4275663 -0.300567,0.6519328 -0.618066,0.6519328 -0.313267,0 -0.618066,-0.2201332 -0.618066,-0.6519328 0,-0.4275663 0.296333,-0.6561661 0.618066,-0.6561661 z"
         id="path14441" /><path
         d="M 14.275911,5.9656957 C 14.195478,5.8598625 14.013445,5.673596 13.674778,5.673596 c -0.448733,0 -0.855132,0.3132664 -0.855132,0.9186325 0,0.6180662 0.410633,0.9313326 0.855132,0.9313326 0.309033,0 0.499533,-0.1650999 0.601133,-0.2963331 v 0.2455331 h 0.3048 V 4.3866637 h -0.3048 z m -0.567266,-0.021167 c 0.270933,0 0.584199,0.1989665 0.584199,0.6519327 0,0.3471331 -0.211666,0.6561662 -0.584199,0.6561662 -0.364066,0 -0.575733,-0.2836331 -0.575733,-0.6603995 0,-0.4275663 0.275167,-0.6476994 0.575733,-0.6476994 z"
         id="path14443" /><path
         d="M 15.152214,8.446427 H 15.49088 L 16.782046,5.7159293 H 16.44338 l -0.5715,1.2572989 -0.622299,-1.2572989 h -0.347133 l 0.808566,1.5917319 z"
         id="path14445" /></g><g
       aria-label="∅"
       id="text14309"
       style="font-size:3.52778px;font-family:'Futura PT';-inkscape-font-specification:'Futura PT';text-align:center;text-anchor:middle;fill:#f7dfff;stroke:#594c62;stroke-width:0;stroke-linecap:square"
       transform="translate(0.13306451,0.48790321)"><path
         d="m 17.24011,127.49988 0.27044,-0.26872 q -0.334174,-0.38585 -0.334174,-0.88711 0,-0.55466 0.391018,-0.94568 0.392741,-0.39274 0.947402,-0.39274 0.492649,0 0.88539,0.33418 l 0.27044,-0.26872 0.118856,0.11885 -0.268717,0.27044 q 0.334174,0.38586 0.334174,0.88539 0,0.55467 -0.392741,0.94741 -0.392741,0.39101 -0.945679,0.39101 -0.501262,0 -0.88539,-0.33245 l -0.270441,0.26872 z m 0.391019,-0.38929 1.648479,-1.65021 q -0.341065,-0.28422 -0.763089,-0.28422 -0.485759,0 -0.828546,0.34279 -0.341065,0.34107 -0.341065,0.8251 0,0.43408 0.284221,0.76654 z m 0.118855,0.11885 q 0.33073,0.28422 0.766535,0.28422 0.484036,0 0.825101,-0.34106 0.342787,-0.34279 0.342787,-0.82683 0,-0.42891 -0.284221,-0.76481 z"
         id="path14448" /></g></g><g
     inkscape:groupmode="layer"
     id="layer2"
     inkscape:label="components"
     style="display:none"><circle
       style="fill:#00ff00;fill-opacity:1;stroke-width:0.162096"
       id="clock"
       cx="10.446936"
       cy="19.037825"
       inkscape:transform-center-x="-0.10869517"
       inkscape:transform-center-y="-5.4347841"
       r="2.5"
       inkscape:label="clock" /><circle
       style="display:inline;fill:#00ff00;fill-opacity:1;stroke-width:0.162096"
       id="ipattern"
       cx="10.446936"
       cy="47.923595"
       inkscape:transform-center-x="-0.10869517"
       inkscape:transform-center-y="-5.4347841"
       r="2.5"
       inkscape:label="ipattern" /><circle
       style="display:inline;fill:#00ff00;fill-opacity:1;stroke-width:0.162096"
       id="imax"
       cx="10.446936"
       cy="75.580643"
       inkscape:transform-center-x="-0.10869517"
       inkscape:transform-center-y="-5.4347841"
       r="2.5"
       inkscape:label="imax" /><circle
       style="display:inline;fill:#00ff00;fill-opacity:1;stroke-width:0.162096"
       id="imin"
       cx="10.446936"
       cy="104.5887"
       inkscape:transform-center-x="-0.10869517"
       inkscape:transform-center-y="-5.4347841"
       r="2.5"
       inkscape:label="imin" /><circle
       style="fill:#ff0000;fill-opacity:1;stroke-width:0.162096"
       id="ppattern"
       cx="10.446936"
       cy="36.933666"
       inkscape:transform-center-x="-0.10869517"
       inkscape:transform-center-y="-5.4347841"
       r="2.5"
       inkscape:label="ppattern" /><circle
       style="fill:#ff0000;fill-opacity:1;stroke-width:0.162096"
       id="pmax"
       cx="10.446936"
       cy="65.236191"
       inkscape:transform-center-x="-0.10869517"
       inkscape:transform-center-y="-5.4347841"
       r="2.5"
       inkscape:label="pmax" /><circle
       style="fill:#0000ff;fill-opacity:1;stroke-width:0.162096"
       id="out"
       cx="10.446936"
       cy="121.85402"
       inkscape:transform-center-x="-0.10869517"
       inkscape:transform-center-y="-5.4347841"
       r="2.5"
       inkscape:label="out" /><circle
       style="fill:#ff0000;fill-opacity:1;stroke-width:0.162096"
       id="pmin"
       cx="10.446936"
       cy="93.588707"
       inkscape:transform-center-x="-0.10869517"
       inkscape:transform-center-y="-5.4347841"
       r="2.5"
       inkscape:label="pmin" /></g></svg>
