<?xml version="1.0" encoding="UTF-8" standalone="no"?>
<!-- Created with Inkscape (http://www.inkscape.org/) -->

<svg
   width="152.39999mm"
   height="128.5mm"
   viewBox="0 0 152.4 128.5"
   version="1.1"
   id="svg5"
   inkscape:version="1.2.1 (9c6d41e410, 2022-07-14)"
   sodipodi:docname="RomanQuantizer.svg"
   xml:space="preserve"
   xmlns:inkscape="http://www.inkscape.org/namespaces/inkscape"
   xmlns:sodipodi="http://sodipodi.sourceforge.net/DTD/sodipodi-0.dtd"
   xmlns="http://www.w3.org/2000/svg"
   xmlns:svg="http://www.w3.org/2000/svg"><sodipodi:namedview
     id="namedview7"
     pagecolor="#ffffff"
     bordercolor="#000000"
     borderopacity="0.25"
     inkscape:showpageshadow="2"
     inkscape:pageopacity="0.0"
     inkscape:pagecheckerboard="0"
     inkscape:deskcolor="#d1d1d1"
     inkscape:document-units="mm"
     showgrid="false"
     inkscape:zoom="1.0544998"
     inkscape:cx="125.65199"
     inkscape:cy="313.8929"
     inkscape:window-width="1920"
     inkscape:window-height="1017"
     inkscape:window-x="-8"
     inkscape:window-y="-8"
     inkscape:window-maximized="1"
     inkscape:current-layer="layer1"
     showguides="true" /><defs
     id="defs2"><rect
       x="30.175261"
       y="16.764032"
       width="4.6939292"
       height="17.434595"
       id="rect1148" /><clipPath
       clipPathUnits="userSpaceOnUse"
       id="clipPath1018"><rect
         style="display:inline;fill:#f9f9f9;fill-opacity:0;stroke-width:0.264583"
         id="rect1020"
         width="20.32"
         height="128.5"
         x="0"
         y="0" /></clipPath><clipPath
       clipPathUnits="userSpaceOnUse"
       id="clipPath1086"><rect
         style="fill:#f9f9f9;fill-opacity:0;stroke-width:0.264583"
         id="rect1088"
         width="20.32"
         height="128.5"
         x="0"
         y="-2.7755579e-17" /></clipPath><rect
       x="30.175261"
       y="16.764032"
       width="4.6939292"
       height="17.434595"
       id="rect1148-39" /><rect
       x="30.175261"
       y="16.764032"
       width="4.6939292"
       height="17.434595"
       id="rect1148-3" /><clipPath
       clipPathUnits="userSpaceOnUse"
       id="clipPath1018-9"><rect
         style="display:inline;fill:#f9f9f9;fill-opacity:0;stroke-width:0.264583"
         id="rect1020-3"
         width="20.32"
         height="128.5"
         x="0"
         y="0" /></clipPath><clipPath
       clipPathUnits="userSpaceOnUse"
       id="clipPath1086-2"><rect
         style="fill:#f9f9f9;fill-opacity:0;stroke-width:0.264583"
         id="rect1088-84"
         width="20.32"
         height="128.5"
         x="0"
         y="-2.7755579e-17" /></clipPath><rect
       x="30.175261"
       y="16.764032"
       width="4.6939292"
       height="17.434595"
       id="rect1148-4" /><clipPath
       clipPathUnits="userSpaceOnUse"
       id="clipPath1018-7"><rect
         style="display:inline;fill:#f9f9f9;fill-opacity:0;stroke-width:0.264583"
         id="rect1020-1"
         width="20.32"
         height="128.5"
         x="0"
         y="0" /></clipPath><clipPath
       clipPathUnits="userSpaceOnUse"
       id="clipPath1086-6"><rect
         style="fill:#f9f9f9;fill-opacity:0;stroke-width:0.264583"
         id="rect1088-3"
         width="20.32"
         height="128.5"
         x="0"
         y="-2.7755579e-17" /></clipPath><rect
       x="30.175261"
       y="16.764032"
       width="4.6939292"
       height="17.434595"
       id="rect1148-2" /><clipPath
       clipPathUnits="userSpaceOnUse"
       id="clipPath1018-8"><rect
         style="display:inline;fill:#f9f9f9;fill-opacity:0;stroke-width:0.264583"
         id="rect1020-0"
         width="20.32"
         height="128.5"
         x="0"
         y="0" /></clipPath><clipPath
       clipPathUnits="userSpaceOnUse"
       id="clipPath1086-7"><rect
         style="fill:#f9f9f9;fill-opacity:0;stroke-width:0.264583"
         id="rect1088-8"
         width="20.32"
         height="128.5"
         x="0"
         y="-2.7755579e-17" /></clipPath><rect
       x="30.175261"
       y="16.764032"
       width="4.6939292"
       height="17.434595"
       id="rect1148-30" /><rect
       x="30.175261"
       y="16.764032"
       width="4.6939292"
       height="17.434595"
       id="rect1148-3-5" /><clipPath
       clipPathUnits="userSpaceOnUse"
       id="clipPath1018-0"><rect
         style="display:inline;fill:#f9f9f9;fill-opacity:0;stroke-width:0.264583"
         id="rect1020-2"
         width="20.32"
         height="128.5"
         x="0"
         y="0" /></clipPath><clipPath
       clipPathUnits="userSpaceOnUse"
       id="clipPath1086-1"><rect
         style="fill:#f9f9f9;fill-opacity:0;stroke-width:0.264583"
         id="rect1088-39"
         width="20.32"
         height="128.5"
         x="0"
         y="-2.7755579e-17" /></clipPath><rect
       x="30.175261"
       y="16.764032"
       width="4.6939292"
       height="17.434595"
       id="rect1148-4-2" /><clipPath
       clipPathUnits="userSpaceOnUse"
       id="clipPath1018-7-6"><rect
         style="display:inline;fill:#f9f9f9;fill-opacity:0;stroke-width:0.264583"
         id="rect1020-1-8"
         width="20.32"
         height="128.5"
         x="0"
         y="0" /></clipPath><clipPath
       clipPathUnits="userSpaceOnUse"
       id="clipPath1086-6-7"><rect
         style="fill:#f9f9f9;fill-opacity:0;stroke-width:0.264583"
         id="rect1088-3-7"
         width="20.32"
         height="128.5"
         x="0"
         y="-2.7755579e-17" /></clipPath><rect
       x="30.175261"
       y="16.764032"
       width="4.6939292"
       height="17.434595"
       id="rect1148-2-5" /><clipPath
       clipPathUnits="userSpaceOnUse"
       id="clipPath1018-8-4"><rect
         style="display:inline;fill:#f9f9f9;fill-opacity:0;stroke-width:0.264583"
         id="rect1020-0-8"
         width="20.32"
         height="128.5"
         x="0"
         y="0" /></clipPath><clipPath
       clipPathUnits="userSpaceOnUse"
       id="clipPath1086-7-3"><rect
         style="fill:#f9f9f9;fill-opacity:0;stroke-width:0.264583"
         id="rect1088-8-8"
         width="20.32"
         height="128.5"
         x="0"
         y="-2.7755579e-17" /></clipPath></defs><g
     inkscape:groupmode="layer"
     id="layer3"
     inkscape:label="Background"
     style="display:inline"><rect
       style="display:inline;fill:#847b89;fill-opacity:1;stroke:#220826;stroke-width:0.501661;stroke-linecap:square;stroke-dasharray:none;stroke-opacity:1"
       id="rect922"
       width="151.89835"
       height="127.99833"
       x="0.2508305"
       y="0.2508305" /></g><g
     inkscape:label="Decals"
     inkscape:groupmode="layer"
     id="layer1"><g
       aria-label="∅"
       id="text4142"
       style="font-size:3.52778px;font-family:'Futura PT';-inkscape-font-specification:'Futura PT';text-align:center;text-anchor:middle;fill:#f7dfff;stroke-width:0;stroke-linecap:square"
       transform="translate(81.107626,-0.32691511)"><path
         d="m 68.095424,128.06491 0.27044,-0.26872 q -0.334174,-0.38585 -0.334174,-0.88711 0,-0.55466 0.391019,-0.94568 0.392741,-0.39274 0.947401,-0.39274 0.492649,0 0.885391,0.33417 l 0.27044,-0.26872 0.118856,0.11886 -0.268718,0.27044 q 0.334174,0.38585 0.334174,0.88539 0,0.55466 -0.392741,0.9474 -0.392741,0.39102 -0.945679,0.39102 -0.501262,0 -0.88539,-0.33245 l -0.27044,0.26872 z m 0.391019,-0.3893 1.648479,-1.6502 q -0.341065,-0.28422 -0.763089,-0.28422 -0.485759,0 -0.828546,0.34279 -0.341065,0.34106 -0.341065,0.8251 0,0.43408 0.284221,0.76653 z m 0.118856,0.11886 q 0.330729,0.28422 0.766534,0.28422 0.484036,0 0.825101,-0.34107 0.342787,-0.34278 0.342787,-0.82682 0,-0.42891 -0.28422,-0.76481 z"
         id="path4146" /></g><g
       aria-label="Roman Quantizer"
       id="text440"
       style="font-size:4.23333px;font-family:'Futura PT';-inkscape-font-specification:'Futura PT';text-align:center;text-anchor:middle;stroke-width:0.499999;stroke-linecap:square"
       transform="translate(31.758064,-0.7481577)"><path
         d="m 44.445045,1.7947243 v 2.823631 h 0.313267 V 3.382223 h 0.08043 l 0.859366,1.2361323 h 0.381 L 45.181645,3.356823 c 0.427566,-0.029633 0.711199,-0.347133 0.711199,-0.7789327 0,-0.3005664 -0.143933,-0.5164662 -0.309033,-0.6265328 C 45.372145,1.8074243 45.088512,1.7947243 44.898012,1.7947243 Z m 0.313267,0.2963331 h 0.1905 c 0.135466,0 0.279399,0.00847 0.406399,0.080433 0.1778,0.1015999 0.224367,0.2582331 0.224367,0.4148663 0,0.3301997 -0.232833,0.5164662 -0.6223,0.5164662 h -0.198966 z"
         style="stroke-width:0.5"
         id="path3704" /><path
         d="m 47.272912,4.6691552 c 0.5334,0 0.931333,-0.3894663 0.931333,-0.9228659 0,-0.5333995 -0.3937,-0.9270992 -0.931333,-0.9270992 -0.537633,0 -0.931333,0.3936997 -0.931333,0.9270992 0,0.5333996 0.397933,0.9228659 0.931333,0.9228659 z m 0,-1.579032 c 0.321733,0 0.618066,0.2243665 0.618066,0.6561661 0,0.4275663 -0.300566,0.6519328 -0.618066,0.6519328 -0.313266,0 -0.618066,-0.2201331 -0.618066,-0.6519328 0,-0.4275663 0.296333,-0.6561661 0.618066,-0.6561661 z"
         style="stroke-width:0.5"
         id="path3706" /><path
         d="m 48.669912,4.6183553 h 0.3048 V 3.6616227 c 0,-0.2116664 0.0381,-0.5714995 0.385233,-0.5714995 0.321733,0 0.317499,0.3640664 0.317499,0.486833 v 1.0413991 h 0.3048 V 3.6404561 c 0,-0.2116665 0.0381,-0.5503329 0.389466,-0.5503329 0.287867,0 0.313267,0.2624665 0.313267,0.461433 v 1.0667991 h 0.3048 V 3.5049895 c 0,-0.2497664 -0.0508,-0.6857994 -0.5715,-0.6857994 -0.118533,0 -0.359833,0.016933 -0.529166,0.2836331 -0.03387,-0.059267 -0.160867,-0.2836331 -0.478366,-0.2836331 -0.186267,0 -0.338667,0.084667 -0.436033,0.2285998 V 2.8615234 h -0.3048 z"
         style="stroke-width:0.5"
         id="path3708" /><path
         d="m 52.915939,3.1112899 c -0.08043,-0.1058333 -0.262466,-0.2920998 -0.601133,-0.2920998 -0.448733,0 -0.855132,0.3132664 -0.855132,0.9186326 0,0.6180661 0.410633,0.9313325 0.855132,0.9313325 0.309033,0 0.499533,-0.1650998 0.601133,-0.2963331 v 0.2455332 h 0.3048 V 2.8615234 h -0.3048 z m -0.567266,-0.021167 c 0.270933,0 0.584199,0.1989665 0.584199,0.6519328 0,0.3471331 -0.211666,0.6561661 -0.584199,0.6561661 -0.364066,0 -0.575733,-0.2836331 -0.575733,-0.6603994 0,-0.4275663 0.275167,-0.6476995 0.575733,-0.6476995 z"
         style="stroke-width:0.5"
         id="path3710" /><path
         d="m 53.796476,4.6183553 h 0.3048 V 3.6997227 c 0,-0.1269999 0.0085,-0.334433 0.127,-0.4741329 0.0889,-0.1058333 0.203199,-0.1354666 0.309033,-0.1354666 0.135466,0 0.228599,0.0508 0.287866,0.1269999 0.07197,0.093133 0.08043,0.2158998 0.08043,0.3217331 v 1.0794991 h 0.3048 V 3.5303895 c 0,-0.1947331 -0.0127,-0.3386664 -0.1016,-0.4698996 -0.105833,-0.1566332 -0.296333,-0.2412998 -0.503766,-0.2412998 -0.2921,0 -0.448733,0.1735665 -0.503766,0.2455331 V 2.8615234 h -0.3048 z"
         style="stroke-width:0.5"
         id="path3712" /><path
         d="m 59.244768,4.6479886 h 0.4064 L 59.236301,4.2204223 c 0.1651,-0.1735665 0.397933,-0.4952996 0.397933,-1.0117658 0,-0.8424327 -0.660399,-1.4604988 -1.468965,-1.4604988 -0.812799,0 -1.468966,0.6180661 -1.468966,1.4604988 0,0.8381993 0.656167,1.4604987 1.468966,1.4604987 0.448733,0 0.732366,-0.1777998 0.850899,-0.2582331 z M 58.516635,3.4838229 h -0.406399 l 0.681566,0.7027327 c -0.220133,0.1439332 -0.448733,0.1862665 -0.626533,0.1862665 -0.635,0 -1.147233,-0.5164662 -1.147233,-1.1641656 0,-0.6476995 0.512233,-1.1641657 1.147233,-1.1641657 0.630766,0 1.147232,0.5164662 1.147232,1.1641657 0,0.4148663 -0.194733,0.6688661 -0.300566,0.783166 z"
         style="stroke-width:0.5"
         id="path3714" /><path
         d="m 60.438569,2.8615234 h -0.3048 v 1.0583325 c 0,0.2158998 0.02117,0.3767663 0.160867,0.5291662 0.156633,0.1650998 0.364066,0.2201331 0.537633,0.2201331 0.173566,0 0.381,-0.055033 0.537633,-0.2201331 0.1397,-0.1523999 0.160866,-0.3132664 0.160866,-0.5291662 V 2.8615234 h -0.304799 v 1.0244658 c 0,0.1227666 0,0.2666998 -0.08467,0.3767664 -0.04657,0.059267 -0.1397,0.1354665 -0.309033,0.1354665 -0.169333,0 -0.262467,-0.0762 -0.309033,-0.1354665 -0.08467,-0.1100666 -0.08467,-0.2539998 -0.08467,-0.3767664 z"
         style="stroke-width:0.5"
         id="path3716" /><path
         d="m 63.452698,3.1112899 c -0.08043,-0.1058333 -0.262466,-0.2920998 -0.601133,-0.2920998 -0.448733,0 -0.855132,0.3132664 -0.855132,0.9186326 0,0.6180661 0.410633,0.9313325 0.855132,0.9313325 0.309033,0 0.499533,-0.1650998 0.601133,-0.2963331 v 0.2455332 h 0.3048 V 2.8615234 h -0.3048 z m -0.567266,-0.021167 c 0.270933,0 0.584199,0.1989665 0.584199,0.6519328 0,0.3471331 -0.211666,0.6561661 -0.584199,0.6561661 -0.364067,0 -0.575733,-0.2836331 -0.575733,-0.6603994 0,-0.4275663 0.275166,-0.6476995 0.575733,-0.6476995 z"
         style="stroke-width:0.5"
         id="path3718" /><path
         d="m 64.333235,4.6183553 h 0.3048 V 3.6997227 c 0,-0.1269999 0.0085,-0.334433 0.127,-0.4741329 0.0889,-0.1058333 0.2032,-0.1354666 0.309033,-0.1354666 0.135467,0 0.2286,0.0508 0.287866,0.1269999 0.07197,0.093133 0.08043,0.2158998 0.08043,0.3217331 v 1.0794991 h 0.304799 V 3.5303895 c 0,-0.1947331 -0.0127,-0.3386664 -0.1016,-0.4698996 C 65.53973,2.9038567 65.34923,2.8191901 65.141797,2.8191901 c -0.2921,0 -0.448733,0.1735665 -0.503766,0.2455331 V 2.8615234 h -0.3048 z"
         style="stroke-width:0.5"
         id="path3720" /><path
         d="M 66.940964,3.1409232 V 2.8615234 h -0.3048 V 2.226524 h -0.3048 v 0.6349994 h -0.186266 v 0.2793998 h 0.186266 v 1.4774321 h 0.3048 V 3.1409232 Z"
         style="stroke-width:0.5"
         id="path3722" /><path
         d="m 67.228833,2.8615234 v 1.7568319 h 0.304799 V 2.8615234 Z m -0.0635,-0.6646328 c 0,0.1185333 0.09737,0.2158999 0.2159,0.2158999 0.118533,0 0.215899,-0.097367 0.215899,-0.2158999 0,-0.1185332 -0.09737,-0.2158998 -0.215899,-0.2158998 -0.118534,0 -0.2159,0.097367 -0.2159,0.2158998 z"
         style="stroke-width:0.5"
         id="path3724" /><path
         d="m 69.734965,2.8615234 h -1.634066 v 0.2793998 h 1.024466 l -1.269999,1.4774321 h 1.828799 V 4.3389555 h -1.219199 z"
         style="stroke-width:0.5"
         id="path3726" /><path
         d="m 71.318225,4.0299224 c -0.0381,0.084667 -0.1016,0.1735666 -0.182034,0.2412998 -0.1016,0.084667 -0.215899,0.1269999 -0.359833,0.1269999 -0.304799,0 -0.554566,-0.2328331 -0.558799,-0.5968995 h 1.367365 c 0.0085,-0.2328331 -0.05503,-0.5037662 -0.1651,-0.6603994 -0.105833,-0.1523999 -0.321733,-0.3217331 -0.664632,-0.3217331 -0.529167,0 -0.8509,0.4063997 -0.8509,0.9313326 0,0.6519328 0.4445,0.9186325 0.867833,0.9186325 0.224366,0 0.423333,-0.071967 0.5842,-0.2158998 0.0889,-0.080433 0.165099,-0.1862665 0.215899,-0.2836331 z m -1.0795,-0.4825996 c 0.04657,-0.2624664 0.258234,-0.4571996 0.516467,-0.4571996 0.258233,0 0.465666,0.1820332 0.516466,0.4571996 z"
         style="stroke-width:0.5"
         id="path3728" /><path
         d="m 72.050595,4.6183553 h 0.3048 V 3.6912561 c 0,-0.2878665 0.0508,-0.4063997 0.101599,-0.474133 0.04657,-0.059267 0.122767,-0.1100666 0.245534,-0.1100666 0.04657,0 0.110066,0.0127 0.177799,0.059267 L 73.024261,2.891157 c -0.0762,-0.0381 -0.1778,-0.071967 -0.270933,-0.071967 -0.237067,0 -0.3683,0.1862665 -0.397933,0.2328332 V 2.8615234 h -0.3048 z"
         style="stroke-width:0.5"
         id="path3730" /></g><rect
       style="fill:#220826;display:inline;fill-opacity:1;stroke:#f7dfff;stroke-width:0.0999992;stroke-linecap:square;stroke-linejoin:miter;stroke-dasharray:none;stroke-dashoffset:0;stroke-opacity:1"
       id="rect8877-3-9-0"
       width="11.500001"
       height="11.499828"
       x="20.144022"
       y="112.20254" /><rect
       style="fill:#efd4f9;fill-opacity:1;stroke:#e7b1ff;stroke-width:0.123844;stroke-linecap:square;stroke-linejoin:miter;stroke-dasharray:none;stroke-dashoffset:0;stroke-opacity:1"
       id="rect3722-6-4"
       width="11.476154"
       height="4.3760886"
       x="20.157297"
       y="107.7753" /><g
       aria-label="Out"
       id="text444-3-2"
       style="fill:#7d46a7;font-weight:500;font-size:3.52778px;font-family:'Futura PT';-inkscape-font-specification:'Futura PT Medium';text-align:center;text-anchor:middle;stroke-width:0.499999;stroke-linecap:square"
       transform="translate(-26.158266,-0.47681451)"><path
         d="m 50.615092,109.0763 c -0.740834,0 -1.25589,0.51506 -1.25589,1.2312 0,0.71613 0.515056,1.22766 1.25589,1.22766 0.740833,0 1.255889,-0.51153 1.255889,-1.22766 0,-0.71614 -0.515056,-1.2312 -1.255889,-1.2312 z m 0,2.04259 c -0.458612,0 -0.783168,-0.33514 -0.783168,-0.81139 0,-0.47625 0.324556,-0.81492 0.783168,-0.81492 0.458611,0 0.783167,0.33867 0.783167,0.81492 0,0.47625 -0.324556,0.81139 -0.783167,0.81139 z"
         style="stroke-width:0.5"
         id="path3688" /><path
         d="m 52.230812,109.95472 v 0.93486 c 0,0.13758 0.01764,0.32103 0.186972,0.46919 0.141112,0.12348 0.36689,0.17287 0.553862,0.17287 0.186972,0 0.41275,-0.0494 0.553861,-0.17287 0.169334,-0.14816 0.186973,-0.33161 0.186973,-0.46919 v -0.93486 h -0.43039 v 0.8643 c 0,0.0811 -0.0071,0.1905 -0.09172,0.26812 -0.05292,0.0459 -0.137583,0.0776 -0.218722,0.0776 -0.08114,0 -0.165806,-0.0318 -0.218723,-0.0776 -0.08467,-0.0776 -0.09172,-0.18698 -0.09172,-0.26812 v -0.8643 z"
         style="stroke-width:0.5"
         id="path3690" /><path
         d="m 54.848422,110.32161 v -0.36689 h -0.296333 v -0.52211 H 54.1217 v 0.52211 h -0.169334 v 0.36689 H 54.1217 v 1.16064 h 0.430389 v -1.16064 z"
         style="stroke-width:0.5"
         id="path3692" /></g><rect
       style="fill:#220826;display:inline;fill-opacity:1;stroke:#f7dfff;stroke-width:0.0999992;stroke-linecap:square;stroke-linejoin:miter;stroke-dasharray:none;stroke-dashoffset:0;stroke-opacity:1"
       id="rect8877-3-9-0-4"
       width="11.500001"
       height="11.499828"
       x="4.2728415"
       y="112.14708" /><rect
       style="fill:#efd4f9;fill-opacity:1;stroke:#e7b1ff;stroke-width:0.123844;stroke-linecap:square;stroke-linejoin:miter;stroke-dasharray:none;stroke-dashoffset:0;stroke-opacity:1"
       id="rect3722-6-4-1"
       width="11.476154"
       height="4.3760886"
       x="4.2861166"
       y="107.71984" /><g
       aria-label="Root"
       id="text444-3-2-9"
       style="fill:#7d46a7;font-weight:500;font-size:3.52778px;font-family:'Futura PT';-inkscape-font-specification:'Futura PT Medium';text-align:center;text-anchor:middle;stroke-width:0.499999;stroke-linecap:square"
       transform="translate(-24.395837,-0.7096774)"><path
         d="m 31.178782,109.30662 v 2.35303 h 0.458611 v -0.94544 h 0.05645 l 0.627945,0.94544 h 0.5715 l -0.733778,-0.9913 c 0.112889,-0.0212 0.197555,-0.06 0.257528,-0.10231 0.183444,-0.12347 0.275166,-0.32455 0.275166,-0.55386 0,-0.17639 -0.05292,-0.37747 -0.232833,-0.52917 -0.109361,-0.0917 -0.275167,-0.17639 -0.599723,-0.17639 z m 0.458611,0.37395 h 0.137584 c 0.08467,0 0.4445,0.004 0.4445,0.35278 0,0.34572 -0.363361,0.3563 -0.451556,0.3563 h -0.130528 z"
         style="stroke-width:0.5"
         id="path3695" /><path
         d="m 33.937504,110.08274 c -0.289278,0 -0.486834,0.0952 -0.617362,0.21519 -0.151694,0.13758 -0.257528,0.34925 -0.257528,0.59972 0,0.24695 0.105834,0.45861 0.257528,0.5962 0.130528,0.11994 0.328084,0.21519 0.617362,0.21519 0.289278,0 0.486833,-0.0953 0.617361,-0.21519 0.151695,-0.13759 0.257528,-0.34925 0.257528,-0.5962 0,-0.25047 -0.105833,-0.46214 -0.257528,-0.59972 -0.130528,-0.11994 -0.328083,-0.21519 -0.617361,-0.21519 z m 0,1.2453 c -0.250473,0 -0.430389,-0.19755 -0.430389,-0.43039 0,-0.23989 0.183444,-0.43391 0.430389,-0.43391 0.246944,0 0.430389,0.19402 0.430389,0.43391 0,0.23284 -0.179917,0.43039 -0.430389,0.43039 z"
         style="stroke-width:0.5"
         id="path3697" /><path
         d="m 35.941286,110.08274 c -0.289278,0 -0.486834,0.0952 -0.617362,0.21519 -0.151694,0.13758 -0.257528,0.34925 -0.257528,0.59972 0,0.24695 0.105834,0.45861 0.257528,0.5962 0.130528,0.11994 0.328084,0.21519 0.617362,0.21519 0.289278,0 0.486833,-0.0953 0.617361,-0.21519 0.151695,-0.13759 0.257528,-0.34925 0.257528,-0.5962 0,-0.25047 -0.105833,-0.46214 -0.257528,-0.59972 -0.130528,-0.11994 -0.328083,-0.21519 -0.617361,-0.21519 z m 0,1.2453 c -0.250473,0 -0.430389,-0.19755 -0.430389,-0.43039 0,-0.23989 0.183444,-0.43391 0.430389,-0.43391 0.246944,0 0.430389,0.19402 0.430389,0.43391 0,0.23284 -0.179917,0.43039 -0.430389,0.43039 z"
         style="stroke-width:0.5"
         id="path3699" /><path
         d="m 37.874511,110.49901 v -0.36689 h -0.296333 v -0.52211 h -0.430389 v 0.52211 h -0.169334 v 0.36689 h 0.169334 v 1.16064 h 0.430389 v -1.16064 z"
         style="stroke-width:0.5"
         id="path3701" /></g><rect
       style="fill:#d2d2d2;display:inline;fill-opacity:1;stroke:#594c62;stroke-width:0.141347;stroke-linecap:square;stroke-linejoin:miter;stroke-dasharray:none;stroke-dashoffset:0;stroke-opacity:1"
       id="rect8877-3-9-6"
       width="11.458653"
       height="23.058653"
       x="20.164696"
       y="10.861841" /><rect
       style="fill:#594c62;fill-opacity:1;stroke:none;stroke-width:0.123846;stroke-linecap:square;stroke-linejoin:miter;stroke-dasharray:none;stroke-dashoffset:0;stroke-opacity:1"
       id="rect3722-6-2"
       width="11.476153"
       height="4.3761539"
       x="20.157299"
       y="6.4138613" /><g
       aria-label="Step"
       id="text444-2"
       style="fill:#e8d0f0;font-weight:500;font-size:3.52778px;font-family:'Futura PT';-inkscape-font-specification:'Futura PT Medium';text-align:center;text-anchor:middle;stroke-width:0.499999;stroke-linecap:square"
       transform="translate(-26.267265,-9.4265176)"><path
         d="m 50.590396,17.030512 c -0.239889,-0.246945 -0.518584,-0.275167 -0.666751,-0.275167 -0.522111,0 -0.754945,0.345723 -0.754945,0.691445 0,0.239889 0.109362,0.370417 0.186973,0.437445 0.119944,0.105833 0.268111,0.162278 0.391583,0.204611 0.134056,0.04586 0.275167,0.09172 0.363362,0.172861 0.0635,0.05997 0.09172,0.127 0.09172,0.211667 0,0.197556 -0.155222,0.324556 -0.363361,0.324556 -0.165806,0 -0.381001,-0.08467 -0.49389,-0.313973 l -0.299861,0.285751 c 0.123472,0.179916 0.377473,0.4445 0.81139,0.4445 0.486833,0 0.818445,-0.313973 0.818445,-0.772584 0,-0.239889 -0.09525,-0.398639 -0.201084,-0.493889 -0.119944,-0.109361 -0.292806,-0.172861 -0.47625,-0.236361 -0.148167,-0.05292 -0.225778,-0.08114 -0.282223,-0.134056 -0.05644,-0.04939 -0.07408,-0.102306 -0.07408,-0.15875 0,-0.119945 0.07761,-0.275167 0.324556,-0.275167 0.08467,0 0.246944,0.01764 0.384528,0.201083 z"
         style="stroke-width:0.5"
         id="path3630" /><path
         d="M 51.740454,18.000651 V 17.633762 H 51.44412 v -0.522111 h -0.430389 v 0.522111 h -0.169334 v 0.366889 h 0.169334 v 1.16064 h 0.430389 v -1.16064 z"
         style="stroke-width:0.5"
         id="path3632" /><path
         d="m 53.070428,18.67093 c -0.07056,0.123472 -0.194028,0.201083 -0.356306,0.201083 -0.165805,0 -0.261055,-0.08114 -0.306917,-0.144639 -0.04939,-0.06703 -0.07408,-0.165805 -0.07408,-0.257528 h 1.143001 v -0.03528 c 0,-0.165805 -0.02117,-0.405694 -0.183445,-0.599722 -0.105833,-0.127 -0.28575,-0.250473 -0.596195,-0.250473 -0.183444,0 -0.395111,0.03881 -0.575028,0.215195 -0.109361,0.109361 -0.232833,0.296334 -0.232833,0.599723 0,0.239889 0.07055,0.437444 0.239889,0.596194 0.151694,0.144639 0.338667,0.215195 0.585611,0.215195 0.532695,0 0.705556,-0.363361 0.751417,-0.47625 z m -0.723195,-0.476251 c 0.03528,-0.204611 0.201084,-0.306916 0.359834,-0.306916 0.15875,0 0.328083,0.09878 0.363361,0.306916 z"
         style="stroke-width:0.5"
         id="path3634" /><path
         d="m 54.238121,18.963735 c 0.169334,0.229306 0.384528,0.246945 0.490362,0.246945 0.225778,0 0.402167,-0.08819 0.518584,-0.197556 0.08819,-0.08467 0.239889,-0.271639 0.239889,-0.617361 0,-0.303389 -0.116417,-0.493889 -0.229306,-0.606778 -0.172861,-0.172862 -0.388056,-0.204612 -0.522112,-0.204612 -0.282222,0 -0.430389,0.151695 -0.497417,0.246945 v -0.197556 h -0.430389 v 2.335391 h 0.430389 z m 0.381001,-0.998361 c 0.102305,0 0.215194,0.0388 0.292805,0.109361 0.08467,0.08114 0.130528,0.208139 0.130528,0.321028 0,0.112889 -0.04233,0.239889 -0.134055,0.324556 -0.05645,0.05292 -0.148167,0.109361 -0.289278,0.109361 -0.134056,0 -0.225778,-0.05292 -0.282223,-0.102306 -0.08467,-0.07408 -0.141111,-0.1905 -0.141111,-0.331611 0,-0.141111 0.04939,-0.246945 0.144639,-0.328084 0.07761,-0.07055 0.165806,-0.102305 0.278695,-0.102305 z"
         style="stroke-width:0.5"
         id="path3636" /></g><rect
       style="fill:#d2d2d2;display:inline;fill-opacity:1;stroke:#594c62;stroke-width:0.141347;stroke-linecap:square;stroke-linejoin:miter;stroke-dasharray:none;stroke-dashoffset:0;stroke-opacity:1"
       id="rect8877-3-9-3"
       width="11.458653"
       height="23.058653"
       x="20.164696"
       y="78.394852" /><rect
       style="fill:#594c62;fill-opacity:1;stroke:none;stroke-width:0.123846;stroke-linecap:square;stroke-linejoin:miter;stroke-dasharray:none;stroke-dashoffset:0;stroke-opacity:1"
       id="rect3722-6-47"
       width="11.476153"
       height="4.3761539"
       x="20.157299"
       y="73.946869" /><g
       aria-label="Pttern"
       id="text444-1"
       style="fill:#e8d0f0;font-weight:500;font-size:3.52778px;font-family:'Futura PT';-inkscape-font-specification:'Futura PT Medium';text-align:center;text-anchor:middle;stroke-width:0.499999;stroke-linecap:square"
       transform="translate(-26.444686,-1.5064069)"><path
         d="m 48.233103,76.421164 v 2.353029 h 0.458612 v -0.871362 h 0.296333 c 0.271639,0 0.465667,-0.07761 0.596195,-0.208139 0.179917,-0.179917 0.194028,-0.433917 0.194028,-0.525639 0,-0.169334 -0.04939,-0.398639 -0.239889,-0.567973 -0.172861,-0.151694 -0.356306,-0.179916 -0.620889,-0.179916 z m 0.458612,0.395111 h 0.15875 c 0.109361,0 0.229305,0.0071 0.324556,0.07408 0.06703,0.04939 0.130527,0.137584 0.130527,0.268112 0,0.102305 -0.04233,0.208139 -0.127,0.275166 -0.09878,0.07408 -0.211666,0.07408 -0.299861,0.07408 h -0.186972 z"
         style="stroke-width:0.5"
         id="path3662" /><path
         d="m 50.850719,77.613553 v -0.366889 h -0.296333 v -0.522111 h -0.43039 v 0.522111 h -0.169333 v 0.366889 h 0.169333 v 1.16064 h 0.43039 v -1.16064 z"
         style="stroke-width:0.5"
         id="path3664" /><path
         d="M 51.912583,77.613553 V 77.246664 H 51.616249 V 76.724553 H 51.18586 v 0.522111 h -0.169333 v 0.366889 h 0.169333 v 1.16064 h 0.430389 v -1.16064 z"
         style="stroke-width:0.5"
         id="path3666" /><path
         d="m 53.242558,78.283831 c -0.07056,0.123473 -0.194028,0.201084 -0.356306,0.201084 -0.165806,0 -0.261056,-0.08114 -0.306917,-0.144639 -0.04939,-0.06703 -0.07408,-0.165806 -0.07408,-0.257528 h 1.143 v -0.03528 c 0,-0.165806 -0.02117,-0.405695 -0.183444,-0.599722 -0.105834,-0.127001 -0.28575,-0.250473 -0.596195,-0.250473 -0.183445,0 -0.395111,0.03881 -0.575028,0.215195 -0.109361,0.109361 -0.232834,0.296333 -0.232834,0.599722 0,0.239889 0.07056,0.437445 0.239889,0.596195 0.151695,0.144639 0.338667,0.215195 0.585612,0.215195 0.532695,0 0.705556,-0.363362 0.751417,-0.476251 z m -0.723195,-0.47625 c 0.03528,-0.204611 0.201083,-0.306917 0.359833,-0.306917 0.15875,0 0.328084,0.09878 0.363362,0.306917 z"
         style="stroke-width:0.5"
         id="path3668" /><path
         d="m 53.979862,78.774193 h 0.430389 v -0.733778 c 0,-0.105834 0.0035,-0.236362 0.08467,-0.338667 0.08467,-0.105834 0.204611,-0.123473 0.28575,-0.123473 0.08819,0 0.144639,0.01764 0.201083,0.05644 l 0.05644,-0.402167 c -0.04939,-0.01764 -0.109362,-0.03528 -0.183445,-0.03528 -0.102306,0 -0.186972,0.02469 -0.254,0.06703 -0.03175,0.01764 -0.123472,0.08114 -0.1905,0.211667 V 77.246659 H 53.97986 Z"
         style="stroke-width:0.5"
         id="path3670" /><path
         d="m 55.249864,78.774193 h 0.43039 v -0.77964 c 0,-0.08819 0.0035,-0.197555 0.06703,-0.296333 0.0635,-0.09525 0.151695,-0.134056 0.264584,-0.134056 0.04233,0 0.134056,0.0071 0.201083,0.07761 0.07761,0.08114 0.08114,0.215195 0.08114,0.299862 v 0.832556 h 0.43039 v -0.959556 c 0,-0.148167 -0.01411,-0.299862 -0.119945,-0.43039 -0.119945,-0.148166 -0.3175,-0.186972 -0.451556,-0.186972 -0.246944,0 -0.391583,0.134056 -0.472722,0.246945 v -0.197556 h -0.43039 z"
         style="stroke-width:0.5"
         id="path3672" /></g><rect
       style="fill:#d2d2d2;display:inline;fill-opacity:1;stroke:#594c62;stroke-width:0.141347;stroke-linecap:square;stroke-linejoin:miter;stroke-dasharray:none;stroke-dashoffset:0;stroke-opacity:1"
       id="rect8877-3-9-7"
       width="11.458653"
       height="23.058653"
       x="20.164696"
       y="44.628345" /><rect
       style="fill:#594c62;fill-opacity:1;stroke:none;stroke-width:0.123846;stroke-linecap:square;stroke-linejoin:miter;stroke-dasharray:none;stroke-dashoffset:0;stroke-opacity:1"
       id="rect3722-6-1"
       width="11.476153"
       height="4.3761539"
       x="20.157299"
       y="40.180363" /><g
       aria-label="Reset"
       id="text444-32"
       style="fill:#e8d0f0;font-weight:500;font-size:3.52778px;font-family:'Futura PT';-inkscape-font-specification:'Futura PT Medium';text-align:center;text-anchor:middle;stroke-width:0.499999;stroke-linecap:square"
       transform="translate(-26.267269,-5.1116238)"><path
         d="m 48.494898,46.259874 v 2.35303 h 0.458611 v -0.945445 h 0.05645 l 0.627945,0.945445 h 0.5715 l -0.733778,-0.991307 c 0.112889,-0.02117 0.197556,-0.05997 0.257528,-0.102305 0.183444,-0.123473 0.275167,-0.324556 0.275167,-0.553862 0,-0.176389 -0.05292,-0.377472 -0.232834,-0.529167 -0.109361,-0.09172 -0.275167,-0.176389 -0.599722,-0.176389 z m 0.458611,0.373945 h 0.137584 c 0.08467,0 0.4445,0.0035 0.4445,0.352778 0,0.345722 -0.363361,0.356306 -0.451556,0.356306 h -0.130528 z"
         style="stroke-width:0.5"
         id="path3644" /><path
         d="m 51.560537,48.122542 c -0.07056,0.123472 -0.194028,0.201084 -0.356306,0.201084 -0.165806,0 -0.261056,-0.08114 -0.306917,-0.144639 -0.04939,-0.06703 -0.07408,-0.165806 -0.07408,-0.257528 h 1.143 v -0.03528 c 0,-0.165806 -0.02117,-0.405695 -0.183444,-0.599723 -0.105834,-0.127 -0.28575,-0.250472 -0.596195,-0.250472 -0.183445,0 -0.395111,0.0388 -0.575028,0.215194 -0.109361,0.109362 -0.232834,0.296334 -0.232834,0.599723 0,0.239889 0.07056,0.437445 0.239889,0.596195 0.151695,0.144639 0.338667,0.215195 0.585612,0.215195 0.532695,0 0.705556,-0.363362 0.751417,-0.476251 z m -0.723195,-0.47625 c 0.03528,-0.204611 0.201083,-0.306917 0.359833,-0.306917 0.15875,0 0.328084,0.09878 0.363362,0.306917 z"
         style="stroke-width:0.5"
         id="path3646" /><path
         d="m 53.342064,47.198264 c -0.194028,-0.148167 -0.373945,-0.162278 -0.486834,-0.162278 -0.123472,0 -0.278695,0.01411 -0.398639,0.109361 -0.0882,0.07408 -0.15875,0.197556 -0.15875,0.345723 0,0.123472 0.04586,0.218722 0.116416,0.292805 0.09172,0.09525 0.218723,0.144639 0.328084,0.183445 l 0.09878,0.03528 c 0.05644,0.02117 0.134055,0.05997 0.134055,0.155222 0,0.105833 -0.09172,0.165806 -0.211666,0.165806 -0.127,0 -0.254001,-0.07761 -0.338667,-0.176389 l -0.225778,0.261055 c 0.09525,0.102306 0.275167,0.254001 0.592667,0.254001 0.186972,0 0.335139,-0.04939 0.458611,-0.162278 0.123473,-0.112889 0.169334,-0.250473 0.169334,-0.388056 0,-0.09878 -0.03175,-0.1905 -0.07761,-0.254 -0.08819,-0.119945 -0.268112,-0.179917 -0.388056,-0.218723 l -0.102306,-0.03175 c -0.119944,-0.03881 -0.137583,-0.09878 -0.137583,-0.137583 0,-0.07408 0.0635,-0.123472 0.165805,-0.123472 0.04586,0 0.148167,0.0071 0.250473,0.102305 z"
         style="stroke-width:0.5"
         id="path3648" /><path
         d="m 54.827256,48.122542 c -0.07055,0.123472 -0.194028,0.201084 -0.356305,0.201084 -0.165806,0 -0.261056,-0.08114 -0.306917,-0.144639 -0.04939,-0.06703 -0.07408,-0.165806 -0.07408,-0.257528 h 1.143001 v -0.03528 c 0,-0.165806 -0.02117,-0.405695 -0.183445,-0.599723 -0.105833,-0.127 -0.28575,-0.250472 -0.596194,-0.250472 -0.183445,0 -0.395112,0.0388 -0.575029,0.215194 -0.109361,0.109362 -0.232833,0.296334 -0.232833,0.599723 0,0.239889 0.07056,0.437445 0.239889,0.596195 0.151695,0.144639 0.338667,0.215195 0.585612,0.215195 0.532694,0 0.705556,-0.363362 0.751417,-0.476251 z m -0.723195,-0.47625 c 0.03528,-0.204611 0.201084,-0.306917 0.359834,-0.306917 0.15875,0 0.328084,0.09878 0.363361,0.306917 z"
         style="stroke-width:0.5"
         id="path3650" /><path
         d="M 56.291283,47.452264 V 47.085375 H 55.99495 v -0.522112 h -0.43039 v 0.522112 h -0.169333 v 0.366889 h 0.169333 v 1.16064 h 0.43039 v -1.16064 z"
         style="stroke-width:0.5"
         id="path3652" /></g><rect
       style="fill:#d2d2d2;display:inline;fill-opacity:1;stroke:#594c62;stroke-width:0.0999992;stroke-linecap:square;stroke-linejoin:miter;stroke-dasharray:none;stroke-dashoffset:0;stroke-opacity:1"
       id="rect8877-3-9-68-7"
       width="11.500001"
       height="11.499828"
       x="4.2735167"
       y="10.82207" /><rect
       style="fill:#594c62;fill-opacity:1;stroke:none;stroke-width:0.123844;stroke-linecap:square;stroke-linejoin:miter;stroke-dasharray:none;stroke-dashoffset:0;stroke-opacity:1"
       id="rect3722-6-50-7"
       width="11.476154"
       height="4.3760886"
       x="4.2867918"
       y="6.3948336" /><g
       aria-label="In"
       id="text444-3"
       style="fill:#e8d0f0;font-weight:500;font-size:3.52778px;font-family:'Futura PT';-inkscape-font-specification:'Futura PT Medium';text-align:center;text-anchor:middle;stroke-width:0.499999;stroke-linecap:square"
       transform="translate(-24.839385,-0.7096774)"><path
         d="m 33.47847,7.8227767 v 2.3530293 h 0.458611 V 7.8227767 Z"
         style="stroke-width:0.5"
         id="path3639" /><path
         d="m 34.409802,10.175806 h 0.430389 V 9.3961667 c 0,-0.088195 0.0035,-0.1975557 0.06703,-0.2963336 0.0635,-0.09525 0.151695,-0.1340556 0.264584,-0.1340556 0.04233,0 0.134055,0.00706 0.201083,0.077611 0.07761,0.081139 0.08114,0.2151946 0.08114,0.2998614 v 0.8325561 h 0.430389 V 9.2162499 c 0,-0.1481668 -0.01411,-0.2998613 -0.119944,-0.4303892 -0.119945,-0.1481668 -0.317501,-0.1869723 -0.451556,-0.1869723 -0.246945,0 -0.391584,0.1340556 -0.472723,0.2469446 V 8.6482773 h -0.430389 z"
         style="stroke-width:0.5"
         id="path3641" /></g><rect
       style="fill:#d2d2d2;display:inline;fill-opacity:1;stroke:#594c62;stroke-width:0.0999992;stroke-linecap:square;stroke-linejoin:miter;stroke-dasharray:none;stroke-dashoffset:0;stroke-opacity:1"
       id="rect8877-3-9-68-7-0"
       width="11.500001"
       height="11.499828"
       x="4.2735171"
       y="33.277023" /><rect
       style="fill:#594c62;fill-opacity:1;stroke:none;stroke-width:0.123844;stroke-linecap:square;stroke-linejoin:miter;stroke-dasharray:none;stroke-dashoffset:0;stroke-opacity:1"
       id="rect3722-6-50-7-3"
       width="11.476154"
       height="4.3760886"
       x="4.2867923"
       y="28.849787" /><g
       aria-label="Steps"
       id="text444-3-5"
       style="fill:#e8d0f0;font-weight:500;font-size:3.52778px;font-family:'Futura PT';-inkscape-font-specification:'Futura PT Medium';text-align:center;text-anchor:middle;stroke-width:0.499999;stroke-linecap:square"
       transform="translate(-24.750674,-7.5165191)"><path
         d="m 32.186788,37.30682 c -0.23989,-0.246945 -0.518584,-0.275167 -0.666751,-0.275167 -0.522111,0 -0.754945,0.345723 -0.754945,0.691445 0,0.239889 0.109361,0.370417 0.186973,0.437445 0.119944,0.105833 0.268111,0.162278 0.391583,0.204611 0.134056,0.04586 0.275167,0.09172 0.363361,0.172861 0.0635,0.05997 0.09172,0.127 0.09172,0.211667 0,0.197556 -0.155223,0.324556 -0.363362,0.324556 -0.165805,0 -0.381,-0.08467 -0.493889,-0.313973 l -0.299861,0.285751 c 0.123472,0.179916 0.377472,0.4445 0.811389,0.4445 0.486834,0 0.818445,-0.313973 0.818445,-0.772584 0,-0.239889 -0.09525,-0.398639 -0.201083,-0.493889 -0.119945,-0.109361 -0.292806,-0.172861 -0.476251,-0.236361 -0.148166,-0.05292 -0.225777,-0.08114 -0.282222,-0.134056 -0.05644,-0.04939 -0.07408,-0.102306 -0.07408,-0.15875 0,-0.119945 0.07761,-0.275167 0.324555,-0.275167 0.08467,0 0.246945,0.01764 0.384528,0.201083 z"
         style="stroke-width:0.5"
         id="path3619" /><path
         d="m 33.336845,38.27696 v -0.36689 h -0.296333 v -0.522111 h -0.43039 v 0.522111 h -0.169333 v 0.36689 h 0.169333 v 1.160639 h 0.43039 V 38.27696 Z"
         style="stroke-width:0.5"
         id="path3621" /><path
         d="m 34.66682,38.947238 c -0.07056,0.123472 -0.194028,0.201083 -0.356306,0.201083 -0.165806,0 -0.261056,-0.08114 -0.306917,-0.144639 -0.04939,-0.06703 -0.07408,-0.165805 -0.07408,-0.257528 h 1.143 v -0.03528 c 0,-0.165805 -0.02117,-0.405694 -0.183444,-0.599722 -0.105833,-0.127 -0.28575,-0.250473 -0.596195,-0.250473 -0.183444,0 -0.395111,0.03881 -0.575028,0.215195 -0.109361,0.109361 -0.232834,0.296334 -0.232834,0.599723 0,0.239889 0.07056,0.437444 0.23989,0.596195 0.151694,0.144639 0.338666,0.215194 0.585611,0.215194 0.532695,0 0.705556,-0.363361 0.751417,-0.47625 z m -0.723195,-0.476251 c 0.03528,-0.204611 0.201083,-0.306916 0.359833,-0.306916 0.158751,0 0.328084,0.09878 0.363362,0.306916 z"
         style="stroke-width:0.5"
         id="path3623" /><path
         d="m 35.834513,39.240043 c 0.169334,0.229306 0.384528,0.246945 0.490362,0.246945 0.225777,0 0.402166,-0.08819 0.518583,-0.197556 0.08819,-0.08467 0.239889,-0.271639 0.239889,-0.617361 0,-0.303389 -0.116416,-0.493889 -0.229305,-0.606778 -0.172862,-0.172861 -0.388056,-0.204612 -0.522112,-0.204612 -0.282222,0 -0.430389,0.151695 -0.497417,0.246945 V 37.91007 h -0.430389 v 2.335391 h 0.430389 z m 0.381,-0.998361 c 0.102306,0 0.215195,0.03881 0.292806,0.109361 0.08467,0.08114 0.130528,0.208139 0.130528,0.321028 0,0.112889 -0.04233,0.239889 -0.134056,0.324556 -0.05644,0.05292 -0.148166,0.109361 -0.289278,0.109361 -0.134055,0 -0.225778,-0.05292 -0.282222,-0.102306 -0.08467,-0.07408 -0.141111,-0.1905 -0.141111,-0.331611 0,-0.141111 0.04939,-0.246945 0.144639,-0.328084 0.07761,-0.07055 0.165805,-0.102305 0.278694,-0.102305 z"
         style="stroke-width:0.5"
         id="path3625" /><path
         d="m 38.423901,38.022959 c -0.194028,-0.148166 -0.373944,-0.162278 -0.486833,-0.162278 -0.123473,0 -0.278695,0.01411 -0.398639,0.109362 -0.08819,0.07408 -0.158751,0.197555 -0.158751,0.345722 0,0.123472 0.04586,0.218722 0.116417,0.292806 0.09172,0.09525 0.218723,0.144639 0.328084,0.183444 l 0.09878,0.03528 c 0.05644,0.02117 0.134055,0.05997 0.134055,0.155223 0,0.105833 -0.09172,0.165805 -0.211667,0.165805 -0.127,0 -0.254,-0.07761 -0.338667,-0.176389 l -0.225777,0.261056 c 0.09525,0.102306 0.275166,0.254 0.592667,0.254 0.186972,0 0.335139,-0.04939 0.458611,-0.162278 0.123472,-0.112889 0.169333,-0.250472 0.169333,-0.388056 0,-0.09878 -0.03175,-0.1905 -0.07761,-0.254 -0.08819,-0.119944 -0.268111,-0.179917 -0.388055,-0.218722 l -0.102306,-0.03175 c -0.119945,-0.03881 -0.137584,-0.09878 -0.137584,-0.137584 0,-0.07408 0.0635,-0.123472 0.165806,-0.123472 0.04586,0 0.148167,0.0071 0.250473,0.102306 z"
         style="stroke-width:0.5"
         id="path3627" /></g><rect
       style="fill:#d2d2d2;display:inline;fill-opacity:1;stroke:#594c62;stroke-width:0.0999992;stroke-linecap:square;stroke-linejoin:miter;stroke-dasharray:none;stroke-dashoffset:0;stroke-opacity:1"
       id="rect8877-3-9-68-7-7"
       width="11.500001"
       height="11.499828"
       x="4.2735167"
       y="55.731976" /><rect
       style="fill:#594c62;display:inline;fill-opacity:1;stroke:none;stroke-width:0.0999992;stroke-linecap:square;stroke-linejoin:miter;stroke-dasharray:none;stroke-dashoffset:0;stroke-opacity:1"
       id="rect8877-3-9-68-7-7-2-9"
       width="11.500001"
       height="11.499828"
       x="4.2784357"
       y="67.22525" /><rect
       style="fill:#594c62;fill-opacity:1;stroke:none;stroke-width:0.123844;stroke-linecap:square;stroke-linejoin:miter;stroke-dasharray:none;stroke-dashoffset:0;stroke-opacity:1"
       id="rect3722-6-50-7-6"
       width="11.476154"
       height="4.3760886"
       x="4.2867918"
       y="51.304737" /><g
       aria-label="Key"
       id="text444-3-4"
       style="fill:#e8d0f0;font-weight:500;font-size:3.52778px;font-family:'Futura PT';-inkscape-font-specification:'Futura PT Medium';text-align:center;text-anchor:middle;stroke-width:0.499999;stroke-linecap:square"
       transform="translate(-24.218417,-5.4647928)"><path
         d="m 31.837974,57.487799 h -0.458611 v 2.353029 h 0.458611 v -1.00189 l 0.05292,-0.05292 0.836084,1.054806 h 0.606778 l -1.04775,-1.266473 0.994833,-1.086556 h -0.578555 l -0.864307,0.994834 z"
         style="stroke-width:0.5"
         id="path3655" /><path
         d="m 34.550838,59.350467 c -0.07056,0.123472 -0.194028,0.201083 -0.356306,0.201083 -0.165806,0 -0.261056,-0.08114 -0.306917,-0.144639 -0.04939,-0.06703 -0.07408,-0.165806 -0.07408,-0.257528 h 1.143 v -0.03528 c 0,-0.165805 -0.02117,-0.405694 -0.183444,-0.599722 -0.105834,-0.127 -0.28575,-0.250473 -0.596195,-0.250473 -0.183445,0 -0.395111,0.03881 -0.575028,0.215195 -0.109361,0.109361 -0.232834,0.296333 -0.232834,0.599722 0,0.239889 0.07056,0.437445 0.239889,0.596195 0.151695,0.144639 0.338667,0.215195 0.585612,0.215195 0.532695,0 0.705556,-0.363361 0.751417,-0.47625 z m -0.723195,-0.476251 c 0.03528,-0.204611 0.201083,-0.306917 0.359833,-0.306917 0.15875,0 0.328084,0.09878 0.363362,0.306917 z"
         style="stroke-width:0.5"
         id="path3657" /><path
         d="m 35.221113,60.64869 h 0.486833 l 1.231196,-2.335391 h -0.486834 l -0.423334,0.867834 -0.472722,-0.867834 h -0.500945 l 0.726723,1.298223 z"
         style="stroke-width:0.5"
         id="path3659" /></g><rect
       style="fill:#d2d2d2;display:inline;fill-opacity:1;stroke:#594c62;stroke-width:0.0999992;stroke-linecap:square;stroke-linejoin:miter;stroke-dasharray:none;stroke-dashoffset:0;stroke-opacity:1"
       id="rect8877-3-9-68-7-2"
       width="11.500001"
       height="11.499828"
       x="4.2735167"
       y="89.630203" /><rect
       style="fill:#594c62;fill-opacity:1;stroke:none;stroke-width:0.123844;stroke-linecap:square;stroke-linejoin:miter;stroke-dasharray:none;stroke-dashoffset:0;stroke-opacity:1"
       id="rect3722-6-50-7-65"
       width="11.476154"
       height="4.3760886"
       x="4.2867918"
       y="85.202965" /><g
       aria-label="Trnsps"
       id="text444-3-7"
       style="fill:#e8d0f0;font-weight:500;font-size:3.52778px;font-family:'Futura PT';-inkscape-font-specification:'Futura PT Medium';text-align:center;text-anchor:middle;stroke-width:0.499999;stroke-linecap:square"
       transform="translate(-24.750676,-3.147209)"><path
         d="m 31.403621,89.463553 v -0.395112 h -1.516946 v 0.395112 h 0.529167 v 1.957918 h 0.458612 v -1.957918 z"
         style="stroke-width:0.5"
         id="path3675" /><path
         d="m 31.481231,91.421471 h 0.430389 v -0.733779 c 0,-0.105833 0.0035,-0.236361 0.08467,-0.338666 0.08467,-0.105834 0.204612,-0.123473 0.285751,-0.123473 0.08819,0 0.144639,0.01764 0.201083,0.05644 l 0.05645,-0.402167 c -0.04939,-0.01764 -0.109362,-0.03528 -0.183445,-0.03528 -0.102306,0 -0.186972,0.02469 -0.254,0.06703 -0.03175,0.01764 -0.123472,0.08114 -0.1905,0.211667 V 89.893937 H 31.48124 Z"
         style="stroke-width:0.5"
         id="path3677" /><path
         d="m 32.751234,91.421471 h 0.430389 v -0.77964 c 0,-0.08819 0.0035,-0.197555 0.06703,-0.296333 0.0635,-0.09525 0.151694,-0.134056 0.264583,-0.134056 0.04233,0 0.134056,0.0071 0.201084,0.07761 0.07761,0.08114 0.08114,0.215195 0.08114,0.299862 v 0.832556 h 0.430389 v -0.959557 c 0,-0.148166 -0.01411,-0.299861 -0.119945,-0.430389 -0.119944,-0.148166 -0.3175,-0.186972 -0.451556,-0.186972 -0.246944,0 -0.391583,0.134056 -0.472722,0.246945 v -0.197556 h -0.430389 z"
         style="stroke-width:0.5"
         id="path3679" /><path
         d="m 35.679292,90.006831 c -0.194028,-0.148167 -0.373944,-0.162278 -0.486833,-0.162278 -0.123473,0 -0.278695,0.01411 -0.398639,0.109361 -0.08819,0.07408 -0.158751,0.197556 -0.158751,0.345723 0,0.123472 0.04586,0.218722 0.116417,0.292805 0.09172,0.09525 0.218723,0.144639 0.328084,0.183445 l 0.09878,0.03528 c 0.05644,0.02117 0.134055,0.05997 0.134055,0.155222 0,0.105833 -0.09172,0.165806 -0.211667,0.165806 -0.127,0 -0.254,-0.07761 -0.338666,-0.176389 l -0.225778,0.261055 c 0.09525,0.102306 0.275166,0.254001 0.592667,0.254001 0.186972,0 0.335139,-0.04939 0.458611,-0.162278 0.123472,-0.112889 0.169334,-0.250473 0.169334,-0.388056 0,-0.09878 -0.03175,-0.1905 -0.07761,-0.254 -0.08819,-0.119945 -0.268111,-0.179917 -0.388055,-0.218723 l -0.102306,-0.03175 c -0.119945,-0.03881 -0.137583,-0.09878 -0.137583,-0.137583 0,-0.07408 0.0635,-0.123472 0.165805,-0.123472 0.04586,0 0.148167,0.0071 0.250473,0.102305 z"
         style="stroke-width:0.5"
         id="path3681" /><path
         d="m 36.49068,91.223915 c 0.169333,0.229306 0.384528,0.246945 0.490361,0.246945 0.225778,0 0.402167,-0.08819 0.518584,-0.197556 0.08819,-0.08467 0.239889,-0.271639 0.239889,-0.617362 0,-0.303389 -0.116417,-0.493889 -0.229306,-0.606778 -0.172861,-0.172861 -0.388056,-0.204611 -0.522111,-0.204611 -0.282223,0 -0.43039,0.151694 -0.497417,0.246945 v -0.197556 h -0.43039 v 2.33539 h 0.43039 z m 0.381,-0.998362 c 0.102305,0 0.215194,0.03881 0.292806,0.109361 0.08467,0.08114 0.130527,0.208139 0.130527,0.321028 0,0.112889 -0.04233,0.239889 -0.134055,0.324556 -0.05645,0.05292 -0.148167,0.109361 -0.289278,0.109361 -0.134056,0 -0.225778,-0.05292 -0.282223,-0.102305 -0.08467,-0.07408 -0.141111,-0.1905 -0.141111,-0.331612 0,-0.141111 0.04939,-0.246944 0.144639,-0.328083 0.07761,-0.07056 0.165806,-0.102306 0.278695,-0.102306 z"
         style="stroke-width:0.5"
         id="path3683" /><path
         d="m 39.080068,90.006831 c -0.194028,-0.148167 -0.373945,-0.162278 -0.486834,-0.162278 -0.123472,0 -0.278694,0.01411 -0.398639,0.109361 -0.08819,0.07408 -0.15875,0.197556 -0.15875,0.345723 0,0.123472 0.04586,0.218722 0.116417,0.292805 0.09172,0.09525 0.218722,0.144639 0.328083,0.183445 l 0.09878,0.03528 c 0.05644,0.02117 0.134056,0.05997 0.134056,0.155222 0,0.105833 -0.09172,0.165806 -0.211667,0.165806 -0.127,0 -0.254,-0.07761 -0.338667,-0.176389 l -0.225778,0.261055 c 0.09525,0.102306 0.275167,0.254001 0.592667,0.254001 0.186972,0 0.335139,-0.04939 0.458612,-0.162278 0.123472,-0.112889 0.169333,-0.250473 0.169333,-0.388056 0,-0.09878 -0.03175,-0.1905 -0.07761,-0.254 -0.08819,-0.119945 -0.268111,-0.179917 -0.388056,-0.218723 l -0.102306,-0.03175 c -0.119944,-0.03881 -0.137583,-0.09878 -0.137583,-0.137583 0,-0.07408 0.0635,-0.123472 0.165806,-0.123472 0.04586,0 0.148166,0.0071 0.250472,0.102305 z"
         style="stroke-width:0.5"
         id="path3685" /></g><rect
       style="fill:#594c62;display:inline;fill-opacity:1;stroke:none;stroke-width:0.215867;stroke-linecap:square;stroke-linejoin:miter;stroke-dasharray:none;stroke-dashoffset:0;stroke-opacity:1"
       id="rect8877-3-9-68-7-7-2"
       width="24.82489"
       height="24.824518"
       x="37.895161"
       y="12.346861" /><rect
       style="fill:#594c62;display:inline;fill-opacity:1;stroke:none;stroke-width:0.215867;stroke-linecap:square;stroke-linejoin:miter;stroke-dasharray:none;stroke-dashoffset:0;stroke-opacity:1"
       id="rect8877-3-9-68-7-7-2-4"
       width="24.82489"
       height="24.824518"
       x="65.365883"
       y="12.346861" /><rect
       style="fill:#594c62;display:inline;fill-opacity:1;stroke:none;stroke-width:0.215867;stroke-linecap:square;stroke-linejoin:miter;stroke-dasharray:none;stroke-dashoffset:0;stroke-opacity:1"
       id="rect8877-3-9-68-7-7-2-90"
       width="24.82489"
       height="24.824518"
       x="92.836609"
       y="12.346861" /><rect
       style="fill:#594c62;display:inline;fill-opacity:1;stroke:none;stroke-width:0.215867;stroke-linecap:square;stroke-linejoin:miter;stroke-dasharray:none;stroke-dashoffset:0;stroke-opacity:1"
       id="rect8877-3-9-68-7-7-2-6"
       width="24.82489"
       height="24.824518"
       x="120.30733"
       y="12.346861" /><rect
       style="fill:#594c62;display:inline;fill-opacity:1;stroke:none;stroke-width:0.215867;stroke-linecap:square;stroke-linejoin:miter;stroke-dasharray:none;stroke-dashoffset:0;stroke-opacity:1"
       id="rect8877-3-9-68-7-7-2-98"
       width="24.82489"
       height="24.824518"
       x="37.895161"
       y="39.817211" /><rect
       style="fill:#594c62;display:inline;fill-opacity:1;stroke:none;stroke-width:0.215867;stroke-linecap:square;stroke-linejoin:miter;stroke-dasharray:none;stroke-dashoffset:0;stroke-opacity:1"
       id="rect8877-3-9-68-7-7-2-4-8"
       width="24.82489"
       height="24.824518"
       x="65.365883"
       y="39.817211" /><rect
       style="fill:#594c62;display:inline;fill-opacity:1;stroke:none;stroke-width:0.215867;stroke-linecap:square;stroke-linejoin:miter;stroke-dasharray:none;stroke-dashoffset:0;stroke-opacity:1"
       id="rect8877-3-9-68-7-7-2-90-2"
       width="24.82489"
       height="24.824518"
       x="92.836609"
       y="39.817211" /><rect
       style="fill:#594c62;display:inline;fill-opacity:1;stroke:none;stroke-width:0.215867;stroke-linecap:square;stroke-linejoin:miter;stroke-dasharray:none;stroke-dashoffset:0;stroke-opacity:1"
       id="rect8877-3-9-68-7-7-2-6-8"
       width="24.82489"
       height="24.824518"
       x="120.30733"
       y="39.817211" /><rect
       style="fill:#594c62;display:inline;fill-opacity:1;stroke:none;stroke-width:0.215867;stroke-linecap:square;stroke-linejoin:miter;stroke-dasharray:none;stroke-dashoffset:0;stroke-opacity:1"
       id="rect8877-3-9-68-7-7-2-7"
       width="24.82489"
       height="24.824518"
       x="37.895161"
       y="67.287567" /><rect
       style="fill:#594c62;display:inline;fill-opacity:1;stroke:none;stroke-width:0.215867;stroke-linecap:square;stroke-linejoin:miter;stroke-dasharray:none;stroke-dashoffset:0;stroke-opacity:1"
       id="rect8877-3-9-68-7-7-2-4-1"
       width="24.82489"
       height="24.824518"
       x="65.365883"
       y="67.287567" /><rect
       style="fill:#594c62;display:inline;fill-opacity:1;stroke:none;stroke-width:0.215867;stroke-linecap:square;stroke-linejoin:miter;stroke-dasharray:none;stroke-dashoffset:0;stroke-opacity:1"
       id="rect8877-3-9-68-7-7-2-90-3"
       width="24.82489"
       height="24.824518"
       x="92.836609"
       y="67.287567" /><rect
       style="fill:#594c62;display:inline;fill-opacity:1;stroke:none;stroke-width:0.215867;stroke-linecap:square;stroke-linejoin:miter;stroke-dasharray:none;stroke-dashoffset:0;stroke-opacity:1"
       id="rect8877-3-9-68-7-7-2-6-1"
       width="24.82489"
       height="24.824518"
       x="120.30733"
       y="67.287567" /><rect
       style="fill:#594c62;display:inline;fill-opacity:1;stroke:none;stroke-width:0.215867;stroke-linecap:square;stroke-linejoin:miter;stroke-dasharray:none;stroke-dashoffset:0;stroke-opacity:1"
       id="rect8877-3-9-68-7-7-2-66"
       width="24.82489"
       height="24.824518"
       x="37.895161"
       y="94.757919" /><rect
       style="fill:#594c62;display:inline;fill-opacity:1;stroke:none;stroke-width:0.215867;stroke-linecap:square;stroke-linejoin:miter;stroke-dasharray:none;stroke-dashoffset:0;stroke-opacity:1"
       id="rect8877-3-9-68-7-7-2-4-7"
       width="24.82489"
       height="24.824518"
       x="65.365883"
       y="94.757919" /><rect
       style="fill:#594c62;display:inline;fill-opacity:1;stroke:none;stroke-width:0.215867;stroke-linecap:square;stroke-linejoin:miter;stroke-dasharray:none;stroke-dashoffset:0;stroke-opacity:1"
       id="rect8877-3-9-68-7-7-2-90-6"
       width="24.82489"
       height="24.824518"
       x="92.836609"
       y="94.757919" /><rect
       style="fill:#594c62;display:inline;fill-opacity:1;stroke:none;stroke-width:0.215867;stroke-linecap:square;stroke-linejoin:miter;stroke-dasharray:none;stroke-dashoffset:0;stroke-opacity:1"
       id="rect8877-3-9-68-7-7-2-6-7"
       width="24.82489"
       height="24.824518"
       x="120.30733"
       y="94.757919" /></g><g
     inkscape:groupmode="layer"
     id="layer2"
     inkscape:label="components"
     style="fill:#00ff00"><ellipse
       style="fill:#0000ff;fill-opacity:1;stroke-width:0.162095"
       id="out"
       cx="25.883715"
       cy="117.69128"
       inkscape:transform-center-x="-0.1086902"
       inkscape:transform-center-y="-5.434698"
       inkscape:label="out"
       rx="2.5"
       ry="2.4999626" /><ellipse
       style="fill:#0000ff;fill-opacity:1;stroke-width:0.162095"
       id="root"
       cx="10.012534"
       cy="117.63582"
       inkscape:transform-center-x="-0.1086902"
       inkscape:transform-center-y="-5.434698"
       inkscape:label="root"
       rx="2.5"
       ry="2.4999626" /><circle
       style="fill:#00ff00;display:inline;fill-opacity:1;stroke-width:0.162096"
       id="istep"
       cx="25.789642"
       cy="27.757931"
       inkscape:transform-center-x="-0.10869517"
       inkscape:transform-center-y="-5.4347841"
       r="2.5"
       inkscape:label="istep" /><circle
       style="fill:#ff0000;fill-opacity:1;stroke-width:0.162096"
       id="pstep"
       cx="25.789642"
       cy="17.144373"
       inkscape:transform-center-x="-0.10869517"
       inkscape:transform-center-y="-5.4347841"
       r="2.5"
       inkscape:label="pstep" /><circle
       style="fill:#00ff00;display:inline;fill-opacity:1;stroke-width:0.162096"
       id="ipattern"
       cx="25.789642"
       cy="95.290947"
       inkscape:transform-center-x="-0.10869517"
       inkscape:transform-center-y="-5.4347841"
       r="2.5"
       inkscape:label="ipattern" /><circle
       style="fill:#ff0000;fill-opacity:1;stroke-width:0.162096"
       id="ppattern"
       cx="25.789642"
       cy="84.677383"
       inkscape:transform-center-x="-0.10869517"
       inkscape:transform-center-y="-5.4347841"
       r="2.5"
       inkscape:label="ppattern" /><circle
       style="fill:#00ff00;display:inline;fill-opacity:1;stroke-width:0.162096"
       id="ireset"
       cx="25.789639"
       cy="61.524437"
       inkscape:transform-center-x="-0.10869517"
       inkscape:transform-center-y="-5.4347841"
       r="2.5"
       inkscape:label="ireset" /><circle
       style="fill:#ff0000;fill-opacity:1;stroke-width:0.162096"
       id="preset"
       cx="25.789639"
       cy="50.910873"
       inkscape:transform-center-x="-0.10869517"
       inkscape:transform-center-y="-5.4347841"
       r="2.5"
       inkscape:label="preset" /><ellipse
       style="fill:#00ff00;fill-opacity:1;stroke-width:0.162095"
       id="in"
       cx="10.038102"
       cy="16.238792"
       inkscape:transform-center-x="-0.10869659"
       inkscape:transform-center-y="-5.434704"
       inkscape:label="in"
       rx="2.5"
       ry="2.4999626" /><ellipse
       style="fill:#ff0000;fill-opacity:1;stroke-width:0.162095"
       id="steps"
       cx="10.038102"
       cy="38.693745"
       inkscape:transform-center-x="-0.10869659"
       inkscape:transform-center-y="-5.434704"
       inkscape:label="steps"
       rx="2.5"
       ry="2.4999626" /><ellipse
       style="fill:#ff0000;fill-opacity:1;stroke-width:0.162095"
       id="key"
       cx="10.038102"
       cy="61.148693"
       inkscape:transform-center-x="-0.10869659"
       inkscape:transform-center-y="-5.434704"
       inkscape:label="key"
       rx="2.5"
       ry="2.4999626" /><ellipse
       style="fill:#00ff00;fill-opacity:1;stroke-width:0.162095"
       id="transpose"
       cx="10.0381"
       cy="95.046928"
       inkscape:transform-center-x="-0.10869659"
       inkscape:transform-center-y="-5.434704"
       inkscape:label="transpose"
       rx="2.5"
       ry="2.4999626" /><circle
       style="fill:#ff00ff;fill-opacity:1;stroke:none;stroke-width:1.07934;stroke-linecap:square"
       id="l1"
       cx="59.371414"
       cy="33.993019"
       r="0.77859807"
       inkscape:label="l1" /><circle
       style="fill:#ff00ff;fill-opacity:1;stroke:none;stroke-width:1.07934;stroke-linecap:square"
       id="l2"
       cx="86.84214"
       cy="33.993019"
       r="0.77859807"
       inkscape:label="l2" /><circle
       style="fill:#ff00ff;fill-opacity:1;stroke:none;stroke-width:1.07934;stroke-linecap:square"
       id="l3"
       cx="114.31286"
       cy="33.993019"
       r="0.77859807"
       inkscape:label="l3" /><circle
       style="fill:#ff00ff;fill-opacity:1;stroke:none;stroke-width:1.07934;stroke-linecap:square"
       id="l4"
       cx="141.78358"
       cy="33.993019"
       r="0.77859807"
       inkscape:label="l4" /><circle
       style="fill:#ff00ff;fill-opacity:1;stroke:none;stroke-width:1.07934;stroke-linecap:square"
       id="l5"
       cx="59.371414"
       cy="61.463371"
       r="0.77859807"
       inkscape:label="l5" /><circle
       style="fill:#ff00ff;fill-opacity:1;stroke:none;stroke-width:1.07934;stroke-linecap:square"
       id="l6"
       cx="86.84214"
       cy="61.463371"
       r="0.77859807"
       inkscape:label="l6" /><circle
       style="fill:#ff00ff;fill-opacity:1;stroke:none;stroke-width:1.07934;stroke-linecap:square"
       id="l7"
       cx="114.31286"
       cy="61.463371"
       r="0.77859807"
       inkscape:label="l7" /><circle
       style="fill:#ff00ff;fill-opacity:1;stroke:none;stroke-width:1.07934;stroke-linecap:square"
       id="l8"
       cx="141.78358"
       cy="61.463371"
       r="0.77859807"
       inkscape:label="l8" /><circle
       style="fill:#ff00ff;fill-opacity:1;stroke:none;stroke-width:1.07934;stroke-linecap:square"
       id="l9"
       cx="59.371414"
       cy="88.933723"
       r="0.77859807"
       inkscape:label="l9" /><circle
       style="fill:#ff00ff;fill-opacity:1;stroke:none;stroke-width:1.07934;stroke-linecap:square"
       id="l10"
       cx="86.84214"
       cy="88.933723"
       r="0.77859807"
       inkscape:label="l10" /><circle
       style="fill:#ff00ff;fill-opacity:1;stroke:none;stroke-width:1.07934;stroke-linecap:square"
       id="l11"
       cx="114.31286"
       cy="88.933723"
       r="0.77859807"
       inkscape:label="l11" /><circle
       style="fill:#ff00ff;fill-opacity:1;stroke:none;stroke-width:1.07934;stroke-linecap:square"
       id="l12"
       cx="141.78358"
       cy="88.933723"
       r="0.77859807"
       inkscape:label="l12" /><circle
       style="fill:#ff00ff;fill-opacity:1;stroke:none;stroke-width:1.07934;stroke-linecap:square"
       id="l13"
       cx="59.371414"
       cy="116.40408"
       r="0.77859807"
       inkscape:label="l13" /><circle
       style="fill:#ff00ff;fill-opacity:1;stroke:none;stroke-width:1.07934;stroke-linecap:square"
       id="l14"
       cx="86.84214"
       cy="116.40408"
       r="0.77859807"
       inkscape:label="l14" /><circle
       style="fill:#ff00ff;fill-opacity:1;stroke:none;stroke-width:1.07934;stroke-linecap:square"
       id="l15"
       cx="114.31286"
       cy="116.40408"
       r="0.77859807"
       inkscape:label="l15" /><circle
       style="fill:#ff00ff;fill-opacity:1;stroke:none;stroke-width:1.07934;stroke-linecap:square"
       id="l16"
       cx="141.78358"
       cy="116.40408"
       r="0.77859807"
       inkscape:label="l16" /></g></svg>
