<?xml version="1.0" encoding="UTF-8" standalone="no"?>
<!-- Created with Inkscape (http://www.inkscape.org/) -->

<svg
   width="71.120003mm"
   height="128.5mm"
   viewBox="0 0 71.120004 128.5"
   version="1.1"
   id="svg5"
   inkscape:version="1.2.1 (9c6d41e410, 2022-07-14)"
   sodipodi:docname="WeightedQuantizer.svg"
   xml:space="preserve"
   xmlns:inkscape="http://www.inkscape.org/namespaces/inkscape"
   xmlns:sodipodi="http://sodipodi.sourceforge.net/DTD/sodipodi-0.dtd"
   xmlns="http://www.w3.org/2000/svg"
   xmlns:svg="http://www.w3.org/2000/svg"><sodipodi:namedview
     id="namedview7"
     pagecolor="#ffffff"
     bordercolor="#000000"
     borderopacity="0.25"
     inkscape:showpageshadow="2"
     inkscape:pageopacity="0.0"
     inkscape:pagecheckerboard="0"
     inkscape:deskcolor="#d1d1d1"
     inkscape:document-units="mm"
     showgrid="false"
     inkscape:zoom="1.4912879"
     inkscape:cx="152.5527"
     inkscape:cy="179.71044"
     inkscape:window-width="1920"
     inkscape:window-height="1017"
     inkscape:window-x="1912"
     inkscape:window-y="-8"
     inkscape:window-maximized="1"
     inkscape:current-layer="layer4" /><defs
     id="defs2"><rect
       x="30.175261"
       y="16.764032"
       width="4.6939292"
       height="17.434595"
       id="rect1148" /><rect
       x="30.175261"
       y="16.764032"
       width="4.6939292"
       height="17.434595"
       id="rect1148-31" /><rect
       x="30.175261"
       y="16.764032"
       width="4.6939292"
       height="17.434595"
       id="rect1148-3" /><clipPath
       clipPathUnits="userSpaceOnUse"
       id="clipPath1018"><rect
         style="display:inline;fill:#f9f9f9;fill-opacity:0;stroke-width:0.264583"
         id="rect1020"
         width="20.32"
         height="128.5"
         x="0"
         y="0" /></clipPath><clipPath
       clipPathUnits="userSpaceOnUse"
       id="clipPath1086"><rect
         style="fill:#f9f9f9;fill-opacity:0;stroke-width:0.264583"
         id="rect1088"
         width="20.32"
         height="128.5"
         x="0"
         y="-2.7755579e-17" /></clipPath><rect
       x="30.175261"
       y="16.764032"
       width="4.6939292"
       height="17.434595"
       id="rect1148-4" /><clipPath
       clipPathUnits="userSpaceOnUse"
       id="clipPath1018-7"><rect
         style="display:inline;fill:#f9f9f9;fill-opacity:0;stroke-width:0.264583"
         id="rect1020-1"
         width="20.32"
         height="128.5"
         x="0"
         y="0" /></clipPath><clipPath
       clipPathUnits="userSpaceOnUse"
       id="clipPath1086-6"><rect
         style="fill:#f9f9f9;fill-opacity:0;stroke-width:0.264583"
         id="rect1088-3"
         width="20.32"
         height="128.5"
         x="0"
         y="-2.7755579e-17" /></clipPath><rect
       x="30.175261"
       y="16.764032"
       width="4.6939292"
       height="17.434595"
       id="rect1148-2" /><clipPath
       clipPathUnits="userSpaceOnUse"
       id="clipPath1018-8"><rect
         style="display:inline;fill:#f9f9f9;fill-opacity:0;stroke-width:0.264583"
         id="rect1020-0"
         width="20.32"
         height="128.5"
         x="0"
         y="0" /></clipPath><clipPath
       clipPathUnits="userSpaceOnUse"
       id="clipPath1086-7"><rect
         style="fill:#f9f9f9;fill-opacity:0;stroke-width:0.264583"
         id="rect1088-8"
         width="20.32"
         height="128.5"
         x="0"
         y="-2.7755579e-17" /></clipPath><rect
       x="30.175261"
       y="16.764032"
       width="4.6939292"
       height="17.434595"
       id="rect1148-38" /><rect
       x="30.175261"
       y="16.764032"
       width="4.6939292"
       height="17.434595"
       id="rect1148-3-8" /><clipPath
       clipPathUnits="userSpaceOnUse"
       id="clipPath1018-1"><rect
         style="display:inline;fill:#f9f9f9;fill-opacity:0;stroke-width:0.264583"
         id="rect1020-2"
         width="20.32"
         height="128.5"
         x="0"
         y="0" /></clipPath><clipPath
       clipPathUnits="userSpaceOnUse"
       id="clipPath1086-9"><rect
         style="fill:#f9f9f9;fill-opacity:0;stroke-width:0.264583"
         id="rect1088-1"
         width="20.32"
         height="128.5"
         x="0"
         y="-2.7755579e-17" /></clipPath><rect
       x="30.175261"
       y="16.764032"
       width="4.6939292"
       height="17.434595"
       id="rect1148-4-0" /><clipPath
       clipPathUnits="userSpaceOnUse"
       id="clipPath1018-7-3"><rect
         style="display:inline;fill:#f9f9f9;fill-opacity:0;stroke-width:0.264583"
         id="rect1020-1-3"
         width="20.32"
         height="128.5"
         x="0"
         y="0" /></clipPath><clipPath
       clipPathUnits="userSpaceOnUse"
       id="clipPath1086-6-7"><rect
         style="fill:#f9f9f9;fill-opacity:0;stroke-width:0.264583"
         id="rect1088-3-7"
         width="20.32"
         height="128.5"
         x="0"
         y="-2.7755579e-17" /></clipPath><rect
       x="30.175261"
       y="16.764032"
       width="4.6939292"
       height="17.434595"
       id="rect1148-2-3" /><clipPath
       clipPathUnits="userSpaceOnUse"
       id="clipPath1018-8-1"><rect
         style="display:inline;fill:#f9f9f9;fill-opacity:0;stroke-width:0.264583"
         id="rect1020-0-7"
         width="20.32"
         height="128.5"
         x="0"
         y="0" /></clipPath><clipPath
       clipPathUnits="userSpaceOnUse"
       id="clipPath1086-7-5"><rect
         style="fill:#f9f9f9;fill-opacity:0;stroke-width:0.264583"
         id="rect1088-8-7"
         width="20.32"
         height="128.5"
         x="0"
         y="-2.7755579e-17" /></clipPath><rect
       x="30.175261"
       y="16.764032"
       width="4.6939292"
       height="17.434595"
       id="rect1148-9" /><clipPath
       clipPathUnits="userSpaceOnUse"
       id="clipPath1018-70"><rect
         style="display:inline;fill:#f9f9f9;fill-opacity:0;stroke-width:0.264583"
         id="rect1020-3"
         width="20.32"
         height="128.5"
         x="0"
         y="0" /></clipPath><clipPath
       clipPathUnits="userSpaceOnUse"
       id="clipPath1086-8"><rect
         style="fill:#f9f9f9;fill-opacity:0;stroke-width:0.264583"
         id="rect1088-5"
         width="20.32"
         height="128.5"
         x="0"
         y="-2.7755579e-17" /></clipPath></defs><g
     inkscape:label="Background"
     inkscape:groupmode="layer"
     id="layer1"><rect
       style="fill:#847b89;stroke-width:0.5;stroke-linecap:square;fill-opacity:1;stroke:#220826;stroke-opacity:1;stroke-dasharray:none"
       id="rect2098"
       width="71.120003"
       height="128.5"
       x="0"
       y="0" /></g><g
     inkscape:groupmode="layer"
     id="layer4"
     inkscape:label="Decals"><rect
       style="display:inline;fill:#d2d2d2;fill-opacity:1;stroke:#594c62;stroke-width:0.0999992;stroke-linecap:square;stroke-linejoin:miter;stroke-dasharray:none;stroke-dashoffset:0;stroke-opacity:1"
       id="rect8877-3-9-68-7-78-4"
       width="11.500001"
       height="11.499828"
       x="4.717742"
       y="19.07111" /><rect
       style="fill:#594c62;fill-opacity:1;stroke:none;stroke-width:0.123844;stroke-linecap:square;stroke-linejoin:miter;stroke-dasharray:none;stroke-dashoffset:0;stroke-opacity:1"
       id="rect3722-6-50-7-9-0"
       width="11.476154"
       height="4.3760886"
       x="4.731019"
       y="14.643871" /><rect
       style="display:inline;fill:#220826;fill-opacity:1;stroke:#f7dfff;stroke-width:0.0999992;stroke-linecap:square;stroke-linejoin:miter;stroke-dasharray:none;stroke-dashoffset:0;stroke-opacity:1"
       id="rect8877-3-9-0"
       width="11.500001"
       height="11.499828"
       x="4.7179999"
       y="105.62505" /><rect
       style="fill:#efd4f9;fill-opacity:1;stroke:#e7b1ff;stroke-width:0.123844;stroke-linecap:square;stroke-linejoin:miter;stroke-dasharray:none;stroke-dashoffset:0;stroke-opacity:1"
       id="rect3722-6-4"
       width="11.476154"
       height="4.3760886"
       x="4.7312751"
       y="101.19779" /><rect
       style="fill:#594c62;fill-opacity:1;stroke:none;stroke-width:0.176102;stroke-linecap:square;stroke-linejoin:miter;stroke-dasharray:none;stroke-dashoffset:0;stroke-opacity:1"
       id="rect3722-6"
       width="23.204088"
       height="4.3761539"
       x="17.989494"
       y="23.692617" /><rect
       style="display:inline;fill:#d2d2d2;fill-opacity:1;stroke:#594c62;stroke-width:0.141347;stroke-linecap:square;stroke-linejoin:miter;stroke-dasharray:none;stroke-dashoffset:0;stroke-opacity:1"
       id="rect8877-3-9"
       width="11.458653"
       height="23.058653"
       x="28.116764"
       y="-41.123615"
       transform="rotate(90)" /><rect
       style="fill:#594c62;fill-opacity:1;stroke:none;stroke-width:0.176102;stroke-linecap:square;stroke-linejoin:miter;stroke-dasharray:none;stroke-dashoffset:0;stroke-opacity:1"
       id="rect3722-6-9"
       width="23.204088"
       height="4.3761539"
       x="17.989494"
       y="40.991005" /><rect
       style="display:inline;fill:#d2d2d2;fill-opacity:1;stroke:#594c62;stroke-width:0.141347;stroke-linecap:square;stroke-linejoin:miter;stroke-dasharray:none;stroke-dashoffset:0;stroke-opacity:1"
       id="rect8877-3-9-8"
       width="11.458653"
       height="23.058653"
       x="45.415154"
       y="-41.123611"
       transform="rotate(90)" /><rect
       style="fill:#594c62;fill-opacity:1;stroke:none;stroke-width:0.176102;stroke-linecap:square;stroke-linejoin:miter;stroke-dasharray:none;stroke-dashoffset:0;stroke-opacity:1"
       id="rect3722-6-6"
       width="23.204088"
       height="4.3761539"
       x="17.989494"
       y="58.289387" /><rect
       style="display:inline;fill:#d2d2d2;fill-opacity:1;stroke:#594c62;stroke-width:0.141347;stroke-linecap:square;stroke-linejoin:miter;stroke-dasharray:none;stroke-dashoffset:0;stroke-opacity:1"
       id="rect8877-3-9-3"
       width="11.458653"
       height="23.058653"
       x="62.713535"
       y="-41.123615"
       transform="rotate(90)" /><rect
       style="fill:#594c62;fill-opacity:1;stroke:none;stroke-width:0.176102;stroke-linecap:square;stroke-linejoin:miter;stroke-dasharray:none;stroke-dashoffset:0;stroke-opacity:1"
       id="rect3722-6-22"
       width="23.204088"
       height="4.3761539"
       x="17.989494"
       y="75.587776" /><rect
       style="display:inline;fill:#d2d2d2;fill-opacity:1;stroke:#594c62;stroke-width:0.141347;stroke-linecap:square;stroke-linejoin:miter;stroke-dasharray:none;stroke-dashoffset:0;stroke-opacity:1"
       id="rect8877-3-9-5"
       width="11.458653"
       height="23.058653"
       x="80.011925"
       y="-41.123615"
       transform="rotate(90)" /><rect
       style="fill:#594c62;fill-opacity:1;stroke:none;stroke-width:0.176102;stroke-linecap:square;stroke-linejoin:miter;stroke-dasharray:none;stroke-dashoffset:0;stroke-opacity:1"
       id="rect3722-6-0"
       width="23.204088"
       height="4.3761539"
       x="17.989494"
       y="92.886162" /><rect
       style="display:inline;fill:#d2d2d2;fill-opacity:1;stroke:#594c62;stroke-width:0.141347;stroke-linecap:square;stroke-linejoin:miter;stroke-dasharray:none;stroke-dashoffset:0;stroke-opacity:1"
       id="rect8877-3-9-82"
       width="11.458653"
       height="23.058653"
       x="97.31031"
       y="-41.123611"
       transform="rotate(90)" /><rect
       style="fill:#594c62;fill-opacity:1;stroke:none;stroke-width:0.176102;stroke-linecap:square;stroke-linejoin:miter;stroke-dasharray:none;stroke-dashoffset:0;stroke-opacity:1"
       id="rect3722-6-3"
       width="23.204088"
       height="4.3761539"
       x="17.989494"
       y="110.18454" /><rect
       style="display:inline;fill:#d2d2d2;fill-opacity:1;stroke:#594c62;stroke-width:0.141347;stroke-linecap:square;stroke-linejoin:miter;stroke-dasharray:none;stroke-dashoffset:0;stroke-opacity:1"
       id="rect8877-3-9-25"
       width="11.458653"
       height="23.058653"
       x="114.60869"
       y="-41.123611"
       transform="rotate(90)" /><rect
       style="fill:#594c62;fill-opacity:1;stroke:none;stroke-width:0.176102;stroke-linecap:square;stroke-linejoin:miter;stroke-dasharray:none;stroke-dashoffset:0;stroke-opacity:1"
       id="rect3722-6-2"
       width="23.204088"
       height="4.3761539"
       x="17.989494"
       y="6.3942304" /><rect
       style="display:inline;fill:#d2d2d2;fill-opacity:1;stroke:#594c62;stroke-width:0.141347;stroke-linecap:square;stroke-linejoin:miter;stroke-dasharray:none;stroke-dashoffset:0;stroke-opacity:1"
       id="rect8877-3-9-2"
       width="11.458653"
       height="23.058653"
       x="10.818377"
       y="-41.123611"
       transform="rotate(90)" /><rect
       style="fill:#594c62;fill-opacity:1;stroke:none;stroke-width:0.176102;stroke-linecap:square;stroke-linejoin:miter;stroke-dasharray:none;stroke-dashoffset:0;stroke-opacity:1"
       id="rect3722-6-02"
       width="23.204088"
       height="4.3761539"
       x="42.865345"
       y="31.942619" /><rect
       style="display:inline;fill:#d2d2d2;fill-opacity:1;stroke:#594c62;stroke-width:0.141347;stroke-linecap:square;stroke-linejoin:miter;stroke-dasharray:none;stroke-dashoffset:0;stroke-opacity:1"
       id="rect8877-3-9-6"
       width="11.458653"
       height="23.058653"
       x="36.366768"
       y="-65.999466"
       transform="rotate(90)" /><rect
       style="fill:#594c62;fill-opacity:1;stroke:none;stroke-width:0.176102;stroke-linecap:square;stroke-linejoin:miter;stroke-dasharray:none;stroke-dashoffset:0;stroke-opacity:1"
       id="rect3722-6-6-1"
       width="23.204088"
       height="4.3761539"
       x="42.865345"
       y="66.539391" /><rect
       style="display:inline;fill:#d2d2d2;fill-opacity:1;stroke:#594c62;stroke-width:0.141347;stroke-linecap:square;stroke-linejoin:miter;stroke-dasharray:none;stroke-dashoffset:0;stroke-opacity:1"
       id="rect8877-3-9-3-8"
       width="11.458653"
       height="23.058653"
       x="70.963539"
       y="-65.999466"
       transform="rotate(90)" /><rect
       style="fill:#594c62;fill-opacity:1;stroke:none;stroke-width:0.176102;stroke-linecap:square;stroke-linejoin:miter;stroke-dasharray:none;stroke-dashoffset:0;stroke-opacity:1"
       id="rect3722-6-22-8"
       width="23.204088"
       height="4.3761539"
       x="42.865345"
       y="83.837776" /><rect
       style="display:inline;fill:#d2d2d2;fill-opacity:1;stroke:#594c62;stroke-width:0.141347;stroke-linecap:square;stroke-linejoin:miter;stroke-dasharray:none;stroke-dashoffset:0;stroke-opacity:1"
       id="rect8877-3-9-5-5"
       width="11.458653"
       height="23.058653"
       x="88.261925"
       y="-65.999466"
       transform="rotate(90)" /><rect
       style="fill:#594c62;fill-opacity:1;stroke:none;stroke-width:0.176102;stroke-linecap:square;stroke-linejoin:miter;stroke-dasharray:none;stroke-dashoffset:0;stroke-opacity:1"
       id="rect3722-6-0-2"
       width="23.204088"
       height="4.3761539"
       x="42.865345"
       y="101.13616" /><rect
       style="display:inline;fill:#d2d2d2;fill-opacity:1;stroke:#594c62;stroke-width:0.141347;stroke-linecap:square;stroke-linejoin:miter;stroke-dasharray:none;stroke-dashoffset:0;stroke-opacity:1"
       id="rect8877-3-9-82-6"
       width="11.458653"
       height="23.058653"
       x="105.56031"
       y="-65.999466"
       transform="rotate(90)" /><rect
       style="fill:#594c62;fill-opacity:1;stroke:none;stroke-width:0.176102;stroke-linecap:square;stroke-linejoin:miter;stroke-dasharray:none;stroke-dashoffset:0;stroke-opacity:1"
       id="rect3722-6-2-3"
       width="23.204088"
       height="4.3761539"
       x="42.865345"
       y="14.644235" /><rect
       style="display:inline;fill:#d2d2d2;fill-opacity:1;stroke:#594c62;stroke-width:0.141347;stroke-linecap:square;stroke-linejoin:miter;stroke-dasharray:none;stroke-dashoffset:0;stroke-opacity:1"
       id="rect8877-3-9-2-8"
       width="11.458653"
       height="23.058653"
       x="19.068382"
       y="-65.999466"
       transform="rotate(90)" /><g
       aria-label="∅"
       id="text4142"
       style="font-size:3.52778px;font-family:'Futura PT';-inkscape-font-specification:'Futura PT';text-align:center;text-anchor:middle;fill:#f7dfff;stroke-width:0;stroke-linecap:square"
       transform="translate(0.10977262,-0.04704541)"><path
         d="m 68.095424,128.06491 0.27044,-0.26872 q -0.334174,-0.38585 -0.334174,-0.88711 0,-0.55466 0.391019,-0.94568 0.392741,-0.39274 0.947401,-0.39274 0.492649,0 0.885391,0.33417 l 0.27044,-0.26872 0.118856,0.11886 -0.268718,0.27044 q 0.334174,0.38585 0.334174,0.88539 0,0.55466 -0.392741,0.9474 -0.392741,0.39102 -0.945679,0.39102 -0.501262,0 -0.88539,-0.33245 l -0.27044,0.26872 z m 0.391019,-0.3893 1.648479,-1.6502 q -0.341065,-0.28422 -0.763089,-0.28422 -0.485759,0 -0.828546,0.34279 -0.341065,0.34106 -0.341065,0.8251 0,0.43408 0.284221,0.76653 z m 0.118856,0.11886 q 0.330729,0.28422 0.766534,0.28422 0.484036,0 0.825101,-0.34107 0.342787,-0.34278 0.342787,-0.82682 0,-0.42891 -0.28422,-0.76481 z"
         id="path4146" /></g><g
       aria-label="In"
       id="text2882"
       style="font-weight:500;font-size:4.23333px;font-family:'Futura PT';-inkscape-font-specification:'Futura PT Medium';text-align:center;text-anchor:middle;fill:#f7dfff;stroke-width:0;stroke-linecap:square"><path
         d="m 9.0699793,15.429987 v 2.823631 h 0.5503329 v -2.823631 z"
         id="path4149" /><path
         d="m 10.187577,18.253618 h 0.516466 v -0.935566 c 0,-0.105833 0.0042,-0.237066 0.08043,-0.355599 0.0762,-0.1143 0.182033,-0.160867 0.3175,-0.160867 0.0508,0 0.160866,0.0085 0.2413,0.09313 0.09313,0.09737 0.09737,0.258233 0.09737,0.359833 v 0.999066 h 0.516466 v -1.151465 c 0,-0.1778 -0.01693,-0.359833 -0.143933,-0.516467 -0.143933,-0.1778 -0.380999,-0.224366 -0.541866,-0.224366 -0.296333,0 -0.4699,0.160866 -0.567266,0.296333 v -0.237067 h -0.516466 z"
         id="path4151" /></g><g
       aria-label="C#/D♭"
       id="text3772"
       style="font-weight:500;font-size:4.23333px;font-family:'Futura PT';-inkscape-font-specification:'Futura PT Medium';text-align:center;text-anchor:middle;fill:#f7dfff;stroke-width:0;stroke-linecap:square"><path
         d="m 50.369159,17.320371 c -0.1651,0.194733 -0.397933,0.309033 -0.6604,0.309033 -0.474133,0 -0.956732,-0.338666 -0.956732,-0.965199 0,-0.520699 0.368299,-0.986366 0.935565,-0.986366 0.1016,0 0.423333,0.02117 0.681567,0.3175 v -0.643466 c -0.258234,-0.1397 -0.4953,-0.173567 -0.694267,-0.173567 -0.402166,0 -0.753532,0.105834 -1.037165,0.372533 -0.2413,0.224367 -0.452967,0.592667 -0.452967,1.1049 0,0.414866 0.127,0.766232 0.452967,1.079499 0.237066,0.224366 0.537633,0.393699 1.032932,0.393699 0.3048,0 0.529166,-0.0762 0.6985,-0.1651 z"
         id="path4154" /><path
         d="m 52.333424,18.065437 0.127,-0.787399 h 0.431799 l 0.07197,-0.440266 h -0.4318 l 0.06773,-0.427567 h 0.431799 l 0.07197,-0.440266 h -0.4318 l 0.118533,-0.728133 h -0.516466 l -0.118533,0.728133 h -0.397933 l 0.118533,-0.728133 h -0.516466 l -0.118533,0.728133 h -0.4318 l -0.07197,0.440266 h 0.431799 l -0.06773,0.427567 h -0.4318 l -0.07197,0.440266 h 0.431799 l -0.127,0.787399 h 0.516467 l 0.127,-0.787399 h 0.397933 l -0.127,0.787399 z m -0.3175,-1.227665 h -0.397933 l 0.06773,-0.427567 h 0.397933 z"
         id="path4156" /><path
         d="m 53.010758,18.785103 0.372533,0.169334 2.222498,-3.932764 -0.372533,-0.169333 z"
         id="path4158" /><path
         d="m 56.181522,15.241806 v 2.823631 h 0.728132 c 0.3937,0 0.702733,-0.0381 1.032933,-0.270933 0.372533,-0.262466 0.567266,-0.668866 0.567266,-1.138765 0,-0.4699 -0.198966,-0.880533 -0.541866,-1.138766 -0.313267,-0.232833 -0.656166,-0.275167 -1.049866,-0.275167 z m 0.550333,0.474133 h 0.169333 c 0.186266,0 0.465666,0.01693 0.694266,0.186267 0.224366,0.169333 0.347133,0.457199 0.347133,0.753533 0,0.300566 -0.127,0.588432 -0.351367,0.749299 -0.245533,0.1778 -0.550332,0.186266 -0.690032,0.186266 h -0.169333 z"
         id="path4160" /><path
         d="m 59.512607,18.065437 v -3.059242 h 0.128157 v 1.971971 q 0.338997,-0.494026 0.665592,-0.494026 0.192236,0 0.330729,0.144694 0.138493,0.142627 0.138493,0.343131 0,0.396875 -0.341064,0.692464 -0.338997,0.293521 -0.921907,0.401008 z m 0.128157,-0.146761 q 0.82889,-0.212906 0.82889,-0.824755 0,-0.374137 -0.289388,-0.374137 -0.239779,0 -0.539502,0.467155 z"
         id="path4162" /></g><g
       aria-label="D#/E♭"
       id="text3772-2"
       style="font-weight:500;font-size:4.23333px;font-family:'Futura PT';-inkscape-font-specification:'Futura PT Medium';text-align:center;text-anchor:middle;fill:#f7dfff;stroke-width:0;stroke-linecap:square"><path
         d="m 48.327696,32.52475 v 2.823631 h 0.728133 c 0.393699,0 0.702732,-0.0381 1.032932,-0.270933 0.372533,-0.262467 0.567266,-0.668866 0.567266,-1.138766 0,-0.469899 -0.198966,-0.880532 -0.541866,-1.138765 -0.313266,-0.232834 -0.656166,-0.275167 -1.049866,-0.275167 z m 0.550333,0.474133 h 0.169333 c 0.186267,0 0.465666,0.01693 0.694266,0.186267 0.224367,0.169333 0.347133,0.457199 0.347133,0.753532 0,0.300567 -0.127,0.588433 -0.351366,0.7493 -0.245533,0.177799 -0.550333,0.186266 -0.690033,0.186266 h -0.169333 z"
         id="path4165" /><path
         d="m 52.620293,35.348381 0.127,-0.787399 h 0.431799 l 0.07197,-0.440267 h -0.4318 l 0.06773,-0.427566 h 0.431799 l 0.07197,-0.440266 h -0.4318 l 0.118533,-0.728133 h -0.516466 l -0.118533,0.728133 H 52.04456 l 0.118533,-0.728133 h -0.516466 l -0.118533,0.728133 h -0.4318 l -0.07197,0.440266 h 0.4318 l -0.06773,0.427566 h -0.4318 l -0.07197,0.440267 h 0.431799 l -0.127,0.787399 h 0.516467 l 0.126999,-0.787399 h 0.397933 l -0.126999,0.787399 z m -0.3175,-1.227666 H 51.90486 l 0.06773,-0.427566 h 0.397933 z"
         id="path4167" /><path
         d="m 53.297627,36.068047 0.372533,0.169333 2.222498,-3.932763 -0.372533,-0.169333 z"
         id="path4169" /><path
         d="m 58.034723,32.52475 h -1.566332 v 2.823631 h 1.566332 v -0.474133 h -1.016 v -0.770466 h 0.973666 v -0.474133 h -0.973666 v -0.630766 h 1.016 z"
         id="path4171" /><path
         d="m 59.062877,35.348381 v -3.059242 h 0.128157 v 1.971971 q 0.338997,-0.494026 0.665592,-0.494026 0.192236,0 0.330729,0.144693 0.138493,0.142627 0.138493,0.343132 0,0.396874 -0.341064,0.692463 -0.338997,0.293522 -0.921907,0.401009 z m 0.128157,-0.146761 q 0.82889,-0.212907 0.82889,-0.824755 0,-0.374137 -0.289388,-0.374137 -0.239779,0 -0.539502,0.467154 z"
         id="path4173" /></g><g
       aria-label="F#/G♭"
       id="text3772-29"
       style="font-weight:500;font-size:4.23333px;font-family:'Futura PT';-inkscape-font-specification:'Futura PT Medium';text-align:center;text-anchor:middle;fill:#f7dfff;stroke-width:0;stroke-linecap:square"><path
         d="M 49.753559,67.15017 H 48.25496 v 2.823631 h 0.550333 v -1.244599 h 0.888999 v -0.474133 h -0.888999 v -0.630766 h 0.948266 z"
         id="path4176" /><path
         d="m 51.683956,69.973801 0.126999,-0.7874 h 0.4318 l 0.07197,-0.440266 h -0.4318 l 0.06773,-0.427566 h 0.4318 l 0.07197,-0.440267 h -0.4318 l 0.118533,-0.728132 h -0.516466 l -0.118533,0.728132 H 51.108223 L 51.226756,67.15017 H 50.71029 l -0.118534,0.728132 h -0.431799 l -0.07197,0.440267 h 0.4318 l -0.06773,0.427566 h -0.4318 l -0.07197,0.440266 h 0.4318 l -0.127,0.7874 h 0.516466 l 0.127,-0.7874 h 0.397933 l -0.127,0.7874 z m -0.3175,-1.227666 h -0.397933 l 0.06773,-0.427566 h 0.397933 z"
         id="path4178" /><path
         d="m 52.36129,70.693467 0.372533,0.169333 2.222498,-3.932763 -0.372533,-0.169334 z"
         id="path4180" /><path
         d="m 56.962919,68.936635 h 0.728133 c -0.04657,0.2032 -0.156634,0.347133 -0.2667,0.4318 -0.156633,0.118533 -0.3683,0.169333 -0.554566,0.169333 -0.300567,0 -0.499533,-0.118534 -0.626533,-0.2413 -0.118533,-0.1143 -0.2794,-0.338666 -0.2794,-0.715433 0,-0.3175 0.122767,-0.588433 0.283633,-0.745066 0.173567,-0.169333 0.427566,-0.249766 0.651933,-0.249766 0.131233,0 0.2794,0.02963 0.397933,0.0889 0.0889,0.04657 0.232833,0.143933 0.3302,0.334433 l 0.478366,-0.258233 c -0.148167,-0.254 -0.347133,-0.423333 -0.529166,-0.516467 -0.2159,-0.1143 -0.440267,-0.148166 -0.651933,-0.148166 -0.5461,0 -0.901699,0.2159 -1.113366,0.431799 -0.169333,0.169334 -0.414866,0.503767 -0.414866,1.049866 0,0.635 0.321733,0.990599 0.4191,1.087966 0.309033,0.309033 0.673099,0.381 1.024465,0.381 0.351367,0 0.7112,-0.08043 1.003299,-0.372533 0.389467,-0.385233 0.414867,-0.9779 0.414867,-1.168399 v -0.03387 h -1.295399 z"
         id="path4182" /><path
         d="m 59.261071,69.973801 v -3.059243 h 0.128158 v 1.971971 q 0.338997,-0.494026 0.665592,-0.494026 0.192236,0 0.330728,0.144694 0.138493,0.142627 0.138493,0.343131 0,0.396875 -0.341064,0.692464 -0.338997,0.293522 -0.921907,0.401009 z m 0.128158,-0.146761 q 0.828889,-0.212907 0.828889,-0.824755 0,-0.374138 -0.289388,-0.374138 -0.239778,0 -0.539501,0.467155 z"
         id="path4184" /></g><g
       aria-label="G#/A♭"
       id="text3772-9"
       style="font-weight:500;font-size:4.23333px;font-family:'Futura PT';-inkscape-font-specification:'Futura PT Medium';text-align:center;text-anchor:middle;fill:#f7dfff;stroke-width:0;stroke-linecap:square"><path
         d="m 49.124336,86.18662 h 0.728133 c -0.04657,0.203199 -0.156634,0.347133 -0.2667,0.431799 -0.156633,0.118533 -0.3683,0.169333 -0.554566,0.169333 -0.300567,0 -0.499533,-0.118533 -0.626533,-0.241299 -0.118533,-0.1143 -0.2794,-0.338667 -0.2794,-0.715433 0,-0.3175 0.122767,-0.588433 0.283633,-0.745066 0.173567,-0.169333 0.427566,-0.249767 0.651933,-0.249767 0.131233,0 0.2794,0.02963 0.397933,0.0889 0.0889,0.04657 0.232833,0.143934 0.3302,0.334433 l 0.478366,-0.258233 c -0.148167,-0.254 -0.347133,-0.423333 -0.529166,-0.516466 -0.2159,-0.1143 -0.440267,-0.148167 -0.651933,-0.148167 -0.5461,0 -0.901699,0.2159 -1.113366,0.4318 -0.169333,0.169333 -0.414866,0.503766 -0.414866,1.049866 0,0.634999 0.321733,0.990599 0.419099,1.087966 0.309034,0.309033 0.6731,0.380999 1.024466,0.380999 0.351367,0 0.7112,-0.08043 1.003299,-0.372533 0.389467,-0.385233 0.414867,-0.977899 0.414867,-1.168399 v -0.03387 h -1.295399 z"
         id="path4187" /><path
         d="m 52.383999,87.223785 0.127,-0.787399 h 0.4318 l 0.07197,-0.440266 h -0.4318 l 0.06773,-0.427567 h 0.4318 l 0.07197,-0.440266 h -0.4318 l 0.118533,-0.728133 H 52.324733 L 52.2062,85.128287 H 51.808267 L 51.9268,84.400154 H 51.410334 L 51.2918,85.128287 h -0.431799 l -0.07197,0.440266 h 0.4318 l -0.06773,0.427567 h -0.4318 l -0.07197,0.440266 h 0.4318 l -0.127,0.787399 H 51.4696 l 0.127,-0.787399 h 0.397933 l -0.127,0.787399 z M 52.0665,85.99612 h -0.397933 l 0.06773,-0.427567 h 0.397933 z"
         id="path4189" /><path
         d="m 53.061334,87.943451 0.372533,0.169334 2.222498,-3.932764 -0.372533,-0.169333 z"
         id="path4191" /><path
         d="m 58.154029,87.223785 h 0.592666 l -1.181099,-2.823631 h -0.4318 l -1.214965,2.823631 h 0.596899 l 0.249767,-0.592666 h 1.138765 z m -1.214966,-1.041399 0.402166,-1.015999 0.402167,1.015999 z"
         id="path4193" /><path
         d="m 59.571653,87.223785 v -3.059242 h 0.128157 v 1.971971 q 0.338997,-0.494026 0.665592,-0.494026 0.192236,0 0.330729,0.144694 0.138493,0.142627 0.138493,0.343131 0,0.396875 -0.341064,0.692464 -0.338997,0.293522 -0.921907,0.401008 z m 0.128157,-0.146761 q 0.82889,-0.212906 0.82889,-0.824755 0,-0.374137 -0.289388,-0.374137 -0.239779,0 -0.539502,0.467155 z"
         id="path4195" /></g><g
       aria-label="A#/B♭"
       id="text3772-7"
       style="font-weight:500;font-size:4.23333px;font-family:'Futura PT';-inkscape-font-specification:'Futura PT Medium';text-align:center;text-anchor:middle;fill:#f7dfff;stroke-width:0;stroke-linecap:square"><path
         d="m 50.402397,104.59922 h 0.592667 l -1.181099,-2.82363 h -0.4318 l -1.214966,2.82363 h 0.5969 l 0.249766,-0.59267 h 1.138766 z m -1.214965,-1.0414 0.402166,-1.016 0.402166,1.016 z"
         id="path4198" /><path
         d="m 52.781533,104.59922 0.127,-0.7874 h 0.431799 l 0.07197,-0.44027 h -0.4318 l 0.06773,-0.42756 h 0.4318 l 0.07197,-0.44027 h -0.4318 l 0.118533,-0.72813 h -0.516466 l -0.118533,0.72813 H 52.2058 l 0.118533,-0.72813 h -0.516466 l -0.118533,0.72813 h -0.4318 l -0.07197,0.44027 h 0.4318 l -0.06773,0.42756 h -0.4318 l -0.07197,0.44027 h 0.4318 l -0.127,0.7874 h 0.516466 l 0.127,-0.7874 h 0.397933 l -0.127,0.7874 z m -0.3175,-1.22767 H 52.0661 l 0.06773,-0.42756 h 0.397933 z"
         id="path4200" /><path
         d="m 53.458867,105.31889 0.372533,0.16933 2.222498,-3.93276 -0.372533,-0.16934 z"
         id="path4202" /><path
         d="m 56.62963,101.77559 v 2.82363 h 0.948266 c 0.245533,0 0.503766,-0.0423 0.715433,-0.2286 0.194733,-0.17357 0.241299,-0.4064 0.241299,-0.5715 0,-0.14817 -0.03387,-0.3683 -0.203199,-0.52917 -0.07197,-0.0677 -0.182034,-0.14816 -0.3683,-0.1778 0.0762,-0.0423 0.3175,-0.19049 0.3175,-0.55456 0,-0.23707 -0.09737,-0.4572 -0.262467,-0.5842 -0.2286,-0.1778 -0.533399,-0.1778 -0.690033,-0.1778 z m 0.550333,0.44873 h 0.160866 c 0.224367,0 0.423333,0.0974 0.423333,0.3556 0,0.35984 -0.342899,0.3683 -0.427566,0.3683 h -0.156633 z m 0,1.14723 h 0.2032 c 0.118533,0 0.258233,0 0.376766,0.055 0.1778,0.0804 0.207433,0.23283 0.207433,0.32173 0,0.11007 -0.0381,0.24553 -0.173566,0.32597 -0.122767,0.072 -0.275167,0.0762 -0.376767,0.0762 h -0.237066 z"
         id="path4204" /><path
         d="m 59.537381,104.59922 v -3.05924 h 0.128158 v 1.97197 q 0.338997,-0.49403 0.665591,-0.49403 0.192237,0 0.330729,0.1447 0.138493,0.14262 0.138493,0.34313 0,0.39687 -0.341064,0.69246 -0.338997,0.29352 -0.921907,0.40101 z m 0.128158,-0.14676 q 0.828889,-0.21291 0.828889,-0.82476 0,-0.37413 -0.289388,-0.37413 -0.239778,0 -0.539501,0.46715 z"
         id="path4206" /></g><g
       aria-label="C"
       id="text3768"
       style="font-weight:500;font-size:4.23333px;font-family:'Futura PT';-inkscape-font-specification:'Futura PT Medium';text-align:center;text-anchor:middle;fill:#f7dfff;stroke-width:0;stroke-linecap:square"><path
         d="m 30.323082,9.2285611 c -0.1651,0.1947331 -0.397933,0.309033 -0.6604,0.309033 -0.474133,0 -0.956732,-0.3386664 -0.956732,-0.9651992 0,-0.5206995 0.368299,-0.9863658 0.935565,-0.9863658 0.1016,0 0.423333,0.021167 0.681567,0.3174997 V 7.2600627 c -0.258234,-0.1396999 -0.4953,-0.1735665 -0.694267,-0.1735665 -0.402166,0 -0.753532,0.1058332 -1.037165,0.372533 -0.2413,0.2243665 -0.452967,0.5926662 -0.452967,1.1048991 0,0.4148663 0.127,0.7662327 0.452967,1.0794991 0.237066,0.2243664 0.537633,0.3936996 1.032932,0.3936996 0.3048,0 0.529166,-0.0762 0.6985,-0.1650998 z"
         id="path4209" /></g><g
       aria-label="D"
       id="text3906"
       style="font-weight:500;font-size:4.23333px;font-family:'Futura PT';-inkscape-font-specification:'Futura PT Medium';text-align:center;text-anchor:middle;fill:#f7dfff;stroke-width:0;stroke-linecap:square"><path
         d="m 28.448085,24.399979 v 2.823631 h 0.728133 c 0.393699,0 0.702732,-0.0381 1.032932,-0.270933 0.372533,-0.262467 0.567266,-0.668866 0.567266,-1.138766 0,-0.469899 -0.198966,-0.880532 -0.541866,-1.138766 -0.313266,-0.232833 -0.656166,-0.275166 -1.049866,-0.275166 z m 0.550333,0.474133 h 0.169333 c 0.186267,0 0.465666,0.01693 0.694266,0.186266 0.224367,0.169334 0.347133,0.4572 0.347133,0.753533 0,0.300567 -0.127,0.588433 -0.351366,0.749299 -0.245533,0.1778 -0.550333,0.186267 -0.690033,0.186267 h -0.169333 z"
         id="path4212" /></g><g
       aria-label="E"
       id="text3910"
       style="font-weight:500;font-size:4.23333px;font-family:'Futura PT';-inkscape-font-specification:'Futura PT Medium';text-align:center;text-anchor:middle;fill:#f7dfff;stroke-width:0;stroke-linecap:square"><path
         d="m 30.131806,41.775418 h -1.566332 v 2.823631 h 1.566332 V 44.124916 H 29.115807 V 43.35445 h 0.973666 v -0.474133 h -0.973666 v -0.630766 h 1.015999 z"
         id="path4215" /></g><g
       aria-label="F"
       id="text3914"
       style="font-weight:500;font-size:4.23333px;font-family:'Futura PT';-inkscape-font-specification:'Futura PT Medium';text-align:center;text-anchor:middle;fill:#f7dfff;stroke-width:0;stroke-linecap:square"><path
         d="m 30.127573,59.025402 h -1.498599 v 2.823631 h 0.550333 v -1.244599 h 0.888999 v -0.474133 h -0.888999 v -0.630766 h 0.948266 z"
         id="path4218" /></g><g
       aria-label="G"
       id="text3918"
       style="font-weight:500;font-size:4.23333px;font-family:'Futura PT';-inkscape-font-specification:'Futura PT Medium';text-align:center;text-anchor:middle;fill:#f7dfff;stroke-width:0;stroke-linecap:square"><path
         d="m 29.679984,78.187306 h 0.728133 c -0.04657,0.2032 -0.156633,0.347133 -0.2667,0.4318 -0.156633,0.118533 -0.3683,0.169333 -0.554566,0.169333 -0.300566,0 -0.499533,-0.118533 -0.626533,-0.2413 -0.118533,-0.1143 -0.2794,-0.338666 -0.2794,-0.715432 0,-0.3175 0.122767,-0.588433 0.283633,-0.745066 0.173567,-0.169334 0.427567,-0.249767 0.651933,-0.249767 0.131233,0 0.2794,0.02963 0.397933,0.0889 0.0889,0.04657 0.232833,0.143933 0.3302,0.334433 l 0.478366,-0.258233 c -0.148166,-0.254 -0.347133,-0.423333 -0.529166,-0.516466 -0.2159,-0.1143 -0.440266,-0.148167 -0.651933,-0.148167 -0.546099,0 -0.901699,0.2159 -1.113365,0.4318 -0.169334,0.169333 -0.414867,0.503766 -0.414867,1.049866 0,0.634999 0.321733,0.990599 0.4191,1.087965 0.309033,0.309033 0.673099,0.381 1.024466,0.381 0.351366,0 0.711199,-0.08043 1.003299,-0.372533 0.389466,-0.385233 0.414866,-0.977899 0.414866,-1.168399 v -0.03387 h -1.295399 z"
         id="path4221" /></g><g
       aria-label="A"
       id="text3922"
       style="font-weight:500;font-size:4.23333px;font-family:'Futura PT';-inkscape-font-specification:'Futura PT Medium';text-align:center;text-anchor:middle;fill:#f7dfff;stroke-width:0;stroke-linecap:square"><path
         d="m 30.11487,96.537178 h 0.592666 l -1.181099,-2.823631 h -0.4318 l -1.214965,2.823631 h 0.596899 l 0.249767,-0.592666 h 1.138765 z m -1.214966,-1.041399 0.402167,-1.015999 0.402166,1.015999 z"
         id="path4224" /></g><g
       aria-label="B"
       id="text3926"
       style="font-weight:500;font-size:4.23333px;font-family:'Futura PT';-inkscape-font-specification:'Futura PT Medium';text-align:center;text-anchor:middle;fill:#f7dfff;stroke-width:0;stroke-linecap:square"><path
         d="m 28.534298,110.96353 v 2.82363 h 0.948266 c 0.245533,0 0.503766,-0.0423 0.715433,-0.2286 0.194733,-0.17356 0.2413,-0.4064 0.2413,-0.5715 0,-0.14816 -0.03387,-0.3683 -0.2032,-0.52916 -0.07197,-0.0677 -0.182033,-0.14817 -0.3683,-0.1778 0.0762,-0.0423 0.3175,-0.1905 0.3175,-0.55457 0,-0.23707 -0.09737,-0.4572 -0.262467,-0.5842 -0.228599,-0.1778 -0.533399,-0.1778 -0.690032,-0.1778 z m 0.550333,0.44873 h 0.160867 c 0.224366,0 0.423333,0.0974 0.423333,0.3556 0,0.35984 -0.3429,0.3683 -0.427567,0.3683 h -0.156633 z m 0,1.14724 h 0.2032 c 0.118533,0 0.258233,0 0.376766,0.055 0.1778,0.0804 0.207433,0.23283 0.207433,0.32173 0,0.11007 -0.0381,0.24554 -0.173566,0.32597 -0.122767,0.072 -0.275166,0.0762 -0.376766,0.0762 h -0.237067 z"
         id="path4227" /></g><g
       aria-label="Out"
       id="text3930"
       style="font-weight:500;font-size:4.23333px;font-family:'Futura PT';-inkscape-font-specification:'Futura PT Medium';text-align:center;text-anchor:middle;fill:#7d46a7;stroke-width:0;stroke-linecap:square"><path
         d="m 8.5185052,101.93005 c -0.8889992,0 -1.5070654,0.61806 -1.5070654,1.47743 0,0.85936 0.6180662,1.4732 1.5070654,1.4732 0.8889993,0 1.5070658,-0.61384 1.5070658,-1.4732 0,-0.85937 -0.6180665,-1.47743 -1.5070658,-1.47743 z m 0,2.45109 c -0.5503328,0 -0.9397992,-0.40216 -0.9397992,-0.97366 0,-0.5715 0.3894664,-0.9779 0.9397992,-0.9779 0.5503329,0 0.9397992,0.4064 0.9397992,0.9779 0,0.5715 -0.3894663,0.97366 -0.9397992,0.97366 z"
         id="path4230" /><path
         d="m 10.457367,102.98415 v 1.12183 c 0,0.1651 0.02117,0.38523 0.224366,0.56303 0.169334,0.14817 0.440267,0.20743 0.664633,0.20743 0.224367,0 0.4953,-0.0593 0.664633,-0.20743 0.2032,-0.1778 0.224367,-0.39793 0.224367,-0.56303 v -1.12183 h -0.516467 v 1.03716 c 0,0.0974 -0.0085,0.2286 -0.110066,0.32173 -0.0635,0.055 -0.1651,0.0931 -0.262467,0.0931 -0.09737,0 -0.198966,-0.0381 -0.262466,-0.0931 -0.1016,-0.0931 -0.110067,-0.22436 -0.110067,-0.32173 v -1.03716 z"
         id="path4232" /><path
         d="m 13.598495,103.42441 v -0.44026 h -0.3556 v -0.62654 h -0.516466 v 0.62654 h -0.2032 v 0.44026 h 0.2032 v 1.39277 h 0.516466 v -1.39277 z"
         id="path4234" /></g><g
       aria-label="Weighted Quantizer"
       id="text4036"
       style="font-size:4.23333px;font-family:'Futura PT';-inkscape-font-specification:'Futura PT';text-align:center;text-anchor:middle;stroke-width:0;stroke-linecap:square"><path
         d="m 17.957281,1.2624663 1.083733,2.9717975 0.888999,-2.2605981 0.829733,2.2605981 1.185332,-2.9717975 H 21.597945 L 20.772446,3.3791312 19.934246,1.1185331 19.04948,3.3791312 18.304414,1.2624663 Z"
         id="path4237" /><path
         d="m 23.397109,3.4976644 c -0.0381,0.084667 -0.1016,0.1735665 -0.182033,0.2412998 -0.1016,0.084667 -0.2159,0.1269999 -0.359833,0.1269999 -0.3048,0 -0.554566,-0.2328331 -0.5588,-0.5968995 h 1.367366 c 0.0085,-0.2328331 -0.05503,-0.5037662 -0.1651,-0.6603995 -0.105833,-0.1523998 -0.321733,-0.321733 -0.664633,-0.321733 -0.529166,0 -0.850899,0.4063996 -0.850899,0.9313325 0,0.6519328 0.4445,0.9186326 0.867833,0.9186326 0.224366,0 0.423333,-0.071967 0.584199,-0.2158998 0.0889,-0.080433 0.1651,-0.1862665 0.2159,-0.2836331 z M 22.31761,3.0150648 c 0.04657,-0.2624664 0.258233,-0.4571996 0.516466,-0.4571996 0.258233,0 0.465667,0.1820332 0.516467,0.4571996 z"
         id="path4239" /><path
         d="m 24.129479,2.3292654 v 1.7568318 h 0.304799 V 2.3292654 Z m -0.0635,-0.6646328 c 0,0.1185332 0.09737,0.2158998 0.2159,0.2158998 0.118533,0 0.215899,-0.097367 0.215899,-0.2158998 0,-0.1185332 -0.09737,-0.2158998 -0.215899,-0.2158998 -0.118534,0 -0.2159,0.097367 -0.2159,0.2158998 z"
         id="path4241" /><path
         d="m 26.356211,2.5790318 c -0.1397,-0.1820331 -0.342899,-0.2920997 -0.601133,-0.2920997 -0.237066,0 -0.452966,0.093133 -0.601132,0.2370665 -0.127,0.1269998 -0.254,0.3386663 -0.254,0.681566 0,0.3555997 0.135466,0.5757329 0.254,0.6942661 0.135466,0.1354666 0.342899,0.2370665 0.601132,0.2370665 0.309034,0 0.499533,-0.1650999 0.601133,-0.2963331 v 0.2539998 c 0,0.1481665 -0.0085,0.3047997 -0.09737,0.448733 -0.1016,0.1693331 -0.249767,0.2455331 -0.465667,0.2455331 -0.135466,0 -0.296333,-0.029633 -0.423333,-0.1693332 -0.0762,-0.084667 -0.135466,-0.2158998 -0.135466,-0.3640664 h -0.300567 c 0,0.2582331 0.110067,0.448733 0.2286,0.5672662 0.118533,0.1185333 0.325967,0.2370665 0.626533,0.2370665 0.3302,0 0.5715,-0.1481666 0.702733,-0.3259664 0.169333,-0.2285998 0.169333,-0.4995329 0.169333,-0.6900328 V 2.3292654 h -0.3048 z m -0.567266,-0.021167 c 0.156633,0 0.300566,0.059267 0.397933,0.1566332 0.110067,0.1058332 0.186267,0.2878664 0.186267,0.4952996 0,0.2074331 -0.08043,0.3936996 -0.198967,0.5079996 -0.09737,0.097367 -0.224366,0.1481665 -0.385233,0.1481665 -0.160866,0 -0.2794,-0.055033 -0.376766,-0.1439332 -0.169333,-0.1566332 -0.198967,-0.3640664 -0.198967,-0.5164663 0,-0.1439332 0.02963,-0.3301997 0.1778,-0.4825995 0.08467,-0.084667 0.211667,-0.1650999 0.397933,-0.1650999 z"
         id="path4243" /><path
         d="m 27.236748,4.0860972 h 0.3048 V 3.1674647 c 0,-0.1269999 0.0085,-0.3344331 0.127,-0.474133 0.0889,-0.1058332 0.203199,-0.1354665 0.309033,-0.1354665 0.135466,0 0.228599,0.0508 0.287866,0.1269999 0.07197,0.093133 0.08043,0.2158998 0.08043,0.321733 v 1.0794991 h 0.3048 V 2.9981315 c 0,-0.1947332 -0.0127,-0.3386664 -0.1016,-0.4698996 -0.105833,-0.1566332 -0.296333,-0.2412998 -0.503766,-0.2412998 -0.2921,0 -0.448733,0.1735665 -0.503766,0.2455331 V 0.99999984 h -0.3048 z"
         id="path4245" /><path
         d="M 29.844476,2.6086651 V 2.3292654 H 29.539677 V 1.6942659 h -0.3048 V 2.3292654 H 29.04861 v 0.2793997 h 0.186267 v 1.4774321 h 0.3048 V 2.6086651 Z"
         id="path4247" /><path
         d="m 31.436211,3.4976644 c -0.0381,0.084667 -0.1016,0.1735665 -0.182033,0.2412998 -0.1016,0.084667 -0.2159,0.1269999 -0.359833,0.1269999 -0.3048,0 -0.554566,-0.2328331 -0.5588,-0.5968995 h 1.367366 c 0.0085,-0.2328331 -0.05503,-0.5037662 -0.1651,-0.6603995 -0.105833,-0.1523998 -0.321733,-0.321733 -0.664633,-0.321733 -0.529166,0 -0.850899,0.4063996 -0.850899,0.9313325 0,0.6519328 0.444499,0.9186326 0.867832,0.9186326 0.224367,0 0.423333,-0.071967 0.5842,-0.2158998 0.0889,-0.080433 0.1651,-0.1862665 0.2159,-0.2836331 z M 30.356712,3.0150648 c 0.04657,-0.2624664 0.258233,-0.4571996 0.516466,-0.4571996 0.258233,0 0.465666,0.1820332 0.516466,0.4571996 z"
         id="path4249" /><path
         d="m 33.51478,2.5790318 c -0.08043,-0.1058332 -0.262466,-0.2920997 -0.601133,-0.2920997 -0.448733,0 -0.855132,0.3132664 -0.855132,0.9186325 0,0.6180662 0.410633,0.9313326 0.855132,0.9313326 0.309033,0 0.499533,-0.1650999 0.601133,-0.2963331 v 0.2455331 h 0.3048 V 0.99999984 h -0.3048 z m -0.567266,-0.021167 c 0.270933,0 0.584199,0.1989665 0.584199,0.6519328 0,0.347133 -0.211666,0.6561661 -0.584199,0.6561661 -0.364066,0 -0.575733,-0.2836331 -0.575733,-0.6603995 0,-0.4275663 0.275167,-0.6476994 0.575733,-0.6476994 z"
         id="path4251" /><path
         d="m 37.853946,4.1157305 h 0.4064 L 37.84548,3.6881642 c 0.165099,-0.1735665 0.397933,-0.4952995 0.397933,-1.0117658 0,-0.8424326 -0.6604,-1.4604987 -1.468966,-1.4604987 -0.812799,0 -1.468965,0.6180661 -1.468965,1.4604987 0,0.8381993 0.656166,1.4604988 1.468965,1.4604988 0.448733,0 0.732366,-0.1777999 0.850899,-0.2582331 z M 37.125814,2.9515649 h -0.4064 l 0.681566,0.7027327 c -0.220133,0.1439332 -0.448733,0.1862665 -0.626533,0.1862665 -0.634999,0 -1.147232,-0.5164662 -1.147232,-1.1641657 0,-0.6476994 0.512233,-1.1641657 1.147232,-1.1641657 0.630766,0 1.147233,0.5164663 1.147233,1.1641657 0,0.4148663 -0.194734,0.6688661 -0.300567,0.783166 z"
         id="path4253" /><path
         d="m 39.047747,2.3292654 h -0.3048 v 1.0583324 c 0,0.2158998 0.02117,0.3767664 0.160866,0.5291662 0.156634,0.1650999 0.364067,0.2201332 0.537633,0.2201332 0.173567,0 0.381,-0.055033 0.537633,-0.2201332 0.1397,-0.1523998 0.160867,-0.3132664 0.160867,-0.5291662 V 2.3292654 h -0.3048 v 1.0244658 c 0,0.1227666 0,0.2666998 -0.08467,0.3767663 -0.04657,0.059267 -0.1397,0.1354666 -0.309033,0.1354666 -0.169333,0 -0.262466,-0.0762 -0.309033,-0.1354666 -0.08467,-0.1100665 -0.08467,-0.2539997 -0.08467,-0.3767663 z"
         id="path4255" /><path
         d="M 42.061876,2.5790318 C 41.981443,2.4731986 41.79941,2.2869321 41.460744,2.2869321 c -0.448733,0 -0.855133,0.3132664 -0.855133,0.9186325 0,0.6180662 0.410633,0.9313326 0.855133,0.9313326 0.309033,0 0.499532,-0.1650999 0.601132,-0.2963331 v 0.2455331 h 0.3048 V 2.3292654 h -0.3048 z M 41.49461,2.5578652 c 0.270933,0 0.5842,0.1989665 0.5842,0.6519328 0,0.347133 -0.211667,0.6561661 -0.5842,0.6561661 -0.364066,0 -0.575733,-0.2836331 -0.575733,-0.6603995 0,-0.4275663 0.275167,-0.6476994 0.575733,-0.6476994 z"
         id="path4257" /><path
         d="m 42.942414,4.0860972 h 0.304799 V 3.1674647 c 0,-0.1269999 0.0085,-0.3344331 0.127,-0.474133 0.0889,-0.1058332 0.2032,-0.1354665 0.309033,-0.1354665 0.135467,0 0.2286,0.0508 0.287867,0.1269999 0.07197,0.093133 0.08043,0.2158998 0.08043,0.321733 v 1.0794991 h 0.3048 V 2.9981315 c 0,-0.1947332 -0.0127,-0.3386664 -0.1016,-0.4698996 -0.105833,-0.1566332 -0.296333,-0.2412998 -0.503766,-0.2412998 -0.2921,0 -0.448733,0.1735665 -0.503767,0.2455331 V 2.3292654 h -0.304799 z"
         id="path4259" /><path
         d="M 45.550142,2.6086651 V 2.3292654 h -0.3048 V 1.6942659 h -0.3048 v 0.6349995 h -0.186266 v 0.2793997 h 0.186266 v 1.4774321 h 0.3048 V 2.6086651 Z"
         id="path4261" /><path
         d="m 45.838011,2.3292654 v 1.7568318 h 0.3048 V 2.3292654 Z m -0.0635,-0.6646328 c 0,0.1185332 0.09737,0.2158998 0.2159,0.2158998 0.118533,0 0.2159,-0.097367 0.2159,-0.2158998 0,-0.1185332 -0.09737,-0.2158998 -0.2159,-0.2158998 -0.118533,0 -0.2159,0.097367 -0.2159,0.2158998 z"
         id="path4263" /><path
         d="m 48.344143,2.3292654 h -1.634065 v 0.2793997 h 1.024465 l -1.269999,1.4774321 h 1.828799 V 3.8066975 h -1.219199 z"
         id="path4265" /><path
         d="m 49.927403,3.4976644 c -0.0381,0.084667 -0.1016,0.1735665 -0.182033,0.2412998 -0.1016,0.084667 -0.2159,0.1269999 -0.359833,0.1269999 -0.3048,0 -0.554567,-0.2328331 -0.5588,-0.5968995 h 1.367366 c 0.0085,-0.2328331 -0.05503,-0.5037662 -0.1651,-0.6603995 -0.105833,-0.1523998 -0.321733,-0.321733 -0.664633,-0.321733 -0.529166,0 -0.850899,0.4063996 -0.850899,0.9313325 0,0.6519328 0.444499,0.9186326 0.867832,0.9186326 0.224367,0 0.423333,-0.071967 0.5842,-0.2158998 0.0889,-0.080433 0.1651,-0.1862665 0.2159,-0.2836331 z M 48.847904,3.0150648 c 0.04657,-0.2624664 0.258233,-0.4571996 0.516466,-0.4571996 0.258233,0 0.465666,0.1820332 0.516466,0.4571996 z"
         id="path4267" /><path
         d="m 50.659775,4.0860972 h 0.3048 V 3.158998 c 0,-0.2878664 0.0508,-0.4063996 0.1016,-0.4741329 0.04657,-0.059267 0.122766,-0.1100666 0.245533,-0.1100666 0.04657,0 0.110066,0.0127 0.1778,0.059267 l 0.143933,-0.2751664 c -0.0762,-0.0381 -0.1778,-0.071967 -0.270933,-0.071967 -0.237067,0 -0.3683,0.1862665 -0.397933,0.2328331 V 2.3292654 h -0.3048 z"
         id="path4269" /></g></g><g
     inkscape:groupmode="layer"
     id="layer2"
     inkscape:label="components"
     style="display:inline"><circle
       style="fill:#00ff00;fill-opacity:1;stroke-width:0.162096"
       id="in"
       cx="10.474838"
       cy="24.499998"
       inkscape:transform-center-x="-0.10869517"
       inkscape:transform-center-y="-5.4347841"
       r="2.5"
       inkscape:label="in" /><circle
       style="fill:#ff0000;fill-opacity:1;stroke-width:0.162096"
       id="c"
       cx="24.241289"
       cy="16.37841"
       inkscape:transform-center-x="-0.10869517"
       inkscape:transform-center-y="-5.4347841"
       r="2.5"
       inkscape:label="c" /><circle
       style="fill:#ff0000;fill-opacity:1;stroke-width:0.162096"
       id="db"
       cx="49.080002"
       cy="24.72053"
       inkscape:transform-center-x="-0.10869517"
       inkscape:transform-center-y="-5.4347841"
       r="2.5"
       inkscape:label="db" /><circle
       style="fill:#0000ff;fill-opacity:1;stroke-width:0.162096"
       id="out"
       cx="10.474839"
       cy="111.15321"
       inkscape:transform-center-x="-0.10869517"
       inkscape:transform-center-y="-5.4347841"
       r="2.5"
       inkscape:label="out" /><circle
       style="fill:#ff0000;fill-opacity:1;stroke-width:0.162096"
       id="d"
       cx="24.241289"
       cy="33.727978"
       inkscape:transform-center-x="-0.10869517"
       inkscape:transform-center-y="-5.4347841"
       r="2.5"
       inkscape:label="d" /><circle
       style="fill:#ff0000;fill-opacity:1;stroke-width:0.162096"
       id="e"
       cx="24.196936"
       cy="51.033188"
       inkscape:transform-center-x="-0.10869517"
       inkscape:transform-center-y="-5.4347841"
       r="2.5"
       inkscape:label="e" /><circle
       style="fill:#ff0000;fill-opacity:1;stroke-width:0.162096"
       id="eb"
       cx="49.168709"
       cy="41.981392"
       inkscape:transform-center-x="-0.10869517"
       inkscape:transform-center-y="-5.4347841"
       r="2.5"
       inkscape:label="eb" /><circle
       style="fill:#ff0000;fill-opacity:1;stroke-width:0.162096"
       id="f"
       cx="24.196936"
       cy="68.290634"
       inkscape:transform-center-x="-0.10869517"
       inkscape:transform-center-y="-5.4347841"
       r="2.5"
       inkscape:label="f" /><circle
       style="fill:#ff0000;fill-opacity:1;stroke-width:0.162096"
       id="gb"
       cx="49.124352"
       cy="76.544037"
       inkscape:transform-center-x="-0.10869517"
       inkscape:transform-center-y="-5.4347841"
       r="2.5"
       inkscape:label="gb" /><circle
       style="fill:#ff0000;fill-opacity:1;stroke-width:0.162096"
       id="g"
       cx="24.196936"
       cy="85.684547"
       inkscape:transform-center-x="-0.10869517"
       inkscape:transform-center-y="-5.4347841"
       r="2.5"
       inkscape:label="g" /><circle
       style="fill:#ff0000;fill-opacity:1;stroke-width:0.162096"
       id="ab"
       cx="49.079998"
       cy="93.849251"
       inkscape:transform-center-x="-0.10869517"
       inkscape:transform-center-y="-5.4347841"
       r="2.5"
       inkscape:label="ab" /><circle
       style="fill:#ff0000;fill-opacity:1;stroke-width:0.162096"
       id="a"
       cx="24.196936"
       cy="102.90105"
       inkscape:transform-center-x="-0.10869517"
       inkscape:transform-center-y="-5.4347841"
       r="2.5"
       inkscape:label="a" /><circle
       style="fill:#ff0000;fill-opacity:1;stroke-width:0.162096"
       id="bb"
       cx="49.124355"
       cy="111.24315"
       inkscape:transform-center-x="-0.10869517"
       inkscape:transform-center-y="-5.4347841"
       r="2.5"
       inkscape:label="bb" /><circle
       style="fill:#ff0000;fill-opacity:1;stroke-width:0.162096"
       id="b"
       cx="24.196936"
       cy="120.20626"
       inkscape:transform-center-x="-0.10869517"
       inkscape:transform-center-y="-5.4347841"
       r="2.5"
       inkscape:label="b" /><circle
       style="fill:#00ff00;fill-opacity:1;stroke-width:0.162096"
       id="c-8"
       cx="34.862904"
       cy="16.414701"
       inkscape:transform-center-x="-0.10869517"
       inkscape:transform-center-y="-5.4347841"
       r="2.5"
       inkscape:label="cin" /><circle
       style="fill:#00ff00;fill-opacity:1;stroke-width:0.162096"
       id="db-5"
       cx="59.745968"
       cy="24.712471"
       inkscape:transform-center-x="-0.10869517"
       inkscape:transform-center-y="-5.4347841"
       r="2.5"
       inkscape:label="dbin" /><circle
       style="fill:#00ff00;fill-opacity:1;stroke-width:0.162096"
       id="d-8"
       cx="34.862904"
       cy="33.719913"
       inkscape:transform-center-x="-0.10869517"
       inkscape:transform-center-y="-5.4347841"
       r="2.5"
       inkscape:label="din" /><circle
       style="fill:#00ff00;fill-opacity:1;stroke-width:0.162096"
       id="e-8"
       cx="34.862904"
       cy="51.025127"
       inkscape:transform-center-x="-0.10869517"
       inkscape:transform-center-y="-5.4347841"
       r="2.5"
       inkscape:label="ein" /><circle
       style="fill:#00ff00;fill-opacity:1;stroke-width:0.162096"
       id="eb-9"
       cx="59.745968"
       cy="41.973328"
       inkscape:transform-center-x="-0.10869517"
       inkscape:transform-center-y="-5.4347841"
       r="2.5"
       inkscape:label="ebin" /><circle
       style="fill:#00ff00;fill-opacity:1;stroke-width:0.162096"
       id="f-9"
       cx="34.81855"
       cy="68.32692"
       inkscape:transform-center-x="-0.10869517"
       inkscape:transform-center-y="-5.4347841"
       r="2.5"
       inkscape:label="fin" /><circle
       style="fill:#00ff00;fill-opacity:1;stroke-width:0.162096"
       id="gb-3"
       cx="59.701611"
       cy="76.580338"
       inkscape:transform-center-x="-0.10869517"
       inkscape:transform-center-y="-5.4347841"
       r="2.5"
       inkscape:label="gbin" /><circle
       style="fill:#00ff00;fill-opacity:1;stroke-width:0.162096"
       id="g-6"
       cx="34.862904"
       cy="85.632133"
       inkscape:transform-center-x="-0.10869517"
       inkscape:transform-center-y="-5.4347841"
       r="2.5"
       inkscape:label="gin" /><circle
       style="fill:#00ff00;fill-opacity:1;stroke-width:0.162096"
       id="ab-9"
       cx="59.745968"
       cy="93.841187"
       inkscape:transform-center-x="-0.10869517"
       inkscape:transform-center-y="-5.4347841"
       r="2.5"
       inkscape:label="abin" /><circle
       style="fill:#00ff00;fill-opacity:1;stroke-width:0.162096"
       id="a-2"
       cx="34.862904"
       cy="102.93735"
       inkscape:transform-center-x="-0.10869517"
       inkscape:transform-center-y="-5.4347841"
       r="2.5"
       inkscape:label="ain" /><circle
       style="fill:#00ff00;fill-opacity:1;stroke-width:0.162096"
       id="bb-9"
       cx="59.745968"
       cy="111.19075"
       inkscape:transform-center-x="-0.10869517"
       inkscape:transform-center-y="-5.4347841"
       r="2.5"
       inkscape:label="bbin" /><circle
       style="fill:#00ff00;fill-opacity:1;stroke-width:0.162096"
       id="b-2"
       cx="34.862904"
       cy="120.24255"
       inkscape:transform-center-x="-0.10869517"
       inkscape:transform-center-y="-5.4347841"
       r="2.5"
       inkscape:label="bin" /></g></svg>
