<?xml version="1.0" encoding="UTF-8" standalone="no"?>
<!-- Created with Inkscape (http://www.inkscape.org/) -->

<svg
   width="40.639999mm"
   height="128.5mm"
   viewBox="0 0 40.64 128.5"
   version="1.1"
   id="svg5"
   inkscape:version="1.2.1 (9c6d41e410, 2022-07-14)"
   sodipodi:docname="WeightedQuantizer.svg"
   xmlns:inkscape="http://www.inkscape.org/namespaces/inkscape"
   xmlns:sodipodi="http://sodipodi.sourceforge.net/DTD/sodipodi-0.dtd"
   xmlns="http://www.w3.org/2000/svg"
   xmlns:svg="http://www.w3.org/2000/svg">
  <sodipodi:namedview
     id="namedview7"
     pagecolor="#ffffff"
     bordercolor="#000000"
     borderopacity="0.25"
     inkscape:showpageshadow="2"
     inkscape:pageopacity="0.0"
     inkscape:pagecheckerboard="0"
     inkscape:deskcolor="#d1d1d1"
     inkscape:document-units="mm"
     showgrid="false"
     inkscape:zoom="1.4912879"
     inkscape:cx="119.02464"
     inkscape:cy="225.97917"
     inkscape:window-width="1920"
     inkscape:window-height="1017"
     inkscape:window-x="1912"
     inkscape:window-y="-8"
     inkscape:window-maximized="1"
     inkscape:current-layer="layer1" />
  <defs
     id="defs2">
    <rect
       x="30.175261"
       y="16.764032"
       width="4.6939292"
       height="17.434595"
       id="rect1148" />
  </defs>
  <g
     inkscape:label="Background"
     inkscape:groupmode="layer"
     id="layer1">
    <rect
       style="fill:#ffffff;fill-opacity:1;stroke-width:0.294173"
       id="rect894"
       width="43.645164"
       height="133.06451"
       x="-1.241931"
       y="-1.596774" />
  </g>
  <g
     inkscape:groupmode="layer"
     id="layer2"
     inkscape:label="components">
    <circle
       style="fill:#00ff00;fill-opacity:1;stroke-width:0.162096"
       id="in"
       cx="4.6199999"
       cy="5.1612883"
       inkscape:transform-center-x="-0.10869517"
       inkscape:transform-center-y="-5.4347841"
       r="2.5"
       inkscape:label="in" />
    <circle
       style="fill:#ff0000;fill-opacity:1;stroke-width:0.162096"
       id="c"
       cx="28.410645"
       cy="5.2009907"
       inkscape:transform-center-x="-0.10869517"
       inkscape:transform-center-y="-5.4347841"
       r="2.5"
       inkscape:label="c" />
    <circle
       style="fill:#ff0000;fill-opacity:1;stroke-width:0.162096"
       id="db"
       cx="28.410645"
       cy="15.982627"
       inkscape:transform-center-x="-0.10869517"
       inkscape:transform-center-y="-5.4347841"
       r="2.5"
       inkscape:label="db" />
    <circle
       style="fill:#0000ff;fill-opacity:1;stroke-width:0.162096"
       id="out"
       cx="5.3296776"
       cy="123.83869"
       inkscape:transform-center-x="-0.10869517"
       inkscape:transform-center-y="-5.4347841"
       r="2.5"
       inkscape:label="out" />
    <circle
       style="fill:#ff0000;fill-opacity:1;stroke-width:0.162096"
       id="d"
       cx="28.410645"
       cy="26.764267"
       inkscape:transform-center-x="-0.10869517"
       inkscape:transform-center-y="-5.4347841"
       r="2.5"
       inkscape:label="d" />
    <circle
       style="fill:#ff0000;fill-opacity:1;stroke-width:0.162096"
       id="e"
       cx="28.410645"
       cy="48.327541"
       inkscape:transform-center-x="-0.10869517"
       inkscape:transform-center-y="-5.4347841"
       r="2.5"
       inkscape:label="e" />
    <circle
       style="fill:#ff0000;fill-opacity:1;stroke-width:0.162096"
       id="eb"
       cx="28.410645"
       cy="37.545906"
       inkscape:transform-center-x="-0.10869517"
       inkscape:transform-center-y="-5.4347841"
       r="2.5"
       inkscape:label="eb" />
    <circle
       style="fill:#ff0000;fill-opacity:1;stroke-width:0.162096"
       id="f"
       cx="28.410645"
       cy="59.10918"
       inkscape:transform-center-x="-0.10869517"
       inkscape:transform-center-y="-5.4347841"
       r="2.5"
       inkscape:label="f" />
    <circle
       style="fill:#ff0000;fill-opacity:1;stroke-width:0.162096"
       id="gb"
       cx="28.410645"
       cy="69.890816"
       inkscape:transform-center-x="-0.10869517"
       inkscape:transform-center-y="-5.4347841"
       r="2.5"
       inkscape:label="gb" />
    <circle
       style="fill:#ff0000;fill-opacity:1;stroke-width:0.162096"
       id="g"
       cx="28.410645"
       cy="80.672455"
       inkscape:transform-center-x="-0.10869517"
       inkscape:transform-center-y="-5.4347841"
       r="2.5"
       inkscape:label="g" />
    <circle
       style="fill:#ff0000;fill-opacity:1;stroke-width:0.162096"
       id="ab"
       cx="28.410645"
       cy="91.454086"
       inkscape:transform-center-x="-0.10869517"
       inkscape:transform-center-y="-5.4347841"
       r="2.5"
       inkscape:label="ab" />
    <circle
       style="fill:#ff0000;fill-opacity:1;stroke-width:0.162096"
       id="a"
       cx="28.410645"
       cy="102.23573"
       inkscape:transform-center-x="-0.10869517"
       inkscape:transform-center-y="-5.4347841"
       r="2.5"
       inkscape:label="a" />
    <circle
       style="fill:#ff0000;fill-opacity:1;stroke-width:0.162096"
       id="bb"
       cx="28.410645"
       cy="113.01736"
       inkscape:transform-center-x="-0.10869517"
       inkscape:transform-center-y="-5.4347841"
       r="2.5"
       inkscape:label="bb" />
    <circle
       style="fill:#ff0000;fill-opacity:1;stroke-width:0.162096"
       id="b"
       cx="28.410645"
       cy="123.799"
       inkscape:transform-center-x="-0.10869517"
       inkscape:transform-center-y="-5.4347841"
       r="2.5"
       inkscape:label="b" />
    <circle
       style="fill:#00ff00;fill-opacity:1;stroke-width:0.162096"
       id="c-8"
       cx="36.770161"
       cy="5.1485715"
       inkscape:transform-center-x="-0.10869517"
       inkscape:transform-center-y="-5.4347841"
       r="2.5"
       inkscape:label="cin" />
    <circle
       style="fill:#00ff00;fill-opacity:1;stroke-width:0.162096"
       id="db-5"
       cx="36.770161"
       cy="15.930212"
       inkscape:transform-center-x="-0.10869517"
       inkscape:transform-center-y="-5.4347841"
       r="2.5"
       inkscape:label="dbin" />
    <circle
       style="fill:#00ff00;fill-opacity:1;stroke-width:0.162096"
       id="d-8"
       cx="36.770161"
       cy="26.711851"
       inkscape:transform-center-x="-0.10869517"
       inkscape:transform-center-y="-5.4347841"
       r="2.5"
       inkscape:label="din" />
    <circle
       style="fill:#00ff00;fill-opacity:1;stroke-width:0.162096"
       id="e-8"
       cx="36.770161"
       cy="48.275124"
       inkscape:transform-center-x="-0.10869517"
       inkscape:transform-center-y="-5.4347841"
       r="2.5"
       inkscape:label="ein" />
    <circle
       style="fill:#00ff00;fill-opacity:1;stroke-width:0.162096"
       id="eb-9"
       cx="36.770161"
       cy="37.493488"
       inkscape:transform-center-x="-0.10869517"
       inkscape:transform-center-y="-5.4347841"
       r="2.5"
       inkscape:label="ebin" />
    <circle
       style="fill:#00ff00;fill-opacity:1;stroke-width:0.162096"
       id="f-9"
       cx="36.770161"
       cy="59.056763"
       inkscape:transform-center-x="-0.10869517"
       inkscape:transform-center-y="-5.4347841"
       r="2.5"
       inkscape:label="fin" />
    <circle
       style="fill:#00ff00;fill-opacity:1;stroke-width:0.162096"
       id="gb-3"
       cx="36.770161"
       cy="69.838402"
       inkscape:transform-center-x="-0.10869517"
       inkscape:transform-center-y="-5.4347841"
       r="2.5"
       inkscape:label="gbin" />
    <circle
       style="fill:#00ff00;fill-opacity:1;stroke-width:0.162096"
       id="g-6"
       cx="36.770161"
       cy="80.620041"
       inkscape:transform-center-x="-0.10869517"
       inkscape:transform-center-y="-5.4347841"
       r="2.5"
       inkscape:label="gin" />
    <circle
       style="fill:#00ff00;fill-opacity:1;stroke-width:0.162096"
       id="ab-9"
       cx="36.770161"
       cy="91.401672"
       inkscape:transform-center-x="-0.10869517"
       inkscape:transform-center-y="-5.4347841"
       r="2.5"
       inkscape:label="abin" />
    <circle
       style="fill:#00ff00;fill-opacity:1;stroke-width:0.162096"
       id="a-2"
       cx="36.770161"
       cy="102.18332"
       inkscape:transform-center-x="-0.10869517"
       inkscape:transform-center-y="-5.4347841"
       r="2.5"
       inkscape:label="ain" />
    <circle
       style="fill:#00ff00;fill-opacity:1;stroke-width:0.162096"
       id="bb-9"
       cx="36.770161"
       cy="112.96494"
       inkscape:transform-center-x="-0.10869517"
       inkscape:transform-center-y="-5.4347841"
       r="2.5"
       inkscape:label="bbin" />
    <circle
       style="fill:#00ff00;fill-opacity:1;stroke-width:0.162096"
       id="b-2"
       cx="36.770161"
       cy="123.74658"
       inkscape:transform-center-x="-0.10869517"
       inkscape:transform-center-y="-5.4347841"
       r="2.5"
       inkscape:label="bin" />
  </g>
  <g
     inkscape:groupmode="layer"
     id="layer3"
     inkscape:label="Text">
    <g
       aria-label="C#/Db"
       id="text480"
       style="font-size:3.175px;font-family:'Courier New';-inkscape-font-specification:'Courier New';text-align:center;text-anchor:middle;stroke-width:0.264583"
       transform="translate(-0.56111,0.95896975)">
      <path
         d="m 14.504149,14.154763 v -0.09147 q 0,-0.04651 0.01705,-0.06666 0.0186,-0.02015 0.04806,-0.02015 0.02946,0 0.04651,0.02015 0.0186,0.02015 0.0186,0.06666 v 0.361218 q 0,0.04806 -0.0186,0.06821 -0.01705,0.02015 -0.04651,0.02015 -0.02635,0 -0.04496,-0.0186 -0.01705,-0.0186 -0.02015,-0.06046 -0.0078,-0.130225 -0.141077,-0.230994 -0.179834,-0.137976 -0.409277,-0.137976 -0.150378,0 -0.283704,0.06666 -0.09922,0.04806 -0.15813,0.117822 -0.102319,0.120923 -0.16278,0.268201 -0.04341,0.10852 -0.04341,0.244946 v 0.227893 q 0,0.291455 0.21084,0.506946 0.21084,0.21394 0.489893,0.21394 0.167432,0 0.299206,-0.07286 0.133326,-0.07286 0.257349,-0.220142 0.02636,-0.03256 0.05891,-0.03256 0.02791,0 0.04496,0.01705 0.01705,0.01705 0.01705,0.04341 0,0.03566 -0.06666,0.108521 -0.127124,0.142627 -0.286804,0.21549 -0.15813,0.07131 -0.320911,0.07131 -0.141076,0 -0.286804,-0.05426 -0.111621,-0.04186 -0.184485,-0.09767 -0.07286,-0.05581 -0.179834,-0.187585 -0.105419,-0.133325 -0.144177,-0.244946 -0.03876,-0.113172 -0.03876,-0.248047 v -0.2651 q 0,-0.192237 0.102319,-0.392225 0.10387,-0.201538 0.282154,-0.308508 0.179833,-0.10852 0.389123,-0.10852 0.322461,0 0.555005,0.220141 z"
         id="path482" />
      <path
         d="m 16.124205,14.643106 -0.02791,0.409277 h 0.249597 q 0.04651,0 0.06666,0.0186 0.02015,0.01705 0.02015,0.04651 0,0.02946 -0.02015,0.04806 -0.02015,0.01705 -0.06666,0.01705 h -0.258899 l -0.05116,0.725538 q -0.0031,0.04651 -0.0217,0.06511 -0.01705,0.0186 -0.04341,0.0186 l -0.02636,-0.0062 q -0.03876,-0.02325 -0.03876,-0.06356 v -0.02325 l 0.05116,-0.716236 h -0.294555 l -0.04961,0.725538 q -0.0031,0.04651 -0.0217,0.06511 -0.0186,0.0186 -0.04341,0.0186 l -0.02791,-0.0062 q -0.03876,-0.02325 -0.03876,-0.06356 l 0.0016,-0.02325 0.04961,-0.716236 h -0.271301 q -0.04651,0 -0.06666,-0.01705 -0.02015,-0.0186 -0.02015,-0.04806 0,-0.02946 0.02015,-0.04651 0.02015,-0.0186 0.06666,-0.0186 h 0.280603 l 0.02791,-0.409277 h -0.241846 q -0.04806,0 -0.06821,-0.01705 -0.02015,-0.0186 -0.02015,-0.04806 0,-0.02945 0.02015,-0.04651 0.02015,-0.0186 0.06821,-0.0186 h 0.251148 l 0.05116,-0.725537 q 0.0031,-0.04496 0.0217,-0.06356 0.0186,-0.02015 0.04341,-0.02015 l 0.0279,0.0062 q 0.03876,0.02481 0.03876,0.06201 l -0.0015,0.02481 -0.04961,0.716235 h 0.293005 l 0.05116,-0.725537 q 0.0031,-0.04496 0.02015,-0.06356 0.0186,-0.02015 0.04496,-0.02015 l 0.02635,0.0062 q 0.04031,0.02481 0.04031,0.06201 l -0.0016,0.02481 -0.05116,0.716235 h 0.277502 q 0.04651,0 0.06666,0.0186 0.02015,0.01705 0.02015,0.04651 0,0.02946 -0.02015,0.04806 -0.02015,0.01705 -0.06666,0.01705 z m -0.130225,0 h -0.293005 l -0.02946,0.409277 h 0.294555 z"
         id="path484" />
      <path
         d="m 18.327171,13.750137 -1.047998,2.244824 q -0.02635,0.05736 -0.06821,0.05736 -0.02635,0 -0.04651,-0.02015 -0.0186,-0.0186 -0.0186,-0.04186 0,-0.0186 0.0155,-0.05116 l 1.046448,-2.244824 q 0.01705,-0.03566 0.03256,-0.04651 0.0155,-0.01085 0.03721,-0.01085 0.02635,0 0.04496,0.02015 0.02015,0.0186 0.02015,0.04186 0,0.01705 -0.0155,0.05116 z"
         id="path486" />
      <path
         d="m 19.136424,15.660098 v -1.553394 h -0.110071 q -0.04651,0 -0.06666,-0.01705 -0.02015,-0.0186 -0.02015,-0.04806 0,-0.02946 0.02015,-0.04651 0.02015,-0.0186 0.06666,-0.0186 h 0.700733 q 0.164331,0 0.299206,0.06821 0.136426,0.06821 0.20774,0.15503 0.122473,0.147278 0.186035,0.311609 0.04496,0.119372 0.04496,0.282153 v 0.179834 q 0,0.199988 -0.08837,0.387573 -0.08837,0.187586 -0.294555,0.327112 -0.153479,0.102319 -0.355017,0.102319 h -0.700733 q -0.04651,0 -0.06666,-0.0186 -0.02015,-0.0186 -0.02015,-0.04651 0,-0.02946 0.02015,-0.04651 0.02015,-0.0186 0.06666,-0.0186 z m 0.130225,0 h 0.472839 q 0.164331,0 0.306958,-0.106971 0.144177,-0.10697 0.215491,-0.255798 0.07286,-0.150378 0.07286,-0.296106 v -0.235644 q 0,-0.120923 -0.03876,-0.215491 -0.05581,-0.137976 -0.15813,-0.262 -0.05581,-0.06821 -0.164331,-0.124023 -0.10852,-0.05736 -0.234094,-0.05736 h -0.472839 z"
         id="path488" />
      <path
         d="m 21.061888,13.844705 v 0.863513 q 0.235645,-0.306958 0.568958,-0.306958 0.285254,0 0.488342,0.207739 0.203088,0.206189 0.203088,0.506946 0,0.303857 -0.206189,0.514697 -0.204638,0.21084 -0.485241,0.21084 -0.341065,0 -0.568958,-0.306958 v 0.255798 H 20.75648 q -0.04651,0 -0.06666,-0.0186 -0.02015,-0.0186 -0.02015,-0.04651 0,-0.02946 0.02015,-0.04651 0.02015,-0.0186 0.06666,-0.0186 h 0.175183 V 13.97648 H 20.75648 q -0.04651,0 -0.06666,-0.0186 -0.02015,-0.0186 -0.02015,-0.04806 0,-0.02791 0.02015,-0.04651 0.02015,-0.0186 0.06666,-0.0186 z m 1.130164,1.277441 q 0,-0.246497 -0.168982,-0.417029 -0.168982,-0.172082 -0.395325,-0.172082 -0.226343,0 -0.395325,0.172082 -0.168982,0.170532 -0.168982,0.417029 0,0.246497 0.168982,0.418579 0.168982,0.170532 0.395325,0.170532 0.226343,0 0.395325,-0.170532 0.168982,-0.172082 0.168982,-0.418579 z"
         id="path490" />
    </g>
    <g
       aria-label="C"
       id="text1023"
       style="font-size:3.175px;font-family:'Courier New';-inkscape-font-specification:'Courier New';text-align:center;text-anchor:middle;stroke-width:0.264583"
       transform="translate(14.346747,-7.9838708)">
      <path
         d="m 7.2345859,12.203151 v -0.09147 q 0,-0.04651 0.017053,-0.06666 0.018604,-0.02015 0.048059,-0.02015 0.029456,0 0.046509,0.02015 0.018604,0.02015 0.018604,0.06666 V 12.4729 q 0,0.04806 -0.018604,0.06821 -0.017053,0.02015 -0.046509,0.02015 -0.026355,0 -0.044958,-0.0186 -0.017053,-0.0186 -0.020154,-0.06046 -0.00775,-0.130225 -0.1410766,-0.230994 -0.179834,-0.137976 -0.4092774,-0.137976 -0.1503784,0 -0.2837036,0.06666 -0.099219,0.04806 -0.1581298,0.117823 -0.1023194,0.120922 -0.1627808,0.2682 -0.043408,0.108521 -0.043408,0.244947 v 0.227893 q 0,0.291455 0.2108398,0.506945 0.2108399,0.213941 0.4898926,0.213941 0.1674316,0 0.2992065,-0.07286 0.1333252,-0.07286 0.2573487,-0.220141 0.026355,-0.03256 0.058911,-0.03256 0.027905,0 0.044958,0.01705 0.017053,0.01705 0.017053,0.04341 0,0.03566 -0.066663,0.10852 -0.127124,0.142627 -0.2868042,0.215491 -0.1581298,0.07131 -0.3209106,0.07131 -0.1410767,0 -0.2868042,-0.05426 -0.1116211,-0.04186 -0.1844849,-0.09767 -0.072864,-0.05581 -0.1798339,-0.187586 -0.10542,-0.133325 -0.1441773,-0.244946 -0.038757,-0.113171 -0.038757,-0.248047 v -0.2651 q 0,-0.192236 0.1023193,-0.392224 0.1038697,-0.201538 0.2821533,-0.308508 0.179834,-0.108521 0.3891236,-0.108521 0.3224609,0 0.5550048,0.220142 z"
         id="path275" />
    </g>
    <g
       aria-label="D"
       id="text1031"
       style="font-size:3.175px;font-family:'Courier New';-inkscape-font-specification:'Courier New';text-align:center;text-anchor:middle;stroke-width:0.264583"
       transform="translate(14.33822,-5.1245257)">
      <path
         d="M 6.0943454,32.509378 V 30.955985 H 5.9842746 q -0.046509,0 -0.066663,-0.01705 -0.020154,-0.0186 -0.020154,-0.04806 0,-0.02946 0.020154,-0.04651 0.020154,-0.0186 0.066663,-0.0186 H 6.685007 q 0.1643311,0 0.2992065,0.06821 0.1364258,0.06821 0.2077393,0.155029 0.1224731,0.147278 0.1860351,0.311609 0.044958,0.119373 0.044958,0.282153 V 31.8226 q 0,0.199988 -0.088367,0.387574 -0.088367,0.187585 -0.2945556,0.327111 -0.153479,0.10232 -0.3550171,0.10232 H 5.9842746 q -0.046509,0 -0.066663,-0.0186 -0.020154,-0.0186 -0.020154,-0.04651 0,-0.02945 0.020154,-0.04651 0.020154,-0.0186 0.066663,-0.0186 z m 0.1302246,0 h 0.4728393 q 0.1643311,0 0.306958,-0.10697 0.1441773,-0.10697 0.2154908,-0.255798 0.072864,-0.150379 0.072864,-0.296106 v -0.235645 q 0,-0.120923 -0.038757,-0.215491 -0.055811,-0.137976 -0.1581299,-0.261999 -0.05581,-0.06821 -0.164331,-0.124024 -0.1085205,-0.05736 -0.2340943,-0.05736 H 6.22457 Z"
         id="path289" />
    </g>
    <g
       aria-label="D#/Eb"
       id="text1035"
       style="font-size:3.175px;font-family:'Courier New';-inkscape-font-specification:'Courier New';text-align:center;text-anchor:middle;stroke-width:0.264583"
       transform="translate(10.551629,-3.6948471)">
      <path
         d="M 2.3077546,41.923006 V 40.369612 H 2.1976838 q -0.046509,0 -0.066663,-0.01705 -0.020154,-0.0186 -0.020154,-0.04806 0,-0.02946 0.020154,-0.04651 0.020154,-0.0186 0.066663,-0.0186 h 0.7007324 q 0.164331,0 0.2992065,0.06821 0.1364258,0.06821 0.2077393,0.15503 0.1224731,0.147278 0.1860351,0.311609 0.044958,0.119372 0.044958,0.282153 v 0.179834 q 0,0.199988 -0.088367,0.387573 -0.088367,0.187586 -0.2945556,0.327112 -0.153479,0.102319 -0.3550171,0.102319 H 2.1976838 q -0.046509,0 -0.066663,-0.0186 -0.020154,-0.0186 -0.020154,-0.04651 0,-0.02946 0.020154,-0.04651 0.020154,-0.0186 0.066663,-0.0186 z m 0.1302246,0 h 0.4728393 q 0.1643311,0 0.306958,-0.106971 0.1441773,-0.10697 0.2154908,-0.255798 0.072864,-0.150378 0.072864,-0.296106 v -0.235644 q 0,-0.120923 -0.038757,-0.215491 -0.055811,-0.137976 -0.1581299,-0.262 -0.05581,-0.06821 -0.164331,-0.124023 -0.1085205,-0.05736 -0.2340943,-0.05736 H 2.4379792 Z"
         id="path292" />
      <path
         d="m 5.0114655,40.906014 -0.027905,0.409277 h 0.2495972 q 0.046509,0 0.066663,0.0186 0.020154,0.01705 0.020154,0.04651 0,0.02946 -0.020154,0.04806 -0.020154,0.01705 -0.066663,0.01705 H 4.9742585 l -0.05116,0.725538 q -0.0031,0.04651 -0.021704,0.06511 -0.017053,0.0186 -0.043408,0.0186 l -0.026355,-0.0062 q -0.038757,-0.02325 -0.038757,-0.06356 v -0.02325 l 0.05116,-0.716236 H 4.5494782 l -0.049609,0.725538 q -0.0031,0.04651 -0.021704,0.06511 -0.018604,0.0186 -0.043408,0.0186 l -0.027905,-0.0062 q -0.038757,-0.02325 -0.038757,-0.06356 l 0.00155,-0.02325 0.049609,-0.716236 H 4.1479523 q -0.046509,0 -0.066663,-0.01705 -0.020154,-0.0186 -0.020154,-0.04806 0,-0.02945 0.020154,-0.04651 0.020154,-0.0186 0.066663,-0.0186 h 0.280603 l 0.027905,-0.409277 H 4.2146149 q -0.048059,0 -0.068213,-0.01705 -0.020154,-0.0186 -0.020154,-0.04806 0,-0.02946 0.020154,-0.04651 0.020154,-0.0186 0.068213,-0.0186 h 0.2511475 l 0.05116,-0.725537 q 0.0031,-0.04496 0.021704,-0.06356 0.018604,-0.02015 0.043408,-0.02015 l 0.027905,0.0062 q 0.038757,0.02481 0.038757,0.06201 l -0.00155,0.02481 -0.049609,0.716235 h 0.2930053 l 0.05116,-0.725537 q 0.0031,-0.04496 0.020154,-0.06356 0.018603,-0.02015 0.044958,-0.02015 l 0.026355,0.0062 q 0.040308,0.02481 0.040308,0.06201 l -0.00155,0.02481 -0.05116,0.716235 h 0.2775025 q 0.046509,0 0.066663,0.0186 0.020154,0.01705 0.020154,0.04651 0,0.02946 -0.020154,0.04806 -0.020154,0.01705 -0.066663,0.01705 z m -0.1302246,0 H 4.5882355 l -0.029456,0.409277 h 0.2945557 z"
         id="path294" />
      <path
         d="m 7.2144318,40.013045 -1.0479981,2.244824 q -0.026355,0.05736 -0.068213,0.05736 -0.026355,0 -0.046509,-0.02015 -0.018604,-0.0186 -0.018604,-0.04186 0,-0.0186 0.015503,-0.05116 l 1.0464477,-2.244824 q 0.017053,-0.03566 0.032556,-0.04651 0.015503,-0.01085 0.037207,-0.01085 0.026355,0 0.044958,0.02015 0.020154,0.0186 0.020154,0.04186 0,0.01705 -0.015503,0.05116 z"
         id="path296" />
      <path
         d="m 8.110501,41.177315 v 0.745691 h 1.0014892 v -0.384473 q 0,-0.04651 0.017053,-0.06666 0.018604,-0.02015 0.048059,-0.02015 0.029456,0 0.046509,0.02015 0.018603,0.02015 0.018603,0.06666 V 42.05323 H 7.8050933 q -0.046509,0 -0.066663,-0.0186 -0.020154,-0.0186 -0.020154,-0.04651 0,-0.02946 0.020154,-0.04651 0.020154,-0.0186 0.066663,-0.0186 H 7.9802764 V 40.369612 H 7.8050933 q -0.046509,0 -0.066663,-0.01705 -0.020154,-0.0186 -0.020154,-0.04806 0,-0.02946 0.020154,-0.04651 0.020154,-0.0186 0.066663,-0.0186 h 1.3689086 v 0.448034 q 0,0.04651 -0.018604,0.06666 -0.017053,0.02015 -0.046509,0.02015 -0.029455,0 -0.048059,-0.02015 -0.017053,-0.02015 -0.017053,-0.06666 v -0.31781 H 8.110501 v 0.677478 h 0.4666381 v -0.147278 q 0,-0.04651 0.018604,-0.06666 0.018603,-0.02015 0.048059,-0.02015 0.027905,0 0.046509,0.02015 0.018603,0.02015 0.018603,0.06666 v 0.424781 q 0,0.04651 -0.018603,0.06666 -0.018604,0.02015 -0.046509,0.02015 -0.029455,0 -0.048059,-0.02015 -0.018604,-0.02015 -0.018604,-0.06666 v -0.147278 z"
         id="path298" />
      <path
         d="m 9.9491485,40.107613 v 0.863513 q 0.2356445,-0.306958 0.5689575,-0.306958 0.285254,0 0.488342,0.207739 0.203089,0.206189 0.203089,0.506946 0,0.303857 -0.206189,0.514697 -0.204639,0.21084 -0.485242,0.21084 -0.341064,0 -0.5689575,-0.306958 V 42.05323 H 9.6437408 q -0.046509,0 -0.066663,-0.0186 -0.020154,-0.0186 -0.020154,-0.04651 0,-0.02946 0.020154,-0.04651 0.020154,-0.0186 0.066663,-0.0186 H 9.8189239 V 40.239388 H 9.6437408 q -0.046509,0 -0.066663,-0.0186 -0.020154,-0.0186 -0.020154,-0.04806 0,-0.0279 0.020154,-0.04651 0.020154,-0.0186 0.066663,-0.0186 z m 1.1301635,1.277441 q 0,-0.246497 -0.168982,-0.417029 -0.168982,-0.172082 -0.395325,-0.172082 -0.226342,0 -0.395324,0.172082 -0.1689822,0.170532 -0.1689822,0.417029 0,0.246497 0.1689822,0.418579 0.168982,0.170532 0.395324,0.170532 0.226343,0 0.395325,-0.170532 0.168982,-0.172082 0.168982,-0.418579 z"
         id="path300" />
    </g>
    <g
       aria-label="E"
       id="text1089"
       style="font-size:3.175px;font-family:'Courier New';-inkscape-font-specification:'Courier New';text-align:center;text-anchor:middle;stroke-width:0.264583"
       transform="translate(14.338996,-2.2651706)">
      <path
         d="m 6.2904572,50.513424 v 0.745691 h 1.0014892 v -0.384473 q 0,-0.04651 0.017053,-0.06666 0.018604,-0.02015 0.048059,-0.02015 0.029456,0 0.046509,0.02015 0.018603,0.02015 0.018603,0.06666 v 0.514697 h -1.437121 q -0.046509,0 -0.066663,-0.0186 -0.020154,-0.0186 -0.020154,-0.04651 0,-0.02945 0.020154,-0.04651 0.020154,-0.0186 0.066663,-0.0186 H 6.1602326 V 49.705721 H 5.9850494 q -0.046509,0 -0.066663,-0.01705 -0.020154,-0.0186 -0.020154,-0.04806 0,-0.02946 0.020154,-0.04651 0.020154,-0.0186 0.066663,-0.0186 h 1.3689087 v 0.448034 q 0,0.04651 -0.018604,0.06666 -0.017053,0.02015 -0.046509,0.02015 -0.029456,0 -0.048059,-0.02015 -0.017053,-0.02015 -0.017053,-0.06666 v -0.31781 H 6.2904572 v 0.677478 h 0.4666381 v -0.147278 q 0,-0.04651 0.018604,-0.06666 0.018604,-0.02015 0.048059,-0.02015 0.027905,0 0.046509,0.02015 0.018604,0.02015 0.018604,0.06666 v 0.424781 q 0,0.04651 -0.018604,0.06666 -0.018604,0.02015 -0.046509,0.02015 -0.029456,0 -0.048059,-0.02015 -0.018604,-0.02015 -0.018604,-0.06666 v -0.147278 z"
         id="path303" />
    </g>
    <g
       aria-label="F"
       id="text1093"
       style="font-size:3.175px;font-family:'Courier New';-inkscape-font-specification:'Courier New';text-align:center;text-anchor:middle;stroke-width:0.264583"
       transform="translate(14.340546,-0.83549603)">
      <path
         d="m 6.2920075,59.587536 v 0.745691 h 0.4464843 q 0.046509,0 0.066663,0.0186 0.020154,0.01705 0.020154,0.04651 0,0.0279 -0.020154,0.04651 -0.020154,0.0186 -0.066663,0.0186 H 5.9865997 q -0.046509,0 -0.066663,-0.0186 -0.020154,-0.0186 -0.020154,-0.04651 0,-0.02945 0.020154,-0.04651 0.020154,-0.0186 0.066663,-0.0186 H 6.1617828 V 58.779833 H 5.9865997 q -0.046509,0 -0.066663,-0.01705 -0.020154,-0.0186 -0.020154,-0.04806 0,-0.02946 0.023254,-0.04961 0.017053,-0.0155 0.063562,-0.0155 h 1.434021 v 0.448034 q 0,0.04651 -0.018603,0.06666 -0.018604,0.02015 -0.046509,0.02015 -0.029456,0 -0.048059,-0.02015 -0.018604,-0.02015 -0.018604,-0.06666 v -0.31781 H 6.2920075 v 0.677478 h 0.4666381 v -0.147278 q 0,-0.04651 0.018603,-0.06666 0.018604,-0.02015 0.048059,-0.02015 0.027905,0 0.046509,0.02015 0.018604,0.02015 0.018604,0.06666 v 0.424781 q 0,0.04651 -0.018604,0.06666 -0.018604,0.02015 -0.046509,0.02015 -0.029456,0 -0.048059,-0.02015 -0.018603,-0.02015 -0.018603,-0.06666 V 59.58754 Z"
         id="path306" />
    </g>
    <g
       aria-label="F#/Gb"
       id="text1097"
       style="font-size:3.175px;font-family:'Courier New';-inkscape-font-specification:'Courier New';text-align:center;text-anchor:middle;stroke-width:0.264583"
       transform="translate(10.552404,0.59417253)">
      <path
         d="m 2.5038669,69.001167 v 0.745691 h 0.4464844 q 0.046509,0 0.066663,0.0186 0.020154,0.01705 0.020154,0.04651 0,0.02791 -0.020154,0.04651 -0.020154,0.0186 -0.066663,0.0186 H 2.1984592 q -0.046509,0 -0.066663,-0.0186 -0.020154,-0.0186 -0.020154,-0.04651 0,-0.02946 0.020154,-0.04651 0.020154,-0.0186 0.066663,-0.0186 H 2.3736423 V 68.193465 H 2.1984592 q -0.046509,0 -0.066663,-0.01705 -0.020154,-0.0186 -0.020154,-0.04806 0,-0.02946 0.023254,-0.04961 0.017053,-0.0155 0.063562,-0.0155 h 1.434021 v 0.448035 q 0,0.04651 -0.018603,0.06666 -0.018604,0.02015 -0.046509,0.02015 -0.029456,0 -0.048059,-0.02015 -0.018604,-0.02015 -0.018604,-0.06666 V 68.19347 H 2.5038669 v 0.677478 H 2.9705051 V 68.72367 q 0,-0.04651 0.018603,-0.06666 0.018604,-0.02015 0.048059,-0.02015 0.027905,0 0.046509,0.02015 0.018603,0.02015 0.018603,0.06666 v 0.42478 q 0,0.04651 -0.018603,0.06666 -0.018604,0.02015 -0.046509,0.02015 -0.029456,0 -0.048059,-0.02015 -0.018603,-0.02015 -0.018603,-0.06666 v -0.147278 z"
         id="path309" />
      <path
         d="m 5.0106906,68.729866 -0.027905,0.409277 h 0.2495972 q 0.046509,0 0.066663,0.0186 0.020154,0.01705 0.020154,0.04651 0,0.02945 -0.020154,0.04806 -0.020154,0.01705 -0.066663,0.01705 H 4.9734836 l -0.05116,0.725537 q -0.0031,0.04651 -0.021704,0.06511 -0.017053,0.0186 -0.043408,0.0186 l -0.026355,-0.0062 q -0.038757,-0.02325 -0.038757,-0.06356 v -0.02326 l 0.05116,-0.716235 H 4.5487033 l -0.049609,0.725537 q -0.0031,0.04651 -0.021704,0.06511 -0.018604,0.0186 -0.043408,0.0186 l -0.027905,-0.0062 q -0.038757,-0.02325 -0.038757,-0.06356 l 0.00155,-0.02326 0.049609,-0.716235 H 4.1471775 q -0.046509,0 -0.066663,-0.01705 -0.020154,-0.0186 -0.020154,-0.04806 0,-0.02946 0.020154,-0.04651 0.020154,-0.0186 0.066663,-0.0186 h 0.280603 L 4.4556855,68.72985 H 4.21384 q -0.048059,0 -0.068213,-0.01705 -0.020154,-0.0186 -0.020154,-0.04806 0,-0.02946 0.020154,-0.04651 0.020154,-0.0186 0.068213,-0.0186 h 0.2511475 l 0.05116,-0.725537 q 0.0031,-0.04496 0.021704,-0.06356 0.018604,-0.02015 0.043408,-0.02015 l 0.027905,0.0062 q 0.038757,0.0248 0.038757,0.06201 l -0.00155,0.02481 -0.049609,0.716235 h 0.2930054 l 0.05116,-0.725537 q 0.0031,-0.04496 0.020154,-0.06356 0.018604,-0.02015 0.044958,-0.02015 l 0.026355,0.0062 q 0.040308,0.0248 0.040308,0.06201 l -0.00155,0.02481 -0.05116,0.716235 h 0.2775024 q 0.046509,0 0.066663,0.0186 0.020154,0.01705 0.020154,0.04651 0,0.02945 -0.020154,0.04806 -0.020154,0.01705 -0.066663,0.01705 z m -0.1302246,0 H 4.5874606 l -0.029456,0.409277 h 0.2945556 z"
         id="path311" />
      <path
         d="m 7.2136569,67.836897 -1.047998,2.244824 q -0.026355,0.05736 -0.068213,0.05736 -0.026355,0 -0.046509,-0.02015 -0.018604,-0.0186 -0.018604,-0.04186 0,-0.0186 0.015503,-0.05116 l 1.0464477,-2.244824 q 0.017053,-0.03566 0.032556,-0.04651 0.015503,-0.01085 0.037207,-0.01085 0.026355,0 0.044958,0.02015 0.020154,0.0186 0.020154,0.04186 0,0.01705 -0.015503,0.05116 z"
         id="path313" />
      <path
         d="m 9.24144,69.204256 v 0.558105 q -0.1488282,0.08217 -0.2976563,0.124024 -0.1472778,0.04186 -0.2945556,0.04186 -0.2092896,0 -0.3689698,-0.06201 Q 8.1221285,69.804219 8.0120577,69.692598 7.9019869,69.580977 7.8399751,69.443001 7.7795137,69.305025 7.7795137,69.092635 v -0.238746 q 0,-0.21394 0.1054199,-0.415478 0.1069702,-0.203088 0.2914551,-0.310059 0.1844849,-0.10697 0.4015259,-0.10697 0.3147094,0 0.5317505,0.172083 0,-0.07596 0.00465,-0.09147 0.0062,-0.0155 0.023254,-0.02635 0.017053,-0.0124 0.038757,-0.0124 0.027905,0 0.046509,0.02015 0.018604,0.02015 0.018604,0.06666 v 0.294556 q 0,0.04806 -0.018604,0.06821 -0.018604,0.0186 -0.046509,0.0186 -0.026355,0 -0.044958,-0.01705 -0.017053,-0.0186 -0.018604,-0.06356 -0.0093,-0.131775 -0.1720825,-0.21549 -0.1612304,-0.08372 -0.3519165,-0.08372 -0.179834,0 -0.3255615,0.07906 -0.1441772,0.07751 -0.269751,0.297656 -0.083716,0.144177 -0.083716,0.327112 v 0.237195 q 0,0.324011 0.1984375,0.514697 0.1984375,0.190686 0.5472534,0.190686 0.1178223,0 0.2185913,-0.02481 0.1007691,-0.0248 0.2356446,-0.08682 v -0.482121 h -0.448033 q -0.046509,0 -0.066663,-0.01705 -0.020154,-0.0186 -0.020154,-0.04806 0,-0.02945 0.020154,-0.04806 0.020154,-0.0186 0.066663,-0.0186 l 0.6263183,0.0016 q 0.046509,0 0.066663,0.0186 0.020154,0.01705 0.020154,0.04651 0,0.02015 -0.012402,0.03721 -0.012402,0.01705 -0.027905,0.02326 -0.015503,0.0047 -0.093017,0.0047 z"
         id="path315" />
      <path
         d="m 9.9483737,67.931465 v 0.863513 q 0.2356443,-0.306958 0.5689573,-0.306958 0.285254,0 0.488342,0.20774 0.203089,0.206189 0.203089,0.506945 0,0.303858 -0.206189,0.514698 -0.204639,0.210839 -0.485242,0.210839 -0.341064,0 -0.5689573,-0.306958 v 0.255799 H 9.642966 q -0.046509,0 -0.066663,-0.0186 -0.020154,-0.0186 -0.020154,-0.04651 0,-0.02946 0.020154,-0.04651 0.020154,-0.0186 0.066663,-0.0186 H 9.8181491 V 68.06324 H 9.642966 q -0.046509,0 -0.066663,-0.0186 -0.020154,-0.0186 -0.020154,-0.04806 0,-0.02791 0.020154,-0.04651 0.020154,-0.0186 0.066663,-0.0186 z m 1.1301633,1.277442 q 0,-0.246497 -0.168982,-0.417029 -0.168982,-0.172083 -0.395324,-0.172083 -0.226343,0 -0.395325,0.172083 -0.168982,0.170532 -0.168982,0.417029 0,0.246496 0.168982,0.418579 0.168982,0.170532 0.395325,0.170532 0.226342,0 0.395324,-0.170532 0.168982,-0.172083 0.168982,-0.418579 z"
         id="path317" />
    </g>
    <g
       aria-label="G"
       id="text1101"
       style="font-size:3.175px;font-family:'Courier New';-inkscape-font-specification:'Courier New';text-align:center;text-anchor:middle;stroke-width:0.264583"
       transform="translate(14.303337,2.0238521)">
      <path
         d="m 7.3245028,78.582224 v 0.558105 q -0.1488281,0.08217 -0.2976562,0.124023 -0.1472778,0.04186 -0.2945557,0.04186 -0.2092895,0 -0.3689697,-0.06201 Q 6.2051913,79.182187 6.0951205,79.070566 5.9850497,78.958945 5.923038,78.820969 5.8625766,78.682993 5.8625766,78.470602 v -0.238745 q 0,-0.21394 0.1054199,-0.415478 0.1069702,-0.203089 0.2914551,-0.310059 0.1844848,-0.10697 0.4015259,-0.10697 0.3147094,0 0.5317504,0.172083 0,-0.07596 0.00465,-0.09147 0.0062,-0.0155 0.023254,-0.02636 0.017053,-0.0124 0.038757,-0.0124 0.027905,0 0.046509,0.02015 0.018604,0.02015 0.018604,0.06666 v 0.294556 q 0,0.04806 -0.018604,0.06821 -0.018604,0.0186 -0.046509,0.0186 -0.026355,0 -0.044958,-0.01705 -0.017053,-0.0186 -0.018604,-0.06356 -0.0093,-0.131775 -0.1720825,-0.215491 -0.1612305,-0.08372 -0.3519165,-0.08372 -0.179834,0 -0.3255615,0.07906 -0.1441773,0.07751 -0.269751,0.297656 -0.083716,0.144177 -0.083716,0.327112 v 0.237194 q 0,0.324012 0.1984375,0.514698 0.1984375,0.190686 0.5472534,0.190686 0.1178223,0 0.2185913,-0.02481 0.1007691,-0.02481 0.2356445,-0.08682 v -0.48211 H 6.7446933 q -0.046509,0 -0.066663,-0.01705 -0.020154,-0.0186 -0.020154,-0.04806 0,-0.02945 0.020154,-0.04806 0.020154,-0.0186 0.066663,-0.0186 l 0.6263183,0.0015 q 0.046509,0 0.066663,0.0186 0.020154,0.01705 0.020154,0.04651 0,0.02015 -0.012402,0.03721 -0.012402,0.01705 -0.027905,0.02326 -0.015503,0.0047 -0.093018,0.0047 z"
         id="path320" />
    </g>
    <g
       aria-label="G#/Ab"
       id="text1105"
       style="font-size:3.175px;font-family:'Courier New';-inkscape-font-specification:'Courier New';text-align:center;text-anchor:middle;stroke-width:0.264583"
       transform="translate(10.528375,3.4535346)">
      <path
         d="m 3.5495392,88.047006 v 0.558106 q -0.1488281,0.08216 -0.2976562,0.124023 -0.1472778,0.04186 -0.2945557,0.04186 -0.2092895,0 -0.3689697,-0.06201 Q 2.4302277,88.64697 2.3201569,88.535349 2.2100861,88.423727 2.1480744,88.285751 2.087613,88.147775 2.087613,87.935385 V 87.69664 q 0,-0.21394 0.1054199,-0.415478 0.1069702,-0.203089 0.2914551,-0.310059 0.1844848,-0.10697 0.4015259,-0.10697 0.3147094,0 0.5317504,0.172082 0,-0.07596 0.00465,-0.09147 0.0062,-0.0155 0.023254,-0.02636 0.017053,-0.0124 0.038757,-0.0124 0.027905,0 0.046509,0.02015 0.018603,0.02015 0.018603,0.06666 v 0.294556 q 0,0.04806 -0.018603,0.06821 -0.018604,0.0186 -0.046509,0.0186 -0.026355,0 -0.044958,-0.01705 -0.017053,-0.0186 -0.018603,-0.06356 -0.0093,-0.131775 -0.1720825,-0.215491 -0.1612305,-0.08372 -0.3519165,-0.08372 -0.179834,0 -0.3255615,0.07906 -0.1441773,0.07752 -0.269751,0.297657 -0.083716,0.144177 -0.083716,0.327111 v 0.237195 q 0,0.324011 0.1984375,0.514697 0.1984375,0.190686 0.5472534,0.190686 0.1178223,0 0.2185913,-0.0248 0.100769,-0.02481 0.2356445,-0.08682 v -0.48212 H 2.9697297 q -0.046509,0 -0.066663,-0.01705 -0.020154,-0.0186 -0.020154,-0.04806 0,-0.02946 0.020154,-0.04806 0.020154,-0.0186 0.066663,-0.0186 l 0.6263183,0.0016 q 0.046509,0 0.066663,0.0186 0.020154,0.01705 0.020154,0.04651 0,0.02015 -0.012402,0.03721 -0.012402,0.01705 -0.027905,0.02325 -0.015503,0.0047 -0.093018,0.0047 z"
         id="path323" />
      <path
         d="m 5.0347199,87.572617 -0.027905,0.409277 h 0.2495972 q 0.046509,0 0.066663,0.0186 0.020154,0.01705 0.020154,0.04651 0,0.02946 -0.020154,0.04806 -0.020154,0.01705 -0.066663,0.01705 h -0.258899 l -0.05116,0.725537 q -0.0031,0.04651 -0.021704,0.06511 -0.017053,0.0186 -0.043408,0.0186 l -0.026355,-0.0062 q -0.038757,-0.02325 -0.038757,-0.06356 v -0.02325 l 0.05116,-0.716235 H 4.5727326 l -0.049609,0.725537 q -0.0031,0.04651 -0.021704,0.06511 -0.018603,0.0186 -0.043408,0.0186 l -0.027905,-0.0062 q -0.038757,-0.02325 -0.038757,-0.06356 l 0.00155,-0.02325 0.049609,-0.716235 H 4.1712067 q -0.046509,0 -0.066663,-0.01705 -0.020154,-0.0186 -0.020154,-0.04806 0,-0.02945 0.020154,-0.04651 0.020154,-0.0186 0.066663,-0.0186 h 0.280603 L 4.479715,87.572617 H 4.2378693 q -0.048059,0 -0.068213,-0.01705 -0.020154,-0.0186 -0.020154,-0.04806 0,-0.02945 0.020154,-0.04651 0.020154,-0.0186 0.068213,-0.0186 h 0.2511475 l 0.05116,-0.725537 q 0.0031,-0.04496 0.021704,-0.06356 0.018604,-0.02015 0.043408,-0.02015 l 0.027905,0.0062 q 0.038757,0.02481 0.038757,0.06201 l -0.00155,0.02481 -0.049609,0.716235 H 4.913797 l 0.05116,-0.725537 q 0.0031,-0.04496 0.020154,-0.06356 0.018604,-0.02015 0.044958,-0.02015 l 0.026355,0.0062 q 0.040308,0.02481 0.040308,0.06201 l -0.00155,0.02481 -0.05116,0.716235 h 0.2775025 q 0.046509,0 0.066663,0.0186 0.020154,0.01705 0.020154,0.04651 0,0.02946 -0.020154,0.04806 -0.020154,0.01705 -0.066663,0.01705 z m -0.1302246,0 H 4.6114899 l -0.029456,0.409277 H 4.87659 Z"
         id="path325" />
      <path
         d="m 7.2376862,86.679648 -1.0479981,2.244824 q -0.026355,0.05736 -0.068213,0.05736 -0.026355,0 -0.046509,-0.02015 -0.018604,-0.0186 -0.018604,-0.04186 0,-0.0186 0.015503,-0.05116 l 1.0464477,-2.244824 q 0.017053,-0.03566 0.032556,-0.04651 0.015503,-0.01085 0.037207,-0.01085 0.026355,0 0.044958,0.02015 0.020154,0.0186 0.020154,0.04186 0,0.01705 -0.015503,0.05116 z"
         id="path327" />
      <path
         d="M 8.9864165,88.113669 H 8.1306548 l -0.1751831,0.47594 h 0.2495971 q 0.046509,0 0.066663,0.0186 0.020154,0.01705 0.020154,0.04651 0,0.02791 -0.020154,0.04651 -0.020154,0.0186 -0.066663,0.0186 H 7.7182769 q -0.046509,0 -0.066663,-0.0186 -0.020154,-0.0186 -0.020154,-0.04651 0,-0.02945 0.020154,-0.04651 0.020154,-0.0186 0.066663,-0.0186 h 0.100769 L 8.3942046,87.036215 H 8.0097319 q -0.046509,0 -0.066663,-0.01705 -0.020154,-0.0186 -0.020154,-0.04806 0,-0.02946 0.020154,-0.04651 0.020154,-0.0186 0.066663,-0.0186 h 0.6557739 l 0.6356202,1.683618 h 0.100769 q 0.046509,0 0.066663,0.0186 0.020154,0.01705 0.020154,0.04651 0,0.02791 -0.020154,0.04651 -0.020154,0.0186 -0.066663,0.0186 H 8.9166533 q -0.048059,0 -0.068213,-0.0186 -0.020154,-0.0186 -0.020154,-0.04651 0,-0.02945 0.020154,-0.04651 0.020154,-0.0186 0.068213,-0.0186 h 0.2480469 z m -0.049609,-0.130225 -0.359668,-0.947229 h -0.048059 l -0.3488159,0.947229 z"
         id="path329" />
      <path
         d="m 9.9724029,86.774216 v 0.863513 q 0.2356441,-0.306958 0.5689571,-0.306958 0.285254,0 0.488343,0.207739 0.203088,0.206189 0.203088,0.506946 0,0.303857 -0.206189,0.514697 -0.204639,0.21084 -0.485242,0.21084 -0.341064,0 -0.5689571,-0.306958 v 0.255798 H 9.6669952 q -0.046509,0 -0.066663,-0.0186 -0.020154,-0.0186 -0.020154,-0.04651 0,-0.02945 0.020154,-0.04651 0.020154,-0.0186 0.066663,-0.0186 H 9.8421783 V 86.905991 H 9.6669952 q -0.046509,0 -0.066663,-0.0186 -0.020154,-0.0186 -0.020154,-0.04806 0,-0.0279 0.020154,-0.04651 0.020154,-0.0186 0.066663,-0.0186 z m 1.1301631,1.277441 q 0,-0.246496 -0.168981,-0.417029 -0.168982,-0.172082 -0.395325,-0.172082 -0.226343,0 -0.395325,0.172082 -0.1689818,0.170533 -0.1689818,0.417029 0,0.246497 0.1689818,0.418579 0.168982,0.170532 0.395325,0.170532 0.226343,0 0.395325,-0.170532 0.168981,-0.172082 0.168981,-0.418579 z"
         id="path331" />
    </g>
    <g
       aria-label="A"
       id="text1109"
       style="font-size:3.175px;font-family:'Courier New';-inkscape-font-specification:'Courier New';text-align:center;text-anchor:middle;stroke-width:0.264583"
       transform="translate(14.172338,4.8832072)">
      <path
         d="M 7.086533,97.449782 H 6.2307713 l -0.1751831,0.47594 h 0.2495971 q 0.046509,0 0.066663,0.0186 0.020154,0.01705 0.020154,0.04651 0,0.0279 -0.020154,0.04651 -0.020154,0.0186 -0.066663,0.0186 h -0.486792 q -0.046509,0 -0.066663,-0.0186 -0.020154,-0.0186 -0.020154,-0.04651 0,-0.02946 0.020154,-0.04651 0.020154,-0.0186 0.066663,-0.0186 H 5.9191624 L 6.4943211,96.372328 H 6.1098484 q -0.046509,0 -0.066663,-0.01705 -0.020154,-0.0186 -0.020154,-0.04806 0,-0.02946 0.020154,-0.04651 0.020154,-0.0186 0.066663,-0.0186 h 0.6557739 l 0.6356201,1.683618 h 0.1007691 q 0.046509,0 0.066663,0.0186 0.020154,0.01705 0.020154,0.04651 0,0.0279 -0.020154,0.04651 -0.020154,0.0186 -0.066663,0.0186 H 7.0167698 q -0.048059,0 -0.068213,-0.0186 -0.020154,-0.0186 -0.020154,-0.04651 0,-0.02946 0.020154,-0.04651 0.020154,-0.0186 0.068213,-0.0186 H 7.2648167 Z M 7.036924,97.319557 6.677256,96.372328 H 6.629197 l -0.3488159,0.947229 z"
         id="path334" />
    </g>
    <g
       aria-label="A#/Bb"
       id="text1113"
       style="font-size:3.175px;font-family:'Courier New';-inkscape-font-specification:'Courier New';text-align:center;text-anchor:middle;stroke-width:0.264583"
       transform="translate(10.496594,6.5207517)">
      <path
         d="M 3.3022677,106.65567 H 2.446506 l -0.1751831,0.47594 h 0.2495972 q 0.046509,0 0.066663,0.0186 0.020154,0.0171 0.020154,0.0465 0,0.0279 -0.020154,0.0465 -0.020154,0.0186 -0.066663,0.0186 h -0.486792 q -0.046509,0 -0.066663,-0.0186 -0.020154,-0.0186 -0.020154,-0.0465 0,-0.0294 0.020154,-0.0465 0.020154,-0.0186 0.066663,-0.0186 h 0.100769 l 0.5751587,-1.55339 H 2.3255831 q -0.046509,0 -0.066663,-0.0171 -0.020154,-0.0186 -0.020154,-0.0481 0,-0.0294 0.020154,-0.0465 0.020154,-0.0186 0.066663,-0.0186 h 0.655774 l 0.6356201,1.68362 h 0.100769 q 0.046509,0 0.066663,0.0186 0.020154,0.0171 0.020154,0.0465 0,0.0279 -0.020154,0.0465 -0.020154,0.0186 -0.066663,0.0186 H 3.2325045 q -0.048059,0 -0.068213,-0.0186 -0.020154,-0.0186 -0.020154,-0.0465 0,-0.0294 0.020154,-0.0465 0.020154,-0.0186 0.068213,-0.0186 h 0.2480469 z m -0.049609,-0.13023 -0.3596679,-0.94722 h -0.048059 l -0.3488159,0.94722 z"
         id="path337" />
      <path
         d="m 5.0665011,106.11462 -0.027905,0.40927 H 5.288193 q 0.046509,0 0.066663,0.0186 0.020154,0.017 0.020154,0.0465 0,0.0294 -0.020154,0.0481 -0.020154,0.0171 -0.066663,0.0171 H 5.029294 l -0.05116,0.72554 q -0.0031,0.0465 -0.021704,0.0651 -0.017053,0.0186 -0.043408,0.0186 l -0.026355,-0.006 q -0.038757,-0.0233 -0.038757,-0.0636 v -0.0233 L 4.89907,106.6543 H 4.6045138 l -0.049609,0.72554 q -0.0031,0.0465 -0.021704,0.0651 -0.018604,0.0186 -0.043408,0.0186 l -0.027905,-0.006 q -0.038757,-0.0233 -0.038757,-0.0636 l 0.00155,-0.0233 0.049609,-0.71623 H 4.2029879 q -0.046509,0 -0.066663,-0.0171 -0.020154,-0.0186 -0.020154,-0.0481 0,-0.0295 0.020154,-0.0465 0.020154,-0.0186 0.066663,-0.0186 h 0.280603 l 0.027905,-0.40927 H 4.2696505 q -0.048059,0 -0.068213,-0.0171 -0.020154,-0.0186 -0.020154,-0.0481 0,-0.0294 0.020154,-0.0465 0.020154,-0.0186 0.068213,-0.0186 H 4.520798 l 0.05116,-0.72554 q 0.0031,-0.045 0.021704,-0.0636 0.018604,-0.0202 0.043408,-0.0202 l 0.027905,0.006 q 0.038757,0.0248 0.038757,0.062 l -0.00155,0.0248 -0.049609,0.71623 h 0.2930053 l 0.05116,-0.72554 q 0.0031,-0.045 0.020154,-0.0636 0.018603,-0.0202 0.044958,-0.0202 l 0.026355,0.006 q 0.040308,0.0248 0.040308,0.062 l -0.00155,0.0248 -0.05116,0.71623 h 0.2775025 q 0.046509,0 0.066663,0.0186 0.020154,0.017 0.020154,0.0465 0,0.0295 -0.020154,0.0481 -0.020154,0.0171 -0.066663,0.0171 z m -0.1302246,0 H 4.6432711 l -0.029456,0.40927 h 0.2945557 z"
         id="path339" />
      <path
         d="m 7.2694674,105.22165 -1.0479981,2.24482 q -0.026355,0.0574 -0.068213,0.0574 -0.026355,0 -0.046509,-0.0202 -0.018604,-0.0186 -0.018604,-0.0419 0,-0.0186 0.015503,-0.0512 l 1.0464477,-2.24482 q 0.017053,-0.0357 0.032556,-0.0465 0.015503,-0.0109 0.037207,-0.0109 0.026355,0 0.044958,0.0202 0.020154,0.0186 0.020154,0.0419 0,0.017 -0.015503,0.0512 z"
         id="path341" />
      <path
         d="m 8.0337617,107.13161 v -1.55339 H 7.8585786 q -0.046509,0 -0.066663,-0.0171 -0.020154,-0.0186 -0.020154,-0.0481 0,-0.0294 0.020154,-0.0465 0.020154,-0.0186 0.066663,-0.0186 h 0.8185546 q 0.243396,0 0.3953247,0.14108 0.153479,0.13952 0.153479,0.32866 0,0.23874 -0.2557983,0.38602 0.2030884,0.0729 0.2976562,0.19379 0.094568,0.12092 0.094568,0.26665 0,0.13022 -0.062012,0.23874 -0.062012,0.10697 -0.190686,0.18294 -0.1271241,0.076 -0.2775025,0.076 H 7.8585786 q -0.046509,0 -0.066663,-0.0186 -0.020154,-0.0186 -0.020154,-0.0465 0,-0.0294 0.020154,-0.0465 0.020154,-0.0186 0.066663,-0.0186 z m 0.1302246,-0.87747 h 0.460437 q 0.1472778,0 0.2697509,-0.0543 0.094568,-0.0434 0.1472779,-0.12557 0.05271,-0.0822 0.05271,-0.16743 0,-0.12248 -0.1147216,-0.2248 -0.1147217,-0.10386 -0.2992066,-0.10386 H 8.1639863 Z m 0,0.87747 h 0.6588745 q 0.1255737,0 0.2185913,-0.0558 0.093018,-0.0558 0.1410766,-0.13798 0.048059,-0.0822 0.048059,-0.17053 0,-0.0992 -0.069763,-0.19224 -0.068213,-0.093 -0.190686,-0.14107 -0.1224731,-0.0481 -0.3379639,-0.0481 H 8.1639863 Z"
         id="path343" />
      <path
         d="m 10.004184,105.31622 v 0.86351 q 0.235645,-0.30696 0.568958,-0.30696 0.285254,0 0.488342,0.20774 0.203088,0.20619 0.203088,0.50695 0,0.30385 -0.206189,0.51469 -0.204638,0.21084 -0.485241,0.21084 -0.341065,0 -0.568958,-0.30696 v 0.2558 H 9.6987764 q -0.046509,0 -0.066663,-0.0186 -0.020154,-0.0186 -0.020154,-0.0465 0,-0.0294 0.020154,-0.0465 0.020154,-0.0186 0.066663,-0.0186 h 0.1751831 v -1.68362 H 9.6987764 q -0.046509,0 -0.066663,-0.0186 -0.020154,-0.0186 -0.020154,-0.0481 0,-0.0279 0.020154,-0.0465 0.020154,-0.0186 0.066663,-0.0186 z m 1.130164,1.27744 q 0,-0.2465 -0.168982,-0.41703 -0.168982,-0.17208 -0.395325,-0.17208 -0.226343,0 -0.395325,0.17208 -0.168982,0.17053 -0.168982,0.41703 0,0.24649 0.168982,0.41858 0.168982,0.17053 0.395325,0.17053 0.226343,0 0.395325,-0.17053 0.168982,-0.17209 0.168982,-0.41858 z"
         id="path345" />
    </g>
    <g
       aria-label="B"
       id="text1117"
       style="font-size:3.175px;font-family:'Courier New';-inkscape-font-specification:'Courier New';text-align:center;text-anchor:middle;stroke-width:0.264583"
       transform="translate(14.305663,8.1612903)">
      <path
         d="m 6.1269015,116.25688 v -1.5534 H 5.9517184 q -0.046509,0 -0.066663,-0.017 -0.020154,-0.0186 -0.020154,-0.0481 0,-0.0295 0.020154,-0.0465 0.020154,-0.0186 0.066663,-0.0186 h 0.8185547 q 0.243396,0 0.3953247,0.14107 0.153479,0.13953 0.153479,0.32867 0,0.23874 -0.2557983,0.38602 0.2030884,0.0729 0.2976562,0.19379 0.094568,0.12092 0.094568,0.26665 0,0.13022 -0.062012,0.23874 -0.062012,0.10697 -0.1906861,0.18294 -0.127124,0.076 -0.2775024,0.076 h -0.973584 q -0.046509,0 -0.066663,-0.0186 -0.020154,-0.0186 -0.020154,-0.0465 0,-0.0295 0.020154,-0.0465 0.020154,-0.0186 0.066663,-0.0186 z m 0.1302246,-0.87747 h 0.4604371 q 0.1472778,0 0.2697509,-0.0543 0.094568,-0.0434 0.1472779,-0.12557 0.05271,-0.0822 0.05271,-0.16744 0,-0.12247 -0.1147217,-0.22479 -0.1147216,-0.10387 -0.2992065,-0.10387 H 6.2571261 Z m 0,0.87747 h 0.6588745 q 0.1255738,0 0.2185914,-0.0558 0.093018,-0.0558 0.1410766,-0.13798 0.048059,-0.0822 0.048059,-0.17053 0,-0.0992 -0.069763,-0.19224 -0.068213,-0.093 -0.190686,-0.14108 -0.1224732,-0.0481 -0.3379639,-0.0481 H 6.2571261 Z"
         id="path348" />
    </g>
    <g
       aria-label="in"
       id="text495"
       style="font-size:3.175px;font-family:'Courier New';-inkscape-font-specification:'Courier New';text-align:center;text-anchor:middle;stroke-width:0.264583"
       transform="translate(1.951613,0.88709674)">
      <path
         d="M 1.7729725,9.3441084 V 9.680522 H 1.5807362 V 9.3441084 Z m 0.00465,0.6681766 v 1.212329 h 0.5115967 q 0.048059,0 0.068213,0.0186 0.020154,0.01705 0.020154,0.04651 0,0.02791 -0.020154,0.04651 -0.020154,0.0186 -0.068213,0.0186 h -1.153418 q -0.046509,0 -0.066663,-0.0186 -0.020154,-0.0186 -0.020154,-0.04651 0,-0.02946 0.020154,-0.04651 0.020154,-0.0186 0.066663,-0.0186 H 1.6473988 V 10.14406 H 1.267577 q -0.046509,0 -0.068213,-0.0186 -0.020154,-0.0186 -0.020154,-0.04651 0,-0.02945 0.020154,-0.04806 0.020154,-0.0186 0.068213,-0.0186 z"
         id="path551" />
      <path
         d="m 3.1930409,10.012285 v 0.196887 q 0.1364258,-0.137976 0.2464966,-0.190686 0.1100708,-0.05271 0.2480468,-0.05271 0.1488282,0 0.2713013,0.063562 0.086816,0.04651 0.1565796,0.155029 0.071313,0.10697 0.071313,0.220142 v 0.820105 H 4.296849 q 0.046509,0 0.066663,0.0186 0.020154,0.01705 0.020154,0.04651 0,0.02791 -0.020154,0.04651 -0.020154,0.0186 -0.066663,0.0186 H 3.9480336 q -0.048059,0 -0.068213,-0.0186 -0.020154,-0.0186 -0.020154,-0.04651 0,-0.02946 0.020154,-0.04651 0.020154,-0.0186 0.068213,-0.0186 h 0.1085205 v -0.798401 q 0,-0.137976 -0.1007691,-0.232544 -0.100769,-0.09612 -0.269751,-0.09612 -0.1286743,0 -0.2232421,0.05271 -0.094568,0.05116 -0.269751,0.257348 v 0.817005 h 0.1472778 q 0.046509,0 0.066663,0.0186 0.020154,0.01705 0.020154,0.04651 0,0.02791 -0.020154,0.04651 -0.020154,0.0186 -0.066663,0.0186 H 2.9155385 q -0.046509,0 -0.066663,-0.0186 -0.020154,-0.0186 -0.020154,-0.04651 0,-0.02946 0.020154,-0.04651 0.020154,-0.0186 0.066663,-0.0186 H 3.0628163 V 10.14406 H 2.9527455 q -0.046509,0 -0.066663,-0.0186 -0.020154,-0.0186 -0.020154,-0.04806 0,-0.0279 0.020154,-0.04651 0.020154,-0.0186 0.066663,-0.0186 z"
         id="path553" />
    </g>
    <g
       aria-label="out"
       id="text499"
       style="font-size:3.175px;font-family:'Courier New';-inkscape-font-specification:'Courier New';text-align:center;text-anchor:middle;stroke-width:0.264583"
       transform="translate(1.4193549,4.2580644)">
      <path
         d="m 2.9031976,113.41247 q 0,0.29765 -0.2139404,0.50849 -0.2123902,0.21084 -0.513147,0.21084 -0.3038574,0 -0.5162475,-0.21084 -0.2123902,-0.21239 -0.2123902,-0.50849 0,-0.29766 0.2123902,-0.5085 0.2123901,-0.21239 0.5162475,-0.21239 0.3007568,0 0.513147,0.21084 0.2139404,0.21084 0.2139404,0.51005 z m -0.1317749,0 q 0,-0.24495 -0.1751831,-0.41703 -0.1736328,-0.17208 -0.4216797,-0.17208 -0.2480469,0 -0.42323,0.17363 -0.1736328,0.17208 -0.1736328,0.41548 0,0.24184 0.1736328,0.41547 0.1751831,0.17364 0.42323,0.17364 0.2480469,0 0.4216797,-0.17208 0.1751831,-0.17364 0.1751831,-0.41703 z"
         id="path556" />
      <path
         d="m 4.5263543,114.08064 v -0.19068 q -0.2666504,0.24184 -0.576709,0.24184 -0.190686,0 -0.2899047,-0.10387 -0.1286744,-0.13642 -0.1286744,-0.31781 v -0.84026 H 3.3558831 q -0.046509,0 -0.066663,-0.0186 -0.020154,-0.0186 -0.020154,-0.0481 0,-0.0279 0.020154,-0.0465 0.020154,-0.0186 0.066663,-0.0186 h 0.3054077 v 0.97203 q 0,0.12713 0.080615,0.20929 0.080615,0.0822 0.2015381,0.0822 0.31781,0 0.5829101,-0.29146 v -0.84026 H 4.2860589 q -0.046509,0 -0.066663,-0.0186 -0.020154,-0.0186 -0.020154,-0.0481 0,-0.0279 0.020154,-0.0465 0.020154,-0.0186 0.066663,-0.0186 h 0.37052 v 1.21233 h 0.1100708 q 0.046509,0 0.066663,0.0186 0.020154,0.017 0.020154,0.0465 0,0.0279 -0.020154,0.0465 -0.020154,0.0186 -0.066663,0.0186 z"
         id="path558" />
      <path
         d="m 5.7185296,112.73809 h 0.7069336 q 0.046509,0 0.066663,0.0186 0.020154,0.0186 0.020154,0.0481 0,0.0279 -0.020154,0.0465 -0.020154,0.0186 -0.066663,0.0186 H 5.7185296 v 0.86662 q 0,0.11317 0.089917,0.18913 0.091467,0.076 0.2666504,0.076 0.1317749,0 0.2852539,-0.0388 0.153479,-0.0403 0.2387451,-0.0899 0.031006,-0.0202 0.05116,-0.0202 0.024805,0 0.043408,0.0202 0.018604,0.0186 0.018604,0.045 0,0.0233 -0.020154,0.0434 -0.049609,0.0512 -0.2418457,0.11162 -0.1906861,0.0589 -0.3658692,0.0589 -0.227893,0 -0.3627685,-0.10697 -0.1348755,-0.10697 -0.1348755,-0.28835 v -0.86662 H 5.3464593 q -0.046509,0 -0.066663,-0.0186 -0.020154,-0.0186 -0.020154,-0.0481 0,-0.0279 0.020154,-0.0465 0.020154,-0.0186 0.066663,-0.0186 h 0.2402954 v -0.38447 q 0,-0.0465 0.018604,-0.0667 0.018603,-0.0202 0.046509,-0.0202 0.029456,0 0.048059,0.0202 0.018604,0.0202 0.018604,0.0667 z"
         id="path560" />
    </g>
  </g>
</svg>
