<?xml version="1.0" encoding="UTF-8" standalone="no"?>
<!-- Created with Inkscape (http://www.inkscape.org/) -->

<svg
   width="24.82489mm"
   height="24.824518mm"
   viewBox="0 0 24.824891 24.824518"
   version="1.1"
   id="svg5"
   inkscape:version="1.2.1 (9c6d41e410, 2022-07-14)"
   sodipodi:docname="IV_SHARP_MAJOR.svg"
   xml:space="preserve"
   xmlns:inkscape="http://www.inkscape.org/namespaces/inkscape"
   xmlns:sodipodi="http://sodipodi.sourceforge.net/DTD/sodipodi-0.dtd"
   xmlns="http://www.w3.org/2000/svg"
   xmlns:svg="http://www.w3.org/2000/svg"><sodipodi:namedview
     id="namedview7"
     pagecolor="#ffffff"
     bordercolor="#000000"
     borderopacity="0.25"
     inkscape:showpageshadow="2"
     inkscape:pageopacity="0.0"
     inkscape:pagecheckerboard="0"
     inkscape:deskcolor="#d1d1d1"
     inkscape:document-units="mm"
     showgrid="false"
     inkscape:zoom="4.2179992"
     inkscape:cx="34.732107"
     inkscape:cy="42.674261"
     inkscape:window-width="1920"
     inkscape:window-height="1017"
     inkscape:window-x="1912"
     inkscape:window-y="-8"
     inkscape:window-maximized="1"
     inkscape:current-layer="layer1"
     showguides="true" /><defs
     id="defs2"><rect
       x="30.175261"
       y="16.764032"
       width="4.6939292"
       height="17.434595"
       id="rect1148" /><clipPath
       clipPathUnits="userSpaceOnUse"
       id="clipPath1018"><rect
         style="display:inline;fill:#f9f9f9;fill-opacity:0;stroke-width:0.264583"
         id="rect1020"
         width="20.32"
         height="128.5"
         x="0"
         y="0" /></clipPath><clipPath
       clipPathUnits="userSpaceOnUse"
       id="clipPath1086"><rect
         style="fill:#f9f9f9;fill-opacity:0;stroke-width:0.264583"
         id="rect1088"
         width="20.32"
         height="128.5"
         x="0"
         y="-2.7755579e-17" /></clipPath><rect
       x="30.175261"
       y="16.764032"
       width="4.6939292"
       height="17.434595"
       id="rect1148-39" /><rect
       x="30.175261"
       y="16.764032"
       width="4.6939292"
       height="17.434595"
       id="rect1148-3" /><clipPath
       clipPathUnits="userSpaceOnUse"
       id="clipPath1018-9"><rect
         style="display:inline;fill:#f9f9f9;fill-opacity:0;stroke-width:0.264583"
         id="rect1020-3"
         width="20.32"
         height="128.5"
         x="0"
         y="0" /></clipPath><clipPath
       clipPathUnits="userSpaceOnUse"
       id="clipPath1086-2"><rect
         style="fill:#f9f9f9;fill-opacity:0;stroke-width:0.264583"
         id="rect1088-84"
         width="20.32"
         height="128.5"
         x="0"
         y="-2.7755579e-17" /></clipPath><rect
       x="30.175261"
       y="16.764032"
       width="4.6939292"
       height="17.434595"
       id="rect1148-4" /><clipPath
       clipPathUnits="userSpaceOnUse"
       id="clipPath1018-7"><rect
         style="display:inline;fill:#f9f9f9;fill-opacity:0;stroke-width:0.264583"
         id="rect1020-1"
         width="20.32"
         height="128.5"
         x="0"
         y="0" /></clipPath><clipPath
       clipPathUnits="userSpaceOnUse"
       id="clipPath1086-6"><rect
         style="fill:#f9f9f9;fill-opacity:0;stroke-width:0.264583"
         id="rect1088-3"
         width="20.32"
         height="128.5"
         x="0"
         y="-2.7755579e-17" /></clipPath><rect
       x="30.175261"
       y="16.764032"
       width="4.6939292"
       height="17.434595"
       id="rect1148-2" /><clipPath
       clipPathUnits="userSpaceOnUse"
       id="clipPath1018-8"><rect
         style="display:inline;fill:#f9f9f9;fill-opacity:0;stroke-width:0.264583"
         id="rect1020-0"
         width="20.32"
         height="128.5"
         x="0"
         y="0" /></clipPath><clipPath
       clipPathUnits="userSpaceOnUse"
       id="clipPath1086-7"><rect
         style="fill:#f9f9f9;fill-opacity:0;stroke-width:0.264583"
         id="rect1088-8"
         width="20.32"
         height="128.5"
         x="0"
         y="-2.7755579e-17" /></clipPath><rect
       x="30.175261"
       y="16.764032"
       width="4.6939292"
       height="17.434595"
       id="rect1148-30" /><rect
       x="30.175261"
       y="16.764032"
       width="4.6939292"
       height="17.434595"
       id="rect1148-3-5" /><clipPath
       clipPathUnits="userSpaceOnUse"
       id="clipPath1018-0"><rect
         style="display:inline;fill:#f9f9f9;fill-opacity:0;stroke-width:0.264583"
         id="rect1020-2"
         width="20.32"
         height="128.5"
         x="0"
         y="0" /></clipPath><clipPath
       clipPathUnits="userSpaceOnUse"
       id="clipPath1086-1"><rect
         style="fill:#f9f9f9;fill-opacity:0;stroke-width:0.264583"
         id="rect1088-39"
         width="20.32"
         height="128.5"
         x="0"
         y="-2.7755579e-17" /></clipPath><rect
       x="30.175261"
       y="16.764032"
       width="4.6939292"
       height="17.434595"
       id="rect1148-4-2" /><clipPath
       clipPathUnits="userSpaceOnUse"
       id="clipPath1018-7-6"><rect
         style="display:inline;fill:#f9f9f9;fill-opacity:0;stroke-width:0.264583"
         id="rect1020-1-8"
         width="20.32"
         height="128.5"
         x="0"
         y="0" /></clipPath><clipPath
       clipPathUnits="userSpaceOnUse"
       id="clipPath1086-6-7"><rect
         style="fill:#f9f9f9;fill-opacity:0;stroke-width:0.264583"
         id="rect1088-3-7"
         width="20.32"
         height="128.5"
         x="0"
         y="-2.7755579e-17" /></clipPath><rect
       x="30.175261"
       y="16.764032"
       width="4.6939292"
       height="17.434595"
       id="rect1148-2-5" /><clipPath
       clipPathUnits="userSpaceOnUse"
       id="clipPath1018-8-4"><rect
         style="display:inline;fill:#f9f9f9;fill-opacity:0;stroke-width:0.264583"
         id="rect1020-0-8"
         width="20.32"
         height="128.5"
         x="0"
         y="0" /></clipPath><clipPath
       clipPathUnits="userSpaceOnUse"
       id="clipPath1086-7-3"><rect
         style="fill:#f9f9f9;fill-opacity:0;stroke-width:0.264583"
         id="rect1088-8-8"
         width="20.32"
         height="128.5"
         x="0"
         y="-2.7755579e-17" /></clipPath></defs><g
     inkscape:label="Decals"
     inkscape:groupmode="layer"
     id="layer1"
     transform="translate(67.486557,-18.870491)"><rect
       style="display:inline;fill:#594c62;fill-opacity:1;stroke:none;stroke-width:0.215867;stroke-linecap:square;stroke-linejoin:miter;stroke-dasharray:none;stroke-dashoffset:0;stroke-opacity:1"
       id="rect8877-3-9-68-7-7-2"
       width="24.82489"
       height="24.824518"
       x="-67.486557"
       y="18.870491" /><g
       aria-label="♯IV"
       id="text550"
       style="font-size:14.1111px;line-height:0;font-family:'Book Antiqua';-inkscape-font-specification:'Book Antiqua';text-align:center;letter-spacing:-1.26735px;text-anchor:middle;fill:#e8d0f0;stroke-width:0.499999;stroke-linecap:square"><path
         d="m -58.750806,33.442338 -1.378038,0.613226 v 2.253091 h -0.592555 v -1.984374 l -2.466687,1.10243 v 2.328883 h -0.592556 v -2.060166 l -1.378037,0.613227 v -1.157551 l 1.378037,-0.613227 v -3.403752 l -1.378037,0.613227 v -1.157551 l 1.378037,-0.613227 v -2.253091 h 0.592556 v 1.984374 l 2.466687,-1.10243 v -2.397784 h 0.592555 v 2.129067 l 1.378038,-0.613227 v 1.157552 l -1.378038,0.613226 v 3.403752 l 1.378038,-0.613227 z m -1.970593,-0.275608 v -3.403752 l -2.466687,1.10243 v 3.403752 z"
         style="stroke-width:0.5"
         id="path5008" /><path
         d="m -59.280906,35.922804 h 0.434081 q 0.640788,0 0.764811,-0.310058 0.130914,-0.310058 0.130914,-2.96967 v -2.335773 q 0,-2.756074 -0.110243,-3.038572 -0.110243,-0.282497 -0.661458,-0.282497 h -0.558105 v -0.434082 q 1.143771,0.04823 2.259981,0.04823 0.930175,0 1.688095,-0.04823 v 0.434082 h -0.530544 q -0.489203,0 -0.613227,0.117133 -0.124023,0.117133 -0.144694,0.592556 -0.03445,0.73725 -0.03445,2.62516 v 2.377115 q 0,2.680282 0.117134,2.955889 0.117133,0.268717 0.75103,0.268717 h 0.454752 v 0.434082 q -0.847493,-0.04823 -1.84657,-0.04823 -1.164441,0 -2.101506,0.04823 z"
         style="stroke-width:0.5"
         id="path5010" /><path
         d="m -51.446322,36.467129 q -0.310058,-0.923285 -0.633897,-1.729437 l -2.466686,-6.166716 q -0.530545,-1.336696 -0.620117,-1.460719 -0.08957,-0.124023 -0.592556,-0.124023 h -0.282497 v -0.434082 q 1.081759,0.04823 1.839679,0.04823 0.799262,0 1.915472,-0.04823 v 0.496093 h -0.682129 q -0.351399,0 -0.454752,0.0689 -0.103353,0.06201 -0.103353,0.199816 0,0.08957 0.03445,0.199815 l 0.895724,2.363334 1.86035,4.747337 1.812119,-4.526851 q 0.916395,-2.308213 0.916395,-2.700953 0,-0.316949 -0.37896,-0.330729 l -0.282498,-0.02067 -0.592556,-0.06201 v -0.434082 q 0.916395,0.04823 1.508951,0.04823 0.620117,0 1.557182,-0.04823 v 0.434082 h -0.275608 q -0.330729,0 -0.482313,0.158474 -0.144694,0.151584 -0.530544,1.095539 l -2.321992,5.670623 q -0.654568,1.598523 -0.930176,2.556259 z"
         style="stroke-width:0.5"
         id="path5012" /></g></g></svg>
