<?xml version="1.0" encoding="UTF-8" standalone="no"?>
<!-- Created with Inkscape (http://www.inkscape.org/) -->

<svg
   width="24.82489mm"
   height="24.824518mm"
   viewBox="0 0 24.824891 24.824518"
   version="1.1"
   id="svg5"
   inkscape:version="1.2.1 (9c6d41e410, 2022-07-14)"
   sodipodi:docname="min7.svg"
   xml:space="preserve"
   xmlns:inkscape="http://www.inkscape.org/namespaces/inkscape"
   xmlns:sodipodi="http://sodipodi.sourceforge.net/DTD/sodipodi-0.dtd"
   xmlns="http://www.w3.org/2000/svg"
   xmlns:svg="http://www.w3.org/2000/svg"><sodipodi:namedview
     id="namedview7"
     pagecolor="#ffffff"
     bordercolor="#000000"
     borderopacity="0.25"
     inkscape:showpageshadow="2"
     inkscape:pageopacity="0.0"
     inkscape:pagecheckerboard="0"
     inkscape:deskcolor="#d1d1d1"
     inkscape:document-units="mm"
     showgrid="false"
     inkscape:zoom="5.9651517"
     inkscape:cx="12.321564"
     inkscape:cy="42.245363"
     inkscape:window-width="1920"
     inkscape:window-height="1017"
     inkscape:window-x="1912"
     inkscape:window-y="-8"
     inkscape:window-maximized="1"
     inkscape:current-layer="layer1"
     showguides="true" /><defs
     id="defs2"><rect
       x="30.175261"
       y="16.764032"
       width="4.6939292"
       height="17.434595"
       id="rect1148" /><clipPath
       clipPathUnits="userSpaceOnUse"
       id="clipPath1018"><rect
         style="display:inline;fill:#f9f9f9;fill-opacity:0;stroke-width:0.264583"
         id="rect1020"
         width="20.32"
         height="128.5"
         x="0"
         y="0" /></clipPath><clipPath
       clipPathUnits="userSpaceOnUse"
       id="clipPath1086"><rect
         style="fill:#f9f9f9;fill-opacity:0;stroke-width:0.264583"
         id="rect1088"
         width="20.32"
         height="128.5"
         x="0"
         y="-2.7755579e-17" /></clipPath><rect
       x="30.175261"
       y="16.764032"
       width="4.6939292"
       height="17.434595"
       id="rect1148-39" /><rect
       x="30.175261"
       y="16.764032"
       width="4.6939292"
       height="17.434595"
       id="rect1148-3" /><clipPath
       clipPathUnits="userSpaceOnUse"
       id="clipPath1018-9"><rect
         style="display:inline;fill:#f9f9f9;fill-opacity:0;stroke-width:0.264583"
         id="rect1020-3"
         width="20.32"
         height="128.5"
         x="0"
         y="0" /></clipPath><clipPath
       clipPathUnits="userSpaceOnUse"
       id="clipPath1086-2"><rect
         style="fill:#f9f9f9;fill-opacity:0;stroke-width:0.264583"
         id="rect1088-84"
         width="20.32"
         height="128.5"
         x="0"
         y="-2.7755579e-17" /></clipPath><rect
       x="30.175261"
       y="16.764032"
       width="4.6939292"
       height="17.434595"
       id="rect1148-4" /><clipPath
       clipPathUnits="userSpaceOnUse"
       id="clipPath1018-7"><rect
         style="display:inline;fill:#f9f9f9;fill-opacity:0;stroke-width:0.264583"
         id="rect1020-1"
         width="20.32"
         height="128.5"
         x="0"
         y="0" /></clipPath><clipPath
       clipPathUnits="userSpaceOnUse"
       id="clipPath1086-6"><rect
         style="fill:#f9f9f9;fill-opacity:0;stroke-width:0.264583"
         id="rect1088-3"
         width="20.32"
         height="128.5"
         x="0"
         y="-2.7755579e-17" /></clipPath><rect
       x="30.175261"
       y="16.764032"
       width="4.6939292"
       height="17.434595"
       id="rect1148-2" /><clipPath
       clipPathUnits="userSpaceOnUse"
       id="clipPath1018-8"><rect
         style="display:inline;fill:#f9f9f9;fill-opacity:0;stroke-width:0.264583"
         id="rect1020-0"
         width="20.32"
         height="128.5"
         x="0"
         y="0" /></clipPath><clipPath
       clipPathUnits="userSpaceOnUse"
       id="clipPath1086-7"><rect
         style="fill:#f9f9f9;fill-opacity:0;stroke-width:0.264583"
         id="rect1088-8"
         width="20.32"
         height="128.5"
         x="0"
         y="-2.7755579e-17" /></clipPath><rect
       x="30.175261"
       y="16.764032"
       width="4.6939292"
       height="17.434595"
       id="rect1148-30" /><rect
       x="30.175261"
       y="16.764032"
       width="4.6939292"
       height="17.434595"
       id="rect1148-3-5" /><clipPath
       clipPathUnits="userSpaceOnUse"
       id="clipPath1018-0"><rect
         style="display:inline;fill:#f9f9f9;fill-opacity:0;stroke-width:0.264583"
         id="rect1020-2"
         width="20.32"
         height="128.5"
         x="0"
         y="0" /></clipPath><clipPath
       clipPathUnits="userSpaceOnUse"
       id="clipPath1086-1"><rect
         style="fill:#f9f9f9;fill-opacity:0;stroke-width:0.264583"
         id="rect1088-39"
         width="20.32"
         height="128.5"
         x="0"
         y="-2.7755579e-17" /></clipPath><rect
       x="30.175261"
       y="16.764032"
       width="4.6939292"
       height="17.434595"
       id="rect1148-4-2" /><clipPath
       clipPathUnits="userSpaceOnUse"
       id="clipPath1018-7-6"><rect
         style="display:inline;fill:#f9f9f9;fill-opacity:0;stroke-width:0.264583"
         id="rect1020-1-8"
         width="20.32"
         height="128.5"
         x="0"
         y="0" /></clipPath><clipPath
       clipPathUnits="userSpaceOnUse"
       id="clipPath1086-6-7"><rect
         style="fill:#f9f9f9;fill-opacity:0;stroke-width:0.264583"
         id="rect1088-3-7"
         width="20.32"
         height="128.5"
         x="0"
         y="-2.7755579e-17" /></clipPath><rect
       x="30.175261"
       y="16.764032"
       width="4.6939292"
       height="17.434595"
       id="rect1148-2-5" /><clipPath
       clipPathUnits="userSpaceOnUse"
       id="clipPath1018-8-4"><rect
         style="display:inline;fill:#f9f9f9;fill-opacity:0;stroke-width:0.264583"
         id="rect1020-0-8"
         width="20.32"
         height="128.5"
         x="0"
         y="0" /></clipPath><clipPath
       clipPathUnits="userSpaceOnUse"
       id="clipPath1086-7-3"><rect
         style="fill:#f9f9f9;fill-opacity:0;stroke-width:0.264583"
         id="rect1088-8-8"
         width="20.32"
         height="128.5"
         x="0"
         y="-2.7755579e-17" /></clipPath></defs><g
     inkscape:label="Decals"
     inkscape:groupmode="layer"
     id="layer1"
     transform="translate(67.486557,-18.870491)"><g
       aria-label="min7"
       id="text1405"
       style="font-stretch:condensed;font-size:7.05556px;font-family:'Futura PT Cond';-inkscape-font-specification:'Futura PT Cond Condensed';text-align:center;text-anchor:middle;fill:#e8d0f0;stroke-width:0.499999;stroke-linecap:square"><path
         d="m -50.95259,28.514948 c 0,-0.451556 -0.134055,-0.783167 -0.642056,-0.783167 -0.296333,0 -0.479778,0.141111 -0.649111,0.366889 -0.119945,-0.232833 -0.310445,-0.366889 -0.578556,-0.366889 -0.254,0 -0.4445,0.134056 -0.613834,0.310445 V 27.78117 h -0.395111 v 3.153835 h 0.395111 v -1.95439 c 0,-0.366889 0.01411,-0.924278 0.508,-0.924278 0.310445,0 0.331612,0.3175 0.331612,0.550333 v 2.328335 h 0.402167 v -2.01789 c 0,-0.345722 0.02117,-0.860778 0.479778,-0.860778 0.324556,0 0.366889,0.282222 0.366889,0.543278 v 2.33539 h 0.395111 z"
         style="stroke-width:0.5"
         id="path2786" /><path
         d="M -49.851926,30.935005 V 27.78117 h -0.402167 v 3.153835 z m 0.09172,-4.141614 c 0,-0.162277 -0.127,-0.303389 -0.289278,-0.303389 -0.169334,0 -0.296334,0.134056 -0.296334,0.303389 0,0.155223 0.134056,0.289278 0.296334,0.289278 0.162278,0 0.289278,-0.134055 0.289278,-0.289278 z"
         style="stroke-width:0.5"
         id="path2788" /><path
         d="m -47.530642,30.935005 v -2.33539 c 0,-0.430389 -0.08467,-0.867834 -0.613834,-0.867834 -0.246945,0 -0.458612,0.127 -0.613834,0.303389 v -0.254 h -0.395111 v 3.153835 h 0.395111 v -2.123723 c 0,-0.183445 0,-0.395112 0.105833,-0.550334 0.07761,-0.127 0.225778,-0.204611 0.373945,-0.204611 0.345723,0 0.352778,0.331611 0.352778,0.585611 v 2.293057 z"
         style="stroke-width:0.5"
         id="path2790" /><path
         d="m -44.856586,26.228947 h -1.933223 v 0.409222 h 1.354667 l -1.326445,4.296836 h 0.458611 z"
         style="stroke-width:0.5"
         id="path2792" /></g></g></svg>
