<?xml version="1.0" encoding="UTF-8" standalone="no"?>
<!-- Created with Inkscape (http://www.inkscape.org/) -->

<svg
   width="24.82489mm"
   height="24.824518mm"
   viewBox="0 0 24.824891 24.824518"
   version="1.1"
   id="svg5"
   inkscape:version="1.2.1 (9c6d41e410, 2022-07-14)"
   sodipodi:docname="sus4.svg"
   xml:space="preserve"
   xmlns:inkscape="http://www.inkscape.org/namespaces/inkscape"
   xmlns:sodipodi="http://sodipodi.sourceforge.net/DTD/sodipodi-0.dtd"
   xmlns="http://www.w3.org/2000/svg"
   xmlns:svg="http://www.w3.org/2000/svg"><sodipodi:namedview
     id="namedview7"
     pagecolor="#ffffff"
     bordercolor="#000000"
     borderopacity="0.25"
     inkscape:showpageshadow="2"
     inkscape:pageopacity="0.0"
     inkscape:pagecheckerboard="0"
     inkscape:deskcolor="#d1d1d1"
     inkscape:document-units="mm"
     showgrid="false"
     inkscape:zoom="5.9651517"
     inkscape:cx="12.321564"
     inkscape:cy="42.245363"
     inkscape:window-width="1920"
     inkscape:window-height="1017"
     inkscape:window-x="1912"
     inkscape:window-y="-8"
     inkscape:window-maximized="1"
     inkscape:current-layer="layer1"
     showguides="true" /><defs
     id="defs2"><rect
       x="30.175261"
       y="16.764032"
       width="4.6939292"
       height="17.434595"
       id="rect1148" /><clipPath
       clipPathUnits="userSpaceOnUse"
       id="clipPath1018"><rect
         style="display:inline;fill:#f9f9f9;fill-opacity:0;stroke-width:0.264583"
         id="rect1020"
         width="20.32"
         height="128.5"
         x="0"
         y="0" /></clipPath><clipPath
       clipPathUnits="userSpaceOnUse"
       id="clipPath1086"><rect
         style="fill:#f9f9f9;fill-opacity:0;stroke-width:0.264583"
         id="rect1088"
         width="20.32"
         height="128.5"
         x="0"
         y="-2.7755579e-17" /></clipPath><rect
       x="30.175261"
       y="16.764032"
       width="4.6939292"
       height="17.434595"
       id="rect1148-39" /><rect
       x="30.175261"
       y="16.764032"
       width="4.6939292"
       height="17.434595"
       id="rect1148-3" /><clipPath
       clipPathUnits="userSpaceOnUse"
       id="clipPath1018-9"><rect
         style="display:inline;fill:#f9f9f9;fill-opacity:0;stroke-width:0.264583"
         id="rect1020-3"
         width="20.32"
         height="128.5"
         x="0"
         y="0" /></clipPath><clipPath
       clipPathUnits="userSpaceOnUse"
       id="clipPath1086-2"><rect
         style="fill:#f9f9f9;fill-opacity:0;stroke-width:0.264583"
         id="rect1088-84"
         width="20.32"
         height="128.5"
         x="0"
         y="-2.7755579e-17" /></clipPath><rect
       x="30.175261"
       y="16.764032"
       width="4.6939292"
       height="17.434595"
       id="rect1148-4" /><clipPath
       clipPathUnits="userSpaceOnUse"
       id="clipPath1018-7"><rect
         style="display:inline;fill:#f9f9f9;fill-opacity:0;stroke-width:0.264583"
         id="rect1020-1"
         width="20.32"
         height="128.5"
         x="0"
         y="0" /></clipPath><clipPath
       clipPathUnits="userSpaceOnUse"
       id="clipPath1086-6"><rect
         style="fill:#f9f9f9;fill-opacity:0;stroke-width:0.264583"
         id="rect1088-3"
         width="20.32"
         height="128.5"
         x="0"
         y="-2.7755579e-17" /></clipPath><rect
       x="30.175261"
       y="16.764032"
       width="4.6939292"
       height="17.434595"
       id="rect1148-2" /><clipPath
       clipPathUnits="userSpaceOnUse"
       id="clipPath1018-8"><rect
         style="display:inline;fill:#f9f9f9;fill-opacity:0;stroke-width:0.264583"
         id="rect1020-0"
         width="20.32"
         height="128.5"
         x="0"
         y="0" /></clipPath><clipPath
       clipPathUnits="userSpaceOnUse"
       id="clipPath1086-7"><rect
         style="fill:#f9f9f9;fill-opacity:0;stroke-width:0.264583"
         id="rect1088-8"
         width="20.32"
         height="128.5"
         x="0"
         y="-2.7755579e-17" /></clipPath><rect
       x="30.175261"
       y="16.764032"
       width="4.6939292"
       height="17.434595"
       id="rect1148-30" /><rect
       x="30.175261"
       y="16.764032"
       width="4.6939292"
       height="17.434595"
       id="rect1148-3-5" /><clipPath
       clipPathUnits="userSpaceOnUse"
       id="clipPath1018-0"><rect
         style="display:inline;fill:#f9f9f9;fill-opacity:0;stroke-width:0.264583"
         id="rect1020-2"
         width="20.32"
         height="128.5"
         x="0"
         y="0" /></clipPath><clipPath
       clipPathUnits="userSpaceOnUse"
       id="clipPath1086-1"><rect
         style="fill:#f9f9f9;fill-opacity:0;stroke-width:0.264583"
         id="rect1088-39"
         width="20.32"
         height="128.5"
         x="0"
         y="-2.7755579e-17" /></clipPath><rect
       x="30.175261"
       y="16.764032"
       width="4.6939292"
       height="17.434595"
       id="rect1148-4-2" /><clipPath
       clipPathUnits="userSpaceOnUse"
       id="clipPath1018-7-6"><rect
         style="display:inline;fill:#f9f9f9;fill-opacity:0;stroke-width:0.264583"
         id="rect1020-1-8"
         width="20.32"
         height="128.5"
         x="0"
         y="0" /></clipPath><clipPath
       clipPathUnits="userSpaceOnUse"
       id="clipPath1086-6-7"><rect
         style="fill:#f9f9f9;fill-opacity:0;stroke-width:0.264583"
         id="rect1088-3-7"
         width="20.32"
         height="128.5"
         x="0"
         y="-2.7755579e-17" /></clipPath><rect
       x="30.175261"
       y="16.764032"
       width="4.6939292"
       height="17.434595"
       id="rect1148-2-5" /><clipPath
       clipPathUnits="userSpaceOnUse"
       id="clipPath1018-8-4"><rect
         style="display:inline;fill:#f9f9f9;fill-opacity:0;stroke-width:0.264583"
         id="rect1020-0-8"
         width="20.32"
         height="128.5"
         x="0"
         y="0" /></clipPath><clipPath
       clipPathUnits="userSpaceOnUse"
       id="clipPath1086-7-3"><rect
         style="fill:#f9f9f9;fill-opacity:0;stroke-width:0.264583"
         id="rect1088-8-8"
         width="20.32"
         height="128.5"
         x="0"
         y="-2.7755579e-17" /></clipPath></defs><g
     inkscape:label="Decals"
     inkscape:groupmode="layer"
     id="layer1"
     transform="translate(67.486557,-18.870491)"><g
       aria-label="sus4"
       id="text1405"
       style="font-stretch:condensed;font-size:7.05556px;font-family:'Futura PT Cond';-inkscape-font-specification:'Futura PT Cond Condensed';text-align:center;text-anchor:middle;fill:#e8d0f0;stroke-width:0.499999;stroke-linecap:square"><path
         d="m -52.596104,28.069456 c -0.176389,-0.127 -0.352778,-0.204611 -0.564445,-0.204611 -0.458611,0 -0.783167,0.338667 -0.783167,0.797278 0,0.762001 1.016001,0.973668 1.016001,1.594557 0,0.261056 -0.176389,0.486834 -0.458612,0.486834 -0.225777,0 -0.402167,-0.148167 -0.557389,-0.310445 v 0.465667 c 0.169334,0.134056 0.373945,0.218722 0.585612,0.218722 0.500944,0 0.846667,-0.402167 0.846667,-0.889 0,-0.853723 -1.016001,-0.966612 -1.016001,-1.580446 0,-0.225778 0.155223,-0.416278 0.388056,-0.416278 0.225778,0 0.402167,0.155223 0.543278,0.324556 z"
         style="stroke-width:0.5"
         id="path1630" /><path
         d="m -50.394765,27.914234 h -0.395112 v 2.095501 c 0,0.310445 0,0.733779 -0.409222,0.733779 -0.423334,0 -0.437445,-0.366889 -0.437445,-0.691445 v -2.137835 h -0.395111 v 2.384779 c 0,0.508001 0.3175,0.818445 0.818445,0.818445 0.500945,0 0.818445,-0.310444 0.818445,-0.818445 z"
         style="stroke-width:0.5"
         id="path1632" /><path
         d="m -48.496814,28.069456 c -0.176389,-0.127 -0.352778,-0.204611 -0.564445,-0.204611 -0.458612,0 -0.783167,0.338667 -0.783167,0.797278 0,0.762001 1.016,0.973668 1.016,1.594557 0,0.261056 -0.176389,0.486834 -0.458611,0.486834 -0.225778,0 -0.402167,-0.148167 -0.557389,-0.310445 v 0.465667 c 0.169333,0.134056 0.373944,0.218722 0.585611,0.218722 0.500945,0 0.846667,-0.402167 0.846667,-0.889 0,-0.853723 -1.016,-0.966612 -1.016,-1.580446 0,-0.225778 0.155222,-0.416278 0.388055,-0.416278 0.225778,0 0.402167,0.155223 0.543279,0.324556 z"
         style="stroke-width:0.5"
         id="path1634" /><path
         d="m -46.006198,29.805124 v -0.402167 h -0.352778 v -3.040946 h -0.430389 l -1.234723,2.998613 v 0.4445 h 1.234723 v 1.262945 h 0.430389 v -1.262945 z m -1.608668,-0.402167 0.606779,-1.538112 c 0.105833,-0.268111 0.197555,-0.536222 0.268111,-0.811389 -0.04233,0.465667 -0.05645,0.931334 -0.05645,1.397001 0,0.3175 0.0071,0.635 0.0071,0.9525 z"
         style="stroke-width:0.5"
         id="path1636" /></g></g></svg>
