<?xml version="1.0" encoding="UTF-8" standalone="no"?>
<!-- Created with Inkscape (http://www.inkscape.org/) -->

<svg
   width="24.82489mm"
   height="24.824518mm"
   viewBox="0 0 24.824891 24.824518"
   version="1.1"
   id="svg5"
   inkscape:version="1.2.1 (9c6d41e410, 2022-07-14)"
   sodipodi:docname="III_flat.svg"
   xml:space="preserve"
   xmlns:inkscape="http://www.inkscape.org/namespaces/inkscape"
   xmlns:sodipodi="http://sodipodi.sourceforge.net/DTD/sodipodi-0.dtd"
   xmlns="http://www.w3.org/2000/svg"
   xmlns:svg="http://www.w3.org/2000/svg"><sodipodi:namedview
     id="namedview7"
     pagecolor="#ffffff"
     bordercolor="#000000"
     borderopacity="0.25"
     inkscape:showpageshadow="2"
     inkscape:pageopacity="0.0"
     inkscape:pagecheckerboard="0"
     inkscape:deskcolor="#d1d1d1"
     inkscape:document-units="mm"
     showgrid="false"
     inkscape:zoom="5.9651517"
     inkscape:cx="12.489205"
     inkscape:cy="42.413004"
     inkscape:window-width="1920"
     inkscape:window-height="1017"
     inkscape:window-x="1912"
     inkscape:window-y="-8"
     inkscape:window-maximized="1"
     inkscape:current-layer="layer1"
     showguides="true" /><defs
     id="defs2"><rect
       x="30.175261"
       y="16.764032"
       width="4.6939292"
       height="17.434595"
       id="rect1148" /><clipPath
       clipPathUnits="userSpaceOnUse"
       id="clipPath1018"><rect
         style="display:inline;fill:#f9f9f9;fill-opacity:0;stroke-width:0.264583"
         id="rect1020"
         width="20.32"
         height="128.5"
         x="0"
         y="0" /></clipPath><clipPath
       clipPathUnits="userSpaceOnUse"
       id="clipPath1086"><rect
         style="fill:#f9f9f9;fill-opacity:0;stroke-width:0.264583"
         id="rect1088"
         width="20.32"
         height="128.5"
         x="0"
         y="-2.7755579e-17" /></clipPath><rect
       x="30.175261"
       y="16.764032"
       width="4.6939292"
       height="17.434595"
       id="rect1148-39" /><rect
       x="30.175261"
       y="16.764032"
       width="4.6939292"
       height="17.434595"
       id="rect1148-3" /><clipPath
       clipPathUnits="userSpaceOnUse"
       id="clipPath1018-9"><rect
         style="display:inline;fill:#f9f9f9;fill-opacity:0;stroke-width:0.264583"
         id="rect1020-3"
         width="20.32"
         height="128.5"
         x="0"
         y="0" /></clipPath><clipPath
       clipPathUnits="userSpaceOnUse"
       id="clipPath1086-2"><rect
         style="fill:#f9f9f9;fill-opacity:0;stroke-width:0.264583"
         id="rect1088-84"
         width="20.32"
         height="128.5"
         x="0"
         y="-2.7755579e-17" /></clipPath><rect
       x="30.175261"
       y="16.764032"
       width="4.6939292"
       height="17.434595"
       id="rect1148-4" /><clipPath
       clipPathUnits="userSpaceOnUse"
       id="clipPath1018-7"><rect
         style="display:inline;fill:#f9f9f9;fill-opacity:0;stroke-width:0.264583"
         id="rect1020-1"
         width="20.32"
         height="128.5"
         x="0"
         y="0" /></clipPath><clipPath
       clipPathUnits="userSpaceOnUse"
       id="clipPath1086-6"><rect
         style="fill:#f9f9f9;fill-opacity:0;stroke-width:0.264583"
         id="rect1088-3"
         width="20.32"
         height="128.5"
         x="0"
         y="-2.7755579e-17" /></clipPath><rect
       x="30.175261"
       y="16.764032"
       width="4.6939292"
       height="17.434595"
       id="rect1148-2" /><clipPath
       clipPathUnits="userSpaceOnUse"
       id="clipPath1018-8"><rect
         style="display:inline;fill:#f9f9f9;fill-opacity:0;stroke-width:0.264583"
         id="rect1020-0"
         width="20.32"
         height="128.5"
         x="0"
         y="0" /></clipPath><clipPath
       clipPathUnits="userSpaceOnUse"
       id="clipPath1086-7"><rect
         style="fill:#f9f9f9;fill-opacity:0;stroke-width:0.264583"
         id="rect1088-8"
         width="20.32"
         height="128.5"
         x="0"
         y="-2.7755579e-17" /></clipPath><rect
       x="30.175261"
       y="16.764032"
       width="4.6939292"
       height="17.434595"
       id="rect1148-30" /><rect
       x="30.175261"
       y="16.764032"
       width="4.6939292"
       height="17.434595"
       id="rect1148-3-5" /><clipPath
       clipPathUnits="userSpaceOnUse"
       id="clipPath1018-0"><rect
         style="display:inline;fill:#f9f9f9;fill-opacity:0;stroke-width:0.264583"
         id="rect1020-2"
         width="20.32"
         height="128.5"
         x="0"
         y="0" /></clipPath><clipPath
       clipPathUnits="userSpaceOnUse"
       id="clipPath1086-1"><rect
         style="fill:#f9f9f9;fill-opacity:0;stroke-width:0.264583"
         id="rect1088-39"
         width="20.32"
         height="128.5"
         x="0"
         y="-2.7755579e-17" /></clipPath><rect
       x="30.175261"
       y="16.764032"
       width="4.6939292"
       height="17.434595"
       id="rect1148-4-2" /><clipPath
       clipPathUnits="userSpaceOnUse"
       id="clipPath1018-7-6"><rect
         style="display:inline;fill:#f9f9f9;fill-opacity:0;stroke-width:0.264583"
         id="rect1020-1-8"
         width="20.32"
         height="128.5"
         x="0"
         y="0" /></clipPath><clipPath
       clipPathUnits="userSpaceOnUse"
       id="clipPath1086-6-7"><rect
         style="fill:#f9f9f9;fill-opacity:0;stroke-width:0.264583"
         id="rect1088-3-7"
         width="20.32"
         height="128.5"
         x="0"
         y="-2.7755579e-17" /></clipPath><rect
       x="30.175261"
       y="16.764032"
       width="4.6939292"
       height="17.434595"
       id="rect1148-2-5" /><clipPath
       clipPathUnits="userSpaceOnUse"
       id="clipPath1018-8-4"><rect
         style="display:inline;fill:#f9f9f9;fill-opacity:0;stroke-width:0.264583"
         id="rect1020-0-8"
         width="20.32"
         height="128.5"
         x="0"
         y="0" /></clipPath><clipPath
       clipPathUnits="userSpaceOnUse"
       id="clipPath1086-7-3"><rect
         style="fill:#f9f9f9;fill-opacity:0;stroke-width:0.264583"
         id="rect1088-8-8"
         width="20.32"
         height="128.5"
         x="0"
         y="-2.7755579e-17" /></clipPath></defs><g
     inkscape:label="Decals"
     inkscape:groupmode="layer"
     id="layer1"
     transform="translate(67.486557,-18.870491)"><g
       aria-label="♭III"
       id="text896"
       style="font-size:14.1111px;font-family:'Book Antiqua';-inkscape-font-specification:'Book Antiqua';text-align:center;letter-spacing:-2.11667px;text-anchor:middle;fill:#e8d0f0;stroke-width:0.499999;stroke-linecap:square"
       transform="matrix(0.89080443,0,0,1,-5.9645911,0)"><path
         d="M -68.433686,35.991459 V 25.793984 h 0.427192 v 6.573237 q 1.12999,-1.646754 2.218639,-1.646754 0.640788,0 1.10243,0.482313 0.461642,0.475423 0.461642,1.143771 0,1.322915 -1.13688,2.308212 -1.129991,0.978406 -3.073023,1.336696 z m 0.427192,-0.489203 q 2.762964,-0.709689 2.762964,-2.749184 0,-1.247124 -0.964626,-1.247124 -0.799262,0 -1.798338,1.557182 z"
         style="stroke-width:0.5"
         id="path434" /><path
         d="m -63.846205,35.605608 h 0.434081 q 0.640788,0 0.764811,-0.310058 0.130913,-0.310058 0.130913,-2.96967 v -2.335773 q 0,-2.756074 -0.110243,-3.038572 -0.110243,-0.282497 -0.661457,-0.282497 h -0.558105 v -0.434082 q 1.14377,0.04823 2.25998,0.04823 0.930176,0 1.688096,-0.04823 v 0.434082 h -0.530544 q -0.489204,0 -0.613227,0.117133 -0.124023,0.117133 -0.144694,0.592556 -0.03445,0.73725 -0.03445,2.625161 v 2.377114 q 0,2.680282 0.117133,2.955889 0.117134,0.268717 0.751031,0.268717 h 0.454752 v 0.434082 q -0.847493,-0.04823 -1.84657,-0.04823 -1.164441,0 -2.101506,0.04823 z"
         style="stroke-width:0.5"
         id="path436" /><path
         d="m -61.208647,35.605608 h 0.434081 q 0.640788,0 0.764811,-0.310058 0.130913,-0.310058 0.130913,-2.96967 v -2.335773 q 0,-2.756074 -0.110243,-3.038572 -0.110243,-0.282497 -0.661457,-0.282497 h -0.558105 v -0.434082 q 1.14377,0.04823 2.25998,0.04823 0.930176,0 1.688096,-0.04823 v 0.434082 h -0.530544 q -0.489204,0 -0.613227,0.117133 -0.124023,0.117133 -0.144694,0.592556 -0.03445,0.73725 -0.03445,2.625161 v 2.377114 q 0,2.680282 0.117133,2.955889 0.117134,0.268717 0.751031,0.268717 h 0.454752 v 0.434082 q -0.847493,-0.04823 -1.84657,-0.04823 -1.164441,0 -2.101506,0.04823 z"
         style="stroke-width:0.5"
         id="path438" /><path
         d="m -58.571089,35.605608 h 0.434081 q 0.640788,0 0.764811,-0.310058 0.130913,-0.310058 0.130913,-2.96967 v -2.335773 q 0,-2.756074 -0.110243,-3.038572 -0.110243,-0.282497 -0.661457,-0.282497 h -0.558105 v -0.434082 q 1.14377,0.04823 2.25998,0.04823 0.930175,0 1.688096,-0.04823 v 0.434082 h -0.530544 q -0.489204,0 -0.613227,0.117133 -0.124023,0.117133 -0.144694,0.592556 -0.03445,0.73725 -0.03445,2.625161 v 2.377114 q 0,2.680282 0.117133,2.955889 0.117134,0.268717 0.751031,0.268717 h 0.454752 v 0.434082 q -0.847493,-0.04823 -1.84657,-0.04823 -1.164441,0 -2.101506,0.04823 z"
         style="stroke-width:0.5"
         id="path440" /></g></g></svg>
