<?xml version="1.0" encoding="UTF-8" standalone="no"?>
<!-- Created with Inkscape (http://www.inkscape.org/) -->

<svg
   width="24.82489mm"
   height="24.824518mm"
   viewBox="0 0 24.824891 24.824518"
   version="1.1"
   id="svg5"
   inkscape:version="1.2.1 (9c6d41e410, 2022-07-14)"
   sodipodi:docname="VI_flat.svg"
   xml:space="preserve"
   xmlns:inkscape="http://www.inkscape.org/namespaces/inkscape"
   xmlns:sodipodi="http://sodipodi.sourceforge.net/DTD/sodipodi-0.dtd"
   xmlns="http://www.w3.org/2000/svg"
   xmlns:svg="http://www.w3.org/2000/svg"><sodipodi:namedview
     id="namedview7"
     pagecolor="#ffffff"
     bordercolor="#000000"
     borderopacity="0.25"
     inkscape:showpageshadow="2"
     inkscape:pageopacity="0.0"
     inkscape:pagecheckerboard="0"
     inkscape:deskcolor="#d1d1d1"
     inkscape:document-units="mm"
     showgrid="false"
     inkscape:zoom="5.9651517"
     inkscape:cx="19.362458"
     inkscape:cy="42.413004"
     inkscape:window-width="1920"
     inkscape:window-height="1017"
     inkscape:window-x="1912"
     inkscape:window-y="-8"
     inkscape:window-maximized="1"
     inkscape:current-layer="layer1"
     showguides="true" /><defs
     id="defs2"><rect
       x="30.175261"
       y="16.764032"
       width="4.6939292"
       height="17.434595"
       id="rect1148" /><clipPath
       clipPathUnits="userSpaceOnUse"
       id="clipPath1018"><rect
         style="display:inline;fill:#f9f9f9;fill-opacity:0;stroke-width:0.264583"
         id="rect1020"
         width="20.32"
         height="128.5"
         x="0"
         y="0" /></clipPath><clipPath
       clipPathUnits="userSpaceOnUse"
       id="clipPath1086"><rect
         style="fill:#f9f9f9;fill-opacity:0;stroke-width:0.264583"
         id="rect1088"
         width="20.32"
         height="128.5"
         x="0"
         y="-2.7755579e-17" /></clipPath><rect
       x="30.175261"
       y="16.764032"
       width="4.6939292"
       height="17.434595"
       id="rect1148-39" /><rect
       x="30.175261"
       y="16.764032"
       width="4.6939292"
       height="17.434595"
       id="rect1148-3" /><clipPath
       clipPathUnits="userSpaceOnUse"
       id="clipPath1018-9"><rect
         style="display:inline;fill:#f9f9f9;fill-opacity:0;stroke-width:0.264583"
         id="rect1020-3"
         width="20.32"
         height="128.5"
         x="0"
         y="0" /></clipPath><clipPath
       clipPathUnits="userSpaceOnUse"
       id="clipPath1086-2"><rect
         style="fill:#f9f9f9;fill-opacity:0;stroke-width:0.264583"
         id="rect1088-84"
         width="20.32"
         height="128.5"
         x="0"
         y="-2.7755579e-17" /></clipPath><rect
       x="30.175261"
       y="16.764032"
       width="4.6939292"
       height="17.434595"
       id="rect1148-4" /><clipPath
       clipPathUnits="userSpaceOnUse"
       id="clipPath1018-7"><rect
         style="display:inline;fill:#f9f9f9;fill-opacity:0;stroke-width:0.264583"
         id="rect1020-1"
         width="20.32"
         height="128.5"
         x="0"
         y="0" /></clipPath><clipPath
       clipPathUnits="userSpaceOnUse"
       id="clipPath1086-6"><rect
         style="fill:#f9f9f9;fill-opacity:0;stroke-width:0.264583"
         id="rect1088-3"
         width="20.32"
         height="128.5"
         x="0"
         y="-2.7755579e-17" /></clipPath><rect
       x="30.175261"
       y="16.764032"
       width="4.6939292"
       height="17.434595"
       id="rect1148-2" /><clipPath
       clipPathUnits="userSpaceOnUse"
       id="clipPath1018-8"><rect
         style="display:inline;fill:#f9f9f9;fill-opacity:0;stroke-width:0.264583"
         id="rect1020-0"
         width="20.32"
         height="128.5"
         x="0"
         y="0" /></clipPath><clipPath
       clipPathUnits="userSpaceOnUse"
       id="clipPath1086-7"><rect
         style="fill:#f9f9f9;fill-opacity:0;stroke-width:0.264583"
         id="rect1088-8"
         width="20.32"
         height="128.5"
         x="0"
         y="-2.7755579e-17" /></clipPath><rect
       x="30.175261"
       y="16.764032"
       width="4.6939292"
       height="17.434595"
       id="rect1148-30" /><rect
       x="30.175261"
       y="16.764032"
       width="4.6939292"
       height="17.434595"
       id="rect1148-3-5" /><clipPath
       clipPathUnits="userSpaceOnUse"
       id="clipPath1018-0"><rect
         style="display:inline;fill:#f9f9f9;fill-opacity:0;stroke-width:0.264583"
         id="rect1020-2"
         width="20.32"
         height="128.5"
         x="0"
         y="0" /></clipPath><clipPath
       clipPathUnits="userSpaceOnUse"
       id="clipPath1086-1"><rect
         style="fill:#f9f9f9;fill-opacity:0;stroke-width:0.264583"
         id="rect1088-39"
         width="20.32"
         height="128.5"
         x="0"
         y="-2.7755579e-17" /></clipPath><rect
       x="30.175261"
       y="16.764032"
       width="4.6939292"
       height="17.434595"
       id="rect1148-4-2" /><clipPath
       clipPathUnits="userSpaceOnUse"
       id="clipPath1018-7-6"><rect
         style="display:inline;fill:#f9f9f9;fill-opacity:0;stroke-width:0.264583"
         id="rect1020-1-8"
         width="20.32"
         height="128.5"
         x="0"
         y="0" /></clipPath><clipPath
       clipPathUnits="userSpaceOnUse"
       id="clipPath1086-6-7"><rect
         style="fill:#f9f9f9;fill-opacity:0;stroke-width:0.264583"
         id="rect1088-3-7"
         width="20.32"
         height="128.5"
         x="0"
         y="-2.7755579e-17" /></clipPath><rect
       x="30.175261"
       y="16.764032"
       width="4.6939292"
       height="17.434595"
       id="rect1148-2-5" /><clipPath
       clipPathUnits="userSpaceOnUse"
       id="clipPath1018-8-4"><rect
         style="display:inline;fill:#f9f9f9;fill-opacity:0;stroke-width:0.264583"
         id="rect1020-0-8"
         width="20.32"
         height="128.5"
         x="0"
         y="0" /></clipPath><clipPath
       clipPathUnits="userSpaceOnUse"
       id="clipPath1086-7-3"><rect
         style="fill:#f9f9f9;fill-opacity:0;stroke-width:0.264583"
         id="rect1088-8-8"
         width="20.32"
         height="128.5"
         x="0"
         y="-2.7755579e-17" /></clipPath></defs><g
     inkscape:label="Decals"
     inkscape:groupmode="layer"
     id="layer1"
     transform="translate(67.486557,-18.870491)"><g
       aria-label="♭VI"
       id="text896"
       style="font-size:14.1111px;font-family:'Book Antiqua';-inkscape-font-specification:'Book Antiqua';text-align:center;letter-spacing:-2.11667px;text-anchor:middle;fill:#e8d0f0;stroke-width:0.499999;stroke-linecap:square"
       transform="matrix(0.72761365,0,0,1,-14.896079,0)"><path
         d="M -71.296792,35.947105 V 25.749631 h 0.427191 v 6.573237 q 1.129991,-1.646755 2.21864,-1.646755 0.640787,0 1.10243,0.482313 0.461642,0.475423 0.461642,1.143771 0,1.322916 -1.13688,2.308212 -1.129991,0.978407 -3.073023,1.336696 z m 0.427191,-0.489203 q 2.762965,-0.709689 2.762965,-2.749184 0,-1.247123 -0.964626,-1.247123 -0.799262,0 -1.798339,1.557182 z"
         style="stroke-width:0.5"
         id="path1715" /><path
         d="m -62.361604,36.10558 q -0.310059,-0.923285 -0.633897,-1.729437 l -2.466687,-6.166716 q -0.530544,-1.336696 -0.620117,-1.460719 -0.08957,-0.124024 -0.592556,-0.124024 h -0.282497 v -0.434081 q 1.081759,0.04823 1.839679,0.04823 0.799262,0 1.915472,-0.04823 v 0.496093 h -0.682128 q -0.3514,0 -0.454753,0.0689 -0.103352,0.06201 -0.103352,0.199815 0,0.08957 0.03445,0.199816 l 0.895725,2.363333 1.86035,4.747338 1.812119,-4.526852 q 0.916394,-2.308212 0.916394,-2.700953 0,-0.316948 -0.37896,-0.330729 l -0.282498,-0.02067 -0.592556,-0.06201 v -0.434081 q 0.916395,0.04823 1.508951,0.04823 0.620117,0 1.557182,-0.04823 v 0.434081 h -0.275607 q -0.330729,0 -0.482313,0.158475 -0.144694,0.151584 -0.530545,1.095539 l -2.321992,5.670623 q -0.654568,1.598523 -0.930175,2.556259 z"
         style="stroke-width:0.5"
         id="path1717" /><path
         d="m -58.635397,35.561255 h 0.434082 q 0.640787,0 0.76481,-0.310058 0.130914,-0.310059 0.130914,-2.96967 v -2.335773 q 0,-2.756075 -0.110243,-3.038572 -0.110243,-0.282498 -0.661458,-0.282498 h -0.558105 v -0.434081 q 1.143771,0.04823 2.259981,0.04823 0.930175,0 1.688095,-0.04823 v 0.434081 h -0.530544 q -0.489203,0 -0.613226,0.117133 -0.124024,0.117134 -0.144694,0.592556 -0.03445,0.73725 -0.03445,2.625161 v 2.377114 q 0,2.680282 0.117133,2.95589 0.117133,0.268717 0.75103,0.268717 h 0.454752 v 0.434082 q -0.847492,-0.04823 -1.846569,-0.04823 -1.164442,0 -2.101507,0.04823 z"
         style="stroke-width:0.5"
         id="path1719" /></g></g></svg>
