<?xml version="1.0" encoding="UTF-8" standalone="no"?>
<!-- Created with Inkscape (http://www.inkscape.org/) -->

<svg
   width="11.6mm"
   height="11.599828mm"
   viewBox="0 0 11.600001 11.599828"
   version="1.1"
   id="svg5"
   inkscape:version="1.2.1 (9c6d41e410, 2022-07-14)"
   sodipodi:docname="A_SHARP.svg"
   xml:space="preserve"
   xmlns:inkscape="http://www.inkscape.org/namespaces/inkscape"
   xmlns:sodipodi="http://sodipodi.sourceforge.net/DTD/sodipodi-0.dtd"
   xmlns="http://www.w3.org/2000/svg"
   xmlns:svg="http://www.w3.org/2000/svg"><sodipodi:namedview
     id="namedview7"
     pagecolor="#ffffff"
     bordercolor="#000000"
     borderopacity="0.25"
     inkscape:showpageshadow="2"
     inkscape:pageopacity="0.0"
     inkscape:pagecheckerboard="0"
     inkscape:deskcolor="#d1d1d1"
     inkscape:document-units="mm"
     showgrid="false"
     inkscape:zoom="11.24132"
     inkscape:cx="30.423473"
     inkscape:cy="24.196447"
     inkscape:window-width="1918"
     inkscape:window-height="1028"
     inkscape:window-x="1913"
     inkscape:window-y="15"
     inkscape:window-maximized="0"
     inkscape:current-layer="svg5" /><defs
     id="defs2"><rect
       x="30.175261"
       y="16.764032"
       width="4.6939292"
       height="17.434595"
       id="rect1148" /><rect
       x="30.175261"
       y="16.764032"
       width="4.6939292"
       height="17.434595"
       id="rect1148-3" /><clipPath
       clipPathUnits="userSpaceOnUse"
       id="clipPath1018"><rect
         style="display:inline;fill:#f9f9f9;fill-opacity:0;stroke-width:0.264583"
         id="rect1020"
         width="20.32"
         height="128.5"
         x="0"
         y="0" /></clipPath><clipPath
       clipPathUnits="userSpaceOnUse"
       id="clipPath1086"><rect
         style="fill:#f9f9f9;fill-opacity:0;stroke-width:0.264583"
         id="rect1088"
         width="20.32"
         height="128.5"
         x="0"
         y="-2.7755579e-17" /></clipPath><rect
       x="30.175261"
       y="16.764032"
       width="4.6939292"
       height="17.434595"
       id="rect1148-4" /><clipPath
       clipPathUnits="userSpaceOnUse"
       id="clipPath1018-7"><rect
         style="display:inline;fill:#f9f9f9;fill-opacity:0;stroke-width:0.264583"
         id="rect1020-1"
         width="20.32"
         height="128.5"
         x="0"
         y="0" /></clipPath><clipPath
       clipPathUnits="userSpaceOnUse"
       id="clipPath1086-6"><rect
         style="fill:#f9f9f9;fill-opacity:0;stroke-width:0.264583"
         id="rect1088-3"
         width="20.32"
         height="128.5"
         x="0"
         y="-2.7755579e-17" /></clipPath><rect
       x="30.175261"
       y="16.764032"
       width="4.6939292"
       height="17.434595"
       id="rect1148-2" /><clipPath
       clipPathUnits="userSpaceOnUse"
       id="clipPath1018-8"><rect
         style="display:inline;fill:#f9f9f9;fill-opacity:0;stroke-width:0.264583"
         id="rect1020-0"
         width="20.32"
         height="128.5"
         x="0"
         y="0" /></clipPath><clipPath
       clipPathUnits="userSpaceOnUse"
       id="clipPath1086-7"><rect
         style="fill:#f9f9f9;fill-opacity:0;stroke-width:0.264583"
         id="rect1088-8"
         width="20.32"
         height="128.5"
         x="0"
         y="-2.7755579e-17" /></clipPath></defs><g
     aria-label="A♯ B♭"
     id="text3716"
     style="font-size:7.05556px;line-height:0.8;font-family:'Futura PT';-inkscape-font-specification:'Futura PT';text-align:center;text-anchor:middle;fill:#f7dfff;fill-opacity:1;stroke-width:2;stroke-linecap:square"
     transform="matrix(0.89640731,0,0,0.89640731,0.417197,0.45394166)"><path
       d="M 5.6795593,5.3428259 H 6.2581152 L 4.1485027,0.41098937 1.9824458,5.3428259 H 2.5610017 L 3.1254465,4.0163806 H 5.1292256 Z M 3.3300577,3.5224914 4.1343916,1.6386568 4.9246143,3.5224914 Z"
       id="path3790"
       style="fill:#f7dfff;fill-opacity:1" /><path
       d="M 9.6838633,3.9096652 8.9948438,4.2162789 v 1.126547 H 8.6985654 V 4.3506377 l -1.233345,0.5512157 v 1.164443 H 7.168942 V 5.0362122 L 6.4799224,5.3428259 V 4.7640495 L 7.168942,4.4574358 V 2.7555575 L 6.4799224,3.0621712 V 2.4833948 L 7.168942,2.1767811 V 1.0502341 H 7.4652204 V 2.0424223 L 8.6985654,1.4912066 V 0.29231265 H 8.9948438 V 1.3568478 L 9.6838633,1.0502341 V 1.6290106 L 8.9948438,1.9356243 V 3.6375025 L 9.6838633,3.3308888 Z M 8.6985654,3.7718613 V 2.0699831 L 7.4652204,2.6211987 V 4.323077 Z"
       id="path3792"
       style="fill:#f7dfff;fill-opacity:1" /><path
       d="m 2.3698505,6.4920487 v 4.7060583 h 1.171223 c 0.3245558,0 0.754945,-0.01411 1.1288896,-0.310444 0.2540002,-0.197556 0.4797781,-0.564445 0.4797781,-1.016001 0,-0.4515558 -0.239889,-1.0230562 -0.8960561,-1.1853341 0.416278,-0.2822224 0.465667,-0.6914449 0.465667,-0.9242784 0,-0.5715003 -0.2751669,-0.8607783 -0.4233336,-0.9736673 C 3.950296,6.5132154 3.4775735,6.4920487 3.2165178,6.4920487 Z M 2.891962,6.9859379 h 0.4092225 c 0.1481667,0 0.9101672,0.014111 0.9101672,0.7902228 0,0.7267227 -0.6491115,0.7831671 -0.9242783,0.7831671 H 2.891962 Z m 0,2.0390569 h 0.5362226 c 0.3739446,0 0.6208892,0.042333 0.7972783,0.1411112 0.1834445,0.098778 0.4021669,0.3175002 0.4021669,0.6914449 0,0.2822221 -0.1270001,0.5150561 -0.3104447,0.6491111 -0.2257779,0.176389 -0.5221114,0.197556 -0.8255005,0.197556 H 2.891962 Z"
       id="path3794"
       style="fill:#f7dfff;fill-opacity:1" /><path
       d="M 6.8633376,11.198107 V 6.0993627 h 0.2135961 v 3.2866232 q 0.564996,-0.8233783 1.1093214,-0.8233783 0.3203941,0 0.5512157,0.2411568 0.2308215,0.2377117 0.2308215,0.5718862 0,0.6614584 -0.5684411,1.1541074 -0.564996,0.489204 -1.5365136,0.668349 z m 0.2135961,-0.244602 q 1.3814842,-0.354845 1.3814842,-1.3745936 0,-0.6235627 -0.4823137,-0.6235627 -0.3996314,0 -0.8991705,0.7785921 z"
       id="path3796"
       style="fill:#f7dfff;fill-opacity:1" /></g></svg>
