<?xml version="1.0" encoding="UTF-8" standalone="no"?>
<!-- Created with Inkscape (http://www.inkscape.org/) -->

<svg
   width="11.6mm"
   height="11.599828mm"
   viewBox="0 0 11.600001 11.599828"
   version="1.1"
   id="svg5"
   inkscape:version="1.2.1 (9c6d41e410, 2022-07-14)"
   sodipodi:docname="C_SHARP.svg"
   xml:space="preserve"
   xmlns:inkscape="http://www.inkscape.org/namespaces/inkscape"
   xmlns:sodipodi="http://sodipodi.sourceforge.net/DTD/sodipodi-0.dtd"
   xmlns="http://www.w3.org/2000/svg"
   xmlns:svg="http://www.w3.org/2000/svg"><sodipodi:namedview
     id="namedview7"
     pagecolor="#ffffff"
     bordercolor="#000000"
     borderopacity="0.25"
     inkscape:showpageshadow="2"
     inkscape:pageopacity="0.0"
     inkscape:pagecheckerboard="0"
     inkscape:deskcolor="#d1d1d1"
     inkscape:document-units="mm"
     showgrid="false"
     inkscape:zoom="11.24132"
     inkscape:cx="31.224091"
     inkscape:cy="21.883551"
     inkscape:window-width="1918"
     inkscape:window-height="1028"
     inkscape:window-x="1913"
     inkscape:window-y="15"
     inkscape:window-maximized="0"
     inkscape:current-layer="svg5" /><defs
     id="defs2"><rect
       x="30.175261"
       y="16.764032"
       width="4.6939292"
       height="17.434595"
       id="rect1148" /><rect
       x="30.175261"
       y="16.764032"
       width="4.6939292"
       height="17.434595"
       id="rect1148-3" /><clipPath
       clipPathUnits="userSpaceOnUse"
       id="clipPath1018"><rect
         style="display:inline;fill:#f9f9f9;fill-opacity:0;stroke-width:0.264583"
         id="rect1020"
         width="20.32"
         height="128.5"
         x="0"
         y="0" /></clipPath><clipPath
       clipPathUnits="userSpaceOnUse"
       id="clipPath1086"><rect
         style="fill:#f9f9f9;fill-opacity:0;stroke-width:0.264583"
         id="rect1088"
         width="20.32"
         height="128.5"
         x="0"
         y="-2.7755579e-17" /></clipPath><rect
       x="30.175261"
       y="16.764032"
       width="4.6939292"
       height="17.434595"
       id="rect1148-4" /><clipPath
       clipPathUnits="userSpaceOnUse"
       id="clipPath1018-7"><rect
         style="display:inline;fill:#f9f9f9;fill-opacity:0;stroke-width:0.264583"
         id="rect1020-1"
         width="20.32"
         height="128.5"
         x="0"
         y="0" /></clipPath><clipPath
       clipPathUnits="userSpaceOnUse"
       id="clipPath1086-6"><rect
         style="fill:#f9f9f9;fill-opacity:0;stroke-width:0.264583"
         id="rect1088-3"
         width="20.32"
         height="128.5"
         x="0"
         y="-2.7755579e-17" /></clipPath><rect
       x="30.175261"
       y="16.764032"
       width="4.6939292"
       height="17.434595"
       id="rect1148-2" /><clipPath
       clipPathUnits="userSpaceOnUse"
       id="clipPath1018-8"><rect
         style="display:inline;fill:#f9f9f9;fill-opacity:0;stroke-width:0.264583"
         id="rect1020-0"
         width="20.32"
         height="128.5"
         x="0"
         y="0" /></clipPath><clipPath
       clipPathUnits="userSpaceOnUse"
       id="clipPath1086-7"><rect
         style="fill:#f9f9f9;fill-opacity:0;stroke-width:0.264583"
         id="rect1088-8"
         width="20.32"
         height="128.5"
         x="0"
         y="-2.7755579e-17" /></clipPath></defs><g
     aria-label="C# D♭  "
     id="text3448"
     style="font-size:7.05556px;line-height:0.7;font-family:'Futura PT';-inkscape-font-specification:'Futura PT';text-align:center;letter-spacing:-0.0079375px;text-anchor:middle;stroke-width:2;stroke-linecap:square;fill:#f7dfff;fill-opacity:1"
     transform="matrix(0.95024156,0,0,0.95024156,0.26508532,0.16424451)"><path
       d="M 5.3956295,1.40141 C 4.8311847,0.97102085 4.2879066,0.93574305 4.0056842,0.93574305 c -1.411112,0 -2.4623905,1.04422285 -2.4623905,2.44827935 0,1.3617231 1.0371674,2.4200571 2.4341683,2.4200571 0.352778,0 0.8960561,-0.084667 1.4181675,-0.4586114 V 4.6963566 C 5.3109628,4.7810233 5.1204627,4.9574123 4.8523514,5.091468 4.6054068,5.218468 4.2949622,5.3101903 3.977462,5.3101903 c -0.8607784,0 -1.8979457,-0.642056 -1.8979457,-1.9191123 0,-1.0865563 0.8043338,-1.9614457 1.8908901,-1.9614457 0.2751668,0 0.5644448,0.070556 0.8113894,0.1834445 0.2398891,0.112889 0.465667,0.289278 0.6138337,0.4374447 z"
       id="path3456"
       style="fill:#f7dfff;fill-opacity:1" /><path
       d="m 8.5203603,5.7194128 0.225778,-1.4605009 h 0.7761116 l 0.070556,-0.465667 H 8.8166939 L 8.9578051,2.8548554 h 0.7761116 l 0.070556,-0.465667 H 9.0283607 L 9.2400275,1.0133542 H 8.7249716 L 8.5133048,2.3891884 H 7.5537486 L 7.7654154,1.0133542 H 7.2503595 L 7.0386927,2.3891884 H 6.2625811 l -0.070556,0.465667 h 0.776112 L 6.8270259,3.7932449 H 6.0509143 l -0.070556,0.465667 h 0.776112 L 6.5306924,5.7194128 H 7.0457483 L 7.2715262,4.2589119 H 8.2310824 L 8.0053044,5.7194128 Z M 8.301638,3.7932449 H 7.3420818 L 7.483193,2.8548554 h 0.9595562 z"
       id="path3458"
       style="fill:#f7dfff;fill-opacity:1" /><path
       d="m 1.7119806,10.869138 h 0.9525006 c 0.8396117,0 1.2911675,-0.176389 1.7215567,-0.543278 0.3386669,-0.289278 0.8255005,-0.8184451 0.8255005,-1.8062235 0,-0.8466672 -0.3739447,-1.4463898 -0.8043338,-1.8062234 C 3.8145375,6.2124684 3.1442593,6.1630795 2.6715368,6.1630795 H 1.7119806 Z M 2.2340921,6.6569687 h 0.4586114 c 1.1923896,0 1.9826124,0.7337782 1.9826124,1.8626678 0,0.6702782 -0.2822224,1.1359452 -0.6350004,1.4322787 C 3.581704,10.332915 3.0666482,10.375249 2.6927035,10.375249 H 2.2340921 Z"
       id="path3460"
       style="fill:#f7dfff;fill-opacity:1" /><path
       d="M 6.9171922,10.869138 V 5.7703934 h 0.2135961 v 3.2866233 q 0.564996,-0.8233784 1.1093214,-0.8233784 0.3203941,0 0.5512157,0.2411568 0.2308215,0.2377118 0.2308215,0.5718863 0,0.6614587 -0.5684411,1.1541076 -0.564996,0.489204 -1.5365136,0.668349 z m 0.2135961,-0.244602 q 1.3814841,-0.354845 1.3814841,-1.3745939 0,-0.6235627 -0.4823136,-0.6235627 -0.3996314,0 -0.8991705,0.7785921 z"
       id="path3462"
       style="fill:#f7dfff;fill-opacity:1" /></g></svg>
