<?xml version="1.0" encoding="UTF-8" standalone="no"?>
<!-- Created with Inkscape (http://www.inkscape.org/) -->

<svg
   width="11.6mm"
   height="11.599828mm"
   viewBox="0 0 11.600001 11.599828"
   version="1.1"
   id="svg5"
   inkscape:version="1.2.1 (9c6d41e410, 2022-07-14)"
   sodipodi:docname="D_SHARP.svg"
   xml:space="preserve"
   xmlns:inkscape="http://www.inkscape.org/namespaces/inkscape"
   xmlns:sodipodi="http://sodipodi.sourceforge.net/DTD/sodipodi-0.dtd"
   xmlns="http://www.w3.org/2000/svg"
   xmlns:svg="http://www.w3.org/2000/svg"><sodipodi:namedview
     id="namedview7"
     pagecolor="#ffffff"
     bordercolor="#000000"
     borderopacity="0.25"
     inkscape:showpageshadow="2"
     inkscape:pageopacity="0.0"
     inkscape:pagecheckerboard="0"
     inkscape:deskcolor="#d1d1d1"
     inkscape:document-units="mm"
     showgrid="false"
     inkscape:zoom="11.24132"
     inkscape:cx="31.224091"
     inkscape:cy="16.724015"
     inkscape:window-width="1918"
     inkscape:window-height="1028"
     inkscape:window-x="1913"
     inkscape:window-y="15"
     inkscape:window-maximized="0"
     inkscape:current-layer="svg5" /><defs
     id="defs2"><rect
       x="30.175261"
       y="16.764032"
       width="4.6939292"
       height="17.434595"
       id="rect1148" /><rect
       x="30.175261"
       y="16.764032"
       width="4.6939292"
       height="17.434595"
       id="rect1148-3" /><clipPath
       clipPathUnits="userSpaceOnUse"
       id="clipPath1018"><rect
         style="display:inline;fill:#f9f9f9;fill-opacity:0;stroke-width:0.264583"
         id="rect1020"
         width="20.32"
         height="128.5"
         x="0"
         y="0" /></clipPath><clipPath
       clipPathUnits="userSpaceOnUse"
       id="clipPath1086"><rect
         style="fill:#f9f9f9;fill-opacity:0;stroke-width:0.264583"
         id="rect1088"
         width="20.32"
         height="128.5"
         x="0"
         y="-2.7755579e-17" /></clipPath><rect
       x="30.175261"
       y="16.764032"
       width="4.6939292"
       height="17.434595"
       id="rect1148-4" /><clipPath
       clipPathUnits="userSpaceOnUse"
       id="clipPath1018-7"><rect
         style="display:inline;fill:#f9f9f9;fill-opacity:0;stroke-width:0.264583"
         id="rect1020-1"
         width="20.32"
         height="128.5"
         x="0"
         y="0" /></clipPath><clipPath
       clipPathUnits="userSpaceOnUse"
       id="clipPath1086-6"><rect
         style="fill:#f9f9f9;fill-opacity:0;stroke-width:0.264583"
         id="rect1088-3"
         width="20.32"
         height="128.5"
         x="0"
         y="-2.7755579e-17" /></clipPath><rect
       x="30.175261"
       y="16.764032"
       width="4.6939292"
       height="17.434595"
       id="rect1148-2" /><clipPath
       clipPathUnits="userSpaceOnUse"
       id="clipPath1018-8"><rect
         style="display:inline;fill:#f9f9f9;fill-opacity:0;stroke-width:0.264583"
         id="rect1020-0"
         width="20.32"
         height="128.5"
         x="0"
         y="0" /></clipPath><clipPath
       clipPathUnits="userSpaceOnUse"
       id="clipPath1086-7"><rect
         style="fill:#f9f9f9;fill-opacity:0;stroke-width:0.264583"
         id="rect1088-8"
         width="20.32"
         height="128.5"
         x="0"
         y="-2.7755579e-17" /></clipPath></defs><g
     aria-label="D♯ E♭"
     id="text3617"
     style="font-size:7.05556px;line-height:0.8;font-family:'Futura PT';-inkscape-font-specification:'Futura PT';text-align:center;text-anchor:middle;stroke-width:2;stroke-linecap:square;fill:#f7dfff;fill-opacity:1"
     transform="matrix(0.86637333,0,0,0.86637333,0.65218647,0.90991786)"><path
       d="m 2.2385973,5.3428259 h 0.9525006 c 0.8396117,0 1.2911675,-0.176389 1.7215567,-0.5432781 0.3386669,-0.289278 0.8255005,-0.818445 0.8255005,-1.8062234 0,-0.8466672 -0.3739446,-1.4463899 -0.8043338,-1.8062234 C 4.3411542,0.68615622 3.670876,0.63676729 3.1981535,0.63676729 H 2.2385973 Z M 2.7607088,1.1306565 h 0.4586114 c 1.1923896,0 1.9826124,0.7337783 1.9826124,1.8626679 0,0.6702782 -0.2822224,1.1359452 -0.6350004,1.4322787 C 4.1083208,4.8066033 3.5932649,4.8489367 3.2193202,4.8489367 H 2.7607088 Z"
       id="path3625"
       style="fill:#f7dfff;fill-opacity:1" /><path
       d="M 9.4602383,3.9096652 8.7712188,4.2162789 v 1.126547 H 8.4749404 V 4.3506377 l -1.233345,0.5512157 v 1.164443 H 6.945317 V 5.0362122 L 6.2562974,5.3428259 V 4.7640495 L 6.945317,4.4574358 V 2.7555575 L 6.2562974,3.0621712 V 2.4833948 L 6.945317,2.1767811 V 1.0502341 H 7.2415954 V 2.0424223 L 8.4749404,1.4912066 V 0.29231265 H 8.7712188 V 1.3568478 L 9.4602383,1.0502341 V 1.6290106 L 8.7712188,1.9356243 V 3.6375025 L 9.4602383,3.3308888 Z M 8.4749404,3.7718613 V 2.0699831 L 7.2415954,2.6211987 V 4.323077 Z"
       id="path3627"
       style="fill:#f7dfff;fill-opacity:1" /><path
       d="M 4.7215055,6.4920487 H 2.2802817 V 11.198107 H 4.7215055 V 10.704218 H 2.8023931 V 8.876828 H 4.665061 V 8.3829388 H 2.8023931 V 6.9859379 h 1.9191124 z"
       id="path3629"
       style="fill:#f7dfff;fill-opacity:1" /><path
       d="M 6.4350994,11.198107 V 6.0993627 h 0.2135961 v 3.2866232 q 0.564996,-0.8233783 1.1093215,-0.8233783 0.320394,0 0.5512156,0.2411568 0.2308215,0.2377117 0.2308215,0.5718862 0,0.6614584 -0.5684411,1.1541074 -0.564996,0.489204 -1.5365136,0.668349 z m 0.2135961,-0.244602 q 1.3814842,-0.354845 1.3814842,-1.3745936 0,-0.6235627 -0.4823137,-0.6235627 -0.3996313,0 -0.8991705,0.7785921 z"
       id="path3631"
       style="fill:#f7dfff;fill-opacity:1" /></g></svg>
