<?xml version="1.0" encoding="UTF-8" standalone="no"?>
<!-- Created with Inkscape (http://www.inkscape.org/) -->

<svg
   width="11.6mm"
   height="11.599828mm"
   viewBox="0 0 11.600001 11.599828"
   version="1.1"
   id="svg5"
   inkscape:version="1.2.1 (9c6d41e410, 2022-07-14)"
   sodipodi:docname="F_SHARP.svg"
   xml:space="preserve"
   xmlns:inkscape="http://www.inkscape.org/namespaces/inkscape"
   xmlns:sodipodi="http://sodipodi.sourceforge.net/DTD/sodipodi-0.dtd"
   xmlns="http://www.w3.org/2000/svg"
   xmlns:svg="http://www.w3.org/2000/svg"><sodipodi:namedview
     id="namedview7"
     pagecolor="#ffffff"
     bordercolor="#000000"
     borderopacity="0.25"
     inkscape:showpageshadow="2"
     inkscape:pageopacity="0.0"
     inkscape:pagecheckerboard="0"
     inkscape:deskcolor="#d1d1d1"
     inkscape:document-units="mm"
     showgrid="false"
     inkscape:zoom="11.24132"
     inkscape:cx="30.423473"
     inkscape:cy="24.196447"
     inkscape:window-width="1918"
     inkscape:window-height="1028"
     inkscape:window-x="1913"
     inkscape:window-y="15"
     inkscape:window-maximized="0"
     inkscape:current-layer="svg5" /><defs
     id="defs2"><rect
       x="30.175261"
       y="16.764032"
       width="4.6939292"
       height="17.434595"
       id="rect1148" /><rect
       x="30.175261"
       y="16.764032"
       width="4.6939292"
       height="17.434595"
       id="rect1148-3" /><clipPath
       clipPathUnits="userSpaceOnUse"
       id="clipPath1018"><rect
         style="display:inline;fill:#f9f9f9;fill-opacity:0;stroke-width:0.264583"
         id="rect1020"
         width="20.32"
         height="128.5"
         x="0"
         y="0" /></clipPath><clipPath
       clipPathUnits="userSpaceOnUse"
       id="clipPath1086"><rect
         style="fill:#f9f9f9;fill-opacity:0;stroke-width:0.264583"
         id="rect1088"
         width="20.32"
         height="128.5"
         x="0"
         y="-2.7755579e-17" /></clipPath><rect
       x="30.175261"
       y="16.764032"
       width="4.6939292"
       height="17.434595"
       id="rect1148-4" /><clipPath
       clipPathUnits="userSpaceOnUse"
       id="clipPath1018-7"><rect
         style="display:inline;fill:#f9f9f9;fill-opacity:0;stroke-width:0.264583"
         id="rect1020-1"
         width="20.32"
         height="128.5"
         x="0"
         y="0" /></clipPath><clipPath
       clipPathUnits="userSpaceOnUse"
       id="clipPath1086-6"><rect
         style="fill:#f9f9f9;fill-opacity:0;stroke-width:0.264583"
         id="rect1088-3"
         width="20.32"
         height="128.5"
         x="0"
         y="-2.7755579e-17" /></clipPath><rect
       x="30.175261"
       y="16.764032"
       width="4.6939292"
       height="17.434595"
       id="rect1148-2" /><clipPath
       clipPathUnits="userSpaceOnUse"
       id="clipPath1018-8"><rect
         style="display:inline;fill:#f9f9f9;fill-opacity:0;stroke-width:0.264583"
         id="rect1020-0"
         width="20.32"
         height="128.5"
         x="0"
         y="0" /></clipPath><clipPath
       clipPathUnits="userSpaceOnUse"
       id="clipPath1086-7"><rect
         style="fill:#f9f9f9;fill-opacity:0;stroke-width:0.264583"
         id="rect1088-8"
         width="20.32"
         height="128.5"
         x="0"
         y="-2.7755579e-17" /></clipPath></defs><g
     aria-label="F♯ G♭"
     id="text3716"
     style="font-size:7.05556px;line-height:0.8;font-family:'Futura PT';-inkscape-font-specification:'Futura PT';text-align:center;text-anchor:middle;stroke-width:2;stroke-linecap:square;fill:#f7dfff;fill-opacity:1"
     transform="matrix(0.83865843,0,0,0.83865843,0.8235565,1.0592394)"><path
       d="M 5.3408914,0.63676729 H 3.1960011 V 5.3428259 H 3.7181126 V 3.0144911 H 5.2844469 V 2.5206018 H 3.7181126 V 1.1306565 h 1.6227788 z"
       id="path3724"
       style="fill:#f7dfff;fill-opacity:1" /><path
       d="M 9.0206418,3.9096652 8.3316223,4.2162789 v 1.126547 H 8.0353439 V 4.3506377 l -1.233345,0.5512157 v 1.164443 H 6.5057205 V 5.0362122 L 5.8167009,5.3428259 V 4.7640495 L 6.5057205,4.4574358 V 2.7555575 L 5.8167009,3.0621712 V 2.4833948 L 6.5057205,2.1767811 V 1.0502341 H 6.8019989 V 2.0424223 L 8.0353439,1.4912066 V 0.29231265 H 8.3316223 V 1.3568478 L 9.0206418,1.0502341 V 1.6290106 L 8.3316223,1.9356243 V 3.6375025 L 9.0206418,3.3308888 Z M 8.0353439,3.7718613 V 2.0699831 L 6.8019989,2.6211987 V 4.323077 Z"
       id="path3726"
       style="fill:#f7dfff;fill-opacity:1" /><path
       d="M 3.9926338,9.3283839 H 5.3896347 C 5.3755236,9.6247174 5.2838013,9.8504953 5.1991346,9.9986621 4.9310233,10.471385 4.3877452,10.788885 3.7598004,10.788885 c -0.8890006,0 -1.9120568,-0.649112 -1.9120568,-1.9332236 0,-1.0936119 0.7902227,-1.9473346 1.9261679,-1.9473346 0.5644448,0 0.9172228,0.2116668 1.1430007,0.3951113 0.1552223,0.1270001 0.3104447,0.2963336 0.4445003,0.4868337 L 5.7494683,7.4374938 C 5.6154127,7.2540492 5.417857,7.0423824 5.2061902,6.8801045 4.7475788,6.5273265 4.2184118,6.4144376 3.7668559,6.4144376 c -1.4040565,0 -2.4553349,1.0653895 -2.4553349,2.4341682 0,1.3687782 1.0442229,2.4341682 2.4412238,2.4341682 1.0795007,0 1.6086677,-0.656167 1.7497789,-0.846667 C 5.7988572,10.03394 5.9540795,9.4694951 5.9540795,8.9473836 V 8.8344947 H 3.9926338 Z"
       id="path3728"
       style="fill:#f7dfff;fill-opacity:1" /><path
       d="M 7.6676673,11.198107 V 6.0993627 h 0.213596 v 3.2866232 q 0.564996,-0.8233783 1.1093215,-0.8233783 0.3203941,0 0.5512156,0.2411568 0.2308216,0.2377117 0.2308216,0.5718862 0,0.6614584 -0.5684412,1.1541074 -0.564996,0.489204 -1.5365135,0.668349 z m 0.213596,-0.244602 q 1.3814842,-0.354845 1.3814842,-1.3745936 0,-0.6235627 -0.4823137,-0.6235627 -0.3996313,0 -0.8991705,0.7785921 z"
       id="path3730"
       style="fill:#f7dfff;fill-opacity:1" /></g></svg>
