<?xml version="1.0" encoding="UTF-8" standalone="no"?>
<!-- Created with Inkscape (http://www.inkscape.org/) -->

<svg
   width="11.6mm"
   height="11.599828mm"
   viewBox="0 0 11.600001 11.599828"
   version="1.1"
   id="svg5"
   inkscape:version="1.2.1 (9c6d41e410, 2022-07-14)"
   sodipodi:docname="G_SHARP.svg"
   xml:space="preserve"
   xmlns:inkscape="http://www.inkscape.org/namespaces/inkscape"
   xmlns:sodipodi="http://sodipodi.sourceforge.net/DTD/sodipodi-0.dtd"
   xmlns="http://www.w3.org/2000/svg"
   xmlns:svg="http://www.w3.org/2000/svg"><sodipodi:namedview
     id="namedview7"
     pagecolor="#ffffff"
     bordercolor="#000000"
     borderopacity="0.25"
     inkscape:showpageshadow="2"
     inkscape:pageopacity="0.0"
     inkscape:pagecheckerboard="0"
     inkscape:deskcolor="#d1d1d1"
     inkscape:document-units="mm"
     showgrid="false"
     inkscape:zoom="11.24132"
     inkscape:cx="30.423473"
     inkscape:cy="24.196447"
     inkscape:window-width="1918"
     inkscape:window-height="1028"
     inkscape:window-x="1913"
     inkscape:window-y="15"
     inkscape:window-maximized="0"
     inkscape:current-layer="svg5" /><defs
     id="defs2"><rect
       x="30.175261"
       y="16.764032"
       width="4.6939292"
       height="17.434595"
       id="rect1148" /><rect
       x="30.175261"
       y="16.764032"
       width="4.6939292"
       height="17.434595"
       id="rect1148-3" /><clipPath
       clipPathUnits="userSpaceOnUse"
       id="clipPath1018"><rect
         style="display:inline;fill:#f9f9f9;fill-opacity:0;stroke-width:0.264583"
         id="rect1020"
         width="20.32"
         height="128.5"
         x="0"
         y="0" /></clipPath><clipPath
       clipPathUnits="userSpaceOnUse"
       id="clipPath1086"><rect
         style="fill:#f9f9f9;fill-opacity:0;stroke-width:0.264583"
         id="rect1088"
         width="20.32"
         height="128.5"
         x="0"
         y="-2.7755579e-17" /></clipPath><rect
       x="30.175261"
       y="16.764032"
       width="4.6939292"
       height="17.434595"
       id="rect1148-4" /><clipPath
       clipPathUnits="userSpaceOnUse"
       id="clipPath1018-7"><rect
         style="display:inline;fill:#f9f9f9;fill-opacity:0;stroke-width:0.264583"
         id="rect1020-1"
         width="20.32"
         height="128.5"
         x="0"
         y="0" /></clipPath><clipPath
       clipPathUnits="userSpaceOnUse"
       id="clipPath1086-6"><rect
         style="fill:#f9f9f9;fill-opacity:0;stroke-width:0.264583"
         id="rect1088-3"
         width="20.32"
         height="128.5"
         x="0"
         y="-2.7755579e-17" /></clipPath><rect
       x="30.175261"
       y="16.764032"
       width="4.6939292"
       height="17.434595"
       id="rect1148-2" /><clipPath
       clipPathUnits="userSpaceOnUse"
       id="clipPath1018-8"><rect
         style="display:inline;fill:#f9f9f9;fill-opacity:0;stroke-width:0.264583"
         id="rect1020-0"
         width="20.32"
         height="128.5"
         x="0"
         y="0" /></clipPath><clipPath
       clipPathUnits="userSpaceOnUse"
       id="clipPath1086-7"><rect
         style="fill:#f9f9f9;fill-opacity:0;stroke-width:0.264583"
         id="rect1088-8"
         width="20.32"
         height="128.5"
         x="0"
         y="-2.7755579e-17" /></clipPath></defs><g
     aria-label="G♯ A♭"
     id="text3716"
     style="font-size:7.05556px;line-height:0.8;font-family:'Futura PT';-inkscape-font-specification:'Futura PT';text-align:center;text-anchor:middle;stroke-width:2;stroke-linecap:square;fill:#f7dfff;fill-opacity:1"
     transform="matrix(0.88345822,0,0,0.88345822,0.5037393,0.78724035)"><path
       d="M 4.4801152,3.4731025 H 5.8771161 C 5.8630049,3.769436 5.7712827,3.9952139 5.6866159,4.1433807 5.4185047,4.6161032 4.8752265,4.9336034 4.2472817,4.9336034 c -0.8890006,0 -1.9120568,-0.6491115 -1.9120568,-1.9332235 0,-1.0936118 0.7902227,-1.9473346 1.9261679,-1.9473346 0.5644448,0 0.9172228,0.2116668 1.1430007,0.3951114 0.1552224,0.1270001 0.3104447,0.2963335 0.4445003,0.4868337 L 6.2369496,1.5822123 C 6.102894,1.3987678 5.9053383,1.187101 5.6936715,1.0248231 5.2350601,0.6720451 4.7058931,0.55915613 4.2543372,0.55915613 c -1.4040564,0 -2.4553349,1.06538957 -2.4553349,2.43416827 0,1.3687786 1.0442229,2.4341682 2.4412238,2.4341682 1.0795007,0 1.6086677,-0.6561671 1.7497789,-0.8466672 C 6.2863386,4.1786585 6.4415609,3.6142137 6.4415609,3.0921022 V 2.9792133 H 4.4801152 Z"
       id="path3757"
       style="fill:#f7dfff;fill-opacity:1" /><path
       d="m 10.163641,3.9096652 -0.68902,0.3066137 v 1.126547 H 9.1783426 V 4.3506377 l -1.233345,0.5512157 v 1.164443 H 7.6487192 V 5.0362122 L 6.9596997,5.3428259 V 4.7640495 L 7.6487192,4.4574358 V 2.7555575 L 6.9596997,3.0621712 V 2.4833948 L 7.6487192,2.1767811 V 1.0502341 H 7.9449976 V 2.0424223 L 9.1783426,1.4912066 V 0.29231265 H 9.474621 V 1.3568478 l 0.68902,-0.3066137 v 0.5787765 l -0.68902,0.3066137 v 1.7018782 l 0.68902,-0.3066137 z M 9.1783426,3.7718613 V 2.0699831 L 7.9449976,2.6211987 V 4.323077 Z"
       id="path3759"
       style="fill:#f7dfff;fill-opacity:1" /><path
       d="m 5.1920779,11.198107 h 0.578556 L 3.6610214,6.2662708 1.4949644,11.198107 h 0.578556 L 2.6379652,9.871662 h 2.003779 z M 2.8425764,9.3777728 3.6469103,7.4939383 4.437133,9.3777728 Z"
       id="path3761"
       style="fill:#f7dfff;fill-opacity:1" /><path
       d="M 7.18789,11.198107 V 6.0993627 h 0.2135961 v 3.2866232 q 0.564996,-0.8233783 1.1093214,-0.8233783 0.3203941,0 0.5512157,0.2411568 0.2308215,0.2377117 0.2308215,0.5718862 0,0.6614584 -0.5684411,1.1541074 -0.564996,0.489204 -1.5365136,0.668349 z m 0.2135961,-0.244602 q 1.3814842,-0.354845 1.3814842,-1.3745936 0,-0.6235627 -0.4823137,-0.6235627 -0.3996314,0 -0.8991705,0.7785921 z"
       id="path3763"
       style="fill:#f7dfff;fill-opacity:1" /></g></svg>
