<?xml version="1.0" encoding="UTF-8" standalone="no"?>
<!-- Created with Inkscape (http://www.inkscape.org/) -->

<svg
   width="56"
   height="56"
   viewBox="0 0 14.816666 14.816666"
   version="1.1"
   id="svg26107"
   xml:space="preserve"
   inkscape:version="1.2.1 (9c6d41e410, 2022-07-14)"
   sodipodi:docname="fiveMaj.svg"
   xmlns:inkscape="http://www.inkscape.org/namespaces/inkscape"
   xmlns:sodipodi="http://sodipodi.sourceforge.net/DTD/sodipodi-0.dtd"
   xmlns="http://www.w3.org/2000/svg"
   xmlns:svg="http://www.w3.org/2000/svg"><sodipodi:namedview
     id="namedview26109"
     pagecolor="#ffffff"
     bordercolor="#000000"
     borderopacity="0.25"
     inkscape:showpageshadow="2"
     inkscape:pageopacity="0.0"
     inkscape:pagecheckerboard="0"
     inkscape:deskcolor="#d1d1d1"
     inkscape:document-units="mm"
     showgrid="false"
     inkscape:zoom="8.7686002"
     inkscape:cx="21.269073"
     inkscape:cy="28.168692"
     inkscape:window-width="1920"
     inkscape:window-height="1052"
     inkscape:window-x="1912"
     inkscape:window-y="-8"
     inkscape:window-maximized="1"
     inkscape:current-layer="svg26107" /><defs
     id="defs26104" /><g
     inkscape:groupmode="layer"
     id="layer2"
     inkscape:label="Layer 2"><g
       aria-label="V"
       id="text26712"
       style="font-size:7.05556px;font-family:Garamond;-inkscape-font-specification:Garamond;text-align:center;text-anchor:middle;stroke-width:0.257;stroke-linecap:square"><path
         d="m 4.8241811,5.0760636 0.024116,-0.058567 q 0.2790529,0 0.5581059,0.00689 h 0.1136882 q 0.051676,0 0.1136882,-0.00345 0.2239314,-0.010335 0.809598,-0.010335 0.1171333,0 0.2273764,0.00345 0.1102431,0 0.2135961,0.00345 0.020671,0.010335 0.031006,0.031006 l -0.00689,0.055122 q -0.020671,0.034451 -0.103353,0.034451 h -0.027561 q -0.096463,-0.00345 -0.3169489,0.017226 -0.2204863,0.017225 -0.2893883,0.068902 -0.044786,0.037896 -0.044786,0.099908 0,0.1343588 0.1136882,0.4030764 L 6.7637712,6.9433066 6.9463613,7.346383 q 0.2652726,0.6407882 0.5236549,1.3091371 0.027561,0.072347 0.051676,0.1309138 L 7.7525142,8.2214378 Q 7.9316593,7.7942457 8.1142495,7.311932 L 8.3519612,6.6642537 q 0.00689,-0.020671 0.037896,-0.1378039 0.3341745,-0.9129509 0.3341745,-1.1541078 0,-0.051676 -0.048231,-0.1033529 Q 8.6310141,5.2138675 8.5276612,5.1794166 8.48632,5.1656362 8.2589436,5.1380754 L 8.0040063,5.1070695 q -0.031006,-0.034451 -0.031006,-0.058567 l 0.010335,-0.027561 1.1162117,-0.010335 h 0.3686255 q 0.1860352,0 0.2549372,0.024116 l 0.00345,0.027561 q 0,0.027561 -0.020671,0.072347 -0.082682,0.027561 -0.1515843,0.034451 -0.2893882,0.034451 -0.3582902,0.082682 -0.068902,0.044786 -0.1446941,0.1963706 L 8.1452553,7.6874477 Q 7.7215083,8.6968613 7.5423632,9.251522 l -0.099908,0.2997235 q -0.044786,0.027561 -0.075792,0.027561 -0.037896,0 -0.082682,-0.00689 Q 6.8740143,8.510826 6.615632,7.9320496 L 5.5614321,5.5411518 Q 5.4477438,5.3275558 5.3891772,5.2862146 5.3340556,5.2414283 4.9929909,5.1621911 4.8724125,5.1346303 4.8586321,5.1277401 4.8345164,5.1105146 4.8241811,5.0760636 Z"
         id="path343" /></g></g></svg>
