<?xml version="1.0" encoding="UTF-8" standalone="no"?>
<!-- Created with Inkscape (http://www.inkscape.org/) -->

<svg
   width="56"
   height="56"
   viewBox="0 0 14.816666 14.816666"
   version="1.1"
   id="svg26107"
   xml:space="preserve"
   inkscape:version="1.2.1 (9c6d41e410, 2022-07-14)"
   sodipodi:docname="fourMaj7.svg"
   xmlns:inkscape="http://www.inkscape.org/namespaces/inkscape"
   xmlns:sodipodi="http://sodipodi.sourceforge.net/DTD/sodipodi-0.dtd"
   xmlns="http://www.w3.org/2000/svg"
   xmlns:svg="http://www.w3.org/2000/svg"><sodipodi:namedview
     id="namedview26109"
     pagecolor="#ffffff"
     bordercolor="#000000"
     borderopacity="0.25"
     inkscape:showpageshadow="2"
     inkscape:pageopacity="0.0"
     inkscape:pagecheckerboard="0"
     inkscape:deskcolor="#d1d1d1"
     inkscape:document-units="mm"
     showgrid="false"
     inkscape:zoom="8.7686002"
     inkscape:cx="21.269073"
     inkscape:cy="28.168692"
     inkscape:window-width="1920"
     inkscape:window-height="1052"
     inkscape:window-x="1912"
     inkscape:window-y="-8"
     inkscape:window-maximized="1"
     inkscape:current-layer="layer2" /><defs
     id="defs26104" /><g
     inkscape:groupmode="layer"
     id="layer2"
     inkscape:label="Layer 2"><g
       aria-label="IV"
       id="text26712"
       style="font-size:7.05556px;font-family:Garamond;-inkscape-font-specification:Garamond;text-align:center;text-anchor:middle;stroke-width:0.257;stroke-linecap:square"><path
         d="m 3.7820391,9.3342044 q 0.075792,-0.031006 0.1550294,-0.037896 0.5270999,-0.034451 0.6028921,-0.1240235 0.075792,-0.093018 0.075792,-0.8853901 L 4.6123076,7.9251594 V 7.5461987 l -0.01378,-0.4168568 0.00689,-0.244602 -0.00345,-0.2687176 v -0.316949 l -0.00689,-0.141249 0.00689,-0.1791451 q 0.00345,-0.062012 0.00345,-0.1446941 0,-0.2170411 -0.020671,-0.458198 -0.01378,-0.048231 -0.037896,-0.093018 Q 4.4193822,5.2173126 4.1334391,5.196642 3.850941,5.1725264 3.813045,5.1449656 3.7854842,5.124295 3.7820391,5.0381675 h 0.2893882 l 0.9129509,0.020671 q 0.3514,0 0.9370666,-0.020671 0,0.055122 -0.00689,0.103353 -0.068902,0.017225 -0.2308216,0.037896 -0.3272843,0.037896 -0.3996313,0.072347 -0.044786,0.017225 -0.065457,0.058567 -0.034451,0.062012 -0.041341,0.2308215 l -0.017226,0.4444176 0.01378,1.5330685 v 0.6063372 q -0.00689,0.2859431 -0.00689,0.389296 0,0.385851 0.017226,0.492649 0.02067,0.106798 0.065457,0.1550294 0.048231,0.044786 0.1550294,0.072347 0.1584745,0.037896 0.248047,0.041341 0.1929255,0.00689 0.244602,0.055122 0.010335,0.044786 0.010335,0.075792 v 0.027561 q -0.3135039,0.010335 -0.4616431,0.010335 -0.086127,0 -0.3066137,-0.010335 l -0.4754235,0.00689 -0.809598,-0.00345 h -0.065457 z"
         id="path703" /><path
         d="m 6.0730291,5.0760636 0.024116,-0.058567 q 0.2790529,0 0.5581059,0.00689 h 0.1136882 q 0.051676,0 0.1136882,-0.00345 0.2239314,-0.010335 0.809598,-0.010335 0.1171333,0 0.2273764,0.00345 0.1102431,0 0.2135961,0.00345 0.020671,0.010335 0.031006,0.031006 l -0.00689,0.055122 q -0.020671,0.034451 -0.103353,0.034451 h -0.027561 q -0.096463,-0.00345 -0.3169489,0.017226 -0.2204863,0.017225 -0.2893883,0.068902 -0.044786,0.037896 -0.044786,0.099908 0,0.1343588 0.1136882,0.4030764 L 8.0126192,6.9433066 8.1952093,7.346383 q 0.2652726,0.6407882 0.5236549,1.3091371 0.027561,0.072347 0.051676,0.1309138 L 9.0013622,8.2214378 Q 9.1805073,7.7942457 9.3630975,7.311932 L 9.6008092,6.6642537 q 0.00689,-0.020671 0.037896,-0.1378039 0.3341745,-0.9129509 0.3341745,-1.1541078 0,-0.051676 -0.048231,-0.1033529 Q 9.8798621,5.2138675 9.7765092,5.1794166 9.735168,5.1656362 9.5077916,5.1380754 L 9.2528543,5.1070695 q -0.031006,-0.034451 -0.031006,-0.058567 l 0.010335,-0.027561 1.1162113,-0.010335 h 0.368626 q 0.186035,0 0.254937,0.024116 l 0.0034,0.027561 q 0,0.027561 -0.02067,0.072347 -0.08268,0.027561 -0.151585,0.034451 -0.289388,0.034451 -0.35829,0.082682 -0.0689,0.044786 -0.144694,0.1963706 L 9.3941033,7.6874477 Q 8.9703563,8.6968613 8.7912112,9.251522 l -0.099908,0.2997235 q -0.044786,0.027561 -0.075792,0.027561 -0.037896,0 -0.082682,-0.00689 Q 8.1228623,8.510826 7.86448,7.9320496 L 6.8102801,5.5411518 Q 6.6965918,5.3275558 6.6380252,5.2862146 6.5829036,5.2414283 6.2418389,5.1621911 6.1212605,5.1346303 6.1074801,5.1277401 6.0833644,5.1105146 6.0730291,5.0760636 Z"
         id="path705" /></g><g
       aria-label="Δ"
       id="text289"
       style="font-size:2.82223px;font-family:Garamond;-inkscape-font-specification:Garamond;text-align:center;text-anchor:middle;stroke-width:0.257;stroke-linecap:square"
       transform="translate(2.6251235,-0.01072548)"><path
         d="m 9.1865189,4.1868366 0.038585,-0.00276 q 0.024805,0.00138 0.04961,0.00138 0.00827,0.023427 0.067524,0.1474505 0.079926,0.165365 0.1433164,0.3183277 0.1722553,0.4161687 0.3486446,0.8171789 0.1777671,0.3996322 0.2494251,0.5208999 0,0.016536 0.0014,0.044097 l -0.04547,0.00138 H 9.4676395 l -0.4947171,-0.00276 -0.095085,0.00138 -0.2342672,-0.00413 q -0.1943039,0 -0.2563158,0.00551 -0.023427,0.00138 -0.037207,0.00138 -0.011024,0 -0.028939,-0.00276 0,-0.017915 0.00551,-0.034451 0.06477,-0.052363 0.2576961,-0.4464833 Q 8.7786184,5.1569782 8.9012642,4.853809 l 0.082683,-0.1777675 0.082682,-0.1998161 0.0565,-0.1198896 z m -0.022049,0.2700963 q -0.023427,0.045475 -0.052366,0.1295359 l -0.1874137,0.458888 q -0.1722553,0.4134126 -0.3100595,0.6917771 -0.016537,0.031695 -0.016537,0.052366 0,0.031695 0.030317,0.042719 0.030317,0.00965 0.1295359,0.00965 l 0.1722553,-0.00138 0.3651811,0.00413 q 0.2508037,0 0.3389983,-0.00965 0.088195,-0.011024 0.088195,-0.046853 0,-0.016536 -0.012402,-0.044097 L 9.5089807,5.2561972 Q 9.3353474,4.8179799 9.1644699,4.4569329 Z"
         id="path395" /></g></g></svg>
