<?xml version="1.0" encoding="UTF-8" standalone="no"?>
<!-- Created with Inkscape (http://www.inkscape.org/) -->

<svg
   width="56"
   height="56"
   viewBox="0 0 14.816666 14.816666"
   version="1.1"
   id="svg26107"
   xml:space="preserve"
   inkscape:version="1.2.1 (9c6d41e410, 2022-07-14)"
   sodipodi:docname="fourMaj.svg"
   xmlns:inkscape="http://www.inkscape.org/namespaces/inkscape"
   xmlns:sodipodi="http://sodipodi.sourceforge.net/DTD/sodipodi-0.dtd"
   xmlns="http://www.w3.org/2000/svg"
   xmlns:svg="http://www.w3.org/2000/svg"><sodipodi:namedview
     id="namedview26109"
     pagecolor="#ffffff"
     bordercolor="#000000"
     borderopacity="0.25"
     inkscape:showpageshadow="2"
     inkscape:pageopacity="0.0"
     inkscape:pagecheckerboard="0"
     inkscape:deskcolor="#d1d1d1"
     inkscape:document-units="mm"
     showgrid="false"
     inkscape:zoom="8.7686002"
     inkscape:cx="21.269073"
     inkscape:cy="28.168692"
     inkscape:window-width="1920"
     inkscape:window-height="1052"
     inkscape:window-x="1912"
     inkscape:window-y="-8"
     inkscape:window-maximized="1"
     inkscape:current-layer="layer2" /><defs
     id="defs26104" /><g
     inkscape:groupmode="layer"
     id="layer2"
     inkscape:label="Layer 2"><g
       aria-label="IV"
       id="text26712"
       style="font-size:7.05556px;font-family:Garamond;-inkscape-font-specification:Garamond;text-align:center;text-anchor:middle;stroke-width:0.257;stroke-linecap:square"><path
         d="m 4.1441263,9.4247262 q 0.075792,-0.031006 0.1550294,-0.037896 0.5271,-0.034451 0.6028921,-0.1240235 Q 4.97784,9.169789 4.97784,8.3774165 L 4.9743949,8.0156812 V 7.6367205 l -0.01378,-0.4168568 0.00689,-0.244602 -0.00345,-0.2687176 v -0.316949 l -0.00689,-0.141249 0.00689,-0.1791451 q 0.00345,-0.062012 0.00345,-0.1446941 0,-0.2170411 -0.020671,-0.458198 Q 4.9330537,5.4180776 4.908938,5.3732913 4.7814694,5.3078344 4.4955263,5.2871639 4.2130283,5.2630482 4.1751322,5.2354874 4.1475714,5.2148168 4.1441263,5.1286894 h 0.2893882 l 0.9129509,0.020671 q 0.3514,0 0.9370666,-0.020671 0,0.055122 -0.00689,0.1033529 -0.068902,0.017226 -0.2308215,0.037896 -0.3272843,0.037896 -0.3996314,0.072347 -0.044786,0.017226 -0.065457,0.058567 -0.034451,0.062012 -0.041341,0.2308215 l -0.017226,0.4444176 0.01378,1.5330685 v 0.6063372 q -0.00689,0.2859431 -0.00689,0.389296 0,0.385851 0.017225,0.492649 0.020671,0.106798 0.065457,0.1550294 0.048231,0.044786 0.1550294,0.072347 0.1584745,0.037896 0.248047,0.041341 0.1929255,0.00689 0.2446019,0.055122 0.010335,0.044786 0.010335,0.075792 v 0.027561 q -0.3135039,0.010335 -0.4616431,0.010335 -0.086127,0 -0.3066137,-0.010335 l -0.4754235,0.00689 -0.8095979,-0.00345 h -0.065457 z"
         id="path343" /><path
         d="m 6.4351164,5.1665854 0.024116,-0.058567 q 0.2790529,0 0.5581058,0.00689 h 0.1136882 q 0.051677,0 0.1136883,-0.00345 0.2239313,-0.010335 0.8095979,-0.010335 0.1171333,0 0.2273765,0.00345 0.1102431,0 0.213596,0.00345 0.020671,0.010335 0.031006,0.031006 l -0.00689,0.055121 q -0.020671,0.034451 -0.1033529,0.034451 h -0.027561 q -0.096463,-0.00345 -0.316949,0.017225 -0.2204862,0.017226 -0.2893882,0.068902 -0.044786,0.037896 -0.044786,0.099908 0,0.1343588 0.1136883,0.4030764 L 8.3747064,7.0338284 8.5572966,7.4369048 Q 8.8225691,8.077693 9.0809514,8.746042 9.1085122,8.818389 9.1326279,8.8769557 L 9.3634494,8.3119596 Q 9.5425945,7.8847675 9.7251847,7.4024538 L 9.9628964,6.7547755 q 0.00689,-0.020671 0.037897,-0.1378039 0.334174,-0.9129509 0.334174,-1.1541078 0,-0.051676 -0.04823,-0.1033529 -0.04479,-0.055122 -0.14814,-0.089573 -0.04134,-0.01378 -0.2687172,-0.041341 L 9.6149416,5.1975913 q -0.031006,-0.034451 -0.031006,-0.058567 l 0.010335,-0.027561 1.116212,-0.010335 h 0.368625 q 0.186035,0 0.254937,0.024116 l 0.0034,0.027561 q 0,0.027561 -0.02067,0.072347 -0.08268,0.027561 -0.151584,0.034451 -0.289389,0.034451 -0.358291,0.082682 -0.0689,0.044786 -0.144694,0.1963706 L 9.7561906,7.7779695 Q 9.3324436,8.7873831 9.1532985,9.3420439 l -0.099908,0.2997235 q -0.044786,0.027561 -0.075792,0.027561 -0.037896,0 -0.082682,-0.00689 -0.4099667,-1.06109 -0.668349,-1.6398665 L 7.1723673,5.6316736 Q 7.0586791,5.4180776 7.0001124,5.3767364 6.9449909,5.3319501 6.6039262,5.2527129 6.4833478,5.2251521 6.4695674,5.2182619 6.4454517,5.2010364 6.4351164,5.1665854 Z"
         id="path345" /></g></g></svg>
