<?xml version="1.0" encoding="UTF-8" standalone="no"?>
<!-- Created with Inkscape (http://www.inkscape.org/) -->

<svg
   width="56"
   height="56"
   viewBox="0 0 14.816666 14.816666"
   version="1.1"
   id="svg26107"
   xml:space="preserve"
   inkscape:version="1.2.1 (9c6d41e410, 2022-07-14)"
   sodipodi:docname="majorScale.svg"
   xmlns:inkscape="http://www.inkscape.org/namespaces/inkscape"
   xmlns:sodipodi="http://sodipodi.sourceforge.net/DTD/sodipodi-0.dtd"
   xmlns="http://www.w3.org/2000/svg"
   xmlns:svg="http://www.w3.org/2000/svg"><sodipodi:namedview
     id="namedview26109"
     pagecolor="#ffffff"
     bordercolor="#000000"
     borderopacity="0.25"
     inkscape:showpageshadow="2"
     inkscape:pageopacity="0.0"
     inkscape:pagecheckerboard="0"
     inkscape:deskcolor="#d1d1d1"
     inkscape:document-units="mm"
     showgrid="false"
     inkscape:zoom="8.7686002"
     inkscape:cx="20.926943"
     inkscape:cy="28.168692"
     inkscape:window-width="1920"
     inkscape:window-height="1052"
     inkscape:window-x="1912"
     inkscape:window-y="-8"
     inkscape:window-maximized="1"
     inkscape:current-layer="layer2" /><defs
     id="defs26104" /><g
     inkscape:groupmode="layer"
     id="layer2"
     inkscape:label="Layer 2"><g
       aria-label="Major
Scale"
       id="text26712"
       style="font-size:3.52778px;font-family:Garamond;-inkscape-font-specification:Garamond;text-align:center;text-anchor:middle;stroke-width:0.257;stroke-linecap:square"><path
         d="m 3.4584347,5.4218672 q 0.053399,-0.036174 0.1929255,-0.051676 0.1085206,-0.00517 0.1291912,-0.018948 0.01378,-0.010335 0.020671,-0.025838 Q 3.8270602,5.2616702 3.839118,4.9791722 3.854621,4.6122693 3.8890719,4.002487 3.9166327,3.5373988 3.9166327,3.421988 V 3.3772017 Q 3.7926092,3.3513635 3.5238916,3.3220802 3.5066661,3.296242 3.5066661,3.2824616 q 0,-0.00861 0.012058,-0.031006 0.029283,-0.010335 0.044786,-0.010335 0.01378,0 0.060289,0.00689 0.084405,0.012058 0.2325441,0.012058 0.048231,0 0.1653647,-0.00689 0.082682,-0.00517 0.093018,-0.00517 0.027561,0 0.063734,0.00861 0.017226,0.017225 0.025838,0.032728 l 0.072347,0.1619195 0.4874814,1.0783156 0.2015382,0.4530304 q 0.2394343,-0.473701 0.3720705,-0.8423264 0.00861,-0.027561 0.020671,-0.049954 0.015503,-0.029283 0.029283,-0.065457 0.01378,-0.036173 0.1119657,-0.2756078 0.039619,-0.096463 0.063734,-0.1653647 0.098185,-0.2756078 0.1154108,-0.3152264 0.032728,-0.012058 0.056844,-0.012058 0.027561,0 0.070625,0.00345 0.096463,0.00517 0.3135039,0.00517 0.1343588,0 0.2204863,-0.00345 0.00345,0.018948 0.00345,0.027561 0,0.012058 -0.00517,0.032728 -0.055122,0.029283 -0.1326363,0.032728 -0.1533068,0.00861 -0.194648,0.024116 -0.041341,0.015503 -0.053399,0.039619 -0.010335,0.024116 -0.018948,0.1584745 l 0.00172,0.079237 -0.00172,0.082682 q 0,0.2583823 0.01378,0.8681646 l -0.00172,0.3376196 0.00172,0.2170412 q 0,0.1274686 0.012058,0.1515843 0.012058,0.022393 0.068902,0.043064 0.093018,0.031006 0.3031686,0.063734 0.012058,0.00861 0.012058,0.022393 0,0.015503 -0.00172,0.034451 h -0.079237 q -0.1016304,0 -0.2204863,-0.00689 -0.1188558,-0.00517 -0.1274686,-0.00517 -0.3531225,0 -0.4685333,0.00689 -0.070625,0.00517 -0.089573,0.00517 -0.012058,0 -0.025838,-0.00689 v -0.022393 q 0,-0.015503 0.00517,-0.032728 0.056844,-0.024116 0.1550294,-0.032728 0.1085206,-0.029283 0.1584745,-0.062012 0.015503,-0.065457 0.015503,-0.2669951 l -0.00517,-0.3479549 q 0,-0.056844 0.00517,-0.2118735 0.00689,-0.1550294 0.00689,-0.5047068 0,-0.2773304 -0.01378,-0.4203019 -0.029283,0.060289 -0.1154108,0.2618274 L 5.5220482,3.895689 5.5186031,3.9060242 5.2636659,4.5089163 5.1723708,4.7414604 5.053515,5.0239585 q -0.077515,0.194648 -0.1326363,0.3445097 -0.024116,0.068902 -0.039619,0.1085206 l -0.039619,-0.00172 Q 4.6469934,4.9068251 4.3765533,4.3091007 4.1078356,3.7113762 3.9993151,3.5201733 q -0.01378,0.07407 -0.031006,0.4306372 -0.022393,0.4340823 -0.022393,0.9560146 0,0.1636422 0.024116,0.3686255 0.00689,0.058567 0.049954,0.08785 0.043064,0.027561 0.2222088,0.031006 0.068902,0 0.1309138,0.010335 0.012058,0.025838 0.012058,0.037896 0,0.00861 -0.00861,0.029283 L 3.8408406,5.4528731 q -0.058567,0 -0.1825902,0.00861 -0.068902,0.00517 -0.1980931,0.00689 z"
         id="path402" /><path
         d="m 7.7751421,5.2272192 q 0.010335,0.022393 0.010335,0.032728 0,0.025838 -0.041341,0.091295 -0.053399,0.086127 -0.1188559,0.1257461 -0.041341,0.025838 -0.1136882,0.025838 -0.1240235,0 -0.1860353,-0.075792 -0.037896,-0.044786 -0.053399,-0.1601971 L 7.0792323,5.4011967 q -0.1016303,0.058567 -0.1550294,0.07407 -0.086127,0.022393 -0.2067058,0.022393 -0.08785,0 -0.1395265,-0.051677 -0.049954,-0.053399 -0.049954,-0.1360813 0,-0.1188559 0.1446941,-0.2842206 0.1464167,-0.1653647 0.3961862,-0.2704402 0.1757,-0.07407 0.2153187,-0.09474 0.00345,-0.056844 0.00345,-0.1240235 0,-0.2187637 -0.062012,-0.2962784 -0.060289,-0.077515 -0.1739774,-0.077515 -0.1188559,0 -0.2222088,0.093018 -0.063734,0.058567 -0.096463,0.2204862 -0.010335,0.044786 -0.039619,0.096463 -0.07407,0.048231 -0.1188559,0.048231 -0.037896,0 -0.068902,-0.022393 -0.017225,-0.012058 -0.017225,-0.027561 0,-0.044786 0.09474,-0.2015382 0.096463,-0.1584745 0.2411568,-0.2359892 0.1464167,-0.079237 0.2549372,-0.079237 0.1481392,0 0.2204863,0.027561 0.072347,0.025838 0.1274686,0.093018 0.055122,0.067179 0.067179,0.1464166 0.00689,0.037896 0.00689,0.2704402 l -0.00517,0.2738853 0.00172,0.1998156 q 0,0.039619 -0.00172,0.067179 -0.00172,0.049954 -0.00172,0.07407 0,0.056844 0.032728,0.091295 0.032729,0.034451 0.077515,0.034451 0.065457,0 0.1119657,-0.065457 l 0.020671,-0.027561 q 0.00861,-0.00517 0.037896,-0.012058 z M 7.2687127,5.1772653 q 0.012058,-0.2187637 0.012058,-0.3083362 0,-0.046509 -0.00517,-0.1257461 -0.1154108,0.041341 -0.2446019,0.1257461 -0.1291912,0.084405 -0.2049833,0.194648 -0.055122,0.079237 -0.055122,0.1498617 0,0.067179 0.044786,0.1119657 0.046509,0.044786 0.1154107,0.044786 0.053399,0 0.1291912,-0.037896 0.099908,-0.049954 0.2084284,-0.1550294 z"
         id="path404" /><path
         d="m 8.0283567,3.3772017 q 0,-0.065457 0.043064,-0.1085205 0.044786,-0.044786 0.106798,-0.044786 0.063734,0 0.106798,0.043064 0.044786,0.043064 0.044786,0.1119657 0,0.070625 -0.048231,0.1240235 -0.034451,0.037896 -0.1016303,0.037896 -0.063734,0 -0.1085206,-0.044786 -0.043064,-0.046509 -0.043064,-0.1188559 z M 7.8802175,6.3503211 8.0111312,6.190124 q 0.046509,-0.07407 0.072347,-0.1550294 0.027561,-0.08096 0.037896,-0.1998156 0.015503,-0.1980932 0.015503,-0.3479549 0,-0.043064 -0.00345,-0.1205784 l 0.00172,-0.2687176 q 0.00172,-0.5047069 -0.00689,-0.6511235 -0.00517,-0.091295 -0.027561,-0.1136882 -0.032728,-0.031006 -0.1498617,-0.041341 -0.012058,-0.00172 -0.034451,-0.00345 l 0.00345,-0.065457 Q 8.14549,4.1661291 8.2471204,4.0317703 q 0.022393,-0.027561 0.049954,-0.055122 l 0.012058,-0.00172 q 0.00861,0 0.024116,0.00689 l 0.00517,0.6270078 q 0.012058,0.6562911 0.012058,0.7131352 0,0.3307294 -0.034451,0.4788686 -0.032728,0.1498617 -0.1257461,0.2980009 -0.065457,0.103353 -0.1877578,0.2135961 l -0.070624,0.063734 -0.024116,0.01378 q -0.015503,-0.01378 -0.027561,-0.039619 z"
         id="path406" /><path
         d="m 8.7414921,4.7690212 q 0,-0.1171333 0.048231,-0.2497696 0.049954,-0.1343588 0.1498617,-0.2394343 0.099908,-0.106798 0.2118735,-0.1584744 0.156752,-0.072347 0.3824059,-0.072347 0.3221166,0 0.5374354,0.2204863 0.217041,0.2204862 0.217041,0.530545 0,0.2756078 -0.227376,0.492649 -0.2256544,0.2153186 -0.5718867,0.2153186 -0.2135961,0 -0.4030764,-0.1119657 Q 8.9447529,5.3116241 8.8431225,5.1462594 8.7414921,4.9808947 8.7414921,4.7690212 Z m 0.7613666,0.6717941 q 0.1309137,0 0.2514921,-0.070625 0.122301,-0.070624 0.1946481,-0.2256539 0.072347,-0.156752 0.072347,-0.3617353 0,-0.1343588 -0.056844,-0.3117813 Q 9.9093802,4.2935977 9.7922469,4.2057477 9.6768361,4.1161752 9.5200842,4.1161752 q -0.1136882,0 -0.2325441,0.053399 -0.1171333,0.053399 -0.1998157,0.2049833 -0.08096,0.1515843 -0.08096,0.4306372 0,0.3135039 0.141249,0.4754235 0.1429716,0.1601971 0.3548451,0.1601971 z"
         id="path408" /><path
         d="m 10.486434,5.4666535 -0.0069,-0.022393 q 0,-0.012058 0.0155,-0.036174 l 0.10163,-0.020671 0.142972,-0.025838 q 0.01722,-0.00861 0.02412,-0.024116 0.01034,-0.022393 0.01034,-0.1326362 0,-0.5856666 -0.0069,-0.6752392 -0.0069,-0.091295 -0.03101,-0.1154107 -0.02412,-0.024116 -0.124024,-0.037896 -0.05857,-0.00861 -0.09302,-0.022393 l 0.0069,-0.051676 q 0.180867,-0.07407 0.242879,-0.1274686 0.08613,-0.077515 0.146417,-0.2032608 l 0.05857,0.00172 q 0.01034,0.086127 0.01034,0.3824058 l -0.0017,0.029283 q 0,0.010335 0.0034,0.032729 0.06546,-0.1188559 0.163642,-0.2187637 l 0.03962,-0.039619 q 0.02412,-0.027561 0.04651,-0.043064 0.120578,-0.072347 0.179145,-0.072347 0.07579,0 0.124024,0.051676 0.04823,0.049954 0.04823,0.1240235 0,0.058567 -0.03445,0.091295 -0.04651,0.043064 -0.106798,0.043064 -0.02756,0 -0.108521,-0.029283 -0.08096,-0.029283 -0.106798,-0.029283 -0.04823,0 -0.06718,0.015503 -0.04823,0.037896 -0.117133,0.1550294 -0.0534,0.08785 -0.0534,0.1619196 l 0.0086,0.2842206 0.0034,0.3410647 q 0.0052,0.058567 0.01378,0.075792 0.0069,0.012058 0.03445,0.029283 0.186035,0.015503 0.220486,0.022393 0.02412,0.00172 0.03617,0.00345 0.07407,0.00172 0.103352,0.020671 0.0155,0.00861 0.0155,0.025838 0,0.010335 -0.01378,0.027561 l -0.191203,-0.00172 -0.07235,-0.00172 -0.105075,0.00172 h -0.1757 l -0.09474,0.00517 z"
         id="path410" /><path
         d="m 5.4479786,7.7455856 q 0.01378,0.1136883 0.01378,0.1309138 l -0.00689,0.1533068 q -0.00345,0.098185 -0.00861,0.1257461 -0.015503,0.00689 -0.025838,0.00689 l -0.015503,-0.00345 Q 5.3497934,7.9178405 5.2171571,7.8075974 5.0862434,7.6973543 4.896763,7.6973543 q -0.1963706,0 -0.3221166,0.1102431 -0.1257461,0.1102431 -0.1257461,0.2566598 0,0.1119657 0.08785,0.2049833 0.08785,0.093018 0.4495853,0.2790529 0.2756078,0.1429716 0.3944636,0.2342667 0.1188559,0.089573 0.1791451,0.2084284 0.060289,0.1188558 0.060289,0.2652725 0,0.1843127 -0.096463,0.3462323 -0.09474,0.1619196 -0.2566598,0.2446019 -0.1619196,0.08096 -0.4289146,0.08096 -0.2325441,0 -0.4461402,-0.07407 -0.1257461,-0.044786 -0.1533069,-0.072347 -0.027561,-0.027561 -0.027561,-0.058567 0,-0.018948 0.00345,-0.048231 0.024116,-0.2032608 0.025838,-0.3341745 0.00345,-0.08096 0.012058,-0.09474 0.00689,-0.012058 0.025838,-0.012058 0.015503,0 0.024116,0.012058 0.010335,0.010335 0.01378,0.041341 0.018948,0.2118735 0.1963706,0.3789607 0.1757,0.1670873 0.3979088,0.1670873 0.1360814,0 0.2497696,-0.056844 0.1154108,-0.056844 0.1791451,-0.1636421 0.065457,-0.1085206 0.065457,-0.210151 0,-0.1395264 -0.098185,-0.2549372 Q 5.2085444,9.0323296 4.912266,8.8790228 4.6159875,8.7239934 4.526415,8.6533689 4.3817209,8.5379581 4.3093739,8.408767 4.2559748,8.3088591 4.2559748,8.1762229 q 0,-0.2394343 0.1894804,-0.404799 0.1894804,-0.1670873 0.5081519,-0.1670873 0.1757,0 0.3031686,0.039619 0.093018,0.031006 0.1912029,0.1016303 z"
         id="path412" /><path
         d="m 7.1446893,9.5559845 0.00172,0.1119657 Q 7.012053,9.8109217 6.8811393,9.8677658 6.7502256,9.9246099 6.572803,9.9246099 q -0.1929254,0 -0.3479548,-0.099908 Q 6.0698188,9.7230717 5.9854139,9.538759 5.9027315,9.3544463 5.9027315,9.1770237 q 0,-0.194648 0.099908,-0.3669029 0.1016303,-0.1739774 0.266995,-0.2583823 0.1670873,-0.086127 0.4185794,-0.086127 0.2411568,0 0.3669029,0.082682 0.070625,0.048231 0.070625,0.1240235 0,0.055122 -0.036174,0.091295 -0.036174,0.036174 -0.093018,0.036174 -0.086127,0 -0.1894803,-0.106798 -0.063734,-0.065457 -0.1154108,-0.089572 -0.051677,-0.025838 -0.1154108,-0.025838 -0.1533068,0 -0.2549372,0.1257461 -0.141249,0.1791451 -0.141249,0.4495853 0,0.2790529 0.1446941,0.4444176 0.1446941,0.1653647 0.3376196,0.1653647 0.1343588,0 0.2377117,-0.043064 0.1050755,-0.044786 0.244602,-0.1636421 z"
         id="path414" /><path
         d="m 8.6381389,9.6369443 q 0.010335,0.022393 0.010335,0.032728 0,0.025838 -0.041341,0.091295 -0.053399,0.086127 -0.1188559,0.1257461 -0.041341,0.025838 -0.1136882,0.025838 -0.1240236,0 -0.1860353,-0.075792 -0.037896,-0.044786 -0.053399,-0.1601971 L 7.9422292,9.8109217 q -0.1016304,0.058567 -0.1550294,0.07407 -0.086127,0.022393 -0.2067059,0.022393 -0.08785,0 -0.1395264,-0.051676 -0.049954,-0.053399 -0.049954,-0.1360814 0,-0.1188558 0.1446941,-0.2842205 0.1464166,-0.1653647 0.3961862,-0.2704402 0.1757,-0.07407 0.2153186,-0.09474 0.00345,-0.056844 0.00345,-0.1240235 0,-0.2187637 -0.062012,-0.2962784 -0.060289,-0.077515 -0.1739775,-0.077515 -0.1188558,0 -0.2222088,0.093018 -0.063734,0.058567 -0.096463,0.2204863 -0.010335,0.044786 -0.039619,0.096463 -0.07407,0.048231 -0.1188559,0.048231 -0.037896,0 -0.068902,-0.022393 -0.017226,-0.012058 -0.017226,-0.027561 0,-0.044786 0.09474,-0.2015382 0.096463,-0.1584745 0.2411569,-0.2359892 0.1464166,-0.079237 0.2549372,-0.079237 0.1481392,0 0.2204863,0.027561 0.072347,0.025838 0.1274686,0.093018 0.055122,0.067179 0.067179,0.1464167 0.00689,0.037896 0.00689,0.2704402 l -0.00517,0.2738852 0.00172,0.1998157 q 0,0.039619 -0.00172,0.067179 -0.00172,0.049954 -0.00172,0.07407 0,0.056844 0.032728,0.091295 0.032728,0.034451 0.077515,0.034451 0.065457,0 0.1119657,-0.065457 l 0.020671,-0.027561 q 0.00861,-0.00517 0.037896,-0.012058 z M 8.1317096,9.5869904 q 0.012058,-0.2187637 0.012058,-0.3083363 0,-0.046509 -0.00517,-0.125746 -0.1154108,0.041341 -0.244602,0.125746 -0.1291911,0.084405 -0.2049833,0.194648 -0.055122,0.079237 -0.055122,0.1498618 0,0.067179 0.044786,0.1119657 0.046509,0.044786 0.1154108,0.044786 0.053399,0 0.1291912,-0.037896 0.099908,-0.049954 0.2084284,-0.1550294 z"
         id="path416" /><path
         d="m 8.76044,7.7369729 v -0.037896 q 0.048231,-0.015503 0.1067981,-0.032728 0.086127,-0.027561 0.2549372,-0.084405 h 0.08096 q 0.00172,0.082682 0.00172,0.09474 0,1.4142126 -0.00861,1.6863753 -0.00517,0.1601971 -0.00517,0.1705324 0,0.1929254 0.015503,0.2153186 0.020671,0.031006 0.1257461,0.043064 0.106798,0.012058 0.125746,0.024116 0.01378,0.00689 0.01378,0.024116 0,0.018948 -0.00861,0.027561 -0.00689,0.00689 -0.027561,0.00689 -0.012058,0 -0.1808676,-0.00517 L 9.0291577,9.8625982 8.7397695,9.874656 q -0.027561,0.00172 -0.041341,-0.010335 -0.010335,-0.00861 -0.010335,-0.024116 0,-0.017226 0.010335,-0.024116 0.012058,-0.00861 0.1240235,-0.027561 0.1136882,-0.018948 0.1291912,-0.031006 0.017225,-0.01378 0.022393,-0.058567 0.00689,-0.062012 0.00689,-0.3496774 l -0.00172,-0.3961862 0.00517,-0.4099666 -0.00172,-0.4099667 0.00517,-0.2015382 q 0,-0.060289 -0.018948,-0.086127 -0.018948,-0.027561 -0.08096,-0.053399 Q 8.794891,7.7541984 8.76044,7.7369729 Z"
         id="path418" /><path
         d="m 10.843001,8.9617051 -0.690742,0.00517 h -0.130913 q -0.079238,0 -0.16192,0.00689 -0.015503,0.051676 -0.015503,0.070624 l 0.00172,0.017226 v 0.017226 l -0.00172,0.084405 q 0,0.1050754 0.065457,0.2583823 0.067179,0.1515843 0.1894801,0.2325441 0.124024,0.079237 0.308336,0.084405 0.09819,-0.00517 0.156752,-0.024116 0.05857,-0.018948 0.165365,-0.08785 l 0.124024,-0.1016304 0.01033,0.068902 q 0,0.012058 -0.0017,0.025838 -0.07751,0.098185 -0.19637,0.1722549 -0.118856,0.07407 -0.241157,0.1085206 -0.05857,0.015503 -0.192925,0.015503 -0.122301,0 -0.2411573,-0.049954 -0.1757,-0.075792 -0.2773304,-0.2428794 -0.099908,-0.1688098 -0.099908,-0.4082441 0,-0.075792 0.027561,-0.194648 0.029283,-0.1188559 0.1033529,-0.2532147 0.049954,-0.091295 0.122301,-0.1498617 0.1033529,-0.082682 0.1808678,-0.1154108 0.111965,-0.046509 0.260105,-0.046509 0.160197,0 0.261827,0.058567 0.137804,0.077515 0.204983,0.1998157 0.0689,0.122301 0.0689,0.2239314 z M 9.8818191,8.8996934 h 0.08096 q 0.08785,0 0.5236551,-0.027561 0.0689,-0.00345 0.08441,-0.01378 0.03101,-0.032728 0.03101,-0.058567 0,-0.053399 -0.03445,-0.1205784 -0.03445,-0.068902 -0.106798,-0.1050755 -0.07063,-0.037896 -0.165365,-0.037896 -0.199816,0 -0.3203943,0.1498617 -0.093018,0.1136882 -0.093018,0.2135961 z"
         id="path420" /></g></g></svg>
