<?xml version="1.0" encoding="UTF-8" standalone="no"?>
<!-- Created with Inkscape (http://www.inkscape.org/) -->

<svg
   width="56"
   height="56"
   viewBox="0 0 14.816666 14.816666"
   version="1.1"
   id="svg26107"
   xml:space="preserve"
   inkscape:version="1.2.1 (9c6d41e410, 2022-07-14)"
   sodipodi:docname="sevenDim.svg"
   xmlns:inkscape="http://www.inkscape.org/namespaces/inkscape"
   xmlns:sodipodi="http://sodipodi.sourceforge.net/DTD/sodipodi-0.dtd"
   xmlns="http://www.w3.org/2000/svg"
   xmlns:svg="http://www.w3.org/2000/svg"><sodipodi:namedview
     id="namedview26109"
     pagecolor="#ffffff"
     bordercolor="#000000"
     borderopacity="0.25"
     inkscape:showpageshadow="2"
     inkscape:pageopacity="0.0"
     inkscape:pagecheckerboard="0"
     inkscape:deskcolor="#d1d1d1"
     inkscape:document-units="mm"
     showgrid="false"
     inkscape:zoom="8.7686002"
     inkscape:cx="21.383117"
     inkscape:cy="28.168692"
     inkscape:window-width="1920"
     inkscape:window-height="1052"
     inkscape:window-x="1912"
     inkscape:window-y="-8"
     inkscape:window-maximized="1"
     inkscape:current-layer="svg26107" /><defs
     id="defs26104" /><g
     inkscape:groupmode="layer"
     id="layer2"
     inkscape:label="Layer 2"><g
       aria-label="vii"
       id="text26712"
       style="font-size:7.05556px;font-family:Garamond;-inkscape-font-specification:Garamond;text-align:center;text-anchor:middle;stroke-width:0.257;stroke-linecap:square"
       transform="translate(0.39226139)"><path
         d="m 3.1499325,6.7090399 q 0.3824058,0.00345 0.6683489,0.024116 0.2032608,0 0.2962784,-0.00689 0.065457,-0.00345 0.082682,-0.00345 l 0.3858509,0.00345 q 0.079237,0.01378 0.1274686,0.017226 0.020671,0.00689 0.037896,0.037896 0,0.034451 -0.020671,0.072347 -0.058567,0.017225 -0.1205784,0.020671 -0.2583823,0.027561 -0.4340823,0.079237 -0.024116,0.017226 -0.024116,0.034451 0,0.034451 0.034451,0.1067981 0.00689,0.017225 0.031006,0.082682 L 4.5589774,8.0043967 Q 4.789799,8.5728378 4.9861696,8.9621338 5.1205284,8.7071966 5.2342166,8.4350339 5.3479048,8.1628712 5.5683911,7.5772046 5.6304028,7.4118399 5.6855244,7.1672379 q 0.010335,-0.048231 0.010335,-0.082682 0,-0.041341 -0.048231,-0.089573 -0.044786,-0.051676 -0.1550294,-0.082682 -0.024116,-0.00345 -0.3135039,-0.051677 -0.024116,-0.01378 -0.044786,-0.037896 v -0.027561 q 0,-0.017226 0.00345,-0.044786 0.082682,-0.010335 0.1205784,-0.010335 l 0.4065215,0.00345 q 0.041341,0 0.1963706,-0.010335 0.5477705,0 0.6580136,0.010335 0.020671,0.00689 0.037896,0.041341 0,0.031006 -0.020671,0.068902 l -0.106798,0.027561 q -0.041341,0.00345 -0.065457,0.00689 -0.2962784,0.027561 -0.3651803,0.082682 -0.051677,0.037896 -0.1619196,0.354845 Q 5.7854363,7.4807463 5.685529,7.7184581 L 5.5063793,8.1525359 Q 5.4684832,8.2455535 5.423697,8.3557966 L 4.8897068,9.5891416 H 4.7863539 Q 4.755348,9.5064593 4.7105617,9.4168867 L 4.4487343,8.862226 3.8320618,7.4187301 Q 3.6460265,6.9984281 3.6081305,6.9639772 3.5702344,6.9295262 3.167158,6.8192831 3.1464874,6.7641615 3.1464874,6.7400458 Z"
         id="path397" /><path
         d="m 6.9843263,5.2104224 q 0,-0.1136882 0.086127,-0.1963705 0.089573,-0.082682 0.213596,-0.082682 0.1274686,0 0.2239314,0.093018 0.096463,0.093018 0.096463,0.1998156 0,0.1067981 -0.096463,0.2032608 -0.096463,0.093018 -0.2239314,0.093018 -0.1274686,0 -0.213596,-0.086127 -0.086127,-0.086127 -0.086127,-0.2239314 z M 6.6949381,6.994983 6.6983832,6.8950752 Q 6.9223146,6.8296184 6.93954,6.8192831 7.0635636,6.7641615 7.1979224,6.6504733 7.3357263,6.536785 7.4287439,6.395536 q 0.041341,-0.00689 0.065457,-0.00689 l 0.041341,0.00345 q 0.01378,0.1653647 0.01378,0.2411569 0,0.017225 -0.00689,0.1550294 v 0.1825902 l 0.00345,0.9921881 -0.010335,1.0507548 q -0.00345,0.1274686 0.041341,0.1791451 0.044786,0.048231 0.2652725,0.1102431 0.137804,0.037896 0.2067059,0.065457 0.010335,0.024116 0.010335,0.041341 0,0.020671 -0.017226,0.051676 -0.1343588,-0.00345 -0.3445098,-0.017225 -0.2859431,-0.024116 -0.3789607,-0.024116 -0.044786,0 -0.5512156,0.017226 -0.103353,0.00345 -0.1998157,0.017226 -0.017225,0 -0.055122,-0.010335 -0.017226,-0.024116 -0.017226,-0.041341 0,-0.048231 0.065457,-0.075792 0.01378,-0.00689 0.3514,-0.079237 0.1102431,-0.02067 0.1446941,-0.068902 0.058567,-0.072347 0.058567,-0.2308216 0.00689,-0.2652725 0.00689,-1.4538312 0,-0.2377117 -0.020671,-0.2962784 Q 7.0842341,7.1569026 7.008442,7.1052262 6.9360949,7.0501046 6.6949381,6.994983 Z"
         id="path399" /><path
         d="m 8.6000771,5.2104224 q 0,-0.1136882 0.086127,-0.1963705 0.089573,-0.082682 0.2135961,-0.082682 0.1274686,0 0.2239314,0.093018 0.096463,0.093018 0.096463,0.1998156 0,0.1067981 -0.096463,0.2032608 -0.096463,0.093018 -0.2239314,0.093018 -0.1274686,0 -0.2135961,-0.086127 -0.086127,-0.086127 -0.086127,-0.2239314 z M 8.3106889,6.994983 8.314134,6.8950752 Q 8.5380653,6.8296184 8.5552908,6.8192831 8.6793144,6.7641615 8.8136732,6.6504733 8.9514771,6.536785 9.0444947,6.395536 q 0.041341,-0.00689 0.065457,-0.00689 l 0.041341,0.00345 q 0.01378,0.1653647 0.01378,0.2411569 0,0.017225 -0.00689,0.1550294 v 0.1825902 l 0.00345,0.9921881 -0.010335,1.0507548 q -0.00345,0.1274686 0.041341,0.1791451 0.044786,0.048231 0.2652725,0.1102431 0.1378039,0.037896 0.2067059,0.065457 0.010335,0.024116 0.010335,0.041341 0,0.020671 -0.017225,0.051676 -0.1343588,-0.00345 -0.3445098,-0.017225 -0.2859431,-0.024116 -0.3789607,-0.024116 -0.044786,0 -0.5512157,0.017226 -0.1033529,0.00345 -0.1998156,0.017226 -0.017226,0 -0.055122,-0.010335 -0.017226,-0.024116 -0.017226,-0.041341 0,-0.048231 0.065457,-0.075792 0.01378,-0.00689 0.3514,-0.079237 0.1102431,-0.02067 0.1446941,-0.068902 0.058567,-0.072347 0.058567,-0.2308216 0.00689,-0.2652725 0.00689,-1.4538312 0,-0.2377117 -0.020671,-0.2962784 Q 8.6999849,7.1569026 8.6241928,7.1052262 8.5518457,7.0501046 8.3106889,6.994983 Z"
         id="path401" /></g><g
       aria-label="°"
       id="text395"
       style="font-size:4.23333px;font-family:Garamond;-inkscape-font-specification:Garamond;text-align:center;text-anchor:middle;stroke-width:0.257;stroke-linecap:square"
       transform="translate(0.39226139)"><path
         d="m 10.559851,5.0406372 q 0.26665,0 0.450618,0.186035 0.186035,0.186035 0.186035,0.4506181 0,0.2625161 -0.186035,0.4485511 -0.186035,0.186035 -0.450618,0.186035 -0.262516,0 -0.448551,-0.186035 -0.1860351,-0.186035 -0.1860351,-0.4485511 0,-0.2645831 0.1839681,-0.4506181 0.186035,-0.186035 0.450618,-0.186035 z m 0,0.1736327 q -0.192236,0 -0.326595,0.1343586 -0.134358,0.1343586 -0.134358,0.3265948 0,0.1901691 0.134358,0.3265948 0.134359,0.1343586 0.326595,0.1343586 0.190169,0 0.324528,-0.1343586 0.136425,-0.1364257 0.136425,-0.3265948 0,-0.1922362 -0.134358,-0.3265948 -0.134359,-0.1343586 -0.326595,-0.1343586 z"
         id="path404" /></g></g></svg>
