<?xml version="1.0" encoding="UTF-8" standalone="no"?>
<!-- Created with Inkscape (http://www.inkscape.org/) -->

<svg
   width="56"
   height="56"
   viewBox="0 0 14.816666 14.816666"
   version="1.1"
   id="svg26107"
   xml:space="preserve"
   inkscape:version="1.2.1 (9c6d41e410, 2022-07-14)"
   sodipodi:docname="sevenDimHalf7.svg"
   xmlns:inkscape="http://www.inkscape.org/namespaces/inkscape"
   xmlns:sodipodi="http://sodipodi.sourceforge.net/DTD/sodipodi-0.dtd"
   xmlns="http://www.w3.org/2000/svg"
   xmlns:svg="http://www.w3.org/2000/svg"><sodipodi:namedview
     id="namedview26109"
     pagecolor="#ffffff"
     bordercolor="#000000"
     borderopacity="0.25"
     inkscape:showpageshadow="2"
     inkscape:pageopacity="0.0"
     inkscape:pagecheckerboard="0"
     inkscape:deskcolor="#d1d1d1"
     inkscape:document-units="mm"
     showgrid="false"
     inkscape:zoom="8.7686002"
     inkscape:cx="21.611203"
     inkscape:cy="28.168692"
     inkscape:window-width="1920"
     inkscape:window-height="1052"
     inkscape:window-x="1912"
     inkscape:window-y="-8"
     inkscape:window-maximized="1"
     inkscape:current-layer="svg26107" /><defs
     id="defs26104" /><g
     inkscape:groupmode="layer"
     id="layer2"
     inkscape:label="Layer 2"><g
       aria-label="vii"
       id="text26712"
       style="font-size:7.05556px;font-family:Garamond;-inkscape-font-specification:Garamond;text-align:center;text-anchor:middle;stroke-width:0.257;stroke-linecap:square"
       transform="translate(0.39226139)"><path
         d="m 3.1499325,6.7090399 q 0.3824058,0.00345 0.6683489,0.024116 0.2032608,0 0.2962784,-0.00689 0.065457,-0.00345 0.082682,-0.00345 l 0.3858509,0.00345 q 0.079237,0.01378 0.1274686,0.017226 0.020671,0.00689 0.037896,0.037896 0,0.034451 -0.020671,0.072347 -0.058567,0.017225 -0.1205784,0.020671 -0.2583823,0.027561 -0.4340823,0.079237 -0.024116,0.017226 -0.024116,0.034451 0,0.034451 0.034451,0.1067981 0.00689,0.017225 0.031006,0.082682 L 4.5589774,8.0043967 Q 4.789799,8.5728378 4.9861696,8.9621338 5.1205284,8.7071966 5.2342166,8.4350339 5.3479048,8.1628712 5.5683911,7.5772046 5.6304028,7.4118399 5.6855244,7.1672379 q 0.010335,-0.048231 0.010335,-0.082682 0,-0.041341 -0.048231,-0.089573 -0.044786,-0.051676 -0.1550294,-0.082682 -0.024116,-0.00345 -0.3135039,-0.051677 -0.024116,-0.01378 -0.044786,-0.037896 v -0.027561 q 0,-0.017226 0.00345,-0.044786 0.082682,-0.010335 0.1205784,-0.010335 l 0.4065215,0.00345 q 0.041341,0 0.1963706,-0.010335 0.5477705,0 0.6580136,0.010335 0.020671,0.00689 0.037896,0.041341 0,0.031006 -0.020671,0.068902 l -0.106798,0.027561 q -0.041341,0.00345 -0.065457,0.00689 -0.2962784,0.027561 -0.3651803,0.082682 -0.051677,0.037896 -0.1619196,0.354845 Q 5.7854363,7.4807463 5.685529,7.7184581 L 5.5063793,8.1525359 Q 5.4684832,8.2455535 5.423697,8.3557966 L 4.8897068,9.5891416 H 4.7863539 Q 4.755348,9.5064593 4.7105617,9.4168867 L 4.4487343,8.862226 3.8320618,7.4187301 Q 3.6460265,6.9984281 3.6081305,6.9639772 3.5702344,6.9295262 3.167158,6.8192831 3.1464874,6.7641615 3.1464874,6.7400458 Z"
         id="path397" /><path
         d="m 6.9843263,5.2104224 q 0,-0.1136882 0.086127,-0.1963705 0.089573,-0.082682 0.213596,-0.082682 0.1274686,0 0.2239314,0.093018 0.096463,0.093018 0.096463,0.1998156 0,0.1067981 -0.096463,0.2032608 -0.096463,0.093018 -0.2239314,0.093018 -0.1274686,0 -0.213596,-0.086127 -0.086127,-0.086127 -0.086127,-0.2239314 z M 6.6949381,6.994983 6.6983832,6.8950752 Q 6.9223146,6.8296184 6.93954,6.8192831 7.0635636,6.7641615 7.1979224,6.6504733 7.3357263,6.536785 7.4287439,6.395536 q 0.041341,-0.00689 0.065457,-0.00689 l 0.041341,0.00345 q 0.01378,0.1653647 0.01378,0.2411569 0,0.017225 -0.00689,0.1550294 v 0.1825902 l 0.00345,0.9921881 -0.010335,1.0507548 q -0.00345,0.1274686 0.041341,0.1791451 0.044786,0.048231 0.2652725,0.1102431 0.137804,0.037896 0.2067059,0.065457 0.010335,0.024116 0.010335,0.041341 0,0.020671 -0.017226,0.051676 -0.1343588,-0.00345 -0.3445098,-0.017225 -0.2859431,-0.024116 -0.3789607,-0.024116 -0.044786,0 -0.5512156,0.017226 -0.103353,0.00345 -0.1998157,0.017226 -0.017225,0 -0.055122,-0.010335 -0.017226,-0.024116 -0.017226,-0.041341 0,-0.048231 0.065457,-0.075792 0.01378,-0.00689 0.3514,-0.079237 0.1102431,-0.02067 0.1446941,-0.068902 0.058567,-0.072347 0.058567,-0.2308216 0.00689,-0.2652725 0.00689,-1.4538312 0,-0.2377117 -0.020671,-0.2962784 Q 7.0842341,7.1569026 7.008442,7.1052262 6.9360949,7.0501046 6.6949381,6.994983 Z"
         id="path399" /><path
         d="m 8.6000771,5.2104224 q 0,-0.1136882 0.086127,-0.1963705 0.089573,-0.082682 0.2135961,-0.082682 0.1274686,0 0.2239314,0.093018 0.096463,0.093018 0.096463,0.1998156 0,0.1067981 -0.096463,0.2032608 -0.096463,0.093018 -0.2239314,0.093018 -0.1274686,0 -0.2135961,-0.086127 -0.086127,-0.086127 -0.086127,-0.2239314 z M 8.3106889,6.994983 8.314134,6.8950752 Q 8.5380653,6.8296184 8.5552908,6.8192831 8.6793144,6.7641615 8.8136732,6.6504733 8.9514771,6.536785 9.0444947,6.395536 q 0.041341,-0.00689 0.065457,-0.00689 l 0.041341,0.00345 q 0.01378,0.1653647 0.01378,0.2411569 0,0.017225 -0.00689,0.1550294 v 0.1825902 l 0.00345,0.9921881 -0.010335,1.0507548 q -0.00345,0.1274686 0.041341,0.1791451 0.044786,0.048231 0.2652725,0.1102431 0.1378039,0.037896 0.2067059,0.065457 0.010335,0.024116 0.010335,0.041341 0,0.020671 -0.017225,0.051676 -0.1343588,-0.00345 -0.3445098,-0.017225 -0.2859431,-0.024116 -0.3789607,-0.024116 -0.044786,0 -0.5512157,0.017226 -0.1033529,0.00345 -0.1998156,0.017226 -0.017226,0 -0.055122,-0.010335 -0.017226,-0.024116 -0.017226,-0.041341 0,-0.048231 0.065457,-0.075792 0.01378,-0.00689 0.3514,-0.079237 0.1102431,-0.02067 0.1446941,-0.068902 0.058567,-0.072347 0.058567,-0.2308216 0.00689,-0.2652725 0.00689,-1.4538312 0,-0.2377117 -0.020671,-0.2962784 Q 8.6999849,7.1569026 8.6241928,7.1052262 8.5518457,7.0501046 8.3106889,6.994983 Z"
         id="path401" /></g></g><g
     aria-label="ø"
     id="text1013"
     style="font-size:2.82223px;font-family:Garamond;-inkscape-font-specification:Garamond;text-align:center;text-anchor:middle;display:inline;stroke-width:0.257;stroke-linecap:square"><path
       d="m 11.325905,5.1905713 q 0.03583,-0.033073 0.124024,-0.1391822 0.02618,0.019293 0.03996,0.037207 l -0.114377,0.1378042 0.125402,0.162609 q 0.03583,0.060634 0.05926,0.1529627 0.01791,0.068902 0.01791,0.1874137 0,0.035829 -0.03721,0.1419383 -0.01654,0.048231 -0.07717,0.1281579 -0.05926,0.079927 -0.139183,0.1378042 -0.07855,0.057878 -0.181901,0.085439 -0.103353,0.028939 -0.19706,0.028939 -0.111622,0 -0.187414,-0.023427 -0.07441,-0.023427 -0.173633,-0.085439 -0.02343,0.026183 -0.04548,0.052366 -0.02205,0.026183 -0.07441,0.086817 -0.01791,-0.012402 -0.03996,-0.033073 l 0.0041,-0.00689 Q 10.525263,6.1317741 10.540421,6.1097254 10.43569,6.0049942 10.387459,5.901641 10.340605,5.7969098 10.340605,5.67013 q 0,-0.1474505 0.05788,-0.26045 0.05926,-0.1129994 0.146073,-0.1860357 0.08682,-0.073036 0.186035,-0.1047311 0.09922,-0.031695 0.263206,-0.031695 0.09508,0 0.159853,0.019293 0.08406,0.026183 0.172255,0.084061 z m -0.704179,0.8130448 0.627009,-0.7179599 q -0.02481,-0.041341 -0.07028,-0.075792 -0.04547,-0.035829 -0.09784,-0.050988 -0.07028,-0.022049 -0.114378,-0.022049 -0.07441,0 -0.172255,0.037207 -0.06339,0.023427 -0.121268,0.088195 -0.05788,0.06339 -0.08957,0.1694992 -0.03032,0.1061092 -0.03032,0.2838767 0,0.1694991 0.0689,0.2880107 z m 0.485071,0.1584749 q 0.122645,-0.042719 0.199816,-0.1998161 0.0441,-0.092329 0.05788,-0.3086814 l -0.02343,-0.1570968 q -0.01102,-0.028939 -0.01929,-0.06339 -0.01102,-0.048231 -0.01791,-0.060634 -0.0069,-0.012402 -0.02894,-0.031695 l -0.615985,0.719338 q 0.04823,0.064768 0.121268,0.100597 0.07304,0.035829 0.161231,0.035829 0.07441,0 0.165365,-0.034451 z"
       id="path1015" /></g></svg>
