<?xml version="1.0" encoding="UTF-8" standalone="no"?>
<!-- Created with Inkscape (http://www.inkscape.org/) -->

<svg
   width="56"
   height="56"
   viewBox="0 0 14.816666 14.816666"
   version="1.1"
   id="svg26107"
   xml:space="preserve"
   inkscape:version="1.2.1 (9c6d41e410, 2022-07-14)"
   sodipodi:docname="sixMin.svg"
   xmlns:inkscape="http://www.inkscape.org/namespaces/inkscape"
   xmlns:sodipodi="http://sodipodi.sourceforge.net/DTD/sodipodi-0.dtd"
   xmlns="http://www.w3.org/2000/svg"
   xmlns:svg="http://www.w3.org/2000/svg"><sodipodi:namedview
     id="namedview26109"
     pagecolor="#ffffff"
     bordercolor="#000000"
     borderopacity="0.25"
     inkscape:showpageshadow="2"
     inkscape:pageopacity="0.0"
     inkscape:pagecheckerboard="0"
     inkscape:deskcolor="#d1d1d1"
     inkscape:document-units="mm"
     showgrid="false"
     inkscape:zoom="8.7686002"
     inkscape:cx="21.269073"
     inkscape:cy="28.168692"
     inkscape:window-width="1920"
     inkscape:window-height="1052"
     inkscape:window-x="1912"
     inkscape:window-y="-8"
     inkscape:window-maximized="1"
     inkscape:current-layer="layer2" /><defs
     id="defs26104" /><g
     inkscape:groupmode="layer"
     id="layer2"
     inkscape:label="Layer 2"><g
       aria-label="vi"
       id="text26712"
       style="font-size:7.05556px;font-family:Garamond;-inkscape-font-specification:Garamond;text-align:center;text-anchor:middle;stroke-width:0.257;stroke-linecap:square"><path
         d="m 4.7725047,6.7090399 q 0.3824058,0.00345 0.6683489,0.024116 0.2032608,0 0.2962784,-0.00689 0.065457,-0.00345 0.082682,-0.00345 l 0.3858509,0.00345 q 0.079237,0.01378 0.1274686,0.017226 0.020671,0.00689 0.037896,0.037896 0,0.034451 -0.020671,0.072347 -0.058567,0.017225 -0.1205784,0.020671 -0.2583823,0.027561 -0.4340823,0.079237 -0.024116,0.017226 -0.024116,0.034451 0,0.034451 0.034451,0.1067981 0.00689,0.017225 0.031006,0.082682 L 6.1815496,8.0043967 Q 6.4123712,8.5728378 6.6087418,8.9621338 6.7431006,8.7071966 6.8567888,8.4350339 6.970477,8.1628712 7.1909633,7.5772046 7.252975,7.4118399 7.3080966,7.1672379 q 0.010335,-0.048231 0.010335,-0.082682 0,-0.041341 -0.048231,-0.089573 -0.044786,-0.051676 -0.1550294,-0.082682 -0.024116,-0.00345 -0.3135039,-0.051677 -0.024116,-0.01378 -0.044786,-0.037896 v -0.027561 q 0,-0.017226 0.00345,-0.044786 0.082682,-0.010335 0.1205784,-0.010335 l 0.4065215,0.00345 q 0.041341,0 0.1963706,-0.010335 0.5477705,0 0.6580136,0.010335 0.020671,0.00689 0.037896,0.041341 0,0.031006 -0.020671,0.068902 l -0.106798,0.027561 q -0.041341,0.00345 -0.065457,0.00689 -0.2962784,0.027561 -0.3651803,0.082682 -0.051676,0.037896 -0.1619196,0.354845 -0.051677,0.1550294 -0.1515843,0.3927412 L 7.1289515,8.1525359 q -0.037896,0.093018 -0.082682,0.2032607 L 6.512279,9.5891416 H 6.4089261 Q 6.3779202,9.5064593 6.3331339,9.4168867 L 6.0713065,8.862226 5.454634,7.4187301 Q 5.2685987,6.9984281 5.2307027,6.9639772 5.1928066,6.9295262 4.7897302,6.8192831 4.7690596,6.7641615 4.7690596,6.7400458 Z"
         id="path343" /><path
         d="m 8.6068985,5.2104224 q 0,-0.1136882 0.086127,-0.1963705 0.089573,-0.082682 0.213596,-0.082682 0.1274686,0 0.2239314,0.093018 0.096463,0.093018 0.096463,0.1998156 0,0.1067981 -0.096463,0.2032608 -0.096463,0.093018 -0.2239314,0.093018 -0.1274686,0 -0.213596,-0.086127 -0.086127,-0.086127 -0.086127,-0.2239314 z M 8.3175103,6.994983 8.3209554,6.8950752 Q 8.5448868,6.8296184 8.5621122,6.8192831 8.6861358,6.7641615 8.8204946,6.6504733 8.9582985,6.536785 9.0513161,6.395536 q 0.041341,-0.00689 0.065457,-0.00689 l 0.041341,0.00345 q 0.01378,0.1653647 0.01378,0.2411569 0,0.017225 -0.00689,0.1550294 v 0.1825902 l 0.00345,0.9921881 -0.010335,1.0507548 q -0.00345,0.1274686 0.041341,0.1791451 0.044786,0.048231 0.2652725,0.1102431 0.137804,0.037896 0.2067059,0.065457 0.010335,0.024116 0.010335,0.041341 0,0.020671 -0.017225,0.051676 -0.1343588,-0.00345 -0.3445098,-0.017225 -0.2859431,-0.024116 -0.3789607,-0.024116 -0.044786,0 -0.5512156,0.017226 -0.103353,0.00345 -0.1998157,0.017226 -0.017226,0 -0.055122,-0.010335 -0.017226,-0.024116 -0.017226,-0.041341 0,-0.048231 0.065457,-0.075792 0.01378,-0.00689 0.3514,-0.079237 0.1102431,-0.02067 0.1446941,-0.068902 0.058567,-0.072347 0.058567,-0.2308216 0.00689,-0.2652725 0.00689,-1.4538312 0,-0.2377117 -0.020671,-0.2962784 Q 8.7068064,7.1569026 8.6310142,7.1052262 8.5586671,7.0501046 8.3175103,6.994983 Z"
         id="path345" /></g></g></svg>
