<?xml version="1.0" encoding="UTF-8" standalone="no"?>
<!-- Created with Inkscape (http://www.inkscape.org/) -->

<svg
   width="56"
   height="56"
   viewBox="0 0 14.816666 14.816666"
   version="1.1"
   id="svg26107"
   xml:space="preserve"
   inkscape:version="1.2.1 (9c6d41e410, 2022-07-14)"
   sodipodi:docname="threeMin.svg"
   xmlns:inkscape="http://www.inkscape.org/namespaces/inkscape"
   xmlns:sodipodi="http://sodipodi.sourceforge.net/DTD/sodipodi-0.dtd"
   xmlns="http://www.w3.org/2000/svg"
   xmlns:svg="http://www.w3.org/2000/svg"><sodipodi:namedview
     id="namedview26109"
     pagecolor="#ffffff"
     bordercolor="#000000"
     borderopacity="0.25"
     inkscape:showpageshadow="2"
     inkscape:pageopacity="0.0"
     inkscape:pagecheckerboard="0"
     inkscape:deskcolor="#d1d1d1"
     inkscape:document-units="mm"
     showgrid="false"
     inkscape:zoom="8.7686002"
     inkscape:cx="21.611203"
     inkscape:cy="28.168692"
     inkscape:window-width="1920"
     inkscape:window-height="1052"
     inkscape:window-x="1912"
     inkscape:window-y="-8"
     inkscape:window-maximized="1"
     inkscape:current-layer="svg26107" /><defs
     id="defs26104" /><g
     inkscape:groupmode="layer"
     id="layer2"
     inkscape:label="Layer 2"><g
       aria-label="iii"
       id="text26712"
       style="font-size:7.05556px;font-family:Garamond;-inkscape-font-specification:Garamond;text-align:center;text-anchor:middle;stroke-width:0.257;stroke-linecap:square"><path
         d="m 5.3375007,5.2104224 q 0,-0.1136882 0.086127,-0.1963705 0.089573,-0.082682 0.2135961,-0.082682 0.1274686,0 0.2239314,0.093018 0.096463,0.093018 0.096463,0.1998156 0,0.1067981 -0.096463,0.2032608 -0.096463,0.093018 -0.2239314,0.093018 -0.1274686,0 -0.2135961,-0.086127 -0.086127,-0.086127 -0.086127,-0.2239314 z M 5.0481125,6.994983 5.0515576,6.8950752 Q 5.2754889,6.8296184 5.2927144,6.8192831 5.4167379,6.7641615 5.5510968,6.6504733 5.6889007,6.536785 5.7819183,6.395536 q 0.041341,-0.00689 0.065457,-0.00689 l 0.041341,0.00345 q 0.01378,0.1653647 0.01378,0.2411569 0,0.017225 -0.00689,0.1550294 v 0.1825902 l 0.00345,0.9921881 -0.010335,1.0507548 q -0.00345,0.1274686 0.041341,0.1791451 0.044786,0.048231 0.2652725,0.1102431 0.1378039,0.037896 0.2067059,0.065457 0.010335,0.024116 0.010335,0.041341 0,0.020671 -0.017226,0.051676 -0.1343588,-0.00345 -0.3445098,-0.017225 -0.2859431,-0.024116 -0.3789607,-0.024116 -0.044786,0 -0.5512157,0.017226 -0.1033529,0.00345 -0.1998156,0.017226 -0.017226,0 -0.055122,-0.010335 -0.017226,-0.024116 -0.017226,-0.041341 0,-0.048231 0.065457,-0.075792 0.01378,-0.00689 0.3513999,-0.079237 0.1102432,-0.02067 0.1446942,-0.068902 0.058567,-0.072347 0.058567,-0.2308216 0.00689,-0.2652725 0.00689,-1.4538312 0,-0.2377117 -0.020671,-0.2962784 Q 5.4374085,7.1569026 5.3616164,7.1052262 5.2892693,7.0501046 5.0481125,6.994983 Z"
         id="path343" /><path
         d="m 6.9532515,5.2104224 q 0,-0.1136882 0.086127,-0.1963705 0.089573,-0.082682 0.2135961,-0.082682 0.1274686,0 0.2239313,0.093018 0.096463,0.093018 0.096463,0.1998156 0,0.1067981 -0.096463,0.2032608 -0.096463,0.093018 -0.2239313,0.093018 -0.1274686,0 -0.2135961,-0.086127 -0.086127,-0.086127 -0.086127,-0.2239314 z M 6.6638633,6.994983 6.6673084,6.8950752 Q 6.8912397,6.8296184 6.9084652,6.8192831 7.0324887,6.7641615 7.1668475,6.6504733 7.3046515,6.536785 7.3976691,6.395536 q 0.041341,-0.00689 0.065457,-0.00689 l 0.041341,0.00345 q 0.01378,0.1653647 0.01378,0.2411569 0,0.017225 -0.00689,0.1550294 v 0.1825902 l 0.00345,0.9921881 -0.010335,1.0507548 q -0.00345,0.1274686 0.041341,0.1791451 0.044786,0.048231 0.2652725,0.1102431 0.1378039,0.037896 0.2067059,0.065457 0.010335,0.024116 0.010335,0.041341 0,0.020671 -0.017226,0.051676 -0.1343588,-0.00345 -0.3445098,-0.017225 -0.2859431,-0.024116 -0.3789607,-0.024116 -0.044786,0 -0.5512157,0.017226 -0.1033529,0.00345 -0.1998156,0.017226 -0.017225,0 -0.055122,-0.010335 -0.017226,-0.024116 -0.017226,-0.041341 0,-0.048231 0.065457,-0.075792 0.01378,-0.00689 0.3513999,-0.079237 0.1102432,-0.02067 0.1446941,-0.068902 0.058567,-0.072347 0.058567,-0.2308216 0.00689,-0.2652725 0.00689,-1.4538312 0,-0.2377117 -0.020671,-0.2962784 Q 7.0531593,7.1569026 6.9773672,7.1052262 6.9050201,7.0501046 6.6638633,6.994983 Z"
         id="path345" /><path
         d="m 8.5690023,5.2104224 q 0,-0.1136882 0.086127,-0.1963705 0.089573,-0.082682 0.2135961,-0.082682 0.1274686,0 0.2239313,0.093018 0.096463,0.093018 0.096463,0.1998156 0,0.1067981 -0.096463,0.2032608 -0.096463,0.093018 -0.2239313,0.093018 -0.1274686,0 -0.2135961,-0.086127 -0.086127,-0.086127 -0.086127,-0.2239314 z M 8.2796141,6.994983 8.2830592,6.8950752 Q 8.5069905,6.8296184 8.524216,6.8192831 8.6482395,6.7641615 8.7825983,6.6504733 8.9204022,6.536785 9.0134199,6.395536 q 0.041341,-0.00689 0.065457,-0.00689 l 0.041341,0.00345 q 0.01378,0.1653647 0.01378,0.2411569 0,0.017225 -0.00689,0.1550294 v 0.1825902 l 0.00345,0.9921881 -0.010335,1.0507548 q -0.00345,0.1274686 0.041341,0.1791451 0.044786,0.048231 0.2652725,0.1102431 0.1378039,0.037896 0.2067059,0.065457 0.010335,0.024116 0.010335,0.041341 0,0.020671 -0.017226,0.051676 -0.1343588,-0.00345 -0.3445098,-0.017225 -0.2859431,-0.024116 -0.3789607,-0.024116 -0.044786,0 -0.5512157,0.017226 -0.1033529,0.00345 -0.1998156,0.017226 -0.017226,0 -0.055122,-0.010335 -0.017226,-0.024116 -0.017226,-0.041341 0,-0.048231 0.065457,-0.075792 0.01378,-0.00689 0.3513999,-0.079237 0.1102432,-0.02067 0.1446941,-0.068902 0.058567,-0.072347 0.058567,-0.2308216 0.00689,-0.2652725 0.00689,-1.4538312 0,-0.2377117 -0.020671,-0.2962784 Q 8.6689101,7.1569026 8.593118,7.1052262 8.5207709,7.0501046 8.2796141,6.994983 Z"
         id="path347" /></g></g></svg>
