<?xml version="1.0" encoding="UTF-8" standalone="no"?>
<!-- Created with Inkscape (http://www.inkscape.org/) -->

<svg
   width="24.82489mm"
   height="24.824518mm"
   viewBox="0 0 24.824891 24.824518"
   version="1.1"
   id="svg5"
   inkscape:version="1.2.1 (9c6d41e410, 2022-07-14)"
   sodipodi:docname="iii_flat.svg"
   xml:space="preserve"
   xmlns:inkscape="http://www.inkscape.org/namespaces/inkscape"
   xmlns:sodipodi="http://sodipodi.sourceforge.net/DTD/sodipodi-0.dtd"
   xmlns="http://www.w3.org/2000/svg"
   xmlns:svg="http://www.w3.org/2000/svg"><sodipodi:namedview
     id="namedview7"
     pagecolor="#ffffff"
     bordercolor="#000000"
     borderopacity="0.25"
     inkscape:showpageshadow="2"
     inkscape:pageopacity="0.0"
     inkscape:pagecheckerboard="0"
     inkscape:deskcolor="#d1d1d1"
     inkscape:document-units="mm"
     showgrid="false"
     inkscape:zoom="5.9651517"
     inkscape:cx="12.321564"
     inkscape:cy="42.245363"
     inkscape:window-width="1920"
     inkscape:window-height="1017"
     inkscape:window-x="1912"
     inkscape:window-y="-8"
     inkscape:window-maximized="1"
     inkscape:current-layer="layer1"
     showguides="true" /><defs
     id="defs2"><rect
       x="30.175261"
       y="16.764032"
       width="4.6939292"
       height="17.434595"
       id="rect1148" /><clipPath
       clipPathUnits="userSpaceOnUse"
       id="clipPath1018"><rect
         style="display:inline;fill:#f9f9f9;fill-opacity:0;stroke-width:0.264583"
         id="rect1020"
         width="20.32"
         height="128.5"
         x="0"
         y="0" /></clipPath><clipPath
       clipPathUnits="userSpaceOnUse"
       id="clipPath1086"><rect
         style="fill:#f9f9f9;fill-opacity:0;stroke-width:0.264583"
         id="rect1088"
         width="20.32"
         height="128.5"
         x="0"
         y="-2.7755579e-17" /></clipPath><rect
       x="30.175261"
       y="16.764032"
       width="4.6939292"
       height="17.434595"
       id="rect1148-39" /><rect
       x="30.175261"
       y="16.764032"
       width="4.6939292"
       height="17.434595"
       id="rect1148-3" /><clipPath
       clipPathUnits="userSpaceOnUse"
       id="clipPath1018-9"><rect
         style="display:inline;fill:#f9f9f9;fill-opacity:0;stroke-width:0.264583"
         id="rect1020-3"
         width="20.32"
         height="128.5"
         x="0"
         y="0" /></clipPath><clipPath
       clipPathUnits="userSpaceOnUse"
       id="clipPath1086-2"><rect
         style="fill:#f9f9f9;fill-opacity:0;stroke-width:0.264583"
         id="rect1088-84"
         width="20.32"
         height="128.5"
         x="0"
         y="-2.7755579e-17" /></clipPath><rect
       x="30.175261"
       y="16.764032"
       width="4.6939292"
       height="17.434595"
       id="rect1148-4" /><clipPath
       clipPathUnits="userSpaceOnUse"
       id="clipPath1018-7"><rect
         style="display:inline;fill:#f9f9f9;fill-opacity:0;stroke-width:0.264583"
         id="rect1020-1"
         width="20.32"
         height="128.5"
         x="0"
         y="0" /></clipPath><clipPath
       clipPathUnits="userSpaceOnUse"
       id="clipPath1086-6"><rect
         style="fill:#f9f9f9;fill-opacity:0;stroke-width:0.264583"
         id="rect1088-3"
         width="20.32"
         height="128.5"
         x="0"
         y="-2.7755579e-17" /></clipPath><rect
       x="30.175261"
       y="16.764032"
       width="4.6939292"
       height="17.434595"
       id="rect1148-2" /><clipPath
       clipPathUnits="userSpaceOnUse"
       id="clipPath1018-8"><rect
         style="display:inline;fill:#f9f9f9;fill-opacity:0;stroke-width:0.264583"
         id="rect1020-0"
         width="20.32"
         height="128.5"
         x="0"
         y="0" /></clipPath><clipPath
       clipPathUnits="userSpaceOnUse"
       id="clipPath1086-7"><rect
         style="fill:#f9f9f9;fill-opacity:0;stroke-width:0.264583"
         id="rect1088-8"
         width="20.32"
         height="128.5"
         x="0"
         y="-2.7755579e-17" /></clipPath><rect
       x="30.175261"
       y="16.764032"
       width="4.6939292"
       height="17.434595"
       id="rect1148-30" /><rect
       x="30.175261"
       y="16.764032"
       width="4.6939292"
       height="17.434595"
       id="rect1148-3-5" /><clipPath
       clipPathUnits="userSpaceOnUse"
       id="clipPath1018-0"><rect
         style="display:inline;fill:#f9f9f9;fill-opacity:0;stroke-width:0.264583"
         id="rect1020-2"
         width="20.32"
         height="128.5"
         x="0"
         y="0" /></clipPath><clipPath
       clipPathUnits="userSpaceOnUse"
       id="clipPath1086-1"><rect
         style="fill:#f9f9f9;fill-opacity:0;stroke-width:0.264583"
         id="rect1088-39"
         width="20.32"
         height="128.5"
         x="0"
         y="-2.7755579e-17" /></clipPath><rect
       x="30.175261"
       y="16.764032"
       width="4.6939292"
       height="17.434595"
       id="rect1148-4-2" /><clipPath
       clipPathUnits="userSpaceOnUse"
       id="clipPath1018-7-6"><rect
         style="display:inline;fill:#f9f9f9;fill-opacity:0;stroke-width:0.264583"
         id="rect1020-1-8"
         width="20.32"
         height="128.5"
         x="0"
         y="0" /></clipPath><clipPath
       clipPathUnits="userSpaceOnUse"
       id="clipPath1086-6-7"><rect
         style="fill:#f9f9f9;fill-opacity:0;stroke-width:0.264583"
         id="rect1088-3-7"
         width="20.32"
         height="128.5"
         x="0"
         y="-2.7755579e-17" /></clipPath><rect
       x="30.175261"
       y="16.764032"
       width="4.6939292"
       height="17.434595"
       id="rect1148-2-5" /><clipPath
       clipPathUnits="userSpaceOnUse"
       id="clipPath1018-8-4"><rect
         style="display:inline;fill:#f9f9f9;fill-opacity:0;stroke-width:0.264583"
         id="rect1020-0-8"
         width="20.32"
         height="128.5"
         x="0"
         y="0" /></clipPath><clipPath
       clipPathUnits="userSpaceOnUse"
       id="clipPath1086-7-3"><rect
         style="fill:#f9f9f9;fill-opacity:0;stroke-width:0.264583"
         id="rect1088-8-8"
         width="20.32"
         height="128.5"
         x="0"
         y="-2.7755579e-17" /></clipPath></defs><g
     inkscape:label="Decals"
     inkscape:groupmode="layer"
     id="layer1"
     transform="translate(67.486557,-18.870491)"><g
       aria-label="♭iii"
       id="text896"
       style="font-size:14.1111px;font-family:'Book Antiqua';-inkscape-font-specification:'Book Antiqua';text-align:center;letter-spacing:0px;text-anchor:middle;fill:#e8d0f0;stroke-width:0.499999;stroke-linecap:square"
       transform="matrix(0.74095484,0,0,1,-17.248915,0.17741935)"><path
         d="M -66.66577,35.902748 V 25.705273 h 0.427192 v 6.573237 q 1.12999,-1.646754 2.21864,-1.646754 0.640787,0 1.102429,0.482313 0.461643,0.475423 0.461643,1.143771 0,1.322916 -1.136881,2.308212 -1.12999,0.978406 -3.073023,1.336696 z m 0.427192,-0.489203 q 2.762964,-0.709689 2.762964,-2.749184 0,-1.247124 -0.964626,-1.247124 -0.799261,0 -1.798338,1.557182 z"
         style="stroke-width:0.5"
         id="path4084" /><path
         d="m -60.297192,26.208257 q 0.316948,0 0.544324,0.234266 0.227376,0.227376 0.227376,0.551215 0,0.323839 -0.227376,0.551215 -0.227376,0.227376 -0.544324,0.227376 -0.323839,0 -0.551215,-0.227376 -0.227376,-0.227376 -0.227376,-0.551215 0,-0.323839 0.227376,-0.551215 0.227376,-0.234266 0.551215,-0.234266 z m 0.551214,3.052352 0.165365,0.103353 q -0.04823,0.516764 -0.06201,1.136881 -0.04823,2.011934 -0.04823,2.96967 0,0.895724 0.06201,1.529621 0.02756,0.248046 0.130913,0.344509 0.103353,0.09646 0.496094,0.144694 l 0.468532,0.06201 v 0.39963 q -1.005967,-0.04823 -1.832789,-0.04823 -0.813042,0 -1.639864,0.04823 v -0.39963 l 0.592556,-0.06201 q 0.344509,-0.02756 0.420301,-0.124023 0.08268,-0.103353 0.103353,-0.668348 0.03445,-0.875054 0.03445,-2.411565 0,-1.067979 -0.03445,-1.646755 -0.01378,-0.213595 -0.124024,-0.303168 -0.103352,-0.08957 -0.475423,-0.08957 h -0.516763 v -0.406521 q 0.840602,-0.124024 1.233343,-0.227376 0.399631,-0.103353 1.026637,-0.3514 z"
         style="stroke-width:0.5"
         id="path4086" /><path
         d="m -56.190642,26.208257 q 0.316948,0 0.544324,0.234266 0.227377,0.227376 0.227377,0.551215 0,0.323839 -0.227377,0.551215 -0.227376,0.227376 -0.544324,0.227376 -0.323839,0 -0.551215,-0.227376 -0.227376,-0.227376 -0.227376,-0.551215 0,-0.323839 0.227376,-0.551215 0.227376,-0.234266 0.551215,-0.234266 z m 0.551215,3.052352 0.165364,0.103353 q -0.04823,0.516764 -0.06201,1.136881 -0.04823,2.011934 -0.04823,2.96967 0,0.895724 0.06201,1.529621 0.02756,0.248046 0.130913,0.344509 0.103353,0.09646 0.496094,0.144694 l 0.468532,0.06201 v 0.39963 q -1.005967,-0.04823 -1.832789,-0.04823 -0.813042,0 -1.639864,0.04823 v -0.39963 l 0.592556,-0.06201 q 0.344509,-0.02756 0.420301,-0.124023 0.08268,-0.103353 0.103353,-0.668348 0.03445,-0.875054 0.03445,-2.411565 0,-1.067979 -0.03445,-1.646755 -0.01378,-0.213595 -0.124023,-0.303168 -0.103353,-0.08957 -0.475423,-0.08957 h -0.516764 v -0.406521 q 0.840602,-0.124024 1.233343,-0.227376 0.399631,-0.103353 1.026638,-0.3514 z"
         style="stroke-width:0.5"
         id="path4088" /><path
         d="m -52.08409,26.208257 q 0.316948,0 0.544325,0.234266 0.227376,0.227376 0.227376,0.551215 0,0.323839 -0.227376,0.551215 -0.227377,0.227376 -0.544325,0.227376 -0.323839,0 -0.551215,-0.227376 -0.227376,-0.227376 -0.227376,-0.551215 0,-0.323839 0.227376,-0.551215 0.227376,-0.234266 0.551215,-0.234266 z m 0.551215,3.052352 0.165364,0.103353 q -0.04823,0.516764 -0.06201,1.136881 -0.04823,2.011934 -0.04823,2.96967 0,0.895724 0.06201,1.529621 0.02756,0.248046 0.130913,0.344509 0.103353,0.09646 0.496094,0.144694 l 0.468532,0.06201 v 0.39963 q -1.005967,-0.04823 -1.832789,-0.04823 -0.813042,0 -1.639864,0.04823 v -0.39963 l 0.592556,-0.06201 q 0.344509,-0.02756 0.420301,-0.124023 0.08268,-0.103353 0.103353,-0.668348 0.03445,-0.875054 0.03445,-2.411565 0,-1.067979 -0.03445,-1.646755 -0.01378,-0.213595 -0.124023,-0.303168 -0.103353,-0.08957 -0.475423,-0.08957 h -0.516764 v -0.406521 q 0.840603,-0.124024 1.233343,-0.227376 0.399631,-0.103353 1.026638,-0.3514 z"
         style="stroke-width:0.5"
         id="path4090" /></g></g></svg>
