<?xml version="1.0" encoding="UTF-8" standalone="no"?>
<!-- Created with Inkscape (http://www.inkscape.org/) -->

<svg
   width="24.82489mm"
   height="24.824518mm"
   viewBox="0 0 24.824891 24.824518"
   version="1.1"
   id="svg5"
   inkscape:version="1.2.1 (9c6d41e410, 2022-07-14)"
   sodipodi:docname="VI_flat.svg"
   xml:space="preserve"
   xmlns:inkscape="http://www.inkscape.org/namespaces/inkscape"
   xmlns:sodipodi="http://sodipodi.sourceforge.net/DTD/sodipodi-0.dtd"
   xmlns="http://www.w3.org/2000/svg"
   xmlns:svg="http://www.w3.org/2000/svg"><sodipodi:namedview
     id="namedview7"
     pagecolor="#ffffff"
     bordercolor="#000000"
     borderopacity="0.25"
     inkscape:showpageshadow="2"
     inkscape:pageopacity="0.0"
     inkscape:pagecheckerboard="0"
     inkscape:deskcolor="#d1d1d1"
     inkscape:document-units="mm"
     showgrid="false"
     inkscape:zoom="5.9651517"
     inkscape:cx="2.5984251"
     inkscape:cy="42.245363"
     inkscape:window-width="1920"
     inkscape:window-height="1017"
     inkscape:window-x="1912"
     inkscape:window-y="-8"
     inkscape:window-maximized="1"
     inkscape:current-layer="layer1"
     showguides="true" /><defs
     id="defs2"><rect
       x="30.175261"
       y="16.764032"
       width="4.6939292"
       height="17.434595"
       id="rect1148" /><clipPath
       clipPathUnits="userSpaceOnUse"
       id="clipPath1018"><rect
         style="display:inline;fill:#f9f9f9;fill-opacity:0;stroke-width:0.264583"
         id="rect1020"
         width="20.32"
         height="128.5"
         x="0"
         y="0" /></clipPath><clipPath
       clipPathUnits="userSpaceOnUse"
       id="clipPath1086"><rect
         style="fill:#f9f9f9;fill-opacity:0;stroke-width:0.264583"
         id="rect1088"
         width="20.32"
         height="128.5"
         x="0"
         y="-2.7755579e-17" /></clipPath><rect
       x="30.175261"
       y="16.764032"
       width="4.6939292"
       height="17.434595"
       id="rect1148-39" /><rect
       x="30.175261"
       y="16.764032"
       width="4.6939292"
       height="17.434595"
       id="rect1148-3" /><clipPath
       clipPathUnits="userSpaceOnUse"
       id="clipPath1018-9"><rect
         style="display:inline;fill:#f9f9f9;fill-opacity:0;stroke-width:0.264583"
         id="rect1020-3"
         width="20.32"
         height="128.5"
         x="0"
         y="0" /></clipPath><clipPath
       clipPathUnits="userSpaceOnUse"
       id="clipPath1086-2"><rect
         style="fill:#f9f9f9;fill-opacity:0;stroke-width:0.264583"
         id="rect1088-84"
         width="20.32"
         height="128.5"
         x="0"
         y="-2.7755579e-17" /></clipPath><rect
       x="30.175261"
       y="16.764032"
       width="4.6939292"
       height="17.434595"
       id="rect1148-4" /><clipPath
       clipPathUnits="userSpaceOnUse"
       id="clipPath1018-7"><rect
         style="display:inline;fill:#f9f9f9;fill-opacity:0;stroke-width:0.264583"
         id="rect1020-1"
         width="20.32"
         height="128.5"
         x="0"
         y="0" /></clipPath><clipPath
       clipPathUnits="userSpaceOnUse"
       id="clipPath1086-6"><rect
         style="fill:#f9f9f9;fill-opacity:0;stroke-width:0.264583"
         id="rect1088-3"
         width="20.32"
         height="128.5"
         x="0"
         y="-2.7755579e-17" /></clipPath><rect
       x="30.175261"
       y="16.764032"
       width="4.6939292"
       height="17.434595"
       id="rect1148-2" /><clipPath
       clipPathUnits="userSpaceOnUse"
       id="clipPath1018-8"><rect
         style="display:inline;fill:#f9f9f9;fill-opacity:0;stroke-width:0.264583"
         id="rect1020-0"
         width="20.32"
         height="128.5"
         x="0"
         y="0" /></clipPath><clipPath
       clipPathUnits="userSpaceOnUse"
       id="clipPath1086-7"><rect
         style="fill:#f9f9f9;fill-opacity:0;stroke-width:0.264583"
         id="rect1088-8"
         width="20.32"
         height="128.5"
         x="0"
         y="-2.7755579e-17" /></clipPath><rect
       x="30.175261"
       y="16.764032"
       width="4.6939292"
       height="17.434595"
       id="rect1148-30" /><rect
       x="30.175261"
       y="16.764032"
       width="4.6939292"
       height="17.434595"
       id="rect1148-3-5" /><clipPath
       clipPathUnits="userSpaceOnUse"
       id="clipPath1018-0"><rect
         style="display:inline;fill:#f9f9f9;fill-opacity:0;stroke-width:0.264583"
         id="rect1020-2"
         width="20.32"
         height="128.5"
         x="0"
         y="0" /></clipPath><clipPath
       clipPathUnits="userSpaceOnUse"
       id="clipPath1086-1"><rect
         style="fill:#f9f9f9;fill-opacity:0;stroke-width:0.264583"
         id="rect1088-39"
         width="20.32"
         height="128.5"
         x="0"
         y="-2.7755579e-17" /></clipPath><rect
       x="30.175261"
       y="16.764032"
       width="4.6939292"
       height="17.434595"
       id="rect1148-4-2" /><clipPath
       clipPathUnits="userSpaceOnUse"
       id="clipPath1018-7-6"><rect
         style="display:inline;fill:#f9f9f9;fill-opacity:0;stroke-width:0.264583"
         id="rect1020-1-8"
         width="20.32"
         height="128.5"
         x="0"
         y="0" /></clipPath><clipPath
       clipPathUnits="userSpaceOnUse"
       id="clipPath1086-6-7"><rect
         style="fill:#f9f9f9;fill-opacity:0;stroke-width:0.264583"
         id="rect1088-3-7"
         width="20.32"
         height="128.5"
         x="0"
         y="-2.7755579e-17" /></clipPath><rect
       x="30.175261"
       y="16.764032"
       width="4.6939292"
       height="17.434595"
       id="rect1148-2-5" /><clipPath
       clipPathUnits="userSpaceOnUse"
       id="clipPath1018-8-4"><rect
         style="display:inline;fill:#f9f9f9;fill-opacity:0;stroke-width:0.264583"
         id="rect1020-0-8"
         width="20.32"
         height="128.5"
         x="0"
         y="0" /></clipPath><clipPath
       clipPathUnits="userSpaceOnUse"
       id="clipPath1086-7-3"><rect
         style="fill:#f9f9f9;fill-opacity:0;stroke-width:0.264583"
         id="rect1088-8-8"
         width="20.32"
         height="128.5"
         x="0"
         y="-2.7755579e-17" /></clipPath></defs><g
     inkscape:label="Decals"
     inkscape:groupmode="layer"
     id="layer1"
     transform="translate(67.486557,-18.870491)"><g
       aria-label="♭vi"
       id="text896"
       style="font-size:14.1111px;font-family:'Book Antiqua';-inkscape-font-specification:'Book Antiqua';text-align:center;letter-spacing:0px;text-anchor:middle;fill:#e8d0f0;stroke-width:0.499999;stroke-linecap:square"
       transform="matrix(0.79637818,0,0,1,-11.174004,0)"><path
         d="M -70.11563,35.991457 V 25.793982 h 0.427192 v 6.573237 q 1.12999,-1.646754 2.21864,-1.646754 0.640787,0 1.102429,0.482313 0.461643,0.475422 0.461643,1.14377 0,1.322916 -1.136881,2.308213 -1.12999,0.978406 -3.073023,1.336696 z m 0.427192,-0.489204 q 2.762964,-0.709689 2.762964,-2.749184 0,-1.247123 -0.964626,-1.247123 -0.799261,0 -1.798338,1.557182 z"
         style="stroke-width:0.5"
         id="path5180" /><path
         d="m -61.690657,29.869958 v -0.399631 q 0.709689,0.04823 1.267794,0.04823 0.647677,0 1.384927,-0.04823 v 0.399631 h -0.213596 q -0.158474,0 -0.310058,0.06201 -0.110243,0.04823 -0.179145,0.124023 -0.0689,0.07579 -0.496093,0.957736 -0.778591,1.605413 -1.192002,2.535588 -0.413412,0.930175 -1.047309,2.508028 h -0.709689 q -0.909504,-2.266872 -1.86035,-4.409719 -0.351399,-0.785481 -0.427191,-1.005967 -0.151584,-0.447862 -0.34451,-0.606337 -0.186035,-0.165364 -0.482313,-0.165364 h -0.227376 v -0.399631 q 1.012858,0.05512 1.688096,0.05512 0.723469,0 1.584742,-0.05512 v 0.399631 h -0.303168 q -0.420301,0 -0.592556,0.08957 -0.117133,0.0689 -0.117133,0.206706 0,0.117133 0.124023,0.475423 0.124024,0.358289 1.667425,4.168562 l 1.233344,-2.97656 q 0.420301,-1.033528 0.516764,-1.433159 0.02756,-0.110243 0.02756,-0.186035 0,-0.130913 -0.08957,-0.192925 -0.08957,-0.06201 -0.461643,-0.103353 z"
         style="stroke-width:0.5"
         id="path5182" /><path
         d="m -56.640151,26.25261 q 0.316948,0 0.544324,0.234267 0.227376,0.227376 0.227376,0.551215 0,0.323838 -0.227376,0.551214 -0.227376,0.227377 -0.544324,0.227377 -0.323839,0 -0.551215,-0.227377 -0.227376,-0.227376 -0.227376,-0.551214 0,-0.323839 0.227376,-0.551215 0.227376,-0.234267 0.551215,-0.234267 z m 0.551215,3.052353 0.165364,0.103352 q -0.04823,0.516764 -0.06201,1.136881 -0.04823,2.011934 -0.04823,2.96967 0,0.895724 0.06201,1.529621 0.02756,0.248047 0.130913,0.34451 0.103353,0.09646 0.496094,0.144693 l 0.468532,0.06201 v 0.399631 q -1.005967,-0.04823 -1.832789,-0.04823 -0.813042,0 -1.639864,0.04823 V 35.5957 l 0.592556,-0.06201 q 0.344509,-0.02756 0.420301,-0.124023 0.08268,-0.103353 0.103353,-0.668348 0.03445,-0.875053 0.03445,-2.411565 0,-1.067979 -0.03445,-1.646754 -0.01378,-0.213596 -0.124024,-0.303168 -0.103352,-0.08957 -0.475422,-0.08957 h -0.516764 v -0.406521 q 0.840602,-0.124023 1.233343,-0.227376 0.399631,-0.103353 1.026638,-0.351399 z"
         style="stroke-width:0.5"
         id="path5184" /></g></g></svg>
